<?xml version="1.0" encoding="UTF-8" standalone="no"?>
<svg xmlns:xlink="http://www.w3.org/1999/xlink" height="265.0px" width="265.0px" xmlns="http://www.w3.org/2000/svg">
  <g transform="matrix(1.0, 0.0, 0.0, 1.0, 0.0, 0.0)">
    <path d="M226.2 38.8 Q265.0 77.6 265.0 132.5 265.0 187.4 226.2 226.2 187.4 265.0 132.5 265.0 77.6 265.0 38.8 226.2 0.0 187.4 0.0 132.5 0.0 77.6 38.8 38.8 77.6 0.0 132.5 0.0 187.4 0.0 226.2 38.8 M253.5 132.5 Q253.5 82.4 218.05 46.95 182.6 11.5 132.5 11.5 82.4 11.5 46.95 46.95 11.5 82.4 11.5 132.5 11.5 182.6 46.95 218.05 82.4 253.5 132.5 253.5 182.6 253.5 218.05 218.05 253.5 182.6 253.5 132.5" fill="url(#gradient0)" fill-rule="evenodd" stroke="none"/>
  </g>
  <defs>
    <linearGradient gradientTransform="matrix(0.1617, 0.0, 0.0, 0.1617, 132.5, 132.5)" gradientUnits="userSpaceOnUse" id="gradient0" spreadMethod="pad" x1="-819.2" x2="819.2">
      <stop offset="0.0" stop-color="#ffcc00"/>
      <stop offset="0.4666666666666667" stop-color="#cc6600"/>
      <stop offset="0.5490196078431373" stop-color="#b05800"/>
      <stop offset="0.6" stop-color="#cd6900"/>
      <stop offset="0.7098039215686275" stop-color="#ffcc33"/>
      <stop offset="0.8901960784313725" stop-color="#cc6600"/>
      <stop offset="1.0" stop-color="#ffcc00"/>
    </linearGradient>
  </defs>
</svg>
