<?xml version="1.0" encoding="UTF-8" standalone="no"?>
<svg xmlns:xlink="http://www.w3.org/1999/xlink" height="192.3px" width="80.0px" xmlns="http://www.w3.org/2000/svg">
  <g transform="matrix(1.0, 0.0, 0.0, 1.0, 0.0, 0.0)">
    <path d="M15.4 0.05 L17.85 0.05 17.85 78.15 0.05 78.15 0.0 78.15 0.0 75.65 15.4 75.65 15.4 0.05 M55.35 0.05 L57.85 0.05 57.85 78.15 40.0 78.15 40.0 75.65 55.35 75.65 55.35 0.05" fill="#00ccff" fill-rule="evenodd" stroke="none"/>
    <path d="M0.0 75.65 L0.0 0.0 15.4 0.0 15.4 0.05 15.4 75.65 0.0 75.65 M40.0 0.05 L40.0 0.0 55.35 0.0 55.35 0.05 55.35 75.65 40.0 75.65 40.0 0.05" fill="#bcd4d6" fill-rule="evenodd" stroke="none"/>
    <path d="M20.0 0.05 L20.0 0.0 35.4 0.0 35.4 0.05 35.4 75.65 20.0 75.65 20.0 0.05 M60.0 0.05 L60.0 0.0 75.35 0.0 75.35 0.05 75.35 75.65 60.0 75.65 60.0 0.05" fill="#66cccc" fill-rule="evenodd" stroke="none"/>
    <path d="M17.85 0.05 L20.0 0.05 20.0 75.65 20.0 78.15 20.0 80.0 0.1 80.0 0.05 80.0 0.05 78.15 17.85 78.15 17.85 0.05 M57.85 0.05 L60.0 0.05 60.0 75.65 60.0 78.15 60.0 80.0 40.0 80.0 40.0 78.15 57.85 78.15 57.85 0.05" fill="#009999" fill-rule="evenodd" stroke="none"/>
    <path d="M37.85 0.05 L40.0 0.05 40.0 75.65 40.0 78.15 40.0 80.0 20.0 80.0 20.0 78.15 37.85 78.15 37.85 0.05 M77.85 0.05 L80.0 0.05 80.0 80.0 79.9 80.0 60.0 80.0 60.0 78.15 77.85 78.15 77.85 0.05" fill="#339999" fill-rule="evenodd" stroke="none"/>
    <path d="M35.4 0.05 L37.85 0.05 37.85 78.15 20.0 78.15 20.0 75.65 35.4 75.65 35.4 0.05 M75.35 0.05 L77.85 0.05 77.85 78.15 60.0 78.15 60.0 75.65 75.35 75.65 75.35 0.05 M43.6 84.85 L46.45 84.85 45.7 86.25 44.75 87.1 44.15 87.4 43.6 87.4 43.6 87.6 46.45 87.6 46.45 91.5 43.6 91.5 43.6 88.3 43.2 88.3 43.2 91.5 40.35 91.5 40.35 82.95 43.2 82.95 43.2 85.7 43.6 85.7 43.6 84.85 M37.1 91.5 L37.1 86.55 36.65 86.55 36.65 91.5 33.8 91.5 33.8 87.2 Q33.95 86.15 34.55 85.65 35.05 85.1 35.55 85.0 L36.3 84.85 39.95 84.85 39.95 91.5 37.1 91.5 M44.75 112.7 L44.8 112.75 44.85 112.8 44.85 112.85 44.9 112.9 44.9 112.95 44.95 113.0 44.95 113.05 45.0 113.1 45.0 113.2 45.0 113.25 45.0 113.3 45.05 113.35 45.05 113.4 45.05 113.45 45.1 113.45 45.1 113.5 45.1 113.55 45.1 113.85 45.1 113.95 45.1 114.1 45.1 114.15 45.1 114.2 45.05 114.25 45.05 114.3 45.0 114.3 45.0 114.35 44.95 114.4 44.95 114.45 44.95 114.5 44.9 114.55 44.85 114.6 44.85 114.65 44.85 114.75 44.8 114.8 44.8 114.85 44.75 114.9 44.75 114.95 44.75 115.0 44.7 115.05 44.7 115.1 44.65 115.1 44.65 115.15 44.6 115.2 44.5 115.25 44.5 115.3 44.5 115.35 44.45 115.4 44.45 115.45 44.4 115.45 44.35 115.5 44.3 115.55 44.25 115.6 44.2 115.65 44.2 115.7 44.15 115.75 44.15 115.8 44.1 115.8 44.05 115.85 44.0 115.9 43.95 115.95 43.95 116.0 43.85 116.05 43.8 116.1 43.75 116.15 43.7 116.15 43.7 116.2 43.65 116.25 43.6 116.3 43.55 116.35 43.5 116.4 43.45 116.45 43.4 116.45 43.35 116.5 43.3 116.55 43.25 116.6 43.2 116.65 43.2 116.7 43.15 116.75 43.1 116.8 43.05 116.8 43.0 116.85 43.0 116.9 42.95 116.95 42.95 117.0 42.9 117.05 42.8 117.1 42.8 117.15 42.75 117.2 42.7 117.25 42.65 117.3 42.6 117.35 42.55 117.4 42.5 117.45 42.5 117.5 42.45 117.5 42.4 117.55 42.4 117.6 42.35 117.65 42.3 117.7 42.3 117.75 42.35 117.8 42.45 117.85 42.55 117.9 42.6 117.95 42.6 118.0 42.65 118.05 42.75 118.1 42.8 118.15 42.85 118.2 42.9 118.2 42.95 118.25 42.95 118.3 43.0 118.3 43.05 118.35 43.1 118.35 43.15 118.4 43.2 118.45 43.25 118.5 43.3 118.55 43.35 118.6 43.4 118.6 43.45 118.65 43.5 118.7 43.55 118.75 43.6 118.8 43.65 118.85 43.7 118.9 43.75 118.95 43.75 119.0 43.8 119.05 43.85 119.1 43.9 119.1 43.9 119.2 43.95 119.2 44.0 119.25 44.0 119.3 43.95 119.35 43.95 119.4 43.95 119.45 43.9 119.45 43.85 119.45 42.5 119.45 42.45 119.5 42.3 119.5 42.2 119.55 42.0 119.55 41.9 119.6 41.3 119.6 41.2 119.65 40.95 119.65 40.85 119.7 40.8 119.7 40.75 119.75 40.7 119.8 40.65 119.8 40.55 119.8 40.45 119.85 40.35 119.85 40.3 119.8 40.25 119.75 40.25 119.7 40.25 119.6 40.25 119.55 40.3 119.5 40.35 119.45 40.35 119.4 40.4 119.35 40.4 119.3 40.4 119.25 40.45 119.25 40.5 119.2 40.5 119.15 40.55 119.1 40.6 119.05 40.65 119.0 40.7 118.95 40.75 118.9 40.75 118.85 40.8 118.8 40.85 118.75 40.9 118.7 40.95 118.65 40.95 118.6 41.0 118.6 41.1 118.5 41.15 118.5 41.2 118.45 41.2 118.4 41.25 118.35 41.3 118.3 41.35 118.25 41.4 118.2 41.45 118.15 41.5 118.1 41.55 118.05 41.6 118.0 41.65 117.95 41.65 117.9 41.7 117.85 41.8 117.8 41.8 117.75 41.75 117.7 41.7 117.65 41.7 117.6 41.65 117.55 41.6 117.5 41.5 117.45 41.45 117.4 41.4 117.4 41.3 117.35 41.25 117.3 41.2 117.3 41.15 117.25 41.1 117.2 41.05 117.2 41.05 117.15 41.0 117.15 40.95 117.1 40.85 117.05 40.75 117.0 40.75 116.95 40.7 116.9 40.6 116.9 40.6 116.85 40.5 116.8 40.45 116.75 40.4 116.7 40.3 116.65 40.25 116.6 40.25 116.55 40.2 116.5 40.2 116.45 40.15 116.4 40.15 116.35 40.1 116.3 40.05 116.25 40.0 116.25 39.95 116.2 39.95 116.15 39.95 116.1 39.9 116.05 39.9 116.0 39.85 115.95 39.8 115.9 39.75 115.85 39.75 115.8 39.75 115.75 39.7 115.75 39.65 115.7 39.6 115.65 39.6 115.6 39.6 115.55 39.55 115.5 39.5 115.45 39.5 115.4 39.45 115.35 39.45 115.3 39.4 115.25 39.35 115.2 39.35 115.15 39.35 115.05 39.3 115.0 39.3 114.95 39.25 114.9 39.25 114.85 39.25 114.8 39.2 114.8 39.15 114.85 39.1 114.9 39.05 114.9 38.9 114.95 38.85 114.95 38.6 114.95 38.55 115.0 38.45 115.0 38.4 114.95 38.1 114.95 38.05 114.9 37.9 114.85 37.85 114.85 37.8 114.8 37.7 114.75 37.6 114.7 37.6 114.65 37.5 114.65 37.45 114.6 37.45 114.55 37.4 114.5 37.35 114.45 37.35 114.4 37.35 114.35 37.3 114.3 37.3 114.25 37.3 114.3 37.2 114.3 37.15 114.35 37.1 114.4 37.05 114.4 37.0 114.45 36.95 114.45 36.9 114.5 36.85 114.5 36.8 114.55 36.7 114.6 36.7 114.65 36.65 114.7 36.6 114.7 36.5 114.75 36.4 114.75 36.35 114.8 36.35 114.85 36.3 114.85 36.25 114.9 36.2 114.9 36.15 114.95 36.05 114.95 36.0 115.0 35.95 115.05 35.9 115.05 35.85 115.1 35.8 115.15 35.7 115.2 35.65 115.25 35.6 115.3 35.5 115.35 35.45 115.4 35.4 115.45 35.35 115.5 35.3 115.5 35.25 115.55 35.2 115.6 35.1 115.65 35.1 115.7 35.05 115.75 34.95 115.75 34.95 115.8 34.9 115.85 34.85 115.9 34.75 115.95 34.7 116.0 34.7 116.05 34.65 116.1 34.6 116.15 34.55 116.15 34.55 116.2 34.5 116.25 34.45 116.3 34.35 116.35 34.35 116.4 34.3 116.4 34.25 116.45 34.2 116.55 34.15 116.6 34.1 116.65 34.05 116.7 34.0 116.7 34.0 116.75 33.95 116.75 33.9 116.8 33.85 116.8 33.75 116.75 33.75 116.7 33.75 116.5 33.8 116.45 33.8 116.4 33.85 116.35 33.85 116.3 33.9 116.25 33.95 116.2 34.0 116.15 34.05 116.1 34.05 116.05 34.1 116.0 34.15 115.95 34.2 115.9 34.2 115.85 34.25 115.8 34.3 115.75 34.35 115.75 34.35 115.7 34.4 115.65 34.4 115.6 34.45 115.55 34.7 115.3 34.85 115.1 34.95 115.0 35.15 114.8 35.25 114.7 35.4 114.55 35.5 114.4 35.55 114.35 35.65 114.3 35.7 114.25 35.75 114.2 35.8 114.15 35.85 114.1 35.95 114.05 36.05 114.05 36.1 114.0 36.15 113.95 36.2 113.9 36.25 113.85 36.35 113.8 36.45 113.75 36.5 113.75 36.6 113.7 36.65 113.65 36.7 113.65 36.8 113.6 36.85 113.55 36.95 113.55 37.0 113.45 37.05 113.45 37.1 113.4 37.1 113.25 37.15 113.25 37.15 113.15 37.2 113.1 37.25 113.05 37.25 113.0 37.3 112.95 37.3 112.9 37.35 112.85 37.4 112.8 37.45 112.75 37.45 112.7 37.5 112.65 37.55 112.6 37.6 112.55 37.65 112.5 37.7 112.5 37.75 112.45 37.8 112.4 37.85 112.35 37.9 112.25 37.95 112.25 38.0 112.25 38.15 112.2 38.2 112.2 38.3 112.15 38.4 112.1 39.4 112.15 39.45 112.2 39.5 112.2 39.55 112.15 39.6 112.1 39.65 112.05 39.7 112.0 39.7 111.95 39.8 111.95 39.85 111.9 39.9 111.85 39.95 111.8 40.0 111.75 40.05 111.7 40.15 111.65 40.25 111.6 40.3 111.6 40.35 111.55 40.35 111.5 40.5 111.45 40.55 111.45 40.6 111.4 40.75 111.4 40.85 111.35 41.0 111.35 41.1 111.3 41.4 111.3 41.45 111.25 42.4 111.3 42.5 111.3 42.55 111.35 42.65 111.4 42.8 111.4 42.9 111.45 43.0 111.5 43.1 111.55 43.2 111.6 43.3 111.65 43.5 111.7 43.6 111.7 43.7 111.75 43.8 111.8 43.8 111.85 43.9 111.9 43.95 111.9 44.05 111.95 44.1 111.95 44.15 112.0 44.2 112.05 44.2 112.1 44.25 112.15 44.3 112.2 44.35 112.25 44.45 112.3 44.5 112.35 44.55 112.4 44.6 112.45 44.65 112.45 44.65 112.5 44.7 112.55 44.7 112.6 44.75 112.65 44.75 112.7 M35.25 115.1 L35.2 115.15 35.1 115.25 35.15 115.2 35.2 115.2 35.25 115.15 35.3 115.1 35.25 115.1 M35.05 115.3 L35.0 115.35 35.05 115.35 35.05 115.3" fill="#66ccff" fill-rule="evenodd" stroke="none"/>
    <path d="M39.95 82.55 L39.95 82.75 39.95 84.65 36.3 84.65 35.45 84.75 Q34.85 84.9 34.25 85.4 33.6 85.85 33.4 86.8 L33.4 91.55 13.0 82.55 39.95 82.55 M43.6 82.75 L43.6 82.55 67.05 82.55 46.85 91.55 46.85 87.4 44.8 87.4 45.3 87.05 46.15 86.2 46.85 84.65 43.6 84.65 43.6 82.75 M38.9 93.95 L33.7 91.7 46.6 91.7 39.85 94.7 38.9 93.95 M40.9 103.15 L40.8 103.2 48.55 115.35 39.95 128.7 32.3 115.35 39.9 102.0 40.9 103.15 M44.75 112.7 L44.75 112.65 44.7 112.6 44.7 112.55 44.65 112.5 44.65 112.45 44.6 112.45 44.55 112.4 44.5 112.35 44.45 112.3 44.35 112.25 44.3 112.2 44.25 112.15 44.2 112.1 44.2 112.05 44.15 112.0 44.1 111.95 44.05 111.95 43.95 111.9 43.9 111.9 43.8 111.85 43.8 111.8 43.7 111.75 43.6 111.7 43.5 111.7 43.3 111.65 43.2 111.6 43.1 111.55 43.0 111.5 42.9 111.45 42.8 111.4 42.65 111.4 42.55 111.35 42.5 111.3 42.4 111.3 41.45 111.25 41.4 111.3 41.1 111.3 41.0 111.35 40.85 111.35 40.75 111.4 40.6 111.4 40.55 111.45 40.5 111.45 40.35 111.5 40.35 111.55 40.3 111.6 40.25 111.6 40.15 111.65 40.05 111.7 40.0 111.75 39.95 111.8 39.9 111.85 39.85 111.9 39.8 111.95 39.7 111.95 39.7 112.0 39.65 112.05 39.6 112.1 39.55 112.15 39.5 112.2 39.45 112.2 39.4 112.15 38.4 112.1 38.3 112.15 38.2 112.2 38.15 112.2 38.0 112.25 37.95 112.25 37.9 112.25 37.85 112.35 37.8 112.4 37.75 112.45 37.7 112.5 37.65 112.5 37.6 112.55 37.55 112.6 37.5 112.65 37.45 112.7 37.45 112.75 37.4 112.8 37.35 112.85 37.3 112.9 37.3 112.95 37.25 113.0 37.25 113.05 37.2 113.1 37.15 113.15 37.15 113.25 37.1 113.25 37.1 113.4 37.05 113.45 37.0 113.45 36.95 113.55 36.85 113.55 36.8 113.6 36.7 113.65 36.65 113.65 36.6 113.7 36.5 113.75 36.45 113.75 36.35 113.8 36.25 113.85 36.2 113.9 36.15 113.95 36.1 114.0 36.05 114.05 35.95 114.05 35.85 114.1 35.8 114.15 35.75 114.2 35.7 114.25 35.65 114.3 35.55 114.35 35.5 114.4 35.4 114.55 35.25 114.7 35.15 114.8 34.95 115.0 34.85 115.1 34.7 115.3 34.45 115.55 34.4 115.6 34.4 115.65 34.35 115.7 34.35 115.75 34.3 115.75 34.25 115.8 34.2 115.85 34.2 115.9 34.15 115.95 34.1 116.0 34.05 116.05 34.05 116.1 34.0 116.15 33.95 116.2 33.9 116.25 33.85 116.3 33.85 116.35 33.8 116.4 33.8 116.45 33.75 116.5 33.75 116.7 33.75 116.75 33.85 116.8 33.9 116.8 33.95 116.75 34.0 116.75 34.0 116.7 34.05 116.7 34.1 116.65 34.15 116.6 34.2 116.55 34.25 116.45 34.3 116.4 34.35 116.4 34.35 116.35 34.45 116.3 34.5 116.25 34.55 116.2 34.55 116.15 34.6 116.15 34.65 116.1 34.7 116.05 34.7 116.0 34.75 115.95 34.85 115.9 34.9 115.85 34.95 115.8 34.95 115.75 35.05 115.75 35.1 115.7 35.1 115.65 35.2 115.6 35.25 115.55 35.3 115.5 35.35 115.5 35.4 115.45 35.45 115.4 35.5 115.35 35.6 115.3 35.65 115.25 35.7 115.2 35.8 115.15 35.85 115.1 35.9 115.05 35.95 115.05 36.0 115.0 36.05 114.95 36.15 114.95 36.2 114.9 36.25 114.9 36.3 114.85 36.35 114.85 36.35 114.8 36.4 114.75 36.5 114.75 36.6 114.7 36.65 114.7 36.7 114.65 36.7 114.6 36.8 114.55 36.85 114.5 36.9 114.5 36.95 114.45 37.0 114.45 37.05 114.4 37.1 114.4 37.15 114.35 37.2 114.3 37.3 114.3 37.3 114.25 37.3 114.3 37.35 114.35 37.35 114.4 37.35 114.45 37.4 114.5 37.45 114.55 37.45 114.6 37.5 114.65 37.6 114.65 37.6 114.7 37.7 114.75 37.8 114.8 37.85 114.85 37.9 114.85 38.05 114.9 38.1 114.95 38.4 114.95 38.45 115.0 38.55 115.0 38.6 114.95 38.85 114.95 38.9 114.95 39.05 114.9 39.1 114.9 39.15 114.85 39.2 114.8 39.25 114.8 39.25 114.85 39.25 114.9 39.3 114.95 39.3 115.0 39.35 115.05 39.35 115.15 39.35 115.2 39.4 115.25 39.45 115.3 39.45 115.35 39.5 115.4 39.5 115.45 39.55 115.5 39.6 115.55 39.6 115.6 39.6 115.65 39.65 115.7 39.7 115.75 39.75 115.75 39.75 115.8 39.75 115.85 39.8 115.9 39.85 115.95 39.9 116.0 39.9 116.05 39.95 116.1 39.95 116.15 39.95 116.2 40.0 116.25 40.05 116.25 40.1 116.3 40.15 116.35 40.15 116.4 40.2 116.45 40.2 116.5 40.25 116.55 40.25 116.6 40.3 116.65 40.4 116.7 40.45 116.75 40.5 116.8 40.6 116.85 40.6 116.9 40.7 116.9 40.75 116.95 40.75 117.0 40.85 117.05 40.95 117.1 41.0 117.15 41.05 117.15 41.05 117.2 41.1 117.2 41.15 117.25 41.2 117.3 41.25 117.3 41.3 117.35 41.4 117.4 41.45 117.4 41.5 117.45 41.6 117.5 41.65 117.55 41.7 117.6 41.7 117.65 41.75 117.7 41.8 117.75 41.8 117.8 41.7 117.85 41.65 117.9 41.65 117.95 41.6 118.0 41.55 118.05 41.5 118.1 41.45 118.15 41.4 118.2 41.35 118.25 41.3 118.3 41.25 118.35 41.2 118.4 41.2 118.45 41.15 118.5 41.1 118.5 41.0 118.6 40.95 118.6 40.95 118.65 40.9 118.7 40.85 118.75 40.8 118.8 40.75 118.85 40.75 118.9 40.7 118.95 40.65 119.0 40.6 119.05 40.55 119.1 40.5 119.15 40.5 119.2 40.45 119.25 40.4 119.25 40.4 119.3 40.4 119.35 40.35 119.4 40.35 119.45 40.3 119.5 40.25 119.55 40.25 119.6 40.25 119.7 40.25 119.75 40.3 119.8 40.35 119.85 40.45 119.85 40.55 119.8 40.65 119.8 40.7 119.8 40.75 119.75 40.8 119.7 40.85 119.7 40.95 119.65 41.2 119.65 41.3 119.6 41.9 119.6 42.0 119.55 42.2 119.55 42.3 119.5 42.45 119.5 42.5 119.45 43.85 119.45 43.9 119.45 43.95 119.45 43.95 119.4 43.95 119.35 44.0 119.3 44.0 119.25 43.95 119.2 43.9 119.2 43.9 119.1 43.85 119.1 43.8 119.05 43.75 119.0 43.75 118.95 43.7 118.9 43.65 118.85 43.6 118.8 43.55 118.75 43.5 118.7 43.45 118.65 43.4 118.6 43.35 118.6 43.3 118.55 43.25 118.5 43.2 118.45 43.15 118.4 43.1 118.35 43.05 118.35 43.0 118.3 42.95 118.3 42.95 118.25 42.9 118.2 42.85 118.2 42.8 118.15 42.75 118.1 42.65 118.05 42.6 118.0 42.6 117.95 42.55 117.9 42.45 117.85 42.35 117.8 42.3 117.75 42.3 117.7 42.35 117.65 42.4 117.6 42.4 117.55 42.45 117.5 42.5 117.5 42.5 117.45 42.55 117.4 42.6 117.35 42.65 117.3 42.7 117.25 42.75 117.2 42.8 117.15 42.8 117.1 42.9 117.05 42.95 117.0 42.95 116.95 43.0 116.9 43.0 116.85 43.05 116.8 43.1 116.8 43.15 116.75 43.2 116.7 43.2 116.65 43.25 116.6 43.3 116.55 43.35 116.5 43.4 116.45 43.45 116.45 43.5 116.4 43.55 116.35 43.6 116.3 43.65 116.25 43.7 116.2 43.7 116.15 43.75 116.15 43.8 116.1 43.85 116.05 43.95 116.0 43.95 115.95 44.0 115.9 44.05 115.85 44.1 115.8 44.15 115.8 44.15 115.75 44.2 115.7 44.2 115.65 44.25 115.6 44.3 115.55 44.35 115.5 44.4 115.45 44.45 115.45 44.45 115.4 44.5 115.35 44.5 115.3 44.5 115.25 44.6 115.2 44.65 115.15 44.65 115.1 44.7 115.1 44.7 115.05 44.75 115.0 44.75 114.95 44.75 114.9 44.8 114.85 44.8 114.8 44.85 114.75 44.85 114.65 44.85 114.6 44.9 114.55 44.95 114.5 44.95 114.45 44.95 114.4 45.0 114.35 45.0 114.3 45.05 114.3 45.05 114.25 45.1 114.2 45.1 114.15 45.1 114.1 45.1 113.95 45.1 113.85 45.1 113.55 45.1 113.5 45.1 113.45 45.05 113.45 45.05 113.4 45.05 113.35 45.0 113.3 45.0 113.25 45.0 113.2 45.0 113.1 44.95 113.05 44.95 113.0 44.9 112.95 44.9 112.9 44.85 112.85 44.85 112.8 44.8 112.75 44.75 112.7 M35.05 115.3 L35.05 115.35 35.0 115.35 35.05 115.3 M35.25 115.1 L35.3 115.1 35.25 115.15 35.2 115.2 35.15 115.2 35.1 115.25 35.2 115.15 35.25 115.1" fill="#cccccc" fill-rule="evenodd" stroke="none"/>
    <path d="M39.95 82.75 L39.95 82.55 43.6 82.55 43.6 82.75 39.95 82.75" fill="#de7f00" fill-rule="evenodd" stroke="none"/>
    <path d="M39.95 82.55 L13.0 82.55 33.4 91.55 33.4 86.8 Q33.6 85.85 34.25 85.4 34.85 84.9 35.45 84.75 L36.3 84.65 39.95 84.65 39.95 82.75 43.6 82.75 43.6 84.65 46.85 84.65 46.15 86.2 45.3 87.05 44.8 87.4 46.85 87.4 46.85 91.55 67.05 82.55 43.6 82.55 39.95 82.55 M43.6 84.85 L43.6 85.7 43.2 85.7 43.2 82.95 40.35 82.95 40.35 91.5 43.2 91.5 43.2 88.3 43.6 88.3 43.6 91.5 46.45 91.5 46.45 87.6 43.6 87.6 43.6 87.4 44.15 87.4 44.75 87.1 45.7 86.25 46.45 84.85 43.6 84.85 M37.1 91.5 L39.95 91.5 39.95 84.85 36.3 84.85 35.55 85.0 Q35.05 85.1 34.55 85.65 33.95 86.15 33.8 87.2 L33.8 91.5 36.65 91.5 36.65 86.55 37.1 86.55 37.1 91.5 M39.9 95.85 L38.7 95.0 8.0 81.5 72.1 81.5 39.9 95.85 M38.9 93.95 L39.85 94.7 46.6 91.7 33.7 91.7 38.9 93.95 M40.9 100.5 L40.8 100.6 50.3 115.45 39.75 131.9 30.3 115.45 39.65 99.05 40.9 100.5 M40.9 103.15 L39.9 102.0 32.3 115.35 39.95 128.7 48.55 115.35 40.8 103.2 40.9 103.15" fill="#b1baba" fill-rule="evenodd" stroke="none"/>
    <path d="M79.9 80.0 L40.9 97.25 52.75 115.8 41.55 133.3 Q53.15 133.6 61.5 141.9 70.15 150.55 70.15 162.8 70.15 175.0 61.5 183.65 52.85 192.3 40.6 192.3 28.4 192.3 19.75 183.65 11.1 175.0 11.1 162.8 11.1 150.55 19.75 141.9 27.45 134.2 38.05 133.4 L27.85 115.8 38.8 96.85 0.1 80.0 20.0 80.0 40.0 80.0 60.0 80.0 79.9 80.0 M39.9 95.85 L72.1 81.5 8.0 81.5 38.7 95.0 39.9 95.85 M40.9 100.5 L39.65 99.05 30.3 115.45 39.75 131.9 50.3 115.45 40.8 100.6 40.9 100.5 M38.35 137.3 L38.35 137.35 Q29.1 138.05 22.35 144.85 14.8 152.4 14.8 163.1 14.8 173.8 22.35 181.35 29.9 188.9 40.6 188.95 51.3 188.9 58.9 181.35 66.45 173.8 66.45 163.1 66.45 152.4 58.9 144.85 51.6 137.55 41.45 137.3 L38.35 137.3" fill="#a19b9a" fill-rule="evenodd" stroke="none"/>
    <path d="M38.35 137.3 L41.45 137.3 Q51.6 137.55 58.9 144.85 66.45 152.4 66.45 163.1 66.45 173.8 58.9 181.35 51.3 188.9 40.6 188.95 29.9 188.9 22.35 181.35 14.8 173.8 14.8 163.1 14.8 152.4 22.35 144.85 29.1 138.05 38.35 137.35 L38.35 137.3" fill="#999999" fill-rule="evenodd" stroke="none"/>
  </g>
</svg>
