<?xml version="1.0" encoding="UTF-8" standalone="no"?>
<svg xmlns:xlink="http://www.w3.org/1999/xlink" height="169.6px" width="186.25px" xmlns="http://www.w3.org/2000/svg">
  <g transform="matrix(1.0, 0.0, 0.0, 1.0, -46.4, -89.65)">
    <path d="M182.2 244.8 L181.15 243.9 182.0 244.5 182.2 244.8 M90.5 232.0 L86.4 231.85 88.45 231.75 90.05 231.9 90.5 232.0 M46.7 128.95 Q47.05 126.5 48.75 125.0 L48.35 125.6 47.3 127.0 47.2 127.25 46.75 128.75 46.7 128.95" fill="url(#gradient0)" fill-rule="evenodd" stroke="none"/>
    <path d="M48.75 125.0 L50.15 123.3 51.0 122.4 51.4 122.15 Q52.25 121.7 53.15 121.6 L53.15 121.55 55.05 121.7 55.1 121.7 55.45 121.4 Q55.8 121.15 56.15 121.0 L56.55 120.85 56.6 120.8 57.25 121.0 Q60.25 122.8 64.1 122.8 L65.15 123.0 Q66.85 123.7 68.45 124.5 70.5 124.55 72.3 125.55 L73.2 125.95 Q75.05 127.05 77.05 128.05 77.4 128.2 77.75 128.5 L78.6 129.35 78.7 129.65 78.8 129.9 Q79.55 130.5 79.95 131.35 L80.2 131.9 80.3 132.2 80.4 133.05 Q80.95 133.95 80.85 135.05 L80.8 135.9 80.8 137.9 80.65 139.3 80.4 139.9 80.4 141.3 80.4 141.9 80.4 142.15 80.15 143.3 Q79.95 143.85 80.0 144.45 L79.9 144.7 79.75 145.0 79.65 145.3 79.55 146.45 79.3 147.3 79.25 147.55 79.05 148.4 78.9 148.7 78.85 149.0 78.75 149.55 78.5 150.15 78.5 150.4 78.5 150.7 78.5 151.0 78.5 151.25 78.4 151.55 78.25 151.85 78.15 152.1 78.15 153.55 78.15 154.1 78.15 154.4 78.15 155.25 78.15 156.1 79.2 158.15 79.9 159.3 81.35 161.3 82.2 162.95 83.5 164.4 83.85 164.9 84.1 165.2 85.15 166.35 Q85.3 167.5 86.1 168.35 L86.75 169.2 87.85 171.2 88.45 172.6 88.75 172.9 89.2 173.5 89.4 173.75 89.5 174.05 89.55 174.6 89.7 175.2 89.8 175.45 90.1 175.75 90.35 176.05 90.45 176.3 90.6 176.6 90.75 176.9 90.95 177.2 91.05 180.05 91.15 183.45 Q91.25 185.65 90.5 187.75 L89.6 190.3 Q88.95 190.9 88.45 191.65 L88.0 192.25 87.7 192.55 87.15 193.1 87.05 193.4 86.95 193.7 85.45 195.15 84.9 195.7 84.65 195.95 84.1 196.55 83.8 197.45 83.15 198.25 82.85 198.55 82.6 198.8 82.3 199.7 81.65 200.55 81.35 200.8 81.05 201.1 80.95 201.4 80.9 201.65 Q80.35 202.1 80.15 202.8 L79.7 203.7 79.55 203.95 79.25 204.5 79.25 204.8 79.15 205.35 78.9 205.95 78.9 207.65 78.9 207.95 78.9 208.2 78.9 209.65 78.9 211.05 78.9 211.65 79.05 211.9 79.35 212.5 79.55 213.05 80.95 214.5 81.55 215.05 81.85 215.3 83.05 216.2 84.2 216.4 84.6 216.0 84.95 215.85 85.45 215.7 86.1 215.95 86.5 216.2 Q96.35 214.65 105.7 211.0 107.05 210.5 107.95 209.35 L108.25 209.2 108.25 209.0 108.25 208.7 108.1 208.4 107.95 207.85 107.9 207.25 107.75 207.0 107.6 206.7 107.5 206.4 107.5 206.15 107.5 205.55 107.5 205.0 107.4 204.7 107.25 204.4 107.1 204.15 107.1 199.6 107.1 195.3 107.1 194.75 107.25 194.45 107.4 194.15 107.5 193.9 107.5 193.6 107.6 192.75 107.9 192.2 107.85 191.6 108.0 190.5 108.25 189.9 108.25 189.6 108.25 189.35 108.25 188.75 108.4 188.5 108.55 188.2 108.65 187.9 108.65 187.65 108.65 187.35 108.65 186.75 108.85 186.2 109.3 185.05 109.4 184.8 109.4 184.5 109.4 184.2 109.65 183.65 110.05 182.75 110.15 182.5 110.15 182.2 110.15 181.95 110.4 181.35 110.8 180.5 110.9 180.25 110.9 179.95 110.9 179.65 111.95 177.35 112.9 175.1 113.2 174.8 113.5 174.55 113.6 174.25 113.65 173.95 113.95 173.7 114.25 173.4 114.35 173.1 114.45 172.8 114.7 172.55 115.0 172.25 Q115.1 171.8 115.35 171.4 L116.5 170.0 116.6 169.7 116.7 169.4 119.85 165.65 Q120.6 164.65 121.6 163.8 118.15 163.25 115.5 159.95 111.3 154.6 106.15 150.25 104.2 151.5 101.35 150.95 L100.7 150.8 98.0 148.4 96.25 146.8 96.15 146.5 96.05 146.25 95.75 145.95 95.45 145.65 95.2 145.4 Q95.0 144.3 94.45 143.35 L93.85 142.25 93.2 141.1 92.6 139.15 92.15 137.65 91.6 136.25 91.6 134.0 91.6 132.3 91.6 130.55 91.7 130.3 91.85 130.0 91.95 129.7 91.95 129.45 91.95 129.15 92.2 128.55 92.55 127.7 92.7 127.15 92.85 126.9 93.1 126.6 93.4 126.3 93.45 126.0 93.5 125.75 93.55 125.45 95.5 122.55 Q96.4 121.15 97.7 120.0 L98.6 119.2 Q99.55 118.75 100.6 118.55 L101.85 118.45 101.95 118.15 102.1 117.85 102.2 117.55 102.2 117.3 103.6 115.05 104.6 113.3 104.95 112.45 106.7 110.8 Q107.4 110.15 107.7 109.3 109.9 107.55 112.2 106.0 114.15 104.65 115.7 102.85 L115.8 102.3 115.85 101.45 115.85 100.6 114.8 99.05 113.9 98.0 113.7 97.75 113.6 97.45 113.6 97.15 113.6 96.9 113.7 96.6 Q113.95 96.3 114.25 96.15 L115.0 95.8 115.0 95.75 115.4 95.8 116.05 95.95 116.45 96.25 116.75 96.5 117.0 96.7 Q118.25 96.35 119.45 96.7 L120.6 97.05 121.0 97.35 121.2 97.55 122.1 97.55 122.7 97.45 122.7 97.35 122.7 97.05 122.05 95.35 121.95 93.95 121.95 93.35 121.85 93.1 121.7 92.8 121.55 92.5 121.55 91.95 121.6 90.8 121.65 90.5 121.9 90.25 122.55 89.8 123.0 89.65 123.65 89.85 124.0 90.2 124.35 90.7 124.5 91.0 124.65 91.15 125.15 91.4 125.55 91.65 125.85 91.95 126.05 92.15 128.7 92.65 129.15 92.8 130.55 92.85 130.9 92.95 131.55 92.7 Q135.0 91.8 138.65 91.7 L146.25 91.4 146.8 91.1 Q147.95 90.55 149.3 90.55 L149.95 90.5 149.95 90.45 156.75 90.65 161.55 91.65 166.95 92.15 167.3 92.45 167.5 92.6 168.45 92.95 169.4 93.35 171.55 93.95 174.9 94.8 176.05 95.15 Q176.6 95.75 177.4 96.0 L179.95 96.8 183.35 98.15 185.15 98.95 185.5 99.3 186.35 100.15 186.65 100.4 187.55 101.25 187.8 101.55 189.4 103.55 189.5 103.8 189.6 104.1 189.9 104.4 190.15 104.6 190.55 104.45 195.1 104.7 196.9 105.05 197.3 105.35 198.1 106.2 199.3 107.3 199.4 107.6 199.95 108.75 Q200.4 109.75 201.3 110.45 L201.55 110.75 201.65 111.0 201.75 111.3 202.05 111.6 202.35 111.9 202.6 112.15 202.8 112.45 202.9 112.75 202.95 113.3 203.0 113.85 203.0 114.45 203.15 114.75 203.95 117.85 Q204.25 119.95 204.15 122.15 L204.15 122.4 204.0 122.7 203.85 123.0 203.75 123.25 203.75 123.55 203.8 124.7 203.6 126.4 203.35 126.95 203.35 128.65 202.85 134.35 Q202.6 136.45 201.85 138.35 L201.85 138.65 201.75 139.2 201.55 139.8 Q201.4 140.2 201.5 140.65 L201.35 140.9 201.2 141.5 200.9 142.4 200.6 143.2 200.45 143.5 200.25 143.75 200.15 144.05 200.05 144.35 199.8 144.65 199.6 144.9 199.55 145.15 198.7 147.15 197.4 150.05 197.1 150.3 196.85 150.6 196.75 150.9 196.65 151.15 196.35 151.45 196.05 151.75 195.8 152.05 195.5 152.6 194.75 153.2 Q192.75 154.85 191.2 156.9 L189.9 158.6 190.25 158.9 Q191.25 159.8 192.55 160.2 198.0 160.1 202.75 162.8 204.3 163.7 206.0 164.3 L208.2 165.95 210.65 167.4 211.0 167.75 211.15 167.95 211.35 168.25 Q212.9 168.95 214.05 170.2 L215.7 171.95 216.0 172.25 216.05 172.55 216.15 172.8 Q216.95 173.4 217.45 174.15 L218.4 175.7 218.8 176.55 219.3 176.8 219.7 177.1 221.55 179.6 222.6 180.85 222.95 181.4 223.75 183.05 224.05 183.35 224.35 183.65 224.4 183.95 224.5 184.2 224.8 184.5 225.1 184.8 225.35 185.3 225.85 186.15 226.4 187.05 226.55 187.6 226.75 188.5 227.15 189.35 227.25 189.6 227.25 189.9 227.25 190.2 227.25 190.5 227.25 191.05 227.55 191.9 227.9 193.1 228.4 194.2 Q228.4 195.05 228.75 195.9 L229.35 197.6 229.45 197.9 229.5 198.15 229.55 199.0 229.65 199.3 229.8 199.6 229.95 199.85 229.95 202.15 229.95 203.55 229.95 203.85 Q230.05 204.9 229.65 205.85 L229.55 206.7 229.45 207.0 229.3 207.3 229.2 207.55 229.05 208.15 228.9 208.4 228.7 208.7 228.6 209.0 228.5 209.25 Q223.95 214.15 217.15 213.2 214.2 212.75 211.8 211.15 L210.6 210.85 210.55 212.0 210.45 212.3 210.3 212.6 210.2 212.85 Q210.2 213.95 209.6 214.9 209.05 215.8 208.75 216.85 L208.5 217.15 208.2 217.45 208.1 217.7 208.0 218.0 207.7 218.3 207.45 218.55 207.35 218.85 207.25 219.15 206.95 219.4 206.75 219.7 209.5 219.15 Q214.35 219.15 218.85 220.7 L224.25 222.35 224.9 222.9 225.45 223.2 227.2 224.0 228.8 224.65 229.5 225.15 230.0 225.5 230.9 226.4 231.9 227.8 232.1 228.05 232.2 228.65 232.2 228.9 232.2 229.2 232.2 229.5 232.2 229.75 232.3 230.05 232.45 230.35 232.6 230.6 232.6 231.2 232.6 231.45 232.65 232.9 Q232.7 234.05 232.35 235.15 L231.4 237.2 231.15 237.75 Q219.15 249.65 201.85 250.35 L198.9 250.5 Q193.0 250.95 188.0 248.35 L187.6 248.05 187.4 247.9 186.1 247.55 185.5 247.35 Q184.2 246.8 183.15 245.9 L182.2 244.8 182.0 244.5 181.15 243.9 181.1 243.85 180.95 243.7 180.85 243.6 180.6 243.35 180.3 243.05 180.2 242.95 Q175.8 245.15 170.8 245.7 L170.4 246.0 170.15 246.2 Q166.05 247.65 162.3 247.35 L162.25 247.5 161.6 249.5 161.4 250.05 160.85 250.65 159.25 252.35 159.15 252.65 159.05 252.9 158.75 253.2 158.45 253.5 158.35 253.8 158.3 254.05 Q138.6 263.6 117.75 255.6 L117.4 255.3 117.2 255.1 116.9 255.0 115.75 254.65 115.1 254.45 114.7 254.15 113.45 253.35 113.1 253.1 112.45 252.9 112.05 252.65 111.8 252.35 111.7 252.05 111.6 251.8 Q109.2 249.8 108.35 246.9 107.65 244.75 108.1 242.45 108.35 241.1 108.75 239.85 111.85 235.9 116.35 233.85 L121.4 231.25 120.65 230.45 118.1 231.1 106.25 232.25 Q98.25 233.35 90.5 232.0 L90.05 231.9 88.45 231.75 86.4 231.85 80.9 232.6 80.5 232.55 79.45 232.15 73.75 231.25 67.3 225.3 65.9 223.85 65.8 223.6 65.7 223.3 65.1 222.75 64.0 221.6 63.45 220.1 62.45 218.2 62.4 217.9 62.35 217.6 62.35 217.3 62.35 217.05 Q61.7 214.15 61.75 211.05 61.75 208.55 62.35 206.2 L62.35 205.95 62.35 205.65 62.35 205.35 62.35 205.1 62.95 204.0 63.6 202.25 66.35 197.9 68.05 195.7 68.5 194.55 Q68.8 193.7 69.5 193.1 L70.1 191.35 Q70.45 190.25 71.3 189.4 L71.45 188.85 71.8 187.95 71.95 187.45 72.1 187.15 72.3 186.85 72.55 186.55 72.6 186.3 72.65 186.0 72.9 185.45 73.0 185.15 73.0 184.85 73.0 184.6 73.1 184.3 73.25 184.0 73.4 183.75 73.4 181.45 73.4 178.9 73.1 178.3 72.6 177.45 72.35 177.2 72.25 176.9 72.15 176.6 Q69.4 174.05 67.1 171.25 66.2 170.15 65.05 169.5 L63.75 167.45 62.75 165.5 62.75 165.2 62.75 164.95 62.75 164.35 62.75 164.1 62.65 163.8 62.5 163.5 62.35 163.25 62.55 159.8 62.75 156.4 62.85 156.1 63.0 155.8 63.15 155.55 63.05 154.1 Q62.95 152.9 63.5 151.85 L63.5 147.85 63.5 143.85 63.4 143.6 63.25 143.3 63.15 143.0 63.15 142.7 Q61.65 142.45 60.15 141.45 58.9 140.65 57.45 140.15 L57.05 139.85 56.85 139.7 56.2 139.55 55.55 139.4 Q54.9 138.85 54.1 138.6 L50.6 137.5 49.6 136.75 Q48.0 135.55 46.9 133.8 L46.85 133.5 46.75 133.25 46.55 132.65 46.45 132.4 46.4 131.25 Q46.3 130.05 46.7 128.95 L46.75 128.75 47.2 127.25 47.3 127.0 48.35 125.6 48.75 125.0 M181.1 100.4 L179.65 100.0 Q177.65 99.55 175.8 98.75 170.85 96.7 165.8 95.1 151.25 92.6 136.55 94.95 L132.85 95.75 132.5 96.0 132.2 96.2 131.7 96.3 130.95 96.25 130.3 96.1 130.05 95.95 129.9 95.85 129.75 95.65 127.1 95.75 125.15 95.25 125.4 95.85 125.55 97.0 125.55 97.25 125.65 97.55 125.8 97.85 125.95 98.1 125.9 98.4 125.8 98.95 125.65 99.55 125.25 99.8 124.5 100.1 124.35 100.05 Q122.15 101.6 119.7 100.25 L118.8 99.75 118.7 101.35 118.75 102.75 118.55 104.2 Q116.6 106.6 114.05 108.4 L109.8 111.6 109.55 111.9 109.4 112.15 109.35 112.45 108.7 112.95 107.8 113.6 107.0 114.95 106.25 116.15 Q106.0 116.55 105.9 117.0 L105.65 117.3 105.45 117.55 105.3 118.5 104.8 119.6 104.7 119.85 104.7 120.15 104.65 120.4 104.45 121.0 104.3 121.25 Q102.95 122.2 101.25 121.65 L100.3 121.9 99.65 122.15 98.45 123.95 97.3 125.25 97.0 125.55 96.9 125.85 96.8 126.1 96.55 126.4 96.3 126.7 96.3 126.95 96.25 127.25 96.05 127.55 95.85 127.85 95.75 128.1 95.65 128.4 95.4 128.7 95.2 128.95 95.15 129.25 95.05 129.5 94.9 129.8 94.8 130.1 94.8 130.4 94.8 130.65 94.6 131.25 94.45 131.5 94.35 134.1 Q94.3 135.25 94.65 136.4 L95.45 138.05 Q95.85 139.7 96.55 141.25 97.3 142.95 98.45 144.35 L99.25 145.75 101.25 147.3 102.1 147.95 104.1 147.95 104.65 147.6 104.95 147.35 105.25 147.1 105.65 146.85 106.3 146.6 106.65 146.65 106.65 146.6 107.35 146.8 107.55 147.0 107.7 147.1 107.9 147.4 107.95 147.5 108.75 148.5 110.3 149.65 111.5 150.5 Q113.75 153.6 116.45 156.4 118.85 158.9 121.55 160.95 L121.85 161.05 122.35 161.15 122.5 161.1 123.0 161.05 123.65 161.25 124.05 161.5 124.3 162.1 Q124.55 162.65 124.3 163.2 L124.15 163.65 124.3 164.0 Q124.5 164.55 124.3 165.15 L124.2 165.4 121.45 168.55 120.2 170.25 Q119.0 171.2 118.25 172.5 L117.3 173.95 117.2 174.25 117.1 174.55 116.9 175.1 Q116.45 175.5 116.15 176.05 L115.3 177.1 114.25 180.05 113.0 182.8 112.95 183.65 112.25 185.05 112.2 185.6 111.95 186.8 111.85 187.35 111.75 187.6 111.6 187.9 111.5 188.2 111.45 188.5 111.35 189.05 111.1 189.6 111.1 189.9 111.1 190.2 111.1 190.75 111.0 191.05 110.85 191.35 110.75 191.6 110.75 191.9 110.75 192.45 110.75 193.05 110.6 193.3 110.45 193.6 110.35 193.9 Q109.9 196.15 109.95 198.45 L109.95 202.7 109.95 203.3 110.2 203.85 110.35 205.0 110.35 205.55 110.5 205.85 110.7 206.45 110.75 207.0 110.95 207.6 111.35 208.7 111.5 209.0 111.5 209.55 111.35 210.7 111.1 211.25 110.7 211.5 110.05 211.75 109.9 211.7 109.15 212.2 109.05 212.45 108.85 212.75 Q98.55 217.4 87.35 219.5 L85.0 219.35 Q82.6 219.9 80.65 218.45 L78.95 216.9 77.25 215.15 77.2 214.85 77.1 214.55 76.8 214.3 76.5 214.0 76.45 213.7 76.3 213.15 76.05 212.6 76.05 210.6 76.05 209.45 76.05 207.45 76.1 205.2 76.4 204.3 76.4 204.05 76.4 203.75 76.4 203.45 76.7 202.9 Q76.9 202.4 77.25 202.05 L77.45 201.75 77.55 201.45 77.55 201.2 77.55 200.9 Q77.7 200.4 78.1 200.05 L78.75 199.2 78.9 198.95 79.15 198.65 79.45 198.35 79.55 198.05 79.65 197.75 80.5 196.95 81.1 196.1 81.25 195.75 81.35 195.5 81.45 195.2 81.75 194.95 82.0 194.65 82.1 194.35 82.2 194.05 83.05 193.2 84.0 192.35 84.4 192.1 85.05 191.2 85.6 190.65 85.9 190.35 86.1 190.1 86.25 189.8 86.3 189.5 86.4 189.25 87.25 187.8 87.45 187.25 87.55 186.95 88.0 185.85 88.2 185.25 88.2 183.25 88.2 182.7 88.2 180.95 88.2 179.25 88.2 178.7 87.4 177.3 87.15 176.7 87.0 176.45 86.7 175.55 86.65 175.3 Q86.0 174.55 85.65 173.55 L85.55 173.3 85.5 173.0 84.65 171.5 83.9 170.15 83.15 169.25 82.6 168.4 82.5 168.15 82.4 167.9 80.85 165.85 79.7 164.05 77.75 161.35 Q76.85 160.15 76.3 158.75 L76.05 158.5 75.75 158.2 75.65 157.9 75.55 157.65 75.4 157.35 75.3 157.05 75.3 155.35 75.3 155.05 75.3 155.0 75.3 154.8 75.3 153.95 75.3 153.35 75.3 151.95 75.3 151.1 75.4 150.8 75.55 150.5 75.65 150.25 Q75.6 149.5 75.85 148.8 L76.05 148.25 76.15 147.95 76.4 146.8 76.4 146.25 76.55 145.95 76.7 145.65 76.8 145.4 76.8 145.1 76.8 144.8 76.8 144.55 76.8 144.25 76.9 143.95 77.05 143.65 77.2 143.4 77.2 143.1 77.3 142.55 77.55 141.95 77.55 140.55 77.55 140.0 77.55 139.7 77.65 138.85 77.95 138.25 77.95 137.15 77.95 136.3 77.95 136.0 77.95 135.15 77.95 134.85 77.8 134.6 77.65 134.25 77.55 134.0 77.55 133.7 77.55 133.45 77.55 133.15 77.0 132.25 76.35 131.4 76.15 131.15 75.95 130.85 72.05 128.9 70.8 128.35 69.95 128.0 69.6 127.75 69.4 127.55 Q66.6 127.25 64.05 125.85 L63.15 125.35 Q59.6 125.4 56.3 124.2 L55.9 124.05 55.75 124.2 55.55 124.3 Q54.1 124.35 52.8 124.9 L52.3 125.45 50.4 127.7 49.95 128.3 49.85 128.6 49.65 129.15 49.3 130.0 49.3 130.3 49.3 130.6 49.3 131.15 49.3 131.45 49.4 131.7 49.8 132.6 50.6 133.7 Q52.45 135.1 54.65 135.85 L58.0 136.95 58.4 137.25 58.6 137.4 Q61.3 138.05 63.75 139.45 L66.05 140.75 66.15 141.0 66.25 141.3 66.35 141.6 66.25 141.9 66.2 142.1 Q66.6 144.85 66.6 147.85 66.6 150.65 66.0 153.25 L65.85 157.55 Q65.6 159.4 65.6 161.25 L65.5 161.5 65.35 161.8 65.2 162.1 65.4 162.95 Q65.7 163.65 65.6 164.35 L65.6 164.65 65.7 164.95 65.9 165.2 66.25 165.8 66.35 166.1 66.35 166.35 72.9 173.0 74.8 174.9 74.9 175.2 75.0 175.45 75.35 176.05 75.45 176.35 75.45 176.6 75.65 176.9 75.95 177.2 Q76.4 179.25 76.45 181.45 76.5 183.55 75.85 185.45 L75.2 187.7 Q74.55 188.95 74.25 190.3 L73.65 191.2 Q73.2 191.8 73.1 192.55 L72.45 193.65 71.5 195.1 71.35 195.4 71.3 195.7 71.2 196.25 71.1 196.55 70.5 197.35 69.3 198.8 69.2 199.1 69.1 199.4 68.7 200.0 68.05 201.1 67.9 201.4 67.6 201.65 67.2 201.95 67.05 202.25 66.95 202.5 66.85 202.8 66.55 203.1 66.35 203.35 66.35 203.65 66.25 203.95 65.95 204.55 65.4 205.65 65.2 205.95 65.2 206.2 65.2 206.5 65.2 206.8 65.2 207.05 65.1 207.35 64.95 207.65 64.85 207.95 64.85 211.65 64.85 215.35 64.95 215.6 65.1 215.9 65.2 216.2 Q66.35 220.9 70.0 224.3 71.7 225.9 73.65 227.0 L74.0 227.3 74.15 227.55 74.25 227.85 Q76.9 229.15 80.0 229.2 L80.55 229.7 Q88.0 227.75 95.7 228.75 L107.05 229.3 Q110.95 229.15 114.75 228.25 L117.8 227.95 119.7 227.65 120.35 227.5 121.0 227.7 121.35 227.9 121.45 227.85 121.85 227.9 122.5 228.05 124.6 229.85 124.85 229.9 125.9 230.25 126.1 230.55 126.3 231.4 Q126.3 232.0 125.9 232.5 L125.7 232.65 125.55 232.9 125.15 233.15 124.5 233.35 124.1 233.35 123.9 233.3 123.35 233.6 121.75 234.7 121.55 234.8 120.4 235.15 119.65 235.35 119.35 235.65 119.1 235.85 Q116.9 236.5 115.0 237.85 L113.75 238.7 113.6 239.0 113.5 239.25 113.1 239.5 112.55 239.85 112.3 240.15 112.15 240.4 111.5 241.25 111.45 241.55 111.25 242.1 110.75 243.25 110.75 243.55 110.75 243.8 110.75 244.4 110.75 244.65 111.1 245.5 111.95 247.8 112.15 248.35 113.95 249.95 116.25 251.7 Q132.65 259.1 150.4 254.25 L154.15 252.8 155.45 252.45 Q156.45 251.0 157.75 249.75 158.8 248.7 159.1 247.3 L159.5 246.45 159.5 246.2 159.5 245.9 159.55 245.35 159.6 245.05 159.8 244.75 160.1 244.5 160.45 244.3 160.95 244.2 161.3 244.2 161.85 244.4 161.9 243.9 162.1 243.65 162.4 243.4 163.2 243.1 163.2 243.05 164.3 243.6 165.05 244.05 169.3 243.25 169.6 243.0 169.95 242.75 177.45 241.05 177.8 240.75 178.1 240.5 178.5 240.25 179.15 240.05 179.15 240.0 179.55 240.05 180.2 240.25 180.3 240.3 180.4 240.25 181.05 240.0 181.7 240.2 182.05 240.5 182.25 240.8 182.4 241.05 182.55 241.35 183.25 241.9 183.7 242.2 184.35 242.8 184.9 243.6 185.15 243.9 185.6 244.15 186.25 244.4 187.25 244.8 188.55 245.15 188.9 245.45 189.1 245.6 190.05 245.95 190.55 246.15 191.1 246.5 191.3 246.65 Q197.95 247.85 204.7 246.75 L208.1 246.3 Q211.05 245.25 214.15 244.55 218.8 243.6 222.7 240.85 L223.4 240.7 224.05 240.1 224.45 239.85 225.6 239.0 Q226.35 238.1 227.35 237.55 L227.8 236.95 227.95 236.7 228.15 236.4 228.4 236.1 228.9 235.3 229.15 235.0 229.3 234.7 229.4 234.4 229.45 234.15 229.55 233.85 229.75 233.55 229.75 233.0 229.75 232.7 229.75 232.4 229.75 232.15 229.75 231.85 229.45 231.3 229.4 231.0 229.35 230.7 229.35 230.45 229.35 229.85 229.35 229.6 229.2 229.3 229.05 229.0 228.9 228.7 228.7 228.45 228.6 228.15 Q222.0 224.2 214.5 222.95 208.55 221.95 202.65 223.45 201.65 223.7 200.9 223.05 L200.55 222.45 200.5 222.15 200.55 221.9 200.6 221.6 200.7 221.3 Q201.25 220.75 202.05 220.6 L202.35 220.55 Q202.95 219.65 203.85 218.95 L204.15 218.05 Q204.6 217.25 205.35 216.65 L206.65 213.8 207.3 212.25 207.35 212.15 207.65 211.25 207.65 211.15 207.4 209.8 Q207.25 208.8 207.45 207.85 L207.65 207.6 Q207.95 207.3 208.3 207.15 L208.75 207.0 209.4 207.25 209.7 207.4 209.9 207.35 Q213.8 209.0 217.85 209.85 220.3 210.35 222.8 209.85 L223.95 208.9 225.55 207.85 225.9 207.25 226.2 206.4 Q226.25 205.95 226.55 205.55 L226.7 205.3 226.7 205.0 226.7 204.7 226.8 204.45 226.95 204.15 227.1 203.85 227.1 203.0 227.1 201.85 227.1 200.75 226.9 200.45 226.8 200.15 226.7 199.6 226.7 199.0 226.3 198.2 225.85 197.05 225.55 196.15 225.55 195.9 225.55 195.6 225.55 195.3 225.55 195.05 225.4 194.75 225.25 194.45 225.1 194.2 224.9 193.9 224.85 193.6 224.8 193.3 224.8 193.05 224.8 192.75 224.55 192.2 224.4 191.35 224.4 190.75 224.4 190.5 224.25 190.2 224.1 189.9 223.95 189.6 223.75 189.35 222.95 187.05 222.0 185.6 221.6 185.1 Q220.9 184.2 220.55 183.05 L220.25 182.8 219.95 182.5 219.85 182.2 219.75 181.95 219.2 181.35 218.35 180.5 218.05 180.25 217.95 179.95 217.85 179.65 217.3 179.1 216.45 178.25 216.15 177.95 216.05 177.65 216.0 177.4 215.7 177.1 215.4 176.8 215.3 176.55 215.2 176.25 213.85 174.55 Q213.25 173.45 212.25 172.55 L211.9 172.3 211.35 171.95 211.05 171.65 210.85 171.4 Q206.5 168.0 201.55 165.5 196.6 162.95 191.0 162.95 L188.15 161.0 186.0 159.55 185.8 158.95 185.75 158.1 Q185.8 157.6 186.2 157.25 L186.45 157.1 186.65 157.0 187.1 156.95 187.15 156.9 187.25 156.95 Q188.2 155.5 189.55 154.35 190.85 153.2 191.7 151.75 L192.0 151.5 Q193.55 150.5 194.6 148.9 195.4 147.7 195.7 146.35 L195.9 146.05 196.15 145.75 196.25 145.45 196.45 144.9 196.7 144.3 196.85 143.75 196.95 143.5 197.35 142.9 197.7 142.35 197.85 142.05 197.85 141.75 197.85 141.5 197.85 141.2 198.0 140.95 198.4 140.1 198.8 138.65 199.0 138.05 199.0 137.8 199.0 137.5 199.1 137.2 199.35 136.65 199.55 136.1 199.75 135.5 199.75 135.2 199.75 134.95 199.75 134.65 199.75 134.35 199.9 134.1 200.05 133.8 200.15 133.5 200.15 133.25 200.15 132.65 200.15 131.8 200.15 130.65 200.25 130.4 200.4 130.1 200.55 129.8 200.55 129.55 200.55 128.1 200.6 125.85 200.9 124.95 200.9 124.7 200.9 123.85 200.95 122.4 201.3 121.55 201.3 121.25 201.3 120.7 201.3 120.15 201.3 119.3 201.15 119.0 201.0 118.7 200.9 118.45 200.9 118.15 200.9 117.85 200.9 117.55 200.75 117.3 200.6 117.0 200.55 116.7 200.55 116.45 200.55 116.15 200.4 115.85 200.25 115.55 200.15 115.3 200.15 115.0 200.15 114.7 200.15 114.45 200.15 114.15 199.95 113.85 199.65 113.3 199.25 112.7 199.1 112.45 198.8 112.2 198.35 111.9 198.1 111.55 197.95 111.3 197.8 111.0 197.55 110.75 197.3 110.45 197.2 110.15 197.15 109.9 197.1 109.6 196.9 109.35 196.35 108.75 195.45 107.95 195.0 107.6 194.65 107.55 188.75 107.25 188.5 106.9 188.0 106.7 187.6 106.45 187.35 106.15 187.25 105.9 187.15 105.6 186.85 105.35 186.15 104.5 186.0 104.2 185.25 103.35 184.95 103.05 184.5 102.6 183.55 101.65 183.15 101.4 182.3 101.05 181.95 100.75 181.75 100.6 181.1 100.4" fill="#eca908" fill-rule="evenodd" stroke="none"/>
    <path d="M130.05 95.95 L130.3 96.1 130.95 96.25 131.7 96.3 132.2 96.2 132.5 96.0 132.85 95.75 136.55 94.95 Q151.25 92.6 165.8 95.1 170.85 96.7 175.8 98.75 177.65 99.55 179.65 100.0 L181.1 100.4 184.5 102.6 184.95 103.05 185.25 103.35 186.0 104.2 186.15 104.5 186.85 105.35 187.15 105.6 187.25 105.9 187.35 106.15 187.6 106.45 188.0 106.7 188.5 106.9 188.75 107.25 194.65 107.55 195.0 107.6 195.45 107.95 196.35 108.75 196.9 109.35 197.1 109.6 197.15 109.9 197.2 110.15 197.3 110.45 197.55 110.75 197.8 111.0 197.95 111.3 198.1 111.55 198.35 111.9 198.8 112.2 199.1 112.45 199.25 112.7 199.65 113.3 199.95 113.85 200.15 114.15 200.15 114.45 200.15 114.7 200.15 115.0 200.15 115.3 200.25 115.55 200.4 115.85 200.55 116.15 200.55 116.45 200.55 116.7 200.6 117.0 200.75 117.3 200.9 117.55 200.9 117.85 200.9 118.15 200.9 118.45 201.0 118.7 201.15 119.0 201.3 119.3 201.3 120.15 201.3 120.7 201.3 121.25 201.3 121.55 200.95 122.4 200.9 123.85 200.9 124.7 200.9 124.95 200.6 125.85 200.55 128.1 200.55 129.55 200.55 129.8 200.4 130.1 200.25 130.4 200.15 130.65 200.15 131.8 200.15 132.65 200.15 133.25 200.15 133.5 200.05 133.8 199.9 134.1 199.75 134.35 199.75 134.65 199.75 134.95 199.75 135.2 199.75 135.5 199.55 136.1 199.35 136.65 199.1 137.2 199.0 137.5 199.0 137.8 199.0 138.05 198.8 138.65 198.4 140.1 198.0 140.95 197.85 141.2 197.85 141.5 197.85 141.75 197.85 142.05 197.7 142.35 197.35 142.9 196.95 143.5 196.85 143.75 196.7 144.3 196.45 144.9 196.25 145.45 196.15 145.75 195.9 146.05 195.7 146.35 Q195.4 147.7 194.6 148.9 193.55 150.5 192.0 151.5 L191.7 151.75 Q190.85 153.2 189.55 154.35 188.2 155.5 187.25 156.95 L187.15 156.9 187.1 156.95 186.65 157.0 186.45 157.1 186.2 157.25 Q185.8 157.6 185.75 158.1 L185.8 158.95 186.0 159.55 188.15 161.0 191.0 162.95 Q196.6 162.95 201.55 165.5 206.5 168.0 210.85 171.4 L211.05 171.65 211.35 171.95 211.9 172.3 212.25 172.55 Q213.25 173.45 213.85 174.55 L215.2 176.25 215.3 176.55 215.4 176.8 215.7 177.1 216.0 177.4 216.05 177.65 216.15 177.95 216.45 178.25 217.3 179.1 217.85 179.65 217.95 179.95 218.05 180.25 218.35 180.5 219.2 181.35 219.75 181.95 219.85 182.2 219.95 182.5 220.25 182.8 220.55 183.05 Q220.9 184.2 221.6 185.1 L222.0 185.6 222.95 187.05 223.75 189.35 223.95 189.6 224.1 189.9 224.25 190.2 224.4 190.5 224.4 190.75 224.4 191.35 224.55 192.2 224.8 192.75 224.8 193.05 224.8 193.3 224.85 193.6 224.9 193.9 225.1 194.2 225.25 194.45 225.4 194.75 225.55 195.05 225.55 195.3 225.55 195.6 225.55 195.9 225.55 196.15 225.85 197.05 226.3 198.2 226.7 199.0 226.7 199.6 226.8 200.15 226.9 200.45 227.1 200.75 227.1 201.85 227.1 203.0 227.1 203.85 226.95 204.15 226.8 204.45 226.7 204.7 226.7 205.0 226.7 205.3 226.55 205.55 Q226.25 205.95 226.2 206.4 L225.9 207.25 225.55 207.85 223.95 208.9 222.8 209.85 Q220.3 210.35 217.85 209.85 213.8 209.0 209.9 207.35 L209.7 207.4 209.4 207.25 208.75 207.0 208.3 207.15 Q207.95 207.3 207.65 207.6 L207.45 207.85 Q207.25 208.8 207.4 209.8 L207.65 211.15 207.35 212.15 207.3 212.25 206.65 213.8 205.35 216.65 Q204.6 217.25 204.15 218.05 L203.85 218.95 Q202.95 219.65 202.35 220.55 L202.05 220.6 Q201.25 220.75 200.7 221.3 L200.6 221.6 200.55 221.9 200.5 222.15 200.55 222.45 200.9 223.05 Q201.65 223.7 202.65 223.45 208.55 221.95 214.5 222.95 222.0 224.2 228.6 228.15 L228.7 228.45 228.9 228.7 229.05 229.0 229.2 229.3 229.35 229.6 229.35 229.85 229.35 230.45 229.35 230.7 229.4 231.0 229.45 231.3 229.75 231.85 229.75 232.15 229.75 232.4 229.75 232.7 229.75 233.0 229.75 233.55 229.55 233.85 229.45 234.15 229.4 234.4 229.3 234.7 229.15 235.0 228.9 235.3 228.4 236.1 228.15 236.4 227.95 236.7 227.8 236.95 227.35 237.55 Q226.35 238.1 225.6 239.0 L224.45 239.85 224.05 240.1 223.4 240.7 222.7 240.85 Q218.8 243.6 214.15 244.55 211.05 245.25 208.1 246.3 L204.7 246.75 Q197.95 247.85 191.3 246.65 L191.1 246.5 190.55 246.15 190.05 245.95 189.1 245.6 188.9 245.45 188.55 245.15 187.25 244.8 186.25 244.4 185.6 244.15 185.15 243.9 184.9 243.6 184.35 242.8 183.7 242.2 183.25 241.9 182.55 241.35 182.4 241.05 182.25 240.8 182.05 240.5 181.7 240.2 181.05 240.0 180.4 240.25 180.3 240.3 180.2 240.25 179.55 240.05 179.15 240.0 179.15 240.05 178.5 240.25 178.1 240.5 177.8 240.75 177.45 241.05 169.95 242.75 169.6 243.0 169.3 243.25 165.05 244.05 164.3 243.6 163.2 243.05 163.2 243.1 162.4 243.4 162.1 243.65 161.9 243.9 161.85 244.4 161.3 244.2 160.95 244.2 160.45 244.3 160.1 244.5 159.8 244.75 159.6 245.05 159.55 245.35 159.5 245.9 159.5 246.2 159.5 246.45 159.1 247.3 Q158.8 248.7 157.75 249.75 156.45 251.0 155.45 252.45 L154.15 252.8 150.4 254.25 Q132.65 259.1 116.25 251.7 L113.95 249.95 112.15 248.35 111.95 247.8 111.1 245.5 110.75 244.65 110.75 244.4 110.75 243.8 110.75 243.55 110.75 243.25 111.25 242.1 111.45 241.55 111.5 241.25 112.15 240.4 112.3 240.15 112.55 239.85 113.1 239.5 113.5 239.25 113.6 239.0 113.75 238.7 115.0 237.85 Q116.9 236.5 119.1 235.85 L119.35 235.65 119.65 235.35 120.4 235.15 121.55 234.8 121.75 234.7 123.35 233.6 123.9 233.3 124.1 233.35 124.5 233.35 125.15 233.15 125.55 232.9 125.7 232.65 125.9 232.5 Q126.3 232.0 126.3 231.4 L126.1 230.55 125.9 230.25 124.85 229.9 124.6 229.85 122.5 228.05 121.85 227.9 121.45 227.85 121.35 227.9 121.0 227.7 120.35 227.5 119.7 227.65 117.8 227.95 114.75 228.25 Q110.95 229.15 107.05 229.3 L95.7 228.75 Q88.0 227.75 80.55 229.7 L80.0 229.2 Q76.9 229.15 74.25 227.85 L74.15 227.55 74.0 227.3 73.65 227.0 Q71.7 225.9 70.0 224.3 66.35 220.9 65.2 216.2 L65.1 215.9 64.95 215.6 64.85 215.35 64.85 211.65 64.85 207.95 64.95 207.65 65.1 207.35 65.2 207.05 65.2 206.8 65.2 206.5 65.2 206.2 65.2 205.95 65.4 205.65 65.95 204.55 66.25 203.95 66.35 203.65 66.35 203.35 66.55 203.1 66.85 202.8 66.95 202.5 67.05 202.25 67.2 201.95 67.6 201.65 67.9 201.4 68.05 201.1 68.7 200.0 69.1 199.4 69.2 199.1 69.3 198.8 70.5 197.35 71.1 196.55 71.2 196.25 71.3 195.7 71.35 195.4 71.5 195.1 72.45 193.65 73.1 192.55 Q73.2 191.8 73.65 191.2 L74.25 190.3 Q74.55 188.95 75.2 187.7 L75.85 185.45 Q76.5 183.55 76.45 181.45 76.4 179.25 75.95 177.2 L75.65 176.9 75.45 176.6 75.45 176.35 75.35 176.05 75.0 175.45 74.9 175.2 74.8 174.9 72.9 173.0 66.35 166.35 66.35 166.1 66.25 165.8 65.9 165.2 65.7 164.95 65.6 164.65 65.6 164.35 Q65.7 163.65 65.4 162.95 L65.2 162.1 65.35 161.8 65.5 161.5 65.6 161.25 Q65.6 159.4 65.85 157.55 L66.0 153.25 Q66.6 150.65 66.6 147.85 66.6 144.85 66.2 142.1 L66.25 141.9 66.35 141.6 66.25 141.3 66.15 141.0 66.05 140.75 63.75 139.45 Q61.3 138.05 58.6 137.4 L58.4 137.25 58.0 136.95 54.65 135.85 Q52.45 135.1 50.6 133.7 L49.8 132.6 49.4 131.7 49.3 131.45 49.3 131.15 49.3 130.6 49.3 130.3 49.3 130.0 49.65 129.15 49.85 128.6 49.95 128.3 50.4 127.7 52.3 125.45 52.8 124.9 Q54.1 124.35 55.55 124.3 L55.75 124.2 55.9 124.05 56.3 124.2 Q59.6 125.4 63.15 125.35 L64.05 125.85 Q66.6 127.25 69.4 127.55 L69.6 127.75 69.95 128.0 70.8 128.35 72.05 128.9 75.95 130.85 76.15 131.15 76.35 131.4 77.0 132.25 77.55 133.15 77.55 133.45 77.55 133.7 77.55 134.0 77.65 134.25 77.8 134.6 77.95 134.85 77.95 135.15 77.95 136.0 77.95 136.3 77.95 137.15 77.95 138.25 77.65 138.85 77.55 139.7 77.55 140.0 77.55 140.55 77.55 141.95 77.3 142.55 77.2 143.1 77.2 143.4 77.05 143.65 76.9 143.95 76.8 144.25 76.8 144.55 76.8 144.8 76.8 145.1 76.8 145.4 76.7 145.65 76.55 145.95 76.4 146.25 76.4 146.8 76.15 147.95 76.05 148.25 75.85 148.8 Q75.6 149.5 75.65 150.25 L75.55 150.5 75.4 150.8 75.3 151.1 75.3 151.95 75.3 153.35 75.3 153.95 75.3 155.0 75.3 155.05 75.3 155.35 75.3 157.05 75.4 157.35 75.55 157.65 75.65 157.9 75.75 158.2 76.05 158.5 76.3 158.75 Q76.85 160.15 77.75 161.35 L79.7 164.05 80.85 165.85 82.4 167.9 82.5 168.15 82.6 168.4 83.15 169.25 83.9 170.15 84.65 171.5 85.5 173.0 85.55 173.3 85.65 173.55 Q86.0 174.55 86.65 175.3 L86.7 175.55 87.0 176.45 87.15 176.7 87.4 177.3 88.2 178.7 88.2 179.25 88.2 180.95 88.2 182.7 88.2 183.25 88.2 185.25 88.0 185.85 87.55 186.95 87.45 187.25 87.25 187.8 86.4 189.25 86.3 189.5 86.25 189.8 86.1 190.1 85.9 190.35 85.6 190.65 85.05 191.2 84.4 192.1 84.0 192.35 83.05 193.2 82.2 194.05 82.1 194.35 82.0 194.65 81.75 194.95 81.45 195.2 81.35 195.5 81.25 195.75 81.1 196.1 80.5 196.95 79.65 197.75 79.55 198.05 79.45 198.35 79.15 198.65 78.9 198.95 78.75 199.2 78.1 200.05 Q77.7 200.4 77.55 200.9 L77.55 201.2 77.55 201.45 77.45 201.75 77.25 202.05 Q76.9 202.4 76.7 202.9 L76.4 203.45 76.4 203.75 76.4 204.05 76.4 204.3 76.1 205.2 76.05 207.45 76.05 209.45 76.05 210.6 76.05 212.6 76.3 213.15 76.45 213.7 76.5 214.0 76.8 214.3 77.1 214.55 77.2 214.85 77.25 215.15 78.95 216.9 80.65 218.45 Q82.6 219.9 85.0 219.35 L87.35 219.5 Q98.55 217.4 108.85 212.75 L109.05 212.45 109.15 212.2 109.9 211.7 110.05 211.75 110.7 211.5 111.1 211.25 111.35 210.7 111.5 209.55 111.5 209.0 111.35 208.7 110.95 207.6 110.75 207.0 110.7 206.45 110.5 205.85 110.35 205.55 110.35 205.0 110.2 203.85 109.95 203.3 109.95 202.7 109.95 198.45 Q109.9 196.15 110.35 193.9 L110.45 193.6 110.6 193.3 110.75 193.05 110.75 192.45 110.75 191.9 110.75 191.6 110.85 191.35 111.0 191.05 111.1 190.75 111.1 190.2 111.1 189.9 111.1 189.6 111.35 189.05 111.45 188.5 111.5 188.2 111.6 187.9 111.75 187.6 111.85 187.35 111.95 186.8 112.2 185.6 112.25 185.05 112.95 183.65 113.0 182.8 114.25 180.05 115.3 177.1 116.15 176.05 Q116.45 175.5 116.9 175.1 L117.1 174.55 117.2 174.25 117.3 173.95 118.25 172.5 Q119.0 171.2 120.2 170.25 L121.45 168.55 124.2 165.4 124.3 165.15 Q124.5 164.55 124.3 164.0 L124.15 163.65 124.3 163.2 Q124.55 162.65 124.3 162.1 L124.05 161.5 123.65 161.25 123.0 161.05 122.5 161.1 122.35 161.15 121.85 161.05 121.55 160.95 Q118.85 158.9 116.45 156.4 113.75 153.6 111.5 150.5 L110.3 149.65 108.75 148.5 107.95 147.5 107.9 147.4 107.7 147.1 107.55 147.0 107.35 146.8 106.65 146.6 106.65 146.65 106.3 146.6 105.65 146.85 105.25 147.1 104.95 147.35 104.65 147.6 104.1 147.95 102.1 147.95 101.25 147.3 99.25 145.75 98.45 144.35 Q97.3 142.95 96.55 141.25 95.85 139.7 95.45 138.05 L94.65 136.4 Q94.3 135.25 94.35 134.1 L94.45 131.5 94.6 131.25 94.8 130.65 94.8 130.4 94.8 130.1 94.9 129.8 95.05 129.5 95.15 129.25 95.2 128.95 95.4 128.7 95.65 128.4 95.75 128.1 95.85 127.85 96.05 127.55 96.25 127.25 96.3 126.95 96.3 126.7 96.55 126.4 96.8 126.1 96.9 125.85 97.0 125.55 97.3 125.25 98.45 123.95 99.65 122.15 100.3 121.9 101.25 121.65 Q102.95 122.2 104.3 121.25 L104.45 121.0 104.65 120.4 104.7 120.15 104.7 119.85 104.8 119.6 105.3 118.5 105.45 117.55 105.65 117.3 105.9 117.0 Q106.0 116.55 106.25 116.15 L107.0 114.95 107.8 113.6 108.7 112.95 109.35 112.45 109.4 112.15 109.55 111.9 109.8 111.6 114.05 108.4 Q116.6 106.6 118.55 104.2 L118.75 102.75 118.7 101.35 118.8 99.75 119.7 100.25 Q122.15 101.6 124.35 100.05 L124.5 100.1 125.25 99.8 125.65 99.55 125.8 98.95 125.9 98.4 125.95 98.1 125.8 97.85 125.65 97.55 125.55 97.25 125.55 97.0 125.4 95.85 125.15 95.25 127.1 95.75 127.4 96.05 130.05 95.95" fill="#ffcc00" fill-rule="evenodd" stroke="none"/>
  </g>
  <defs>
    <linearGradient gradientTransform="matrix(0.0894, 0.0894, -0.0755, 0.0755, 143.1, 177.15)" gradientUnits="userSpaceOnUse" id="gradient0" spreadMethod="pad" x1="-819.2" x2="819.2">
      <stop offset="0.0" stop-color="#ffe82f"/>
      <stop offset="0.5490196078431373" stop-color="#f0be00"/>
      <stop offset="0.6549019607843137" stop-color="#fdf800"/>
      <stop offset="0.7098039215686275" stop-color="#ecab08"/>
      <stop offset="0.7843137254901961" stop-color="#eca908"/>
      <stop offset="0.8392156862745098" stop-color="#efb807"/>
      <stop offset="0.8941176470588236" stop-color="#f5d504"/>
      <stop offset="0.9490196078431372" stop-color="#f9e502"/>
      <stop offset="1.0" stop-color="#fdf900"/>
    </linearGradient>
  </defs>
</svg>
