<?xml version="1.0" encoding="UTF-8" standalone="no"?>
<svg xmlns:xlink="http://www.w3.org/1999/xlink" height="29.65px" width="91.95px" xmlns="http://www.w3.org/2000/svg">
  <g transform="matrix(1.0, 0.0, 0.0, 1.0, 0.0, 0.0)">
    <path d="M71.5 4.0 L71.45 4.05 71.45 4.0 71.5 4.0 M70.75 23.6 L70.85 23.7 70.7 23.65 70.75 23.6" fill="url(#gradient0)" fill-rule="evenodd" stroke="none"/>
    <path d="M21.15 25.05 L21.2 25.15 21.15 25.15 21.15 25.05" fill="url(#gradient1)" fill-rule="evenodd" stroke="none"/>
    <path d="M91.65 5.7 Q91.3 6.25 91.3 6.55 90.85 7.7 89.7 9.25 L88.1 11.7 84.7 16.35 82.85 18.85 81.15 21.4 78.4 25.95 77.75 27.05 Q77.25 27.95 76.45 27.95 L75.95 27.9 74.2 27.2 Q72.8 26.75 72.35 26.5 L70.05 25.45 68.1 24.1 68.15 23.3 72.95 16.75 Q73.8 16.25 75.0 14.45 L68.8 3.35 Q68.5 2.35 69.55 2.0 L80.15 1.5 Q81.15 1.35 81.95 2.55 L83.35 5.4 83.75 4.85 Q84.3 4.1 84.7 3.9 L86.15 2.7 Q87.2 1.7 88.15 1.75 L90.3 2.95 91.95 4.45 Q92.05 5.15 91.65 5.7 M70.85 23.7 L75.35 25.6 76.0 25.55 Q78.9 21.95 82.9 14.9 L86.6 10.15 Q88.85 6.9 89.5 4.85 L88.85 4.35 88.3 4.1 Q86.05 5.2 83.75 8.5 82.35 8.6 81.7 7.65 81.45 7.25 81.15 6.1 L80.6 4.6 80.1 3.75 78.5 3.7 75.0 3.85 71.5 4.0 71.45 4.0 71.45 4.05 Q73.05 7.6 76.45 12.85 L77.0 13.85 Q77.3 14.45 77.25 15.2 L75.2 17.85 Q74.0 18.9 72.8 20.6 L70.75 23.6 70.7 23.65 70.85 23.7 M63.55 14.9 Q61.75 13.5 58.5 12.75 L52.95 11.55 Q51.85 11.05 52.1 9.55 52.75 7.65 54.0 7.4 56.3 7.65 57.35 8.15 L57.75 8.3 58.15 8.4 58.6 5.95 Q58.6 3.95 57.65 2.7 L56.2 2.0 54.15 1.8 Q51.95 1.8 50.5 2.5 L47.3 4.1 Q45.8 5.05 45.55 6.45 45.45 9.25 45.85 11.8 46.5 12.6 49.2 14.0 L51.6 15.1 Q53.1 15.8 54.05 16.7 54.05 17.45 53.55 18.4 53.1 19.35 51.85 19.1 L49.9 18.95 48.4 18.65 Q46.2 20.7 45.65 23.1 46.25 23.9 47.6 24.7 L49.9 25.85 53.35 26.95 56.55 27.65 Q58.45 27.65 60.4 24.8 L62.2 20.95 Q63.35 18.35 63.7 16.75 64.05 15.55 63.55 14.9 M64.65 20.9 L61.8 26.95 Q59.25 29.65 57.5 29.65 L56.4 29.4 Q51.7 28.4 48.35 26.9 L45.75 25.4 Q44.25 24.55 43.35 23.3 L43.35 22.25 Q45.25 18.4 47.35 16.7 L49.25 17.15 51.85 17.3 Q52.15 17.2 51.95 17.1 51.45 16.75 47.95 15.15 45.4 13.95 44.0 12.4 43.5 10.95 43.3 8.05 L43.4 6.95 Q43.3 6.15 43.5 5.8 43.45 4.7 44.45 3.7 L46.25 2.15 49.35 0.75 Q51.15 -0.1 52.7 0.0 L55.45 0.15 Q57.15 0.4 58.05 1.1 59.05 1.05 59.7 2.2 L60.35 3.9 60.65 6.05 Q60.65 8.0 59.85 9.95 59.35 10.65 58.6 10.4 L56.85 9.7 55.15 9.3 54.75 9.35 Q54.4 9.55 54.4 10.0 L54.55 10.1 59.65 11.3 Q62.75 12.15 64.75 13.45 65.9 14.55 65.9 16.15 65.9 17.15 65.35 18.75 L64.65 20.9 M21.2 25.15 L27.4 24.8 Q27.55 23.1 27.35 22.3 L27.3 21.45 Q27.3 20.75 27.95 20.35 L31.0 20.2 Q32.15 21.05 32.2 22.9 L32.4 25.2 33.5 25.15 38.65 24.9 38.85 23.45 Q39.25 21.5 38.85 21.5 38.35 16.4 37.6 6.0 37.55 5.7 37.15 5.6 L32.4 4.8 30.2 4.8 27.9 4.45 22.8 5.1 22.55 5.75 22.25 6.5 Q21.15 11.25 21.15 18.25 L21.3 23.75 21.25 24.45 21.15 25.05 21.15 25.15 21.2 25.15 M38.4 3.75 Q39.25 4.45 39.35 5.75 L39.45 7.85 40.5 20.75 Q40.7 24.65 40.45 26.3 L39.8 26.85 31.25 27.3 Q30.6 26.3 30.5 24.7 L30.25 22.45 30.05 22.4 29.35 22.4 29.25 22.55 29.25 24.25 29.45 26.3 28.65 27.0 25.45 26.8 20.1 27.3 19.55 26.6 19.85 16.25 Q20.0 10.1 20.75 6.25 L20.8 4.65 Q20.9 3.55 21.7 3.05 L28.1 2.25 30.75 2.6 32.4 2.6 Q34.8 2.65 38.4 3.75 M28.4 11.9 Q28.65 12.2 28.7 13.1 28.7 13.95 28.9 14.0 L29.65 14.15 29.75 9.25 29.35 9.2 29.0 9.25 28.55 10.6 28.4 11.9 M29.65 7.0 Q31.15 7.05 31.6 8.05 31.25 11.0 31.55 15.45 31.1 16.5 30.05 16.15 L27.55 16.15 27.05 15.55 Q26.55 14.35 26.55 12.85 26.55 11.8 27.45 7.5 L27.9 7.05 29.65 7.0 M14.6 3.15 Q15.8 3.65 16.25 4.65 L16.25 6.65 16.15 8.4 15.35 9.35 11.85 9.35 8.75 9.75 Q8.5 9.85 8.65 9.95 L9.3 10.1 10.45 10.25 12.45 10.7 Q13.85 11.25 14.4 12.3 14.75 13.3 15.1 16.75 14.65 17.75 13.2 17.8 11.8 17.8 11.55 18.15 11.45 18.3 11.9 18.4 L13.55 18.45 15.2 18.45 Q17.3 19.55 17.3 23.0 L16.95 25.15 Q16.75 26.4 15.75 27.0 L8.55 27.05 1.3 26.75 Q0.5 26.2 0.3 25.15 L0.15 23.65 Q0.0 22.45 0.0 21.05 L0.15 17.25 0.25 13.55 0.15 10.55 0.35 7.55 0.6 4.6 Q0.85 3.7 1.6 3.6 L3.0 3.45 Q7.95 2.3 12.45 2.55 L14.6 3.15 M13.4 5.25 L12.25 4.9 10.55 4.8 6.55 5.2 2.8 5.95 2.65 6.1 Q2.05 10.25 2.25 12.8 L2.25 14.3 2.1 17.4 2.0 20.7 2.05 22.2 2.1 23.45 Q2.2 24.15 2.45 24.35 L7.95 24.8 8.45 24.8 12.05 24.95 13.3 24.85 14.65 24.95 Q15.25 24.4 15.25 21.85 15.35 21.25 15.0 21.1 L13.85 20.95 12.65 20.8 11.2 20.7 Q9.9 20.75 9.55 19.8 L9.55 16.4 10.1 15.7 12.9 15.5 13.0 15.45 Q13.15 14.3 12.5 13.35 10.7 12.35 8.95 12.35 L7.6 12.5 Q6.8 12.3 6.7 11.55 L6.5 10.7 6.5 9.1 Q6.6 8.05 7.25 7.4 L10.8 7.25 14.1 7.3 14.2 6.6 14.1 5.6 Q13.95 5.4 13.4 5.25" fill="#003366" fill-rule="evenodd" stroke="none"/>
    <path d="M71.5 4.0 L75.0 3.85 78.5 3.7 80.1 3.75 80.6 4.6 81.15 6.1 Q81.45 7.25 81.7 7.65 82.35 8.6 83.75 8.5 86.05 5.2 88.3 4.1 L88.85 4.35 89.5 4.85 Q88.85 6.9 86.6 10.15 L82.9 14.9 Q78.9 21.95 76.0 25.55 L75.35 25.6 70.85 23.7 70.75 23.6 72.8 20.6 Q74.0 18.9 75.2 17.85 L77.25 15.2 Q77.3 14.45 77.0 13.85 L76.45 12.85 Q73.05 7.6 71.45 4.05 L71.5 4.0 M63.55 14.9 Q64.05 15.55 63.7 16.75 63.35 18.35 62.2 20.95 L60.4 24.8 Q58.45 27.65 56.55 27.65 L53.35 26.95 49.9 25.85 47.6 24.7 Q46.25 23.9 45.65 23.1 46.2 20.7 48.4 18.65 L49.9 18.95 51.85 19.1 Q53.1 19.35 53.55 18.4 54.05 17.45 54.05 16.7 53.1 15.8 51.6 15.1 L49.2 14.0 Q46.5 12.6 45.85 11.8 45.45 9.25 45.55 6.45 45.8 5.05 47.3 4.1 L50.5 2.5 Q51.95 1.8 54.15 1.8 L56.2 2.0 57.65 2.7 Q58.6 3.95 58.6 5.95 L58.15 8.4 57.75 8.3 57.35 8.15 Q56.3 7.65 54.0 7.4 52.75 7.65 52.1 9.55 51.85 11.05 52.95 11.55 L58.5 12.75 Q61.75 13.5 63.55 14.9 M21.15 25.05 L21.25 24.45 21.3 23.75 21.15 18.25 Q21.15 11.25 22.25 6.5 L22.55 5.75 22.8 5.1 27.9 4.45 30.2 4.8 32.4 4.8 37.15 5.6 Q37.55 5.7 37.6 6.0 38.35 16.4 38.85 21.5 39.25 21.5 38.85 23.45 L38.65 24.9 33.5 25.15 32.4 25.2 32.2 22.9 Q32.15 21.05 31.0 20.2 L27.95 20.35 Q27.3 20.75 27.3 21.45 L27.35 22.3 Q27.55 23.1 27.4 24.8 L21.2 25.15 21.15 25.05 M29.65 7.0 L27.9 7.05 27.45 7.5 Q26.55 11.8 26.55 12.85 26.55 14.35 27.05 15.55 L27.55 16.15 30.05 16.15 Q31.1 16.5 31.55 15.45 31.25 11.0 31.6 8.05 31.15 7.05 29.65 7.0 M13.4 5.25 Q13.95 5.4 14.1 5.6 L14.2 6.6 14.1 7.3 10.8 7.25 7.25 7.4 Q6.6 8.05 6.5 9.1 L6.5 10.7 6.7 11.55 Q6.8 12.3 7.6 12.5 L8.95 12.35 Q10.7 12.35 12.5 13.35 13.15 14.3 13.0 15.45 L12.9 15.5 10.1 15.7 9.55 16.4 9.55 19.8 Q9.9 20.75 11.2 20.7 L12.65 20.8 13.85 20.95 15.0 21.1 Q15.35 21.25 15.25 21.85 15.25 24.4 14.65 24.95 L13.3 24.85 12.05 24.95 8.45 24.8 7.95 24.8 2.45 24.35 Q2.2 24.15 2.1 23.45 L2.05 22.2 2.0 20.7 2.1 17.4 2.25 14.3 2.25 12.8 Q2.05 10.25 2.65 6.1 L2.8 5.95 6.55 5.2 10.55 4.8 12.25 4.9 13.4 5.25" fill="#ffffff" fill-rule="evenodd" stroke="none"/>
  </g>
  <defs>
    <linearGradient gradientTransform="matrix(0.0, -0.0134, 0.0115, 0.0, 80.1, 14.7)" gradientUnits="userSpaceOnUse" id="gradient0" spreadMethod="pad" x1="-819.2" x2="819.2">
      <stop offset="0.0" stop-color="#ffffff"/>
      <stop offset="0.396078431372549" stop-color="#e9f7ff"/>
      <stop offset="0.9725490196078431" stop-color="#ff0000"/>
    </linearGradient>
    <linearGradient gradientTransform="matrix(0.0, -0.0127, 0.0109, 0.0, 30.1, 14.85)" gradientUnits="userSpaceOnUse" id="gradient1" spreadMethod="pad" x1="-819.2" x2="819.2">
      <stop offset="0.0" stop-color="#ffffff"/>
      <stop offset="0.396078431372549" stop-color="#e9f7ff"/>
      <stop offset="0.9725490196078431" stop-color="#ff0000"/>
    </linearGradient>
  </defs>
</svg>
