<?xml version="1.0" encoding="UTF-8" standalone="no"?>
<svg xmlns:xlink="http://www.w3.org/1999/xlink" height="28.6px" width="97.1px" xmlns="http://www.w3.org/2000/svg">
  <g transform="matrix(1.0, 0.0, 0.0, 1.0, 4.45, -0.4)">
    <path d="M92.35 5.0 L91.95 5.9 90.25 8.8 Q88.9 10.65 88.5 11.45 88.0 11.95 84.85 16.5 83.9 17.4 82.85 19.2 L81.0 21.95 78.05 26.85 77.35 28.05 Q76.8 29.0 75.95 29.0 L75.4 28.95 Q74.65 28.55 73.5 28.2 L71.5 27.45 69.0 26.3 Q67.75 25.7 66.9 24.85 L66.95 24.0 72.15 16.9 Q73.05 16.35 74.35 14.45 73.15 12.8 67.65 2.45 67.3 1.35 68.45 1.0 L79.9 0.45 Q81.0 0.25 81.85 1.6 L83.4 4.65 83.8 4.05 84.85 3.05 86.4 1.75 Q87.55 0.65 88.55 0.7 L90.9 2.0 Q91.85 2.65 92.65 3.65 92.75 4.4 92.35 5.0 M70.55 3.2 Q72.25 7.05 75.95 12.7 L76.5 13.8 Q76.85 14.4 76.8 15.25 L74.6 18.1 Q73.3 19.25 72.0 21.1 L69.7 24.35 74.75 26.5 75.45 26.4 Q78.55 22.5 82.9 14.9 L86.9 9.8 Q89.3 6.25 90.0 4.05 L89.3 3.55 88.75 3.25 Q86.3 4.45 83.8 8.0 82.3 8.1 81.6 7.1 L81.0 5.4 80.4 3.8 79.85 2.9 78.15 2.8 74.35 3.0 70.6 3.15 70.55 3.15 70.55 3.2 M61.25 5.8 L57.8 5.6 54.25 5.45 50.6 5.75 46.2 6.35 Q43.85 6.8 42.55 7.65 42.45 8.45 42.9 9.55 42.8 10.4 43.05 11.7 L43.35 13.8 43.2 14.7 Q43.95 16.45 43.75 17.8 44.15 18.9 44.35 23.45 L44.7 23.5 45.3 23.6 46.4 23.5 48.05 23.65 49.8 23.8 50.55 23.8 50.7 23.65 50.2 20.85 Q49.85 18.9 50.7 18.0 L53.0 17.85 55.25 17.75 Q56.3 18.2 56.5 19.15 L56.4 24.1 56.45 24.1 57.65 24.0 59.2 23.8 60.65 23.6 61.4 23.25 61.6 16.05 61.8 7.7 61.25 5.8 M62.45 3.55 Q63.4 4.3 63.55 5.7 L63.8 8.0 63.3 23.0 63.05 24.65 Q62.8 25.45 62.05 25.95 L55.35 26.4 Q54.85 26.45 54.4 25.6 54.05 23.75 54.25 20.4 L53.7 20.25 52.45 20.5 Q52.25 20.6 52.4 21.2 51.95 23.6 52.4 23.85 52.8 25.2 51.8 26.0 L50.4 26.15 48.5 26.0 46.65 25.85 Q45.0 25.7 44.45 25.85 L43.0 26.4 Q42.8 25.3 42.9 22.45 42.95 20.4 42.45 19.25 42.55 17.7 42.25 15.7 41.6 12.65 41.6 11.45 L41.15 9.2 40.75 6.85 Q40.75 5.9 42.1 5.05 L44.55 4.35 57.05 3.25 61.3 3.45 62.45 3.55 M55.25 9.65 L55.05 15.3 54.35 16.15 50.2 15.4 Q49.35 15.1 49.55 13.7 L50.2 13.1 50.1 13.0 Q49.4 11.95 49.2 9.25 49.25 8.8 49.85 8.4 L54.4 8.8 55.25 9.65 M51.5 11.1 Q51.5 11.55 52.75 13.35 53.15 13.65 53.4 13.55 L53.4 11.45 53.2 11.25 51.5 11.1 M23.0 5.35 L21.9 5.3 Q20.95 5.3 20.55 5.7 19.65 10.2 19.8 13.3 20.2 19.95 19.8 24.05 L20.05 24.1 20.5 24.15 Q22.0 24.0 25.4 24.1 L29.9 23.95 33.3 23.85 36.3 23.9 36.45 23.8 36.75 20.65 Q37.45 17.3 37.0 17.3 L36.7 17.25 Q33.55 17.0 27.2 17.1 L26.45 16.55 Q25.45 14.4 25.0 11.25 L24.4 5.75 24.05 5.4 23.0 5.35 M23.5 2.5 L25.5 2.95 Q26.35 4.2 26.55 6.35 L26.85 10.0 27.15 12.1 Q27.4 13.3 27.8 14.0 L28.1 14.2 38.05 14.35 Q38.65 14.7 38.85 15.85 38.6 22.4 38.1 25.7 38.05 26.4 37.1 26.65 31.05 26.4 22.25 26.95 L18.95 27.15 Q18.1 26.95 17.95 26.0 17.85 24.25 18.05 21.15 L18.15 16.5 18.05 13.75 17.95 11.0 Q17.9 9.8 18.35 7.3 18.75 5.1 18.65 3.75 18.8 2.85 19.5 2.75 L20.8 2.65 22.1 2.55 23.5 2.5 M14.85 3.75 Q16.8 6.1 16.85 9.65 16.0 13.95 10.8 16.85 L10.7 17.05 10.8 19.85 Q10.85 21.45 11.25 22.65 11.1 23.3 11.35 24.5 L11.45 26.5 10.8 26.9 Q8.65 27.65 4.95 27.85 L-0.9 28.25 Q-2.25 28.4 -2.5 27.3 -4.6 16.9 -4.45 8.05 L-4.45 4.0 Q-3.85 3.4 -2.95 3.1 L-1.8 2.5 Q1.6 1.1 8.5 1.35 L11.4 1.9 Q12.95 2.25 13.9 3.05 L14.85 3.75 M13.25 5.0 L11.5 4.1 9.0 3.65 1.85 4.0 Q1.2 4.6 -0.35 5.1 -1.85 5.6 -2.2 5.95 L-2.4 10.7 Q-2.4 18.5 -1.0 24.85 -0.85 25.7 -0.35 25.55 L4.7 25.05 9.35 24.2 8.75 18.2 8.55 17.1 8.3 15.85 Q8.3 15.25 8.7 14.7 L10.6 13.8 12.1 12.55 13.65 10.8 14.7 9.0 14.8 8.2 14.3 6.15 Q14.1 5.5 13.25 5.0 M2.75 8.95 L1.85 8.4 2.0 11.4 Q2.1 13.05 2.5 13.55 L2.75 13.45 Q3.35 12.7 3.35 11.4 3.35 9.95 2.75 8.95 M5.4 12.05 L5.2 13.5 4.9 14.55 4.0 15.8 2.9 16.05 1.85 16.25 Q1.05 16.25 0.7 15.55 0.05 14.1 -0.05 11.1 -0.25 8.05 -0.6 6.75 -0.75 5.85 0.2 5.65 2.9 5.35 4.15 7.3 L4.85 9.5 Q5.4 11.05 5.4 12.05 M9.35 24.2 L9.4 24.3 9.4 24.2 9.35 24.2" fill="#000000" fill-rule="evenodd" stroke="none"/>
    <path d="M70.6 3.15 L74.35 3.0 78.15 2.8 79.85 2.9 80.4 3.8 81.0 5.4 81.6 7.1 Q82.3 8.1 83.8 8.0 86.3 4.45 88.75 3.25 L89.3 3.55 90.0 4.05 Q89.3 6.25 86.9 9.8 L82.9 14.9 Q78.55 22.5 75.45 26.4 L74.75 26.5 69.7 24.35 72.0 21.1 Q73.3 19.25 74.6 18.1 L76.8 15.25 Q76.85 14.4 76.5 13.8 L75.95 12.7 Q72.25 7.05 70.55 3.2 L70.6 3.15 M61.25 5.8 L61.8 7.7 61.6 16.05 61.4 23.25 60.65 23.6 59.2 23.8 57.65 24.0 56.45 24.1 56.4 24.1 56.5 19.15 Q56.3 18.2 55.25 17.75 L53.0 17.85 50.7 18.0 Q49.85 18.9 50.2 20.85 L50.7 23.65 50.55 23.8 49.8 23.8 48.05 23.65 46.4 23.5 45.3 23.6 44.7 23.5 44.35 23.45 Q44.15 18.9 43.75 17.8 43.95 16.45 43.2 14.7 L43.35 13.8 43.05 11.7 Q42.8 10.4 42.9 9.55 42.45 8.45 42.55 7.65 43.85 6.8 46.2 6.35 L50.6 5.75 54.25 5.45 57.8 5.6 61.25 5.8 M55.25 9.65 L54.4 8.8 49.85 8.4 Q49.25 8.8 49.2 9.25 49.4 11.95 50.1 13.0 L50.2 13.1 49.55 13.7 Q49.35 15.1 50.2 15.4 L54.35 16.15 55.05 15.3 55.25 9.65 M23.0 5.35 L24.05 5.4 24.4 5.75 25.0 11.25 Q25.45 14.4 26.45 16.55 L27.2 17.1 Q33.55 17.0 36.7 17.25 L37.0 17.3 Q37.45 17.3 36.75 20.65 L36.45 23.8 36.3 23.9 33.3 23.85 29.9 23.95 25.4 24.1 Q22.0 24.0 20.5 24.15 L20.05 24.1 19.8 24.05 Q20.2 19.95 19.8 13.3 19.65 10.2 20.55 5.7 20.95 5.3 21.9 5.3 L23.0 5.35 M13.25 5.0 Q14.1 5.5 14.3 6.15 L14.8 8.2 14.7 9.0 13.65 10.8 12.1 12.55 10.6 13.8 8.7 14.7 Q8.3 15.25 8.3 15.85 L8.55 17.1 8.75 18.2 9.35 24.2 4.7 25.05 -0.35 25.55 Q-0.85 25.7 -1.0 24.85 -2.4 18.5 -2.4 10.7 L-2.2 5.95 Q-1.85 5.6 -0.35 5.1 1.2 4.6 1.85 4.0 L9.0 3.65 11.5 4.1 13.25 5.0 M5.4 12.05 Q5.4 11.05 4.85 9.5 L4.15 7.3 Q2.9 5.35 0.2 5.65 -0.75 5.85 -0.6 6.75 -0.25 8.05 -0.05 11.1 0.05 14.1 0.7 15.55 1.05 16.25 1.85 16.25 L2.9 16.05 4.0 15.8 4.9 14.55 5.2 13.5 5.4 12.05" fill="#1ea7e1" fill-rule="evenodd" stroke="none"/>
  </g>
</svg>
