<?xml version="1.0" encoding="UTF-8" standalone="no"?>
<svg xmlns:xlink="http://www.w3.org/1999/xlink" height="24.55px" width="67.4px" xmlns="http://www.w3.org/2000/svg">
  <g transform="matrix(1.0, 0.0, 0.0, 1.0, 0.0, 0.0)">
    <path d="M63.8 7.25 Q60.75 3.5 54.05 3.4 L53.0 3.65 Q52.7 3.8 52.7 4.15 52.35 6.15 52.35 8.75 L52.5 12.85 52.55 17.05 52.7 19.3 52.9 21.05 57.3 21.3 Q61.2 20.95 63.05 19.7 64.2 18.9 64.75 17.05 L65.55 13.95 65.75 12.35 Q65.75 9.6 63.8 7.25 M67.4 10.2 L67.4 14.45 66.5 18.15 Q65.95 20.05 64.75 21.25 63.35 22.65 61.7 22.75 L51.6 23.35 Q51.0 23.1 50.85 22.55 L50.55 16.3 50.3 10.0 Q50.3 5.45 51.1 2.1 51.45 1.15 52.45 1.15 L53.25 1.25 54.15 1.4 54.5 1.3 55.95 1.15 Q58.85 1.15 61.85 2.9 65.55 5.0 67.15 9.3 L67.4 10.2 M58.35 9.85 Q58.9 10.9 58.95 12.85 L59.0 15.4 59.15 16.25 59.25 17.35 59.0 18.55 55.7 19.15 Q54.9 18.45 55.2 16.45 L55.5 13.2 55.65 9.7 56.3 8.85 Q57.25 8.7 58.35 9.85 M47.0 4.15 L46.9 5.9 46.1 6.85 42.6 6.85 39.5 7.25 39.4 7.45 40.05 7.6 41.2 7.75 43.2 8.2 Q44.6 8.75 45.15 9.8 45.5 10.8 45.85 14.25 45.4 15.25 43.95 15.3 42.55 15.3 42.3 15.65 42.2 15.8 42.65 15.9 L44.3 15.95 45.95 15.95 Q48.05 17.05 48.05 20.5 L47.7 22.65 Q47.5 23.9 46.5 24.5 L39.3 24.55 32.05 24.25 Q31.25 23.7 31.05 22.65 L30.9 21.15 Q30.75 19.95 30.75 18.55 L30.9 14.75 31.0 11.05 30.9 8.05 31.1 5.05 31.35 2.1 Q31.6 1.2 32.35 1.1 L33.75 0.95 Q38.7 -0.2 43.2 0.05 L45.35 0.65 Q46.55 1.15 47.0 2.15 L47.0 4.15 M44.85 3.1 L44.15 2.75 43.0 2.4 41.3 2.3 37.3 2.7 33.55 3.45 33.4 3.6 Q32.8 7.75 33.0 10.3 L33.0 11.8 32.85 14.9 32.75 18.2 32.8 19.7 32.85 20.95 Q32.95 21.65 33.2 21.85 L38.7 22.3 39.2 22.3 42.8 22.45 44.05 22.35 45.4 22.45 Q46.0 21.9 46.0 19.35 46.1 18.75 45.75 18.6 L44.6 18.45 43.4 18.3 41.95 18.2 Q40.65 18.25 40.3 17.3 L40.3 13.9 40.85 13.2 43.65 13.0 43.75 12.95 Q43.9 11.8 43.25 10.85 41.45 9.85 39.7 9.85 L38.35 10.0 Q37.55 9.8 37.45 9.05 L37.25 8.2 37.25 6.6 Q37.35 5.55 38.0 4.9 L41.55 4.75 44.85 4.8 44.95 4.1 44.85 3.1 M57.3 14.7 L57.4 13.05 57.05 13.05 57.15 14.95 57.1 16.55 57.1 16.65 57.2 16.7 57.3 14.7 M27.85 7.3 Q27.75 10.3 27.35 12.15 26.95 17.95 26.05 23.1 L25.65 23.8 24.75 24.4 22.95 24.35 21.15 24.3 17.8 24.4 14.15 24.35 Q13.8 23.55 13.8 22.95 L13.95 21.7 14.15 20.55 15.05 12.4 15.0 11.35 13.75 12.5 12.4 13.7 Q11.55 13.7 10.8 13.05 L10.0 12.4 10.0 22.6 Q9.7 23.55 9.05 23.85 L7.9 23.55 7.25 23.3 5.1 23.1 3.15 23.0 1.0 23.25 Q0.35 23.15 0.05 22.4 L0.1 21.3 0.25 20.55 Q1.3 8.5 1.25 1.6 L1.4 0.9 Q1.5 0.3 2.1 0.1 2.8 0.05 3.25 0.65 L3.95 1.25 6.45 2.75 Q7.75 3.4 8.5 4.4 L11.3 6.45 15.05 3.25 18.85 0.25 23.0 0.45 27.4 0.65 Q27.9 1.15 28.05 2.25 L27.85 7.3 M20.35 2.65 Q19.45 2.6 18.55 3.3 L16.7 4.7 14.6 6.4 Q13.95 6.6 13.05 7.8 12.15 9.0 10.9 9.1 L8.95 7.85 7.25 6.35 Q6.85 5.6 4.95 4.65 3.85 3.9 3.05 3.65 L2.95 4.8 2.9 6.2 2.9 7.7 2.6 12.35 Q2.25 15.5 2.25 16.85 L2.05 18.85 2.15 20.45 2.4 20.4 3.2 20.25 5.75 20.5 8.1 20.65 7.9 13.5 7.85 12.2 7.75 10.95 Q7.75 9.75 8.45 8.95 L8.95 8.85 9.8 9.1 10.4 9.45 Q11.15 10.05 12.45 10.7 L14.0 9.1 14.9 8.3 Q15.5 7.65 16.2 7.5 16.95 7.7 17.2 8.45 L16.45 17.55 16.05 19.85 15.85 21.85 15.9 21.85 22.45 21.7 23.5 21.7 24.35 21.55 Q24.9 19.05 25.25 14.85 L26.0 3.0 25.9 2.95 20.35 2.65 M8.1 20.65 L8.1 20.75 8.2 20.65 8.1 20.65" fill="#003366" fill-rule="evenodd" stroke="none"/>
    <path d="M63.8 7.25 Q65.75 9.6 65.75 12.35 L65.55 13.95 64.75 17.05 Q64.2 18.9 63.05 19.7 61.2 20.95 57.3 21.3 L52.9 21.05 52.7 19.3 52.55 17.05 52.5 12.85 52.35 8.75 Q52.35 6.15 52.7 4.15 52.7 3.8 53.0 3.65 L54.05 3.4 Q60.75 3.5 63.8 7.25 M58.35 9.85 Q57.25 8.7 56.3 8.85 L55.65 9.7 55.5 13.2 55.2 16.45 Q54.9 18.45 55.7 19.15 L59.0 18.55 59.25 17.35 59.15 16.25 59.0 15.4 58.95 12.85 Q58.9 10.9 58.35 9.85 M44.85 3.1 L44.95 4.1 44.85 4.8 41.55 4.75 38.0 4.9 Q37.35 5.55 37.25 6.6 L37.25 8.2 37.45 9.05 Q37.55 9.8 38.35 10.0 L39.7 9.85 Q41.45 9.85 43.25 10.85 43.9 11.8 43.75 12.95 L43.65 13.0 40.85 13.2 40.3 13.9 40.3 17.3 Q40.65 18.25 41.95 18.2 L43.4 18.3 44.6 18.45 45.75 18.6 Q46.1 18.75 46.0 19.35 46.0 21.9 45.4 22.45 L44.05 22.35 42.8 22.45 39.2 22.3 38.7 22.3 33.2 21.85 Q32.95 21.65 32.85 20.95 L32.8 19.7 32.75 18.2 32.85 14.9 33.0 11.8 33.0 10.3 Q32.8 7.75 33.4 3.6 L33.55 3.45 37.3 2.7 41.3 2.3 43.0 2.4 44.15 2.75 44.85 3.1 M20.35 2.65 L25.9 2.95 26.0 3.0 25.25 14.85 Q24.9 19.05 24.35 21.55 L23.5 21.7 22.45 21.7 15.9 21.85 15.85 21.85 16.05 19.85 16.45 17.55 17.2 8.45 Q16.95 7.7 16.2 7.5 15.5 7.65 14.9 8.3 L14.0 9.1 12.45 10.7 Q11.15 10.05 10.4 9.45 L9.8 9.1 8.95 8.85 8.45 8.95 Q7.75 9.75 7.75 10.95 L7.85 12.2 7.9 13.5 8.1 20.65 5.75 20.5 3.2 20.25 2.4 20.4 2.15 20.45 2.05 18.85 2.25 16.85 Q2.25 15.5 2.6 12.35 L2.9 7.7 2.9 6.2 2.95 4.8 3.05 3.65 Q3.85 3.9 4.95 4.65 6.85 5.6 7.25 6.35 L8.95 7.85 10.9 9.1 Q12.15 9.0 13.05 7.8 13.95 6.6 14.6 6.4 L16.7 4.7 18.55 3.3 Q19.45 2.6 20.35 2.65" fill="#ffffff" fill-rule="evenodd" stroke="none"/>
  </g>
</svg>
