<?xml version="1.0" encoding="UTF-8" standalone="no"?>
<svg xmlns:xlink="http://www.w3.org/1999/xlink" height="28.6px" width="97.1px" xmlns="http://www.w3.org/2000/svg">
  <g transform="matrix(1.0, 0.0, 0.0, 1.0, 16.0, 1.05)">
    <path d="M68.35 -1.0 Q69.45 -1.2 70.3 0.15 L71.85 3.2 72.25 2.6 73.3 1.6 74.85 0.3 Q76.0 -0.8 77.0 -0.75 L79.35 0.55 Q80.3 1.2 81.1 2.2 81.2 2.95 80.8 3.55 L80.4 4.45 Q79.9 5.7 78.7 7.35 L76.95 10.0 73.3 15.05 Q72.35 15.95 71.3 17.75 L69.45 20.5 66.5 25.4 65.8 26.6 Q65.25 27.55 64.4 27.55 L63.85 27.5 61.95 26.75 59.95 26.0 57.45 24.85 55.35 23.4 55.4 22.55 60.6 15.45 Q61.5 14.9 62.8 13.0 61.6 11.35 56.1 1.0 55.75 -0.1 56.9 -0.45 L68.35 -1.0 M59.0 1.75 Q60.7 5.6 64.4 11.25 L64.95 12.35 Q65.3 12.95 65.25 13.8 L63.05 16.65 Q61.75 17.8 60.45 19.65 L58.15 22.9 63.2 25.05 63.9 24.95 Q67.0 21.05 71.35 13.45 L75.35 8.35 Q77.75 4.8 78.45 2.6 L77.75 2.1 Q77.35 1.8 77.2 1.8 74.75 3.0 72.25 6.55 70.75 6.65 70.05 5.65 L69.45 3.95 68.85 2.35 68.3 1.45 66.6 1.35 62.8 1.55 59.05 1.7 59.0 1.7 59.0 1.75 M52.25 6.55 L51.75 21.55 51.5 23.2 Q51.25 24.0 50.5 24.5 L43.8 24.95 Q43.3 25.0 42.85 24.15 42.5 22.3 42.7 18.95 L42.15 18.8 40.9 19.05 Q40.7 19.15 40.85 19.75 40.4 22.15 40.85 22.4 41.25 23.75 40.25 24.55 L38.85 24.7 36.95 24.55 35.1 24.4 Q33.45 24.25 32.9 24.4 L31.45 24.95 Q31.25 23.85 31.35 21.0 31.4 18.95 30.9 17.8 31.0 16.25 30.7 14.25 30.05 11.2 30.05 10.0 L29.6 7.75 29.2 5.4 Q29.2 4.45 30.55 3.6 L33.0 2.9 45.5 1.8 49.75 2.0 50.9 2.1 Q51.85 2.85 52.0 4.25 L52.25 6.55 M42.7 4.0 L39.05 4.3 34.65 4.9 Q32.3 5.35 31.0 6.2 30.9 7.0 31.35 8.1 31.25 8.95 31.5 10.25 L31.8 12.35 31.65 13.25 Q32.4 15.0 32.2 16.35 32.6 17.45 32.8 22.0 L33.15 22.05 33.75 22.15 34.85 22.05 36.5 22.2 38.25 22.35 39.0 22.35 39.15 22.2 38.65 19.4 Q38.3 17.45 39.15 16.55 L41.45 16.4 43.7 16.3 Q44.75 16.75 44.95 17.7 L44.85 22.65 44.9 22.65 46.1 22.55 47.65 22.35 49.1 22.15 49.85 21.8 50.05 14.6 50.25 6.25 49.7 4.35 46.25 4.15 42.7 4.0 M43.7 8.2 L43.5 13.85 42.8 14.7 38.65 13.95 Q37.8 13.65 38.0 12.25 L38.65 11.65 38.55 11.55 Q37.85 10.5 37.65 7.8 37.7 7.35 38.3 6.95 L42.85 7.35 43.7 8.2 M41.85 10.0 L41.65 9.8 39.95 9.65 Q39.95 10.1 41.2 11.9 41.6 12.2 41.85 12.1 L41.85 10.0 M24.75 22.45 L24.9 22.35 25.2 19.2 Q25.9 15.85 25.45 15.85 L25.15 15.8 Q22.0 15.55 15.65 15.65 L14.9 15.1 Q13.9 12.95 13.45 9.8 L12.85 4.3 12.5 3.95 11.45 3.9 10.35 3.85 Q9.4 3.85 9.0 4.25 8.1 8.75 8.25 11.85 8.65 18.5 8.25 22.6 L8.5 22.65 8.95 22.7 Q10.45 22.55 13.85 22.65 L18.35 22.5 21.75 22.4 24.75 22.45 M27.3 14.4 Q27.05 20.95 26.55 24.25 26.5 24.95 25.55 25.2 19.5 24.95 10.7 25.5 L7.4 25.7 Q6.55 25.5 6.4 24.55 6.3 22.8 6.5 19.7 L6.6 15.05 6.5 12.3 6.4 9.55 Q6.35 8.35 6.8 5.85 7.2 3.65 7.1 2.3 7.25 1.4 7.95 1.3 L9.25 1.2 10.55 1.1 11.95 1.05 Q13.0 1.05 13.95 1.5 14.8 2.75 15.0 4.9 L15.3 8.55 15.6 10.65 Q15.85 11.85 16.25 12.55 L16.55 12.75 26.5 12.9 Q27.1 13.25 27.3 14.4 M1.7 3.55 L-0.05 2.65 -2.55 2.2 -9.7 2.55 Q-10.35 3.15 -11.9 3.65 -13.4 4.15 -13.75 4.5 L-13.95 9.25 Q-13.95 17.05 -12.55 23.4 -12.4 24.25 -11.9 24.1 L-6.85 23.6 -2.2 22.75 -2.8 16.75 -3.0 15.65 -3.25 14.4 Q-3.25 13.8 -2.85 13.25 L-0.95 12.35 Q0.0 11.85 0.55 11.1 1.4 10.5 2.1 9.35 L3.15 7.55 3.25 6.75 2.75 4.7 Q2.55 4.05 1.7 3.55 M3.3 2.3 Q5.25 4.65 5.3 8.2 4.45 12.5 -0.75 15.4 L-0.85 15.6 -0.75 18.4 Q-0.7 20.0 -0.3 21.2 -0.45 21.85 -0.2 23.05 0.0 24.15 -0.1 25.05 L-0.75 25.45 Q-2.9 26.2 -6.6 26.4 L-12.45 26.8 Q-13.8 26.95 -14.05 25.85 -16.15 15.45 -16.0 6.6 L-16.0 2.55 Q-15.4 1.95 -14.5 1.65 L-13.35 1.05 Q-9.95 -0.35 -3.05 -0.1 L-0.15 0.45 Q1.4 0.8 2.35 1.6 L3.3 2.3 M-6.35 12.05 L-6.65 13.1 -7.55 14.35 -8.65 14.6 -9.7 14.8 Q-10.5 14.8 -10.85 14.1 -11.5 12.65 -11.6 9.65 -11.8 6.6 -12.15 5.3 -12.3 4.4 -11.35 4.2 -8.65 3.9 -7.4 5.85 L-6.7 8.05 Q-6.15 9.6 -6.15 10.6 L-6.35 12.05 M-9.7 6.95 L-9.55 9.95 Q-9.45 11.6 -9.05 12.1 L-8.8 12.0 Q-8.2 11.25 -8.2 9.95 -8.2 8.5 -8.8 7.5 -9.2 7.0 -9.7 6.95 M-2.15 22.85 L-2.15 22.75 -2.2 22.75 -2.15 22.85" fill="#000000" fill-rule="evenodd" stroke="none"/>
    <path d="M59.05 1.7 L62.8 1.55 66.6 1.35 68.3 1.45 68.85 2.35 69.45 3.95 70.05 5.65 Q70.75 6.65 72.25 6.55 74.75 3.0 77.2 1.8 77.35 1.8 77.75 2.1 L78.45 2.6 Q77.75 4.8 75.35 8.35 L71.35 13.45 Q67.0 21.05 63.9 24.95 L63.2 25.05 58.15 22.9 60.45 19.65 Q61.75 17.8 63.05 16.65 L65.25 13.8 Q65.3 12.95 64.95 12.35 L64.4 11.25 Q60.7 5.6 59.0 1.75 L59.05 1.7 M43.7 8.2 L42.85 7.35 38.3 6.95 Q37.7 7.35 37.65 7.8 37.85 10.5 38.55 11.55 L38.65 11.65 38.0 12.25 Q37.8 13.65 38.65 13.95 L42.8 14.7 43.5 13.85 43.7 8.2 M42.7 4.0 L46.25 4.15 49.7 4.35 50.25 6.25 50.05 14.6 49.85 21.8 49.1 22.15 47.65 22.35 46.1 22.55 44.9 22.65 44.85 22.65 44.95 17.7 Q44.75 16.75 43.7 16.3 L41.45 16.4 39.15 16.55 Q38.3 17.45 38.65 19.4 L39.15 22.2 39.0 22.35 38.25 22.35 36.5 22.2 34.85 22.05 33.75 22.15 33.15 22.05 32.8 22.0 Q32.6 17.45 32.2 16.35 32.4 15.0 31.65 13.25 L31.8 12.35 31.5 10.25 Q31.25 8.95 31.35 8.1 30.9 7.0 31.0 6.2 32.3 5.35 34.65 4.9 L39.05 4.3 42.7 4.0 M24.75 22.45 L21.75 22.4 18.35 22.5 13.85 22.65 Q10.45 22.55 8.95 22.7 L8.5 22.65 8.25 22.6 Q8.65 18.5 8.25 11.85 8.1 8.75 9.0 4.25 9.4 3.85 10.35 3.85 L11.45 3.9 12.5 3.95 12.85 4.3 13.45 9.8 Q13.9 12.95 14.9 15.1 L15.65 15.65 Q22.0 15.55 25.15 15.8 L25.45 15.85 Q25.9 15.85 25.2 19.2 L24.9 22.35 24.75 22.45 M1.7 3.55 Q2.55 4.05 2.75 4.7 L3.25 6.75 3.15 7.55 2.1 9.35 Q1.4 10.5 0.55 11.1 0.0 11.85 -0.95 12.35 L-2.85 13.25 Q-3.25 13.8 -3.25 14.4 L-3.0 15.65 -2.8 16.75 -2.2 22.75 -6.85 23.6 -11.9 24.1 Q-12.4 24.25 -12.55 23.4 -13.95 17.05 -13.95 9.25 L-13.75 4.5 Q-13.4 4.15 -11.9 3.65 -10.35 3.15 -9.7 2.55 L-2.55 2.2 -0.05 2.65 1.7 3.55 M-6.35 12.05 L-6.15 10.6 Q-6.15 9.6 -6.7 8.05 L-7.4 5.85 Q-8.65 3.9 -11.35 4.2 -12.3 4.4 -12.15 5.3 -11.8 6.6 -11.6 9.65 -11.5 12.65 -10.85 14.1 -10.5 14.8 -9.7 14.8 L-8.65 14.6 -7.55 14.35 -6.65 13.1 -6.35 12.05" fill="#1ea7e1" fill-rule="evenodd" stroke="none"/>
  </g>
</svg>
