<?xml version="1.0" encoding="UTF-8" standalone="no"?>
<svg xmlns:xlink="http://www.w3.org/1999/xlink" height="25.75px" width="91.85px" xmlns="http://www.w3.org/2000/svg">
  <g transform="matrix(1.0, 0.0, 0.0, 1.0, 0.0, 0.0)">
    <path d="M26.25 23.15 L26.3 23.25 26.25 23.25 26.25 23.15" fill="url(#gradient0)" fill-rule="evenodd" stroke="none"/>
    <path d="M89.8 14.55 L89.0 17.65 Q88.45 19.5 87.3 20.3 85.45 21.55 81.55 21.9 L77.15 21.65 76.95 19.9 76.8 17.65 76.75 13.45 76.6 9.35 Q76.6 6.75 76.95 4.75 76.95 4.4 77.25 4.25 L78.3 4.0 Q85.0 4.1 88.05 7.85 90.0 10.2 90.0 12.95 L89.8 14.55 M83.5 17.95 L83.4 16.85 83.25 16.0 83.2 13.45 Q83.15 11.5 82.6 10.45 81.5 9.3 80.55 9.45 L79.9 10.3 79.75 13.8 79.45 17.05 Q79.15 19.05 79.95 19.75 L83.25 19.15 83.5 17.95 M57.65 4.9 L56.8 4.2 Q54.8 3.7 53.8 4.8 53.75 5.45 54.05 6.25 54.4 7.05 54.35 7.4 L54.9 13.85 Q55.3 14.8 56.55 14.95 L57.5 14.9 58.65 14.55 Q59.45 13.45 59.45 11.7 L59.3 9.45 57.65 4.9 M67.2 3.55 Q69.75 4.6 70.0 8.25 69.75 13.2 69.15 14.7 L67.9 15.0 66.3 15.1 64.45 15.4 62.6 15.5 Q62.05 16.15 62.05 16.7 62.05 17.4 62.8 18.25 L63.9 19.5 65.2 20.85 66.25 22.05 65.7 22.45 64.75 22.9 64.6 22.9 60.35 19.4 Q59.85 19.2 59.45 19.4 59.0 19.55 58.95 20.0 58.75 20.45 58.7 21.85 58.65 22.9 58.4 23.35 L58.25 23.5 54.85 23.15 51.3 22.7 51.2 22.55 51.15 21.65 51.25 20.0 51.3 18.15 Q50.8 10.75 50.75 6.9 L50.85 5.15 50.9 3.55 Q53.75 2.35 58.15 2.35 62.5 2.35 67.2 3.55 M26.25 23.15 L26.35 22.55 26.4 21.85 26.25 16.35 Q26.25 9.35 27.35 4.6 L27.65 3.85 27.9 3.2 33.0 2.55 35.3 2.9 37.5 2.9 42.25 3.7 42.7 4.1 Q43.45 14.5 43.95 19.6 44.35 19.6 43.95 21.55 L43.75 23.0 38.6 23.25 37.5 23.3 37.3 21.0 Q37.25 19.15 36.1 18.3 L33.05 18.45 Q32.4 18.85 32.4 19.55 L32.45 20.4 Q32.65 21.2 32.5 22.9 L26.3 23.25 26.25 23.15 M33.0 5.15 L32.55 5.6 Q31.65 9.9 31.65 10.95 31.65 12.45 32.15 13.65 L32.65 14.25 35.15 14.25 Q36.2 14.6 36.65 13.55 36.35 9.1 36.7 6.15 36.25 5.15 34.75 5.1 L33.0 5.15 M17.95 3.4 L18.05 3.55 Q18.2 6.55 18.9 11.35 L20.0 18.8 19.65 20.9 Q19.5 22.05 19.05 22.45 L14.3 22.3 14.15 22.15 13.85 19.1 13.5 16.4 Q13.3 15.1 12.4 14.7 L11.05 14.15 Q10.2 14.0 9.9 14.9 9.8 17.55 9.1 22.45 L8.95 22.65 8.2 22.65 4.3 21.95 3.7 22.15 2.9 22.0 2.25 21.8 2.1 21.6 Q2.25 11.85 1.95 6.0 2.35 5.9 2.75 4.5 L2.85 3.8 4.05 3.6 4.75 3.8 4.95 6.75 5.1 10.05 Q5.6 10.85 6.7 11.05 7.9 11.2 8.25 11.5 9.35 11.65 10.1 10.6 L9.9 3.45 10.1 3.25 11.1 3.1 17.95 3.4" fill="#ffffff" fill-rule="evenodd" stroke="none"/>
    <path d="M89.8 14.55 L90.0 12.95 Q90.0 10.2 88.05 7.85 85.0 4.1 78.3 4.0 L77.25 4.25 Q76.95 4.4 76.95 4.75 76.6 6.75 76.6 9.35 L76.75 13.45 76.8 17.65 76.95 19.9 77.15 21.65 81.55 21.9 Q85.45 21.55 87.3 20.3 88.45 19.5 89.0 17.65 L89.8 14.55 M81.65 13.65 L81.3 13.65 81.4 15.55 81.35 17.15 81.35 17.25 81.45 17.3 81.55 15.3 81.65 13.65 M83.5 17.95 L83.25 19.15 79.95 19.75 Q79.15 19.05 79.45 17.05 L79.75 13.8 79.9 10.3 80.55 9.45 Q81.5 9.3 82.6 10.45 83.15 11.5 83.2 13.45 L83.25 16.0 83.4 16.85 83.5 17.95 M89.0 21.85 Q87.6 23.25 85.95 23.35 L75.85 23.95 Q75.25 23.7 75.1 23.15 L74.8 16.9 74.55 10.6 Q74.55 6.05 75.35 2.7 75.7 1.75 76.7 1.75 L77.5 1.85 78.4 2.0 78.75 1.9 80.2 1.75 Q83.1 1.75 86.1 3.5 89.8 5.6 91.4 9.9 91.85 11.15 91.85 12.85 91.85 15.15 90.75 18.75 90.2 20.65 89.0 21.85 M72.1 9.5 L71.85 12.7 71.55 15.7 Q71.45 16.65 70.45 16.85 L68.75 17.2 64.85 17.75 64.85 17.8 68.7 22.35 Q68.7 23.35 68.05 23.75 L66.8 24.5 66.25 25.0 65.3 25.45 64.8 25.25 62.65 23.6 60.95 22.3 Q60.65 22.9 60.65 24.3 60.75 25.5 59.85 25.7 L59.0 25.75 56.9 25.5 54.75 25.15 50.3 24.7 Q49.45 24.3 49.3 23.05 L49.1 21.85 48.9 12.3 Q48.75 10.9 48.75 7.85 L48.65 3.35 Q48.2 2.8 48.5 2.0 L49.05 1.55 Q52.5 0.0 57.65 0.0 L65.0 0.55 Q67.15 0.85 69.05 2.35 70.9 3.9 71.45 5.95 72.1 7.45 72.1 9.5 M67.2 3.55 Q62.5 2.35 58.15 2.35 53.75 2.35 50.9 3.55 L50.85 5.15 50.75 6.9 Q50.8 10.75 51.3 18.15 L51.25 20.0 51.15 21.65 51.2 22.55 51.3 22.7 54.85 23.15 58.25 23.5 58.4 23.35 Q58.65 22.9 58.7 21.85 58.75 20.45 58.95 20.0 59.0 19.55 59.45 19.4 59.85 19.2 60.35 19.4 L64.6 22.9 64.75 22.9 65.7 22.45 66.25 22.05 65.2 20.85 63.9 19.5 62.8 18.25 Q62.05 17.4 62.05 16.7 62.05 16.15 62.6 15.5 L64.45 15.4 66.3 15.1 67.9 15.0 69.15 14.7 Q69.75 13.2 70.0 8.25 69.75 4.6 67.2 3.55 M57.65 4.9 L59.3 9.45 59.45 11.7 Q59.45 13.45 58.65 14.55 L57.5 14.9 56.55 14.95 Q55.3 14.8 54.9 13.85 L54.35 7.4 Q54.4 7.05 54.05 6.25 53.75 5.45 53.8 4.8 54.8 3.7 56.8 4.2 L57.65 4.9 M56.2 6.75 L56.5 7.35 56.75 12.25 56.9 12.55 56.95 12.5 Q57.3 11.85 57.3 10.95 L56.75 7.9 56.5 7.35 56.45 6.6 56.2 6.75 M44.45 3.85 L44.55 5.95 45.6 18.85 Q45.8 22.75 45.55 24.4 L44.9 24.95 36.35 25.4 Q35.7 24.4 35.6 22.8 L35.35 20.55 35.15 20.5 34.45 20.5 34.35 20.65 34.35 22.35 34.55 24.4 33.75 25.1 30.55 24.9 25.2 25.4 24.65 24.7 24.95 14.35 Q25.1 8.2 25.85 4.35 L25.9 2.75 Q26.0 1.65 26.8 1.15 L33.2 0.35 35.85 0.7 37.5 0.7 Q39.9 0.75 43.5 1.85 44.35 2.55 44.45 3.85 M26.3 23.25 L32.5 22.9 Q32.65 21.2 32.45 20.4 L32.4 19.55 Q32.4 18.85 33.05 18.45 L36.1 18.3 Q37.25 19.15 37.3 21.0 L37.5 23.3 38.6 23.25 43.75 23.0 43.95 21.55 Q44.35 19.6 43.95 19.6 43.45 14.5 42.7 4.1 L42.25 3.7 37.5 2.9 35.3 2.9 33.0 2.55 27.9 3.2 27.65 3.85 27.35 4.6 Q26.25 9.35 26.25 16.35 L26.4 21.85 26.35 22.55 26.25 23.15 26.25 23.25 26.3 23.25 M33.0 5.15 L34.75 5.1 Q36.25 5.15 36.7 6.15 36.35 9.1 36.65 13.55 36.2 14.6 35.15 14.25 L32.65 14.25 32.15 13.65 Q31.65 12.45 31.65 10.95 31.65 9.9 32.55 5.6 L33.0 5.15 M34.75 12.25 L34.85 7.35 34.45 7.3 34.1 7.35 33.65 8.7 33.5 10.0 Q33.75 10.3 33.8 11.2 33.8 12.05 34.0 12.1 L34.75 12.25 M20.7 9.45 L21.15 13.0 21.7 16.65 22.05 19.5 21.8 21.55 21.25 23.45 Q20.7 24.8 19.45 24.75 L12.95 24.75 Q12.15 24.1 12.15 22.75 L12.05 21.05 11.75 18.45 11.0 24.5 9.45 25.0 8.5 24.95 7.5 24.9 0.9 24.2 Q0.05 23.7 0.05 22.6 L0.1 21.75 0.15 20.9 0.3 14.45 Q0.3 10.3 0.6 8.0 L0.6 3.9 0.0 2.55 Q0.0 1.65 1.0 1.4 L3.0 1.3 4.1 1.15 5.15 0.95 Q5.85 0.95 6.35 1.45 6.9 2.3 7.05 3.6 L7.25 5.75 7.3 6.55 7.3 7.1 7.3 7.65 Q7.3 8.6 7.85 8.7 L7.85 8.6 7.75 8.1 7.7 7.4 7.8 2.95 Q7.7 1.25 8.55 0.95 L10.45 0.95 13.6 0.8 Q15.65 0.75 16.95 0.85 L17.7 0.9 18.5 1.05 Q19.8 1.55 20.15 3.2 L20.4 5.95 Q20.4 7.35 20.7 9.45 M17.95 3.4 L11.1 3.1 10.1 3.25 9.9 3.45 10.1 10.6 Q9.35 11.65 8.25 11.5 7.9 11.2 6.7 11.05 5.6 10.85 5.1 10.05 L4.95 6.75 4.75 3.8 4.05 3.6 2.85 3.8 2.75 4.5 Q2.35 5.9 1.95 6.0 2.25 11.85 2.1 21.6 L2.25 21.8 2.9 22.0 3.7 22.15 4.3 21.95 8.2 22.65 8.95 22.65 9.1 22.45 Q9.8 17.55 9.9 14.9 10.2 14.0 11.05 14.15 L12.4 14.7 Q13.3 15.1 13.5 16.4 L13.85 19.1 14.15 22.15 14.3 22.3 19.05 22.45 Q19.5 22.05 19.65 20.9 L20.0 18.8 18.9 11.35 Q18.2 6.55 18.05 3.55 L17.95 3.4" fill="#003366" fill-rule="evenodd" stroke="none"/>
  </g>
  <defs>
    <linearGradient gradientTransform="matrix(0.0, -0.0127, 0.0109, 0.0, 35.2, 12.95)" gradientUnits="userSpaceOnUse" id="gradient0" spreadMethod="pad" x1="-819.2" x2="819.2">
      <stop offset="0.0" stop-color="#ffffff"/>
      <stop offset="0.396078431372549" stop-color="#e9f7ff"/>
      <stop offset="0.9725490196078431" stop-color="#ff0000"/>
    </linearGradient>
  </defs>
</svg>
