<?xml version="1.0" encoding="UTF-8" standalone="no"?>
<svg xmlns:xlink="http://www.w3.org/1999/xlink" height="28.6px" width="97.1px" xmlns="http://www.w3.org/2000/svg">
  <g transform="matrix(1.0, 0.0, 0.0, 1.0, 1.2, 1.2)">
    <path d="M33.9 25.0 L33.75 25.1 32.95 25.05 33.9 25.0 M25.5 25.35 L25.2 25.4 25.5 25.35 M0.4 23.75 Q0.05 23.3 0.05 22.6 L0.1 22.05 0.4 23.75 M12.6 22.6 L12.65 22.6 12.65 22.7 12.6 22.6" fill="#003366" fill-rule="evenodd" stroke="none"/>
    <path d="M85.1 0.0 L86.65 3.05 87.05 2.45 88.1 1.45 89.65 0.15 Q90.8 -0.95 91.8 -0.9 92.9 -0.3 94.15 0.4 95.1 1.05 95.9 2.05 96.0 2.8 95.6 3.4 L95.2 4.3 93.5 7.2 Q92.15 9.05 91.75 9.85 L91.5 10.15 90.0 12.2 88.1 14.9 Q87.15 15.8 86.1 17.6 L84.25 20.35 83.55 21.65 82.2 23.85 81.3 25.25 80.6 26.45 Q80.05 27.4 79.2 27.4 L78.65 27.35 76.75 26.6 74.75 25.85 72.25 24.7 Q71.0 24.1 70.15 23.25 L70.2 22.4 75.4 15.3 76.8 14.0 77.6 12.85 76.65 11.35 74.65 7.75 70.9 0.85 Q70.55 -0.25 71.7 -0.6 L83.15 -1.15 Q84.25 -1.35 85.1 0.0 M73.8 1.6 L75.05 4.2 76.7 7.1 79.2 11.1 79.75 12.2 79.8 12.25 80.05 13.65 77.85 16.5 76.8 17.5 75.25 19.5 74.95 19.85 72.95 22.75 78.0 24.9 78.7 24.8 79.35 24.0 80.85 21.85 82.5 19.35 83.5 17.8 86.15 13.3 89.15 9.45 90.15 8.2 90.4 7.8 Q92.6 4.55 93.25 2.45 L92.55 1.95 92.0 1.65 Q90.05 2.6 88.15 4.95 L87.05 6.4 86.6 6.4 Q85.4 6.35 84.85 5.5 L84.75 5.3 84.25 3.8 83.8 2.4 83.65 2.2 83.1 1.3 81.4 1.2 77.6 1.4 73.85 1.55 73.8 1.55 73.8 1.6 M61.05 4.0 L57.5 3.85 53.85 4.15 50.95 4.55 49.45 4.75 48.75 4.9 Q46.9 5.35 45.8 6.05 45.7 6.85 46.15 7.95 46.05 8.8 46.3 10.1 L46.6 12.2 46.45 13.1 Q47.2 14.85 47.0 16.2 47.4 17.3 47.6 21.85 L47.95 21.9 48.55 22.0 49.1 21.95 49.65 21.9 51.15 22.05 51.3 22.05 53.05 22.2 53.8 22.2 53.95 22.05 53.45 19.25 Q53.1 17.3 53.95 16.4 L56.25 16.25 58.5 16.15 Q59.55 16.6 59.75 17.55 L59.75 19.3 59.65 22.5 59.7 22.5 60.9 22.4 60.95 22.4 61.1 22.4 62.45 22.2 63.6 22.05 63.9 22.0 Q64.5 21.95 64.65 21.65 L64.65 20.3 64.8 15.35 64.85 14.45 65.05 6.1 64.5 4.2 61.05 4.0 M66.8 4.1 L67.05 6.4 66.8 15.1 66.7 17.4 66.6 19.8 66.55 21.4 66.3 23.05 Q66.05 23.85 65.3 24.35 L58.6 24.8 Q58.1 24.85 57.65 24.0 L57.55 23.5 Q57.3 21.7 57.5 18.8 L56.95 18.65 55.7 18.9 Q55.5 19.0 55.65 19.6 55.2 22.0 55.65 22.25 L55.75 23.3 Q55.6 23.95 55.05 24.4 L53.65 24.55 51.75 24.4 49.9 24.25 49.7 24.25 Q48.25 24.1 47.7 24.25 L46.25 24.8 Q46.05 23.7 46.15 20.85 46.2 18.8 45.7 17.65 45.8 16.1 45.5 14.1 L45.05 11.75 44.85 9.85 44.4 7.6 44.0 5.25 Q44.0 4.7 44.5 4.15 L45.35 3.45 47.8 2.75 48.4 2.65 60.3 1.65 64.55 1.85 65.7 1.95 Q66.4 2.5 66.7 3.45 L66.8 4.1 M54.3 6.95 L56.45 7.2 56.5 7.2 57.65 7.2 58.5 8.05 58.3 13.7 57.6 14.55 55.0 14.05 53.45 13.8 Q52.6 13.5 52.8 12.1 L53.45 11.5 53.35 11.4 Q52.65 10.35 52.45 7.65 52.5 7.2 53.1 6.8 L54.3 6.95 M56.65 9.85 L56.65 9.7 56.45 9.65 54.75 9.5 Q54.75 9.95 56.0 11.75 56.4 12.05 56.65 11.95 L56.65 10.1 56.65 9.85 M25.2 25.4 L22.2 25.55 Q21.35 25.35 21.2 24.4 L21.15 23.65 21.3 19.55 21.4 14.9 21.4 14.5 21.3 12.15 21.2 9.4 Q21.15 8.2 21.6 5.7 22.0 3.5 21.9 2.15 22.05 1.25 22.75 1.15 L24.05 1.05 25.35 0.95 26.75 0.9 27.8 1.0 28.75 1.35 29.5 2.95 29.8 4.75 30.1 8.4 30.4 10.5 Q30.65 11.7 31.05 12.4 L31.35 12.6 31.85 12.6 36.6 12.65 41.3 12.75 Q41.9 13.1 42.1 14.25 41.9 19.9 41.5 23.15 L41.35 24.1 Q41.3 24.8 40.35 25.05 38.35 24.95 36.1 25.0 L33.9 25.0 32.95 25.05 25.5 25.35 25.2 25.4 M26.25 3.75 L25.9 3.75 25.15 3.7 Q24.2 3.7 23.8 4.1 22.9 8.6 23.05 11.7 23.45 18.35 23.05 22.45 L23.3 22.5 23.75 22.55 24.75 22.5 26.4 22.45 28.65 22.5 32.55 22.4 33.15 22.35 34.35 22.25 35.55 22.2 36.55 22.25 37.4 22.25 39.55 22.3 39.7 22.2 40.0 19.05 Q40.7 15.7 40.25 15.7 L39.95 15.65 Q36.8 15.4 30.45 15.5 L29.7 14.95 Q28.7 12.8 28.25 9.65 L27.65 4.15 27.6 4.0 27.3 3.8 26.25 3.75 M16.5 3.4 L16.2 3.25 14.75 2.5 12.25 2.05 7.85 2.05 6.7 2.1 5.1 2.4 Q4.45 3.0 2.9 3.5 1.4 4.0 1.05 4.35 L0.85 9.1 Q0.85 16.9 2.25 23.25 2.4 24.1 2.9 23.95 L7.95 23.45 11.25 22.9 12.15 22.7 12.6 22.6 12.0 16.6 11.8 15.5 11.55 14.35 11.55 14.25 Q11.55 13.65 11.95 13.1 L13.85 12.2 15.35 10.95 16.9 9.2 17.95 7.4 18.05 6.6 17.55 4.55 Q17.35 3.9 16.5 3.4 M0.1 22.05 Q-1.35 13.75 -1.2 6.45 L-1.2 2.4 Q-0.6 1.8 0.3 1.5 L1.45 0.9 Q4.85 -0.5 11.75 -0.25 L14.65 0.3 16.15 0.8 17.15 1.45 18.1 2.15 Q20.05 4.5 20.1 8.05 19.75 9.65 18.85 11.05 17.3 13.4 14.05 15.25 L13.95 15.45 14.05 18.25 Q14.1 19.85 14.5 21.05 L14.5 22.35 14.6 22.9 14.7 24.8 14.7 24.9 14.05 25.3 Q11.9 26.05 8.2 26.25 L2.35 26.65 Q1.0 26.8 0.75 25.7 L0.4 23.75 0.1 22.05 M7.4 5.7 L7.75 6.75 8.1 7.9 Q8.65 9.45 8.65 10.45 L8.55 11.55 8.45 11.9 8.15 12.95 7.25 14.2 6.15 14.45 5.1 14.65 Q4.3 14.65 3.95 13.95 3.3 12.5 3.2 9.5 3.0 6.45 2.65 5.15 L2.65 4.9 2.75 4.45 Q2.95 4.15 3.45 4.05 L4.75 4.05 Q6.3 4.25 7.25 5.45 L7.4 5.7 M5.1 6.8 L5.25 9.8 5.3 10.3 Q5.4 11.55 5.75 11.95 L6.0 11.85 6.45 11.0 6.6 9.8 Q6.6 8.35 6.0 7.35 5.6 6.85 5.1 6.8 M12.6 22.6 L12.65 22.7 12.65 22.6 12.6 22.6" fill="#000000" fill-rule="evenodd" stroke="none"/>
    <path d="M73.85 1.55 L77.6 1.4 81.4 1.2 83.1 1.3 83.65 2.2 83.8 2.4 84.25 3.8 84.75 5.3 84.85 5.5 Q85.4 6.35 86.6 6.4 L87.05 6.4 88.15 4.95 Q90.05 2.6 92.0 1.65 L92.55 1.95 93.25 2.45 Q92.6 4.55 90.4 7.8 L90.15 8.2 89.15 9.45 86.15 13.3 83.5 17.8 82.5 19.35 80.85 21.85 79.35 24.0 78.7 24.8 78.0 24.9 72.95 22.75 74.95 19.85 75.25 19.5 76.8 17.5 77.85 16.5 80.05 13.65 79.8 12.25 79.75 12.2 79.2 11.1 76.7 7.1 75.05 4.2 73.8 1.6 73.85 1.55 M61.05 4.0 L64.5 4.2 65.05 6.1 64.85 14.45 64.8 15.35 64.65 20.3 64.65 21.65 Q64.5 21.95 63.9 22.0 L63.6 22.05 62.45 22.2 61.1 22.4 60.95 22.4 60.9 22.4 59.7 22.5 59.65 22.5 59.75 19.3 59.75 17.55 Q59.55 16.6 58.5 16.15 L56.25 16.25 53.95 16.4 Q53.1 17.3 53.45 19.25 L53.95 22.05 53.8 22.2 53.05 22.2 51.3 22.05 51.15 22.05 49.65 21.9 49.1 21.95 48.55 22.0 47.95 21.9 47.6 21.85 Q47.4 17.3 47.0 16.2 47.2 14.85 46.45 13.1 L46.6 12.2 46.3 10.1 Q46.05 8.8 46.15 7.95 45.7 6.85 45.8 6.05 46.9 5.35 48.75 4.9 L49.45 4.75 50.95 4.55 53.85 4.15 57.5 3.85 61.05 4.0 M54.3 6.95 L53.1 6.8 Q52.5 7.2 52.45 7.65 52.65 10.35 53.35 11.4 L53.45 11.5 52.8 12.1 Q52.6 13.5 53.45 13.8 L55.0 14.05 57.6 14.55 58.3 13.7 58.5 8.05 57.65 7.2 56.5 7.2 56.45 7.2 54.3 6.95 M16.5 3.4 Q17.35 3.9 17.55 4.55 L18.05 6.6 17.95 7.4 16.9 9.2 15.35 10.95 13.85 12.2 11.95 13.1 Q11.55 13.65 11.55 14.25 L11.55 14.35 11.8 15.5 12.0 16.6 12.6 22.6 12.15 22.7 11.25 22.9 7.95 23.45 2.9 23.95 Q2.4 24.1 2.25 23.25 0.85 16.9 0.85 9.1 L1.05 4.35 Q1.4 4.0 2.9 3.5 4.45 3.0 5.1 2.4 L6.7 2.1 7.85 2.05 12.25 2.05 14.75 2.5 16.2 3.25 16.5 3.4 M26.25 3.75 L27.3 3.8 27.6 4.0 27.65 4.15 28.25 9.65 Q28.7 12.8 29.7 14.95 L30.45 15.5 Q36.8 15.4 39.95 15.65 L40.25 15.7 Q40.7 15.7 40.0 19.05 L39.7 22.2 39.55 22.3 37.4 22.25 36.55 22.25 35.55 22.2 34.35 22.25 33.15 22.35 32.55 22.4 28.65 22.5 26.4 22.45 24.75 22.5 23.75 22.55 23.3 22.5 23.05 22.45 Q23.45 18.35 23.05 11.7 22.9 8.6 23.8 4.1 24.2 3.7 25.15 3.7 L25.9 3.75 26.25 3.75 M7.4 5.7 L7.25 5.45 Q6.3 4.25 4.75 4.05 L3.45 4.05 Q2.95 4.15 2.75 4.45 L2.65 4.9 2.65 5.15 Q3.0 6.45 3.2 9.5 3.3 12.5 3.95 13.95 4.3 14.65 5.1 14.65 L6.15 14.45 7.25 14.2 8.15 12.95 8.45 11.9 8.55 11.55 8.65 10.45 Q8.65 9.45 8.1 7.9 L7.75 6.75 7.4 5.7" fill="#1ea7e1" fill-rule="evenodd" stroke="none"/>
  </g>
</svg>
