<?xml version="1.0" encoding="UTF-8" standalone="no"?>
<svg xmlns:xlink="http://www.w3.org/1999/xlink" height="27.6px" width="249.55px" xmlns="http://www.w3.org/2000/svg">
  <g transform="matrix(1.0, 0.0, 0.0, 1.0, 0.0, 0.0)">
    <path d="M240.3 11.35 Q239.2 10.2 238.25 10.35 L237.6 11.2 237.45 14.7 237.15 17.95 Q236.85 19.95 237.65 20.65 L240.95 20.05 241.2 18.85 241.1 17.75 240.95 16.9 240.9 14.35 Q240.85 12.4 240.3 11.35 M247.7 13.85 L247.5 15.45 246.7 18.55 Q246.15 20.4 245.0 21.2 243.15 22.45 239.25 22.8 L234.85 22.55 234.65 20.8 234.5 18.55 234.45 14.35 234.3 10.25 Q234.3 7.65 234.65 5.65 234.65 5.3 234.95 5.15 L236.0 4.9 Q242.7 5.0 245.75 8.75 247.7 11.1 247.7 13.85 M228.5 16.05 L228.75 16.1 Q229.2 16.1 228.55 19.2 L228.25 22.1 228.1 22.2 225.35 22.15 222.2 22.25 218.0 22.4 Q214.9 22.3 213.5 22.45 L213.05 22.4 212.85 22.35 Q213.2 18.55 212.85 12.4 212.7 9.55 213.55 5.35 213.9 5.0 214.8 5.0 L215.8 5.05 216.75 5.1 217.1 5.4 217.65 10.5 Q218.05 13.45 219.0 15.4 L219.7 15.9 Q225.6 15.85 228.5 16.05 M193.9 4.45 L192.9 4.55 Q192.35 4.6 191.95 4.9 191.25 6.0 191.25 7.65 L191.35 9.95 192.95 14.45 Q193.75 15.3 194.65 15.35 196.35 15.5 196.9 14.5 L196.6 13.2 Q196.3 12.45 196.35 12.0 L195.75 5.5 Q195.4 4.45 193.9 4.45 M204.6 4.5 Q205.0 4.95 205.4 6.15 L206.1 7.85 206.4 10.45 206.2 12.35 206.0 12.6 202.9 13.45 Q200.9 13.9 199.85 14.55 L198.95 14.8 Q198.45 14.95 198.1 15.5 198.0 16.3 198.5 16.85 L199.45 17.8 201.6 19.6 203.5 21.45 203.15 21.9 202.55 22.4 202.2 22.4 198.2 19.1 197.25 19.05 Q196.85 19.25 196.75 19.7 L196.9 21.05 197.1 22.4 197.0 23.2 195.8 23.3 194.45 23.35 189.0 23.95 189.0 23.9 188.8 18.1 188.6 12.05 188.8 5.05 Q188.95 4.75 189.5 4.55 L190.6 4.15 196.55 3.5 198.15 3.4 Q200.5 3.4 204.6 4.5 M177.05 5.0 Q175.8 4.65 175.4 5.6 175.8 8.8 175.65 13.45 175.85 14.85 176.5 15.15 178.15 15.35 178.9 14.55 179.45 13.3 179.45 11.95 179.45 10.8 179.05 8.95 L178.4 6.1 Q178.25 5.5 177.05 5.0 M180.35 4.3 L181.1 4.7 Q181.55 4.95 181.65 5.1 L181.9 8.0 181.45 12.85 180.75 17.85 Q180.25 20.7 179.35 22.45 L177.8 24.1 175.45 23.8 172.7 23.3 170.7 22.85 Q169.7 22.5 169.25 21.95 168.8 19.15 168.85 14.45 168.5 7.9 168.15 7.8 169.05 7.15 169.05 6.5 L169.05 6.05 169.05 5.55 Q169.05 3.5 175.9 3.5 L177.8 3.65 180.35 4.3 M128.85 6.25 L131.1 5.7 136.6 4.3 136.65 4.35 136.85 4.85 138.7 12.25 139.4 13.45 Q139.95 15.15 141.5 15.0 L142.15 13.2 Q143.05 11.3 143.55 7.85 L144.5 4.6 Q144.65 3.9 144.85 3.8 L150.1 4.35 150.3 4.4 150.45 4.8 152.35 12.25 153.05 13.9 Q153.6 15.15 155.1 15.0 L155.75 13.2 Q156.65 11.3 157.15 7.85 L158.15 4.6 158.45 3.8 162.1 4.6 Q162.25 4.8 161.8 6.05 L161.1 9.3 160.35 12.55 158.7 18.2 Q157.75 21.8 156.85 23.8 L156.6 23.9 153.8 23.9 150.9 23.75 150.05 23.3 148.3 19.4 Q147.2 17.05 146.55 17.1 145.9 17.1 144.85 19.75 L143.2 23.8 143.0 23.9 140.15 23.9 137.3 23.75 Q136.2 23.35 133.95 19.0 L130.95 12.6 Q130.55 11.75 130.05 9.9 L129.1 7.25 128.85 6.4 128.85 6.25 M121.7 22.3 L121.5 23.95 Q121.35 24.65 120.6 24.9 L116.15 25.5 113.35 25.35 110.7 25.25 109.05 24.95 Q108.2 24.85 108.0 24.55 107.65 21.9 107.65 20.75 107.65 19.2 108.0 18.1 L108.05 18.1 108.7 18.3 109.6 18.4 112.1 19.05 Q112.85 18.55 112.95 17.8 L113.1 16.4 Q112.95 14.8 111.9 14.2 111.15 13.75 109.35 13.35 108.0 13.0 107.5 12.6 L107.35 12.3 107.8 7.35 Q108.1 4.25 108.6 2.65 L109.8 2.45 111.5 2.3 116.1 2.2 118.65 2.2 Q118.9 2.45 119.0 3.25 L119.15 4.6 119.05 5.75 118.8 6.3 118.45 6.35 117.8 6.25 117.05 6.2 Q116.4 6.2 115.85 6.8 L116.15 9.3 Q116.4 10.75 117.45 11.3 L118.95 11.8 Q119.6 11.9 119.75 12.2 121.4 17.65 121.7 22.3 M74.0 4.7 Q74.45 4.95 74.55 5.1 L74.8 8.0 74.35 12.85 73.65 17.85 Q73.15 20.7 72.25 22.45 L70.7 24.1 68.35 23.8 65.6 23.3 63.6 22.85 Q62.6 22.5 62.15 21.95 61.7 19.15 61.75 14.45 61.4 7.9 61.05 7.8 61.95 7.15 61.95 6.5 L61.95 6.05 61.95 5.55 Q61.95 3.5 68.8 3.5 L70.7 3.65 73.25 4.3 74.0 4.7 M92.65 4.95 Q92.9 5.15 92.9 4.0 L93.1 3.55 Q98.4 3.9 100.05 4.6 100.35 4.9 100.25 5.6 L100.25 7.2 Q100.2 9.3 100.5 12.65 L100.8 17.45 100.3 20.25 Q100.05 21.95 99.65 22.65 L96.55 23.1 95.55 22.45 94.35 21.5 Q91.35 19.25 89.8 16.2 89.2 15.6 88.5 15.9 L88.1 16.6 87.9 22.5 87.65 22.7 82.4 23.9 82.3 23.45 82.1 22.75 82.0 17.3 81.8 11.85 Q81.8 9.0 82.1 6.8 82.0 5.65 82.3 5.55 L84.15 5.1 86.0 4.7 86.85 4.8 87.15 5.9 87.3 7.4 88.25 12.55 90.45 14.6 93.0 17.45 Q93.85 17.55 94.3 16.75 L92.65 4.95 M72.35 11.95 L71.95 8.95 71.3 6.1 Q71.15 5.5 69.95 5.0 68.7 4.65 68.3 5.6 68.7 8.8 68.55 13.45 68.75 14.85 69.4 15.15 71.05 15.35 71.8 14.55 72.35 13.3 72.35 11.95 M51.75 3.65 L54.3 4.3 55.05 4.7 55.6 5.1 55.85 8.0 55.4 12.85 54.7 17.85 Q54.2 20.7 53.3 22.45 L51.75 24.1 49.4 23.8 46.65 23.3 44.65 22.85 43.2 21.95 Q42.75 19.15 42.8 14.45 42.45 7.9 42.1 7.8 43.0 7.15 43.0 6.5 L43.0 6.05 43.0 5.55 Q43.0 3.5 49.85 3.5 L51.75 3.65 M52.35 6.1 Q52.2 5.5 51.0 5.0 49.75 4.65 49.35 5.6 49.75 8.8 49.6 13.45 49.8 14.85 50.45 15.15 52.1 15.35 52.85 14.55 53.4 13.3 53.4 11.95 53.4 10.8 53.0 8.95 L52.35 6.1 M25.7 5.1 L26.05 5.4 26.6 10.5 Q27.0 13.45 27.95 15.4 L28.65 15.9 Q34.55 15.85 37.45 16.05 L37.7 16.1 Q38.15 16.1 37.5 19.2 L37.2 22.1 37.05 22.2 34.3 22.15 31.15 22.25 26.95 22.4 Q23.85 22.3 22.45 22.45 L22.0 22.4 21.8 22.35 Q22.15 18.55 21.8 12.4 21.65 9.55 22.5 5.35 22.85 5.0 23.75 5.0 L24.75 5.05 25.7 5.1 M12.6 4.85 L12.85 5.15 12.95 7.75 12.6 13.45 Q13.1 14.2 14.15 14.2 L15.25 14.2 Q15.7 14.4 15.75 14.5 L16.4 20.2 16.2 22.55 15.75 22.9 6.55 23.5 4.8 23.45 3.15 23.25 Q2.35 23.2 2.15 22.9 1.75 20.25 1.9 15.6 2.05 10.15 1.85 8.1 L1.9 6.25 2.0 4.7 5.35 4.45 8.75 4.2 9.7 4.25 9.75 4.25 12.6 4.85 M11.35 9.1 L11.5 7.2 Q11.5 6.2 11.15 5.35 10.8 4.45 9.7 4.45 8.85 4.45 8.0 5.0 7.7 5.4 7.75 5.85 L8.25 6.55 Q7.55 9.9 7.55 11.7 7.85 12.45 8.45 12.45 L9.15 12.2 Q9.65 11.9 9.9 12.05 10.75 12.0 11.1 11.0 L11.35 9.1 M7.9 16.1 L7.2 15.15 6.35 14.8 Q5.8 14.45 5.4 14.45 4.85 14.45 4.4 15.15 L4.2 18.2 Q3.9 20.25 4.0 21.4 4.1 22.45 5.6 22.3 5.9 22.0 6.85 21.9 7.95 21.8 8.5 21.15 7.95 17.75 7.9 16.1" fill="#ffffff" fill-rule="evenodd" stroke="none"/>
    <path d="M249.1 10.8 Q249.55 12.05 249.55 13.75 249.55 16.05 248.45 19.65 247.9 21.55 246.7 22.75 245.3 24.15 243.65 24.25 L233.55 24.85 Q232.95 24.6 232.8 24.05 L232.5 17.8 232.25 11.5 Q232.25 6.95 233.05 3.6 233.4 2.65 234.4 2.65 L235.2 2.75 236.1 2.9 236.45 2.8 237.9 2.65 Q240.8 2.65 243.8 4.4 247.5 6.5 249.1 10.8 M247.7 13.85 Q247.7 11.1 245.75 8.75 242.7 5.0 236.0 4.9 L234.95 5.15 Q234.65 5.3 234.65 5.65 234.3 7.65 234.3 10.25 L234.45 14.35 234.5 18.55 234.65 20.8 234.85 22.55 239.25 22.8 Q243.15 22.45 245.0 21.2 246.15 20.4 246.7 18.55 L247.5 15.45 247.7 13.85 M240.3 11.35 Q240.85 12.4 240.9 14.35 L240.95 16.9 241.1 17.75 241.2 18.85 240.95 20.05 237.65 20.65 Q236.85 19.95 237.15 17.95 L237.45 14.7 237.6 11.2 238.25 10.35 Q239.2 10.2 240.3 11.35 M230.45 14.75 L229.8 23.9 Q229.75 24.55 228.85 24.75 223.25 24.55 215.1 25.05 L212.05 25.2 Q211.25 25.05 211.1 24.15 L211.2 19.65 211.3 15.35 211.2 12.8 211.1 10.25 211.5 6.85 211.75 3.55 Q211.9 2.75 212.55 2.65 L213.75 2.55 214.95 2.45 216.25 2.4 218.1 2.8 Q218.9 4.0 219.1 5.95 L219.35 9.35 219.65 11.3 220.25 13.05 220.5 13.25 229.75 13.35 Q230.3 13.7 230.45 14.75 M228.5 16.05 Q225.6 15.85 219.7 15.9 L219.0 15.4 Q218.05 13.45 217.65 10.5 L217.1 5.4 216.75 5.1 215.8 5.05 214.8 5.0 Q213.9 5.0 213.55 5.35 212.7 9.55 212.85 12.4 213.2 18.55 212.85 22.35 L213.05 22.4 213.5 22.45 Q214.9 22.3 218.0 22.4 L222.2 22.25 225.35 22.15 228.1 22.2 228.25 22.1 228.55 19.2 Q229.2 16.1 228.75 16.1 L228.5 16.05 M239.35 14.55 L239.0 14.55 239.1 16.45 239.05 18.05 239.05 18.15 239.15 18.2 239.25 16.2 239.35 14.55 M206.65 4.1 Q208.65 7.65 208.65 11.75 L208.6 13.25 Q208.5 14.1 207.7 14.45 L206.1 15.05 Q205.0 15.15 203.55 15.75 L201.1 16.7 201.15 16.75 203.6 18.9 Q205.2 20.3 206.0 21.5 L206.0 22.4 203.6 24.7 Q202.2 24.9 200.85 23.65 L199.15 22.3 199.2 24.8 198.65 25.25 195.3 25.45 192.2 25.6 190.15 26.05 187.85 26.3 Q187.0 25.65 186.85 24.5 L186.65 22.75 186.45 17.0 186.25 11.3 186.4 8.6 186.55 5.9 186.4 3.5 Q187.7 2.55 189.5 2.15 L192.7 1.55 198.15 1.3 201.45 1.75 204.3 2.15 Q206.0 2.7 206.65 4.1 M204.6 4.5 Q200.5 3.4 198.15 3.4 L196.55 3.5 190.6 4.15 189.5 4.55 Q188.95 4.75 188.8 5.05 L188.6 12.05 188.8 18.1 189.0 23.9 189.0 23.95 194.45 23.35 195.8 23.3 197.0 23.2 197.1 22.4 196.9 21.05 196.75 19.7 Q196.85 19.25 197.25 19.05 L198.2 19.1 202.2 22.4 202.55 22.4 203.15 21.9 203.5 21.45 201.6 19.6 199.45 17.8 198.5 16.85 Q198.0 16.3 198.1 15.5 198.45 14.95 198.95 14.8 L199.85 14.55 Q200.9 13.9 202.9 13.45 L206.0 12.6 206.2 12.35 206.4 10.45 206.1 7.85 205.4 6.15 Q205.0 4.95 204.6 4.5 M193.9 4.45 Q195.4 4.45 195.75 5.5 L196.35 12.0 Q196.3 12.45 196.6 13.2 L196.9 14.5 Q196.35 15.5 194.65 15.35 193.75 15.3 192.95 14.45 L191.35 9.95 191.25 7.65 Q191.25 6.0 191.95 4.9 192.35 4.6 192.9 4.55 L193.9 4.45 M194.2 12.25 L193.9 7.05 193.75 6.9 193.7 6.9 Q193.45 7.75 193.45 8.8 193.45 10.7 194.2 12.25 L194.25 12.9 194.45 12.7 194.2 12.25 M183.5 10.3 L183.15 13.25 Q182.75 15.15 182.7 16.1 L181.65 21.45 Q180.75 24.45 178.45 26.1 L174.5 25.65 171.0 24.95 Q168.95 24.35 167.85 22.95 167.3 19.15 167.25 8.7 L167.45 6.6 167.6 4.6 167.6 3.25 Q168.95 2.15 171.0 1.9 L174.55 1.5 177.6 1.55 180.15 2.2 Q181.8 2.65 182.75 3.45 183.6 4.75 183.6 7.05 L183.55 8.4 183.5 10.3 M180.35 4.3 L177.8 3.65 175.9 3.5 Q169.05 3.5 169.05 5.55 L169.05 6.05 169.05 6.5 Q169.05 7.15 168.15 7.8 168.5 7.9 168.85 14.45 168.8 19.15 169.25 21.95 169.7 22.5 170.7 22.85 L172.7 23.3 175.45 23.8 177.8 24.1 179.35 22.45 Q180.25 20.7 180.75 17.85 L181.45 12.85 181.9 8.0 181.65 5.1 Q181.55 4.95 181.1 4.7 L180.35 4.3 M177.05 5.0 Q178.25 5.5 178.4 6.1 L179.05 8.95 Q179.45 10.8 179.45 11.95 179.45 13.3 178.9 14.55 178.15 15.35 176.5 15.15 175.85 14.85 175.65 13.45 175.8 8.8 175.4 5.6 175.8 4.65 177.05 5.0 M177.55 9.7 L177.25 8.5 177.35 7.4 Q176.95 7.4 177.05 7.65 L177.25 8.5 177.25 9.95 176.6 12.7 177.45 13.05 177.5 13.05 177.8 11.55 177.55 9.7 M164.35 3.4 Q164.75 3.8 164.75 4.25 L164.5 5.05 164.25 5.8 163.25 11.05 Q162.7 12.0 162.2 14.05 L161.35 17.0 160.5 20.65 160.15 21.75 159.7 22.9 Q159.5 23.3 159.25 24.35 158.8 25.3 157.9 25.6 152.35 25.75 150.75 25.5 150.0 25.7 148.95 25.1 148.05 23.85 146.9 20.65 146.65 20.95 146.5 21.75 L146.1 22.9 145.6 24.3 Q145.15 25.3 144.25 25.6 138.8 25.75 137.15 25.5 136.35 25.7 135.35 25.1 L133.35 21.75 131.8 18.65 130.65 16.4 129.4 14.1 126.1 5.15 Q126.4 4.15 127.55 4.0 L129.0 3.9 Q132.8 2.7 136.55 2.1 137.1 2.1 138.35 2.85 L139.15 5.15 139.65 7.55 Q140.0 8.05 140.2 9.35 L140.4 10.3 140.5 10.95 140.8 10.15 141.1 7.9 142.8 2.1 143.45 1.7 150.1 2.1 150.15 2.1 Q150.75 2.1 152.0 2.8 152.45 3.8 152.7 5.15 L153.3 7.55 153.8 9.35 154.15 10.95 154.4 9.6 154.7 7.9 156.4 2.1 157.1 1.7 160.85 2.3 162.55 2.75 Q163.7 3.0 164.35 3.4 M128.85 6.4 L129.1 7.25 130.05 9.9 Q130.55 11.75 130.95 12.6 L133.95 19.0 Q136.2 23.35 137.3 23.75 L140.15 23.9 143.0 23.9 143.2 23.8 144.85 19.75 Q145.9 17.1 146.55 17.1 147.2 17.05 148.3 19.4 L150.05 23.3 150.9 23.75 153.8 23.9 156.6 23.9 156.85 23.8 Q157.75 21.8 158.7 18.2 L160.35 12.55 161.1 9.3 161.8 6.05 Q162.25 4.8 162.1 4.6 L158.45 3.8 158.15 4.6 157.15 7.85 Q156.65 11.3 155.75 13.2 L155.1 15.0 Q153.6 15.15 153.05 13.9 L152.35 12.25 150.45 4.8 150.3 4.4 150.1 4.35 144.85 3.8 Q144.65 3.9 144.5 4.6 L143.55 7.85 Q143.05 11.3 142.15 13.2 L141.5 15.0 Q139.95 15.15 139.4 13.45 L138.7 12.25 136.85 4.85 136.65 4.35 136.6 4.3 131.1 5.7 128.85 6.25 128.8 6.25 128.85 6.4 M121.7 22.3 Q121.4 17.65 119.75 12.2 119.6 11.9 118.95 11.8 L117.45 11.3 Q116.4 10.75 116.15 9.3 L115.85 6.8 Q116.4 6.2 117.05 6.2 L117.8 6.25 118.45 6.35 118.8 6.3 119.05 5.75 119.15 4.6 119.0 3.25 Q118.9 2.45 118.65 2.2 L116.1 2.2 111.5 2.3 109.8 2.45 108.6 2.65 Q108.1 4.25 107.8 7.35 L107.35 12.3 107.5 12.6 Q108.0 13.0 109.35 13.35 111.15 13.75 111.9 14.2 112.95 14.8 113.1 16.4 L112.95 17.8 Q112.85 18.55 112.1 19.05 L109.6 18.4 108.7 18.3 108.05 18.1 108.0 18.1 Q107.65 19.2 107.65 20.75 107.65 21.9 108.0 24.55 108.2 24.85 109.05 24.95 L110.7 25.25 113.35 25.35 116.15 25.5 120.6 24.9 Q121.35 24.65 121.5 23.95 L121.7 22.3 M123.2 18.45 L123.55 20.8 123.8 23.25 Q123.8 25.0 122.95 26.3 121.55 27.2 119.35 27.45 L115.75 27.45 113.9 27.6 107.85 26.85 106.85 26.4 Q106.3 26.15 106.15 25.45 105.5 22.6 105.5 19.7 105.5 18.25 105.65 16.85 105.75 16.45 106.35 15.7 L108.9 16.05 111.05 16.5 111.05 16.3 110.05 15.65 108.6 15.25 Q106.05 14.8 105.35 13.1 L105.15 11.8 105.4 10.15 105.6 8.45 Q105.8 5.9 106.55 0.85 L107.15 0.4 110.9 0.2 112.65 0.4 115.1 0.2 117.45 0.0 120.05 0.45 Q120.85 0.75 121.15 1.65 L120.95 2.85 121.15 4.45 121.4 6.1 121.15 7.4 Q120.9 8.25 120.25 8.45 L118.3 8.45 118.3 9.2 Q118.5 9.45 119.55 9.8 120.6 10.1 121.05 10.9 121.8 12.4 122.35 14.55 L123.2 18.45 M102.0 11.6 L102.3 16.85 Q102.3 19.5 101.75 21.5 L101.5 23.2 Q101.3 24.15 100.7 24.7 L98.6 24.95 Q97.45 25.05 96.85 25.4 L95.9 25.25 92.75 22.45 Q90.75 20.95 89.75 19.65 L89.45 24.15 Q88.9 24.7 88.05 24.8 L86.85 25.05 84.7 25.5 Q83.3 25.8 82.45 26.25 81.15 26.15 80.9 25.1 L80.4 23.1 80.3 18.05 80.0 13.1 80.15 10.25 80.3 8.7 80.4 7.15 80.35 6.15 Q80.3 5.95 79.75 5.85 79.2 5.7 79.1 5.05 79.05 3.95 79.95 3.65 L83.65 2.9 87.8 2.3 Q88.35 3.1 88.55 4.0 L88.9 5.95 89.55 9.95 Q90.0 12.05 91.7 12.9 L92.25 13.6 92.25 13.0 92.15 12.35 91.3 6.55 91.0 2.55 Q91.15 2.0 91.85 1.4 L93.4 1.3 Q97.15 1.3 100.95 2.45 101.75 3.15 101.8 4.7 L101.8 6.4 Q101.7 8.35 102.0 11.6 M92.65 4.95 L94.3 16.75 Q93.85 17.55 93.0 17.45 L90.45 14.6 88.25 12.55 87.3 7.4 87.15 5.9 86.85 4.8 86.0 4.7 84.15 5.1 82.3 5.55 Q82.0 5.65 82.1 6.8 81.8 9.0 81.8 11.85 L82.0 17.3 82.1 22.75 82.3 23.45 82.4 23.9 87.65 22.7 87.9 22.5 88.1 16.6 88.5 15.9 Q89.2 15.6 89.8 16.2 91.35 19.25 94.35 21.5 L95.55 22.45 96.55 23.1 99.65 22.65 Q100.05 21.95 100.3 20.25 L100.8 17.45 100.5 12.65 Q100.2 9.3 100.25 7.2 L100.25 5.6 Q100.35 4.9 100.05 4.6 98.4 3.9 93.1 3.55 L92.9 4.0 Q92.9 5.15 92.65 4.95 M74.0 4.7 L73.25 4.3 70.7 3.65 68.8 3.5 Q61.95 3.5 61.95 5.55 L61.95 6.05 61.95 6.5 Q61.95 7.15 61.05 7.8 61.4 7.9 61.75 14.45 61.7 19.15 62.15 21.95 62.6 22.5 63.6 22.85 L65.6 23.3 68.35 23.8 70.7 24.1 72.25 22.45 Q73.15 20.7 73.65 17.85 L74.35 12.85 74.8 8.0 74.55 5.1 Q74.45 4.95 74.0 4.7 M75.65 3.45 Q76.5 4.75 76.5 7.05 L76.45 8.4 76.4 10.3 76.05 13.25 Q75.65 15.15 75.6 16.1 L74.55 21.45 Q73.65 24.45 71.35 26.1 L67.4 25.65 63.9 24.95 Q61.85 24.35 60.75 22.95 60.2 19.15 60.15 8.7 L60.35 6.6 60.5 4.6 60.5 3.25 Q61.85 2.15 63.9 1.9 L67.45 1.5 70.5 1.55 73.05 2.2 Q74.7 2.65 75.65 3.45 M72.35 11.95 Q72.35 13.3 71.8 14.55 71.05 15.35 69.4 15.15 68.75 14.85 68.55 13.45 68.7 8.8 68.3 5.6 68.7 4.65 69.95 5.0 71.15 5.5 71.3 6.1 L71.95 8.95 72.35 11.95 M70.15 8.5 L70.25 7.4 Q69.85 7.4 69.95 7.65 L70.15 8.5 70.15 9.95 69.5 12.7 70.35 13.05 70.4 13.05 70.7 11.55 70.45 9.7 70.15 8.5 M54.1 2.2 Q55.75 2.65 56.7 3.45 57.55 4.75 57.55 7.05 L57.5 8.4 57.45 10.3 57.1 13.25 Q56.7 15.15 56.65 16.1 L55.6 21.45 Q54.7 24.45 52.4 26.1 L48.45 25.65 44.95 24.95 Q42.9 24.35 41.8 22.95 41.25 19.15 41.2 8.7 L41.4 6.6 41.55 4.6 41.55 3.25 Q42.9 2.15 44.95 1.9 L48.5 1.5 51.55 1.55 54.1 2.2 M52.35 6.1 L53.0 8.95 Q53.4 10.8 53.4 11.95 53.4 13.3 52.85 14.55 52.1 15.35 50.45 15.15 49.8 14.85 49.6 13.45 49.75 8.8 49.35 5.6 49.75 4.65 51.0 5.0 52.2 5.5 52.35 6.1 M51.75 3.65 L49.85 3.5 Q43.0 3.5 43.0 5.55 L43.0 6.05 43.0 6.5 Q43.0 7.15 42.1 7.8 42.45 7.9 42.8 14.45 42.75 19.15 43.2 21.95 L44.65 22.85 46.65 23.3 49.4 23.8 51.75 24.1 53.3 22.45 Q54.2 20.7 54.7 17.85 L55.4 12.85 55.85 8.0 55.6 5.1 55.05 4.7 54.3 4.3 51.75 3.65 M51.5 9.7 L51.2 8.5 51.3 7.4 Q50.9 7.4 51.0 7.65 L51.2 8.5 51.2 9.95 50.55 12.7 51.4 13.05 51.45 13.05 51.75 11.55 51.5 9.7 M25.7 5.1 L24.75 5.05 23.75 5.0 Q22.85 5.0 22.5 5.35 21.65 9.55 21.8 12.4 22.15 18.55 21.8 22.35 L22.0 22.4 22.45 22.45 Q23.85 22.3 26.95 22.4 L31.15 22.25 34.3 22.15 37.05 22.2 37.2 22.1 37.5 19.2 Q38.15 16.1 37.7 16.1 L37.45 16.05 Q34.55 15.85 28.65 15.9 L27.95 15.4 Q27.0 13.45 26.6 10.5 L26.05 5.4 25.7 5.1 M28.05 5.95 L28.3 9.35 28.6 11.3 29.2 13.05 29.45 13.25 38.7 13.35 Q39.25 13.7 39.4 14.75 L38.75 23.9 Q38.7 24.55 37.8 24.75 32.2 24.55 24.05 25.05 L21.0 25.2 Q20.2 25.05 20.05 24.15 L20.15 19.65 20.25 15.35 20.15 12.8 20.05 10.25 20.45 6.85 20.7 3.55 Q20.85 2.75 21.5 2.65 L22.7 2.55 23.9 2.45 25.2 2.4 27.05 2.8 Q27.85 4.0 28.05 5.95 M12.6 4.85 L9.75 4.25 9.7 4.25 8.75 4.2 5.35 4.45 2.0 4.7 1.9 6.25 1.85 8.1 Q2.05 10.15 1.9 15.6 1.75 20.25 2.15 22.9 2.35 23.2 3.15 23.25 L4.8 23.45 6.55 23.5 15.75 22.9 16.2 22.55 16.4 20.2 15.75 14.5 Q15.7 14.4 15.25 14.2 L14.15 14.2 Q13.1 14.2 12.6 13.45 L12.95 7.75 12.85 5.15 12.6 4.85 M14.8 5.7 L14.8 7.0 Q14.65 8.75 14.75 11.85 L15.55 11.95 Q16.25 11.95 16.65 12.4 17.4 13.05 17.6 14.15 L17.95 16.15 Q18.35 20.85 18.05 24.1 17.75 24.65 16.4 25.0 L10.75 25.25 5.1 25.55 1.5 25.35 Q0.65 25.2 0.35 24.35 0.0 20.9 0.0 16.35 L0.1 10.5 0.15 4.55 0.25 3.2 Q0.3 2.5 1.05 2.05 L2.1 2.4 5.7 2.25 9.3 2.05 12.8 2.4 Q14.1 3.2 14.55 4.25 L14.8 5.7 M11.35 9.1 L11.1 11.0 Q10.75 12.0 9.9 12.05 9.65 11.9 9.15 12.2 L8.45 12.45 Q7.85 12.45 7.55 11.7 7.55 9.9 8.25 6.55 L7.75 5.85 Q7.7 5.4 8.0 5.0 8.85 4.45 9.7 4.45 10.8 4.45 11.15 5.35 11.5 6.2 11.5 7.2 L11.35 9.1 M9.75 6.95 L9.85 6.7 Q9.6 6.7 9.65 6.85 L9.75 6.95 Q9.3 7.85 9.4 9.55 L9.25 10.05 9.45 9.95 9.4 9.55 9.75 6.95 M6.2 17.2 L5.9 20.1 6.2 20.1 6.4 19.95 6.35 19.5 Q6.2 19.05 6.3 17.95 L6.2 17.2 M7.9 16.1 Q7.95 17.75 8.5 21.15 7.95 21.8 6.85 21.9 5.9 22.0 5.6 22.3 4.1 22.45 4.0 21.4 3.9 20.25 4.2 18.2 L4.4 15.15 Q4.85 14.45 5.4 14.45 5.8 14.45 6.35 14.8 L7.2 15.15 7.9 16.1" fill="#003366" fill-rule="evenodd" stroke="none"/>
  </g>
</svg>
