<?xml version="1.0" encoding="UTF-8" standalone="no"?>
<svg xmlns:xlink="http://www.w3.org/1999/xlink" height="193.2px" width="80.0px" xmlns="http://www.w3.org/2000/svg">
  <g transform="matrix(1.0, 0.0, 0.0, 1.0, 0.0, 0.0)">
    <path d="M76.7 3.4 L72.45 3.4 58.35 3.4 54.15 3.4 40.05 3.4 35.85 3.4 21.7 3.4 17.55 3.4 3.4 3.4 3.4 72.4 3.4 78.05 38.95 95.95 38.95 96.05 41.5 96.05 76.7 79.0 76.7 3.4 M80.0 0.05 L80.0 80.0 79.9 80.0 40.9 97.25 52.75 115.8 42.35 132.05 Q53.45 132.7 61.55 140.9 70.35 149.9 70.35 162.6 70.35 175.25 61.55 184.2 52.7 193.15 40.25 193.2 27.8 193.15 18.95 184.2 10.15 175.25 10.15 162.6 10.15 149.9 18.95 140.9 26.7 133.0 37.3 132.1 L27.85 115.8 38.8 96.85 0.1 80.0 0.05 80.0 0.05 78.15 0.0 78.15 0.0 0.0 15.4 0.0 15.4 0.05 20.0 0.05 20.0 0.0 35.4 0.0 35.4 0.05 40.0 0.05 40.0 0.0 55.35 0.0 55.35 0.05 60.0 0.05 60.0 0.0 75.35 0.0 75.35 0.05 80.0 0.05 M51.2 116.05 L39.75 98.05 29.3 116.05 40.0 133.8 51.2 116.05 M60.45 182.8 Q68.8 174.5 68.8 162.7 68.8 150.9 60.45 142.55 52.15 134.25 40.35 134.25 28.55 134.25 20.2 142.55 11.9 150.9 11.9 162.7 11.9 174.5 20.2 182.8 28.55 191.15 40.35 191.15 52.15 191.15 60.45 182.8" fill="#666666" fill-rule="evenodd" stroke="none"/>
    <path d="M76.7 3.4 L76.7 79.0 41.5 96.05 38.95 96.05 38.95 95.95 3.4 78.05 3.4 72.4 3.4 3.4 17.55 3.4 21.7 3.4 35.85 3.4 40.05 3.4 54.15 3.4 58.35 3.4 72.45 3.4 76.7 3.4 M51.2 116.05 L40.0 133.8 29.3 116.05 39.75 98.05 51.2 116.05 M60.45 182.8 Q52.15 191.15 40.35 191.15 28.55 191.15 20.2 182.8 11.9 174.5 11.9 162.7 11.9 150.9 20.2 142.55 28.55 134.25 40.35 134.25 52.15 134.25 60.45 142.55 68.8 150.9 68.8 162.7 68.8 174.5 60.45 182.8" fill="#999999" fill-rule="evenodd" stroke="none"/>
  </g>
</svg>
