<?xml version="1.0" encoding="UTF-8" standalone="no"?>
<svg xmlns:xlink="http://www.w3.org/1999/xlink" height="192.3px" width="80.0px" xmlns="http://www.w3.org/2000/svg">
  <g transform="matrix(1.0, 0.0, 0.0, 1.0, 118.05, 469.4)">
    <path d="M-78.05 -469.35 L-78.05 -469.4 -62.7 -469.4 -62.7 -469.35 -62.7 -393.75 -78.05 -393.75 -78.05 -469.35 M-118.05 -393.75 L-118.05 -469.4 -102.65 -469.4 -102.65 -469.35 -102.65 -393.75 -118.05 -393.75" fill="#009900" fill-rule="evenodd" stroke="none"/>
    <path d="M-98.05 -469.35 L-98.05 -469.4 -82.65 -469.4 -82.65 -469.35 -82.65 -393.75 -98.05 -393.75 -98.05 -469.35 M-58.05 -469.35 L-58.05 -469.4 -42.7 -469.4 -42.7 -469.35 -42.7 -393.75 -58.05 -393.75 -58.05 -469.35" fill="#eff33f" fill-rule="evenodd" stroke="none"/>
    <path d="M-98.05 -469.35 L-98.05 -393.75 -98.05 -391.25 -98.05 -389.4 -117.95 -389.4 -118.0 -389.4 -118.0 -391.25 -100.2 -391.25 -100.2 -469.35 -98.05 -469.35 M-60.2 -469.35 L-58.05 -469.35 -58.05 -393.75 -58.05 -391.25 -58.05 -389.4 -78.05 -389.4 -78.05 -391.25 -60.2 -391.25 -60.2 -469.35" fill="#336600" fill-rule="evenodd" stroke="none"/>
    <path d="M-62.7 -469.35 L-60.2 -469.35 -60.2 -391.25 -78.05 -391.25 -78.05 -393.75 -62.7 -393.75 -62.7 -469.35 M-118.0 -391.25 L-118.05 -391.25 -118.05 -393.75 -102.65 -393.75 -102.65 -469.35 -100.2 -469.35 -100.2 -391.25 -118.0 -391.25" fill="#006600" fill-rule="evenodd" stroke="none"/>
    <path d="M-80.2 -469.35 L-78.05 -469.35 -78.05 -393.75 -78.05 -391.25 -78.05 -389.4 -98.05 -389.4 -98.05 -391.25 -80.2 -391.25 -80.2 -469.35 M-40.2 -469.35 L-38.05 -469.35 -38.05 -389.4 -38.15 -389.4 -58.05 -389.4 -58.05 -391.25 -40.2 -391.25 -40.2 -469.35" fill="#00cc33" fill-rule="evenodd" stroke="none"/>
    <path d="M-98.05 -393.75 L-82.65 -393.75 -82.65 -469.35 -80.2 -469.35 -80.2 -391.25 -98.05 -391.25 -98.05 -393.75 M-42.7 -469.35 L-40.2 -469.35 -40.2 -391.25 -58.05 -391.25 -58.05 -393.75 -42.7 -393.75 -42.7 -469.35" fill="#a9c606" fill-rule="evenodd" stroke="none"/>
    <path d="M-78.1 -386.85 L-78.1 -386.65 -78.1 -384.75 -81.75 -384.75 -82.6 -384.65 Q-83.2 -384.5 -83.8 -384.0 -84.45 -383.55 -84.65 -382.6 L-84.65 -377.85 -105.05 -386.85 -78.1 -386.85 M-74.45 -386.65 L-74.45 -386.85 -51.0 -386.85 -71.2 -377.85 -71.2 -382.0 -73.25 -382.0 -72.75 -382.35 -71.9 -383.2 -71.2 -384.75 -74.45 -384.75 -74.45 -386.65 M-79.15 -375.45 L-84.35 -377.7 -71.45 -377.7 -78.2 -374.7 -79.15 -375.45 M-77.25 -366.2 L-69.5 -354.05 -78.1 -340.7 -85.75 -354.05 -78.15 -367.4 -77.15 -366.25 -77.25 -366.2 M-73.35 -356.85 L-73.4 -356.9 -73.4 -356.95 -73.45 -356.95 -73.5 -357.0 -73.55 -357.05 -73.6 -357.1 -73.7 -357.15 -73.75 -357.2 -73.8 -357.25 -73.85 -357.3 -73.85 -357.35 -73.9 -357.4 -73.95 -357.45 -74.0 -357.45 -74.1 -357.5 -74.15 -357.5 -74.25 -357.55 -74.25 -357.6 -74.35 -357.65 -74.45 -357.7 -74.55 -357.7 -74.75 -357.75 -74.85 -357.8 -74.95 -357.85 -75.05 -357.9 -75.15 -357.95 -75.25 -358.0 -75.4 -358.0 -75.5 -358.05 -75.55 -358.1 -75.65 -358.1 -76.6 -358.15 -76.65 -358.1 -76.95 -358.1 -77.05 -358.05 -77.2 -358.05 -77.3 -358.0 -77.45 -358.0 -77.5 -357.95 -77.55 -357.95 -77.7 -357.9 -77.7 -357.85 -77.75 -357.8 -77.8 -357.8 -77.9 -357.75 -78.0 -357.7 -78.05 -357.65 -78.1 -357.6 -78.15 -357.55 -78.2 -357.5 -78.25 -357.45 -78.35 -357.45 -78.35 -357.4 -78.4 -357.35 -78.45 -357.3 -78.5 -357.25 -78.55 -357.2 -78.6 -357.2 -78.65 -357.25 -79.65 -357.3 -79.75 -357.25 -79.85 -357.2 -79.9 -357.2 -80.05 -357.15 -80.1 -357.15 -80.15 -357.15 -80.2 -357.05 -80.25 -357.0 -80.3 -356.95 -80.35 -356.9 -80.4 -356.9 -80.45 -356.85 -80.5 -356.8 -80.55 -356.75 -80.6 -356.7 -80.6 -356.65 -80.65 -356.6 -80.7 -356.55 -80.75 -356.5 -80.75 -356.45 -80.8 -356.4 -80.8 -356.35 -80.85 -356.3 -80.9 -356.25 -80.9 -356.15 -80.95 -356.15 -80.95 -356.0 -81.0 -355.95 -81.05 -355.95 -81.1 -355.85 -81.2 -355.85 -81.25 -355.8 -81.35 -355.75 -81.4 -355.75 -81.45 -355.7 -81.55 -355.65 -81.6 -355.65 -81.7 -355.6 -81.8 -355.55 -81.85 -355.5 -81.9 -355.45 -81.95 -355.4 -82.0 -355.35 -82.1 -355.35 -82.2 -355.3 -82.25 -355.25 -82.3 -355.2 -82.35 -355.15 -82.4 -355.1 -82.5 -355.05 -82.55 -355.0 -82.65 -354.85 -82.8 -354.7 -82.9 -354.6 -83.1 -354.4 -83.2 -354.3 -83.35 -354.1 -83.6 -353.85 -83.65 -353.8 -83.65 -353.75 -83.7 -353.7 -83.7 -353.65 -83.75 -353.65 -83.8 -353.6 -83.85 -353.55 -83.85 -353.5 -83.9 -353.45 -83.95 -353.4 -84.0 -353.35 -84.0 -353.3 -84.05 -353.25 -84.1 -353.2 -84.15 -353.15 -84.2 -353.1 -84.2 -353.05 -84.25 -353.0 -84.25 -352.95 -84.3 -352.9 -84.3 -352.7 -84.3 -352.65 -84.2 -352.6 -84.15 -352.6 -84.1 -352.65 -84.05 -352.65 -84.05 -352.7 -84.0 -352.7 -83.95 -352.75 -83.9 -352.8 -83.85 -352.85 -83.8 -352.95 -83.75 -353.0 -83.7 -353.0 -83.7 -353.05 -83.6 -353.1 -83.55 -353.15 -83.5 -353.2 -83.5 -353.25 -83.45 -353.25 -83.4 -353.3 -83.35 -353.35 -83.35 -353.4 -83.3 -353.45 -83.2 -353.5 -83.15 -353.55 -83.1 -353.6 -83.1 -353.65 -83.0 -353.65 -82.95 -353.7 -82.95 -353.75 -82.85 -353.8 -82.8 -353.85 -82.75 -353.9 -82.7 -353.9 -82.65 -353.95 -82.6 -354.0 -82.55 -354.05 -82.45 -354.1 -82.4 -354.15 -82.35 -354.2 -82.25 -354.25 -82.2 -354.3 -82.15 -354.35 -82.1 -354.35 -82.05 -354.4 -82.0 -354.45 -81.9 -354.45 -81.85 -354.5 -81.8 -354.5 -81.75 -354.55 -81.7 -354.55 -81.7 -354.6 -81.65 -354.65 -81.55 -354.65 -81.45 -354.7 -81.4 -354.7 -81.35 -354.75 -81.35 -354.8 -81.25 -354.85 -81.2 -354.9 -81.15 -354.9 -81.1 -354.95 -81.05 -354.95 -81.0 -355.0 -80.95 -355.0 -80.9 -355.05 -80.85 -355.1 -80.75 -355.1 -80.75 -355.15 -80.75 -355.1 -80.7 -355.05 -80.7 -355.0 -80.7 -354.95 -80.65 -354.9 -80.6 -354.85 -80.6 -354.8 -80.55 -354.75 -80.45 -354.75 -80.45 -354.7 -80.35 -354.65 -80.25 -354.6 -80.2 -354.55 -80.15 -354.55 -80.0 -354.5 -79.95 -354.45 -79.65 -354.45 -79.6 -354.4 -79.5 -354.4 -79.45 -354.45 -79.2 -354.45 -79.15 -354.45 -79.0 -354.5 -78.95 -354.5 -78.9 -354.55 -78.85 -354.6 -78.8 -354.6 -78.8 -354.55 -78.8 -354.5 -78.75 -354.45 -78.75 -354.4 -78.7 -354.35 -78.7 -354.25 -78.7 -354.2 -78.65 -354.15 -78.6 -354.1 -78.6 -354.05 -78.55 -354.0 -78.55 -353.95 -78.5 -353.9 -78.45 -353.85 -78.45 -353.8 -78.45 -353.75 -78.4 -353.7 -78.35 -353.65 -78.3 -353.65 -78.3 -353.6 -78.3 -353.55 -78.25 -353.5 -78.2 -353.45 -78.15 -353.4 -78.15 -353.35 -78.1 -353.3 -78.1 -353.25 -78.1 -353.2 -78.05 -353.15 -78.0 -353.15 -77.95 -353.1 -77.9 -353.05 -77.9 -353.0 -77.85 -352.95 -77.85 -352.9 -77.8 -352.85 -77.8 -352.8 -77.75 -352.75 -77.65 -352.7 -77.6 -352.65 -77.55 -352.6 -77.45 -352.55 -77.45 -352.5 -77.35 -352.5 -77.3 -352.45 -77.3 -352.4 -77.2 -352.35 -77.1 -352.3 -77.05 -352.25 -77.0 -352.25 -77.0 -352.2 -76.95 -352.2 -76.9 -352.15 -76.85 -352.1 -76.8 -352.1 -76.75 -352.05 -76.65 -352.0 -76.6 -352.0 -76.55 -351.95 -76.45 -351.9 -76.4 -351.85 -76.35 -351.8 -76.35 -351.75 -76.3 -351.7 -76.25 -351.65 -76.25 -351.6 -76.35 -351.55 -76.4 -351.5 -76.4 -351.45 -76.45 -351.4 -76.5 -351.35 -76.55 -351.3 -76.6 -351.25 -76.65 -351.2 -76.7 -351.15 -76.75 -351.1 -76.8 -351.05 -76.85 -351.0 -76.85 -350.95 -76.9 -350.9 -76.95 -350.9 -77.05 -350.8 -77.1 -350.8 -77.1 -350.75 -77.15 -350.7 -77.2 -350.65 -77.25 -350.6 -77.3 -350.55 -77.3 -350.5 -77.35 -350.45 -77.4 -350.4 -77.45 -350.35 -77.5 -350.3 -77.55 -350.25 -77.55 -350.2 -77.6 -350.15 -77.65 -350.15 -77.65 -350.1 -77.65 -350.05 -77.7 -350.0 -77.7 -349.95 -77.75 -349.9 -77.8 -349.85 -77.8 -349.8 -77.8 -349.7 -77.8 -349.65 -77.75 -349.6 -77.7 -349.55 -77.6 -349.55 -77.5 -349.6 -77.4 -349.6 -77.35 -349.6 -77.3 -349.65 -77.25 -349.7 -77.2 -349.7 -77.1 -349.75 -76.85 -349.75 -76.75 -349.8 -76.15 -349.8 -76.05 -349.85 -75.85 -349.85 -75.75 -349.9 -75.6 -349.9 -75.55 -349.95 -74.2 -349.95 -74.15 -349.95 -74.1 -349.95 -74.1 -350.0 -74.1 -350.05 -74.05 -350.1 -74.05 -350.15 -74.1 -350.2 -74.15 -350.2 -74.15 -350.3 -74.2 -350.3 -74.25 -350.35 -74.3 -350.4 -74.3 -350.45 -74.35 -350.5 -74.4 -350.55 -74.45 -350.6 -74.5 -350.65 -74.55 -350.7 -74.6 -350.75 -74.65 -350.8 -74.7 -350.8 -74.75 -350.85 -74.8 -350.9 -74.85 -350.95 -74.9 -351.0 -74.95 -351.05 -75.0 -351.05 -75.05 -351.1 -75.1 -351.1 -75.1 -351.15 -75.15 -351.2 -75.2 -351.2 -75.25 -351.25 -75.3 -351.3 -75.4 -351.35 -75.45 -351.4 -75.45 -351.45 -75.5 -351.5 -75.6 -351.55 -75.7 -351.6 -75.75 -351.65 -75.75 -351.7 -75.7 -351.75 -75.65 -351.8 -75.65 -351.85 -75.6 -351.9 -75.55 -351.9 -75.55 -351.95 -75.5 -352.0 -75.45 -352.05 -75.4 -352.1 -75.35 -352.15 -75.3 -352.2 -75.25 -352.25 -75.25 -352.3 -75.15 -352.35 -75.1 -352.4 -75.1 -352.45 -75.05 -352.5 -75.05 -352.55 -75.0 -352.6 -74.95 -352.6 -74.9 -352.65 -74.85 -352.7 -74.85 -352.75 -74.8 -352.8 -74.75 -352.85 -74.7 -352.9 -74.65 -352.95 -74.6 -352.95 -74.55 -353.0 -74.5 -353.05 -74.45 -353.1 -74.4 -353.15 -74.35 -353.2 -74.35 -353.25 -74.3 -353.25 -74.25 -353.3 -74.2 -353.35 -74.1 -353.4 -74.1 -353.45 -74.05 -353.5 -74.0 -353.55 -73.95 -353.6 -73.9 -353.6 -73.9 -353.65 -73.85 -353.7 -73.85 -353.75 -73.8 -353.8 -73.75 -353.85 -73.7 -353.9 -73.65 -353.95 -73.6 -353.95 -73.6 -354.0 -73.55 -354.05 -73.55 -354.1 -73.55 -354.15 -73.45 -354.2 -73.4 -354.25 -73.4 -354.3 -73.35 -354.3 -73.35 -354.35 -73.3 -354.4 -73.3 -354.45 -73.3 -354.5 -73.25 -354.55 -73.25 -354.6 -73.2 -354.65 -73.2 -354.75 -73.2 -354.8 -73.15 -354.85 -73.1 -354.9 -73.1 -354.95 -73.1 -355.0 -73.05 -355.05 -73.05 -355.1 -73.0 -355.1 -73.0 -355.15 -72.95 -355.2 -72.95 -355.25 -72.95 -355.3 -72.95 -355.45 -72.95 -355.55 -72.95 -355.85 -72.95 -355.9 -72.95 -355.95 -73.0 -355.95 -73.0 -356.0 -73.0 -356.05 -73.05 -356.1 -73.05 -356.15 -73.05 -356.2 -73.05 -356.3 -73.1 -356.35 -73.1 -356.4 -73.15 -356.45 -73.15 -356.5 -73.2 -356.55 -73.2 -356.6 -73.25 -356.65 -73.3 -356.7 -73.3 -356.75 -73.35 -356.8 -73.35 -356.85" fill="#f5da01" fill-rule="evenodd" stroke="none"/>
    <path d="M-78.1 -386.65 L-78.1 -386.85 -74.45 -386.85 -74.45 -386.65 -78.1 -386.65" fill="#de7f00" fill-rule="evenodd" stroke="none"/>
    <path d="M-78.1 -386.85 L-105.05 -386.85 -84.65 -377.85 -84.65 -382.6 Q-84.45 -383.55 -83.8 -384.0 -83.2 -384.5 -82.6 -384.65 L-81.75 -384.75 -78.1 -384.75 -78.1 -386.65 -74.45 -386.65 -74.45 -384.75 -71.2 -384.75 -71.9 -383.2 -72.75 -382.35 -73.25 -382.0 -71.2 -382.0 -71.2 -377.85 -51.0 -386.85 -74.45 -386.85 -78.1 -386.85 M-74.85 -386.45 L-77.7 -386.45 -77.7 -377.9 -74.85 -377.9 -74.85 -381.1 -74.45 -381.1 -74.45 -377.9 -71.6 -377.9 -71.6 -381.8 -74.45 -381.8 -74.45 -382.0 -73.9 -382.0 -73.3 -382.3 -72.35 -383.15 Q-71.85 -383.7 -71.6 -384.55 L-74.45 -384.55 -74.45 -383.7 -74.85 -383.7 -74.85 -386.45 M-78.1 -377.9 L-78.1 -384.55 -81.75 -384.55 -82.5 -384.4 Q-83.0 -384.3 -83.5 -383.75 -84.1 -383.25 -84.25 -382.2 L-84.25 -377.9 -81.4 -377.9 -81.4 -382.85 -80.95 -382.85 -80.95 -377.9 -78.1 -377.9 M-78.15 -373.55 L-79.35 -374.4 -110.05 -387.9 -45.95 -387.9 -78.15 -373.55 M-79.15 -375.45 L-78.2 -374.7 -71.45 -377.7 -84.35 -377.7 -79.15 -375.45 M-77.25 -368.8 L-67.75 -353.95 -78.3 -337.5 -87.75 -353.95 -78.4 -370.35 -77.15 -368.9 -77.25 -368.8 M-77.25 -366.2 L-77.15 -366.25 -78.15 -367.4 -85.75 -354.05 -78.1 -340.7 -69.5 -354.05 -77.25 -366.2" fill="#ffcc00" fill-rule="evenodd" stroke="none"/>
    <path d="M-74.85 -386.45 L-74.85 -383.7 -74.45 -383.7 -74.45 -384.55 -71.6 -384.55 Q-71.85 -383.7 -72.35 -383.15 L-73.3 -382.3 -73.9 -382.0 -74.45 -382.0 -74.45 -381.8 -71.6 -381.8 -71.6 -377.9 -74.45 -377.9 -74.45 -381.1 -74.85 -381.1 -74.85 -377.9 -77.7 -377.9 -77.7 -386.45 -74.85 -386.45 M-78.1 -377.9 L-80.95 -377.9 -80.95 -382.85 -81.4 -382.85 -81.4 -377.9 -84.25 -377.9 -84.25 -382.2 Q-84.1 -383.25 -83.5 -383.75 -83.0 -384.3 -82.5 -384.4 L-81.75 -384.55 -78.1 -384.55 -78.1 -377.9 M-73.35 -356.85 L-73.35 -356.8 -73.3 -356.75 -73.3 -356.7 -73.25 -356.65 -73.2 -356.6 -73.2 -356.55 -73.15 -356.5 -73.15 -356.45 -73.1 -356.4 -73.1 -356.35 -73.05 -356.3 -73.05 -356.2 -73.05 -356.15 -73.05 -356.1 -73.0 -356.05 -73.0 -356.0 -73.0 -355.95 -72.95 -355.95 -72.95 -355.9 -72.95 -355.85 -72.95 -355.55 -72.95 -355.45 -72.95 -355.3 -72.95 -355.25 -72.95 -355.2 -73.0 -355.15 -73.0 -355.1 -73.05 -355.1 -73.05 -355.05 -73.1 -355.0 -73.1 -354.95 -73.1 -354.9 -73.15 -354.85 -73.2 -354.8 -73.2 -354.75 -73.2 -354.65 -73.25 -354.6 -73.25 -354.55 -73.3 -354.5 -73.3 -354.45 -73.3 -354.4 -73.35 -354.35 -73.35 -354.3 -73.4 -354.3 -73.4 -354.25 -73.45 -354.2 -73.55 -354.15 -73.55 -354.1 -73.55 -354.05 -73.6 -354.0 -73.6 -353.95 -73.65 -353.95 -73.7 -353.9 -73.75 -353.85 -73.8 -353.8 -73.85 -353.75 -73.85 -353.7 -73.9 -353.65 -73.9 -353.6 -73.95 -353.6 -74.0 -353.55 -74.05 -353.5 -74.1 -353.45 -74.1 -353.4 -74.2 -353.35 -74.25 -353.3 -74.3 -353.25 -74.35 -353.25 -74.35 -353.2 -74.4 -353.15 -74.45 -353.1 -74.5 -353.05 -74.55 -353.0 -74.6 -352.95 -74.65 -352.95 -74.7 -352.9 -74.75 -352.85 -74.8 -352.8 -74.85 -352.75 -74.85 -352.7 -74.9 -352.65 -74.95 -352.6 -75.0 -352.6 -75.05 -352.55 -75.05 -352.5 -75.1 -352.45 -75.1 -352.4 -75.15 -352.35 -75.25 -352.3 -75.25 -352.25 -75.3 -352.2 -75.35 -352.15 -75.4 -352.1 -75.45 -352.05 -75.5 -352.0 -75.55 -351.95 -75.55 -351.9 -75.6 -351.9 -75.65 -351.85 -75.65 -351.8 -75.7 -351.75 -75.75 -351.7 -75.75 -351.65 -75.7 -351.6 -75.6 -351.55 -75.5 -351.5 -75.45 -351.45 -75.45 -351.4 -75.4 -351.35 -75.3 -351.3 -75.25 -351.25 -75.2 -351.2 -75.15 -351.2 -75.1 -351.15 -75.1 -351.1 -75.05 -351.1 -75.0 -351.05 -74.95 -351.05 -74.9 -351.0 -74.85 -350.95 -74.8 -350.9 -74.75 -350.85 -74.7 -350.8 -74.65 -350.8 -74.6 -350.75 -74.55 -350.7 -74.5 -350.65 -74.45 -350.6 -74.4 -350.55 -74.35 -350.5 -74.3 -350.45 -74.3 -350.4 -74.25 -350.35 -74.2 -350.3 -74.15 -350.3 -74.15 -350.2 -74.1 -350.2 -74.05 -350.15 -74.05 -350.1 -74.1 -350.05 -74.1 -350.0 -74.1 -349.95 -74.15 -349.95 -74.2 -349.95 -75.55 -349.95 -75.6 -349.9 -75.75 -349.9 -75.85 -349.85 -76.05 -349.85 -76.15 -349.8 -76.75 -349.8 -76.85 -349.75 -77.1 -349.75 -77.2 -349.7 -77.25 -349.7 -77.3 -349.65 -77.35 -349.6 -77.4 -349.6 -77.5 -349.6 -77.6 -349.55 -77.7 -349.55 -77.75 -349.6 -77.8 -349.65 -77.8 -349.7 -77.8 -349.8 -77.8 -349.85 -77.75 -349.9 -77.7 -349.95 -77.7 -350.0 -77.65 -350.05 -77.65 -350.1 -77.65 -350.15 -77.6 -350.15 -77.55 -350.2 -77.55 -350.25 -77.5 -350.3 -77.45 -350.35 -77.4 -350.4 -77.35 -350.45 -77.3 -350.5 -77.3 -350.55 -77.25 -350.6 -77.2 -350.65 -77.15 -350.7 -77.1 -350.75 -77.1 -350.8 -77.05 -350.8 -76.95 -350.9 -76.9 -350.9 -76.85 -350.95 -76.85 -351.0 -76.8 -351.05 -76.75 -351.1 -76.7 -351.15 -76.65 -351.2 -76.6 -351.25 -76.55 -351.3 -76.5 -351.35 -76.45 -351.4 -76.4 -351.45 -76.4 -351.5 -76.35 -351.55 -76.25 -351.6 -76.25 -351.65 -76.3 -351.7 -76.35 -351.75 -76.35 -351.8 -76.4 -351.85 -76.45 -351.9 -76.55 -351.95 -76.6 -352.0 -76.65 -352.0 -76.75 -352.05 -76.8 -352.1 -76.85 -352.1 -76.9 -352.15 -76.95 -352.2 -77.0 -352.2 -77.0 -352.25 -77.05 -352.25 -77.1 -352.3 -77.2 -352.35 -77.3 -352.4 -77.3 -352.45 -77.35 -352.5 -77.45 -352.5 -77.45 -352.55 -77.55 -352.6 -77.6 -352.65 -77.65 -352.7 -77.75 -352.75 -77.8 -352.8 -77.8 -352.85 -77.85 -352.9 -77.85 -352.95 -77.9 -353.0 -77.9 -353.05 -77.95 -353.1 -78.0 -353.15 -78.05 -353.15 -78.1 -353.2 -78.1 -353.25 -78.1 -353.3 -78.15 -353.35 -78.15 -353.4 -78.2 -353.45 -78.25 -353.5 -78.3 -353.55 -78.3 -353.6 -78.3 -353.65 -78.35 -353.65 -78.4 -353.7 -78.45 -353.75 -78.45 -353.8 -78.45 -353.85 -78.5 -353.9 -78.55 -353.95 -78.55 -354.0 -78.6 -354.05 -78.6 -354.1 -78.65 -354.15 -78.7 -354.2 -78.7 -354.25 -78.7 -354.35 -78.75 -354.4 -78.75 -354.45 -78.8 -354.5 -78.8 -354.55 -78.8 -354.6 -78.85 -354.6 -78.9 -354.55 -78.95 -354.5 -79.0 -354.5 -79.15 -354.45 -79.2 -354.45 -79.45 -354.45 -79.5 -354.4 -79.6 -354.4 -79.65 -354.45 -79.95 -354.45 -80.0 -354.5 -80.15 -354.55 -80.2 -354.55 -80.25 -354.6 -80.35 -354.65 -80.45 -354.7 -80.45 -354.75 -80.55 -354.75 -80.6 -354.8 -80.6 -354.85 -80.65 -354.9 -80.7 -354.95 -80.7 -355.0 -80.7 -355.05 -80.75 -355.1 -80.75 -355.15 -80.75 -355.1 -80.85 -355.1 -80.9 -355.05 -80.95 -355.0 -81.0 -355.0 -81.05 -354.95 -81.1 -354.95 -81.15 -354.9 -81.2 -354.9 -81.25 -354.85 -81.35 -354.8 -81.35 -354.75 -81.4 -354.7 -81.45 -354.7 -81.55 -354.65 -81.65 -354.65 -81.7 -354.6 -81.7 -354.55 -81.75 -354.55 -81.8 -354.5 -81.85 -354.5 -81.9 -354.45 -82.0 -354.45 -82.05 -354.4 -82.1 -354.35 -82.15 -354.35 -82.2 -354.3 -82.25 -354.25 -82.35 -354.2 -82.4 -354.15 -82.45 -354.1 -82.55 -354.05 -82.6 -354.0 -82.65 -353.95 -82.7 -353.9 -82.75 -353.9 -82.8 -353.85 -82.85 -353.8 -82.95 -353.75 -82.95 -353.7 -83.0 -353.65 -83.1 -353.65 -83.1 -353.6 -83.15 -353.55 -83.2 -353.5 -83.3 -353.45 -83.35 -353.4 -83.35 -353.35 -83.4 -353.3 -83.45 -353.25 -83.5 -353.25 -83.5 -353.2 -83.55 -353.15 -83.6 -353.1 -83.7 -353.05 -83.7 -353.0 -83.75 -353.0 -83.8 -352.95 -83.85 -352.85 -83.9 -352.8 -83.95 -352.75 -84.0 -352.7 -84.05 -352.7 -84.05 -352.65 -84.1 -352.65 -84.15 -352.6 -84.2 -352.6 -84.3 -352.65 -84.3 -352.7 -84.3 -352.9 -84.25 -352.95 -84.25 -353.0 -84.2 -353.05 -84.2 -353.1 -84.15 -353.15 -84.1 -353.2 -84.05 -353.25 -84.0 -353.3 -84.0 -353.35 -83.95 -353.4 -83.9 -353.45 -83.85 -353.5 -83.85 -353.55 -83.8 -353.6 -83.75 -353.65 -83.7 -353.65 -83.7 -353.7 -83.65 -353.75 -83.65 -353.8 -83.6 -353.85 -83.35 -354.1 -83.2 -354.3 -83.1 -354.4 -82.9 -354.6 -82.8 -354.7 -82.65 -354.85 -82.55 -355.0 -82.5 -355.05 -82.4 -355.1 -82.35 -355.15 -82.3 -355.2 -82.25 -355.25 -82.2 -355.3 -82.1 -355.35 -82.0 -355.35 -81.95 -355.4 -81.9 -355.45 -81.85 -355.5 -81.8 -355.55 -81.7 -355.6 -81.6 -355.65 -81.55 -355.65 -81.45 -355.7 -81.4 -355.75 -81.35 -355.75 -81.25 -355.8 -81.2 -355.85 -81.1 -355.85 -81.05 -355.95 -81.0 -355.95 -80.95 -356.0 -80.95 -356.15 -80.9 -356.15 -80.9 -356.25 -80.85 -356.3 -80.8 -356.35 -80.8 -356.4 -80.75 -356.45 -80.75 -356.5 -80.7 -356.55 -80.65 -356.6 -80.6 -356.65 -80.6 -356.7 -80.55 -356.75 -80.5 -356.8 -80.45 -356.85 -80.4 -356.9 -80.35 -356.9 -80.3 -356.95 -80.25 -357.0 -80.2 -357.05 -80.15 -357.15 -80.1 -357.15 -80.05 -357.15 -79.9 -357.2 -79.85 -357.2 -79.75 -357.25 -79.65 -357.3 -78.65 -357.25 -78.6 -357.2 -78.55 -357.2 -78.5 -357.25 -78.45 -357.3 -78.4 -357.35 -78.35 -357.4 -78.35 -357.45 -78.25 -357.45 -78.2 -357.5 -78.15 -357.55 -78.1 -357.6 -78.05 -357.65 -78.0 -357.7 -77.9 -357.75 -77.8 -357.8 -77.75 -357.8 -77.7 -357.85 -77.7 -357.9 -77.55 -357.95 -77.5 -357.95 -77.45 -358.0 -77.3 -358.0 -77.2 -358.05 -77.05 -358.05 -76.95 -358.1 -76.65 -358.1 -76.6 -358.15 -75.65 -358.1 -75.55 -358.1 -75.5 -358.05 -75.4 -358.0 -75.25 -358.0 -75.15 -357.95 -75.05 -357.9 -74.95 -357.85 -74.85 -357.8 -74.75 -357.75 -74.55 -357.7 -74.45 -357.7 -74.35 -357.65 -74.25 -357.6 -74.25 -357.55 -74.15 -357.5 -74.1 -357.5 -74.0 -357.45 -73.95 -357.45 -73.9 -357.4 -73.85 -357.35 -73.85 -357.3 -73.8 -357.25 -73.75 -357.2 -73.7 -357.15 -73.6 -357.1 -73.55 -357.05 -73.5 -357.0 -73.45 -356.95 -73.4 -356.95 -73.4 -356.9 -73.35 -356.85 M-82.8 -354.3 L-82.85 -354.25 -82.95 -354.15 -82.9 -354.2 -82.85 -354.2 -82.8 -354.25 -82.75 -354.3 -82.8 -354.3 M-83.0 -354.1 L-83.05 -354.05 -83.0 -354.05 -83.0 -354.1" fill="#fde923" fill-rule="evenodd" stroke="none"/>
    <path d="M-38.15 -389.4 L-77.15 -372.15 -65.3 -353.6 -76.5 -336.1 Q-64.9 -335.8 -56.55 -327.5 -47.9 -318.85 -47.9 -306.6 -47.9 -294.4 -56.55 -285.75 -65.2 -277.1 -77.45 -277.1 -89.65 -277.1 -98.3 -285.75 -106.95 -294.4 -106.95 -306.6 -106.95 -318.85 -98.3 -327.5 -90.6 -335.2 -80.0 -336.0 L-90.2 -353.6 -79.25 -372.55 -117.95 -389.4 -98.05 -389.4 -78.05 -389.4 -58.05 -389.4 -38.15 -389.4 M-78.15 -373.55 L-45.95 -387.9 -110.05 -387.9 -79.35 -374.4 -78.15 -373.55 M-77.25 -368.8 L-77.15 -368.9 -78.4 -370.35 -87.75 -353.95 -78.3 -337.5 -67.75 -353.95 -77.25 -368.8 M-51.6 -306.3 Q-51.6 -317.0 -59.15 -324.55 -66.45 -331.85 -76.6 -332.1 L-79.7 -332.1 -79.7 -332.05 Q-88.95 -331.35 -95.7 -324.55 -103.25 -317.0 -103.25 -306.3 -103.25 -295.6 -95.7 -288.05 -88.15 -280.5 -77.45 -280.45 -66.75 -280.5 -59.15 -288.05 -51.6 -295.6 -51.6 -306.3" fill="#e59702" fill-rule="evenodd" stroke="none"/>
    <path d="M-83.0 -354.1 L-83.0 -354.05 -83.05 -354.05 -83.0 -354.1 M-82.8 -354.3 L-82.75 -354.3 -82.8 -354.25 -82.85 -354.2 -82.9 -354.2 -82.95 -354.15 -82.85 -354.25 -82.8 -354.3" fill="#cccccc" fill-rule="evenodd" stroke="none"/>
    <path d="M-51.6 -306.3 Q-51.6 -295.6 -59.15 -288.05 -66.75 -280.5 -77.45 -280.45 -88.15 -280.5 -95.7 -288.05 -103.25 -295.6 -103.25 -306.3 -103.25 -317.0 -95.7 -324.55 -88.95 -331.35 -79.7 -332.05 L-79.7 -332.1 -76.6 -332.1 Q-66.45 -331.85 -59.15 -324.55 -51.6 -317.0 -51.6 -306.3" fill="#999999" fill-rule="evenodd" stroke="none"/>
  </g>
</svg>
