<?xml version="1.0" encoding="UTF-8" standalone="no"?>
<svg xmlns:xlink="http://www.w3.org/1999/xlink" height="82.75px" width="77.8px" xmlns="http://www.w3.org/2000/svg">
  <g transform="matrix(1.0, 0.0, 0.0, 1.0, 39.15, 56.25)">
    <path d="M28.8 -53.75 Q27.85 -54.0 27.3 -54.35 27.2 -53.9 27.2 -55.15 27.2 -55.85 28.8 -56.25 29.75 -55.95 30.4 -55.25 30.4 -54.25 28.8 -53.75 M1.85 -47.35 Q1.7 -46.9 1.7 -48.15 1.7 -48.85 3.3 -49.25 4.25 -48.95 4.9 -48.25 4.9 -47.25 3.3 -46.75 L1.85 -47.35 M-0.55 -43.0 Q-1.35 -43.25 -1.35 -43.85 L0.25 -43.6 -0.55 -43.0 M-12.5 -32.15 L-11.05 -31.25 -11.8 -31.2 -12.5 -31.15 -13.25 -31.2 -12.5 -32.15 M-8.05 -29.5 Q-2.7 -26.55 0.75 -25.85 L-1.65 -24.35 -3.1 -25.25 -3.35 -25.55 -3.9 -26.65 -3.95 -26.8 -4.35 -27.45 Q-5.25 -27.3 -6.25 -26.5 L-8.8 -27.7 -8.7 -27.95 -8.05 -29.5 M30.7 -44.5 Q29.85 -44.75 29.85 -45.35 L31.45 -45.1 30.7 -44.5 M18.25 -46.25 Q18.25 -45.25 16.7 -44.75 15.7 -45.0 15.2 -45.35 15.1 -44.9 15.1 -46.15 15.1 -46.85 16.7 -47.25 L18.25 -46.25" fill="#cc9900" fill-rule="evenodd" stroke="none"/>
    <path d="M-8.35 -40.35 L-6.75 -40.1 -7.55 -39.5 Q-8.35 -39.75 -8.35 -40.35 M-11.75 -28.85 L-11.75 -29.0 -11.55 -29.0 -11.75 -28.85 M-8.7 -27.95 L-8.8 -27.7 -6.25 -26.5 Q-5.25 -27.3 -4.35 -27.45 L-3.95 -26.8 -5.0 -25.45 -1.8 -24.3 -2.45 -23.7 -0.55 -23.5 -0.15 -23.65 0.5 -23.35 -0.1 -22.75 -0.55 -21.7 2.3 -21.7 3.05 -21.75 3.25 -21.6 4.65 -21.2 4.55 -20.7 9.65 -20.5 10.9 -20.9 10.95 -20.95 12.85 -20.75 Q13.0 -19.4 13.5 -19.0 14.45 -19.75 14.75 -19.75 L15.1 -18.7 16.05 -17.15 Q17.3 -15.45 17.3 -13.5 L17.3 -12.0 16.8 -11.8 Q15.8 -11.4 15.7 -11.0 L13.95 -14.75 Q12.3 -17.5 6.75 -17.5 3.5 -17.5 -1.85 -19.95 -7.3 -22.45 -8.15 -22.45 L-13.15 -22.2 -8.7 -27.95 M5.85 -35.75 Q4.9 -36.0 4.4 -36.35 4.25 -35.9 4.25 -37.15 4.25 -37.85 5.85 -38.25 L7.45 -37.25 Q7.45 -36.25 5.85 -35.75 M-23.0 -29.35 L-21.45 -29.1 -22.2 -28.5 Q-23.0 -28.75 -23.0 -29.35 M-28.45 -10.35 L-25.05 -12.85 -21.3 -14.65 -21.25 -14.75 Q-20.05 -16.1 -17.8 -15.95 L-18.45 -15.5 -17.1 -15.75 -17.1 -15.7 -15.8 -15.5 -15.2 -15.75 -16.35 -12.8 Q-16.1 -11.0 -9.45 -11.0 -7.85 -11.0 -6.9 -11.95 -6.85 -11.55 -7.65 -11.1 L-6.25 -11.0 -5.3 -11.15 -3.65 -9.75 Q-0.1 -6.8 2.0 -5.95 1.6 -5.4 1.65 -4.45 L1.5 -3.25 Q0.45 -2.4 -9.2 -3.45 L-11.7 0.0 -15.55 -1.45 Q-17.8 -2.3 -16.8 -4.0 L-16.45 -4.45 Q-20.45 -2.4 -24.5 -0.4 -28.65 1.5 -30.15 3.0 L-30.8 2.8 Q-26.2 -4.55 -24.15 -6.95 L-28.35 -8.75 -28.45 -10.35 M-12.95 -16.85 Q-10.6 -18.15 -8.55 -18.45 L-9.85 -16.55 -12.95 -16.75 -12.95 -16.85 M-8.25 -16.5 L-7.3 -17.0 Q-5.5 -15.85 -6.0 -15.45 L-6.0 -15.2 Q-4.4 -15.25 -3.45 -16.0 L-1.8 -15.95 -3.65 -14.4 -7.2 -14.2 -7.3 -16.45 -8.25 -16.5 M-22.25 -10.75 L-21.35 -10.05 -20.15 -11.25 -20.3 -11.25 -22.25 -10.75 M-30.15 -0.85 L-29.2 -0.95 -31.35 1.35 -30.15 -0.85 M-33.8 4.1 L-31.3 9.9 Q-29.0 14.3 -26.65 14.3 L-19.4 13.55 -16.2 13.0 -13.0 13.05 Q-13.0 13.75 -14.25 15.25 L-10.8 17.45 Q-7.65 19.3 -5.0 19.3 2.35 19.3 3.4 18.2 5.85 15.85 8.7 14.8 6.85 12.35 7.75 11.25 L7.75 11.05 3.6 10.3 4.7 8.5 Q5.65 7.0 6.1 7.0 11.65 7.0 12.65 7.95 13.7 9.0 16.05 9.05 L14.75 10.55 14.7 10.8 17.55 11.05 17.95 11.8 17.9 12.0 15.7 15.25 Q22.75 12.75 22.75 9.8 22.75 8.65 21.4 6.3 L19.55 2.75 19.3 1.9 20.2 3.6 Q22.2 7.2 24.7 9.35 L24.75 9.95 23.95 11.8 24.75 12.55 Q25.6 13.05 25.6 13.5 25.6 14.05 24.85 15.05 L22.1 15.0 Q19.8 15.0 19.05 16.15 L17.3 18.65 15.35 19.9 15.35 19.85 15.7 18.0 15.65 17.75 Q14.0 19.4 10.1 20.05 L5.15 20.8 1.05 22.2 -4.65 22.3 Q-12.55 19.25 -16.15 18.3 L-15.5 16.65 -15.5 16.5 -15.75 16.55 -17.2 16.7 -16.85 16.25 -16.85 16.1 -19.2 16.7 -22.5 16.55 -22.65 16.6 Q-22.9 16.0 -26.35 16.0 -27.15 17.25 -28.25 17.3 -29.85 15.1 -32.05 14.3 -31.7 13.75 -31.8 12.85 L-30.8 11.3 Q-31.3 10.35 -33.15 9.35 L-33.55 9.15 -34.0 7.55 -35.7 7.4 -36.1 6.9 -33.8 4.1 M18.45 0.1 L17.9 -0.75 16.25 -2.3 14.45 -3.65 Q14.45 -4.2 15.85 -6.35 17.25 -8.55 17.25 -9.45 L17.4 -10.3 Q17.7 -11.5 19.1 -12.2 L19.25 -8.2 19.85 -8.2 20.3 -8.7 20.1 -8.15 19.3 -7.45 19.05 -6.85 17.9 -6.65 17.65 -6.75 17.65 -6.15 17.9 -4.5 18.55 -3.15 Q17.95 -2.35 17.95 -1.95 L18.45 0.1 M-23.45 -3.25 L-20.9 -5.95 -22.6 -5.75 Q-22.6 -4.65 -23.45 -3.5 L-23.45 -3.25 M15.2 -36.85 L16.8 -36.6 16.05 -36.0 Q15.2 -36.25 15.2 -36.85 M20.3 -35.85 L21.9 -35.6 21.15 -35.0 Q20.3 -35.25 20.3 -35.85 M20.55 -4.3 L20.45 -4.7 20.7 -5.05 20.55 -4.3 M35.4 -2.75 L35.1 -2.5 35.15 -2.0 Q34.35 -2.25 34.35 -2.85 L35.4 -2.75" fill="#fcfcb8" fill-rule="evenodd" stroke="none"/>
    <path d="M-15.1 -29.25 Q-16.95 -31.6 -16.95 -32.15 -16.95 -33.15 -15.7 -34.35 -14.4 -35.5 -13.65 -35.5 L-7.6 -34.0 Q-5.8 -34.0 -2.5 -30.4 -1.6 -29.75 1.3 -29.0 L2.4 -28.55 Q3.35 -29.1 5.2 -29.3 L8.4 -29.4 14.65 -27.7 Q20.95 -25.8 22.1 -24.4 22.1 -23.65 20.2 -20.65 20.2 -19.25 21.9 -16.5 L21.7 -16.1 Q23.3 -15.15 25.3 -12.5 25.3 -11.25 24.0 -9.15 L24.15 -8.4 25.05 -6.8 26.25 -5.45 Q28.45 -3.25 28.45 -0.9 28.45 0.35 27.2 4.0 L28.9 13.75 Q27.25 19.15 23.2 19.9 L21.4 20.05 21.15 20.0 21.65 19.3 Q23.3 16.75 25.1 15.4 26.15 14.5 27.3 14.1 L27.15 13.45 Q26.7 11.55 26.7 10.15 L26.6 10.0 Q24.65 5.05 24.65 3.25 26.35 0.5 26.35 -0.9 26.35 -2.1 21.9 -8.35 L21.1 -9.55 20.65 -10.1 Q20.65 -10.65 21.7 -11.4 L22.75 -12.35 Q18.9 -15.6 18.9 -16.5 L19.8 -16.7 Q18.95 -17.8 18.55 -19.2 17.85 -21.45 18.9 -22.75 L18.9 -23.15 17.85 -23.35 Q12.45 -24.35 8.1 -25.65 L6.6 -26.1 4.0 -26.95 4.25 -26.4 Q3.7 -25.65 2.65 -25.65 L0.75 -25.85 Q-2.7 -26.55 -8.05 -29.5 L-8.8 -29.9 -8.95 -30.0 -11.05 -31.25 -12.5 -32.15 -13.35 -32.65 -13.8 -32.85 -13.85 -32.85 Q-14.35 -32.95 -14.4 -32.35 L-14.4 -32.15 Q-14.4 -31.6 -13.1 -30.45 L-12.9 -30.3 -11.75 -29.0 -11.75 -28.85 Q-11.8 -28.0 -13.8 -27.5 L-14.3 -27.4 -15.35 -27.6 -15.9 -28.0 -14.85 -28.65 -14.75 -28.75 -14.85 -28.95 -15.1 -29.25 M-28.55 20.65 Q-29.1 21.25 -29.9 21.25 -34.0 21.25 -34.75 18.65 L-34.7 15.85 -37.3 10.9 -38.75 8.15 -38.9 7.85 -39.15 7.4 Q-39.15 5.85 -38.75 5.4 L-38.5 5.15 -38.45 5.15 -36.3 3.75 -34.8 4.35 -37.25 7.55 Q-37.25 8.75 -35.3 11.9 L-31.95 17.05 Q-29.8 19.85 -28.45 20.35 L-28.55 20.65 M-32.7 -1.2 L-32.75 -1.6 Q-32.75 -5.35 -32.2 -8.8 L-32.2 -9.05 -32.15 -9.1 -31.6 -11.55 Q-30.85 -14.55 -29.65 -16.25 L-28.0 -17.9 -27.55 -17.75 Q-26.6 -17.45 -26.4 -16.9 -28.55 -14.35 -28.7 -13.65 L-28.7 -13.25 -28.55 -12.3 -28.45 -11.85 -28.45 -10.35 -28.35 -8.75 -28.3 -7.3 -29.5 -4.25 -31.2 -1.15 -32.25 -1.0 -32.4 -0.85 Q-32.7 -0.6 -32.7 -1.2" fill="#360300" fill-rule="evenodd" stroke="none"/>
    <path d="M23.2 19.9 L23.05 20.2 Q22.35 21.7 20.45 22.25 L19.95 22.4 21.4 20.05 23.2 19.9 M-6.0 26.2 L-6.25 26.5 -6.6 26.3 -6.85 25.8 -8.15 26.0 Q-9.85 26.0 -10.6 25.5 -8.7 25.5 -6.45 24.75 L-4.35 23.85 -4.4 24.1 -5.45 25.05 -6.0 26.2 M-15.95 -28.55 L-15.95 -28.6 -15.1 -29.25 -14.85 -28.95 -14.85 -28.65 -15.9 -28.0 -15.35 -27.6 -16.0 -26.95 -16.45 -27.4 Q-16.45 -28.15 -15.95 -28.55 M-13.8 -27.5 Q-11.8 -28.0 -11.75 -28.85 L-11.55 -29.0 Q-10.2 -29.75 -8.8 -29.9 L-8.05 -29.5 -8.7 -27.95 -13.15 -22.2 -13.9 -21.5 Q-15.0 -18.6 -19.75 -17.75 L-22.05 -17.5 -18.45 -19.75 -14.5 -23.2 -13.65 -24.3 -13.6 -24.45 -13.25 -24.75 -13.4 -24.85 -12.95 -26.7 Q-12.95 -27.3 -13.6 -27.45 L-13.8 -27.5 M-14.4 -32.35 Q-14.35 -32.95 -13.85 -32.85 L-13.8 -32.85 -14.4 -32.35 M6.6 -26.1 L8.1 -25.65 Q12.45 -24.35 17.85 -23.35 L17.95 -22.75 19.1 -12.2 Q17.7 -11.5 17.4 -10.3 L17.3 -12.0 17.3 -13.5 Q17.3 -15.45 16.05 -17.15 L15.1 -18.7 15.4 -18.5 Q17.0 -20.6 17.0 -21.4 17.3 -22.35 15.9 -22.85 L16.0 -22.95 15.3 -23.05 11.75 -23.45 10.0 -23.5 9.75 -23.45 7.0 -23.15 6.8 -23.25 Q6.8 -24.45 6.15 -24.5 L5.2 -22.9 3.0 -22.45 3.25 -22.2 3.05 -21.75 2.3 -21.7 -0.55 -21.7 -0.1 -22.75 0.5 -23.35 1.6 -24.35 6.6 -26.1 M21.1 -9.55 L21.9 -8.35 Q21.0 -7.2 20.7 -5.05 L20.45 -4.7 20.55 -4.3 20.45 -3.0 Q20.2 -3.25 20.2 -4.45 L19.55 -4.5 18.55 -3.15 17.9 -4.5 17.65 -6.15 17.65 -6.75 17.9 -6.65 19.05 -6.85 19.3 -7.45 20.1 -8.15 20.3 -8.7 21.1 -9.55 M26.6 10.0 L26.7 10.15 Q26.7 11.55 27.15 13.45 L26.25 14.0 Q24.95 12.75 24.75 9.95 L24.7 9.35 26.25 10.5 26.6 10.0 M25.1 15.4 Q23.3 16.75 21.65 19.3 L22.05 17.05 Q20.5 16.6 19.65 18.8 18.65 21.45 17.9 21.75 L13.55 20.55 15.35 19.9 17.3 18.65 19.05 16.15 Q19.8 15.0 22.1 15.0 L24.85 15.05 25.2 15.05 25.1 15.4 M-28.7 -13.25 L-28.1 -13.65 -28.55 -12.3 -28.7 -13.25 M-29.5 -4.25 L-29.5 -3.95 Q-29.5 -2.4 -30.15 -0.85 L-31.35 1.35 -33.4 3.6 -31.45 0.55 -32.4 -0.25 -32.4 -0.85 -32.25 -1.0 -31.2 -1.15 -29.5 -4.25 M1.05 22.2 Q8.0 21.9 12.2 20.95 L7.8 22.7 4.85 22.8 -3.45 22.85 -3.85 23.0 -8.5 22.5 -16.7 21.75 Q-21.95 19.45 -31.95 17.05 L-35.3 11.9 -32.4 13.5 -31.8 12.85 Q-31.7 13.75 -32.05 14.3 -29.85 15.1 -28.25 17.3 -27.15 17.25 -26.35 16.0 -22.9 16.0 -22.65 16.6 L-22.7 16.85 -17.2 16.7 -15.75 16.55 -15.5 16.5 -15.5 16.65 -16.15 18.3 Q-12.55 19.25 -4.65 22.3 L1.05 22.2 M12.6 22.6 L11.65 22.6 12.2 22.55 12.6 22.6 M-33.55 9.15 Q-35.3 8.15 -36.2 7.0 L-36.1 6.9 -35.7 7.4 -34.0 7.55 -33.55 9.15" fill="#b0701c" fill-rule="evenodd" stroke="none"/>
    <path d="M20.45 22.25 L19.95 22.6 19.3 22.9 19.95 22.4 20.45 22.25 M14.25 23.25 L9.35 23.4 Q10.6 22.75 11.65 22.6 L12.6 22.6 14.2 23.2 14.25 23.25 M-1.8 25.1 Q-2.5 25.85 -3.65 25.85 L-5.55 26.1 -6.0 26.2 -5.45 25.05 -4.4 24.1 -5.0 25.3 -4.35 25.5 -1.8 25.1 M-6.6 26.3 L-9.9 26.2 -10.8 25.7 -11.05 25.5 -10.6 25.5 Q-9.85 26.0 -8.15 26.0 L-6.85 25.8 -6.6 26.3 M-38.65 9.5 L-38.75 9.05 -38.9 7.85 -38.75 8.15 -38.65 9.5 M-38.5 5.15 L-38.45 5.0 -38.45 5.15 -38.5 5.15 M-37.05 2.9 L-32.7 -1.2 Q-32.7 -0.6 -32.4 -0.85 L-32.4 -0.25 -32.7 -0.5 -37.05 2.9 M-32.15 -9.1 L-32.15 -9.95 -31.8 -11.45 -31.75 -11.6 -31.6 -11.55 -32.15 -9.1 M-15.8 -24.55 Q-16.8 -25.2 -16.95 -26.15 L-15.2 -24.95 -15.8 -24.55 M-16.95 -26.25 Q-17.1 -27.0 -16.85 -27.9 -16.7 -28.45 -15.95 -28.55 -16.45 -28.15 -16.45 -27.4 L-16.0 -26.95 -16.95 -26.25 M-11.75 -29.0 L-12.9 -30.3 -12.5 -31.15 -11.8 -31.2 Q-11.4 -29.95 -10.0 -29.95 L-8.95 -30.0 -8.8 -29.9 Q-10.2 -29.75 -11.55 -29.0 L-11.75 -29.0 M27.15 13.45 L27.3 14.1 Q26.15 14.5 25.1 15.4 L25.2 15.05 24.85 15.05 Q25.6 14.05 25.6 13.5 25.6 13.05 24.75 12.55 L23.95 11.8 24.75 9.95 Q24.95 12.75 26.25 14.0 L27.15 13.45 M-3.95 -26.8 L-3.9 -26.65 Q-4.3 -26.15 -3.85 -25.7 L-3.1 -25.25 -1.65 -24.35 -1.8 -24.3 -5.0 -25.45 -3.95 -26.8 M-28.1 -13.65 L-22.05 -17.5 -19.75 -17.75 Q-15.0 -18.6 -13.9 -21.5 L-13.15 -22.2 -8.15 -22.45 Q-7.3 -22.45 -1.85 -19.95 3.5 -17.5 6.75 -17.5 12.3 -17.5 13.95 -14.75 L15.7 -11.0 Q15.8 -11.4 16.8 -11.8 L17.3 -12.0 17.4 -10.3 17.25 -9.45 Q17.25 -8.55 15.85 -6.35 14.45 -4.2 14.45 -3.65 L16.25 -2.3 17.9 -0.75 18.45 0.1 19.3 1.9 19.55 2.75 21.4 6.3 Q22.75 8.65 22.75 9.8 22.75 12.75 15.7 15.25 L17.9 12.0 17.95 11.8 17.55 11.05 14.7 10.8 14.75 10.55 16.05 9.05 Q13.7 9.0 12.65 7.95 11.65 7.0 6.1 7.0 5.65 7.0 4.7 8.5 L3.6 10.3 7.75 11.05 7.75 11.25 Q6.85 12.35 8.7 14.8 5.85 15.85 3.4 18.2 2.35 19.3 -5.0 19.3 -7.65 19.3 -10.8 17.45 L-14.25 15.25 Q-13.0 13.75 -13.0 13.05 L-16.2 13.0 -19.4 13.55 -26.65 14.3 Q-29.0 14.3 -31.3 9.9 L-33.8 4.1 -33.4 3.6 -31.35 1.35 -29.2 -0.95 -30.15 -0.85 Q-29.5 -2.4 -29.5 -3.95 L-29.5 -4.25 -28.3 -7.3 -28.35 -8.75 -24.15 -6.95 Q-26.2 -4.55 -30.8 2.8 L-30.15 3.0 Q-28.65 1.5 -24.5 -0.4 -20.45 -2.4 -16.45 -4.45 L-16.8 -4.0 Q-17.8 -2.3 -15.55 -1.45 L-11.7 0.0 -9.2 -3.45 Q0.45 -2.4 1.5 -3.25 L1.65 -4.45 Q1.6 -5.4 2.0 -5.95 -0.1 -6.8 -3.65 -9.75 L-5.3 -11.15 -3.8 -12.2 Q-2.75 -13.2 -2.75 -13.7 L-3.15 -14.45 -3.65 -14.4 -1.8 -15.95 -3.45 -16.0 Q-4.4 -15.25 -6.0 -15.2 L-6.0 -15.45 Q-5.5 -15.85 -7.3 -17.0 L-8.25 -16.5 -9.85 -16.55 -8.55 -18.45 Q-10.6 -18.15 -12.95 -16.85 L-13.2 -18.1 Q-13.35 -18.75 -14.25 -19.5 -16.45 -17.95 -17.1 -15.75 L-18.45 -15.5 -17.8 -15.95 Q-20.05 -16.1 -21.25 -14.75 L-21.3 -14.65 -25.05 -12.85 -28.45 -10.35 -28.45 -11.85 -28.55 -12.3 -28.1 -13.65 M-13.6 -24.45 L-13.4 -24.85 -13.25 -24.75 -13.6 -24.45 M-22.25 -10.75 L-20.3 -11.25 -20.15 -11.25 -21.35 -10.05 -22.25 -10.75 M-23.45 -3.25 L-23.45 -3.5 Q-22.6 -4.65 -22.6 -5.75 L-20.9 -5.95 -23.45 -3.25 M3.05 -21.75 L3.25 -22.2 3.0 -22.45 5.2 -22.9 4.75 -21.75 4.65 -21.2 3.25 -21.6 3.05 -21.75 M15.3 -23.05 L16.0 -22.95 15.9 -22.85 15.3 -23.05 M0.5 -23.35 L-0.15 -23.65 1.6 -24.35 0.5 -23.35 M10.95 -20.95 Q11.5 -21.35 12.85 -21.45 L12.85 -20.75 10.95 -20.95 M15.35 19.9 L13.55 20.55 13.15 20.5 12.2 20.95 Q8.0 21.9 1.05 22.2 L5.15 20.8 10.1 20.05 Q14.0 19.4 15.65 17.75 L15.7 18.0 15.35 19.85 15.35 19.9 M-22.65 16.6 L-22.5 16.55 -19.2 16.7 -16.85 16.1 -16.85 16.25 -17.2 16.7 -22.7 16.85 -22.65 16.6 M4.85 22.8 L7.8 22.7 7.35 22.8 4.85 22.8" fill="#ffffe8" fill-rule="evenodd" stroke="none"/>
    <path d="M19.3 22.9 Q18.0 23.8 16.1 23.8 15.35 23.8 14.25 23.25 L14.2 23.2 12.6 22.6 12.2 22.55 11.65 22.6 Q10.6 22.75 9.35 23.4 L9.05 23.55 Q7.2 24.55 4.85 24.55 L-1.8 25.1 -4.35 25.5 -5.0 25.3 -4.4 24.1 -4.35 23.85 -6.45 24.75 Q-8.7 25.5 -10.6 25.5 L-11.05 25.5 Q-16.6 25.45 -20.1 23.5 -23.3 21.7 -28.55 20.65 L-28.45 20.35 Q-29.8 19.85 -31.95 17.05 -21.95 19.45 -16.7 21.75 L-8.5 22.5 -3.85 23.0 -3.45 22.85 4.85 22.8 7.35 22.8 7.8 22.7 12.2 20.95 13.15 20.5 13.55 20.55 17.9 21.75 Q18.65 21.45 19.65 18.8 20.5 16.6 22.05 17.05 L21.65 19.3 21.15 20.0 21.4 20.05 19.95 22.4 19.3 22.9 M-37.3 10.9 L-38.3 10.3 -38.65 9.5 -38.75 8.15 -37.3 10.9 M-38.45 5.0 Q-38.1 3.9 -37.4 3.25 L-37.05 2.9 -32.7 -0.5 -32.4 -0.25 -31.45 0.55 -33.4 3.6 -33.8 4.1 -36.1 6.9 -36.2 7.0 Q-35.3 8.15 -33.55 9.15 L-33.15 9.35 Q-31.3 10.35 -30.8 11.3 L-31.8 12.85 -32.4 13.5 -35.3 11.9 Q-37.25 8.75 -37.25 7.55 L-34.8 4.35 -36.3 3.75 -38.45 5.15 -38.45 5.0 M-31.75 -11.6 L-32.4 -11.7 Q-32.4 -13.35 -30.75 -15.1 -30.5 -15.8 -29.65 -16.25 -30.85 -14.55 -31.6 -11.55 L-31.75 -11.6 M-27.55 -17.75 L-15.8 -24.55 -15.2 -24.95 -16.95 -26.15 -17.1 -26.2 -16.95 -26.25 -16.0 -26.95 -15.35 -27.6 -14.3 -27.4 -13.8 -27.5 -13.6 -27.45 Q-12.95 -27.3 -12.95 -26.7 L-13.4 -24.85 -13.6 -24.45 -13.65 -24.3 -14.5 -23.2 -18.45 -19.75 -22.05 -17.5 -28.1 -13.65 -28.7 -13.25 -28.7 -13.65 Q-28.55 -14.35 -26.4 -16.9 -26.6 -17.45 -27.55 -17.75 M-14.85 -28.95 L-14.75 -28.75 -14.85 -28.65 -14.85 -28.95 M-12.9 -30.3 L-13.1 -30.45 Q-14.4 -31.6 -14.4 -32.15 L-14.4 -32.35 -13.8 -32.85 -13.35 -32.65 -12.5 -32.15 -13.25 -31.2 -12.5 -31.15 -12.9 -30.3 M0.75 -25.85 L2.65 -25.65 Q3.7 -25.65 4.25 -26.4 L4.0 -26.95 6.6 -26.1 1.6 -24.35 -0.15 -23.65 -0.55 -23.5 -2.45 -23.7 -1.8 -24.3 -1.65 -24.35 0.75 -25.85 M17.85 -23.35 L18.9 -23.15 18.9 -22.75 Q17.85 -21.45 18.55 -19.2 18.95 -17.8 19.8 -16.7 L18.9 -16.5 Q18.9 -15.6 22.75 -12.35 L21.7 -11.4 Q20.65 -10.65 20.65 -10.1 L21.1 -9.55 20.3 -8.7 19.85 -8.2 19.25 -8.2 19.1 -12.2 17.95 -22.75 17.85 -23.35 M21.9 -8.35 Q26.35 -2.1 26.35 -0.9 26.35 0.5 24.65 3.25 24.65 5.05 26.6 10.0 L26.25 10.5 24.7 9.35 Q22.2 7.2 20.2 3.6 L19.3 1.9 18.45 0.1 17.95 -1.95 Q17.95 -2.35 18.55 -3.15 L19.55 -4.5 20.2 -4.45 Q20.2 -3.25 20.45 -3.0 L20.55 -4.3 20.7 -5.05 Q21.0 -7.2 21.9 -8.35" fill="#5b3a0f" fill-rule="evenodd" stroke="none"/>
    <path d="M-5.3 -11.15 L-6.25 -11.0 -7.65 -11.1 Q-6.85 -11.55 -6.9 -11.95 -7.85 -11.0 -9.45 -11.0 -16.1 -11.0 -16.35 -12.8 L-15.2 -15.75 -15.8 -15.5 -17.1 -15.7 -17.1 -15.75 Q-16.45 -17.95 -14.25 -19.5 -13.35 -18.75 -13.2 -18.1 L-12.95 -16.85 -12.95 -16.75 -9.85 -16.55 -8.25 -16.5 -7.3 -16.45 -7.2 -14.2 -3.65 -14.4 -3.15 -14.45 -2.75 -13.7 Q-2.75 -13.2 -3.8 -12.2 L-5.3 -11.15 M4.65 -21.2 L4.75 -21.75 5.2 -22.9 6.15 -24.5 Q6.8 -24.45 6.8 -23.25 L7.0 -23.15 9.75 -23.45 10.0 -23.5 11.75 -23.45 15.3 -23.05 15.9 -22.85 Q17.3 -22.35 17.0 -21.4 17.0 -20.6 15.4 -18.5 L15.1 -18.7 14.75 -19.75 Q14.45 -19.75 13.5 -19.0 13.0 -19.4 12.85 -20.75 L12.85 -21.45 Q11.5 -21.35 10.95 -20.95 L10.9 -20.9 9.65 -20.5 4.55 -20.7 4.65 -21.2" fill="#ffff99" fill-rule="evenodd" stroke="none"/>
    <path d="M35.15 -2.0 L35.1 -2.5 35.4 -2.75 35.9 -2.6 35.15 -2.0 M38.65 8.75 Q38.65 9.75 37.05 10.25 L35.6 9.65 Q35.5 10.1 35.5 8.85 35.5 8.15 37.05 7.75 L38.65 8.75" fill="#cc6600" fill-rule="evenodd" stroke="none"/>
  </g>
</svg>
