<?xml version="1.0" encoding="UTF-8" standalone="no"?>
<svg xmlns:xlink="http://www.w3.org/1999/xlink" height="18.6px" width="59.9px" xmlns="http://www.w3.org/2000/svg">
  <g transform="matrix(1.0, 0.0, 0.0, 1.0, 33.55, 52.2)">
    <path d="M10.25 -51.75 L9.9 -52.2 10.7 -52.0 10.25 -51.75 M4.65 -46.75 L4.2 -46.5 3.85 -46.95 4.65 -46.75 M-1.05 -46.7 L-0.45 -46.25 -0.45 -45.8 -0.45 -44.35 Q-0.15 -44.15 -0.9 -44.15 -2.3 -45.1 -3.45 -45.25 -3.6 -44.95 -3.6 -45.6 -3.6 -46.4 -2.8 -46.9 L-4.1 -47.0 -3.9 -47.75 Q-3.9 -48.6 -4.75 -49.25 L-6.35 -48.4 Q-6.85 -48.05 -6.85 -48.65 L-6.85 -48.7 Q-6.85 -49.4 -5.95 -49.6 L-5.1 -49.75 -4.75 -49.75 -3.45 -48.7 -1.05 -46.7 M-6.9 -43.45 L-6.9 -43.4 -7.55 -43.0 -9.85 -42.35 -10.8 -42.5 -10.9 -42.85 -10.45 -43.65 -9.65 -44.2 -7.6 -45.0 -6.75 -44.25 -6.9 -43.45 M-9.2 -41.5 L-9.5 -41.95 -8.75 -41.75 -9.2 -41.5 M-27.65 -40.6 L-27.25 -40.5 -27.65 -40.25 -27.65 -40.6 M-25.45 -48.45 L-24.7 -48.25 Q-24.85 -48.1 -25.1 -48.0 -25.45 -48.1 -25.45 -48.45" fill="#000000" fill-rule="evenodd" stroke="none"/>
    <path d="M-1.05 -46.7 L-3.45 -48.7 -2.75 -48.2 -1.05 -46.7 M-5.1 -49.75 L-5.95 -49.6 -5.95 -50.15 -5.35 -49.9 -5.1 -49.75 M-6.85 -48.65 Q-6.85 -48.05 -6.35 -48.4 L-4.75 -49.25 Q-3.9 -48.6 -3.9 -47.75 L-4.1 -47.0 -2.8 -46.9 Q-3.6 -46.4 -3.6 -45.6 -3.6 -44.95 -3.45 -45.25 -2.3 -45.1 -0.9 -44.15 -0.15 -44.15 -0.45 -44.35 L-0.45 -45.8 2.9 -43.9 3.4 -43.55 Q4.45 -42.95 3.6 -42.2 L2.9 -41.85 Q1.4 -41.55 0.45 -42.55 L-2.45 -42.9 -2.75 -42.95 -2.95 -43.55 -3.0 -43.55 -3.0 -43.6 Q-3.25 -43.85 -3.7 -43.9 -5.55 -44.05 -6.9 -43.45 L-6.75 -44.25 -7.6 -45.0 -9.65 -44.2 -10.45 -43.65 -9.7 -44.6 Q-8.45 -45.55 -8.75 -46.95 L-8.7 -47.4 -7.55 -48.4 -6.9 -48.65 -6.85 -48.65" fill="#501000" fill-rule="evenodd" stroke="none"/>
    <path d="M-27.65 -40.25 L-28.0 -40.7 -27.65 -40.6 -27.65 -40.25 M-30.85 -44.35 Q-30.05 -44.2 -30.05 -43.75 L-30.1 -43.5 -30.85 -43.1 Q-31.6 -43.35 -31.6 -44.0 L-30.85 -44.35 M-31.95 -36.25 L-32.0 -36.0 -32.75 -35.6 Q-33.55 -35.85 -33.55 -36.5 L-32.75 -36.85 Q-31.95 -36.7 -31.95 -36.25" fill="#441400" fill-rule="evenodd" stroke="none"/>
    <path d="M24.45 -45.85 Q24.45 -45.3 23.7 -45.1 L23.0 -45.45 22.85 -46.2 23.7 -46.35 24.45 -45.85 M25.9 -40.75 Q25.55 -40.85 25.55 -41.2 L26.3 -41.0 25.9 -40.75 M26.35 -34.35 Q26.35 -33.8 25.6 -33.6 L24.9 -33.9 Q24.75 -33.7 24.75 -34.3 24.75 -34.85 25.6 -34.85 L26.35 -34.35" fill="#cc9900" fill-rule="evenodd" stroke="none"/>
    <path d="M-2.45 -42.9 L-2.75 -42.95 -2.95 -43.55 -3.0 -43.55 -3.0 -43.6 Q-3.25 -43.85 -3.7 -43.9 -5.55 -44.05 -6.9 -43.45" fill="none" stroke="#000000" stroke-linecap="square" stroke-linejoin="bevel" stroke-width="1.0"/>
  </g>
</svg>
