<?xml version="1.0" encoding="UTF-8" standalone="no"?>
<svg xmlns:xlink="http://www.w3.org/1999/xlink" height="35.45px" width="41.95px" xmlns="http://www.w3.org/2000/svg">
  <g transform="matrix(1.0, 0.0, 0.0, 1.0, 30.55, 48.7)">
    <path d="M4.85 -48.25 L4.5 -48.7 5.25 -48.5 4.85 -48.25 M6.4 -28.75 L6.1 -29.15 6.85 -29.0 6.4 -28.75" fill="#000000" fill-rule="evenodd" stroke="none"/>
    <path d="M3.15 -45.95 L4.0 -46.0 Q4.85 -46.0 5.6 -44.7 L6.05 -43.75 6.25 -43.2 6.55 -43.2 Q8.35 -42.95 7.9 -41.45 7.9 -40.85 5.6 -39.2 3.4 -37.75 3.3 -36.7 L3.85 -35.75 3.25 -34.65 3.55 -33.95 5.55 -32.2 4.25 -31.5 3.75 -31.15 Q3.15 -30.55 3.3 -30.95 L2.85 -31.4 2.4 -31.65 2.55 -31.7 1.65 -32.15 1.7 -32.1 -2.45 -32.4 -2.95 -32.35 -4.65 -31.95 -4.65 -32.45 -4.8 -32.9 -5.6 -33.95 -5.7 -34.15 -6.35 -34.0 -7.1 -35.55 -7.15 -36.15 -8.8 -36.35 -9.25 -36.55 -9.6 -36.8 -10.0 -37.0 -10.4 -37.05 -10.85 -36.9 -11.7 -36.75 Q-13.0 -37.1 -12.7 -38.7 L-12.75 -39.1 Q-13.55 -39.75 -13.7 -40.45 L-13.7 -40.7 Q-13.7 -41.9 -12.55 -42.65 -12.1 -42.95 -12.4 -43.45 L-12.55 -43.95 Q-12.95 -44.8 -12.0 -44.8 L-10.65 -45.1 -10.2 -45.3 -9.15 -45.5 Q-7.85 -45.35 -7.9 -46.2 -8.0 -46.65 -7.45 -46.85 L-7.15 -47.05 Q-6.65 -48.1 -5.35 -48.5 L-5.0 -48.6 Q-3.6 -48.75 -3.4 -47.85 -4.1 -47.7 -4.15 -47.05 L-4.4 -45.35 Q-10.55 -44.1 -11.35 -40.85 -10.8 -40.35 -10.6 -39.25 L-10.0 -39.25 Q-9.25 -39.25 -8.95 -39.9 L-8.85 -40.0 -6.0 -39.55 -5.7 -39.5 -3.9 -39.4 -3.8 -38.75 -3.8 -38.4 -3.8 -38.2 -3.9 -37.65 -4.1 -36.85 -4.75 -36.25 -5.7 -36.15 -5.5 -35.4 Q-5.25 -34.4 -3.45 -34.4 -2.25 -34.4 -1.3 -34.9 L-0.65 -35.7 1.3 -37.75 1.6 -37.75 Q2.0 -38.55 3.3 -39.4 L3.5 -39.5 6.6 -41.5 6.75 -41.6 6.75 -41.65 Q7.25 -41.9 6.55 -42.0 L6.5 -42.0 5.15 -42.35 5.15 -42.5 4.55 -42.65 3.85 -43.2 3.85 -43.25 3.7 -43.55 3.4 -44.35 3.35 -45.25 0.35 -44.6 0.05 -44.6 -1.65 -44.85 -1.85 -45.0 -1.05 -45.0 3.15 -45.95 M-1.5 -45.7 Q-1.05 -45.35 -0.2 -45.4 L1.0 -45.6 -0.4 -45.25 -1.55 -45.4 -1.5 -45.7 M-0.8 -33.4 L-0.9 -33.05 Q-0.9 -32.45 -0.7 -32.5 L0.3 -32.85 -0.8 -33.4 M-30.55 -43.7 L-29.85 -43.5 -30.2 -43.25 -30.55 -43.7 M-24.5 -26.95 L-25.05 -27.3 -24.5 -27.5 Q-23.6 -28.1 -23.35 -29.2 L-23.15 -29.45 -21.5 -30.65 -21.0 -30.5 -20.4 -30.15 -20.3 -29.7 -20.3 -29.4 Q-21.25 -29.0 -21.35 -28.25 L-21.3 -26.65 -21.8 -26.6 Q-21.95 -27.75 -23.1 -27.75 -24.5 -27.75 -24.5 -26.95 M-22.85 -21.2 L-22.15 -21.05 Q-21.15 -20.75 -21.1 -19.9 L-22.85 -21.2 M-16.7 -16.6 Q-15.25 -16.45 -13.9 -15.95 -14.6 -14.9 -16.15 -14.5 L-16.6 -14.35 Q-17.05 -13.85 -17.75 -13.95 -18.7 -14.15 -19.6 -14.8 L-20.55 -14.5 -18.75 -15.45 Q-17.6 -14.9 -16.5 -14.9 -15.75 -14.9 -15.9 -15.1 L-15.75 -15.85 -16.7 -16.6 M-24.0 -14.0 Q-24.35 -14.45 -25.05 -14.55 -25.4 -14.55 -25.5 -14.75 L-25.85 -15.7 -26.0 -17.2 -26.15 -17.6 -26.55 -18.05 Q-27.15 -18.75 -27.4 -19.7 L-27.6 -19.9 Q-29.35 -20.7 -28.95 -22.45 L-29.0 -22.9 -29.15 -23.25 -28.0 -22.65 -27.55 -22.4 -26.0 -22.1 -25.5 -21.85 -25.05 -21.5 Q-25.45 -21.35 -25.45 -21.0 -25.45 -20.35 -25.25 -20.6 L-22.6 -20.35 -22.15 -18.6 Q-22.15 -18.05 -20.9 -17.0 L-21.15 -17.0 -24.0 -14.2 -24.0 -14.0" fill="#300000" fill-rule="evenodd" stroke="none"/>
    <path d="M6.05 -43.75 L6.55 -43.2 6.25 -43.2 6.05 -43.75 M-3.4 -47.85 L-3.0 -47.9 Q-1.3 -47.9 -1.5 -45.7 L-1.55 -45.4 -0.4 -45.25 1.0 -45.6 2.1 -46.15 3.15 -45.95 -1.05 -45.0 -1.85 -45.0 -1.65 -44.85 0.05 -44.6 -1.55 -43.75 -1.25 -43.0 0.8 -43.85 Q1.7 -43.85 1.95 -43.1 2.3 -42.4 2.9 -42.4 3.55 -42.4 3.55 -42.85 L3.35 -43.4 3.85 -43.25 3.85 -43.2 4.2 -41.75 2.6 -41.9 2.15 -40.7 2.15 -40.9 1.95 -41.5 Q0.75 -41.4 -0.15 -42.1 L-0.4 -41.95 -1.4 -42.4 -1.35 -42.5 Q-1.6 -43.25 -2.5 -43.25 L-3.2 -43.15 -3.65 -43.25 -3.7 -43.25 -2.05 -45.0 Q-2.05 -45.6 -3.0 -47.0 L-3.45 -47.0 Q-3.2 -45.25 -5.8 -43.8 -8.55 -42.35 -8.55 -41.05 L-9.0 -40.1 -8.95 -39.9 Q-9.25 -39.25 -10.0 -39.25 L-10.6 -39.25 Q-10.8 -40.35 -11.35 -40.85 -10.55 -44.1 -4.4 -45.35 L-4.15 -47.05 Q-4.1 -47.7 -3.4 -47.85 M0.35 -44.6 L3.35 -45.25 3.4 -44.35 3.25 -44.4 0.35 -44.6 M6.5 -42.0 L6.55 -42.0 Q7.25 -41.9 6.75 -41.65 L6.75 -41.6 6.6 -41.5 6.6 -41.55 6.5 -42.0 M3.5 -39.5 L3.3 -39.4 Q2.0 -38.55 1.6 -37.75 L1.3 -37.75 -0.65 -35.7 -1.3 -34.9 Q-2.25 -34.4 -3.45 -34.4 -5.25 -34.4 -5.5 -35.4 L-5.7 -36.15 -4.75 -36.25 -4.55 -36.15 -4.05 -36.05 -2.8 -35.75 Q-0.4 -35.75 0.05 -36.6 L0.35 -37.85 2.55 -39.25 3.3 -39.6 3.5 -39.5 M-3.8 -38.2 L-3.8 -38.4 -1.65 -38.25 -1.65 -37.25 -2.55 -37.65 -2.65 -37.75 -2.8 -37.75 -3.8 -38.2 M-5.7 -39.5 L-6.0 -39.55 Q-5.9 -40.55 -4.75 -42.0 L-5.05 -41.5 Q-5.7 -40.35 -5.7 -39.5 M-2.05 -41.1 L-2.3 -41.0 -2.5 -41.35 -2.3 -41.5 -2.2 -41.5 -2.05 -41.1 M-9.4 -33.0 L-9.85 -32.75 -10.15 -33.15 -9.4 -33.0 M-10.8 -29.1 Q-9.95 -28.95 -9.95 -28.5 L-10.0 -28.25 -10.8 -27.85 -11.1 -28.0 -11.35 -28.25 -11.55 -28.75 -10.8 -29.1 M-0.9 -27.65 L-0.15 -27.5 -0.45 -27.3 -0.6 -27.25 -0.7 -27.3 -0.9 -27.65 M-1.95 -27.45 L-1.55 -27.6 -0.85 -27.35 -0.7 -27.0 -0.8 -26.75 -1.55 -26.35 Q-2.3 -26.6 -2.3 -27.25 L-1.95 -27.45 M-20.3 -29.4 L-20.05 -29.5 Q-19.05 -28.95 -19.05 -28.4 L-19.7 -26.55 Q-19.7 -25.5 -21.3 -25.5 -22.85 -25.5 -23.1 -26.05 L-23.45 -26.35 -24.3 -26.35 Q-24.5 -26.35 -24.5 -26.95 -24.5 -27.75 -23.1 -27.75 -21.95 -27.75 -21.8 -26.6 L-21.3 -26.65 -21.35 -28.25 Q-21.25 -29.0 -20.3 -29.4 M-22.85 -21.2 L-21.1 -19.9 -16.7 -16.6 -15.75 -15.85 -15.9 -15.1 Q-15.75 -14.9 -16.5 -14.9 -17.6 -14.9 -18.75 -15.45 L-20.55 -14.5 -23.2 -13.25 Q-23.85 -13.45 -24.0 -14.0 L-24.0 -14.2 -21.15 -17.0 -20.9 -17.0 Q-22.15 -18.05 -22.15 -18.6 L-22.6 -20.35 -25.25 -20.6 Q-25.45 -20.35 -25.45 -21.0 -25.45 -21.35 -25.05 -21.5 L-23.55 -21.75 -22.85 -21.2 M-13.65 -26.6 Q-12.85 -26.45 -12.85 -26.0 L-12.9 -25.75 -13.65 -25.35 Q-14.4 -25.6 -14.4 -26.25 L-13.65 -26.6" fill="#551a00" fill-rule="evenodd" stroke="none"/>
    <path d="M2.4 -31.65 L1.95 -31.5 1.7 -32.1 1.65 -32.15 2.55 -31.7 2.4 -31.65 M3.4 -44.35 L3.7 -43.55 2.7 -44.0 3.4 -44.35 M4.55 -42.65 L5.15 -42.5 5.15 -42.35 6.5 -42.0 6.6 -41.55 6.6 -41.5 3.5 -39.5 3.3 -39.6 3.05 -39.95 Q4.85 -41.05 4.85 -41.55 L4.55 -42.65 M7.8 -36.75 L7.05 -36.35 Q6.3 -36.6 6.3 -37.25 L7.05 -37.6 Q7.9 -37.45 7.9 -37.0 L7.8 -36.75 M8.0 -35.75 L7.7 -36.2 8.45 -36.0 8.0 -35.75 M-0.8 -33.4 L0.3 -32.85 -0.7 -32.5 Q-0.9 -32.45 -0.9 -33.05 L-0.8 -33.4 M10.55 -30.85 Q11.4 -30.7 11.4 -30.25 L11.35 -30.0 10.55 -29.6 10.25 -29.75 9.8 -30.3 9.8 -30.5 10.55 -30.85" fill="#893803" fill-rule="evenodd" stroke="none"/>
    <path d="M0.05 -44.6 L0.35 -44.6 3.25 -44.4 3.4 -44.35 2.7 -44.0 3.7 -43.55 3.85 -43.25 3.35 -43.4 3.55 -42.85 Q3.55 -42.4 2.9 -42.4 2.3 -42.4 1.95 -43.1 1.7 -43.85 0.8 -43.85 L-1.25 -43.0 -1.55 -43.75 0.05 -44.6 M3.85 -43.2 L4.55 -42.65 4.85 -41.55 Q4.85 -41.05 3.05 -39.95 L3.3 -39.6 2.55 -39.25 0.35 -37.85 0.05 -36.6 Q-0.4 -35.75 -2.8 -35.75 L-4.05 -36.05 -3.8 -36.0 Q-2.5 -36.0 -2.5 -37.35 L-2.55 -37.65 -1.65 -37.25 -1.65 -38.25 -1.25 -38.25 Q1.85 -39.8 2.15 -40.7 L2.6 -41.9 4.2 -41.75 3.85 -43.2 M-3.9 -37.65 L-3.8 -38.2 -2.8 -37.75 -3.35 -37.85 -3.9 -37.65 M-6.0 -39.55 L-8.85 -40.0 -8.95 -39.9 -9.0 -40.1 -8.55 -41.05 Q-8.55 -42.35 -5.8 -43.8 -3.2 -45.25 -3.45 -47.0 L-3.0 -47.0 Q-2.05 -45.6 -2.05 -45.0 L-3.7 -43.25 Q-4.85 -43.25 -4.85 -42.45 L-4.75 -42.0 Q-5.9 -40.55 -6.0 -39.55" fill="#702800" fill-rule="evenodd" stroke="none"/>
    <path d="M-4.75 -36.25 L-4.1 -36.85 -3.9 -37.65 -3.35 -37.85 -2.8 -37.75 -2.65 -37.75 -2.55 -37.65 -2.5 -37.35 Q-2.5 -36.0 -3.8 -36.0 L-4.05 -36.05 -4.55 -36.15 -4.75 -36.25 M-3.8 -38.4 L-3.8 -38.75 -3.9 -39.4 -5.7 -39.5 Q-5.7 -40.35 -5.05 -41.5 L-4.75 -42.0 Q-4.5 -41.5 -3.45 -41.5 L-2.3 -41.5 -2.5 -41.35 -2.3 -41.0 -2.05 -41.1 Q-1.8 -40.6 -0.8 -40.6 -0.4 -40.6 0.55 -41.25 L-0.4 -41.95 -0.15 -42.1 Q0.75 -41.4 1.95 -41.5 L2.15 -40.9 2.15 -40.7 Q1.85 -39.8 -1.25 -38.25 L-1.65 -38.25 -3.8 -38.4 M-3.2 -43.15 L-2.5 -43.25 Q-1.6 -43.25 -1.35 -42.5 L-1.4 -42.4 -1.5 -42.45 -3.2 -43.15 M-16.7 -36.0 L-17.5 -35.6 Q-18.25 -35.85 -18.25 -36.5 L-17.5 -36.85 Q-16.65 -36.7 -16.65 -36.25 L-16.7 -36.0" fill="#8c3c04" fill-rule="evenodd" stroke="none"/>
    <path d="M-3.7 -43.25 L-3.65 -43.25 -3.2 -43.15 -1.5 -42.45 -1.4 -42.4 -0.4 -41.95 0.55 -41.25 Q-0.4 -40.6 -0.8 -40.6 -1.8 -40.6 -2.05 -41.1 L-2.2 -41.5 -2.3 -41.5 -3.45 -41.5 Q-4.5 -41.5 -4.75 -42.0 L-4.85 -42.45 Q-4.85 -43.25 -3.7 -43.25" fill="#aa4604" fill-rule="evenodd" stroke="none"/>
  </g>
</svg>
