<?xml version="1.0" encoding="UTF-8" standalone="no"?>
<svg xmlns:xlink="http://www.w3.org/1999/xlink" height="75.95px" width="91.5px" xmlns="http://www.w3.org/2000/svg">
  <g transform="matrix(1.0, 0.0, 0.0, 1.0, 42.95, 54.95)">
    <path d="M-42.95 -11.45 L-41.35 -11.75 Q-40.55 -11.75 -39.85 -10.8 L-39.8 -10.75 Q-39.8 -10.2 -40.55 -9.65 L-41.35 -9.25 -42.9 -9.95 -42.95 -11.45 M-9.25 -28.0 L-8.25 -28.0 Q-6.35 -29.6 -6.35 -32.4 L-5.95 -35.5 -6.15 -36.0 -4.05 -35.7 -1.65 -35.9 Q0.05 -35.7 1.95 -33.7 -0.1 -32.55 -0.4 -30.45 -0.7 -28.15 -1.8 -27.25 -2.75 -26.45 -7.35 -24.75 L-7.45 -24.85 Q-11.55 -24.2 -11.6 -22.75 L-11.75 -22.6 -13.95 -21.2 -14.75 -20.55 -18.55 -23.95 Q-17.55 -23.8 -16.8 -24.65 L-16.1 -25.55 -15.1 -25.65 -14.15 -25.45 Q-11.55 -25.45 -10.15 -26.75 -9.45 -27.4 -9.25 -28.0 M-0.8 -18.9 L-0.2 -19.25 0.5 -19.9 Q2.0 -20.8 4.55 -21.1 L7.1 -21.4 8.0 -20.25 Q6.75 -19.7 6.75 -19.1 L6.75 -18.45 3.3 -17.25 -1.15 -18.4 -0.8 -18.9 M-7.4 -37.0 L-8.15 -37.2 -7.6 -37.5 -7.4 -37.0 M-17.5 -30.5 L-17.2 -30.2 -17.85 -29.65 -18.95 -28.45 -19.0 -28.55 -17.5 -30.5 M-23.65 -20.65 L-23.6 -20.7 -23.6 -20.65 -23.65 -20.65 M-13.15 -12.45 L-12.4 -12.5 -12.05 -12.5 -12.7 -11.0 -15.25 -11.65 Q-14.05 -12.3 -13.15 -12.45 M-20.75 -22.1 L-21.0 -22.5 -21.0 -22.65 -20.6 -22.25 -20.75 -22.1 M-32.45 -14.45 L-32.45 -14.5 Q-32.45 -15.95 -31.2 -16.95 -29.9 -17.95 -29.9 -19.65 L-30.15 -22.7 -29.8 -21.35 -29.8 -21.3 -29.25 -21.0 Q-29.15 -19.1 -25.75 -19.1 -25.0 -19.1 -24.8 -19.4 L-24.8 -19.35 Q-24.8 -18.35 -25.75 -17.1 -25.75 -16.6 -24.75 -15.85 -23.65 -15.05 -23.55 -14.5 -24.15 -13.9 -24.15 -12.85 -24.15 -12.25 -23.55 -11.25 -23.55 -10.65 -24.15 -10.6 L-25.65 -8.0 Q-26.6 -9.2 -28.55 -10.35 -30.5 -11.4 -31.45 -12.4 -30.55 -14.3 -32.45 -14.45 M-22.3 -10.35 L-22.45 -10.5 -22.25 -10.55 -22.3 -10.35 M-33.35 -8.4 L-33.55 -8.35 Q-34.0 -8.25 -34.05 -7.65 L-34.05 -7.5 -32.6 -6.1 -34.15 -5.55 -34.25 -5.55 -35.9 -6.5 -36.3 -8.3 -36.3 -8.7 -36.4 -9.05 -36.55 -10.0 -35.85 -11.4 -35.3 -10.95 -33.65 -9.15 -33.35 -8.4 M-39.55 -2.25 L-39.4 -2.2 -39.4 -2.15 -40.1 -1.5 Q-41.0 -1.75 -41.0 -2.45 L-39.55 -2.25 M-16.9 7.7 L-18.75 4.95 -19.2 4.4 -18.3 3.0 -14.6 3.05 Q-10.45 3.05 -10.1 -3.95 L-10.1 -4.45 -9.5 -4.95 -10.15 -5.45 -10.4 -5.95 -11.0 -6.05 -12.7 -8.2 Q-9.65 -8.55 -7.6 -9.25 L-7.6 -9.1 Q-7.6 -8.1 -5.9 -8.1 L-5.45 -8.35 -5.05 -8.65 Q-4.35 -9.25 -2.5 -9.25 L1.4 -8.95 2.3 -9.6 2.3 -9.4 Q0.95 -7.0 0.6 -5.9 L0.05 -3.45 Q0.05 -2.8 0.7 -2.25 0.7 0.2 -2.5 2.55 L-6.05 3.95 -6.65 3.3 -12.85 5.05 -13.9 5.05 -14.35 5.6 Q-16.0 6.4 -16.6 7.6 L-16.9 7.7 M10.2 -25.0 L7.95 -30.2 Q10.75 -28.5 10.75 -28.1 10.75 -27.45 11.2 -27.0 11.2 -26.2 10.2 -25.0 M7.75 -18.75 Q7.75 -19.1 8.2 -19.1 L11.0 -20.35 9.3 -19.05 7.75 -18.75 M15.6 -8.45 L13.15 -14.5 13.7 -15.55 13.6 -15.95 14.2 -16.35 15.0 -15.45 14.9 -15.3 Q14.9 -15.0 15.3 -14.85 L15.0 -14.25 Q15.0 -13.65 15.65 -12.75 L16.6 -9.45 16.6 -9.4 15.6 -8.45 M-4.55 -11.2 L-4.35 -11.45 -5.25 -12.75 -5.2 -12.9 Q-3.15 -12.0 0.7 -12.0 L4.85 -13.7 4.85 -13.65 5.2 -12.95 4.3 -13.0 -0.4 -11.2 -0.85 -11.2 Q-1.6 -11.2 -1.95 -10.7 -2.7 -11.25 -3.45 -11.25 L-4.55 -11.2" fill="#c48c2c" fill-rule="evenodd" stroke="none"/>
    <path d="M3.0 -54.95 L4.55 -54.7 3.85 -54.0 Q3.0 -54.25 3.0 -54.95 M-0.9 -39.65 L-0.9 -40.0 1.0 -41.8 Q1.7 -42.35 2.7 -42.05 L2.9 -41.95 Q2.15 -41.15 2.0 -40.3 L1.95 -39.95 1.95 -39.35 2.9 -39.25 Q4.5 -41.75 5.45 -41.75 L7.8 -42.0 8.0 -42.05 9.55 -42.65 Q11.35 -42.65 13.35 -40.0 15.2 -37.65 15.2 -36.6 L14.45 -36.0 14.4 -36.0 Q12.9 -36.0 11.2 -34.3 L10.35 -33.4 Q10.75 -35.0 12.4 -35.75 L12.45 -36.45 10.55 -37.1 Q10.9 -37.85 8.95 -39.5 L7.5 -39.5 Q7.2 -40.05 7.65 -40.65 L6.95 -40.1 6.5 -40.35 5.8 -40.5 Q4.9 -39.5 4.2 -39.5 L3.6 -39.55 Q2.6 -38.75 1.3 -38.75 L1.05 -38.75 -0.9 -38.9 -0.9 -39.3 -0.9 -39.65 M5.35 -44.0 L6.1 -44.5 6.6 -44.35 8.15 -44.6 7.8 -44.3 7.2 -43.9 Q5.65 -43.9 4.4 -43.15 L5.35 -44.0 M8.65 -44.6 Q9.5 -44.55 10.35 -44.05 L10.7 -43.85 8.5 -43.9 8.65 -44.35 8.65 -44.6 M15.65 -38.85 L16.6 -37.75 16.55 -37.3 16.5 -37.05 15.8 -38.3 15.65 -38.75 15.65 -38.85 M16.6 -35.0 L16.25 -34.7 15.85 -34.55 15.8 -34.5 15.7 -34.5 15.6 -34.45 14.85 -34.25 15.0 -34.5 16.8 -35.45 16.6 -35.0 M15.85 -29.05 L16.5 -28.75 16.6 -27.95 16.5 -27.9 16.15 -27.85 Q12.8 -31.3 12.8 -31.75 L12.9 -32.1 12.9 -32.15 Q14.6 -31.3 15.2 -29.55 L15.3 -29.25 15.45 -29.2 15.85 -29.05 M26.6 -23.05 L27.15 -22.0 26.8 -21.65 26.8 -21.8 26.45 -23.0 26.6 -23.05 M26.1 -20.55 L25.3 -20.05 25.3 -20.1 26.1 -20.55 M19.65 -18.2 L18.9 -17.9 19.1 -18.35 19.25 -18.2 19.65 -18.2 M9.2 0.4 L10.55 1.45 9.8 1.45 9.2 0.8 9.1 0.5 9.2 0.4 M25.6 -6.85 L26.05 -6.25 26.05 -6.2 25.9 -6.25 25.6 -6.85 M-16.45 13.05 L-16.65 13.05 -18.8 12.3 -19.65 11.5 -19.9 10.9 -19.15 11.85 Q-18.25 12.55 -16.45 13.05 M-25.4 5.85 Q-25.75 5.6 -25.75 5.05 L-25.5 4.95 -25.4 4.85 -25.3 4.8 -25.1 5.95 -25.4 5.85 M-25.75 3.0 L-25.95 2.6 -26.7 1.1 Q-26.85 0.2 -27.6 -0.8 L-27.55 -0.9 -27.8 -1.0 -29.0 -2.2 -29.1 -2.3 Q-29.8 -3.35 -32.4 -4.7 L-32.15 -5.65 -32.15 -5.7 -28.55 -6.45 -27.35 -6.75 -26.85 -6.5 -26.4 -6.3 -26.4 -6.25 -26.25 -6.25 -20.65 -3.45 Q-21.35 -2.9 -24.6 -2.25 L-25.05 -2.2 Q-25.05 -1.75 -24.4 -1.0 L-24.5 -0.7 -24.7 -0.7 -24.3 -0.35 -24.85 0.15 -25.25 0.25 -24.5 2.7 -24.3 3.05 Q-23.35 4.95 -21.5 5.2 L-19.7 5.6 -19.2 6.2 Q-20.3 5.55 -22.45 5.25 -24.4 4.9 -24.5 3.35 -24.55 1.9 -25.3 1.9 L-25.9 2.0 -25.95 2.0 -25.65 3.2 -25.75 3.0 M-33.1 -24.85 L-33.1 -24.95 -32.95 -24.95 -33.1 -24.85 M-3.1 -40.05 L-4.15 -40.55 -3.8 -40.75 -4.3 -41.5 Q-3.4 -40.95 -2.95 -40.25 L-3.1 -40.05 M-10.8 -41.75 Q-10.7 -41.2 -9.85 -40.5 L-9.85 -40.25 Q-10.1 -39.65 -11.3 -39.65 -13.7 -39.65 -16.15 -37.95 L-16.5 -37.85 -17.2 -38.35 -17.75 -37.9 -17.8 -37.9 -18.1 -37.7 -19.2 -36.65 -19.2 -36.9 -17.75 -38.75 -17.5 -38.9 Q-13.25 -40.3 -12.75 -41.9 L-12.05 -41.9 -10.8 -41.75 M-18.95 -35.45 L-18.95 -35.4 -19.0 -35.55 -18.95 -35.45 M-11.7 -48.95 L-10.1 -48.7 -10.8 -48.0 Q-11.7 -48.25 -11.7 -48.95 M-19.25 -36.55 L-19.35 -36.4 -19.35 -36.6 -19.25 -36.6 -19.25 -36.55 M-27.6 -23.4 L-28.9 -23.45 -30.55 -23.15 -29.0 -24.45 -27.6 -23.4 M-31.1 -22.7 Q-31.1 -21.6 -32.0 -19.55 L-32.35 -18.95 -33.4 -16.0 -33.75 -14.3 -33.75 -14.2 -34.75 -13.75 -32.7 -18.25 Q-32.7 -19.05 -33.2 -19.45 L-32.6 -20.1 -31.95 -21.9 -31.1 -22.7 M-18.6 9.25 L-18.1 9.0 -17.75 10.6 Q-18.55 10.0 -18.6 9.25 M-16.35 11.3 L-13.7 11.4 -13.65 11.45 Q-13.2 11.9 -12.05 11.9 L-11.85 11.55 -11.25 11.35 -11.1 11.4 -9.95 10.6 -8.6 10.25 -7.2 10.3 Q-4.05 10.35 -2.2 11.15 -1.85 11.35 -1.55 11.5 -0.6 12.0 -0.6 12.5 -0.6 13.2 -2.5 14.6 L-2.3 14.7 Q-3.8 15.0 -6.35 16.0 -7.05 14.95 -7.8 14.85 -6.45 12.05 -10.15 12.05 -11.15 12.05 -11.35 12.3 L-11.35 12.55 -14.85 11.75 -16.35 11.3 M11.0 -20.35 L11.85 -20.95 Q11.85 -21.65 10.1 -22.0 L10.9 -22.25 Q13.5 -20.85 14.4 -25.1 L14.4 -25.2 Q12.35 -26.3 12.35 -26.9 L12.35 -28.5 16.0 -25.75 17.0 -26.05 16.95 -25.8 Q16.95 -25.4 18.2 -25.35 L18.35 -25.65 19.5 -25.9 20.65 -25.75 20.65 -25.65 20.45 -24.4 20.45 -24.35 21.4 -24.25 Q21.4 -24.6 21.7 -24.35 21.7 -23.55 21.2 -22.55 L20.75 -21.85 21.25 -21.7 21.6 -21.3 21.0 -20.95 18.6 -20.65 Q16.8 -20.15 16.7 -18.65 L16.6 -18.3 16.6 -18.1 16.15 -17.25 15.7 -16.85 15.65 -16.4 15.65 -16.35 15.3 -14.85 Q14.9 -15.0 14.9 -15.3 L15.0 -15.45 15.35 -16.15 14.6 -16.75 14.2 -16.35 13.6 -15.95 13.7 -15.55 13.15 -14.5 15.6 -8.45 15.55 -8.4 Q13.8 -6.85 13.8 -5.85 L13.95 -5.3 12.05 -4.1 12.1 -3.75 Q9.85 -3.7 8.0 -0.9 6.5 1.3 6.4 2.45 L6.4 2.55 7.05 3.4 6.25 3.75 Q6.8 4.2 5.65 5.85 4.3 7.8 4.3 8.25 L4.1 9.0 Q3.4 10.0 0.9 10.4 L0.15 10.5 Q0.35 9.75 -0.6 9.75 L-0.95 9.6 -0.6 9.25 -1.85 8.7 -2.65 8.0 -2.25 7.75 Q-1.05 7.1 2.0 6.35 5.45 5.5 5.45 4.55 L5.35 3.9 4.4 3.75 Q3.4 3.75 2.3 4.9 L1.5 4.85 1.3 4.4 3.15 2.0 Q5.15 -0.15 6.85 -0.65 L7.05 -0.7 7.65 -1.3 11.2 -5.75 10.9 -6.05 10.6 -6.1 10.55 -6.35 11.7 -9.1 10.9 -11.5 Q8.2 -11.55 7.5 -12.6 L7.05 -14.45 1.4 -14.25 Q0.75 -14.9 0.95 -15.2 1.25 -15.7 5.85 -16.2 L6.75 -16.75 Q7.45 -17.25 8.35 -17.25 L9.35 -17.15 11.05 -18.6 11.2 -18.75 9.5 -18.65 Q9.3 -18.45 9.3 -19.05 L11.0 -20.35 M19.05 -1.3 L19.5 -1.2 18.45 -0.7 19.05 -1.3 M24.2 1.1 L23.2 2.25 22.05 2.5 22.1 2.3 24.2 1.1 M23.45 -1.55 L23.7 -1.6 23.6 -1.5 23.6 -1.45 23.45 -1.55 M14.85 6.7 L15.35 6.75 15.65 6.75 11.5 8.7 11.4 8.5 Q11.05 8.0 10.25 8.0 8.5 8.0 6.1 9.4 L7.25 8.55 7.2 8.25 5.8 7.6 8.45 5.2 10.25 4.25 10.95 4.7 13.1 5.0 Q12.6 5.95 13.85 6.45 L14.85 6.7 M14.75 8.8 L15.2 8.6 18.8 7.3 Q16.8 8.4 14.75 8.8 M17.0 15.05 L18.6 15.3 17.9 16.0 Q17.0 15.75 17.0 15.05 M7.7 4.25 L7.7 4.4 7.5 4.4 7.55 4.1 7.7 4.25 M8.0 13.25 L8.0 11.6 8.65 12.25 Q8.65 12.75 8.0 13.25 M6.8 20.05 L8.4 20.3 7.7 21.0 Q6.8 20.75 6.8 20.05 M-22.15 6.05 L-21.55 6.1 Q-19.6 6.45 -19.5 7.9 L-19.95 10.3 -19.95 10.25 -20.05 10.25 -20.05 9.55 -20.3 7.75 Q-20.8 6.3 -22.15 6.05" fill="#501000" fill-rule="evenodd" stroke="none"/>
    <path d="M2.9 -41.95 L3.1 -42.2 3.4 -42.5 3.5 -42.55 3.6 -42.6 4.4 -43.15 Q5.65 -43.9 7.2 -43.9 L7.8 -44.3 8.15 -44.6 8.45 -44.85 8.65 -44.6 8.65 -44.35 8.5 -43.9 10.7 -43.85 11.4 -43.8 Q14.2 -43.45 15.15 -41.9 15.65 -41.15 15.65 -38.85 L15.65 -38.75 15.8 -38.3 16.5 -37.05 16.85 -36.5 16.95 -36.3 17.05 -36.15 17.25 -35.85 16.95 -35.5 16.8 -35.45 15.0 -34.5 14.85 -34.25 14.75 -34.25 13.5 -32.95 12.9 -32.15 12.9 -32.1 12.8 -31.75 Q12.8 -31.3 16.15 -27.85 L16.5 -27.9 16.6 -27.95 Q17.7 -28.05 18.1 -27.3 L18.85 -27.75 20.7 -28.35 19.75 -29.2 18.6 -28.95 Q18.25 -28.6 18.25 -29.85 18.25 -30.65 18.65 -31.35 L18.85 -31.7 18.85 -32.0 18.85 -32.25 19.3 -32.25 19.8 -32.7 20.35 -32.2 Q22.3 -31.9 23.5 -30.1 L23.7 -30.2 24.9 -30.95 Q26.6 -30.95 26.95 -27.65 L26.85 -23.5 Q27.0 -23.2 26.6 -23.05 L26.45 -23.0 26.8 -21.8 26.8 -21.65 26.8 -21.55 26.6 -21.15 26.1 -20.55 25.3 -20.1 25.3 -20.05 25.3 -19.75 Q25.3 -18.9 24.4 -18.65 L19.65 -18.2 19.25 -18.2 19.1 -18.35 18.9 -17.9 18.9 -17.65 19.5 -13.35 Q19.5 -12.8 21.25 -12.3 23.25 -11.7 23.6 -11.0 L21.0 -7.05 Q19.3 -5.1 15.35 -4.45 L15.1 -4.5 13.1 -3.35 12.9 -3.4 13.0 -3.2 Q13.0 -2.7 9.2 0.4 L9.1 0.5 9.2 0.8 9.8 1.45 10.55 1.45 13.45 1.8 18.15 -0.5 18.45 -0.7 19.5 -1.2 19.05 -1.3 18.25 -1.45 Q17.95 -0.75 17.95 -2.0 17.95 -3.15 22.35 -4.2 21.8 -5.0 21.8 -6.25 21.8 -7.95 23.95 -7.95 24.85 -7.95 25.6 -6.85 L25.9 -6.25 26.05 -6.2 26.6 -5.9 26.5 -5.0 27.75 0.9 Q27.75 3.5 23.0 7.25 17.65 11.5 12.15 11.5 11.4 11.5 10.1 10.9 8.85 10.25 8.0 10.25 6.6 10.25 5.35 11.55 L2.9 14.4 Q-0.85 18.5 -7.3 18.5 -9.7 18.5 -10.8 16.55 -11.4 15.4 -11.4 14.4 L-11.35 13.9 -16.45 13.05 Q-18.25 12.55 -19.15 11.85 L-19.9 10.9 -20.05 10.5 -19.95 10.3 -19.5 7.9 Q-19.6 6.45 -21.55 6.1 L-22.15 6.05 -22.5 6.0 -22.95 6.0 -23.1 6.0 -23.35 6.05 -24.35 6.6 -25.1 6.6 -25.1 6.05 -25.1 5.95 -25.3 4.8 -25.45 4.2 -25.65 3.2 -25.95 2.0 -25.9 2.0 -25.3 1.9 Q-24.55 1.9 -24.5 3.35 -24.4 4.9 -22.45 5.25 -20.3 5.55 -19.2 6.2 L-18.45 6.9 Q-18.2 7.35 -18.55 8.6 L-18.6 8.9 -18.6 9.25 Q-18.55 10.0 -17.75 10.6 L-16.35 11.3 -14.85 11.75 -11.35 12.55 -11.35 12.3 Q-11.15 12.05 -10.15 12.05 -6.45 12.05 -7.8 14.85 -7.05 14.95 -6.35 16.0 -3.8 15.0 -2.3 14.7 L-2.5 14.6 Q-0.6 13.2 -0.6 12.5 -0.6 12.0 -1.55 11.5 -1.85 11.35 -2.2 11.15 -4.05 10.35 -7.2 10.3 L-8.6 10.25 -9.95 10.6 -11.1 11.4 -11.25 11.35 -11.7 11.15 -10.9 8.4 -8.45 7.6 -7.3 8.4 -4.3 7.45 -3.8 7.25 -3.1 7.65 -2.65 8.0 -1.85 8.7 -0.95 9.6 -0.6 9.75 Q0.35 9.75 0.15 10.5 L0.9 10.4 Q3.4 10.0 4.1 9.0 L4.3 8.25 Q4.3 7.8 5.65 5.85 6.8 4.2 6.25 3.75 L7.05 3.4 6.4 2.55 6.4 2.45 Q6.5 1.3 8.0 -0.9 9.85 -3.7 12.1 -3.75 L12.05 -4.1 13.95 -5.3 13.8 -5.85 Q13.8 -6.85 15.55 -8.4 L15.6 -8.45 16.6 -9.4 16.6 -9.45 15.65 -12.75 Q15.0 -13.65 15.0 -14.25 L15.3 -14.85 15.65 -16.35 15.65 -16.4 15.7 -16.85 16.15 -17.25 16.6 -18.1 16.6 -18.3 16.7 -18.65 Q16.8 -20.15 18.6 -20.65 L21.0 -20.95 21.6 -21.3 21.25 -21.7 20.75 -21.85 21.2 -22.55 Q21.7 -23.55 21.7 -24.35 21.4 -24.6 21.4 -24.25 L20.45 -24.35 20.45 -24.4 20.65 -25.65 20.65 -25.75 19.5 -25.9 18.35 -25.65 18.2 -25.35 Q16.95 -25.4 16.95 -25.8 L17.0 -26.05 16.0 -25.75 12.35 -28.5 12.2 -29.15 9.9 -32.75 10.35 -33.4 11.2 -34.3 Q12.9 -36.0 14.4 -36.0 L14.45 -36.0 15.2 -36.6 Q15.2 -37.65 13.35 -40.0 11.35 -42.65 9.55 -42.65 L8.0 -42.05 7.8 -42.0 5.45 -41.75 Q4.5 -41.75 2.9 -39.25 L1.95 -39.35 1.95 -39.95 2.0 -40.3 Q2.15 -41.15 2.9 -41.95 M-26.8 2.1 Q-26.95 3.35 -28.0 3.8 -32.65 -2.6 -37.15 -5.0 -38.25 -5.6 -38.5 -6.55 L-38.75 -11.5 Q-38.75 -12.1 -39.4 -12.5 -40.05 -12.85 -40.05 -13.5 L-35.0 -19.95 Q-34.85 -21.1 -33.9 -22.7 L-33.85 -22.8 -33.9 -22.85 -34.05 -23.5 Q-34.05 -24.1 -33.1 -24.85 L-32.95 -24.95 -32.9 -25.0 -31.1 -25.0 -31.1 -26.15 Q-29.65 -26.95 -28.95 -26.95 -28.05 -26.95 -25.7 -25.2 L-25.75 -25.65 Q-25.75 -26.55 -23.3 -27.5 L-20.9 -28.35 Q-19.65 -30.25 -19.65 -31.2 L-19.7 -31.6 -20.3 -32.9 -20.65 -33.5 Q-21.55 -34.95 -21.55 -36.45 -21.55 -37.05 -19.6 -38.95 L-19.65 -39.5 Q-19.65 -41.5 -17.3 -42.65 L-13.95 -44.45 -13.2 -43.75 -12.85 -43.8 Q-12.4 -43.75 -12.4 -42.95 L-12.4 -42.8 -11.55 -42.9 -9.4 -43.25 Q-6.5 -43.25 -5.45 -42.65 L-4.6 -41.95 -4.3 -41.5 -3.8 -40.75 -4.15 -40.55 -6.05 -41.25 Q-8.95 -42.25 -10.15 -42.25 L-10.8 -42.0 -10.8 -41.75 -12.05 -41.9 -12.75 -41.9 Q-13.25 -40.3 -17.5 -38.9 L-17.75 -38.75 -19.2 -36.9 -19.2 -36.65 -19.25 -36.55 -19.25 -36.6 -19.35 -36.6 -19.35 -36.4 -19.0 -35.55 -18.95 -35.4 -17.65 -33.15 -16.8 -31.85 -17.5 -30.5 -19.0 -28.55 -18.95 -28.45 -18.7 -27.75 Q-18.7 -26.8 -20.65 -25.25 L-23.1 -23.75 -24.5 -22.2 -25.05 -22.25 Q-26.15 -22.45 -27.3 -23.2 L-27.6 -23.4 -29.0 -24.45 -30.55 -23.15 -31.1 -22.7 -31.95 -21.9 -32.6 -20.1 -33.2 -19.45 Q-32.7 -19.05 -32.7 -18.25 L-34.75 -13.75 -34.95 -13.35 -35.85 -11.4 -36.55 -10.0 -36.4 -9.05 -36.3 -8.3 -35.9 -6.5 -34.25 -5.55 -33.2 -4.95 -31.3 -3.9 -29.2 -2.4 -29.0 -2.2 -27.8 -1.0 -27.6 -0.8 Q-26.85 0.2 -26.7 1.1 L-26.8 2.1 M23.45 -1.55 L23.6 -1.45 23.6 -1.5 23.7 -1.6 23.45 -1.55 M24.2 1.1 L22.1 2.3 22.05 2.5 23.2 2.25 24.2 1.1 M14.75 8.8 Q16.8 8.4 18.8 7.3 L15.2 8.6 14.75 8.8 M14.85 6.7 L13.85 6.45 Q12.6 5.95 13.1 5.0 L10.95 4.7 10.25 4.25 8.45 5.2 5.8 7.6 7.2 8.25 7.25 8.55 6.1 9.4 Q8.5 8.0 10.25 8.0 11.05 8.0 11.4 8.5 L11.5 8.7 15.65 6.75 15.35 6.75 14.85 6.7 M7.7 4.25 L7.55 4.1 7.5 4.4 7.7 4.4 7.7 4.25 M2.6 11.85 L2.85 11.6 2.65 11.75 2.3 12.0 2.3 12.1 2.6 11.85" fill="#300000" fill-rule="evenodd" stroke="none"/>
    <path d="M3.6 -42.6 L3.7 -42.8 3.7 -42.85 4.75 -43.95 5.35 -44.0 4.4 -43.15 3.6 -42.6 M10.35 -44.05 L10.45 -44.05 11.4 -43.8 10.7 -43.85 10.35 -44.05 M16.55 -37.3 L16.8 -37.0 17.05 -36.45 17.05 -36.15 16.95 -36.3 16.85 -36.5 16.5 -37.05 16.55 -37.3 M16.95 -35.5 L16.6 -35.0 16.8 -35.45 16.95 -35.5 M18.65 -31.35 L18.0 -32.45 18.85 -32.0 18.85 -31.7 18.65 -31.35 M18.15 -0.5 L19.05 -1.3 18.45 -0.7 18.15 -0.5 M-19.65 11.5 Q-20.75 10.75 -20.6 9.55 L-20.45 9.05 -20.05 9.55 -20.05 10.25 -19.95 10.25 -19.95 10.3 -20.05 10.5 -19.9 10.9 -19.65 11.5 M-22.95 6.05 L-23.35 6.05 -23.1 6.0 -22.95 6.0 -22.95 6.05 M-25.1 6.05 L-25.4 5.85 -25.1 5.95 -25.1 6.05 M-25.5 4.95 L-25.75 3.0 -25.65 3.2 -25.45 4.2 -25.4 4.85 -25.5 4.95 M-33.9 -22.7 L-33.9 -22.85 -33.85 -22.8 -33.9 -22.7 M-20.3 -32.5 L-20.6 -32.95 -20.65 -33.5 -20.3 -32.9 -20.35 -32.75 -20.3 -32.5 M-8.6 -18.25 L-7.4 -17.5 -6.15 -18.35 -7.85 -16.6 Q-7.85 -14.85 -6.6 -13.75 L-6.75 -13.85 Q-8.75 -15.0 -9.5 -15.0 L-10.7 -14.85 -11.1 -15.45 -11.1 -15.6 -11.25 -16.45 -9.95 -17.2 -8.6 -18.25 M-2.25 -18.7 L-1.5 -18.7 -0.8 -18.9 -1.15 -18.4 -2.25 -18.7 M0.5 -19.9 L0.7 -20.45 0.35 -22.7 -2.2 -22.75 1.65 -26.2 Q3.25 -27.5 3.25 -29.4 3.25 -30.8 4.9 -32.7 L6.15 -34.75 7.35 -33.0 6.4 -31.1 7.95 -30.2 10.2 -25.0 9.15 -24.05 Q7.05 -22.15 7.05 -21.7 L7.1 -21.4 4.55 -21.1 Q2.0 -20.8 0.5 -19.9 M-18.05 -12.85 L-13.35 -12.45 -13.15 -12.45 Q-14.05 -12.3 -15.25 -11.65 L-18.45 -12.2 -18.05 -12.85 M-12.4 -12.5 L-12.05 -12.55 -12.05 -12.5 -12.4 -12.5 M-25.1 -7.2 L-23.9 -8.3 -25.05 -7.2 -25.1 -7.2 M-32.6 -6.1 L-32.15 -5.65 -32.4 -4.7 Q-29.8 -3.35 -29.1 -2.3 L-29.2 -2.4 -31.3 -3.9 -33.2 -4.95 -34.15 -5.55 -32.6 -6.1 M-36.4 -9.05 L-36.3 -8.7 -36.3 -8.3 -36.4 -9.05 M-16.7 8.0 L-16.9 7.7 -16.6 7.6 -16.7 8.0 M-19.2 4.4 L-20.65 2.1 -20.6 1.55 -19.35 2.85 -18.3 3.0 -19.2 4.4 M14.2 -16.35 L14.6 -16.75 15.35 -16.15 15.0 -15.45 14.2 -16.35 M-16.0 -17.45 L-14.05 -17.35 -13.0 -17.45 -12.95 -17.2 -13.65 -17.25 -15.3 -16.95 -16.0 -17.45 M-15.1 -25.65 L-16.1 -25.55 -15.55 -26.5 Q-15.55 -25.9 -15.1 -25.65 M-5.25 -12.75 L-5.6 -13.1 -5.2 -12.9 -5.25 -12.75 M-10.15 -5.45 L-9.5 -4.95 -10.1 -4.45 -10.1 -5.0 -10.1 -5.2 -10.15 -5.45 M-1.95 -10.7 Q-1.6 -11.2 -0.85 -11.2 L-0.4 -11.2 -1.85 -10.65 -1.95 -10.7 M2.6 -9.75 L3.55 -10.25 3.85 -10.25 Q3.55 -9.75 2.6 -9.75 M-6.05 3.95 L-2.5 2.55 -3.95 3.5 -6.0 4.45 -6.05 3.95 M-12.85 5.05 L-13.9 5.4 -14.35 5.6 -13.9 5.05 -12.85 5.05 M2.65 11.75 L2.6 11.85 2.3 12.1 2.3 12.0 2.65 11.75 M-29.35 5.75 L-29.2 5.95 -29.5 6.35 -29.9 6.5 Q-30.8 6.25 -30.8 5.55 L-29.95 5.6 -29.35 5.75" fill="#e8c450" fill-rule="evenodd" stroke="none"/>
    <path d="M13.5 -32.95 L15.85 -29.05 15.45 -29.2 15.3 -29.25 15.2 -29.55 Q14.6 -31.3 12.9 -32.15 L13.5 -32.95 M-16.65 13.05 L-17.15 13.05 Q-18.2 13.05 -18.8 12.3 L-16.65 13.05 M-20.45 9.05 L-22.95 6.05 -22.95 6.0 -22.5 6.0 -22.15 6.05 Q-20.8 6.3 -20.3 7.75 L-20.05 9.55 -20.45 9.05 M-25.95 2.6 L-26.8 2.1 -26.7 1.1 -25.95 2.6 M-19.7 -31.6 Q-20.2 -32.0 -20.3 -32.5 L-20.35 -32.75 -20.3 -32.9 -19.7 -31.6 M-11.55 -42.9 Q-10.9 -43.5 -9.5 -43.5 -5.0 -43.5 -0.9 -39.65 L-0.9 -39.3 -2.5 -39.75 -3.1 -40.05 -2.95 -40.25 Q-3.4 -40.95 -4.3 -41.5 L-4.6 -41.95 -5.45 -42.65 Q-6.5 -43.25 -9.4 -43.25 L-11.55 -42.9 M1.05 -38.75 L1.3 -38.75 Q2.6 -38.75 3.6 -39.55 L4.2 -39.5 Q4.9 -39.5 5.8 -40.5 L6.5 -40.35 6.95 -40.1 7.65 -40.65 Q7.2 -40.05 7.5 -39.5 L8.95 -39.5 Q10.9 -37.85 10.55 -37.1 L12.45 -36.45 12.4 -35.75 Q10.75 -35.0 10.35 -33.4 L9.9 -32.75 8.5 -35.15 Q7.75 -36.5 6.75 -36.5 L6.5 -36.45 Q6.25 -37.1 4.0 -37.85 L1.05 -38.75 M-13.35 -35.4 Q-11.4 -33.25 -11.4 -32.35 L-12.7 -30.55 -12.55 -30.5 -12.4 -30.45 -11.4 -30.5 -11.75 -28.0 -9.25 -28.0 Q-9.45 -27.4 -10.15 -26.75 -11.55 -25.45 -14.15 -25.45 L-15.1 -25.65 Q-15.55 -25.9 -15.55 -26.5 L-16.1 -25.55 -16.8 -24.65 Q-17.55 -23.8 -18.55 -23.95 L-14.75 -20.55 Q-16.4 -19.15 -16.4 -17.5 L-16.0 -17.45 -15.3 -16.95 -13.65 -17.25 -12.95 -17.2 -13.0 -17.45 Q-11.55 -17.85 -10.0 -19.3 L-8.6 -18.25 -9.95 -17.2 -11.25 -16.45 -11.1 -15.6 -11.1 -15.45 -10.7 -14.85 Q-11.85 -14.5 -11.95 -13.5 L-12.05 -12.55 -12.4 -12.5 -13.15 -12.45 -13.35 -12.45 -18.05 -12.85 Q-17.5 -14.5 -21.0 -14.5 L-20.8 -14.6 -23.6 -16.0 Q-24.35 -16.35 -24.35 -17.0 L-22.4 -19.85 Q-22.4 -20.2 -23.6 -20.65 L-23.6 -20.7 -23.65 -20.65 -26.2 -21.4 -24.6 -21.65 -24.5 -22.0 Q-25.0 -21.9 -25.05 -22.25 L-24.5 -22.2 -23.1 -23.75 -20.65 -25.25 Q-18.7 -26.8 -18.7 -27.75 L-18.95 -28.45 -17.85 -29.65 -17.2 -30.2 -17.5 -30.5 -16.8 -31.85 -17.65 -33.15 -16.2 -32.5 -15.75 -32.75 -15.65 -33.3 Q-15.65 -34.6 -17.4 -36.1 L-17.5 -36.15 -17.4 -36.15 -14.95 -36.6 Q-14.55 -35.6 -13.35 -35.4 M-6.15 -18.35 L-5.5 -18.95 -5.3 -18.85 -2.25 -18.7 -1.15 -18.4 3.3 -17.25 6.75 -18.45 6.75 -18.15 7.7 -18.15 7.75 -18.75 9.3 -19.05 Q9.3 -18.45 9.5 -18.65 L11.2 -18.75 11.05 -18.6 9.35 -17.15 8.35 -17.25 Q7.45 -17.25 6.75 -16.75 L5.85 -16.2 Q1.25 -15.7 0.95 -15.2 0.75 -14.9 1.4 -14.25 L7.05 -14.45 7.5 -12.6 Q8.2 -11.55 10.9 -11.5 L11.7 -9.1 10.55 -6.35 10.6 -6.1 10.9 -6.05 11.2 -5.75 7.65 -1.3 7.05 -0.7 6.85 -0.65 Q5.15 -0.15 3.15 2.0 L1.3 4.4 1.5 4.85 2.3 4.9 Q3.4 3.75 4.4 3.75 L5.35 3.9 5.45 4.55 Q5.45 5.5 2.0 6.35 -1.05 7.1 -2.25 7.75 L-3.1 7.65 -3.8 7.25 -4.3 7.45 -7.05 7.0 Q-5.9 6.35 -5.8 5.6 0.5 3.5 2.8 -2.5 L2.7 -4.45 Q2.55 -5.9 3.05 -6.6 6.6 -9.3 6.6 -10.5 7.25 -10.7 7.25 -11.35 7.25 -12.75 5.2 -12.95 L4.85 -13.65 4.85 -13.7 0.7 -12.0 Q-3.15 -12.0 -5.2 -12.9 L-5.6 -13.1 -6.6 -13.75 Q-7.85 -14.85 -7.85 -16.6 L-6.15 -18.35 M-16.15 -37.95 L-17.15 -37.2 -18.95 -35.45 -19.0 -35.55 -19.35 -36.4 -19.25 -36.55 -19.2 -36.65 -18.1 -37.7 -17.8 -37.9 -17.75 -37.9 -17.2 -38.35 -16.5 -37.85 -16.15 -37.95 M-20.75 -22.1 L-20.6 -22.25 -21.0 -22.65 -21.0 -22.5 -20.75 -22.1 M-27.3 -23.2 L-29.1 -21.8 -29.25 -21.1 -29.25 -21.0 -29.8 -21.3 -29.8 -21.35 -30.15 -22.7 -29.9 -19.65 Q-29.9 -17.95 -31.2 -16.95 -32.45 -15.95 -32.45 -14.5 L-32.45 -14.45 -32.75 -14.45 -33.75 -14.3 -33.4 -16.0 -32.35 -18.95 -32.0 -19.55 Q-31.1 -21.6 -31.1 -22.7 L-30.55 -23.15 -28.9 -23.45 -27.6 -23.4 -27.3 -23.2 M-25.65 -8.0 L-26.45 -6.8 Q-26.45 -6.75 -26.55 -6.75 L-26.85 -6.5 -27.35 -6.75 -28.55 -6.45 Q-28.55 -7.75 -30.5 -8.85 -32.4 -10.0 -32.4 -10.95 L-31.45 -12.4 Q-30.5 -11.4 -28.55 -10.35 -26.6 -9.2 -25.65 -8.0 M-35.85 -11.4 L-34.95 -13.35 -34.95 -11.95 -33.45 -9.45 -32.7 -8.5 -33.35 -8.4 -33.65 -9.15 -35.3 -10.95 -35.85 -11.4 M-27.8 -1.0 L-27.55 -0.9 -27.6 -0.8 -27.8 -1.0 M-19.2 6.2 L-19.7 5.6 -21.5 5.2 Q-23.35 4.95 -24.3 3.05 L-24.5 2.7 -25.25 0.25 -24.85 0.15 -24.3 -0.35 -24.7 -0.7 -24.5 -0.7 -24.4 -1.0 Q-25.05 -1.75 -25.05 -2.2 L-24.6 -2.25 Q-23.0 -1.0 -22.25 -1.0 -15.45 -1.0 -14.6 -3.45 L-11.4 -3.45 -10.15 -3.75 -10.1 -3.95 Q-10.45 3.05 -14.6 3.05 L-18.3 3.0 -19.35 2.85 -20.6 1.55 -20.65 2.1 -19.2 4.4 -18.75 4.95 -16.9 7.7 -16.7 8.0 -16.85 8.85 Q-16.85 9.25 -14.6 10.05 L-13.9 10.3 -13.95 10.65 -13.7 11.4 -16.35 11.3 -17.75 10.6 -18.1 9.0 -18.6 9.25 -18.6 8.9 -18.55 8.6 Q-18.2 7.35 -18.45 6.9 L-19.2 6.2 M-11.0 -6.05 L-10.4 -5.95 -10.15 -5.45 -10.1 -5.2 -10.1 -5.0 -11.0 -6.05 M-3.95 3.5 L-4.2 3.65 -6.0 4.55 -6.0 4.45 -3.95 3.5 M-11.7 11.15 L-11.25 11.35 -11.85 11.55 -11.7 11.15 M-25.45 4.2 L-25.3 4.8 -25.4 4.85 -25.45 4.2" fill="#8c3c04" fill-rule="evenodd" stroke="none"/>
    <path d="M-0.9 -39.3 L-0.9 -38.9 1.05 -38.75 4.0 -37.85 Q6.25 -37.1 6.5 -36.45 5.8 -36.35 5.8 -35.6 L6.15 -34.75 4.9 -32.7 Q3.25 -30.8 3.25 -29.4 3.25 -27.5 1.65 -26.2 L-2.2 -22.75 0.35 -22.7 0.7 -20.45 0.5 -19.9 -0.2 -19.25 -0.8 -18.9 -1.5 -18.7 -2.25 -18.7 -5.3 -18.85 -5.5 -18.95 -6.15 -18.35 -7.4 -17.5 -8.6 -18.25 -10.0 -19.3 -9.25 -20.15 Q-7.15 -22.65 -7.15 -24.25 L-7.35 -24.75 Q-2.75 -26.45 -1.8 -27.25 -0.7 -28.15 -0.4 -30.45 -0.1 -32.55 1.95 -33.7 0.05 -35.7 -1.65 -35.9 L-4.05 -35.7 -6.15 -36.0 -5.95 -35.5 -6.35 -32.4 Q-6.35 -29.6 -8.25 -28.0 L-9.25 -28.0 -11.75 -28.0 -11.4 -30.5 -12.4 -30.45 -12.55 -30.5 -12.7 -30.55 -11.4 -32.35 Q-11.4 -33.25 -13.35 -35.4 L-12.7 -35.35 -11.55 -35.5 -11.55 -35.9 -13.0 -36.65 -12.85 -37.25 -11.3 -37.5 -9.25 -37.45 -8.7 -39.5 -7.6 -39.5 -5.2 -38.75 -4.5 -38.25 -3.15 -38.1 -1.85 -39.35 -2.5 -39.75 -0.9 -39.3 M-7.4 -37.0 L-7.6 -37.5 -8.15 -37.2 -7.4 -37.0 M-21.0 -14.5 Q-17.5 -14.5 -18.05 -12.85 L-18.45 -12.2 -15.25 -11.65 -12.7 -11.0 -12.05 -12.5 -12.05 -12.55 -11.95 -13.5 Q-11.85 -14.5 -10.7 -14.85 L-9.5 -15.0 Q-8.75 -15.0 -6.75 -13.85 L-6.6 -13.75 -5.6 -13.1 -5.25 -12.75 -4.35 -11.45 -4.55 -11.2 Q-7.45 -10.95 -7.6 -9.25 -9.65 -8.55 -12.7 -8.2 L-11.0 -6.05 -10.1 -5.0 -10.1 -4.45 -10.1 -3.95 -10.15 -3.75 -11.4 -3.45 -14.6 -3.45 Q-15.45 -1.0 -22.25 -1.0 -23.0 -1.0 -24.6 -2.25 -21.35 -2.9 -20.65 -3.45 L-26.25 -6.25 -25.9 -6.25 -25.2 -7.2 -25.1 -7.2 -25.05 -7.2 -23.9 -8.3 -23.85 -8.35 -22.15 -9.95 -22.3 -10.35 -22.25 -10.55 -21.45 -11.2 Q-21.45 -11.6 -22.75 -12.25 L-21.75 -13.0 -22.4 -13.75 -21.0 -14.5 M-33.75 -14.3 L-32.75 -14.45 -32.45 -14.45 Q-30.55 -14.3 -31.45 -12.4 L-32.4 -10.95 Q-32.4 -10.0 -30.5 -8.85 -28.55 -7.75 -28.55 -6.45 L-32.15 -5.7 -32.15 -5.65 -32.6 -6.1 -34.05 -7.5 -34.05 -7.65 Q-34.0 -8.25 -33.55 -8.35 L-33.35 -8.4 -32.7 -8.5 -33.45 -9.45 -34.95 -11.95 -34.95 -13.35 -34.75 -13.75 -33.75 -14.2 -33.75 -14.3 M-26.55 -6.75 L-26.4 -6.3 -26.85 -6.5 -26.55 -6.75 M-13.9 10.3 L-14.6 10.05 Q-16.85 9.25 -16.85 8.85 L-16.7 8.0 -16.6 7.6 Q-16.0 6.4 -14.35 5.6 L-13.9 5.4 -12.85 5.05 -6.65 3.3 -6.05 3.95 -6.0 4.45 -6.0 4.55 -13.0 8.6 -12.4 9.0 Q-13.7 9.35 -13.9 10.3 M-2.25 7.75 L-2.65 8.0 -3.1 7.65 -2.25 7.75 M-1.85 8.7 L-0.6 9.25 -0.95 9.6 -1.85 8.7 M-11.6 -22.75 L-11.6 -22.7 -11.75 -22.6 -11.6 -22.75 M-7.05 7.0 L-4.3 7.45 -7.3 8.4 -8.45 7.6 -7.05 7.0 M20.8 -38.95 L22.4 -38.7 21.7 -38.0 Q20.8 -38.25 20.8 -38.95 M22.5 -35.95 L22.5 -35.2 Q22.1 -35.5 22.1 -35.95 L22.5 -35.95" fill="#a05410" fill-rule="evenodd" stroke="none"/>
    <path d="M-2.5 -39.75 L-1.85 -39.35 -3.15 -38.1 -4.5 -38.25 -5.2 -38.75 -7.6 -39.5 -8.7 -39.5 -9.25 -37.45 -11.3 -37.5 -12.85 -37.25 -13.0 -36.65 -11.55 -35.9 -11.55 -35.5 -12.7 -35.35 -13.35 -35.4 Q-14.55 -35.6 -14.95 -36.6 L-17.4 -36.15 -17.5 -36.15 -17.4 -36.1 Q-15.65 -34.6 -15.65 -33.3 L-15.75 -32.75 -16.2 -32.5 -17.65 -33.15 -18.95 -35.4 -18.95 -35.45 -17.15 -37.2 -16.15 -37.95 Q-13.7 -39.65 -11.3 -39.65 -10.1 -39.65 -9.85 -40.25 L-9.85 -40.5 Q-10.7 -41.2 -10.8 -41.75 L-10.8 -42.0 -10.15 -42.25 Q-8.95 -42.25 -6.05 -41.25 L-4.15 -40.55 -3.1 -40.05 -2.5 -39.75 M-7.35 -24.75 L-7.15 -24.25 Q-7.15 -22.65 -9.25 -20.15 L-10.0 -19.3 Q-11.55 -17.85 -13.0 -17.45 L-14.05 -17.35 -16.0 -17.45 -16.4 -17.5 Q-16.4 -19.15 -14.75 -20.55 L-13.95 -21.2 -11.75 -22.6 -11.6 -22.7 -11.6 -22.75 Q-11.55 -24.2 -7.45 -24.85 L-7.35 -24.75 M6.15 -34.75 L5.8 -35.6 Q5.8 -36.35 6.5 -36.45 L6.75 -36.5 Q7.75 -36.5 8.5 -35.15 L9.9 -32.75 12.2 -29.15 12.35 -28.5 12.35 -26.9 Q12.35 -26.3 14.4 -25.2 L14.4 -25.1 Q13.5 -20.85 10.9 -22.25 L10.1 -22.0 Q11.85 -21.65 11.85 -20.95 L11.0 -20.35 8.2 -19.1 Q7.75 -19.1 7.75 -18.75 L7.7 -18.15 6.75 -18.15 6.75 -18.45 6.75 -19.1 Q6.75 -19.7 8.0 -20.25 L7.1 -21.4 7.05 -21.7 Q7.05 -22.15 9.15 -24.05 L10.2 -25.0 Q11.2 -26.2 11.2 -27.0 10.75 -27.45 10.75 -28.1 10.75 -28.5 7.95 -30.2 L6.4 -31.1 7.35 -33.0 6.15 -34.75 M-25.05 -22.25 Q-25.0 -21.9 -24.5 -22.0 L-24.6 -21.65 -26.2 -21.4 -23.65 -20.65 -23.6 -20.65 Q-22.4 -20.2 -22.4 -19.85 L-24.35 -17.0 Q-24.35 -16.35 -23.6 -16.0 L-20.8 -14.6 -21.0 -14.5 -22.4 -13.75 -21.75 -13.0 -22.75 -12.25 Q-21.45 -11.6 -21.45 -11.2 L-22.25 -10.55 -22.45 -10.5 -22.3 -10.35 -22.15 -9.95 -23.85 -8.35 -23.9 -8.3 -25.1 -7.2 -25.2 -7.2 -25.9 -6.25 -26.25 -6.25 -26.4 -6.25 -26.4 -6.3 -26.55 -6.75 Q-26.45 -6.75 -26.45 -6.8 L-25.65 -8.0 -24.15 -10.6 Q-23.55 -10.65 -23.55 -11.25 -24.15 -12.25 -24.15 -12.85 -24.15 -13.9 -23.55 -14.5 -23.65 -15.05 -24.75 -15.85 -25.75 -16.6 -25.75 -17.1 -24.8 -18.35 -24.8 -19.35 L-24.8 -19.4 Q-25.0 -19.1 -25.75 -19.1 -29.15 -19.1 -29.25 -21.0 L-29.25 -21.1 -29.1 -21.8 -27.3 -23.2 Q-26.15 -22.45 -25.05 -22.25 M-13.7 11.4 L-13.95 10.65 -13.9 10.3 Q-13.7 9.35 -12.4 9.0 L-13.0 8.6 -6.0 4.55 -4.2 3.65 -3.95 3.5 -2.5 2.55 Q0.7 0.2 0.7 -2.25 0.05 -2.8 0.05 -3.45 L0.6 -5.9 Q0.95 -7.0 2.3 -9.4 L2.3 -9.6 1.4 -8.95 -2.5 -9.25 Q-4.35 -9.25 -5.05 -8.65 L-5.45 -8.35 -5.9 -8.1 Q-7.6 -8.1 -7.6 -9.1 L-7.6 -9.25 Q-7.45 -10.95 -4.55 -11.2 L-3.45 -11.25 Q-2.7 -11.25 -1.95 -10.7 L-1.85 -10.65 -0.4 -11.2 4.3 -13.0 5.2 -12.95 Q7.25 -12.75 7.25 -11.35 7.25 -10.7 6.6 -10.5 6.6 -9.3 3.05 -6.6 2.55 -5.9 2.7 -4.45 L2.8 -2.5 Q0.5 3.5 -5.8 5.6 -5.9 6.35 -7.05 7.0 L-8.45 7.6 -10.9 8.4 -11.7 11.15 -11.85 11.55 -12.05 11.9 Q-13.2 11.9 -13.65 11.45 L-13.7 11.4 M2.6 -9.75 Q3.55 -9.75 3.85 -10.25 L3.55 -10.25 2.6 -9.75" fill="#89480e" fill-rule="evenodd" stroke="none"/>
    <path d="M28.7 -16.5 Q27.85 -16.75 27.85 -17.45 L29.4 -17.2 28.7 -16.5 M31.6 -8.75 Q31.6 -7.95 30.0 -7.25 L29.7 -7.35 28.45 -7.95 28.4 -9.45 30.0 -9.75 Q30.9 -9.75 31.6 -8.75 M26.8 -11.5 Q25.9 -11.75 25.9 -12.45 L27.5 -12.2 26.8 -11.5" fill="#120000" fill-rule="evenodd" stroke="none"/>
    <path d="M47.85 -24.0 Q46.95 -24.25 46.95 -24.95 L48.55 -24.7 47.85 -24.0 M-29.2 5.95 L-29.35 5.75 -29.2 5.8 -29.2 5.95" fill="#000000" fill-rule="evenodd" stroke="none"/>
  </g>
</svg>
