<?xml version="1.0" encoding="UTF-8" standalone="no"?>
<svg xmlns:xlink="http://www.w3.org/1999/xlink" height="59.5px" width="75.85px" xmlns="http://www.w3.org/2000/svg">
  <g transform="matrix(1.0, 0.0, 0.0, 1.0, 38.5, 46.5)">
    <path d="M-3.8 -43.95 Q-2.5 -43.85 -2.75 -43.1 L-3.25 -42.5 Q-3.25 -42.15 -2.7 -41.9 L-2.1 -41.45 -1.6 -40.75 -1.55 -40.6 -0.7 -40.55 Q1.75 -40.45 1.95 -39.35 L1.6 -39.2 -1.1 -38.4 -1.95 -37.65 -2.5 -37.4 -2.8 -37.4 -4.4 -37.5 -4.5 -37.6 -4.85 -38.0 -4.05 -39.15 -2.8 -40.05 -2.9 -40.35 -4.1 -41.9 Q-5.2 -43.0 -5.3 -43.75 L-5.35 -43.9 -4.4 -44.0 -3.8 -43.95 M-33.05 -3.55 Q-33.65 -3.7 -33.9 -4.2 L-34.05 -4.5 -34.05 -4.6 -34.15 -5.15 -34.15 -5.7 Q-34.15 -6.3 -33.4 -7.15 L-32.9 -7.65 -32.15 -8.65 Q-31.6 -9.7 -31.6 -11.2 -31.6 -11.95 -30.85 -12.1 L-30.6 -11.95 -28.55 -10.25 -28.2 -9.9 -30.1 -8.05 -30.35 -7.85 Q-30.35 -7.35 -29.65 -6.55 L-27.1 -4.15 -26.7 -3.2 -26.85 -2.35 -27.3 -2.25 -28.2 -2.25 Q-29.5 -2.25 -30.1 -3.1 -30.65 -4.0 -31.7 -4.0 L-32.0 -3.55 -32.45 -3.5 -32.75 -3.5 -32.95 -3.55 -33.05 -3.55 M13.7 -27.5 L14.9 -26.75 Q16.15 -25.85 16.3 -25.25 L19.35 -25.25 19.5 -24.55 18.65 -23.5 Q17.75 -22.8 16.6 -23.05 L16.5 -23.1 Q15.8 -22.2 15.8 -20.95 L15.8 -20.9 15.45 -20.75 15.0 -20.6 14.4 -21.0 15.35 -23.35 14.85 -24.25 Q14.45 -25.0 14.85 -25.35 L13.45 -26.15 Q12.45 -26.7 12.45 -27.0 L12.65 -27.5 13.25 -27.6 13.7 -27.5 M4.1 -12.95 Q4.3 -13.5 5.15 -13.5 L5.85 -13.45 6.5 -13.2 6.5 -12.85 6.1 -12.65 6.8 -12.65 7.5 -12.65 7.8 -12.25 7.45 -11.95 7.05 -11.65 Q7.05 -11.1 7.7 -10.05 L7.9 -9.65 8.0 -9.5 Q8.0 -8.5 6.55 -8.5 L6.3 -8.55 5.65 -8.65 Q5.45 -8.45 5.45 -9.05 6.6 -10.1 6.6 -10.5 L6.6 -10.65 6.5 -11.05 4.65 -12.6 4.05 -12.9 4.1 -12.95 M4.0 -7.7 L2.7 -6.5 Q0.9 -4.8 0.9 -2.75 L-0.35 -1.5 -5.0 3.0 -7.3 4.95 -7.45 5.1 -7.8 5.3 -8.45 5.5 -9.4 5.4 -9.9 5.1 -10.15 4.9 -10.35 4.25 Q-10.35 3.45 -9.2 3.1 -8.75 3.3 -8.75 3.75 L-8.05 3.6 Q-5.75 2.9 -4.65 0.9 L-4.2 0.2 Q-3.6 -0.6 -2.45 -0.8 L-1.95 -0.85 -1.25 -0.85 -0.8 -1.5 -1.25 -1.7 Q-1.85 -2.05 -1.85 -2.45 -1.85 -4.2 -0.25 -5.75 -1.05 -5.9 -1.05 -6.45 L3.35 -9.25 4.0 -8.95 4.5 -8.25 4.0 -7.7" fill="#480000" fill-rule="evenodd" stroke="none"/>
    <path d="M-3.8 -43.95 L-4.4 -44.0 -5.35 -43.9 -5.3 -43.75 Q-5.2 -43.0 -4.1 -41.9 L-2.9 -40.35 -3.15 -40.25 -3.45 -40.5 Q-6.25 -42.65 -7.3 -42.65 L-8.6 -42.3 -9.3 -42.05 -9.7 -41.9 -10.3 -41.8 Q-9.05 -42.4 -7.75 -43.9 L-6.85 -43.6 Q-6.35 -43.6 -6.15 -44.0 L-6.2 -44.2 Q-6.6 -45.35 -8.0 -45.65 L-8.05 -45.65 -8.1 -45.7 -7.85 -45.7 Q-5.8 -45.5 -3.8 -43.95 M1.6 -39.2 L1.95 -39.35 Q1.75 -40.45 -0.7 -40.55 L-1.1 -40.95 -1.35 -41.25 -1.05 -41.5 Q-0.45 -41.95 0.8 -42.05 L1.0 -42.05 1.3 -42.1 2.9 -42.5 3.4 -42.9 3.85 -43.3 3.85 -43.2 3.95 -42.9 Q4.3 -41.8 7.65 -40.85 L7.55 -40.85 7.95 -40.75 8.0 -40.75 Q8.0 -37.5 9.4 -37.5 L9.65 -37.5 7.8 -35.05 Q7.8 -33.55 9.05 -32.0 L8.9 -31.85 7.65 -33.4 7.3 -34.0 6.6 -35.2 5.45 -36.75 5.15 -37.35 4.55 -37.85 4.1 -38.15 2.55 -38.85 2.35 -38.9 1.6 -39.2 M-2.1 -41.45 L-2.7 -41.9 Q-3.25 -42.15 -3.25 -42.5 L-2.75 -43.1 -1.85 -42.2 -1.85 -42.0 -2.1 -41.45 M12.8 -40.2 L13.5 -40.05 12.85 -40.0 12.65 -40.0 12.6 -40.2 12.8 -40.2 M10.5 -36.5 L10.2 -36.55 9.9 -36.55 11.25 -37.05 11.2 -36.85 11.05 -36.65 10.5 -36.5 M9.85 -35.7 L11.95 -32.75 12.4 -32.15 13.85 -30.1 11.6 -31.75 Q9.9 -33.2 9.55 -34.5 L9.4 -35.35 9.55 -36.05 9.6 -36.2 9.6 -36.1 9.85 -35.7 M15.0 -17.45 L14.9 -17.15 Q14.5 -15.85 13.85 -15.35 L13.75 -16.15 13.75 -16.25 13.8 -16.35 15.0 -17.45 M7.75 -6.45 L7.9 -6.1 7.2 -6.0 6.85 -6.1 6.8 -6.2 6.95 -6.25 7.0 -6.35 7.75 -6.6 7.75 -6.45 M4.2 4.2 L4.0 5.0 3.35 5.0 1.3 4.5 2.2 4.25 2.8 4.1 3.7 4.25 3.85 4.25 4.2 4.2 M-9.05 6.95 L-9.4 7.0 -9.45 6.95 -9.5 6.9 -10.65 6.5 -8.85 6.6 -7.8 6.5 -8.3 6.7 -9.05 6.95 M-24.95 6.15 L-25.1 6.0 -25.1 5.65 -24.85 5.65 -24.15 6.05 Q-23.7 6.6 -23.2 6.6 L-22.75 6.4 -20.8 6.65 -21.45 6.75 -22.15 6.75 -23.35 6.65 -24.95 6.15 M-27.5 0.65 L-27.65 -0.2 -27.15 -0.15 -27.5 0.65 M-30.8 -1.8 Q-32.35 -2.6 -33.05 -3.55 L-32.95 -3.55 -32.75 -3.5 -31.5 -2.75 -30.85 -1.9 -30.8 -1.8 M-34.45 -23.7 L-34.6 -24.25 -35.15 -25.5 -34.7 -26.75 -34.05 -27.5 -33.6 -27.85 Q-34.35 -26.8 -34.35 -24.55 -34.35 -23.95 -33.75 -23.5 L-34.05 -22.65 -34.05 -22.9 -34.45 -23.7 M10.45 -29.0 L10.5 -28.95 11.25 -27.25 Q10.45 -27.95 10.45 -29.0 M16.6 -23.05 Q16.3 -22.5 16.3 -21.85 L16.55 -21.35 15.8 -20.95 Q15.8 -22.2 16.5 -23.1 L16.6 -23.05 M3.05 -12.9 L4.1 -12.95 4.05 -12.9 4.65 -12.6 6.5 -11.05 6.6 -10.65 5.95 -10.3 4.0 -8.95 3.35 -9.25 -1.05 -6.45 Q-1.05 -5.9 -0.25 -5.75 -1.85 -4.2 -1.85 -2.45 -1.85 -2.05 -1.25 -1.7 L-2.45 -0.8 Q-3.6 -0.6 -4.2 0.2 L-4.65 0.9 -8.05 3.55 -8.05 3.6 -8.75 3.75 Q-8.75 3.3 -9.2 3.1 -10.35 3.45 -10.35 4.25 L-10.15 4.9 -9.9 5.1 -11.7 5.15 -11.15 5.0 -12.05 5.0 -12.05 5.15 -13.65 5.25 Q-14.05 5.0 -14.4 4.9 L-14.3 4.5 -12.7 3.05 -14.05 2.45 -16.2 1.1 Q-14.65 1.4 -13.7 2.15 L-13.0 2.9 Q-11.05 2.7 -10.3 2.3 L-7.75 2.0 -6.75 1.5 Q-6.95 1.5 -6.95 0.9 L-6.5 0.3 -3.45 -1.6 -2.35 -4.75 -3.15 -4.85 -3.8 -4.6 -6.2 -3.85 Q-7.6 -3.85 -7.6 -4.75 L-4.65 -5.85 -3.35 -6.35 Q-1.6 -7.1 -1.4 -7.9 -0.95 -7.9 -0.9 -7.55 L-0.85 -7.6 3.0 -11.25 2.9 -11.25 2.1 -11.35 1.85 -11.85 2.85 -12.8 3.05 -12.9 M6.5 -12.85 L6.85 -12.75 6.8 -12.65 6.1 -12.65 6.5 -12.85 M-7.3 4.95 L-7.35 5.05 -7.45 5.1 -7.3 4.95 M-13.45 -40.85 L-13.2 -41.75 -12.85 -41.6 -12.55 -40.35 -13.35 -39.6 -13.2 -40.15 Q-13.1 -40.6 -13.45 -40.85 M-12.2 -38.5 L-11.15 -37.85 -10.35 -37.5 -10.2 -37.4 -8.85 -35.9 -9.2 -35.5 -10.65 -35.85 -11.05 -36.0 -11.8 -36.0 -11.95 -36.1 -12.45 -36.3 -13.4 -36.25 -13.0 -36.5 -11.95 -36.5 -11.0 -36.65 -11.75 -37.5 -13.6 -38.6 -13.35 -38.85 -12.2 -38.5 M-13.8 -35.95 L-13.8 -35.9 -13.85 -35.9 -13.8 -35.95 M-10.6 -33.0 L-10.15 -32.45 -10.15 -32.3 -10.35 -31.95 -10.6 -33.0 M-11.15 -20.45 L-10.45 -19.95 -10.1 -19.2 -10.0 -18.95 -10.35 -19.0 Q-11.4 -19.0 -11.4 -18.2 -11.4 -17.15 -10.0 -16.85 L-10.35 -16.65 Q-10.35 -15.95 -9.2 -14.85 L-7.3 -15.0 -7.35 -14.2 -6.0 -13.5 -4.75 -14.8 -3.7 -14.1 -5.7 -13.0 -6.65 -13.5 -8.75 -12.25 -11.35 -13.5 -13.25 -12.85 -13.4 -12.8 -13.45 -13.0 -14.95 -13.1 -15.55 -13.0 -14.4 -15.15 -14.6 -15.85 -14.95 -15.75 Q-16.6 -15.95 -17.5 -15.75 L-17.85 -15.6 -17.9 -15.6 Q-19.05 -14.25 -20.2 -14.25 L-22.4 -14.75 -23.1 -15.15 Q-23.9 -15.85 -23.0 -16.9 -25.1 -17.2 -25.5 -17.75 L-25.75 -18.5 -26.7 -18.0 -27.5 -19.45 -27.6 -20.05 -27.85 -20.1 -28.2 -21.25 -29.7 -20.4 -30.05 -20.85 -30.1 -21.15 Q-30.1 -22.0 -28.75 -22.65 L-25.5 -23.95 -24.5 -23.25 -23.45 -23.95 -23.2 -22.4 -20.65 -22.05 -20.4 -22.0 -19.6 -21.9 -17.15 -22.6 Q-13.6 -22.6 -14.3 -20.85 -13.55 -21.05 -13.15 -20.5 L-12.25 -20.6 -11.15 -20.45 M-8.6 -18.25 L-8.25 -18.5 -7.85 -18.4 -8.6 -18.25 M-4.05 -18.4 L-3.9 -18.4 -3.9 -18.35 -4.05 -18.4 M-18.1 -32.4 L-15.45 -34.15 -13.15 -32.4 Q-12.65 -31.95 -13.0 -30.65 -13.4 -29.4 -12.55 -28.85 L-16.85 -28.3 -17.65 -28.75 Q-20.05 -29.95 -21.1 -30.1 L-18.35 -32.0 -18.1 -32.4 M-15.3 -27.1 L-13.35 -27.0 -11.25 -27.15 -11.4 -27.1 -15.25 -26.75 -15.25 -26.85 -15.3 -27.1 M-10.35 -28.45 L-10.45 -28.9 -10.3 -30.7 -10.15 -30.3 -10.35 -28.45 M-21.0 -34.3 L-21.05 -34.3 -21.1 -34.25 -21.15 -34.5 -21.3 -35.05 -21.3 -35.1 -21.0 -34.3 M-23.8 -29.75 L-24.95 -28.7 -24.95 -28.75 -24.85 -29.05 -24.05 -29.75 -23.8 -29.75 M-19.4 -11.75 L-17.9 -11.75 -17.8 -11.75 -17.75 -11.65 -18.55 -10.85 -18.45 -10.25 -21.95 -10.1 -22.05 -9.85 -22.05 -9.75 -22.6 -9.75 Q-23.35 -9.25 -24.15 -9.25 L-24.5 -9.25 -24.95 -9.85 -25.75 -10.6 -25.65 -10.85 Q-25.4 -11.6 -24.15 -11.75 L-19.4 -11.75 M-19.45 -7.15 L-19.4 -7.45 -19.4 -7.5 -19.05 -7.95 -19.05 -8.75 Q-14.6 -8.65 -14.6 -9.5 L-13.95 -11.5 -13.65 -11.8 -13.1 -11.1 Q-11.8 -11.0 -9.85 -9.85 -8.25 -9.45 -8.25 -8.55 -8.25 -8.05 -10.15 -6.45 L-12.5 -4.65 Q-11.75 -5.8 -11.75 -6.45 -11.75 -7.35 -13.0 -7.35 L-14.1 -7.0 -14.15 -7.35 -15.25 -7.5 -17.35 -7.0 -18.95 -7.25 -19.45 -7.15 M3.15 -22.2 L3.25 -22.35 Q2.85 -22.35 2.15 -23.0 3.8 -23.9 6.35 -24.55 L9.85 -24.9 10.25 -24.85 10.55 -24.75 10.6 -25.0 10.75 -25.75 Q10.9 -26.4 11.65 -26.75 L12.8 -25.5 13.3 -25.75 13.45 -26.15 14.85 -25.35 Q14.45 -25.0 14.85 -24.25 L15.35 -23.35 14.4 -21.0 15.0 -20.6 15.45 -20.75 6.75 -16.1 6.4 -16.25 Q6.05 -17.5 5.15 -17.5 L4.75 -17.55 5.15 -18.85 Q5.15 -20.6 3.05 -20.6 L2.2 -20.5 2.15 -20.7 2.65 -21.35 3.15 -22.2 M-4.75 -16.95 L-4.55 -17.0 -4.4 -16.5 -4.75 -16.95 M-13.35 -3.8 L-13.8 -2.55 Q-14.05 -1.1 -14.95 -0.75 -15.65 -0.9 -15.75 -1.55 L-13.35 -3.8 M-15.75 -1.5 Q-15.95 -1.15 -15.55 -0.5 L-16.2 1.1 -17.8 0.1 -15.75 -1.5 M2.45 -4.6 L2.45 -4.65 2.65 -4.6 2.45 -4.6 M3.0 -2.5 Q2.55 -3.4 2.45 -4.5 2.7 -3.3 4.45 -1.45 L5.6 -0.1 5.9 0.4 3.0 -2.5 M15.15 -40.0 L15.2 -40.0 Q16.3 -39.8 16.3 -38.75 L16.1 -38.15 16.15 -38.95 Q16.15 -39.75 15.15 -40.0 M-13.15 4.85 L-13.25 4.75 -13.45 4.8 -13.15 4.85 M-11.55 6.45 L-13.0 6.75 -13.35 6.75 -13.35 6.35 -11.55 6.45 M-25.85 3.85 L-25.75 3.65 -25.1 4.2 -25.2 4.5 -25.85 3.85" fill="#6c2000" fill-rule="evenodd" stroke="none"/>
    <path d="M-1.6 -40.75 L-2.1 -41.45 -1.85 -42.0 -1.4 -41.5 -1.05 -41.5 -1.35 -41.25 -1.1 -40.95 -1.6 -40.75 M1.0 -42.05 L1.4 -42.2 3.05 -42.75 3.4 -42.9 2.9 -42.5 1.3 -42.1 1.0 -42.05 M7.7 -44.4 L8.2 -44.3 Q9.1 -44.15 9.1 -43.55 L9.1 -43.45 11.05 -41.95 9.75 -42.75 7.7 -44.4 M11.4 -41.6 L11.65 -41.3 11.4 -41.45 11.4 -41.6 M6.85 -6.1 L5.85 -5.4 5.8 -5.35 6.05 -5.75 6.8 -6.2 6.85 -6.1 M3.0 -4.6 L2.8 -4.4 Q2.8 -3.1 4.65 -1.85 6.4 -0.65 6.4 0.65 L6.4 0.9 6.1 1.6 6.05 1.65 6.05 1.6 6.1 1.25 6.1 0.55 5.9 0.4 5.6 -0.1 4.45 -1.45 Q2.7 -3.3 2.45 -4.5 L2.45 -4.6 2.65 -4.6 3.0 -4.6 M-10.2 7.0 L-13.45 7.15 -13.35 6.75 -13.0 6.75 -11.55 6.45 -10.65 6.5 -9.5 6.9 -10.2 7.0 M-15.35 7.15 L-17.05 6.9 -17.1 6.85 -15.35 7.15 M-18.25 6.75 L-20.55 7.1 Q-23.35 7.1 -24.95 6.15 L-23.35 6.65 -22.15 6.75 -21.45 6.75 -20.8 6.65 -18.25 6.75 M-25.1 6.0 L-26.45 4.35 -26.55 4.15 -25.95 4.0 -25.85 3.85 -25.2 4.5 -25.25 4.95 -25.25 5.0 -24.85 5.65 -25.1 5.65 -25.1 6.0 M-34.55 -6.9 L-34.7 -7.0 -34.55 -7.1 -34.55 -6.9 M-36.85 -18.1 L-36.4 -21.4 -34.45 -23.7 -34.05 -22.9 -34.05 -22.65 -35.6 -20.6 -35.85 -20.35 Q-35.85 -19.15 -36.85 -18.1 M-34.6 -24.25 Q-35.45 -25.35 -35.45 -25.8 L-34.7 -26.75 -35.15 -25.5 -34.6 -24.25 M-25.05 -30.0 L-24.15 -30.35 -23.0 -30.5 -23.8 -29.75 -24.05 -29.75 -24.85 -29.05 -24.95 -29.75 -25.05 -30.0 M-21.3 -35.0 L-21.5 -35.75 -21.8 -38.7 -21.45 -40.2 -21.35 -40.5 -21.3 -36.1 -21.5 -35.75 -21.3 -35.1 -21.3 -35.05 -21.15 -34.5 -21.3 -35.0 M8.9 -31.85 L8.5 -31.35 7.45 -31.9 3.75 -33.5 Q3.8 -36.3 2.3 -37.3 L2.3 -37.9 3.25 -38.25 4.1 -38.15 4.55 -37.85 5.15 -37.35 5.45 -36.75 6.6 -35.2 7.2 -34.0 7.3 -34.0 7.65 -33.4 8.9 -31.85 M2.35 -13.35 L3.05 -12.9 2.85 -12.8 1.85 -11.85 2.1 -11.35 2.9 -11.25 3.0 -11.25 -0.85 -7.6 -0.9 -7.55 Q-0.95 -7.9 -1.4 -7.9 -1.6 -7.1 -3.35 -6.35 L-4.65 -5.85 -7.6 -4.75 Q-7.6 -3.85 -6.2 -3.85 L-3.8 -4.6 -3.15 -4.85 -2.35 -4.75 -3.45 -1.6 -6.5 0.3 -6.95 0.9 Q-6.95 1.5 -6.75 1.5 L-7.75 2.0 -10.3 2.3 Q-11.05 2.7 -13.0 2.9 L-13.7 2.15 Q-14.65 1.4 -16.2 1.1 L-15.55 -0.5 Q-15.95 -1.15 -15.75 -1.5 L-15.75 -1.55 Q-15.65 -0.9 -14.95 -0.75 -14.05 -1.1 -13.8 -2.55 L-13.35 -3.8 -12.65 -4.55 -12.55 -4.65 -12.5 -4.65 -10.15 -6.45 Q-8.25 -8.05 -8.25 -8.55 -8.25 -9.45 -9.85 -9.85 -11.8 -11.0 -13.1 -11.1 L-13.65 -11.8 -13.35 -12.45 -13.0 -12.25 -13.25 -12.85 -11.35 -13.5 -8.75 -12.25 -6.65 -13.5 -5.7 -13.0 -3.7 -14.1 -3.4 -13.9 Q-1.6 -12.75 -0.45 -12.75 L2.35 -13.35 M-8.6 -42.3 L-9.25 -41.6 -9.7 -41.9 -9.3 -42.05 -8.6 -42.3 M-10.15 -32.3 Q-7.4 -32.2 -7.9 -31.3 L-8.55 -30.35 Q-6.35 -29.2 -6.35 -28.6 -6.35 -27.85 -7.15 -26.8 -8.05 -25.75 -8.05 -24.6 L-9.0 -23.25 -9.85 -22.4 -10.85 -20.8 -11.15 -20.45 -12.25 -20.6 -13.15 -20.5 Q-13.55 -21.05 -14.3 -20.85 -13.6 -22.6 -17.15 -22.6 L-19.6 -21.9 -20.4 -22.0 -17.65 -23.85 Q-16.95 -23.85 -13.35 -22.1 L-12.5 -22.5 -12.4 -22.85 -12.45 -22.9 Q-11.0 -23.1 -11.0 -23.95 -11.55 -25.85 -12.7 -25.85 L-14.4 -25.2 -16.65 -25.75 Q-15.3 -25.75 -15.25 -26.75 L-11.4 -27.1 -11.25 -27.15 Q-9.85 -27.5 -9.85 -28.35 L-10.35 -28.45 -10.15 -30.3 -10.3 -30.7 -10.35 -31.95 -10.15 -32.3 M1.65 -34.65 L2.1 -34.2 2.0 -34.05 1.65 -34.65 M-30.6 -11.95 L-30.4 -12.2 -30.2 -12.7 -30.5 -13.25 Q-31.1 -13.9 -33.4 -14.4 L-33.1 -14.5 -30.85 -16.9 -30.3 -17.75 -28.9 -16.6 Q-28.0 -16.0 -28.0 -15.35 L-28.35 -14.35 -28.3 -14.35 -27.6 -13.6 -29.25 -13.75 -29.4 -13.05 Q-29.4 -12.6 -26.85 -11.4 L-26.9 -10.3 -24.95 -9.85 -24.5 -9.25 -25.85 -9.0 -28.55 -10.25 -30.6 -11.95 M-29.8 -18.8 L-29.8 -18.95 Q-29.25 -19.6 -29.25 -20.2 L-29.7 -20.4 -28.2 -21.25 -27.85 -20.1 -27.6 -20.05 -27.5 -19.45 -28.65 -19.6 -29.5 -19.1 -29.8 -18.8 M-22.45 -24.95 L-22.15 -25.5 -21.5 -25.15 -22.45 -24.95 M-19.95 -25.45 L-19.9 -26.5 -18.75 -26.75 Q-18.45 -26.75 -16.7 -25.75 L-17.8 -26.0 -19.95 -25.45 M-20.65 -22.05 L-23.2 -22.4 -22.45 -22.4 -20.65 -22.05 M-17.9 -11.75 L-17.3 -12.05 -17.4 -11.95 -17.75 -11.65 -17.8 -11.75 -17.9 -11.75 M-34.35 -7.95 L-34.45 -8.25 -34.35 -8.1 -34.35 -7.95 M10.6 -25.0 L10.55 -24.75 10.25 -24.85 10.55 -25.0 10.6 -25.0 M15.2 -40.0 Q16.05 -40.0 16.4 -39.5 L16.4 -39.45 16.4 -39.3 16.5 -38.95 Q16.5 -38.25 16.0 -37.8 L16.1 -38.15 16.3 -38.75 Q16.3 -39.8 15.2 -40.0 M14.85 -37.2 L13.45 -36.95 11.6 -36.85 11.2 -36.85 11.25 -37.05 14.85 -37.2 M-12.05 5.15 L-12.05 5.0 -11.15 5.0 -11.7 5.15 -12.05 5.15 M-13.15 4.85 L-13.45 4.8 -13.25 4.75 -13.15 4.85 M-7.55 6.4 L-7.4 6.4 -8.3 6.7 -7.8 6.5 -7.55 6.4" fill="#8c3c04" fill-rule="evenodd" stroke="none"/>
    <path d="M1.4 -42.2 L1.6 -42.4 Q2.1 -42.95 2.85 -43.1 L3.25 -43.15 3.05 -42.75 1.4 -42.2 M11.65 -41.3 L11.85 -41.2 12.8 -40.2 12.6 -40.2 11.65 -41.3 M16.3 -39.65 Q16.85 -39.1 16.75 -37.95 L15.9 -37.7 16.0 -37.8 Q16.5 -38.25 16.5 -38.95 L16.4 -39.3 16.4 -39.45 16.4 -39.5 16.3 -39.65 M15.1 -37.25 L14.75 -37.0 Q14.05 -36.4 12.6 -36.6 L13.45 -36.95 14.85 -37.2 15.1 -37.25 M18.7 -20.1 L17.85 -19.65 18.6 -20.25 18.7 -20.1 M14.85 -7.6 L14.85 -6.45 14.15 -7.5 14.85 -7.6 M9.65 -8.5 L8.95 -8.0 8.95 -8.2 9.65 -8.5 M8.2 -6.6 L7.75 -6.45 7.75 -6.6 8.2 -6.6 M5.85 -5.4 Q5.6 -4.0 4.65 -3.45 L4.3 -3.95 4.25 -4.6 5.35 -4.65 5.55 -5.1 5.8 -5.35 5.85 -5.4 M6.4 0.9 L6.55 1.55 6.1 1.6 6.4 0.9 M4.0 5.0 L4.0 5.05 3.35 5.0 4.0 5.0 M-6.75 6.4 L-6.95 6.5 -9.05 6.95 -8.3 6.7 -7.4 6.4 -6.75 6.4 M-9.45 6.95 L-10.2 7.0 -9.5 6.9 -9.45 6.95 M-34.5 -7.35 L-34.45 -8.25 -34.35 -7.95 -34.5 -7.35 M-30.4 -28.35 L-30.1 -28.2 -30.05 -28.15 -30.4 -28.35 M-24.15 -30.35 L-21.7 -31.75 -23.0 -30.5 -24.15 -30.35 M-21.7 -33.9 L-21.75 -34.3 -21.3 -35.0 -21.15 -34.5 -21.1 -34.25 -21.7 -33.9 M-21.45 -40.2 L-21.6 -41.2 Q-21.55 -42.05 -20.8 -42.6 L-20.85 -42.45 Q-21.25 -41.75 -21.35 -40.5 L-21.45 -40.2 M-12.75 -44.3 L-12.45 -44.35 -12.65 -44.25 -12.75 -44.3 M-8.3 -45.85 L-8.25 -45.85 -8.1 -45.75 -8.15 -45.75 -8.3 -45.85 M-1.75 -20.0 L-3.45 -20.5 -2.95 -20.55 -1.75 -20.0 M-5.7 -21.9 L-5.8 -22.15 -5.3 -22.95 -5.7 -21.9 M-3.7 -27.0 L-3.65 -27.7 -3.5 -27.55 -3.7 -27.0 M1.65 -34.65 L2.0 -34.05 1.95 -34.0 3.15 -32.0 Q4.5 -30.0 5.45 -30.0 L5.85 -30.1 6.5 -29.4 6.15 -29.35 3.5 -28.2 1.4 -27.0 Q0.7 -27.0 -1.85 -29.4 -4.4 -31.8 -4.4 -32.6 L-0.95 -35.4 0.05 -36.15 1.65 -34.65 M-34.6 -45.45 L-34.6 -46.0 -31.5 -46.0 -33.1 -44.75 -34.6 -45.45 M-17.5 -15.75 Q-16.6 -15.95 -14.95 -15.75 L-14.6 -15.85 -14.4 -15.15 -15.55 -13.0 -17.3 -12.05 -17.9 -11.75 -19.4 -11.75 -19.65 -11.95 -19.5 -12.25 -19.6 -12.4 -16.95 -12.8 Q-16.2 -12.75 -16.2 -13.05 -16.2 -13.85 -17.3 -15.05 L-17.6 -15.4 -17.5 -15.75 M-13.4 -12.8 L-13.25 -12.85 -13.0 -12.25 -13.35 -12.45 -13.35 -12.6 -13.4 -12.8 M-0.6 -25.45 L-0.65 -25.4 -0.8 -25.4 -0.7 -25.5 -0.6 -25.45 M-3.15 -22.6 L-2.95 -22.85 -2.9 -22.6 -3.15 -22.6 M19.8 -41.0 L19.15 -41.35 18.9 -41.95 20.5 -41.7 19.8 -41.0 M26.7 -30.25 L26.15 -30.0 Q25.3 -30.25 25.3 -30.95 L26.3 -30.85 26.7 -30.25 M6.15 5.55 L7.75 5.8 7.05 6.5 Q6.15 6.25 6.15 5.55" fill="#d4a83c" fill-rule="evenodd" stroke="none"/>
    <path d="M3.85 -43.3 L3.85 -43.45 3.95 -43.65 4.75 -44.2 4.85 -44.25 Q5.8 -44.75 6.75 -44.75 L7.7 -44.4 9.75 -42.75 11.05 -41.95 11.4 -41.7 11.4 -41.6 11.4 -41.45 11.65 -41.3 12.6 -40.2 12.65 -40.0 12.85 -40.0 13.5 -40.05 14.2 -40.1 15.15 -40.0 Q16.15 -39.75 16.15 -38.95 L16.1 -38.15 16.0 -37.8 15.9 -37.7 15.55 -37.4 15.1 -37.25 14.85 -37.2 11.25 -37.05 9.9 -36.55 9.6 -36.2 9.55 -36.05 9.4 -35.35 9.55 -34.5 Q9.9 -33.2 11.6 -31.75 L13.85 -30.1 Q18.0 -27.45 18.2 -26.95 L18.4 -26.85 19.75 -26.8 23.5 -26.75 23.55 -26.5 23.6 -25.7 Q23.6 -24.7 22.8 -23.75 L20.95 -22.05 Q20.45 -21.45 20.45 -20.9 20.45 -19.85 19.15 -19.85 L18.7 -20.1 18.6 -20.25 18.6 -20.3 17.95 -19.95 14.4 -17.3 Q13.8 -16.75 13.75 -16.25 L13.75 -16.15 13.85 -15.35 14.15 -14.1 14.7 -14.0 14.85 -12.05 14.9 -9.5 15.0 -8.8 15.0 -8.3 14.9 -7.65 14.85 -7.6 14.15 -7.5 13.75 -7.5 12.55 -8.15 11.65 -8.65 10.6 -9.0 8.95 -8.4 8.95 -8.2 8.95 -8.0 Q8.95 -7.45 9.6 -7.2 L9.4 -6.6 8.2 -6.6 7.75 -6.6 7.0 -6.35 6.95 -6.25 6.8 -6.2 6.05 -5.75 5.8 -5.35 5.55 -5.1 5.35 -5.0 4.2 -4.7 3.1 -4.85 2.6 -5.0 2.45 -4.75 2.45 -4.65 2.45 -4.6 2.45 -4.5 Q2.55 -3.4 3.0 -2.5 L4.0 -1.3 4.75 -0.6 Q5.45 0.15 5.45 0.7 L5.15 1.9 3.95 3.6 2.2 4.25 1.3 4.5 -0.15 4.8 Q-5.7 5.9 -6.65 6.35 L-6.7 6.35 -6.75 6.4 -7.4 6.4 -7.55 6.4 -13.35 6.15 -13.35 6.35 -13.35 6.75 -13.45 7.15 -14.3 7.35 -15.35 7.15 -17.1 6.85 -17.6 6.75 -18.75 6.65 -21.8 5.9 -22.75 6.4 -23.2 6.6 Q-23.7 6.6 -24.15 6.05 L-25.1 4.2 -25.75 3.65 -25.85 3.85 -25.95 4.0 -26.55 4.15 -26.7 4.15 Q-27.55 4.15 -27.65 3.35 L-27.65 2.45 -27.5 0.65 -27.15 -0.15 -27.65 -0.2 Q-29.45 -0.4 -30.8 -1.8 L-30.85 -1.9 -31.5 -2.75 -32.0 -3.55 -31.7 -4.0 Q-30.65 -4.0 -30.1 -3.1 -29.5 -2.25 -28.2 -2.25 L-27.3 -2.25 -26.1 -1.45 Q-25.25 -2.0 -24.05 -2.0 L-23.6 -1.95 Q-21.6 -1.85 -19.85 -0.25 L-20.15 0.0 -21.6 0.25 Q-22.95 0.25 -23.4 0.75 -22.4 0.95 -22.15 1.35 L-24.15 2.75 -24.35 3.0 -22.3 4.0 -20.55 3.5 Q-19.4 3.5 -19.45 4.05 -19.65 4.7 -18.6 4.75 L-15.9 4.9 -9.4 5.4 -8.45 5.5 -7.8 5.3 -7.4 5.25 -7.35 5.05 -7.3 4.95 -5.0 3.0 Q-2.95 1.95 0.7 0.9 L-0.35 -1.5 0.9 -2.75 Q0.9 -4.8 2.7 -6.5 L4.0 -7.7 4.5 -7.75 5.1 -7.65 6.3 -8.55 6.55 -8.5 Q8.0 -8.5 8.0 -9.5 L7.9 -9.65 8.2 -9.9 7.8 -10.0 7.7 -10.05 Q7.05 -11.1 7.05 -11.65 L7.45 -11.95 7.8 -12.25 7.5 -12.65 6.8 -12.65 6.85 -12.75 6.5 -12.85 6.5 -13.2 5.85 -13.45 5.15 -13.5 Q4.3 -13.5 4.1 -12.95 L3.05 -12.9 2.35 -13.35 2.3 -13.85 Q2.9 -13.95 2.9 -14.6 2.9 -15.5 2.3 -15.5 1.45 -15.5 1.0 -16.15 L0.25 -17.25 Q0.45 -17.6 1.15 -17.6 3.35 -17.6 3.75 -16.75 4.0 -16.3 3.75 -15.6 3.75 -15.2 5.45 -14.5 L7.7 -15.35 11.95 -13.45 Q12.1 -20.0 17.05 -21.0 L16.55 -21.35 16.3 -21.85 Q16.3 -22.5 16.6 -23.05 17.75 -22.8 18.65 -23.5 L19.5 -24.55 19.35 -25.25 16.3 -25.25 Q16.15 -25.85 14.9 -26.75 L13.7 -27.5 13.55 -28.0 13.6 -28.25 13.05 -28.6 12.15 -28.35 Q11.2 -28.35 10.55 -28.9 L10.5 -28.95 10.45 -29.0 10.35 -29.05 8.95 -29.5 Q9.1 -29.2 7.7 -28.6 7.05 -28.8 7.05 -29.35 L8.5 -31.35 8.9 -31.85 9.05 -32.0 Q7.8 -33.55 7.8 -35.05 L9.65 -37.5 9.4 -37.5 Q8.0 -37.5 8.0 -40.75 L7.95 -40.75 7.65 -40.85 Q4.3 -41.8 3.95 -42.9 L3.85 -43.2 3.85 -43.3 M-36.55 -12.5 Q-38.5 -15.1 -38.5 -16.1 -38.5 -16.75 -37.15 -17.85 L-36.85 -18.1 Q-35.85 -19.15 -35.85 -20.35 L-35.6 -20.6 -34.05 -22.65 -33.75 -23.5 Q-34.35 -23.95 -34.35 -24.55 -34.35 -26.8 -33.6 -27.85 -32.9 -28.75 -31.7 -28.75 L-30.4 -28.35 -30.05 -28.15 -29.25 -27.75 Q-27.05 -27.75 -26.8 -29.0 -26.55 -30.25 -25.75 -30.25 L-25.05 -30.0 -24.95 -29.75 -24.85 -29.05 -24.95 -28.75 -24.95 -28.7 Q-24.95 -25.6 -27.85 -25.6 L-29.7 -25.9 Q-30.1 -26.25 -30.4 -26.25 L-32.9 -21.95 Q-32.9 -21.45 -30.5 -19.15 L-30.35 -19.0 -30.55 -18.8 -31.8 -18.1 -33.6 -18.6 -36.3 -15.65 Q-35.4 -15.2 -33.8 -13.1 -32.15 -10.9 -32.15 -10.0 L-32.4 -9.0 -32.15 -8.65 -32.9 -7.65 -33.4 -7.15 -33.4 -7.4 -34.25 -8.6 -34.55 -8.65 -34.5 -9.1 -34.55 -9.25 -34.5 -9.6 -34.5 -9.9 -36.55 -12.5 M-21.25 -32.15 L-21.8 -32.25 -22.15 -32.95 Q-22.15 -33.5 -21.7 -33.9 L-21.1 -34.25 -21.05 -34.3 -21.0 -34.3 -20.05 -35.1 -21.15 -39.5 -21.15 -39.75 Q-21.15 -41.6 -20.85 -42.45 L-20.8 -42.6 -20.35 -43.15 -20.15 -43.2 -19.7 -43.35 -16.2 -43.75 Q-15.5 -44.65 -14.6 -44.65 L-12.75 -44.3 -12.65 -44.25 -12.5 -44.15 -10.35 -45.05 -9.05 -45.75 -8.05 -45.65 -8.0 -45.65 Q-6.6 -45.35 -6.2 -44.2 L-6.15 -44.0 Q-6.35 -43.6 -6.85 -43.6 L-7.75 -43.9 -9.15 -44.4 Q-10.7 -43.4 -14.25 -43.4 -14.25 -42.55 -19.25 -42.15 L-19.25 -39.25 Q-18.25 -36.15 -18.25 -35.3 -18.25 -34.65 -19.15 -33.5 -20.05 -32.25 -21.05 -32.15 L-21.25 -32.15 M-4.75 -14.8 L-6.0 -13.5 -7.35 -14.2 -7.3 -15.0 -9.2 -14.85 Q-10.35 -15.95 -10.35 -16.65 L-10.0 -16.85 -9.85 -17.1 -8.25 -17.4 -7.3 -16.9 -6.2 -17.85 Q-5.5 -17.85 -4.75 -16.95 L-4.4 -16.5 -4.1 -16.05 -4.75 -14.8 M-24.5 -9.25 L-24.15 -9.25 Q-23.35 -9.25 -22.6 -9.75 L-22.05 -9.75 Q-20.1 -9.65 -19.6 -8.9 L-19.4 -7.5 -19.4 -7.45 -19.45 -7.15 -20.85 -5.75 -22.6 -4.65 Q-23.85 -4.65 -24.05 -5.7 -24.15 -6.75 -27.25 -6.75 L-28.75 -6.85 Q-28.95 -6.6 -28.95 -7.25 -28.95 -7.6 -27.4 -8.4 L-25.85 -9.0 -24.5 -9.25 M37.35 -35.25 Q37.35 -34.45 35.75 -33.75 34.8 -34.0 34.2 -34.45 L34.15 -35.95 35.75 -36.25 Q36.6 -36.25 37.35 -35.25 M29.75 -41.95 L31.35 -41.7 30.65 -41.0 Q29.75 -41.25 29.75 -41.95 M30.4 -36.95 L31.95 -36.7 31.25 -36.0 Q30.4 -36.25 30.4 -36.95 M26.3 -30.85 L26.85 -30.7 26.7 -30.3 26.7 -30.25 26.3 -30.85 M33.2 -27.0 Q32.3 -27.25 32.3 -27.95 L33.9 -27.7 33.2 -27.0" fill="#300000" fill-rule="evenodd" stroke="none"/>
    <path d="M14.2 -40.1 L14.85 -40.15 Q16.0 -40.15 16.3 -39.65 L16.4 -39.5 Q16.05 -40.0 15.2 -40.0 L15.15 -40.0 14.2 -40.1 M12.6 -36.6 L11.5 -36.4 10.5 -36.5 11.05 -36.65 11.2 -36.85 11.6 -36.85 13.45 -36.95 12.6 -36.6 M10.2 -36.55 L9.85 -35.7 9.6 -36.1 9.6 -36.2 9.9 -36.55 10.2 -36.55 M11.95 -32.75 L12.45 -32.25 12.4 -32.15 11.95 -32.75 M-8.1 -45.75 L-7.85 -45.7 -8.1 -45.7 -8.15 -45.75 -8.1 -45.75 M7.65 -40.85 L7.95 -40.75 7.55 -40.85 7.65 -40.85 M-13.35 -39.6 L-12.55 -40.35 -12.85 -41.6 -10.3 -41.8 -9.7 -41.9 -9.25 -41.6 -10.55 -41.1 Q-12.55 -40.5 -12.55 -38.95 L-12.2 -38.5 -13.35 -38.85 -13.6 -38.6 -13.65 -38.65 -13.35 -39.6 M-10.2 -37.4 L-10.1 -37.4 -9.4 -37.5 -9.0 -37.75 -8.85 -37.5 Q-9.15 -36.3 -6.7 -34.75 L-7.3 -32.4 Q-7.3 -31.85 -4.85 -29.0 L-3.65 -27.7 -3.7 -27.0 -5.3 -22.95 -5.8 -22.15 -5.7 -21.9 -5.75 -21.75 -8.85 -21.6 Q-10.0 -21.45 -10.0 -20.7 L-9.95 -19.95 Q-9.6 -19.25 -8.15 -19.25 -6.25 -19.25 -4.1 -20.5 L-3.45 -20.5 -1.75 -20.0 -0.65 -19.35 0.9 -18.7 Q-0.35 -18.75 -0.65 -18.4 L-0.95 -18.1 -2.35 -18.25 Q-2.8 -18.25 -3.25 -17.85 L-3.9 -18.35 -3.9 -18.4 -4.05 -18.4 -7.3 -18.85 -7.85 -18.4 -8.25 -18.5 -8.6 -18.25 -8.75 -18.25 Q-9.4 -18.85 -10.0 -18.95 L-10.1 -19.2 -10.45 -19.95 -11.15 -20.45 -10.85 -20.8 -9.85 -22.4 -9.0 -23.25 -8.05 -24.6 Q-8.05 -25.75 -7.15 -26.8 -6.35 -27.85 -6.35 -28.6 -6.35 -29.2 -8.55 -30.35 L-7.9 -31.3 Q-7.4 -32.2 -10.15 -32.3 L-10.15 -32.45 -10.6 -33.0 Q-11.1 -34.2 -12.25 -34.3 L-12.55 -34.35 -13.55 -34.25 -13.95 -35.75 -13.85 -35.9 -13.8 -35.9 -13.8 -35.95 -13.4 -36.25 -12.45 -36.3 -11.95 -36.1 -11.8 -36.0 -11.05 -36.0 -10.65 -35.85 -9.2 -35.5 -8.85 -35.9 -10.2 -37.4 M-16.65 -25.75 L-14.4 -25.2 Q-15.8 -24.55 -16.0 -24.0 -14.25 -22.9 -13.2 -22.9 L-12.45 -22.9 -12.4 -22.85 -12.5 -22.5 -13.35 -22.1 Q-16.95 -23.85 -17.65 -23.85 L-20.4 -22.0 -20.65 -22.05 -22.45 -22.4 -23.2 -22.4 -23.45 -23.95 -22.45 -24.95 -21.5 -25.15 -21.0 -24.85 Q-20.2 -24.85 -20.05 -25.15 L-19.95 -25.45 -17.8 -26.0 -16.7 -25.75 -16.65 -25.75 M2.35 -38.9 L2.55 -38.85 4.1 -38.15 3.25 -38.25 2.3 -37.9 2.3 -37.3 1.6 -37.6 1.65 -37.75 2.35 -38.9 M6.6 -35.2 L7.3 -34.0 7.2 -34.0 6.6 -35.2 M8.35 -26.75 L9.4 -27.9 9.4 -27.8 8.35 -26.75 M-30.3 -17.75 L-29.8 -18.8 -29.5 -19.1 -28.65 -19.6 -27.5 -19.45 -26.7 -18.0 -25.75 -18.5 -25.5 -17.75 Q-25.1 -17.2 -23.0 -16.9 -23.9 -15.85 -23.1 -15.15 L-23.55 -14.8 -23.55 -14.35 Q-25.0 -15.15 -25.65 -14.55 L-26.25 -13.5 -27.6 -13.6 -28.3 -14.35 -28.35 -14.35 -28.0 -15.35 Q-28.0 -16.0 -28.9 -16.6 L-30.3 -17.75 M-17.85 -15.6 L-17.5 -15.75 -17.6 -15.4 -17.85 -15.6 M-19.6 -12.4 L-19.5 -12.25 -19.65 -11.95 -20.05 -12.25 -19.6 -12.4 M-26.85 -11.4 L-25.65 -10.85 -25.75 -10.6 -24.95 -9.85 -26.9 -10.3 -26.85 -11.4 M3.15 -22.2 L2.65 -21.35 2.6 -21.65 3.05 -22.2 3.15 -22.2" fill="#a05410" fill-rule="evenodd" stroke="none"/>
    <path d="M19.75 -26.8 L22.5 -27.5 Q23.75 -27.5 24.45 -25.75 L23.75 -24.5 23.45 -24.2 23.3 -24.05 20.95 -22.05 22.8 -23.75 Q23.6 -24.7 23.6 -25.7 L23.55 -26.5 23.5 -26.75 19.75 -26.8 M17.85 -19.65 L15.0 -17.45 13.8 -16.35 13.75 -16.25 Q13.8 -16.75 14.4 -17.3 L17.95 -19.95 18.6 -20.3 18.6 -20.25 17.85 -19.65 M14.85 -12.05 L15.35 -10.35 15.0 -8.8 14.9 -9.5 14.85 -12.05 M12.55 -8.15 L11.85 -8.0 Q10.8 -8.6 10.0 -8.6 L9.65 -8.5 8.95 -8.2 8.95 -8.4 10.6 -9.0 11.65 -8.65 12.55 -8.15 M4.25 -4.6 L3.0 -4.6 2.65 -4.6 2.45 -4.65 2.45 -4.75 2.6 -5.0 3.1 -4.85 4.2 -4.7 5.35 -5.0 5.55 -5.1 5.35 -4.65 4.25 -4.6 M6.05 1.65 Q5.8 3.9 4.2 4.2 L3.85 4.25 3.7 4.25 2.8 4.1 2.2 4.25 3.95 3.6 5.15 1.9 5.45 0.7 Q5.45 0.15 4.75 -0.6 L4.0 -1.3 3.0 -2.5 5.9 0.4 6.1 0.55 6.1 1.25 6.05 1.6 6.05 1.65 M-17.6 6.75 L-18.25 6.75 -20.8 6.65 -22.75 6.4 -21.8 5.9 -18.75 6.65 -17.6 6.75 M-33.9 -4.2 L-34.15 -4.35 -34.05 -4.6 -34.05 -4.5 -33.9 -4.2 M-34.15 -5.15 Q-34.75 -5.5 -34.7 -6.5 L-34.55 -6.9 -34.55 -7.1 -34.5 -7.35 -34.35 -7.95 -34.35 -8.1 -34.45 -8.25 -36.55 -12.5 -34.5 -9.9 -34.5 -9.6 -34.55 -9.25 -34.5 -9.1 -34.55 -8.65 -34.25 -8.6 -33.4 -7.4 -33.4 -7.15 Q-34.15 -6.3 -34.15 -5.7 L-34.15 -5.15 M-21.7 -31.75 L-21.35 -32.0 -21.25 -32.15 -21.05 -32.15 Q-20.05 -32.25 -19.15 -33.5 -18.25 -34.65 -18.25 -35.3 -18.25 -36.15 -19.25 -39.25 L-19.25 -42.15 Q-14.25 -42.55 -14.25 -43.4 -10.7 -43.4 -9.15 -44.4 L-7.75 -43.9 Q-9.05 -42.4 -10.3 -41.8 L-12.85 -41.6 -13.2 -41.75 -13.45 -40.85 Q-14.5 -38.25 -18.2 -34.65 L-18.0 -33.45 -18.1 -32.4 -18.35 -32.0 -21.1 -30.1 Q-20.05 -29.95 -17.65 -28.75 L-16.85 -28.3 -15.3 -27.1 -15.25 -26.85 -15.25 -26.75 Q-15.3 -25.75 -16.65 -25.75 L-16.7 -25.75 Q-18.45 -26.75 -18.75 -26.75 L-19.9 -26.5 -19.95 -25.45 -20.05 -25.15 Q-20.2 -24.85 -21.0 -24.85 L-21.5 -25.15 -22.15 -25.5 -22.45 -24.95 -23.45 -23.95 -24.5 -23.25 -25.5 -23.95 -28.75 -22.65 Q-30.1 -22.0 -30.1 -21.15 L-30.05 -20.85 -29.7 -20.4 -29.25 -20.2 Q-29.25 -19.6 -29.8 -18.95 L-29.8 -18.8 -30.3 -17.75 -30.85 -16.9 -33.1 -14.5 -33.4 -14.4 Q-31.1 -13.9 -30.5 -13.25 L-30.2 -12.7 -30.4 -12.2 -30.6 -11.95 -30.85 -12.1 Q-31.6 -11.95 -31.6 -11.2 -31.6 -9.7 -32.15 -8.65 L-32.4 -9.0 -32.15 -10.0 Q-32.15 -10.9 -33.8 -13.1 -35.4 -15.2 -36.3 -15.65 L-33.6 -18.6 -31.8 -18.1 -30.55 -18.8 -30.35 -19.0 -30.5 -19.15 Q-32.9 -21.45 -32.9 -21.95 L-30.4 -26.25 Q-30.1 -26.25 -29.7 -25.9 L-27.85 -25.6 Q-24.95 -25.6 -24.95 -28.7 L-23.8 -29.75 -23.0 -30.5 -21.7 -31.75 M-12.45 -44.35 L-11.25 -45.3 -10.0 -46.5 Q-9.15 -46.5 -8.3 -45.85 L-8.15 -45.75 -8.1 -45.7 -8.05 -45.65 -9.05 -45.75 -10.35 -45.05 -12.5 -44.15 -12.65 -44.25 -12.45 -44.35 M10.5 -28.95 L10.55 -28.9 Q11.2 -28.35 12.15 -28.35 L13.05 -28.6 13.6 -28.25 13.55 -28.0 13.7 -27.5 13.25 -27.6 12.65 -27.5 12.45 -27.0 Q12.45 -26.7 13.45 -26.15 L13.3 -25.75 12.8 -25.5 11.65 -26.75 11.25 -27.25 10.5 -28.95 M16.55 -21.35 L17.05 -21.0 Q12.1 -20.0 11.95 -13.45 L7.7 -15.35 5.45 -14.5 Q3.75 -15.2 3.75 -15.6 4.0 -16.3 3.75 -16.75 3.35 -17.6 1.15 -17.6 0.45 -17.6 0.25 -17.25 L1.0 -16.15 Q1.45 -15.5 2.3 -15.5 2.9 -15.5 2.9 -14.6 2.9 -13.95 2.3 -13.85 L2.35 -13.35 -0.45 -12.75 Q-1.6 -12.75 -3.4 -13.9 L-3.7 -14.1 -4.75 -14.8 -4.1 -16.05 -4.4 -16.5 -4.15 -16.9 -3.25 -17.85 Q-2.8 -18.25 -2.35 -18.25 L-0.95 -18.1 4.75 -17.55 5.15 -17.5 Q6.05 -17.5 6.4 -16.25 L6.75 -16.1 15.45 -20.75 15.8 -20.9 15.8 -20.95 16.55 -21.35 M7.7 -10.05 L7.8 -10.0 8.2 -9.9 7.9 -9.65 7.7 -10.05 M6.3 -8.55 L5.1 -7.65 4.5 -7.75 4.0 -7.7 4.5 -8.25 4.0 -8.95 5.95 -10.3 6.6 -10.65 6.6 -10.5 Q6.6 -10.1 5.45 -9.05 5.45 -8.45 5.65 -8.65 L6.3 -8.55 M-0.35 -1.5 L0.7 0.9 Q-2.95 1.95 -5.0 3.0 L-0.35 -1.5 M-7.35 5.05 L-7.4 5.25 -7.8 5.3 -7.45 5.1 -7.35 5.05 M-9.4 5.4 L-15.9 4.9 -18.6 4.75 Q-19.65 4.7 -19.45 4.05 -19.4 3.5 -20.55 3.5 L-22.3 4.0 -24.35 3.0 -24.15 2.75 -22.15 1.35 Q-22.4 0.95 -23.4 0.75 -22.95 0.25 -21.6 0.25 L-20.15 0.0 -19.85 -0.25 Q-21.6 -1.85 -23.6 -1.95 L-24.05 -2.0 Q-25.25 -2.0 -26.1 -1.45 L-27.3 -2.25 -26.85 -2.35 -26.7 -3.2 -27.1 -4.15 -29.65 -6.55 Q-30.35 -7.35 -30.35 -7.85 L-30.1 -8.05 -28.2 -9.9 -28.55 -10.25 -25.85 -9.0 -27.4 -8.4 Q-28.95 -7.6 -28.95 -7.25 -28.95 -6.6 -28.75 -6.85 L-27.25 -6.75 Q-24.15 -6.75 -24.05 -5.7 -23.85 -4.65 -22.6 -4.65 L-20.85 -5.75 -19.45 -7.15 -18.95 -7.25 -17.35 -7.0 -15.25 -7.5 -14.15 -7.35 -14.1 -7.0 -13.0 -7.35 Q-11.75 -7.35 -11.75 -6.45 -11.75 -5.8 -12.5 -4.65 L-12.55 -4.65 -12.65 -4.55 -13.35 -3.8 -15.75 -1.55 -15.75 -1.5 -17.8 0.1 -16.2 1.1 -14.05 2.45 -12.7 3.05 -14.3 4.5 -14.4 4.9 Q-14.05 5.0 -13.65 5.25 L-12.05 5.15 -11.7 5.15 -9.9 5.1 -9.4 5.4 M-32.0 -3.55 L-31.5 -2.75 -32.75 -3.5 -32.45 -3.5 -32.0 -3.55 M-20.85 -42.45 Q-21.15 -41.6 -21.15 -39.75 L-21.15 -39.5 -20.05 -35.1 -21.0 -34.3 -21.3 -35.1 -21.5 -35.75 -21.3 -36.1 -21.35 -40.5 Q-21.25 -41.75 -20.85 -42.45 M-1.25 -1.7 L-0.8 -1.5 -1.25 -0.85 -1.95 -0.85 -2.45 -0.8 -1.25 -1.7 M-4.65 0.9 Q-5.75 2.9 -8.05 3.6 L-8.05 3.55 -4.65 0.9 M-11.55 6.45 L-13.35 6.35 -13.35 6.15 -7.55 6.4 -7.8 6.5 -8.85 6.6 -10.65 6.5 -11.55 6.45 M-25.1 4.2 L-24.15 6.05 -24.85 5.65 -25.25 5.0 -25.25 4.95 -25.2 4.5 -25.1 4.2" fill="#501000" fill-rule="evenodd" stroke="none"/>
    <path d="M-2.9 -40.35 L-2.8 -40.05 -4.05 -39.15 -4.1 -39.45 -3.45 -40.5 -3.15 -40.25 -2.9 -40.35 M-2.5 -37.4 L-1.95 -37.65 -1.1 -38.4 1.6 -39.2 2.35 -38.9 1.65 -37.75 1.6 -37.6 2.3 -37.3 Q3.8 -36.3 3.75 -33.5 L7.45 -31.9 8.5 -31.35 7.05 -29.35 Q7.05 -28.8 7.7 -28.6 9.1 -29.2 8.95 -29.5 L10.35 -29.05 Q9.65 -28.55 9.4 -27.9 L8.35 -26.75 7.8 -26.75 6.6 -26.65 6.85 -27.25 5.8 -27.75 Q2.1 -26.45 1.0 -25.75 -0.7 -27.4 -1.4 -27.4 L-3.45 -27.75 -3.5 -27.55 -3.65 -27.7 -4.85 -29.0 Q-7.3 -31.85 -7.3 -32.4 L-6.7 -34.75 -6.65 -34.75 -5.35 -36.35 -5.55 -36.75 -3.45 -36.25 Q-2.55 -36.25 -2.5 -37.4 M-0.7 -40.55 L-1.55 -40.6 -1.6 -40.75 -1.1 -40.95 -0.7 -40.55 M2.0 -34.05 L2.1 -34.2 1.65 -34.65 0.05 -36.15 -0.95 -35.4 -4.4 -32.6 Q-4.4 -31.8 -1.85 -29.4 0.7 -27.0 1.4 -27.0 L3.5 -28.2 6.15 -29.35 6.5 -29.4 5.85 -30.1 5.45 -30.0 Q4.5 -30.0 3.15 -32.0 L1.95 -34.0 2.0 -34.05 M-27.6 -13.6 L-26.25 -13.5 -25.65 -14.55 Q-25.0 -15.15 -23.55 -14.35 L-23.55 -14.8 -23.1 -15.15 -22.4 -14.75 -20.2 -14.25 Q-19.05 -14.25 -17.9 -15.6 L-17.85 -15.6 -17.6 -15.4 -17.3 -15.05 Q-16.2 -13.85 -16.2 -13.05 -16.2 -12.75 -16.95 -12.8 L-19.6 -12.4 -20.05 -12.25 -19.65 -11.95 -19.4 -11.75 -24.15 -11.75 Q-25.4 -11.6 -25.65 -10.85 L-26.85 -11.4 Q-29.4 -12.6 -29.4 -13.05 L-29.25 -13.75 -27.6 -13.6 M3.05 -22.2 L2.6 -21.65 2.45 -22.25 3.05 -22.2 M-0.6 -25.45 L-0.6 -25.4 -0.65 -25.4 -0.6 -25.45 M1.65 -22.85 L2.0 -22.85 2.3 -22.65 1.65 -22.85" fill="#c48c2c" fill-rule="evenodd" stroke="none"/>
    <path d="M-4.05 -39.15 L-4.85 -38.0 -4.5 -37.6 -4.4 -37.5 -2.8 -37.4 -2.5 -37.4 Q-2.55 -36.25 -3.45 -36.25 L-5.55 -36.75 -5.35 -36.35 -6.65 -34.75 -6.7 -34.75 Q-9.15 -36.3 -8.85 -37.5 L-9.0 -37.75 -9.4 -37.5 -10.1 -37.4 -10.2 -37.4 -10.35 -37.5 -11.15 -37.85 -12.2 -38.5 -12.55 -38.95 Q-12.55 -40.5 -10.55 -41.1 L-9.25 -41.6 -8.6 -42.3 -7.3 -42.65 Q-6.25 -42.65 -3.45 -40.5 L-4.1 -39.45 -4.05 -39.15 M10.35 -29.05 L10.45 -29.0 Q10.45 -27.95 11.25 -27.25 L11.65 -26.75 Q10.9 -26.4 10.75 -25.75 L10.6 -25.0 10.55 -25.0 10.25 -24.85 9.85 -24.9 6.35 -24.55 Q3.8 -23.9 2.15 -23.0 2.85 -22.35 3.25 -22.35 L3.15 -22.2 3.05 -22.2 2.45 -22.25 2.6 -21.65 2.65 -21.35 2.15 -20.7 2.2 -20.5 1.95 -20.5 1.85 -18.65 0.9 -18.7 -0.65 -19.35 -1.75 -20.0 -2.95 -20.55 -3.45 -20.5 -4.1 -20.5 Q-6.25 -19.25 -8.15 -19.25 -9.6 -19.25 -9.95 -19.95 L-10.0 -20.7 Q-10.0 -21.45 -8.85 -21.6 L-5.75 -21.75 -5.7 -21.9 -5.3 -22.95 -3.7 -27.0 -3.5 -27.55 -3.45 -27.75 -1.4 -27.4 Q-0.7 -27.4 1.0 -25.75 2.1 -26.45 5.8 -27.75 L6.85 -27.25 6.6 -26.65 7.8 -26.75 8.35 -26.75 9.4 -27.8 9.4 -27.9 Q9.65 -28.55 10.35 -29.05 M-14.4 -25.2 L-12.7 -25.85 Q-11.55 -25.85 -11.0 -23.95 -11.0 -23.1 -12.45 -22.9 L-13.2 -22.9 Q-14.25 -22.9 -16.0 -24.0 -15.8 -24.55 -14.4 -25.2 M-0.65 -25.4 L-0.6 -25.4 -0.6 -25.45 -0.7 -25.5 -0.8 -25.4 -0.65 -25.4 M-3.15 -22.6 L-2.9 -22.6 -2.95 -22.85 -3.15 -22.6 M1.65 -22.85 L2.3 -22.65 2.0 -22.85 1.65 -22.85" fill="#b0701c" fill-rule="evenodd" stroke="none"/>
    <path d="M-13.45 -40.85 Q-13.1 -40.6 -13.2 -40.15 L-13.35 -39.6 -13.65 -38.65 -13.6 -38.6 -11.75 -37.5 -11.0 -36.65 -11.95 -36.5 -13.0 -36.5 -13.4 -36.25 -13.8 -35.95 -13.85 -35.9 -13.95 -35.75 -13.55 -34.25 -12.55 -34.35 -12.25 -34.3 Q-11.1 -34.2 -10.6 -33.0 L-10.35 -31.95 -10.3 -30.7 -10.45 -28.9 -10.35 -28.45 -9.85 -28.35 Q-9.85 -27.5 -11.25 -27.15 L-13.35 -27.0 -15.3 -27.1 -16.85 -28.3 -12.55 -28.85 Q-13.4 -29.4 -13.0 -30.65 -12.65 -31.95 -13.15 -32.4 L-15.45 -34.15 -18.1 -32.4 -18.0 -33.45 -18.2 -34.65 Q-14.5 -38.25 -13.45 -40.85 M-10.0 -18.95 Q-9.4 -18.85 -8.75 -18.25 L-8.6 -18.25 -7.85 -18.4 -7.3 -18.85 -4.05 -18.4 -3.9 -18.35 -3.25 -17.85 -4.15 -16.9 -4.4 -16.5 -4.55 -17.0 -4.75 -16.95 Q-5.5 -17.85 -6.2 -17.85 L-7.3 -16.9 -8.25 -17.4 -9.85 -17.1 -10.0 -16.85 Q-11.4 -17.15 -11.4 -18.2 -11.4 -19.0 -10.35 -19.0 L-10.0 -18.95 M-0.95 -18.1 L-0.65 -18.4 Q-0.35 -18.75 0.9 -18.7 L1.85 -18.65 1.95 -20.5 2.2 -20.5 3.05 -20.6 Q5.15 -20.6 5.15 -18.85 L4.75 -17.55 -0.95 -18.1 M-15.55 -13.0 L-14.95 -13.1 -13.45 -13.0 -13.4 -12.8 -13.35 -12.6 -13.35 -12.45 -13.65 -11.8 -13.95 -11.5 -14.6 -9.5 Q-14.6 -8.65 -19.05 -8.75 L-19.05 -7.95 -19.4 -7.5 -19.6 -8.9 Q-20.1 -9.65 -22.05 -9.75 L-22.05 -9.85 -21.95 -10.1 -18.45 -10.25 -18.55 -10.85 -17.75 -11.65 -17.4 -11.95 -17.3 -12.05 -15.55 -13.0 M10.6 12.05 L12.2 12.3 Q12.15 12.75 11.5 13.0 10.6 12.75 10.6 12.05 M1.4 10.8 L1.15 11.25 0.7 11.5 0.5 11.45 Q-0.2 11.15 -0.2 10.55 L1.4 10.8 M-4.65 9.55 L-3.1 9.8 -3.8 10.5 Q-4.65 10.25 -4.65 9.55" fill="#702800" fill-rule="evenodd" stroke="none"/>
    <path d="M-26.95 -41.45 L-25.4 -41.2 Q-25.45 -40.75 -26.1 -40.5 -26.95 -40.75 -26.95 -41.45 M-30.15 -33.95 L-29.45 -33.9 -28.55 -33.7 -29.25 -33.0 Q-29.85 -33.15 -30.05 -33.5 L-30.15 -33.95 M-25.45 -36.25 Q-24.55 -36.25 -23.85 -35.25 L-23.85 -35.0 -25.45 -33.75 Q-26.4 -34.0 -26.95 -34.45 L-27.05 -35.95 -25.45 -36.25" fill="#400000" fill-rule="evenodd" stroke="none"/>
  </g>
</svg>
