<?xml version="1.0" encoding="UTF-8" standalone="no"?>
<svg xmlns:xlink="http://www.w3.org/1999/xlink" height="35.0px" width="49.5px" xmlns="http://www.w3.org/2000/svg">
  <g transform="matrix(1.0, 0.0, 0.0, 1.0, 31.8, 12.45)">
    <path d="M-19.85 -6.85 L-19.7 -7.45 -19.35 -8.35 Q-18.9 -9.2 -17.65 -9.2 L-16.4 -9.25 Q-14.25 -9.45 -12.7 -10.55 -11.6 -11.35 -10.15 -11.8 L-10.65 -10.95 Q-12.9 -10.6 -17.6 -7.85 L-17.75 -8.0 -19.85 -6.85 M-9.45 -12.0 L-6.85 -12.45 -6.2 -12.45 -4.55 -12.1 -2.8 -11.1 -1.65 -10.0 -3.25 -10.45 -4.35 -11.35 Q-5.0 -12.0 -9.45 -12.0 M6.8 -2.65 L8.85 -1.0 Q7.9 -1.6 5.85 -2.2 L6.8 -2.65 M9.6 3.15 L9.75 6.55 9.4 7.95 8.2 10.5 Q7.8 11.5 5.9 12.55 L5.1 13.05 3.85 13.05 6.65 11.15 7.05 11.3 7.3 10.6 Q9.65 8.35 9.65 5.9 L9.4 4.5 9.6 3.15 M2.3 14.95 L1.45 15.55 Q0.8 16.05 0.35 15.95 L-4.3 15.75 -4.6 15.8 -0.6 14.85 2.3 14.95 M-8.05 16.25 L-8.7 16.6 -10.0 18.1 Q-12.1 16.7 -15.1 16.8 -18.35 16.95 -19.75 15.15 L-19.85 15.1 Q-17.75 15.8 -14.5 15.8 L-13.35 15.8 -13.95 16.3 -12.7 16.5 -8.05 16.25 M-21.85 14.0 L-24.7 13.0 -25.4 12.45 Q-25.85 10.8 -25.9 9.05 L-25.45 9.55 Q-25.3 11.85 -22.9 13.0 L-22.85 12.95 -21.85 14.0 M-27.75 7.15 Q-30.5 6.1 -31.05 3.55 L-31.2 2.9 -27.75 7.15 M-30.05 0.0 L-29.9 -0.1 Q-28.25 -0.9 -27.6 -1.85 L-26.7 -3.0 Q-26.15 -3.6 -25.45 -3.75 -26.6 -2.8 -27.35 -1.7 L-26.95 -1.55 -29.85 0.3 -30.05 0.0 M5.8 -0.4 L7.9 1.5 7.9 1.55 7.75 1.55 5.8 -0.4 M6.3 -3.4 L6.15 -3.25 5.2 -3.45 4.85 -3.95 5.9 -3.95 6.15 -3.55 6.3 -3.4 M8.1 7.95 L8.25 7.6 8.35 8.2 Q8.45 9.7 7.45 10.35 L8.1 7.95 M6.3 10.7 L5.95 10.75 6.15 10.55 6.3 10.7" fill="#ffffcc" fill-rule="evenodd" stroke="none"/>
    <path d="M-19.85 -6.85 L-17.75 -8.0 -17.6 -7.85 -17.5 -7.25 -18.1 -5.25 -16.45 -4.95 Q-16.35 -3.6 -17.35 -2.85 L-19.0 -2.15 -25.45 -1.5 -26.7 -1.5 -26.95 -1.55 -27.35 -1.7 Q-26.6 -2.8 -25.45 -3.75 L-22.5 -5.6 -19.85 -6.85 M9.35 -0.65 L9.6 0.0 9.6 0.05 8.1 7.95 7.45 10.35 7.3 10.6 7.05 11.3 6.65 11.15 6.3 10.7 6.15 10.55 5.95 10.75 5.15 11.5 Q4.7 11.35 4.55 10.8 L4.5 10.35 Q4.5 9.1 6.35 7.55 8.0 6.15 7.7 4.55 L7.9 1.55 7.9 1.5 Q8.0 0.15 8.4 -0.5 L9.1 -0.6 9.2 -0.65 9.35 -0.65 M-23.35 6.55 L-22.9 6.55 -23.1 7.5 -23.2 8.0 Q-23.15 8.75 -21.95 9.25 L-20.9 9.55 -21.15 10.05 -22.85 12.95 -22.9 13.0 Q-25.3 11.85 -25.45 9.55 L-25.45 9.25 Q-25.45 7.05 -24.75 6.5 L-23.35 6.55" fill="#ae8c17" fill-rule="evenodd" stroke="none"/>
    <path d="M-17.6 -7.85 Q-12.9 -10.6 -10.65 -10.95 L-10.15 -11.8 -9.45 -12.0 Q-5.0 -12.0 -4.35 -11.35 L-3.25 -10.45 -1.65 -10.0 Q-0.35 -9.55 0.45 -8.85 3.7 -5.85 8.0 -4.95 L8.4 -4.2 Q8.4 -3.6 6.8 -2.65 L5.85 -2.2 Q7.9 -1.6 8.85 -1.0 L9.35 -0.65 9.2 -0.65 9.1 -0.6 8.4 -0.5 Q8.0 0.15 7.9 1.5 L5.8 -0.4 Q4.55 -1.75 4.55 -2.2 4.55 -3.15 0.3 -5.2 -4.85 -9.65 -5.9 -9.9 L-6.25 -9.95 -6.75 -9.95 -9.5 -9.5 Q-10.55 -8.8 -10.7 -9.5 -14.25 -8.9 -17.5 -7.25 L-17.6 -7.85 M9.6 0.05 L9.6 3.15 9.4 4.5 9.65 5.9 Q9.65 8.35 7.3 10.6 L7.45 10.35 Q8.45 9.7 8.35 8.2 L8.25 7.6 8.1 7.95 9.6 0.05 M5.1 13.05 L5.15 13.05 3.25 15.0 2.3 14.95 -0.6 14.85 -4.6 15.8 -8.05 16.25 -12.7 16.5 -13.95 16.3 -13.35 15.8 -14.5 15.8 Q-17.75 15.8 -19.85 15.1 L-21.85 14.0 -22.85 12.95 -21.15 10.05 Q-18.35 12.6 -12.25 14.6 L-12.05 14.3 Q-11.85 11.0 -9.6 11.55 L-5.0 12.8 Q-3.2 12.8 -1.15 11.8 0.7 10.85 4.55 10.8 4.7 11.35 5.15 11.5 L5.95 10.75 6.3 10.7 6.65 11.15 3.85 13.05 5.1 13.05 M-25.9 9.05 L-27.75 7.15 -31.2 2.9 -31.8 1.35 Q-31.8 0.55 -31.2 0.0 L-30.5 -0.5 -30.05 0.0 -29.85 0.3 -26.95 -1.55 -26.7 -1.5 -25.45 -1.5 -28.0 0.5 -29.8 0.3 -28.8 3.05 Q-27.65 5.45 -23.45 5.55 L-23.35 6.55 -24.75 6.5 Q-25.45 7.05 -25.45 9.25 L-25.45 9.55 -25.9 9.05 M-23.1 7.5 L-21.95 9.25 Q-23.15 8.75 -23.2 8.0 L-23.1 7.5 M5.9 -3.95 L4.85 -3.95 5.2 -3.45 6.15 -3.25 6.3 -3.4 6.5 -3.95 5.9 -3.95" fill="#e8c450" fill-rule="evenodd" stroke="none"/>
    <path d="M-17.5 -7.25 Q-14.25 -8.9 -10.7 -9.5 -10.55 -8.8 -9.5 -9.5 L-6.75 -9.95 -6.25 -9.95 -5.9 -9.9 Q-4.85 -9.65 0.3 -5.2 L-3.7 -7.0 -4.05 -7.05 Q-4.4 -7.0 -4.4 -6.25 -4.4 -4.05 -1.3 -2.2 L6.1 1.25 Q4.95 2.2 5.55 3.3 L7.05 3.5 Q7.75 2.8 7.75 1.55 L7.9 1.55 7.7 4.55 Q8.0 6.15 6.35 7.55 4.5 9.1 4.5 10.35 L4.55 10.8 Q0.7 10.85 -1.15 11.8 -3.2 12.8 -5.0 12.8 L-9.6 11.55 Q-11.85 11.0 -12.05 14.3 L-12.25 14.6 Q-18.35 12.6 -21.15 10.05 L-20.9 9.55 -21.95 9.25 -23.1 7.5 -22.9 6.55 -23.35 6.55 -23.45 5.55 Q-27.65 5.45 -28.8 3.05 L-29.8 0.3 -28.0 0.5 -25.45 -1.5 -19.0 -2.15 -17.35 -2.85 Q-16.35 -3.6 -16.45 -4.95 L-18.1 -5.25 -17.5 -7.25 M-12.7 9.8 L-11.4 8.0 -20.75 6.0 -20.9 6.0 Q-21.95 6.0 -21.85 6.55 L-21.6 7.3 -19.4 7.55 Q-18.8 7.65 -18.7 8.2 L-18.7 8.5 Q-18.7 9.75 -19.05 9.8 L-12.7 9.8 M-19.75 1.3 L-20.35 1.8 -19.9 1.85 Q-17.75 2.1 -17.15 2.5 -13.85 2.5 -13.25 -1.2 L-13.35 -2.05 -13.9 -2.0 Q-17.35 -0.9 -19.75 1.3" fill="#ffffd9" fill-rule="evenodd" stroke="none"/>
    <path d="M0.3 -5.2 Q4.55 -3.15 4.55 -2.2 4.55 -1.75 5.8 -0.4 L7.75 1.55 Q7.75 2.8 7.05 3.5 L5.55 3.3 Q4.95 2.2 6.1 1.25 L-1.3 -2.2 Q-4.4 -4.05 -4.4 -6.25 -4.4 -7.0 -4.05 -7.05 L-3.7 -7.0 0.3 -5.2 M-12.7 9.8 L-19.05 9.8 Q-18.7 9.75 -18.7 8.5 L-18.7 8.2 Q-18.8 7.65 -19.4 7.55 L-21.6 7.3 -21.85 6.55 Q-21.95 6.0 -20.9 6.0 L-20.75 6.0 -11.4 8.0 -12.7 9.8 M-19.75 1.3 Q-17.35 -0.9 -13.9 -2.0 L-13.35 -2.05 -13.25 -1.2 Q-13.85 2.5 -17.15 2.5 -17.75 2.1 -19.9 1.85 L-20.35 1.8 -19.75 1.3" fill="#ffff99" fill-rule="evenodd" stroke="none"/>
    <path d="M17.45 11.65 Q18.2 12.0 16.6 12.0 L14.6 11.25 14.4 10.7 Q14.4 10.4 15.4 10.4 16.25 10.4 17.0 10.9 L17.45 11.65 M9.8 18.05 Q9.65 18.4 8.5 18.55 8.2 18.15 8.2 17.55 L8.4 16.5 9.35 16.5 Q9.8 16.9 9.8 18.05 M-8.8 22.55 Q-9.65 22.3 -9.65 21.65 L-8.05 21.9 -8.8 22.55 M-3.7 21.55 Q-4.55 21.3 -4.55 20.65 L-2.95 20.9 -3.7 21.55" fill="#804000" fill-rule="evenodd" stroke="none"/>
  </g>
</svg>
