<?xml version="1.0" encoding="UTF-8" standalone="no"?>
<svg xmlns:xlink="http://www.w3.org/1999/xlink" height="69.45px" width="78.15px" xmlns="http://www.w3.org/2000/svg">
  <g transform="matrix(1.0, 0.0, 0.0, 1.0, 46.1, 45.95)">
    <path d="M-46.1 -10.95 L-44.5 -10.7 -45.2 -10.0 Q-46.1 -10.25 -46.1 -10.95 M27.95 -18.15 L27.7 -17.9 Q27.25 -17.45 26.8 -17.35 L25.4 -17.3 26.15 -17.5 26.25 -17.5 Q27.5 -17.5 27.75 -18.15 L27.95 -18.15 M23.8 -10.45 L24.9 -10.05 24.05 -8.85 24.0 -8.7 23.95 -8.85 24.15 -9.35 24.15 -9.4 24.45 -10.0 Q24.15 -10.2 23.8 -10.45 M18.1 13.4 L17.85 13.6 16.75 13.95 17.0 13.8 18.1 13.4 M15.2 14.5 L14.75 14.7 14.95 14.55 15.2 14.5 M8.7 16.95 L8.5 16.95 8.1 16.8 7.75 16.65 8.7 16.95 M-23.6 6.75 Q-25.5 6.35 -27.25 5.55 -27.65 5.25 -28.2 4.9 L-28.25 4.8 -23.6 6.75 M-28.5 4.4 Q-29.35 3.05 -29.25 1.35 L-29.2 1.45 -29.2 1.5 Q-29.2 3.05 -28.8 3.55 L-28.45 3.95 -28.5 4.4 M-34.45 -2.75 L-35.0 -2.85 -34.7 -2.85 -34.45 -2.75 M-35.85 -3.5 L-35.95 -3.95 -35.95 -4.6 -35.5 -4.25 -35.85 -3.5 M-36.0 -9.0 L-36.0 -12.4 -35.85 -12.55 Q-35.85 -11.65 -35.5 -11.05 L-36.0 -9.0 M-35.95 -15.35 L-35.95 -16.4 -35.65 -15.9 -35.95 -15.35 M-35.7 -18.35 Q-35.25 -19.55 -34.1 -20.4 L-34.7 -19.6 -35.7 -18.35 M-32.2 -22.1 Q-31.35 -23.75 -29.8 -24.95 L-30.1 -24.65 -30.65 -23.7 -31.55 -22.55 -31.75 -22.45 -32.2 -22.1 M-29.25 -25.3 L-28.75 -25.65 -28.2 -25.35 -28.5 -25.4 -28.5 -25.35 -28.95 -25.4 -29.25 -25.3 M-17.9 -32.6 L-18.35 -32.85 Q-19.25 -33.2 -19.45 -34.0 -19.6 -34.6 -19.35 -35.4 L-19.25 -35.55 -17.9 -32.9 -17.9 -32.6 M-19.2 -36.55 Q-19.05 -37.4 -18.25 -37.9 L-18.2 -37.9 -19.2 -36.55 M-17.1 -39.15 L-16.85 -39.9 -16.2 -40.75 -14.8 -41.35 -17.1 -39.15 M-12.4 -41.55 L-11.95 -41.5 -11.75 -41.45 -12.0 -41.45 -12.4 -41.55 M-8.85 -39.95 L-8.25 -40.0 -8.35 -39.75 -8.85 -39.8 -8.85 -39.95 M-3.45 -38.45 L-3.0 -38.4 -2.2 -38.4 -3.35 -38.0 -3.45 -38.35 -3.45 -38.45 M3.95 -41.2 L4.05 -41.4 4.7 -41.85 5.2 -41.85 3.95 -41.2 M-12.05 -35.35 L-12.05 -35.5 -10.15 -35.75 -9.4 -35.4 -10.45 -35.5 -12.05 -35.35 M-23.8 -18.8 L-16.8 -24.7 Q-13.7 -23.5 -7.3 -23.5 -3.8 -23.5 -3.8 -25.1 -3.8 -26.65 -7.05 -28.2 L-7.9 -28.6 -5.7 -28.95 Q0.75 -29.4 0.75 -30.45 0.75 -31.15 -0.85 -31.5 L-3.7 -32.25 Q1.65 -33.65 4.65 -35.25 5.7 -35.85 6.8 -36.05 L8.4 -35.35 Q7.05 -34.3 7.05 -32.0 7.05 -28.4 5.0 -26.6 2.9 -24.8 2.9 -23.5 2.9 -22.95 3.4 -22.6 L-5.95 -19.15 Q-5.95 -18.35 -5.6 -18.35 L-4.05 -18.45 Q0.55 -19.7 2.15 -18.5 4.25 -16.95 6.4 -16.95 8.85 -16.95 10.8 -18.15 L9.05 -15.75 4.65 -15.95 Q1.95 -14.95 0.45 -14.95 -0.35 -14.95 -0.55 -15.45 -0.7 -15.95 -1.55 -15.95 -10.7 -13.45 -14.15 -13.45 -17.5 -14.45 -19.05 -14.45 L-19.7 -14.3 -19.7 -15.0 Q-19.7 -15.8 -21.55 -17.0 -20.35 -17.8 -22.25 -19.25 L-23.8 -18.3 -23.8 -18.8 M-12.45 -30.25 L-12.25 -31.7 -11.7 -31.2 -12.45 -30.25 M-25.4 0.1 L-24.75 0.75 -25.05 1.4 -25.4 0.1 M-18.1 2.3 L-18.1 2.1 Q-18.1 1.3 -20.05 0.7 -22.2 0.05 -22.6 -0.75 L-23.2 -2.6 Q-21.6 -1.45 -20.55 -1.45 -18.95 -1.45 -19.4 -1.75 -20.6 -2.45 -20.6 -3.7 -20.6 -5.4 -22.15 -5.9 -24.25 -6.65 -26.2 -11.2 L-25.45 -11.2 -24.8 -11.75 -24.3 -11.45 -25.05 -10.65 -22.9 -9.25 -22.25 -9.8 Q-21.95 -10.2 -21.0 -10.2 -19.4 -10.2 -15.9 -9.2 L-13.95 -9.3 Q-13.25 -8.4 -11.75 -7.9 L-14.15 -6.25 Q-16.5 -4.35 -16.5 -3.6 -16.5 -2.35 -16.15 -2.5 L-10.15 -2.85 -10.45 -4.2 -6.25 -3.75 Q-6.0 -2.35 -4.8 -2.05 L-4.3 -2.0 -6.25 -0.6 Q-6.25 0.65 -6.0 0.25 -2.7 0.1 -2.55 1.75 L-2.65 2.6 -3.15 2.55 -7.6 5.2 Q-10.85 7.05 -12.05 7.05 L-13.95 6.55 Q-13.95 4.15 -18.1 2.3 M1.15 -12.0 L2.0 -12.2 2.6 -11.65 1.15 -12.0 M18.2 -19.25 L18.0 -20.6 18.8 -20.2 18.2 -19.25 M16.6 -21.6 L15.65 -21.7 15.45 -21.7 16.3 -22.2 16.6 -21.6 M-1.15 4.75 L-0.4 4.8 -0.95 5.1 -1.4 5.0 -1.15 4.75 M-9.85 9.05 L-11.35 9.0 -11.75 8.75 -10.15 8.25 -9.85 9.05 M-12.05 13.75 L-11.6 13.9 -11.7 14.15 -12.05 13.75 M-40.4 8.25 Q-40.4 9.05 -42.0 9.75 L-43.55 9.05 -43.6 7.55 -42.0 7.25 Q-41.1 7.25 -40.4 8.25" fill="#e8c450" fill-rule="evenodd" stroke="none"/>
    <path d="M6.55 -45.95 L6.55 -45.2 Q6.15 -45.5 6.15 -45.95 L6.55 -45.95 M26.5 -25.6 L26.6 -24.55 29.15 -19.0 Q29.15 -18.15 27.95 -18.15 L27.75 -18.15 26.35 -18.2 25.8 -18.0 25.1 -17.6 24.9 -17.25 24.9 -17.15 Q23.5 -16.75 22.2 -16.05 L21.1 -15.75 19.8 -14.4 19.85 -14.35 20.75 -12.3 23.8 -10.45 Q24.15 -10.2 24.45 -10.0 L24.15 -9.4 23.6 -8.75 23.6 -8.6 23.8 -8.05 25.3 -6.1 25.55 -6.15 25.9 -6.1 26.05 -6.1 Q27.9 -5.85 28.2 -3.25 L28.2 -2.8 Q28.1 -0.75 25.75 2.9 24.95 3.4 24.85 4.2 L23.75 5.7 23.6 5.8 20.95 9.4 20.2 10.45 Q20.1 11.4 19.1 12.4 L18.95 12.75 18.1 13.4 17.0 13.8 7.7 16.5 4.2 16.0 -1.1 16.45 -1.55 16.5 -2.65 15.8 Q-2.65 15.25 -1.65 14.6 L-1.5 14.5 2.6 14.5 3.0 14.15 3.3 14.4 3.25 15.0 3.85 15.0 4.2 15.25 7.55 14.7 9.15 14.45 9.1 14.2 Q10.25 13.7 10.25 13.05 L12.75 10.8 13.05 10.3 16.5 7.8 19.3 5.15 23.75 -0.15 24.7 -1.55 25.35 -3.25 19.85 -10.05 19.95 -10.15 20.1 -10.85 Q20.1 -11.05 18.85 -11.25 L18.15 -11.4 Q17.1 -11.7 16.6 -12.25 L17.3 -12.85 Q19.15 -14.75 19.15 -16.15 20.3 -17.1 20.45 -17.8 L21.6 -18.7 Q22.55 -19.35 23.25 -19.4 L23.3 -19.5 23.75 -19.45 24.25 -19.35 25.2 -19.4 23.75 -20.8 Q22.65 -22.0 22.6 -22.9 L23.0 -25.7 22.8 -26.0 Q22.35 -25.95 21.7 -26.6 21.7 -27.25 22.15 -27.7 L23.3 -28.5 20.8 -30.4 20.9 -30.0 20.65 -29.6 20.2 -29.2 18.95 -29.35 17.2 -28.75 16.0 -28.9 14.05 -28.15 12.45 -31.7 15.15 -35.8 15.45 -35.85 15.65 -35.9 15.55 -36.15 15.85 -36.25 16.0 -36.85 Q14.15 -39.35 11.0 -39.35 L10.1 -39.25 10.1 -39.1 Q10.2 -38.45 10.55 -38.15 L10.3 -38.0 10.2 -38.0 8.95 -38.85 8.95 -39.0 8.65 -40.0 6.1 -40.35 Q4.95 -40.35 4.75 -39.65 L3.75 -39.65 3.55 -40.1 Q3.55 -40.9 5.45 -41.7 7.3 -42.5 9.1 -42.5 10.1 -42.5 11.2 -41.95 L12.4 -41.2 13.25 -40.5 13.35 -40.35 14.15 -40.0 14.4 -39.65 14.5 -39.35 14.5 -39.2 14.6 -39.15 15.55 -38.5 15.6 -38.45 Q16.6 -37.75 16.6 -37.25 L16.6 -36.4 16.55 -36.3 17.2 -35.5 17.95 -33.95 18.0 -33.55 18.35 -33.6 18.85 -33.55 19.05 -33.55 19.8 -33.85 19.6 -33.45 Q21.85 -33.0 24.0 -30.95 L26.15 -28.4 26.25 -27.85 26.3 -27.0 26.5 -25.6 M-12.2 17.9 L-12.4 17.9 Q-15.2 17.9 -16.2 14.95 L-16.2 14.9 -16.7 11.9 -16.4 11.25 -16.2 11.1 -15.0 11.8 -14.95 12.05 -15.1 12.8 -14.8 14.2 -14.3 14.7 -14.25 14.75 -13.35 15.35 -11.75 17.4 -11.75 17.55 -12.2 17.9 M-19.0 9.1 L-23.6 6.75 -28.25 4.8 -28.65 4.75 -28.5 4.4 -28.45 3.95 Q-28.35 2.8 -29.2 1.45 L-29.25 1.35 -30.15 0.2 Q-32.15 -1.95 -34.45 -2.75 L-34.7 -2.85 -35.0 -2.85 -35.95 -3.1 -35.85 -3.5 -35.5 -4.25 Q-35.2 -4.75 -34.7 -4.75 -31.55 -4.75 -29.15 -1.85 L-28.55 -1.15 -27.15 1.4 -27.1 1.55 -27.05 1.9 -26.7 2.55 Q-26.55 4.9 -23.15 5.0 L-22.25 5.45 Q-18.95 7.1 -18.2 8.0 L-18.0 8.4 -18.0 8.7 -18.1 9.1 -18.75 9.25 -19.0 9.1 M17.9 -9.25 L21.2 -7.2 Q21.2 -6.6 19.4 -5.4 L17.05 -4.1 16.25 -2.35 Q15.4 -1.15 13.3 -1.25 L12.9 -1.85 Q12.9 -2.65 13.55 -3.85 L13.45 -4.0 Q12.8 -3.5 12.05 -3.5 11.7 -3.9 11.7 -4.65 L11.85 -5.8 15.0 -8.65 17.75 -8.25 17.9 -9.25" fill="#400000" fill-rule="evenodd" stroke="none"/>
    <path d="M5.2 -41.85 L7.05 -42.4 7.25 -42.45 9.6 -42.7 10.45 -42.65 Q14.7 -42.45 16.85 -39.55 L14.45 -40.0 14.15 -40.0 13.35 -40.35 13.25 -40.5 12.4 -41.2 11.2 -41.95 Q10.1 -42.5 9.1 -42.5 7.3 -42.5 5.45 -41.7 3.55 -40.9 3.55 -40.1 L3.75 -39.65 4.75 -39.65 4.75 -39.6 4.5 -39.45 2.0 -39.3 0.25 -39.0 1.95 -39.7 Q2.85 -40.6 3.95 -41.2 L5.2 -41.85 M18.15 -37.15 L18.85 -34.45 18.65 -34.55 17.9 -35.5 17.7 -35.65 17.9 -36.05 18.15 -37.15 M24.5 -30.9 Q26.7 -30.0 26.85 -29.7 L26.75 -28.0 26.55 -28.55 26.0 -29.5 24.5 -30.9 M26.7 -27.1 L26.5 -25.6 26.3 -27.0 26.7 -27.1 M25.4 -17.3 L24.9 -17.15 24.9 -17.25 25.1 -17.6 26.15 -17.5 25.4 -17.3 M22.2 -16.05 Q20.95 -15.35 19.85 -14.35 L19.8 -14.4 21.1 -15.75 22.2 -16.05 M24.0 -8.7 L26.05 -6.1 25.9 -6.1 24.0 -8.45 23.95 -8.55 23.75 -8.7 23.95 -8.85 24.0 -8.7 M16.75 13.95 Q16.0 14.15 15.2 14.5 L14.95 14.55 14.75 14.7 Q11.4 17.0 8.95 17.0 L8.7 16.95 7.75 16.65 7.35 16.5 1.75 16.75 -2.05 17.6 Q-1.35 17.25 -1.15 16.7 L-1.1 16.45 4.2 16.0 7.7 16.5 17.0 13.8 16.75 13.95 M-7.1 18.1 Q-6.75 18.5 -8.25 18.5 -10.45 18.5 -12.2 17.9 L-11.75 17.55 -11.55 17.6 -7.15 18.1 -7.1 18.1 M-16.2 14.9 L-19.0 9.1 -18.75 9.25 -18.1 9.1 -18.0 8.7 -17.9 8.75 -17.65 9.45 -17.2 10.25 -16.4 11.25 -16.7 11.9 -16.2 14.9 M-35.95 -4.6 L-36.55 -5.4 Q-36.55 -6.85 -36.0 -9.0 L-35.5 -11.05 -35.05 -10.5 -34.8 -10.35 -36.15 -7.55 -36.0 -7.0 -35.95 -7.0 -35.05 -6.9 -35.0 -6.9 -33.3 -8.8 -25.4 0.1 -25.05 1.4 -25.1 1.55 -26.65 0.3 -27.85 -2.25 Q-28.35 -2.25 -28.5 -1.85 L-28.65 -1.35 -28.55 -1.15 -29.15 -1.85 Q-31.55 -4.75 -34.7 -4.75 -35.2 -4.75 -35.5 -4.25 L-35.95 -4.6 M-36.0 -12.4 L-36.55 -12.2 Q-36.9 -12.5 -36.9 -13.65 L-35.95 -15.35 -35.65 -15.9 -35.15 -15.25 -35.85 -12.6 -35.85 -12.55 -36.0 -12.4 M-34.1 -20.4 Q-33.35 -21.35 -32.2 -22.1 L-31.75 -22.45 -31.55 -22.55 -32.7 -21.0 -32.85 -20.9 Q-33.4 -20.9 -34.7 -19.6 L-34.1 -20.4 M-11.75 -41.45 L-11.1 -41.5 Q-9.0 -41.5 -8.85 -39.95 L-8.85 -39.8 -10.6 -39.9 -10.8 -40.75 -10.85 -40.8 -12.0 -41.45 -11.75 -41.45 M24.7 -1.55 L23.75 -0.15 19.3 5.15 16.5 7.8 Q19.05 4.75 19.05 2.55 19.05 2.1 20.45 0.65 L21.45 0.35 23.95 -1.05 24.7 -1.6 24.7 -1.55 M9.1 14.2 L9.15 14.45 7.55 14.7 9.1 14.2 M3.85 15.0 L3.25 15.0 3.3 14.4 3.0 14.15 3.25 14.0 3.25 14.25 3.3 14.4 3.85 15.0 M-9.4 -35.4 L-10.15 -35.75 -12.05 -35.5 -12.05 -35.35 -13.35 -35.25 -13.35 -32.7 -12.25 -31.7 -12.45 -30.25 Q-13.1 -29.65 -13.6 -29.6 -13.6 -28.35 -13.25 -28.45 -12.2 -27.95 -10.15 -27.95 L-8.6 -28.35 -7.9 -28.6 -7.05 -28.2 Q-3.8 -26.65 -3.8 -25.1 -3.8 -23.5 -7.3 -23.5 -13.7 -23.5 -16.8 -24.7 L-23.8 -18.8 -24.1 -19.7 Q-20.9 -20.75 -20.9 -21.85 L-21.0 -22.95 -22.6 -23.2 -23.85 -22.65 -24.15 -23.15 Q-21.25 -23.9 -21.0 -26.1 L-21.0 -26.5 Q-19.25 -27.55 -18.75 -28.4 L-18.0 -29.15 Q-15.45 -31.7 -15.45 -33.1 -15.45 -33.45 -16.6 -34.05 -17.8 -34.65 -17.8 -35.45 -17.8 -36.0 -16.35 -37.5 -14.4 -39.4 -12.4 -39.4 L-11.95 -39.05 -10.45 -38.75 -8.15 -38.85 -7.05 -37.9 -6.45 -37.55 Q-4.9 -36.65 -3.0 -36.65 L0.15 -36.95 -4.1 -34.5 -9.4 -35.4 M-22.5 -30.95 L-20.9 -30.7 Q-21.0 -30.25 -21.6 -30.0 -22.5 -30.25 -22.5 -30.95 M-26.1 -21.6 L-28.45 -20.25 -28.1 -21.4 -26.1 -21.6 M-13.95 -9.3 L-15.9 -9.2 Q-19.4 -10.2 -21.0 -10.2 -21.95 -10.2 -22.25 -9.8 L-22.9 -9.25 -25.05 -10.65 -24.3 -11.45 -22.9 -11.25 -20.55 -12.7 Q-19.9 -13.15 -19.7 -14.3 L-19.05 -14.45 Q-17.5 -14.45 -14.15 -13.45 -10.7 -13.45 -1.55 -15.95 -0.7 -15.95 -0.55 -15.45 -0.35 -14.95 0.45 -14.95 1.95 -14.95 4.65 -15.95 L9.05 -15.75 10.8 -18.15 15.45 -21.7 15.65 -21.7 16.6 -21.6 18.0 -20.6 18.2 -19.25 15.7 -16.25 7.8 -12.1 Q7.8 -11.5 8.0 -11.5 L8.65 -11.45 5.45 -11.0 2.6 -11.65 2.0 -12.2 1.15 -12.0 -6.95 -13.95 Q-8.75 -13.95 -11.75 -12.7 -14.55 -11.5 -14.55 -11.15 -14.55 -10.1 -13.95 -9.3 M-0.4 4.8 L0.05 4.8 Q8.0 4.8 9.35 -2.2 9.6 -3.85 10.35 -5.15 L10.9 -5.1 11.85 -5.8 11.7 -4.65 Q11.7 -3.9 12.05 -3.5 12.8 -3.5 13.45 -4.0 L13.55 -3.85 Q12.9 -2.65 12.9 -1.85 L13.3 -1.25 Q15.4 -1.15 16.25 -2.35 L17.05 -4.1 19.4 -5.4 19.05 -5.1 Q17.55 -3.95 17.55 -3.25 17.55 -2.75 18.55 -2.0 L18.0 -1.6 Q16.4 -1.7 14.95 -0.1 L14.3 0.75 Q12.15 1.2 12.15 2.45 12.15 3.05 12.8 3.8 L9.05 8.25 0.9 7.5 Q1.75 5.65 -0.95 5.1 L-0.4 4.8 M-5.3 8.2 L-0.25 9.15 -0.45 9.35 -1.1 9.5 -1.85 9.3 -6.5 9.15 -5.3 8.2 M-6.5 14.05 L-7.05 14.2 Q-8.95 14.85 -9.45 15.6 L-10.9 15.65 Q-12.45 15.55 -13.0 14.9 -13.65 14.15 -14.6 14.15 L-14.65 14.2 -14.8 14.2 -15.1 12.8 -14.95 12.05 -15.0 11.8 -14.6 11.8 -13.6 12.9 -12.05 13.75 -11.7 14.15 -11.6 13.9 -10.15 14.0 -9.95 13.2 Q-9.75 12.75 -8.8 12.75 -7.1 12.75 -6.9 13.7 L-6.6 14.0 -6.5 14.05 M22.85 -3.0 L23.1 -3.2 23.75 -3.25 23.25 -3.0 22.85 -3.0 M21.9 -6.25 L22.35 -6.15 22.2 -5.85 21.9 -5.35 21.9 -6.25 M32.05 2.9 L32.05 5.1 31.0 4.55 30.95 3.05 32.05 2.9 M9.6 22.0 Q8.7 21.75 8.7 21.05 L10.3 21.3 Q10.25 21.75 9.6 22.0 M-21.95 4.15 L-21.85 4.1 -18.35 5.55 Q-18.55 6.7 -18.2 8.0 -18.95 7.1 -22.25 5.45 L-23.15 5.0 -22.9 5.0 -21.95 4.2 -21.95 4.15 M-27.1 1.55 L-26.7 2.25 -26.7 2.55 -27.05 1.9 -27.1 1.55 M-28.45 3.95 L-28.8 3.55 Q-29.2 3.05 -29.2 1.5 L-29.2 1.45 Q-28.35 2.8 -28.45 3.95 M-17.8 23.5 Q-18.7 23.25 -18.7 22.55 L-17.3 22.75 -17.1 22.8 -17.1 22.95 -17.8 23.5" fill="#a05410" fill-rule="evenodd" stroke="none"/>
    <path d="M16.85 -39.55 Q18.4 -38.85 18.15 -37.15 L17.9 -36.05 17.7 -35.65 17.65 -35.5 17.85 -35.2 18.65 -34.55 18.85 -34.45 19.6 -33.95 18.95 -34.0 17.95 -33.95 17.2 -35.5 16.55 -36.3 16.6 -36.4 16.6 -37.25 Q16.6 -37.75 15.6 -38.45 L15.55 -38.5 Q15.55 -39.3 14.4 -39.65 L14.15 -40.0 14.45 -40.0 16.85 -39.55 M26.75 -28.0 L26.8 -27.5 26.7 -27.1 26.3 -27.0 26.25 -27.85 26.3 -28.85 24.5 -30.9 26.0 -29.5 26.55 -28.55 26.75 -28.0 M28.2 -3.25 L29.7 -1.35 Q29.7 -0.15 26.05 3.5 L24.2 5.6 Q22.4 7.8 22.35 9.3 L21.7 9.55 20.95 9.4 23.6 5.8 23.75 5.7 24.85 4.2 Q24.95 3.4 25.75 2.9 28.1 -0.75 28.2 -2.8 L28.2 -3.25 M15.55 -36.15 L15.65 -35.9 15.45 -35.85 15.55 -36.15 M8.4 -32.7 Q9.1 -31.9 10.7 -31.6 9.55 -29.55 11.45 -27.5 L10.35 -26.3 10.0 -24.95 Q10.0 -23.7 8.7 -21.2 L6.8 -20.7 Q5.2 -20.8 5.2 -21.95 L5.35 -22.6 4.5 -22.25 Q3.8 -22.35 3.4 -22.6 2.9 -22.95 2.9 -23.5 2.9 -24.8 5.0 -26.6 7.05 -28.4 7.05 -32.0 7.05 -34.3 8.4 -35.35 L9.15 -35.1 9.1 -35.0 8.15 -34.65 Q7.5 -34.4 7.5 -34.0 7.5 -33.05 8.4 -32.7 M-24.75 0.75 Q-24.4 0.4 -23.85 0.3 L-18.6 2.1 -18.1 2.3 Q-13.95 4.15 -13.95 6.55 L-12.05 7.05 Q-10.85 7.05 -7.6 5.2 L-3.15 2.55 -2.65 2.6 -0.25 2.8 Q0.0 3.5 -1.15 4.75 L-1.4 5.0 -3.95 4.85 Q-6.2 4.85 -6.2 6.7 -6.2 7.8 -5.8 8.0 L-5.3 8.2 -6.5 9.15 -7.85 10.3 Q-9.3 9.7 -9.85 9.05 L-10.15 8.25 -11.75 8.75 -13.95 9.05 Q-14.3 9.6 -13.6 11.0 L-13.95 11.75 Q-13.55 11.8 -14.1 11.8 L-14.6 11.8 -15.0 11.8 -16.2 11.1 -16.4 11.25 -17.2 10.25 -17.65 9.45 -17.9 8.75 -18.0 8.7 -18.0 8.4 -18.2 8.0 Q-18.55 6.7 -18.35 5.55 L-21.85 4.1 -21.95 4.15 Q-23.0 3.75 -23.0 3.35 L-22.9 2.95 -22.9 2.25 -25.1 1.55 -25.05 1.4 -24.75 0.75 M-23.2 -2.6 Q-25.0 -3.8 -27.35 -6.35 -31.5 -10.8 -31.5 -11.4 L-30.2 -13.5 Q-28.8 -15.45 -28.0 -15.45 -27.15 -15.45 -26.65 -14.95 -26.15 -14.35 -25.4 -14.25 -24.95 -14.75 -24.7 -16.8 -24.55 -17.65 -23.8 -18.3 L-22.25 -19.25 Q-20.35 -17.8 -21.55 -17.0 -19.7 -15.8 -19.7 -15.0 L-19.7 -14.3 Q-19.9 -13.15 -20.55 -12.7 L-22.9 -11.25 -24.3 -11.45 -24.8 -11.75 -25.1 -12.0 -26.35 -11.5 -26.2 -11.2 Q-24.25 -6.65 -22.15 -5.9 -20.6 -5.4 -20.6 -3.7 -20.6 -2.45 -19.4 -1.75 -18.95 -1.45 -20.55 -1.45 -21.6 -1.45 -23.2 -2.6 M-11.75 -7.9 L-11.4 -8.0 -0.9 -7.0 3.55 -4.75 Q2.35 -3.15 0.05 -2.4 L-2.2 -1.95 -4.3 -2.0 -4.8 -2.05 Q-6.0 -2.35 -6.25 -3.75 L-10.45 -4.2 -10.15 -2.85 -16.15 -2.5 Q-16.5 -2.35 -16.5 -3.6 -16.5 -4.35 -14.15 -6.25 L-11.75 -7.9 M14.45 -12.1 L14.15 -12.45 14.65 -13.1 Q14.85 -13.0 15.0 -12.95 L14.45 -12.1 M23.75 -8.7 L23.95 -8.55 24.0 -8.45 25.9 -6.1 25.55 -6.15 25.3 -6.1 23.8 -8.05 23.6 -8.6 23.75 -8.7" fill="#b0701c" fill-rule="evenodd" stroke="none"/>
    <path d="M19.6 -33.95 Q21.85 -33.6 24.5 -30.9 L26.3 -28.85 26.25 -27.85 26.15 -28.4 24.0 -30.95 Q21.85 -33.0 19.6 -33.45 L19.8 -33.85 19.05 -33.55 18.85 -33.55 18.35 -33.6 18.0 -33.55 17.95 -33.95 18.95 -34.0 19.6 -33.95 M-2.05 17.6 L-3.85 18.05 -7.1 18.1 -7.15 18.1 -11.55 17.6 -11.75 17.55 -11.75 17.4 -13.35 15.35 -14.25 14.75 -14.3 14.7 -14.8 14.2 -14.65 14.2 -14.6 14.15 Q-13.65 14.15 -13.0 14.9 -12.45 15.55 -10.9 15.65 L-9.45 15.6 Q-8.95 14.85 -7.05 14.2 L-6.5 14.05 -6.05 13.9 -4.1 12.75 -3.0 10.75 Q-2.55 9.95 -1.1 9.5 L-0.45 9.35 -0.25 9.15 -5.3 8.2 -5.8 8.0 Q-6.2 7.8 -6.2 6.7 -6.2 4.85 -3.95 4.85 L-1.4 5.0 -0.95 5.1 Q1.75 5.65 0.9 7.5 L9.05 8.25 12.8 3.8 Q12.15 3.05 12.15 2.45 12.15 1.2 14.3 0.75 L14.95 -0.1 Q16.4 -1.7 18.0 -1.6 L18.55 -2.0 Q17.55 -2.75 17.55 -3.25 17.55 -3.95 19.05 -5.1 L19.4 -5.4 Q21.2 -6.6 21.2 -7.2 L17.9 -9.25 17.9 -9.5 Q19.35 -9.5 19.85 -10.05 L25.35 -3.25 24.7 -1.55 24.7 -1.6 23.95 -1.05 21.45 0.35 20.45 0.65 Q19.05 2.1 19.05 2.55 19.05 4.75 16.5 7.8 L13.05 10.3 13.1 10.05 Q13.1 9.55 12.45 9.4 L-2.0 13.8 -1.65 14.5 -1.5 14.5 -1.65 14.6 Q-2.65 15.25 -2.65 15.8 L-1.55 16.5 -1.1 16.45 -1.15 16.7 Q-1.35 17.25 -2.05 17.6 M-35.95 -16.4 L-36.15 -17.05 -35.7 -18.35 -34.7 -19.6 Q-33.4 -20.9 -32.85 -20.9 L-32.7 -21.0 -31.55 -22.55 -30.65 -23.7 -29.4 -22.55 -29.8 -22.3 -30.4 -21.6 -33.75 -17.0 -33.75 -15.65 -32.9 -15.6 -32.5 -16.05 -31.95 -14.25 -33.9 -11.85 Q-32.65 -10.85 -32.65 -10.45 L-33.3 -8.8 -35.0 -6.9 -35.05 -6.9 -35.95 -7.0 -36.0 -7.0 -36.15 -7.55 -34.8 -10.35 -35.05 -10.5 -35.5 -11.05 Q-35.85 -11.65 -35.85 -12.55 L-35.85 -12.6 -35.15 -15.25 -35.65 -15.9 -35.95 -16.4 M-28.2 -25.35 L-27.95 -25.3 -28.5 -25.35 -28.5 -25.4 -28.2 -25.35 M-26.55 -25.0 L-23.6 -25.95 -23.65 -25.9 -24.35 -24.5 -26.55 -25.0 M-21.05 -28.45 L-20.35 -29.3 Q-18.25 -31.6 -17.9 -32.6 L-17.9 -32.9 -19.25 -35.55 -19.5 -35.95 -19.2 -36.55 -18.2 -37.9 -17.15 -39.1 -17.1 -39.15 -14.8 -41.35 -13.65 -41.85 -12.4 -41.55 -12.0 -41.45 -10.85 -40.8 -10.8 -40.75 -10.6 -39.9 -8.85 -39.8 -8.35 -39.75 -8.25 -40.0 Q-7.9 -40.65 -6.85 -40.65 -5.2 -40.65 -4.3 -40.15 -3.8 -40.05 -3.7 -39.65 L-3.45 -38.45 -3.45 -38.35 -3.35 -38.0 -2.2 -38.4 0.25 -39.0 2.0 -39.3 4.5 -39.45 4.7 -39.45 4.7 -39.35 Q4.7 -38.7 5.8 -37.85 L6.3 -37.5 Q8.35 -36.25 11.2 -36.25 L12.85 -37.05 13.1 -37.25 13.35 -36.9 13.05 -36.75 12.1 -35.85 Q11.35 -34.75 11.65 -33.85 L8.95 -34.35 7.9 -33.5 8.4 -32.7 Q7.5 -33.05 7.5 -34.0 7.5 -34.4 8.15 -34.65 L9.1 -35.0 9.15 -35.1 8.4 -35.35 6.8 -36.05 6.05 -36.5 4.2 -37.1 2.3 -37.25 0.15 -36.95 -3.0 -36.65 Q-4.9 -36.65 -6.45 -37.55 L-7.05 -37.9 -8.15 -38.85 -10.45 -38.75 -11.95 -39.05 -12.4 -39.4 Q-14.4 -39.4 -16.35 -37.5 -17.8 -36.0 -17.8 -35.45 -17.8 -34.65 -16.6 -34.05 -15.45 -33.45 -15.45 -33.1 -15.45 -31.7 -18.0 -29.15 L-18.75 -28.4 -18.55 -29.1 -19.05 -29.5 -20.65 -28.7 -21.05 -28.45 M15.45 -35.85 L15.15 -35.8 15.35 -36.15 15.55 -36.15 15.45 -35.85 M16.0 -28.9 L17.2 -28.75 16.8 -28.75 16.0 -28.9 M20.2 -29.2 L20.65 -29.6 20.9 -30.0 20.8 -30.4 23.3 -28.5 22.15 -27.7 Q21.7 -27.25 21.7 -26.6 22.35 -25.95 22.8 -26.0 L23.0 -25.7 22.6 -22.9 Q22.65 -22.0 23.75 -20.8 L25.2 -19.4 24.25 -19.35 23.75 -19.45 23.75 -19.5 23.6 -19.75 23.3 -19.5 23.25 -19.4 Q22.55 -19.35 21.6 -18.7 L20.45 -17.8 20.45 -18.0 20.1 -18.5 19.65 -18.6 Q22.55 -20.55 22.55 -21.6 L22.2 -23.9 20.1 -24.4 20.1 -23.65 Q20.55 -23.5 19.8 -23.5 19.1 -23.5 18.25 -24.2 L16.95 -24.85 Q16.95 -25.55 16.15 -26.6 21.1 -27.8 21.1 -28.5 L21.1 -28.75 20.2 -29.2 M8.65 -11.45 L8.0 -11.5 Q7.8 -11.5 7.8 -12.1 L15.7 -16.25 19.5 -18.5 Q18.0 -17.25 15.0 -12.95 14.85 -13.0 14.65 -13.1 L13.45 -13.25 10.25 -11.4 8.65 -11.45 M14.4 -39.65 Q15.55 -39.3 15.55 -38.5 L14.6 -39.15 14.5 -39.2 14.5 -39.35 14.4 -39.65 M27.75 -18.15 Q27.5 -17.5 26.25 -17.5 L26.15 -17.5 25.1 -17.6 25.8 -18.0 26.35 -18.2 27.75 -18.15 M24.15 -9.4 L24.15 -9.35 23.95 -8.85 23.75 -8.7 23.6 -8.6 23.6 -8.75 24.15 -9.4 M21.9 -6.25 L21.9 -5.35 22.2 -5.85 22.35 -6.15 21.9 -6.25 M22.85 -3.0 L23.25 -3.0 23.75 -3.25 23.1 -3.2 22.85 -3.0" fill="#8c3c04" fill-rule="evenodd" stroke="none"/>
    <path d="M-29.8 -24.95 L-29.25 -25.3 -28.95 -25.4 -28.5 -25.35 -27.95 -25.3 -26.55 -25.0 -24.35 -24.5 -23.65 -25.9 -23.6 -25.95 Q-22.65 -27.45 -21.05 -28.45 L-20.65 -28.7 -19.05 -29.5 -18.55 -29.1 -18.75 -28.4 Q-19.25 -27.55 -21.0 -26.5 L-21.0 -26.1 Q-21.25 -23.9 -24.15 -23.15 L-23.85 -22.65 -23.85 -22.6 -25.3 -21.85 -26.1 -21.6 -28.1 -21.4 -28.45 -20.25 -32.5 -16.05 -32.9 -15.6 -33.75 -15.65 -33.75 -17.0 -30.4 -21.6 -29.8 -22.3 -29.4 -22.55 -30.65 -23.7 -30.1 -24.65 -29.8 -24.95 M4.75 -39.65 Q4.95 -40.35 6.1 -40.35 L8.65 -40.0 8.95 -39.0 8.95 -38.85 10.2 -38.0 10.3 -38.0 10.55 -38.15 Q10.2 -38.45 10.1 -39.1 L10.1 -39.25 11.0 -39.35 Q14.15 -39.35 16.0 -36.85 L15.85 -36.25 15.55 -36.15 15.35 -36.15 15.15 -35.8 12.45 -31.7 14.05 -28.15 16.0 -28.9 16.8 -28.75 17.2 -28.75 18.95 -29.35 20.2 -29.2 21.1 -28.75 21.1 -28.5 Q21.1 -27.8 16.15 -26.6 16.95 -25.55 16.95 -24.85 L16.75 -24.15 Q17.05 -24.0 16.3 -24.0 L14.7 -24.0 Q14.45 -24.85 14.7 -25.15 12.55 -26.35 11.45 -27.5 9.55 -29.55 10.7 -31.6 9.1 -31.9 8.4 -32.7 L7.9 -33.5 8.95 -34.35 11.65 -33.85 Q11.35 -34.75 12.1 -35.85 L13.05 -36.75 13.35 -36.9 13.1 -37.25 12.85 -37.05 11.2 -36.25 Q8.35 -36.25 6.3 -37.5 L5.8 -37.85 Q4.7 -38.7 4.7 -39.35 L4.7 -39.45 4.75 -39.6 4.75 -39.65 M20.45 -17.8 Q20.3 -17.1 19.15 -16.15 19.15 -14.75 17.3 -12.85 L16.6 -12.25 Q17.1 -11.7 18.15 -11.4 L18.85 -11.25 Q20.1 -11.05 20.1 -10.85 L19.95 -10.15 19.85 -10.05 Q19.35 -9.5 17.9 -9.5 L17.9 -9.25 17.75 -8.25 15.0 -8.65 11.85 -5.8 10.9 -5.1 10.35 -5.15 9.9 -5.35 14.45 -12.1 15.0 -12.95 Q18.0 -17.25 19.5 -18.5 L19.6 -18.6 19.65 -18.6 20.1 -18.5 20.45 -18.0 20.45 -17.8 M13.05 10.3 L12.75 10.8 10.25 13.05 Q10.25 13.7 9.1 14.2 L7.55 14.7 4.2 15.25 3.85 15.0 3.3 14.4 3.25 14.25 3.25 14.0 3.0 14.15 2.6 14.5 -1.5 14.5 -1.65 14.5 -2.0 13.8 12.45 9.4 Q13.1 9.55 13.1 10.05 L13.05 10.3 M-28.55 -1.15 L-28.65 -1.35 -28.5 -1.85 Q-28.35 -2.25 -27.85 -2.25 L-26.65 0.3 -25.1 1.55 -22.9 2.25 -22.9 2.95 -23.0 3.35 Q-23.0 3.75 -21.95 4.15 L-21.95 4.2 -22.9 5.0 -23.15 5.0 Q-26.55 4.9 -26.7 2.55 L-26.7 2.25 -27.1 1.55 -27.15 1.4 -28.55 -1.15" fill="#6c2000" fill-rule="evenodd" stroke="none"/>
    <path d="M23.75 -19.45 L23.3 -19.5 23.6 -19.75 23.75 -19.5 23.75 -19.45 M11.45 -27.5 Q12.55 -26.35 14.7 -25.15 14.45 -24.85 14.7 -24.0 L16.3 -24.0 Q17.05 -24.0 16.75 -24.15 L16.95 -24.85 18.25 -24.2 Q19.1 -23.5 19.8 -23.5 20.55 -23.5 20.1 -23.65 L20.1 -24.4 22.2 -23.9 22.55 -21.6 Q22.55 -20.55 19.65 -18.6 L19.6 -18.6 19.5 -18.5 15.7 -16.25 18.2 -19.25 18.8 -20.2 18.0 -20.6 16.6 -21.6 16.3 -22.2 15.45 -21.7 10.8 -18.15 Q8.85 -16.95 6.4 -16.95 4.25 -16.95 2.15 -18.5 0.55 -19.7 -4.05 -18.45 L-5.6 -18.35 Q-5.95 -18.35 -5.95 -19.15 L3.4 -22.6 Q3.8 -22.35 4.5 -22.25 L5.35 -22.6 5.2 -21.95 Q5.2 -20.8 6.8 -20.7 L8.7 -21.2 Q10.0 -23.7 10.0 -24.95 L10.35 -26.3 11.45 -27.5 M4.75 -39.6 L4.7 -39.45 4.5 -39.45 4.75 -39.6 M-9.4 -35.4 L-4.1 -34.5 0.15 -36.95 2.3 -37.25 4.2 -37.1 6.05 -36.5 6.8 -36.05 Q5.7 -35.85 4.65 -35.25 1.65 -33.65 -3.7 -32.25 L-0.85 -31.5 Q0.75 -31.15 0.75 -30.45 0.75 -29.4 -5.7 -28.95 L-7.9 -28.6 -8.6 -28.35 -10.15 -27.95 Q-12.2 -27.95 -13.25 -28.45 -13.6 -28.35 -13.6 -29.6 -13.1 -29.65 -12.45 -30.25 L-11.7 -31.2 -12.25 -31.7 -13.35 -32.7 -13.35 -35.25 -12.05 -35.35 -10.45 -35.5 -9.4 -35.4 M-23.85 -22.65 L-22.6 -23.2 -21.0 -22.95 -20.9 -21.85 Q-20.9 -20.75 -24.1 -19.7 L-23.8 -18.8 -23.8 -18.3 Q-24.55 -17.65 -24.7 -16.8 -24.95 -14.75 -25.4 -14.25 -26.15 -14.35 -26.65 -14.95 -27.15 -15.45 -28.0 -15.45 -28.8 -15.45 -30.2 -13.5 L-31.5 -11.4 Q-31.5 -10.8 -27.35 -6.35 -25.0 -3.8 -23.2 -2.6 L-22.6 -0.75 Q-22.2 0.05 -20.05 0.7 -18.1 1.3 -18.1 2.1 L-18.1 2.3 -18.6 2.1 -23.85 0.3 Q-24.4 0.4 -24.75 0.75 L-25.4 0.1 -33.3 -8.8 -32.65 -10.45 Q-32.65 -10.85 -33.9 -11.85 L-31.95 -14.25 -32.5 -16.05 -28.45 -20.25 -26.1 -21.6 -25.3 -21.85 -23.85 -22.6 -23.85 -22.65 M-13.95 -9.3 Q-14.55 -10.1 -14.55 -11.15 -14.55 -11.5 -11.75 -12.7 -8.75 -13.95 -6.95 -13.95 L1.15 -12.0 2.6 -11.65 5.45 -11.0 8.65 -11.45 10.25 -11.4 13.45 -13.25 14.65 -13.1 14.15 -12.45 14.45 -12.1 9.9 -5.35 10.35 -5.15 Q9.6 -3.85 9.35 -2.2 8.0 4.8 0.05 4.8 L-0.4 4.8 -1.15 4.75 Q0.0 3.5 -0.25 2.8 L-2.65 2.6 -2.55 1.75 Q-2.7 0.1 -6.0 0.25 -6.25 0.65 -6.25 -0.6 L-4.3 -2.0 -2.2 -1.95 0.05 -2.4 Q2.35 -3.15 3.55 -4.75 L-0.9 -7.0 -11.4 -8.0 -11.75 -7.9 Q-13.25 -8.4 -13.95 -9.3 M-24.8 -11.75 L-25.45 -11.2 -26.2 -11.2 -26.35 -11.5 -25.1 -12.0 -24.8 -11.75 M17.7 -35.65 L17.9 -35.5 18.65 -34.55 17.85 -35.2 17.65 -35.5 17.7 -35.65 M-1.1 9.5 Q-2.55 9.95 -3.0 10.75 L-4.1 12.75 -6.05 13.9 -6.5 14.05 -6.6 14.0 -6.9 13.7 Q-7.1 12.75 -8.8 12.75 -9.75 12.75 -9.95 13.2 L-10.15 14.0 -11.6 13.9 -12.05 13.75 -13.6 12.9 -14.6 11.8 -14.1 11.8 Q-13.55 11.8 -13.95 11.75 L-13.6 11.0 Q-14.3 9.6 -13.95 9.05 L-11.75 8.75 -11.35 9.0 -9.85 9.05 Q-9.3 9.7 -7.85 10.3 L-6.5 9.15 -1.85 9.3 -1.1 9.5" fill="#c48c2c" fill-rule="evenodd" stroke="none"/>
  </g>
</svg>
