<?xml version="1.0" encoding="UTF-8" standalone="no"?>
<svg xmlns:xlink="http://www.w3.org/1999/xlink" height="79.45px" width="84.8px" xmlns="http://www.w3.org/2000/svg">
  <g transform="matrix(1.0, 0.0, 0.0, 1.0, 36.6, 49.35)">
    <path d="M-3.8 -41.2 L-3.6 -41.35 -2.45 -42.0 Q-1.4 -42.5 -1.15 -43.35 L-0.45 -43.95 Q0.9 -42.6 -1.75 -41.95 -3.0 -41.65 -3.2 -40.9 L-3.8 -41.2 M-2.0 -35.3 L0.8 -36.45 Q1.25 -34.85 0.35 -34.1 L0.35 -34.45 -0.25 -34.75 0.35 -35.45 -0.95 -35.0 -2.0 -35.3 M-6.2 -38.35 L-6.25 -38.45 Q-6.85 -40.25 -5.5 -40.7 L-5.6 -40.55 Q-6.25 -39.85 -6.25 -39.1 L-6.2 -38.35" fill="#fffff0" fill-rule="evenodd" stroke="none"/>
    <path d="M-3.8 -41.2 L-3.2 -40.9 Q-2.1 -40.15 -2.1 -38.45 L-2.75 -36.65 -3.45 -35.75 -3.6 -35.55 -3.7 -35.45 -3.6 -35.45 -3.4 -35.5 -2.9 -35.45 -2.0 -35.3 -0.95 -35.0 -0.25 -34.75 0.35 -34.45 0.35 -34.1 Q0.3 -32.5 -1.15 -32.5 L-2.2 -32.55 -2.9 -32.55 -5.0 -32.7 -4.55 -34.4 -4.4 -34.75 Q-5.35 -34.0 -6.25 -34.0 -8.45 -34.0 -10.1 -35.35 L-10.6 -35.85 -11.25 -36.55 -11.35 -36.9 Q-11.35 -37.65 -10.85 -38.1 L-9.85 -38.95 -9.65 -38.85 -8.85 -38.2 -8.5 -37.7 -8.45 -37.6 -8.35 -37.5 Q-7.85 -36.7 -6.35 -36.3 L-6.25 -36.3 -6.0 -36.25 -6.15 -37.05 -6.2 -38.35 -6.25 -39.1 Q-6.25 -39.85 -5.6 -40.55 L-5.5 -40.7 -4.65 -41.5 -3.8 -41.2 M10.2 -32.05 L10.1 -32.2 Q10.0 -32.5 10.95 -32.5 14.3 -32.5 17.65 -29.2 L17.5 -29.1 Q16.4 -28.3 16.35 -27.55 L12.85 -30.15 10.25 -31.7 10.3 -31.75 10.25 -31.95 10.25 -32.0 10.2 -32.05 M21.95 -10.0 L23.7 -1.75 25.75 -0.05 26.7 0.55 27.0 0.7 26.15 1.3 25.4 0.7 24.25 -0.45 Q22.75 -1.4 22.5 -3.1 21.25 -5.3 20.45 -8.3 L20.25 -9.0 20.05 -10.55 19.95 -11.3 19.3 -16.1 19.15 -17.2 19.35 -17.4 19.25 -17.0 19.85 -13.45 Q20.7 -10.2 21.95 -10.0 M13.0 28.75 L12.8 29.5 10.9 29.35 Q11.4 28.75 11.9 28.75 L13.0 28.75 M-34.95 11.2 L-35.65 10.05 Q-35.65 7.55 -35.15 5.95 -33.4 5.45 -32.9 4.05 -31.75 4.95 -31.75 5.6 -31.75 6.65 -33.2 9.45 L-33.75 10.3 -32.7 11.35 -32.25 11.6 -34.35 11.0 -34.95 11.2 M-17.1 -21.7 Q-16.95 -22.7 -16.35 -23.4 -15.45 -24.4 -13.35 -24.65 L-12.25 -24.75 -12.0 -24.75 -12.0 -24.95 -12.0 -25.45 -12.05 -29.3 Q-11.85 -31.65 -10.3 -32.7 L-10.2 -32.75 -9.75 -33.0 -8.7 -28.85 -8.5 -28.15 -9.25 -26.5 -15.8 -19.0 -16.35 -19.45 Q-16.9 -20.1 -17.05 -20.8 L-17.1 -21.7 M17.85 -26.35 Q19.65 -26.0 20.55 -24.15 21.7 -21.8 23.5 -21.75 L22.05 -20.55 21.95 -21.65 Q21.45 -23.35 17.85 -26.35 M27.2 3.6 L26.8 4.0 26.15 3.8 26.5 3.0 26.55 2.95 27.2 3.6 M48.2 -4.25 Q48.2 -3.25 46.65 -2.75 L45.15 -3.35 Q45.05 -2.9 45.05 -4.15 45.05 -4.85 46.65 -5.25 47.6 -4.95 48.2 -4.25 M42.15 8.5 Q41.35 8.25 41.35 7.65 L42.95 7.9 42.15 8.5 M16.0 27.0 L13.45 26.9 14.15 26.5 16.05 26.55 16.0 27.0 M10.3 26.5 L5.55 25.35 1.75 25.4 2.65 25.0 Q8.25 25.0 9.9 26.15 L10.3 26.5 M-3.6 26.3 Q-4.4 26.7 -4.55 27.3 -9.3 27.0 -11.4 24.8 L-12.7 22.1 -12.65 21.75 -12.3 21.1 -12.0 21.0 -10.2 21.05 -10.1 21.05 Q-9.7 22.75 -6.95 23.65 -5.1 24.25 -4.9 25.2 L-5.05 25.8 -5.3 26.05 -4.35 26.3 -3.6 26.3 M40.4 24.15 L38.8 24.05 38.8 22.9 40.4 23.05 40.4 24.15 M-21.0 18.55 L-23.55 18.25 -24.0 18.55 -25.05 18.45 -26.85 17.6 Q-26.35 15.3 -29.95 12.95 L-30.55 12.55 -29.1 13.3 Q-24.35 15.5 -22.2 15.5 L-22.5 17.25 -22.5 17.3 Q-22.5 17.95 -21.7 17.6 -20.9 17.3 -20.9 17.9 L-21.0 18.55" fill="#501000" fill-rule="evenodd" stroke="none"/>
    <path d="M-2.75 -36.65 L-2.75 -36.35 -2.9 -35.45 -3.4 -35.5 -3.6 -35.45 -3.7 -35.45 -3.6 -35.55 -3.45 -35.75 -2.75 -36.65 M-2.05 -31.95 L-1.55 -31.95 -1.75 -31.4 -2.25 -30.5 Q-2.95 -29.5 -4.35 -29.5 L-4.65 -29.5 -4.65 -29.6 -5.3 -31.0 -6.45 -29.55 -7.65 -29.8 -8.7 -28.85 -9.75 -33.0 -10.2 -32.75 -10.2 -32.85 Q-10.65 -33.95 -10.7 -34.75 L-10.7 -35.0 -10.6 -35.85 -10.1 -35.35 Q-8.45 -34.0 -6.25 -34.0 -5.35 -34.0 -4.4 -34.75 L-4.55 -34.4 -5.0 -32.7 -2.9 -32.55 -3.4 -32.25 -2.05 -31.95 M0.0 -29.95 L1.0 -29.85 2.3 -30.2 3.35 -30.4 8.6 -31.3 10.3 -31.75 10.25 -31.7 12.85 -30.15 12.85 -30.0 Q12.85 -29.65 15.55 -28.15 L16.35 -27.4 Q16.35 -27.05 16.8 -26.5 L17.3 -26.45 Q19.35 -24.15 21.0 -20.65 L17.4 -17.0 16.95 -17.0 15.4 -18.8 12.2 -21.2 12.1 -21.8 11.9 -21.5 11.2 -20.85 10.8 -20.95 9.65 -20.75 10.9 -20.45 9.65 -18.7 11.6 -18.95 11.6 -17.2 Q13.15 -18.55 13.8 -17.1 L14.2 -16.25 10.25 -16.2 10.9 -17.25 10.75 -17.4 6.4 -20.7 Q6.3 -21.1 6.5 -21.45 6.85 -22.2 8.35 -22.25 L1.65 -24.75 1.15 -25.0 Q0.05 -25.6 0.05 -26.75 L0.25 -27.45 -1.65 -27.75 -3.4 -27.95 -2.2 -29.45 -3.2 -29.45 Q-2.95 -30.0 -2.1 -30.0 L0.0 -29.95 M10.1 -31.95 L9.65 -32.0 10.1 -32.0 10.25 -32.0 10.25 -31.95 10.1 -31.95 M-11.6 25.35 Q-12.9 24.45 -13.6 23.15 L-15.0 20.9 -14.95 20.5 Q-15.3 19.35 -17.15 19.25 L-21.0 18.55 -20.9 17.9 Q-20.9 17.3 -21.7 17.6 L-22.5 17.25 -22.2 15.5 Q-24.35 15.5 -29.1 13.3 L-30.55 12.55 -32.25 11.6 -32.7 11.35 -33.2 9.45 Q-31.75 6.65 -31.75 5.6 -31.75 4.95 -32.9 4.05 L-32.75 2.85 -33.3 0.05 -33.2 -0.55 -31.35 0.95 -31.45 2.9 -31.45 5.0 -31.9 6.8 -31.25 8.25 -31.25 8.35 -30.8 9.55 -30.8 9.5 -29.9 10.2 -26.65 14.0 -25.75 12.85 -22.9 14.25 -19.95 15.3 -17.1 16.0 -16.65 16.55 -15.55 16.75 -8.55 17.05 -10.1 18.9 -10.4 19.3 -10.2 21.05 -12.0 21.0 -12.3 21.1 -12.65 21.75 -12.7 22.1 -11.4 24.8 Q-9.3 27.0 -4.55 27.3 L-4.55 27.45 Q-9.2 27.1 -11.6 25.35 M-28.45 -16.95 L-28.55 -17.4 Q-28.55 -18.85 -27.35 -19.0 L-25.5 -19.0 -23.45 -18.95 Q-22.5 -18.95 -21.25 -19.9 L-20.6 -20.5 -19.15 -20.45 -19.0 -20.45 -18.75 -20.45 -19.2 -20.15 -22.3 -17.9 Q-24.55 -16.1 -26.2 -14.15 L-27.95 -11.8 -29.4 -9.1 -29.9 -7.9 -30.75 -4.75 -31.05 -2.65 -32.05 -3.0 -32.7 -2.6 -32.7 -2.85 -31.75 -6.0 -27.5 -15.7 -27.3 -16.25 -27.35 -16.5 Q-27.5 -16.85 -27.95 -16.8 L-28.45 -16.95 M-8.75 -38.3 L-8.5 -38.45 -8.45 -37.6 -8.5 -37.7 -8.85 -38.2 -8.75 -38.3 M-6.25 -36.35 L-6.2 -36.45 -6.15 -37.05 -6.0 -36.25 -6.25 -36.3 -6.25 -36.35 M-0.95 -35.0 L0.35 -35.45 -0.25 -34.75 -0.95 -35.0 M-17.05 -20.8 Q-16.9 -20.1 -16.35 -19.45 L-16.35 -19.4 -18.35 -18.5 -19.0 -18.7 -17.05 -20.8 M11.4 -1.9 L12.8 -4.2 Q12.35 -4.65 12.15 -4.0 L10.9 -4.2 13.85 -6.75 15.55 -8.3 17.3 -10.0 18.2 -11.25 17.9 -14.25 17.25 -14.0 17.0 -14.05 16.0 -14.7 17.95 -14.7 19.15 -15.95 19.25 -16.0 19.15 -13.5 Q19.1 -12.05 19.95 -11.3 L20.05 -10.55 17.45 -9.75 17.3 -9.75 17.3 -8.7 17.85 -8.7 19.25 -8.95 19.25 -6.25 17.45 -4.7 17.0 -5.0 16.25 -3.85 15.35 -3.25 15.85 -3.05 15.4 -1.85 Q15.4 0.0 16.35 1.4 L15.55 1.9 Q14.9 2.5 14.05 2.5 L10.9 2.3 Q11.05 0.75 11.85 -0.15 L12.8 -0.95 11.85 -1.05 10.9 -1.2 11.4 -1.9 M9.2 -23.85 L8.2 -24.1 8.5 -23.8 9.05 -23.5 10.9 -22.55 11.6 -23.45 9.2 -23.85 M-12.25 -24.75 L-12.0 -24.95 -12.0 -24.75 -12.25 -24.75 M9.35 -27.3 L9.3 -27.2 11.4 -26.8 11.05 -27.05 9.35 -27.3 M20.3 -0.5 L22.9 -0.4 24.25 -0.2 Q24.5 -0.05 24.0 0.25 24.0 0.9 24.65 0.8 L25.4 0.7 26.15 1.3 25.85 1.65 25.75 2.05 Q25.75 2.7 26.5 2.9 L26.55 2.95 26.5 3.0 24.95 2.5 25.3 2.25 25.85 1.65 23.9 2.05 23.0 1.65 Q21.0 0.65 20.3 -0.5 M23.0 4.6 L23.5 5.45 23.7 6.3 24.75 6.4 Q24.35 6.9 24.35 7.3 24.35 7.55 25.05 8.0 L24.85 8.4 24.95 9.0 24.95 9.05 24.65 10.7 Q23.8 11.9 23.8 12.55 23.8 13.8 25.1 16.5 L23.8 18.35 Q22.55 19.85 22.55 20.4 L23.2 24.0 22.35 25.45 22.2 25.5 21.95 25.65 20.05 26.55 16.0 27.0 16.05 26.55 14.15 26.5 13.45 26.9 10.3 26.5 9.9 26.15 Q8.25 25.0 2.65 25.0 L1.75 25.4 0.45 25.5 Q-2.35 25.7 -3.6 26.3 L-4.35 26.3 -5.3 26.05 -5.05 25.8 -4.9 25.2 9.4 23.9 9.05 24.3 12.2 24.5 Q13.85 24.5 17.4 21.3 L19.6 19.0 20.45 18.5 20.45 18.0 22.1 15.55 Q21.4 15.55 20.45 16.0 L20.45 12.55 Q19.95 12.55 19.8 13.0 L19.6 12.9 Q19.25 12.6 19.15 11.8 L18.55 11.8 Q18.8 9.0 22.15 5.45 L22.6 5.0 23.0 4.6 M27.0 0.7 L26.7 0.55 26.85 0.55 26.85 0.5 27.25 0.5 27.0 0.7 M23.0 9.6 L23.0 8.8 22.65 8.8 22.6 8.95 22.4 10.75 22.65 10.75 23.0 9.6 M21.25 23.0 L21.7 22.85 21.7 22.55 21.45 22.75 21.25 23.0 M15.35 23.75 L14.25 24.25 14.65 24.85 15.1 24.05 15.35 23.75" fill="#e8c450" fill-rule="evenodd" stroke="none"/>
    <path d="M-2.2 -32.55 L-2.05 -31.95 -3.4 -32.25 -2.9 -32.55 -2.2 -32.55 M-1.75 -31.4 L-1.25 -30.85 -0.25 -30.1 0.0 -29.95 -2.1 -30.0 Q-2.95 -30.0 -3.2 -29.45 L-4.05 -29.5 -5.05 -29.2 -4.65 -29.5 -4.35 -29.5 Q-2.95 -29.5 -2.25 -30.5 L-1.75 -31.4 M2.3 -30.2 Q3.8 -32.05 8.45 -31.5 9.6 -31.4 10.1 -31.95 L10.25 -31.95 10.3 -31.75 8.6 -31.3 6.1 -31.5 3.35 -30.4 2.3 -30.2 M10.1 -32.0 L10.2 -32.05 10.25 -32.0 10.1 -32.0 M25.75 -0.05 L27.65 0.3 27.25 0.5 26.85 0.5 26.85 0.55 26.7 0.55 25.75 -0.05 M15.6 28.85 L14.85 28.95 13.95 28.8 15.6 28.85 M-4.55 27.45 L-9.95 27.0 Q-11.3 26.5 -11.6 25.35 -9.2 27.1 -4.55 27.45 M-34.7 -1.7 Q-34.85 -3.4 -34.15 -4.95 -33.15 -7.25 -31.7 -8.95 -30.6 -10.2 -30.5 -11.9 L-29.85 -13.0 Q-28.2 -14.65 -28.45 -16.95 L-27.95 -16.8 Q-27.5 -16.85 -27.35 -16.5 L-27.6 -15.9 -27.5 -15.7 -31.75 -6.0 Q-32.7 -4.25 -32.7 -2.95 L-32.7 -2.85 -32.7 -2.6 -32.95 -2.45 -33.6 -1.65 -34.7 -1.7 M-25.5 -19.0 L-25.1 -19.2 -24.1 -19.6 -23.35 -19.75 -21.25 -19.9 Q-22.5 -18.95 -23.45 -18.95 L-25.5 -19.0 M-19.15 -20.45 L-17.1 -21.7 -17.05 -20.8 -19.0 -20.45 -19.15 -20.45 M-13.35 -24.65 L-12.0 -25.45 -12.0 -24.95 -12.25 -24.75 -13.35 -24.65 M-10.3 -32.7 L-10.2 -32.85 -10.2 -32.75 -10.3 -32.7 M-10.7 -34.75 L-10.9 -35.1 Q-11.3 -35.7 -11.25 -36.45 L-11.25 -36.55 -10.6 -35.85 -10.7 -35.0 -10.7 -34.75 M-9.65 -38.85 L-9.4 -38.95 -8.75 -38.3 -8.85 -38.2 -9.65 -38.85 M-6.35 -36.3 Q-6.25 -36.3 -6.25 -36.35 L-6.25 -36.3 -6.35 -36.3 M-8.7 -28.85 L-7.65 -29.8 -6.45 -29.55 -9.25 -26.5 -8.5 -28.15 -8.7 -28.85 M-3.4 -27.95 L-1.65 -27.75 -3.0 -26.75 -5.35 -25.75 -3.4 -27.95 M10.75 -17.4 L10.9 -17.25 10.25 -16.2 14.2 -16.25 14.75 -14.7 16.0 -14.7 17.0 -14.05 Q17.1 -13.5 17.65 -13.05 L17.9 -12.85 16.75 -11.75 Q15.55 -10.3 15.55 -8.3 L13.85 -6.75 7.35 -6.25 5.55 -6.7 5.45 -7.4 9.9 -16.45 10.75 -17.4 M16.95 -17.0 L17.4 -17.0 17.0 -16.7 16.95 -17.0 M21.0 -20.65 Q19.35 -24.15 17.3 -26.45 L17.85 -26.35 Q21.45 -23.35 21.95 -21.65 L21.0 -20.65 M16.35 -27.4 L15.55 -28.15 Q12.85 -29.65 12.85 -30.0 L12.85 -30.15 16.35 -27.55 16.35 -27.4 M-19.2 -20.15 L-21.3 -17.7 -22.3 -17.9 -19.2 -20.15 M-26.2 -14.15 L-25.9 -13.75 -27.95 -11.8 -26.2 -14.15 M-29.4 -9.1 L-27.3 -8.95 Q-29.5 -7.2 -29.5 -5.9 -29.5 -5.25 -28.9 -5.65 -28.25 -6.05 -28.25 -5.45 -28.25 -4.6 -28.5 -3.95 L-28.75 -3.6 -29.35 -3.0 -29.85 -2.7 -30.8 -2.1 -31.05 -2.65 -30.75 -4.75 -29.2 -7.95 -29.9 -7.9 -29.4 -9.1 M-26.9 -2.4 L-26.7 -2.45 -25.9 -2.4 Q-23.9 -2.2 -22.9 -1.1 L-21.85 0.15 -21.55 1.3 Q-17.05 1.9 -17.75 3.15 -17.75 7.15 -16.1 9.45 L-14.85 13.5 Q-12.0 10.95 -10.55 6.2 L-8.75 0.8 -6.6 1.0 Q-2.1 1.0 0.7 -2.25 L1.5 -3.35 1.85 -2.45 1.7 -0.2 3.0 0.0 3.15 -0.8 Q3.3 -1.45 4.25 -1.45 5.1 -1.45 5.85 -0.95 6.65 -0.5 7.45 -0.5 L10.25 -2.25 Q11.2 -2.25 11.4 -1.9 L10.9 -1.2 11.85 -1.05 11.25 -0.2 11.85 -0.15 Q11.05 0.75 10.9 2.3 L14.05 2.5 Q14.9 2.5 15.55 1.9 L16.35 1.4 16.95 2.05 Q17.3 2.45 20.1 3.15 L20.2 3.75 Q20.2 5.75 17.0 8.35 13.8 10.95 13.8 13.8 L14.45 13.8 16.3 11.55 16.35 11.8 Q15.1 14.2 15.1 15.0 15.1 15.9 15.4 16.3 L14.5 17.15 Q13.15 15.5 6.8 15.5 4.55 15.5 3.5 16.65 L2.0 18.3 3.3 18.5 5.85 18.05 Q5.65 18.4 6.15 18.95 L6.75 20.05 4.2 20.0 1.7 21.2 -0.85 21.75 -0.2 21.0 Q0.1 20.55 -2.75 20.25 L-2.1 19.4 -1.55 18.05 -5.3 18.25 -5.35 16.55 -10.1 18.9 -8.55 17.05 -15.55 16.75 -16.65 16.55 -17.1 16.0 -19.95 15.3 -22.9 14.25 -22.6 12.3 Q-22.6 9.25 -25.05 8.65 L-25.3 2.9 Q-25.7 0.2 -26.65 -1.85 L-26.9 -2.4 M1.0 -9.05 L0.55 -7.95 -2.8 -8.5 Q-5.3 -7.5 -5.6 -7.7 -2.0 -12.9 -15.55 -15.0 -16.2 -15.0 -16.9 -14.15 L-18.1 -12.7 -18.75 -13.2 Q-18.55 -14.0 -18.9 -14.5 L-19.0 -14.65 -13.0 -18.65 -8.5 -22.45 -9.15 -20.2 -7.85 -20.0 -3.1 -22.25 0.35 -22.25 0.05 -21.5 -1.5 -19.7 1.0 -19.3 0.25 -15.75 -0.2 -14.65 0.15 -13.8 Q0.3 -10.75 1.0 -9.05 M-33.4 -0.8 L-33.3 -0.65 -33.4 -0.5 -33.4 -0.8 M-31.35 0.95 L-31.1 1.15 -31.2 3.25 -31.45 2.9 -31.35 0.95 M-22.85 -12.0 L-22.85 -11.95 -24.25 -12.1 -22.85 -12.0 M9.05 -23.5 L9.2 -23.85 11.6 -23.45 10.9 -22.55 9.05 -23.5 M-14.55 -9.75 L-13.4 -9.85 -13.25 -9.85 -12.95 -8.95 -13.15 -8.2 -13.6 -8.2 Q-9.75 -5.9 -9.75 -5.2 L-9.85 -4.2 Q-14.6 -4.25 -15.8 -5.2 -16.2 -5.5 -16.2 -6.65 L-15.9 -8.25 Q-15.35 -9.75 -14.55 -9.75 M9.35 -27.3 L11.05 -27.05 11.4 -26.8 9.3 -27.2 9.35 -27.3 M22.9 -0.4 L20.45 -5.95 20.75 -6.45 20.25 -6.5 20.2 -7.0 20.45 -8.3 Q21.25 -5.3 22.5 -3.1 22.75 -1.4 24.25 -0.45 L25.4 0.7 24.65 0.8 Q24.0 0.9 24.0 0.25 24.5 -0.05 24.25 -0.2 L22.9 -0.4 M22.8 4.35 L23.0 4.6 22.6 5.0 22.8 4.35 M24.95 2.5 L23.9 2.05 25.85 1.65 25.3 2.25 24.95 2.5 M25.05 8.0 L25.75 8.35 25.75 8.85 25.75 8.9 24.95 9.0 24.85 8.4 25.05 8.0 M22.6 8.95 L22.65 8.8 23.0 8.8 23.0 9.6 22.75 9.55 22.6 8.95 M-33.2 9.45 L-32.7 11.35 -33.75 10.3 -33.2 9.45 M-21.7 17.6 Q-22.5 17.95 -22.5 17.3 L-22.5 17.25 -21.7 17.6" fill="#ffffdd" fill-rule="evenodd" stroke="none"/>
    <path d="M17.65 -29.2 L18.9 -29.9 25.85 -22.45 25.85 -22.4 26.25 -21.9 26.15 -21.45 Q25.75 -19.85 22.2 -17.1 22.2 -13.25 23.7 -10.9 23.0 -10.0 22.1 -10.0 L21.95 -10.0 Q20.7 -10.2 19.85 -13.45 L19.25 -17.0 19.35 -17.4 Q19.6 -18.15 20.9 -19.45 L22.05 -20.55 23.5 -21.75 Q21.7 -21.8 20.55 -24.15 19.65 -26.0 17.85 -26.35 L17.3 -26.45 16.8 -26.5 Q16.35 -27.05 16.35 -27.4 L16.35 -27.55 Q16.4 -28.3 17.5 -29.1 L17.65 -29.2 M27.65 0.3 L28.15 0.0 28.45 0.0 Q30.05 0.0 30.05 3.55 L26.05 12.35 Q26.05 13.6 27.3 16.3 27.3 17.45 26.1 18.55 L25.85 18.85 25.1 20.55 25.4 25.1 Q25.1 26.8 20.5 27.85 L16.05 28.9 15.6 28.85 13.95 28.8 13.0 28.75 11.9 28.75 Q11.4 28.75 10.9 29.35 L10.75 29.45 Q10.2 30.1 8.4 30.1 L-4.1 28.6 Q-4.55 28.65 -4.55 27.45 L-4.55 27.3 Q-4.4 26.7 -3.6 26.3 -2.35 25.7 0.45 25.5 L1.75 25.4 5.55 25.35 10.3 26.5 13.45 26.9 16.0 27.0 20.05 26.55 22.2 25.6 22.35 25.45 23.2 24.0 22.55 20.4 Q22.55 19.85 23.8 18.35 L25.1 16.5 Q23.8 13.8 23.8 12.55 23.8 11.9 24.65 10.7 L25.85 9.1 26.25 8.6 25.75 8.35 25.05 8.0 Q24.35 7.55 24.35 7.3 24.35 6.9 24.75 6.4 L25.8 5.4 Q27.2 4.3 27.2 3.75 L27.2 3.6 26.55 2.95 26.5 2.9 Q25.75 2.7 25.75 2.05 L25.85 1.65 26.15 1.3 27.0 0.7 27.25 0.5 27.65 0.3 M-15.0 20.9 L-15.05 21.1 -17.15 21.25 -25.45 20.75 Q-27.6 20.75 -31.8 16.75 -35.65 13.05 -35.65 12.25 L-35.45 11.25 -34.95 11.2 -34.35 11.0 -32.25 11.6 -30.55 12.55 -29.95 12.95 Q-26.35 15.3 -26.85 17.6 L-25.05 18.45 -24.0 18.55 -23.55 18.25 -21.0 18.55 -17.15 19.25 Q-15.3 19.35 -14.95 20.5 L-15.0 20.9 M-35.15 5.95 L-35.45 6.0 -35.45 4.1 Q-36.6 1.8 -36.6 0.55 -36.6 -1.1 -35.0 -1.75 L-34.7 -1.7 -33.6 -1.65 -33.55 -1.65 -33.4 -0.8 -33.4 -0.5 -33.3 0.05 -32.75 2.85 -32.9 4.05 Q-33.4 5.45 -35.15 5.95" fill="#360300" fill-rule="evenodd" stroke="none"/>
    <path d="M25.85 -22.45 L25.9 -22.45 25.85 -22.4 25.85 -22.45 M-6.45 -29.55 L-5.3 -31.0 -4.65 -29.6 -4.65 -29.5 -5.05 -29.2 -4.05 -29.5 -3.2 -29.45 -2.2 -29.45 -3.4 -27.95 -5.35 -25.75 -7.85 -23.55 -14.5 -19.0 -14.55 -18.95 -17.75 -17.0 -18.35 -17.2 -16.35 -19.4 -16.35 -19.45 -15.8 -19.0 -9.25 -26.5 -6.45 -29.55 M14.2 -16.25 L13.8 -17.1 Q13.15 -18.55 11.6 -17.2 L11.6 -18.95 9.65 -18.7 10.9 -20.45 11.2 -20.85 11.9 -21.5 12.1 -21.8 12.2 -21.2 15.4 -18.8 16.95 -17.0 17.0 -16.7 17.4 -17.0 21.0 -20.65 21.95 -21.65 22.05 -20.55 20.9 -19.45 Q19.6 -18.15 19.35 -17.4 L19.15 -17.2 19.3 -16.1 19.15 -15.95 17.95 -14.7 16.0 -14.7 14.75 -14.7 14.2 -16.25 M-28.5 -3.95 L-28.25 -4.5 -26.9 -2.4 -26.65 -1.85 Q-25.7 0.2 -25.3 2.9 L-25.05 8.65 -25.05 11.4 -25.75 12.85 -26.65 14.0 -29.9 10.2 -31.25 8.25 -31.9 6.8 -31.45 5.0 -31.2 3.25 -31.1 1.15 -31.35 0.95 -33.2 -0.55 -33.3 -0.65 -33.4 -0.8 -33.55 -1.65 -33.6 -1.65 -32.95 -2.45 -32.7 -2.6 -32.05 -3.0 -31.05 -2.65 -30.8 -2.1 -30.8 -1.75 -29.35 -3.0 -28.75 -3.6 -28.5 -3.95 M-21.85 0.15 L-21.95 -0.5 Q-21.95 -2.5 -20.6 -2.5 -13.65 -2.5 -13.65 8.55 -13.65 9.8 -15.2 10.5 L-16.1 9.45 Q-17.75 7.15 -17.75 3.15 -17.05 1.9 -21.55 1.3 L-21.85 0.15 M1.0 -9.05 Q0.3 -10.75 0.15 -13.8 L0.1 -15.45 0.25 -15.75 1.0 -19.3 1.0 -19.5 Q1.0 -20.25 1.65 -20.85 L2.35 -21.5 4.2 -21.45 4.25 -20.35 Q4.25 -19.8 3.3 -18.6 2.35 -17.4 2.35 -16.9 L4.9 -14.6 3.95 -11.35 Q2.9 -8.6 2.0 -7.5 1.4 -8.0 1.0 -9.05 M17.45 -4.7 Q18.6 -3.8 19.15 -2.7 L20.25 -0.55 20.3 -0.5 Q21.0 0.65 23.0 1.65 L23.9 2.05 24.95 2.5 26.5 3.0 26.15 3.8 26.8 4.0 27.2 3.6 27.2 3.75 Q27.2 4.3 25.8 5.4 L24.75 6.4 23.7 6.3 23.5 5.45 23.0 4.6 22.8 4.35 Q22.05 3.55 20.7 3.25 L20.1 3.15 Q17.3 2.45 16.95 2.05 L16.35 1.4 Q15.4 0.0 15.4 -1.85 L15.85 -3.05 16.25 -3.85 17.0 -5.0 17.45 -4.7 M14.5 17.15 L14.7 17.45 Q15.3 18.5 14.45 20.25 L15.0 19.9 17.55 17.75 Q19.15 16.5 20.45 16.0 21.4 15.55 22.1 15.55 L20.45 18.0 19.6 19.0 17.4 21.3 Q13.85 24.5 12.2 24.5 L9.05 24.3 9.4 23.9 10.3 22.8 Q10.25 22.55 9.65 23.0 L7.75 22.8 7.75 22.65 8.4 22.05 Q6.55 22.1 6.5 21.4 L6.75 20.25 6.75 20.05 6.15 18.95 Q5.65 18.4 5.85 18.05 L3.3 18.5 2.0 18.3 3.5 16.65 Q4.55 15.5 6.8 15.5 13.15 15.5 14.5 17.15" fill="#fce468" fill-rule="evenodd" stroke="none"/>
    <path d="M-1.65 -27.75 L0.25 -27.45 0.05 -26.75 Q0.05 -25.6 1.15 -25.0 L1.65 -24.75 8.35 -22.25 Q6.85 -22.2 6.5 -21.45 6.3 -21.1 6.4 -20.7 L10.75 -17.4 9.9 -16.45 5.45 -7.4 5.55 -6.7 7.35 -6.25 13.85 -6.75 10.9 -4.2 12.15 -4.0 Q12.35 -4.65 12.8 -4.2 L11.4 -1.9 Q11.2 -2.25 10.25 -2.25 L7.45 -0.5 Q6.65 -0.5 5.85 -0.95 5.1 -1.45 4.25 -1.45 3.3 -1.45 3.15 -0.8 L3.0 0.0 1.7 -0.2 1.85 -2.45 1.5 -3.35 0.7 -2.25 Q-2.1 1.0 -6.6 1.0 L-8.75 0.8 -10.55 6.2 Q-12.0 10.95 -14.85 13.5 L-16.1 9.45 -15.2 10.5 Q-13.65 9.8 -13.65 8.55 -13.65 -2.5 -20.6 -2.5 -21.95 -2.5 -21.95 -0.5 L-21.85 0.15 -22.9 -1.1 Q-23.9 -2.2 -25.9 -2.4 L-26.7 -2.45 -26.9 -2.4 -28.25 -4.5 -28.5 -3.95 Q-28.25 -4.6 -28.25 -5.45 -28.25 -6.05 -28.9 -5.65 -29.5 -5.25 -29.5 -5.9 -29.5 -7.2 -27.3 -8.95 L-29.4 -9.1 -27.95 -11.8 -25.9 -13.75 -26.2 -14.15 Q-24.55 -16.1 -22.3 -17.9 L-21.3 -17.7 -19.2 -20.15 -18.75 -20.45 -19.0 -20.45 -17.05 -20.8 -19.0 -18.7 -18.35 -18.5 -16.35 -19.4 -18.35 -17.2 -17.75 -17.0 -14.55 -18.95 -14.5 -19.0 -7.85 -23.55 -5.35 -25.75 -3.0 -26.75 -1.65 -27.75 M10.9 -20.45 L9.65 -20.75 10.8 -20.95 11.2 -20.85 10.9 -20.45 M8.6 -31.3 L3.35 -30.4 6.1 -31.5 8.6 -31.3 M-27.5 -15.7 L-27.6 -15.9 -27.35 -16.5 -27.3 -16.25 -27.5 -15.7 M1.0 -19.3 L-1.5 -19.7 0.05 -21.5 0.35 -22.25 -3.1 -22.25 -7.85 -20.0 -9.15 -20.2 -8.5 -22.45 -13.0 -18.65 -19.0 -14.65 -18.9 -14.5 Q-18.55 -14.0 -18.75 -13.2 L-18.1 -12.7 -16.9 -14.15 Q-16.2 -15.0 -15.55 -15.0 -2.0 -12.9 -5.6 -7.7 -5.3 -7.5 -2.8 -8.5 L0.55 -7.95 1.0 -9.05 Q1.4 -8.0 2.0 -7.5 2.9 -8.6 3.95 -11.35 L4.9 -14.6 2.35 -16.9 Q2.35 -17.4 3.3 -18.6 4.25 -19.8 4.25 -20.35 L4.2 -21.45 2.35 -21.5 1.65 -20.85 Q1.0 -20.25 1.0 -19.5 L1.0 -19.3 M0.15 -13.8 L-0.2 -14.65 0.25 -15.75 0.1 -15.45 0.15 -13.8 M-33.3 -0.65 L-33.2 -0.55 -33.3 0.05 -33.4 -0.5 -33.3 -0.65 M-31.2 3.25 L-31.45 5.0 -31.45 2.9 -31.2 3.25 M-31.25 8.25 L-29.9 10.2 -30.8 9.5 -30.8 9.55 -31.25 8.35 -31.25 8.25 M-25.75 12.85 L-25.05 11.4 -25.05 8.65 Q-22.6 9.25 -22.6 12.3 L-22.9 14.25 -25.75 12.85 M-32.7 -2.85 L-32.7 -2.95 Q-32.7 -4.25 -31.75 -6.0 L-32.7 -2.85 M-30.75 -4.75 L-29.9 -7.9 -29.2 -7.95 -30.75 -4.75 M-30.8 -2.1 L-29.85 -2.7 -29.35 -3.0 -30.8 -1.75 -30.8 -2.1 M-22.85 -12.0 L-24.25 -12.1 -22.85 -11.95 -22.85 -12.0 M9.05 -23.5 L8.5 -23.8 8.2 -24.1 9.2 -23.85 9.05 -23.5 M-14.55 -9.75 Q-15.35 -9.75 -15.9 -8.25 L-16.2 -6.65 Q-16.2 -5.5 -15.8 -5.2 -14.6 -4.25 -9.85 -4.2 L-9.75 -5.2 Q-9.75 -5.9 -13.6 -8.2 L-13.15 -8.2 -12.95 -8.95 -13.25 -9.85 -13.4 -9.85 -14.55 -9.75 M17.0 -14.05 L17.25 -14.0 17.9 -14.25 18.2 -11.25 17.3 -10.0 15.55 -8.3 Q15.55 -10.3 16.75 -11.75 L17.9 -12.85 17.65 -13.05 Q17.1 -13.5 17.0 -14.05 M19.95 -11.3 Q19.1 -12.05 19.15 -13.5 L19.25 -16.0 19.15 -15.95 19.3 -16.1 19.95 -11.3 M17.45 -4.7 L19.25 -6.25 19.25 -8.95 17.85 -8.7 17.3 -8.7 17.3 -9.75 17.45 -9.75 20.05 -10.55 20.25 -9.0 20.45 -8.3 20.2 -7.0 20.25 -6.5 20.75 -6.45 20.45 -5.95 22.9 -0.4 20.3 -0.5 20.25 -0.55 19.15 -2.7 Q18.6 -3.8 17.45 -4.7 M16.25 -3.85 L15.85 -3.05 15.35 -3.25 16.25 -3.85 M20.1 3.15 L20.7 3.25 Q22.05 3.55 22.8 4.35 L22.6 5.0 22.15 5.45 Q18.8 9.0 18.55 11.8 L19.15 11.8 Q19.25 12.6 19.6 12.9 L19.8 13.0 Q19.95 12.55 20.45 12.55 L20.45 16.0 Q19.15 16.5 17.55 17.75 L15.0 19.9 14.45 20.25 Q15.3 18.5 14.7 17.45 L14.5 17.15 15.4 16.3 Q15.1 15.9 15.1 15.0 15.1 14.2 16.35 11.8 L16.3 11.55 14.45 13.8 13.8 13.8 Q13.8 10.95 17.0 8.35 20.2 5.75 20.2 3.75 L20.1 3.15 M25.85 9.1 L24.65 10.7 24.95 9.05 24.95 9.0 25.75 8.9 25.75 8.85 25.85 9.1 M22.2 25.6 L20.05 26.55 21.95 25.65 22.2 25.5 22.2 25.6 M22.6 8.95 L22.75 9.55 23.0 9.6 22.65 10.75 22.4 10.75 22.6 8.95 M20.45 18.0 L20.45 18.5 19.6 19.0 20.45 18.0 M9.4 23.9 L-4.9 25.2 Q-5.1 24.25 -6.95 23.65 -9.7 22.75 -10.1 21.05 L-10.2 21.05 -10.4 19.3 -10.1 18.9 -5.35 16.55 -5.3 18.25 -1.55 18.05 -2.1 19.4 -2.75 20.25 Q0.1 20.55 -0.2 21.0 L-0.85 21.75 1.7 21.2 4.2 20.0 6.75 20.05 6.75 20.25 6.5 21.4 Q6.55 22.1 8.4 22.05 L7.75 22.65 7.75 22.8 9.65 23.0 Q10.25 22.55 10.3 22.8 L9.4 23.9 M11.85 -1.05 L12.8 -0.95 11.85 -0.15 11.25 -0.2 11.85 -1.05 M15.35 23.75 L15.1 24.05 14.65 24.85 14.25 24.25 15.35 23.75 M21.25 23.0 L21.45 22.75 21.7 22.55 21.7 22.85 21.25 23.0" fill="#fcfcb8" fill-rule="evenodd" stroke="none"/>
    <path d="M-32.4 -42.0 Q-33.2 -42.25 -33.2 -42.85 L-31.6 -42.6 -32.4 -42.0 M-34.5 -30.6 L-32.9 -30.5 -32.9 -29.35 -34.5 -29.5 -34.5 -30.6 M-17.4 -37.75 Q-17.4 -36.75 -19.0 -36.25 L-20.45 -36.85 Q-20.6 -36.4 -20.6 -37.65 -20.6 -38.35 -19.0 -38.75 L-17.4 -37.75" fill="#cc6600" fill-rule="evenodd" stroke="none"/>
    <path d="M-24.0 -27.1 L-24.75 -26.5 Q-25.55 -26.75 -25.55 -27.35 L-24.0 -27.1 M-34.3 -19.25 L-35.75 -19.85 Q-35.9 -19.4 -35.9 -20.65 -35.9 -21.35 -34.3 -21.75 L-32.7 -20.75 Q-32.7 -19.75 -34.3 -19.25 M13.3 -49.35 L14.9 -49.1 14.15 -48.5 Q13.3 -48.75 13.3 -49.35 M18.25 -41.75 Q18.25 -40.75 16.7 -40.25 15.7 -40.5 15.2 -40.85 15.1 -40.4 15.1 -41.65 15.1 -42.35 16.7 -42.75 L18.25 -41.75" fill="#000000" fill-rule="evenodd" stroke="none"/>
    <path d="M35.9 -38.85 L34.35 -39.0 34.35 -40.1 35.9 -40.0 35.9 -38.85 M42.8 -34.75 Q43.75 -34.45 44.4 -33.75 44.4 -32.75 42.8 -32.25 L41.35 -32.85 Q41.2 -32.4 41.2 -33.65 41.2 -34.35 42.8 -34.75 M24.95 -38.5 Q24.15 -38.75 24.15 -39.35 L25.75 -39.1 24.95 -38.5" fill="#ffff33" fill-rule="evenodd" stroke="none"/>
  </g>
</svg>
