<?xml version="1.0" encoding="UTF-8" standalone="no"?>
<svg xmlns:xlink="http://www.w3.org/1999/xlink" height="14.35px" width="20.2px" xmlns="http://www.w3.org/2000/svg">
  <g transform="matrix(1.0, 0.0, 0.0, 1.0, 11.55, 1.9)">
    <path d="M3.1 3.9 L2.9 3.75 3.0 3.6 3.1 3.9 M-4.75 -1.0 L-4.8 -1.05 -4.4 -1.1 -2.65 -1.15 -2.5 -0.85 -4.75 -1.0 M-6.35 10.65 L-6.25 10.85 -6.35 10.85 -6.35 10.65 M6.75 4.75 L6.85 4.3 7.2 4.4 6.75 4.75 M3.75 2.6 L5.2 3.2 3.55 2.85 3.75 2.6 M0.75 1.25 L0.7 1.25 0.5 1.25 0.45 0.9 1.0 1.15 2.6 1.4 0.75 1.25 M0.3 1.5 L0.05 1.6 Q-2.3 0.1 -2.3 -0.35 L-2.25 -0.4 Q-1.5 0.8 0.3 1.5 M-0.8 -1.0 Q-1.8 -1.85 -3.4 -1.85 -5.25 -1.85 -6.35 -0.3 -7.1 0.8 -7.1 1.65 -7.1 3.5 -9.0 3.8 -10.9 4.05 -10.9 5.6 -10.9 6.65 -10.6 6.95 L-9.6 7.8 -9.85 7.85 -9.85 8.2 Q-11.85 6.9 -11.5 5.1 -11.3 4.05 -10.55 4.0 -7.05 3.7 -7.35 1.1 -7.65 -1.0 -5.45 -1.7 -2.1 -2.3 -0.8 -1.0 M-0.6 6.9 L-0.6 6.65 -0.2 6.6 -0.6 6.9 M1.95 6.2 Q7.1 5.15 8.4 4.2 6.75 6.8 2.0 6.2 L1.95 6.2 M-0.25 10.85 Q-0.9 11.85 -2.95 12.2 -6.95 12.95 -7.85 11.3 -6.85 12.0 -3.15 12.0 -1.5 12.0 -0.4 11.0 L-0.25 10.85 M-8.1 10.4 L-8.1 10.05 Q-8.1 9.05 -8.6 8.8 L-9.5 8.35 -8.6 8.5 -8.3 8.7 -8.45 8.5 -8.25 8.5 Q-8.45 9.1 -7.9 9.7 L-8.1 10.4 M-0.6 8.55 L-0.6 7.95 0.0 9.2 -0.6 8.85 -0.6 8.7 -0.6 8.55 M-6.95 10.95 L-7.4 10.15 -7.3 10.25 -6.95 10.1 -6.95 10.95" fill="#ffffcc" fill-rule="evenodd" stroke="none"/>
    <path d="M2.9 3.75 L3.1 3.9 6.85 4.3 6.75 4.75 Q4.3 5.65 -1.35 6.0 L-1.35 7.3 -1.85 7.0 Q-2.35 7.6 -1.75 9.15 -1.8 10.5 -6.25 10.85 L-6.35 10.65 Q-5.9 8.4 -8.0 7.9 L-8.8 7.8 -10.15 5.55 Q-5.35 1.35 -5.35 0.25 L-5.35 -0.45 Q-5.3 -0.95 -4.8 -1.05 L-4.75 -1.0 -5.05 -0.6 Q-0.25 1.1 -0.25 2.25 L-0.25 3.15 Q2.3 3.4 2.9 3.75 M-6.15 4.3 Q-8.55 4.55 -8.55 6.35 -8.55 7.0 -7.9 7.5 L-6.65 7.75 Q-5.75 7.75 -4.4 7.1 -2.8 6.3 -2.8 5.35 L-3.1 4.8 -3.0 4.75 Q-2.8 4.55 -3.15 4.0 L-5.05 3.75 Q-5.35 3.75 -5.9 4.1 L-6.15 4.3" fill="#ffffd9" fill-rule="evenodd" stroke="none"/>
    <path d="M3.1 3.9 L3.0 3.6 2.9 3.75 Q2.3 3.4 -0.25 3.15 L-0.25 2.25 Q-0.25 1.1 -5.05 -0.6 L-4.75 -1.0 -2.5 -0.85 -2.2 -0.75 -2.25 -0.4 -2.3 -0.35 Q-2.3 0.1 0.05 1.6 L0.3 1.5 0.7 1.25 0.75 1.25 1.3 1.85 4.2 2.0 3.75 2.6 3.55 2.85 5.2 3.2 6.1 3.4 6.1 3.6 8.15 3.75 8.35 3.75 8.25 3.85 7.7 4.5 7.2 4.4 6.85 4.3 3.1 3.9 M-8.8 7.8 L-8.0 7.9 Q-5.9 8.4 -6.35 10.65 L-6.35 10.85 -6.25 10.85 Q-1.8 10.5 -1.75 9.15 -2.35 7.6 -1.85 7.0 L-1.35 7.3 Q-0.6 7.8 -0.6 8.55 L-0.6 8.7 -1.15 10.25 -2.2 11.5 -6.95 11.4 -6.95 10.95 -6.95 10.1 -7.3 10.25 -7.4 10.15 -7.9 9.7 Q-8.45 9.1 -8.25 8.5 L-8.45 8.5 -8.6 8.5 -9.5 8.35 -9.85 8.25 -9.85 8.2 -9.85 7.85 -9.6 7.8 -9.5 7.75 -8.8 7.8 M-6.15 4.3 L-5.9 4.1 Q-5.35 3.75 -5.05 3.75 L-3.15 4.0 Q-2.8 4.55 -3.0 4.75 L-3.1 4.8 -5.45 5.2 -5.9 5.25 -6.35 5.25 -6.65 5.15 Q-6.65 4.65 -6.15 4.3" fill="#ffcc00" fill-rule="evenodd" stroke="none"/>
    <path d="M-4.8 -1.05 Q-5.3 -0.95 -5.35 -0.45 L-5.35 0.25 Q-5.35 1.35 -10.15 5.55 L-8.8 7.8 -9.5 7.75 -9.6 7.8 -10.6 6.95 Q-10.9 6.65 -10.9 5.6 -10.9 4.05 -9.0 3.8 -7.1 3.5 -7.1 1.65 -7.1 0.8 -6.35 -0.3 -5.25 -1.85 -3.4 -1.85 -1.8 -1.85 -0.8 -1.0 L0.45 0.9 0.5 1.25 0.7 1.25 0.3 1.5 Q-1.5 0.8 -2.25 -0.4 L-2.2 -0.75 -2.5 -0.85 -2.65 -1.15 -4.4 -1.1 -4.8 -1.05 M-1.35 7.3 L-1.35 6.0 Q4.3 5.65 6.75 4.75 L7.2 4.4 7.7 4.5 8.25 3.85 8.35 3.75 8.15 3.75 6.1 3.6 6.1 3.4 5.2 3.2 3.75 2.6 4.2 2.0 1.3 1.85 0.75 1.25 2.6 1.4 Q5.45 1.7 6.5 2.4 L8.65 3.9 8.4 4.2 Q7.1 5.15 1.95 6.2 L-0.2 6.6 -0.6 6.65 -0.6 6.9 -0.6 7.95 -0.6 8.55 Q-0.6 7.8 -1.35 7.3 M-3.1 4.8 L-2.8 5.35 Q-2.8 6.3 -4.4 7.1 -5.75 7.75 -6.65 7.75 L-7.9 7.5 Q-8.55 7.0 -8.55 6.35 -8.55 4.55 -6.15 4.3 -6.65 4.65 -6.65 5.15 L-6.35 5.25 -5.9 5.25 -5.45 5.2 -3.1 4.8 M0.0 9.2 L0.35 9.55 Q0.35 10.2 -0.25 10.85 L-0.4 11.0 Q-1.5 12.0 -3.15 12.0 -6.85 12.0 -7.85 11.3 L-8.25 10.75 -8.1 10.4 -7.9 9.7 -7.4 10.15 -6.95 10.95 -6.95 11.4 -2.2 11.5 -1.15 10.25 -0.6 8.7 -0.6 8.85 0.0 9.2 M-8.45 8.5 L-8.3 8.7 -8.6 8.5 -8.45 8.5" fill="#d4a83c" fill-rule="evenodd" stroke="none"/>
  </g>
</svg>
