<?xml version="1.0" encoding="UTF-8" standalone="no"?>
<svg xmlns:xlink="http://www.w3.org/1999/xlink" height="78.25px" width="70.8px" xmlns="http://www.w3.org/2000/svg">
  <g transform="matrix(1.0, 0.0, 0.0, 1.0, 35.95, 45.6)">
    <path d="M-14.75 -41.0 L-14.75 -42.1 -13.15 -42.0 -13.15 -40.85 -14.75 -41.0 M-5.8 -42.5 L-5.8 -43.6 -4.2 -43.5 -4.2 -42.35 -5.8 -42.5" fill="#b25e12" fill-rule="evenodd" stroke="none"/>
    <path d="M-16.0 -27.65 Q-16.0 -26.6 -15.45 -26.85 L-19.85 -23.35 -16.0 -27.65 M-10.35 -28.2 L-10.35 -28.15 Q-10.15 -27.75 -9.5 -27.75 -8.0 -27.75 -6.0 -26.95 L-5.3 -26.65 -5.35 -26.6 -5.2 -25.45 -6.35 -25.8 -11.1 -27.6 -10.35 -28.2 M1.95 -30.0 L2.65 -30.7 2.6 -30.4 2.6 -30.3 1.95 -30.0 M21.7 -11.3 L23.35 -6.85 23.1 -6.0 23.05 -6.05 22.65 -6.45 22.65 -6.5 21.8 -8.45 21.4 -8.0 21.35 -9.45 21.65 -9.5 21.7 -9.5 21.8 -10.5 21.7 -11.25 21.7 -11.3 M27.75 1.75 L28.1 3.0 27.7 4.2 27.7 4.05 27.75 1.75 M27.4 8.2 L27.75 11.0 27.6 11.7 25.65 12.2 25.85 11.9 26.8 10.6 27.05 9.2 27.4 8.2 M10.55 27.55 L7.35 27.75 3.85 27.5 4.5 27.35 10.3 27.45 10.55 27.55 M1.5 27.0 Q-1.6 26.3 -5.1 24.9 L-11.5 21.8 -13.8 20.6 -15.25 19.8 -16.8 19.35 -22.65 18.4 -23.35 18.2 -25.9 17.2 -24.8 17.25 Q-23.2 17.25 -23.2 16.55 -23.65 15.7 -25.4 14.3 -27.15 12.8 -28.0 12.8 L-28.75 13.0 -29.45 10.4 Q-29.8 8.8 -31.5 8.8 L-32.4 9.0 Q-33.4 6.95 -33.4 5.85 L-32.5 4.35 Q-32.0 3.5 -33.75 1.8 -34.75 2.35 -35.25 3.1 L-35.05 2.4 -33.9 -1.45 -33.1 -1.4 -33.05 -1.5 -33.35 1.0 Q-33.35 1.8 -32.95 1.9 L-31.8 2.0 -31.3 1.85 -31.8 2.35 -31.3 4.5 -30.6 6.3 -30.5 6.65 -28.3 11.25 -28.25 11.35 -28.0 11.25 -21.55 14.15 -20.15 14.8 -13.7 17.75 Q-1.1 23.2 4.05 24.1 L3.7 24.45 Q2.35 23.9 0.35 23.3 -3.6 22.0 -4.4 22.0 L-7.9 22.25 -7.9 23.3 Q-6.5 23.6 -2.55 25.15 L2.35 27.15 2.2 27.2 1.5 27.0 M-29.5 14.55 L-29.9 14.55 Q-31.3 14.55 -32.4 14.0 L-32.95 13.7 -32.85 13.5 -32.45 13.3 -32.25 11.9 -32.15 12.05 Q-31.05 13.15 -29.4 13.55 L-29.5 14.15 -29.5 14.55 M-34.45 11.8 L-34.55 11.5 -35.25 9.25 -35.25 7.25 -34.3 10.25 -34.45 11.8 M-24.3 -21.45 Q-23.4 -22.0 -22.9 -22.0 L-21.8 -21.8 -22.75 -21.0 -23.45 -20.75 -24.7 -21.15 -24.3 -21.45 M7.3 -24.6 L7.35 -24.45 Q8.15 -23.05 7.7 -22.25 L7.7 -22.0 9.6 -22.5 9.65 -22.45 10.1 -22.05 11.45 -21.05 11.5 -21.0 11.5 -20.9 Q11.45 -20.4 10.6 -19.95 L9.6 -19.5 5.85 -19.75 Q5.7 -21.1 6.1 -22.0 L5.15 -21.5 Q3.85 -20.75 3.85 -22.0 3.85 -22.75 4.25 -22.9 L4.9 -23.2 5.15 -23.5 4.95 -23.55 0.35 -23.75 -0.6 -24.95 0.7 -25.55 5.15 -25.95 Q6.1 -25.95 6.85 -25.15 L7.0 -25.05 7.3 -24.6 M-20.45 -42.1 L-18.9 -42.0 -18.9 -40.85 -20.45 -41.0 -20.45 -42.1 M-26.85 -45.6 L-25.25 -45.5 -25.25 -44.35 -26.85 -44.5 -26.85 -45.6 M-22.7 -18.95 L-22.6 -19.0 Q-21.15 -19.2 -19.4 -20.15 -19.6 -19.45 -20.55 -18.95 L-21.3 -18.6 -22.25 -18.45 -23.1 -18.55 -29.25 -13.5 Q-29.25 -12.25 -27.95 -10.4 L-28.35 -8.3 -29.5 -3.35 -29.85 -2.15 Q-29.85 -0.85 -30.35 0.35 L-30.15 -0.7 -31.25 -4.75 -31.2 -5.45 Q-30.35 -7.75 -30.35 -9.65 -30.35 -11.65 -29.45 -13.55 -28.45 -15.15 -26.4 -16.7 L-25.2 -17.55 -22.7 -18.95 M-15.65 -23.75 L-15.55 -24.25 -13.4 -25.85 -15.65 -23.75 M-2.1 13.8 Q4.9 14.05 9.3 18.5 L1.5 18.25 1.95 17.05 Q1.95 16.25 0.5 16.35 -0.8 16.45 -1.15 16.8 -1.5 17.25 -2.45 17.25 -3.45 17.3 -3.45 16.05 -3.45 15.25 -2.95 15.15 L-1.15 15.0 -3.15 14.15 -3.45 13.8 -3.9 13.8 -3.15 13.75 -2.1 13.8 M14.2 18.8 Q15.4 16.4 17.7 12.9 L21.8 6.45 23.0 3.8 Q21.4 3.55 20.0 2.65 17.25 0.9 15.55 -3.35 L16.0 -3.25 Q17.0 -3.25 17.55 -3.7 L17.9 -4.8 19.4 -3.2 Q19.6 -2.4 20.7 -1.9 L21.15 -1.45 21.1 -1.1 Q21.1 -0.55 21.45 0.05 22.1 0.95 23.35 1.05 L24.0 2.1 21.1 11.0 21.15 11.8 Q19.4 13.25 17.85 16.8 L17.65 17.25 17.25 17.0 Q16.25 17.35 14.5 18.7 L14.2 18.8 M8.95 -4.35 Q6.6 -4.7 5.85 -5.7 L8.65 -7.95 13.45 -10.95 13.95 -11.15 14.05 -11.15 14.4 -10.45 Q14.4 -9.0 12.6 -7.3 L11.85 -6.7 Q12.45 -6.05 16.05 -5.8 L16.7 -5.75 16.85 -5.95 17.0 -5.7 16.95 -4.25 8.95 -4.35 M13.6 -15.2 L13.7 -15.75 13.95 -15.4 13.8 -15.2 13.6 -15.2 M-2.25 -25.45 L-3.45 -25.2 -5.05 -25.45 -2.25 -25.45 M18.45 -9.1 L18.85 -9.45 19.95 -9.45 20.0 -9.25 18.45 -9.1" fill="#e8c450" fill-rule="evenodd" stroke="none"/>
    <path d="M-16.0 -27.65 Q-16.0 -28.55 -13.7 -30.25 -11.15 -32.15 -9.0 -32.15 -7.4 -32.15 -5.9 -30.95 -4.3 -29.75 -2.75 -29.75 L1.15 -33.2 Q5.6 -36.65 9.05 -36.65 10.25 -36.65 13.25 -35.05 16.0 -33.55 17.1 -32.35 17.9 -32.15 20.95 -28.3 L24.15 -24.1 Q24.15 -23.55 25.4 -22.0 26.7 -20.5 26.7 -19.75 26.7 -18.5 25.9 -16.0 L24.25 -15.55 23.8 -15.5 Q23.45 -15.9 23.7 -16.55 L24.0 -17.95 23.9 -19.1 Q23.55 -20.8 22.35 -22.85 L20.35 -25.65 Q16.85 -30.0 14.6 -30.4 L14.45 -30.2 14.3 -30.35 14.25 -30.95 14.3 -31.2 12.4 -32.2 Q10.7 -33.4 10.0 -33.4 6.15 -33.4 3.25 -31.2 L2.65 -30.7 1.95 -30.0 1.65 -29.75 Q-1.75 -26.15 -3.15 -26.15 L-5.3 -26.65 -6.0 -26.95 Q-8.0 -27.75 -9.5 -27.75 -10.15 -27.75 -10.35 -28.15 L-10.35 -28.2 -11.25 -29.25 Q-13.8 -27.4 -15.25 -27.0 L-15.45 -26.85 Q-16.0 -26.6 -16.0 -27.65 M27.6 11.7 L28.45 11.5 Q29.1 12.0 29.1 12.8 29.1 14.1 25.65 15.7 22.2 17.3 22.2 18.35 L21.25 20.8 Q20.3 23.1 20.3 24.25 20.3 27.85 11.9 27.85 L10.55 27.55 10.3 27.45 9.05 26.85 8.95 26.65 8.85 26.0 8.85 25.75 Q14.0 25.5 16.55 23.9 L17.05 23.5 18.2 22.3 20.25 17.3 Q20.95 15.5 21.65 14.65 22.9 13.15 25.45 12.25 L25.65 12.2 27.6 11.7 M-33.9 -1.45 L-34.1 -1.5 Q-34.35 -1.6 -34.35 -2.4 L-32.6 -14.0 Q-32.6 -15.1 -31.05 -17.05 L-29.45 -18.55 -29.35 -18.65 Q-28.5 -19.2 -27.65 -19.15 L-27.35 -19.25 Q-27.05 -19.2 -27.05 -18.4 L-27.75 -16.45 -29.45 -13.55 Q-30.35 -11.65 -30.35 -9.65 -30.35 -7.75 -31.2 -5.45 L-33.05 -1.5 -33.1 -1.4 -33.9 -1.45 M-30.65 -29.6 L-29.1 -29.5 -29.1 -28.35 -30.65 -28.5 -30.65 -29.6 M-30.65 -33.1 L-29.1 -33.0 -29.1 -31.85 -30.65 -32.0 -30.65 -33.1 M32.3 30.4 L32.3 32.65 29.1 32.65 29.1 30.3 32.3 30.4 M34.85 23.15 L31.65 23.15 31.65 20.8 34.85 20.9 34.85 23.15" fill="#360300" fill-rule="evenodd" stroke="none"/>
    <path d="M-15.45 -26.85 L-15.25 -27.0 Q-13.8 -27.4 -11.25 -29.25 L-10.35 -28.2 -11.1 -27.6 -13.4 -25.85 -15.55 -24.25 -15.65 -23.75 Q-16.1 -22.25 -18.1 -20.95 L-19.4 -20.15 Q-21.15 -19.2 -22.6 -19.0 L-22.7 -18.95 -23.85 -18.75 -24.0 -18.75 -24.8 -18.55 Q-26.0 -18.25 -26.4 -16.7 L-27.75 -16.45 -27.05 -18.4 Q-27.05 -19.2 -27.35 -19.25 L-27.65 -19.15 -27.6 -19.75 -27.6 -19.85 Q-27.4 -21.2 -25.1 -21.2 L-24.7 -21.15 -23.45 -20.75 -23.3 -20.65 -22.75 -21.0 -21.8 -21.8 -19.85 -23.35 -15.45 -26.85 M3.25 -31.2 Q6.15 -33.4 10.0 -33.4 10.7 -33.4 12.4 -32.2 L14.3 -31.2 14.25 -30.95 14.3 -30.35 Q11.7 -33.0 9.6 -33.0 L6.6 -31.55 4.2 -30.5 3.35 -30.5 3.3 -30.55 3.25 -31.2 M14.45 -30.2 L14.6 -30.4 Q16.85 -30.0 20.35 -25.65 L22.35 -22.85 22.1 -21.75 21.9 -21.3 23.55 -19.55 23.9 -19.1 24.0 -17.95 23.7 -16.55 Q23.45 -15.9 23.8 -15.5 L24.25 -15.55 Q23.55 -13.6 21.8 -11.35 L21.7 -11.35 21.7 -11.3 21.25 -10.75 20.75 -10.25 19.85 -10.25 Q19.35 -11.25 19.3 -12.25 L19.25 -12.75 19.6 -13.4 Q21.8 -16.95 21.8 -18.2 L21.65 -18.3 Q19.85 -19.7 19.85 -20.45 L20.05 -22.15 Q18.8 -24.6 16.6 -27.6 L14.45 -30.2 M-32.95 13.7 L-33.1 14.0 -34.95 13.8 -34.45 11.8 -34.3 10.25 -35.25 7.25 -35.95 5.15 Q-35.95 4.15 -35.45 3.35 L-35.25 3.1 Q-34.75 2.35 -33.75 1.8 -32.0 3.5 -32.5 4.35 L-33.4 5.85 Q-33.4 6.95 -32.4 9.0 L-32.05 9.55 -32.25 11.9 -32.45 13.3 -32.85 13.5 -32.95 13.7 M25.4 4.95 L25.6 3.55 26.25 3.55 27.0 4.3 27.45 5.25 27.05 9.2 26.8 10.6 25.85 11.9 25.45 12.25 Q22.9 13.15 21.65 14.65 20.95 15.5 20.25 17.3 L18.4 19.55 17.5 21.05 16.75 23.0 Q16.7 21.9 16.8 21.0 L16.85 20.45 17.25 18.8 17.85 17.4 Q18.9 15.2 21.1 13.65 L21.4 13.45 23.6 11.75 Q23.6 10.35 24.5 7.9 L25.35 5.25 25.4 4.95 M18.2 3.2 L18.2 3.35 17.9 4.75 16.3 4.75 16.15 3.95 12.8 1.25 12.45 0.8 14.7 0.25 Q16.1 0.25 17.0 0.75 18.15 1.45 18.2 3.2 M12.85 14.8 L13.0 14.5 13.1 15.1 Q13.1 16.35 12.45 16.55 L8.65 15.05 8.65 14.55 Q8.65 14.25 9.6 14.25 L11.05 14.4 12.85 14.8 M7.8 24.35 L11.95 24.8 Q15.8 24.8 16.6 23.6 L16.55 23.9 Q14.0 25.5 8.85 25.75 L8.85 26.0 Q5.15 25.9 2.9 26.05 L4.0 25.0 Q5.25 23.8 5.9 23.95 L7.8 24.35" fill="#743e0c" fill-rule="evenodd" stroke="none"/>
    <path d="M-5.3 -26.65 L-3.15 -26.15 Q-1.75 -26.15 1.65 -29.75 L1.95 -30.0 2.6 -30.3 3.3 -30.55 3.35 -30.5 4.2 -30.5 6.6 -31.55 7.7 -31.7 12.55 -31.25 12.8 -30.15 Q12.8 -29.0 8.4 -27.85 L0.8 -26.1 -1.25 -25.45 -1.65 -25.45 -2.25 -25.45 -5.05 -25.45 -5.2 -25.45 -5.35 -26.6 -5.3 -26.65 M12.3 -23.8 L13.6 -24.35 15.0 -24.5 Q19.3 -24.5 17.55 -21.7 17.55 -20.9 19.85 -18.7 L19.85 -18.6 21.1 -18.2 21.65 -18.3 21.8 -18.2 Q21.8 -16.95 19.6 -13.4 L19.55 -13.65 19.6 -14.8 19.85 -16.0 19.8 -16.0 17.25 -15.7 16.15 -16.75 Q16.7 -17.4 16.7 -18.1 16.7 -18.8 16.05 -19.2 L16.5 -19.2 15.6 -20.4 14.6 -21.45 Q13.15 -22.5 10.55 -22.5 11.35 -23.35 12.3 -23.8 M4.05 24.1 Q5.7 22.7 9.4 20.8 12.4 19.35 14.2 18.8 L14.5 18.7 15.65 18.5 16.85 20.45 16.8 21.0 Q15.8 21.65 7.8 24.35 L5.9 23.95 Q5.25 23.8 4.0 25.0 L3.55 24.55 3.7 24.45 4.05 24.1 M19.3 -12.25 Q19.35 -11.25 19.85 -10.25 L20.75 -10.25 21.25 -10.75 21.35 -9.45 21.4 -8.0 21.8 -8.45 22.65 -6.5 22.65 -6.45 Q22.5 -5.9 21.8 -5.6 L22.05 -4.85 Q22.65 -3.85 24.6 -2.95 L24.65 -2.5 24.65 -1.75 24.25 -1.2 21.2 -1.7 20.7 -1.9 Q19.6 -2.4 19.4 -3.2 19.3 -3.55 19.35 -3.9 L20.05 -5.25 Q19.85 -5.5 19.85 -6.1 L20.75 -7.15 20.75 -7.5 20.0 -9.25 19.95 -9.45 Q19.25 -11.1 19.25 -11.9 L19.3 -12.25 M22.75 19.8 L25.9 19.9 25.9 22.15 22.75 22.15 22.75 19.8" fill="#c56814" fill-rule="evenodd" stroke="none"/>
    <path d="M2.65 -30.7 L3.25 -31.2 3.3 -30.55 2.6 -30.3 2.6 -30.4 2.65 -30.7 M14.3 -30.35 L14.45 -30.2 16.6 -27.6 Q18.8 -24.6 20.05 -22.15 L19.85 -20.45 Q19.85 -19.7 21.65 -18.3 L21.1 -18.2 19.85 -18.6 19.85 -18.7 Q17.55 -20.9 17.55 -21.7 19.3 -24.5 15.0 -24.5 L13.6 -24.35 12.3 -23.8 Q10.7 -23.25 9.65 -22.45 L9.6 -22.5 7.7 -22.0 7.7 -22.25 Q8.15 -23.05 7.35 -24.45 L7.3 -24.6 7.35 -24.8 7.8 -26.55 8.4 -27.85 Q12.8 -29.0 12.8 -30.15 L12.55 -31.25 7.7 -31.7 6.6 -31.55 9.6 -33.0 Q11.7 -33.0 14.3 -30.35 M22.35 -22.85 Q23.55 -20.8 23.9 -19.1 L23.55 -19.55 21.9 -21.3 22.1 -21.75 22.35 -22.85 M27.7 4.2 L27.75 5.0 27.4 8.2 27.05 9.2 27.45 5.25 27.0 4.3 26.25 3.55 25.6 3.55 25.4 4.95 25.35 3.55 23.5 1.05 23.35 1.05 Q22.1 0.95 21.45 0.05 21.1 -0.55 21.1 -1.1 L21.15 -1.45 21.2 -1.7 24.25 -1.2 24.65 -1.75 24.65 -2.5 25.65 -1.75 Q26.7 -0.7 27.4 1.7 L27.5 2.1 27.4 3.15 27.7 4.05 27.7 4.2 M3.85 27.5 L3.25 27.5 2.8 27.3 2.7 27.3 2.35 27.15 -2.55 25.15 Q-6.5 23.6 -7.9 23.3 L-7.9 22.25 -4.4 22.0 Q-3.6 22.0 0.35 23.3 2.35 23.9 3.7 24.45 L3.55 24.55 4.0 25.0 2.9 26.05 Q5.15 25.9 8.85 26.0 L8.95 26.65 5.7 26.5 4.9 27.2 4.5 27.35 3.85 27.5 M10.75 -10.65 Q10.55 -10.7 10.55 -11.65 10.55 -12.05 11.6 -13.5 L12.1 -14.05 Q12.85 -15.0 13.6 -15.2 L13.8 -15.2 14.05 -15.25 19.6 -14.8 19.55 -13.65 19.6 -13.4 19.25 -12.75 19.3 -12.25 19.25 -11.9 Q19.25 -11.1 19.95 -9.45 L18.85 -9.45 18.45 -9.1 17.7 -8.3 17.95 -7.6 Q17.95 -6.45 17.0 -5.7 L16.85 -5.95 16.7 -5.75 16.05 -5.8 Q15.8 -6.9 16.35 -7.5 L16.35 -7.7 16.05 -7.7 16.05 -7.85 Q13.95 -6.95 12.8 -6.95 L12.6 -7.3 Q14.4 -9.0 14.4 -10.45 L14.05 -11.15 14.15 -11.45 Q13.5 -11.6 12.55 -10.7 L10.9 -10.7 10.75 -10.65 M13.5 -16.55 Q11.65 -16.9 11.6 -18.15 L11.6 -18.35 12.45 -20.3 12.45 -20.4 12.35 -21.05 11.65 -20.9 11.5 -20.9 11.5 -21.0 11.45 -21.05 12.8 -21.75 13.1 -19.75 13.15 -19.75 14.7 -19.65 14.45 -20.5 14.6 -21.45 15.6 -20.4 16.5 -19.2 16.05 -19.2 Q16.7 -18.8 16.7 -18.1 16.7 -17.4 16.15 -16.75 L16.0 -16.5 15.0 -16.45 13.85 -16.5 13.5 -16.55 M21.25 -10.75 L21.7 -11.3 21.7 -11.25 21.8 -10.5 21.7 -9.5 21.65 -9.5 21.35 -9.45 21.25 -10.75 M25.35 5.25 L24.5 7.9 Q23.6 10.35 23.6 11.75 L21.4 13.45 25.35 5.25 M17.85 17.4 L17.25 18.8 16.85 20.45 15.65 18.5 14.5 18.7 Q16.25 17.35 17.25 17.0 L17.65 17.25 17.85 17.4 M16.8 21.0 Q16.7 21.9 16.75 23.0 L17.5 21.05 18.4 19.55 17.9 20.5 17.5 21.05 17.75 21.4 18.2 22.3 17.05 23.5 16.55 23.9 16.6 23.6 Q15.8 24.8 11.95 24.8 L7.8 24.35 Q15.8 21.65 16.8 21.0 M25.45 12.25 L25.85 11.9 25.65 12.2 25.45 12.25" fill="#a05410" fill-rule="evenodd" stroke="none"/>
    <path d="M-11.1 -27.6 L-6.35 -25.8 -6.95 -25.75 Q-8.5 -25.75 -10.4 -26.75 L-10.4 -26.5 Q-10.4 -25.9 -11.7 -24.8 L-13.0 -23.85 -15.25 -21.5 -15.75 -21.8 -18.1 -19.2 -18.1 -19.1 -16.7 -17.8 -14.85 -15.15 Q-14.85 -12.9 -16.45 -11.25 L-16.85 -11.25 Q-17.75 -14.05 -18.9 -15.75 L-18.95 -15.8 Q-19.7 -16.2 -20.55 -17.55 L-21.3 -18.6 -20.55 -18.95 Q-19.6 -19.45 -19.4 -20.15 L-18.1 -20.95 Q-16.1 -22.25 -15.65 -23.75 L-13.4 -25.85 -11.1 -27.6 M-28.35 -8.3 L-27.35 -8.45 -22.95 -6.8 Q-18.5 -4.95 -17.8 -4.0 -18.75 -2.75 -18.75 -2.2 L-18.75 -2.15 -19.4 -1.0 -22.4 -2.8 -25.1 -3.2 -26.25 -3.2 -26.45 -3.2 -29.5 -3.35 -28.35 -8.3 M-28.5 3.7 L-28.35 3.75 Q-26.55 5.4 -24.85 8.2 L-21.55 14.0 -21.55 14.15 -28.0 11.25 -28.25 11.35 -28.3 11.25 -30.5 6.65 -30.5 6.25 -30.6 6.3 -31.3 4.5 -28.65 3.55 -28.5 3.7 M-7.55 -9.85 Q-6.7 -10.65 -3.7 -10.7 L-3.4 -10.55 -3.35 -10.55 Q-3.15 -13.2 -0.25 -13.2 L1.05 -12.95 1.4 -12.2 Q1.4 -7.85 -1.85 -6.25 -3.8 -6.55 -3.8 -7.5 L-3.65 -8.15 -5.05 -7.7 -9.5 -8.5 -9.5 -9.7 -7.55 -9.85" fill="#fce468" fill-rule="evenodd" stroke="none"/>
    <path d="M-13.8 20.6 Q-15.3 20.15 -16.8 19.35 L-15.25 19.8 -13.8 20.6 M-22.65 18.4 L-23.55 18.5 Q-26.45 18.5 -27.95 16.85 L-28.05 16.75 -26.45 17.15 -25.9 17.2 -23.35 18.2 -22.65 18.4 M-29.35 -18.65 L-27.75 -19.75 -27.6 -19.85 -27.6 -19.75 -27.65 -19.15 Q-28.5 -19.2 -29.35 -18.65 M-6.35 -25.8 L-5.2 -25.45 -5.05 -25.45 -3.45 -25.2 -2.25 -25.45 -1.65 -25.45 1.05 -22.05 Q4.95 -17.7 8.35 -17.7 L11.6 -18.15 Q11.65 -16.9 13.5 -16.55 L13.5 -16.5 13.7 -15.75 13.6 -15.2 Q12.85 -15.0 12.1 -14.05 L11.6 -13.5 Q10.55 -12.05 10.55 -11.65 10.55 -10.7 10.75 -10.65 L8.65 -7.95 5.85 -5.7 Q6.6 -4.7 8.95 -4.35 9.65 -4.0 10.25 -4.0 L13.5 -3.75 15.55 -3.35 Q17.25 0.9 20.0 2.65 21.8 5.45 21.8 6.25 L21.8 6.45 17.7 12.9 Q15.4 16.4 14.2 18.8 12.4 19.35 9.4 20.8 5.7 22.7 4.05 24.1 -1.1 23.2 -13.7 17.75 L-20.15 14.8 Q-17.5 14.85 -14.55 15.75 L-13.2 16.15 -12.25 13.95 Q-11.75 12.35 -11.75 11.1 L-11.7 10.0 -9.5 9.75 Q-7.05 9.75 -5.05 10.9 -3.85 11.6 -3.4 12.3 L-3.1 12.2 Q-2.75 12.2 -2.75 13.0 L-2.8 13.65 Q-3.0 13.4 -3.15 13.5 L-3.5 13.4 Q-4.15 14.05 -5.05 14.05 -6.0 14.05 -6.65 13.5 L-7.55 12.8 -7.2 14.65 -7.45 15.45 Q-7.9 16.2 -9.3 16.95 L-7.4 17.2 -6.25 15.9 -5.25 15.15 -3.15 14.15 -1.15 15.0 -2.95 15.15 Q-3.45 15.25 -3.45 16.05 -3.45 17.3 -2.45 17.25 -1.5 17.25 -1.15 16.8 -0.8 16.45 0.5 16.35 1.95 16.25 1.95 17.05 L1.5 18.25 9.3 18.5 Q4.9 14.05 -2.1 13.8 -0.15 13.1 2.65 12.65 L10.5 11.1 Q14.05 9.85 14.05 7.0 14.05 5.7 12.8 4.25 11.5 2.8 11.5 1.25 11.5 -0.3 9.05 -0.8 L3.55 -1.15 Q-4.55 -1.45 -4.65 -5.2 -6.7 -4.8 -8.5 -5.7 -8.5 -4.15 -9.85 -1.35 -11.3 1.8 -12.7 1.8 L-18.75 -2.15 -18.75 -2.2 Q-18.75 -2.75 -17.8 -4.0 -18.5 -4.95 -22.95 -6.8 L-27.35 -8.45 -28.35 -8.3 -27.95 -10.4 Q-29.25 -12.25 -29.25 -13.5 L-23.1 -18.55 -22.25 -18.45 -21.3 -18.6 -20.55 -17.55 Q-19.7 -16.2 -18.95 -15.8 L-18.9 -15.75 Q-17.75 -14.05 -16.85 -11.25 L-16.45 -11.25 Q-14.85 -12.9 -14.85 -15.15 L-16.7 -17.8 -18.1 -19.1 -18.1 -19.2 -15.75 -21.8 -15.25 -21.5 -13.0 -23.85 -11.7 -24.8 Q-10.4 -25.9 -10.4 -26.5 L-10.4 -26.75 Q-8.5 -25.75 -6.95 -25.75 L-6.35 -25.8 M-31.3 1.85 L-30.85 1.55 -30.35 0.35 Q-29.85 -0.85 -29.85 -2.15 L-29.5 -3.35 -26.45 -3.2 -26.25 -3.2 -28.65 3.25 -28.5 3.7 -28.65 3.55 -31.3 4.5 -31.8 2.35 -31.3 1.85 M-7.55 -22.7 L-5.9 -21.65 -7.55 -22.75 -7.55 -22.7 M-7.55 -9.85 L-9.5 -9.7 -9.5 -8.5 -5.05 -7.7 -3.65 -8.15 -3.8 -7.5 Q-3.8 -6.55 -1.85 -6.25 1.4 -7.85 1.4 -12.2 L1.05 -12.95 -0.25 -13.2 Q-3.15 -13.2 -3.35 -10.55 L-3.4 -10.55 -3.7 -10.7 Q-6.7 -10.65 -7.55 -9.85 M-14.55 -6.2 L-14.6 -8.0 Q-15.45 -7.55 -15.55 -6.95 -15.05 -6.2 -14.55 -6.2 M7.1 -7.8 L7.1 -7.7 7.8 -7.85 7.1 -7.8 M23.35 -36.85 L23.35 -39.25 26.55 -39.1 26.55 -36.85 23.35 -36.85 M18.2 3.2 Q18.15 1.45 17.0 0.75 16.1 0.25 14.7 0.25 L12.45 0.8 12.8 1.25 16.15 3.95 16.3 4.75 17.9 4.75 18.2 3.35 18.2 3.2 M12.85 14.8 L11.05 14.4 9.6 14.25 Q8.65 14.25 8.65 14.55 L8.65 15.05 12.45 16.55 Q13.1 16.35 13.1 15.1 L13.0 14.5 12.85 14.8 M-30.6 6.3 L-30.5 6.25 -30.5 6.65 -30.6 6.3" fill="#fcfcb8" fill-rule="evenodd" stroke="none"/>
    <path d="M0.25 -36.85 L0.15 -36.85 0.25 -37.85 0.25 -36.85" fill="#000000" fill-rule="evenodd" stroke="none"/>
    <path d="M23.1 -6.0 L27.75 -0.65 27.75 1.75 27.7 4.05 27.4 3.15 27.5 2.1 27.4 1.7 Q26.7 -0.7 25.65 -1.75 L24.65 -2.5 24.6 -2.95 Q22.65 -3.85 22.05 -4.85 L21.8 -5.6 Q22.5 -5.9 22.65 -6.45 L23.05 -6.05 23.1 -6.0 M2.7 27.3 L2.65 27.3 2.0 27.25 2.2 27.2 2.35 27.15 2.7 27.3 M-28.05 16.75 Q-29.5 16.05 -29.5 14.55 L-29.5 14.15 -29.4 13.55 Q-31.05 13.15 -32.15 12.05 L-32.25 11.9 -32.05 9.55 -32.4 9.0 -31.5 8.8 Q-29.8 8.8 -29.45 10.4 L-28.75 13.0 -28.0 12.8 Q-27.15 12.8 -25.4 14.3 -23.65 15.7 -23.2 16.55 -23.2 17.25 -24.8 17.25 L-25.9 17.2 -26.45 17.15 -28.05 16.75 M8.4 -27.85 L7.8 -26.55 7.35 -24.8 7.25 -25.0 7.05 -25.1 6.85 -25.15 Q6.1 -25.95 5.15 -25.95 L0.7 -25.55 0.7 -25.6 1.0 -26.0 0.8 -26.1 8.4 -27.85 M9.65 -22.45 Q10.7 -23.25 12.3 -23.8 11.35 -23.35 10.55 -22.5 13.15 -22.5 14.6 -21.45 L14.45 -20.5 14.7 -19.65 13.15 -19.75 13.1 -19.75 12.8 -21.75 11.45 -21.05 10.1 -22.05 9.65 -22.45 M-22.75 -21.0 L-23.3 -20.65 -23.45 -20.75 -22.75 -21.0 M-27.75 -16.45 L-26.4 -16.7 Q-26.0 -18.25 -24.8 -18.55 L-24.0 -18.75 -23.85 -18.75 -22.7 -18.95 -25.2 -17.55 -26.4 -16.7 Q-28.45 -15.15 -29.45 -13.55 L-27.75 -16.45 M15.55 -3.35 L13.5 -3.75 10.25 -4.0 Q9.65 -4.0 8.95 -4.35 L16.95 -4.25 17.0 -5.7 Q17.95 -6.45 17.95 -7.6 L17.7 -8.3 18.45 -9.1 20.0 -9.25 20.75 -7.5 20.75 -7.15 19.85 -6.1 Q19.85 -5.5 20.05 -5.25 L19.35 -3.9 Q19.3 -3.55 19.4 -3.2 L17.9 -4.8 17.55 -3.7 Q17.0 -3.25 16.0 -3.25 L15.55 -3.35 M8.65 -7.95 L10.75 -10.65 10.9 -10.7 12.55 -10.7 Q13.5 -11.6 14.15 -11.45 L14.05 -11.15 13.95 -11.15 13.45 -10.95 8.65 -7.95 M13.7 -15.75 L13.5 -16.5 13.5 -16.55 13.85 -16.5 15.0 -16.45 16.0 -16.5 16.15 -16.75 17.25 -15.7 19.8 -16.0 19.85 -16.0 19.6 -14.8 14.05 -15.25 13.8 -15.2 13.95 -15.4 13.7 -15.75 M-31.2 -5.45 L-31.25 -4.75 -30.15 -0.7 -30.35 0.35 -30.85 1.55 -31.3 1.85 -31.8 2.0 -32.95 1.9 Q-33.35 1.8 -33.35 1.0 L-33.05 -1.5 -31.2 -5.45 M11.65 -20.9 L12.35 -21.05 12.45 -20.4 12.45 -20.3 11.65 -20.9 M12.6 -7.3 L12.8 -6.95 Q13.95 -6.95 16.05 -7.85 L16.05 -7.7 16.35 -7.7 16.35 -7.5 Q15.8 -6.9 16.05 -5.8 12.45 -6.05 11.85 -6.7 L12.6 -7.3 M20.7 -1.9 L21.2 -1.7 21.15 -1.45 20.7 -1.9 M23.35 1.05 L23.5 1.05 25.35 3.55 25.4 4.95 25.35 5.25 21.4 13.45 21.1 13.65 Q18.9 15.2 17.85 17.4 L17.65 17.25 17.85 16.8 Q19.4 13.25 21.15 11.8 L21.1 11.0 24.0 2.1 23.35 1.05 M18.4 19.55 L20.25 17.3 18.2 22.3 17.75 21.4 17.5 21.05 17.9 20.5 18.4 19.55 M8.95 26.65 L9.05 26.85 10.3 27.45 4.5 27.35 4.9 27.2 5.7 26.5 8.95 26.65" fill="#d4a83c" fill-rule="evenodd" stroke="none"/>
    <path d="M21.8 -11.35 L21.7 -11.3 21.7 -11.35 21.8 -11.35 M2.65 27.3 Q1.85 27.35 1.5 27.0 L2.2 27.2 2.0 27.25 2.65 27.3 M-5.1 24.9 L-6.2 24.85 -6.9 24.75 -8.8 23.65 -9.45 23.15 -11.5 21.8 -5.1 24.9 M-35.45 3.35 L-35.05 2.4 -35.25 3.1 -35.45 3.35 M-27.75 -19.75 L-27.8 -19.95 Q-27.85 -20.45 -27.55 -20.8 -27.25 -21.2 -26.6 -21.25 L-24.3 -21.45 -24.7 -21.15 -25.1 -21.2 Q-27.4 -21.2 -27.6 -19.85 L-27.75 -19.75 M7.35 -24.8 L7.3 -24.6 7.0 -25.05 6.85 -25.15 7.05 -25.1 7.25 -25.0 7.35 -24.8 M-18.75 -2.15 L-12.7 1.8 Q-11.3 1.8 -9.85 -1.35 -8.5 -4.15 -8.5 -5.7 -6.7 -4.8 -4.65 -5.2 -4.55 -1.45 3.55 -1.15 L9.05 -0.8 Q11.5 -0.3 11.5 1.25 11.5 2.8 12.8 4.25 14.05 5.7 14.05 7.0 14.05 9.85 10.5 11.1 L2.65 12.65 Q-0.15 13.1 -2.1 13.8 L-3.15 13.75 -3.9 13.8 -3.45 13.8 -3.15 14.15 -5.25 15.15 -6.25 15.9 -7.4 17.2 -9.3 16.95 Q-7.9 16.2 -7.45 15.45 L-7.2 14.65 -7.55 12.8 -6.65 13.5 Q-6.0 14.05 -5.05 14.05 -4.15 14.05 -3.5 13.4 L-3.15 13.5 Q-3.0 13.4 -2.8 13.65 L-2.75 13.0 Q-2.75 12.2 -3.1 12.2 L-3.4 12.3 Q-3.85 11.6 -5.05 10.9 -7.05 9.75 -9.5 9.75 L-11.7 10.0 -11.75 11.1 Q-11.75 12.35 -12.25 13.95 L-13.2 16.15 -14.55 15.75 Q-17.5 14.85 -20.15 14.8 L-21.55 14.15 -21.55 14.0 -24.85 8.2 Q-26.55 5.4 -28.35 3.75 L-28.5 3.7 -28.65 3.25 -26.25 -3.2 -25.1 -3.2 -22.4 -2.8 -19.4 -1.0 -18.75 -2.15 M21.8 6.45 L21.8 6.25 Q21.8 5.45 20.0 2.65 21.4 3.55 23.0 3.8 L21.8 6.45 M11.6 -18.15 L8.35 -17.7 Q4.95 -17.7 1.05 -22.05 L-1.65 -25.45 -1.25 -25.45 0.8 -26.1 1.0 -26.0 0.7 -25.6 0.7 -25.55 -0.6 -24.95 0.35 -23.75 4.95 -23.55 5.15 -23.5 4.9 -23.2 4.25 -22.9 Q3.85 -22.75 3.85 -22.0 3.85 -20.75 5.15 -21.5 L6.1 -22.0 Q5.7 -21.1 5.85 -19.75 L9.6 -19.5 10.6 -19.95 Q11.45 -20.4 11.5 -20.9 L11.65 -20.9 12.45 -20.3 11.6 -18.35 11.6 -18.15 M-7.55 -22.7 L-7.55 -22.75 -5.9 -21.65 -7.55 -22.7 M7.1 -7.8 L7.8 -7.85 7.1 -7.7 7.1 -7.8 M-14.55 -6.2 Q-15.05 -6.2 -15.55 -6.95 -15.45 -7.55 -14.6 -8.0 L-14.55 -6.2" fill="#ffffe8" fill-rule="evenodd" stroke="none"/>
  </g>
</svg>
