<?xml version="1.0" encoding="UTF-8" standalone="no"?>
<svg xmlns:xlink="http://www.w3.org/1999/xlink" height="83.4px" width="82.1px" xmlns="http://www.w3.org/2000/svg">
  <g transform="matrix(1.0, 0.0, 0.0, 1.0, 39.15, 49.25)">
    <path d="M-7.9 -34.15 L-8.85 -34.45 -9.0 -34.4 Q-11.5 -33.15 -13.7 -30.35 L-14.6 -29.3 Q-14.55 -30.3 -13.15 -31.9 L-12.65 -32.5 Q-11.1 -34.2 -10.0 -34.6 L-9.5 -34.7 Q-8.45 -34.7 -7.9 -34.15 M-17.8 -25.8 Q-18.35 -25.25 -19.0 -24.75 L-16.4 -24.7 Q-14.1 -24.7 -11.7 -29.15 -9.3 -33.5 -7.45 -33.9 L-6.85 -33.55 -6.5 -33.25 -5.6 -32.2 -5.55 -32.05 Q-8.5 -31.6 -8.5 -30.5 -8.5 -29.8 -7.85 -29.2 L3.25 -30.4 Q1.75 -29.1 0.1 -29.05 L-5.1 -29.0 Q-5.45 -27.95 -6.95 -27.0 -8.85 -27.0 -8.85 -27.95 L-11.7 -25.1 Q-13.9 -23.95 -15.2 -22.0 -16.35 -20.3 -21.0 -20.25 L-21.05 -20.3 -20.6 -20.75 -20.75 -21.45 -20.9 -21.25 -22.0 -21.0 -22.45 -21.3 -21.75 -21.6 -19.15 -22.8 -18.9 -22.9 -19.0 -23.15 -19.05 -23.95 -19.15 -24.25 Q-19.25 -25.0 -18.8 -25.4 L-17.8 -25.8 M2.3 -34.5 L2.7 -32.6 1.95 -31.45 -1.75 -32.15 -2.35 -32.2 1.7 -34.2 2.3 -34.5 M10.25 -37.95 L10.6 -37.95 Q13.5 -37.8 17.05 -35.65 L19.35 -34.0 17.45 -34.4 16.4 -35.1 12.65 -37.25 Q11.25 -37.85 10.1 -37.9 L10.25 -37.95 M22.9 -25.15 L23.3 -22.25 Q23.8 -19.4 23.05 -18.0 L23.3 -17.75 23.95 -17.15 23.5 -17.45 23.3 -17.75 23.1 -17.7 23.1 -17.65 23.0 -17.7 19.6 -23.25 22.05 -24.4 22.4 -24.65 22.9 -25.15 M25.45 -14.15 L25.85 -12.15 25.9 -11.05 25.45 -14.15 M25.8 -10.6 L24.95 -9.6 21.2 -6.8 20.75 -6.5 20.75 -6.45 21.25 -6.3 22.85 -5.9 22.35 -5.95 21.4 -5.8 20.75 -5.45 19.8 -5.45 19.6 -6.75 19.8 -6.85 19.5 -8.2 23.35 -9.65 24.4 -10.3 24.6 -10.0 25.8 -10.6 M30.3 4.15 L31.0 6.1 Q31.0 6.95 27.5 9.95 L26.0 11.45 27.85 8.1 Q27.85 7.3 27.6 7.2 L26.8 7.05 Q25.55 7.75 24.05 10.05 25.05 7.25 25.3 2.9 25.45 4.7 27.6 4.8 L29.35 6.5 Q29.55 5.8 30.0 5.8 L30.05 5.65 30.3 4.15 M24.05 14.35 L23.9 16.3 23.5 15.55 23.35 15.35 23.5 15.2 24.05 14.35 M17.4 22.15 L17.25 22.25 Q16.95 24.75 13.1 25.85 L12.65 26.0 13.15 25.75 Q16.3 24.15 16.3 23.05 L16.15 22.5 15.9 22.2 16.4 21.85 17.4 22.15 M-2.25 27.85 L-2.65 27.8 -2.45 27.75 -2.0 27.7 -0.9 28.0 -2.25 27.85 M-3.1 27.7 L-3.7 27.5 -3.8 24.05 -6.4 23.4 Q-9.0 22.6 -11.35 21.25 L-13.85 19.5 Q-19.45 19.3 -24.8 16.45 L-27.5 14.8 -28.2 14.8 Q-33.35 14.8 -36.2 9.0 -37.55 6.25 -37.95 3.95 L-38.0 3.55 -37.95 3.65 Q-36.0 6.0 -34.95 8.5 L-34.05 8.5 -34.0 8.35 Q-30.6 11.55 -26.1 11.55 L-25.95 11.55 -25.4 12.05 -23.4 12.4 -21.35 13.25 -23.4 13.05 -26.0 13.3 -25.9 14.65 -25.7 15.25 Q-24.3 15.3 -21.8 16.55 L-19.65 17.45 -20.3 18.0 -17.75 18.15 -16.95 18.4 -16.65 18.45 -16.6 18.45 -15.25 18.5 -10.9 19.55 -8.55 20.4 Q-6.9 21.05 -6.9 21.55 L-7.05 22.7 -7.3 22.8 -3.15 22.8 -2.75 22.5 -2.75 22.05 -5.55 19.3 -3.8 19.5 Q-2.55 18.2 -1.3 17.5 -0.35 16.9 0.75 16.65 2.35 16.25 2.35 15.5 L0.45 13.05 Q1.05 11.55 0.75 11.05 L2.6 10.75 4.65 10.95 6.1 10.25 5.8 9.35 6.15 9.8 Q7.45 11.5 7.45 13.0 7.45 14.1 4.25 15.9 0.25 18.15 -0.9 19.5 L4.95 19.75 5.45 19.8 Q6.4 19.8 9.4 21.3 L10.3 21.25 11.15 21.0 13.1 19.85 11.85 19.55 Q13.75 17.8 14.05 17.8 L16.15 17.9 Q17.0 16.25 19.6 14.85 21.0 14.5 22.1 13.4 L19.55 17.55 17.75 19.65 17.25 19.9 17.0 19.5 16.7 19.55 Q14.4 20.35 14.05 21.55 L13.45 20.55 11.65 21.9 Q10.55 22.55 7.7 22.55 5.25 22.55 4.45 21.95 L4.1 21.55 Q3.55 20.55 2.6 20.55 1.05 21.5 -0.55 22.4 L0.1 23.7 Q0.95 24.8 1.65 24.8 2.6 24.8 4.5 23.8 L9.85 24.5 Q5.9 25.75 1.05 25.75 L-0.25 25.55 Q-2.0 26.05 -2.7 26.5 L-2.8 26.5 -2.8 26.6 -3.15 27.1 -3.15 27.2 -3.1 27.7 M-34.45 -9.35 Q-34.15 -10.0 -34.0 -10.7 L-33.4 -10.7 -31.2 -15.45 -26.9 -17.65 Q-27.85 -15.4 -29.2 -13.75 L-34.55 -7.6 Q-35.5 -7.35 -36.35 -6.45 L-34.45 -9.35 M8.95 -29.25 L8.45 -29.8 8.4 -30.0 Q8.4 -30.5 8.7 -30.95 L9.4 -31.15 10.3 -30.1 11.0 -29.45 8.95 -29.25 M4.0 -29.9 L4.5 -29.05 4.55 -28.9 5.35 -27.65 5.2 -27.1 Q5.2 -25.85 5.55 -26.0 L6.5 -25.95 7.7 -24.5 Q6.5 -24.1 6.5 -23.25 L6.8 -22.25 9.35 -22.1 8.4 -22.0 8.1 -21.1 8.25 -20.3 7.45 -21.0 3.4 -23.8 Q2.0 -24.85 2.0 -26.75 2.0 -27.55 2.45 -28.6 L3.3 -30.25 3.3 -30.4 Q3.35 -29.75 4.0 -29.9 M-34.6 -2.95 L-34.7 -2.4 -34.7 -2.3 -34.35 -0.15 -34.45 0.5 -34.95 1.65 -34.8 2.3 -35.05 3.35 -35.25 3.15 Q-36.85 1.45 -36.85 0.9 -36.85 -0.5 -35.25 -3.55 L-35.2 -3.6 -34.6 -2.95 M-12.7 16.55 L-12.4 16.55 Q-10.8 16.55 -6.9 17.55 L-5.25 17.3 -5.7 18.15 -5.6 19.25 Q-6.05 18.95 -6.6 18.6 -8.5 17.45 -12.75 17.15 L-12.7 16.65 -12.7 16.55 M18.35 -24.95 L17.55 -25.8 19.25 -28.0 18.35 -24.95 M11.7 -21.75 L13.55 -23.45 13.45 -22.75 Q13.45 -22.2 14.15 -21.25 L11.7 -21.75 M10.3 -25.75 L10.25 -25.75 10.3 -25.8 10.3 -25.75 M15.9 -8.45 L16.0 -8.25 15.4 -8.3 15.9 -8.45 M10.5 -9.35 L10.1 -9.85 10.7 -9.8 10.5 -9.35 M23.3 -0.7 Q24.4 -0.9 24.95 -1.3 L25.15 -1.05 25.55 0.25 25.3 2.2 25.3 1.75 Q25.3 -0.05 23.3 -0.7 M23.0 -3.1 Q21.7 -3.35 21.7 -3.95 L21.8 -3.95 23.0 -3.1 M4.7 26.75 L4.5 26.75 3.7 26.7 3.0 27.1 2.15 27.0 3.7 26.7 9.9 25.3 7.1 26.6 6.8 26.7 4.7 26.75" fill="#d4a83c" fill-rule="evenodd" stroke="none"/>
    <path d="M-14.6 -29.3 L-13.7 -30.35 Q-11.5 -33.15 -9.0 -34.4 L-8.85 -34.45 -7.9 -34.15 -7.3 -33.95 -7.4 -33.9 -7.45 -33.9 Q-9.3 -33.5 -11.7 -29.15 -14.1 -24.7 -16.4 -24.7 L-19.0 -24.75 Q-18.35 -25.25 -17.8 -25.8 L-17.65 -25.85 -14.6 -29.3 M3.3 -30.4 L3.3 -30.65 Q3.3 -31.05 5.55 -32.45 7.3 -33.55 8.35 -33.85 8.4 -32.6 9.35 -31.25 6.8 -31.6 4.5 -30.2 L4.0 -29.9 Q3.35 -29.75 3.3 -30.4 M-34.0 -10.7 L-34.3 -10.75 Q-35.45 -13.15 -32.5 -15.75 L-32.45 -15.8 -32.45 -15.9 -32.35 -16.1 Q-31.75 -16.85 -28.35 -19.25 L-28.05 -19.45 Q-24.5 -22.0 -24.15 -22.0 L-22.85 -21.55 -22.45 -21.3 -22.0 -21.0 -20.9 -21.25 -20.75 -21.45 -20.6 -20.75 -21.05 -20.3 -21.0 -20.25 -23.35 -19.35 -26.9 -17.65 -31.2 -15.45 -33.4 -10.7 -34.0 -10.7 M19.6 -23.25 L23.0 -17.7 22.35 -17.95 21.8 -17.7 21.8 -17.2 21.2 -16.75 18.6 -15.2 13.85 -16.5 Q15.4 -18.4 15.4 -19.0 15.4 -19.55 14.45 -20.8 L14.15 -21.25 Q13.45 -22.2 13.45 -22.75 L13.55 -23.45 11.7 -21.75 11.2 -21.0 9.65 -21.2 9.6 -22.9 Q9.6 -23.5 10.1 -23.8 L12.3 -25.25 12.2 -25.1 Q12.2 -24.25 15.35 -22.7 L15.35 -22.75 Q15.7 -23.75 17.55 -25.8 L18.35 -24.95 17.95 -23.75 Q17.95 -23.2 18.6 -22.75 L19.6 -23.25 M19.8 -10.0 Q22.05 -9.25 23.35 -11.15 L24.0 -10.95 24.4 -10.3 23.35 -9.65 19.5 -8.2 16.6 -7.2 16.0 -8.25 15.9 -8.45 16.0 -8.45 18.0 -8.25 19.8 -10.0 M10.3 -25.8 L11.4 -26.35 Q12.2 -27.0 12.8 -27.0 13.45 -26.95 13.45 -26.75 L12.35 -25.45 Q11.2 -25.5 11.2 -25.2 L10.3 -25.25 10.3 -25.75 10.3 -25.8 M23.3 -0.7 L20.55 -0.5 Q17.7 -0.5 16.95 -1.3 15.8 -2.6 13.0 -3.45 L12.8 -3.5 14.7 -5.0 Q14.7 -6.25 16.05 -6.75 L17.55 -7.0 19.6 -6.75 19.8 -5.45 20.75 -5.45 20.5 -5.2 Q20.7 -4.8 21.8 -3.95 L21.7 -3.95 Q21.7 -3.35 23.0 -3.1 L24.95 -1.3 Q24.4 -0.9 23.3 -0.7 M17.25 19.9 L17.2 19.9 Q15.4 20.6 15.4 21.4 L15.6 21.55 Q13.05 23.45 9.85 24.5 L4.5 23.8 Q2.6 24.8 1.65 24.8 0.95 24.8 0.1 23.7 L-0.55 22.4 Q1.05 21.5 2.6 20.55 3.55 20.55 4.1 21.55 L4.45 21.95 Q5.25 22.55 7.7 22.55 10.55 22.55 11.65 21.9 L13.45 20.55 14.05 21.55 Q14.4 20.35 16.7 19.55 L17.0 19.5 17.25 19.9 M-5.55 19.3 L-2.75 22.05 -2.75 22.5 -3.15 22.8 -7.3 22.8 -7.05 22.7 -6.9 21.55 Q-6.9 21.05 -8.55 20.4 L-10.9 19.55 -15.25 18.5 -17.75 18.15 -20.3 18.0 -19.65 17.45 -17.75 17.75 Q-16.5 17.75 -16.25 17.0 L-16.2 17.0 -12.75 17.15 Q-8.5 17.45 -6.6 18.6 -6.05 18.95 -5.6 19.25 L-5.55 19.3" fill="#a05410" fill-rule="evenodd" stroke="none"/>
    <path d="M-7.45 -33.9 L-7.4 -33.9 -6.85 -33.55 -7.45 -33.9 M-10.0 -34.6 Q-11.1 -34.2 -12.65 -32.5 L-13.15 -31.9 Q-12.45 -33.2 -11.1 -34.3 L-10.1 -34.6 -10.0 -34.6 M-5.45 -32.05 L-5.55 -32.05 -5.6 -32.2 -5.45 -32.05 M3.25 -30.4 L3.3 -30.4 3.3 -30.25 2.45 -28.6 Q2.0 -27.55 2.0 -26.75 2.0 -24.85 3.4 -23.8 L7.45 -21.0 8.25 -20.3 Q8.8 -19.05 10.6 -16.25 L9.35 -14.65 8.1 -12.5 7.05 -14.45 Q6.5 -13.45 4.9 -13.45 1.4 -13.45 -0.8 -12.7 -3.65 -11.65 -8.15 -8.25 -7.05 -7.2 -4.75 -7.2 -4.1 -7.2 -2.9 -8.3 L-2.5 -8.6 -2.5 -8.2 -0.2 -8.2 0.5 -8.85 Q8.95 -1.6 8.95 -0.9 L9.1 0.2 Q8.65 0.4 8.4 0.75 8.4 1.55 9.55 2.8 L9.6 3.0 Q8.8 5.75 6.8 5.75 2.7 4.15 -0.8 4.05 -2.25 4.35 -6.35 5.9 -6.35 7.15 -5.95 6.75 L-4.75 7.0 -2.7 7.1 -3.25 7.5 -3.8 7.5 Q-7.6 7.5 -7.6 10.25 -7.6 11.15 -5.3 12.5 L-5.05 13.5 -3.15 13.55 -2.5 13.05 -2.45 13.5 Q-2.45 14.05 -3.45 15.2 L-5.25 17.3 -6.9 17.55 Q-10.8 16.55 -12.4 16.55 L-12.7 16.55 Q-12.75 14.45 -14.85 13.05 L-15.25 12.8 Q-16.8 11.9 -21.15 10.55 L-25.3 9.05 -23.55 9.3 -23.2 9.0 -23.15 8.15 Q-23.15 7.6 -26.45 5.05 -29.85 2.5 -29.85 1.25 L-29.95 -0.45 -30.05 -0.55 Q-30.55 -1.3 -32.45 -2.25 L-33.9 -0.3 -34.45 0.5 -34.35 -0.15 -34.7 -2.3 -34.7 -2.4 -34.6 -2.95 -34.35 -2.7 -30.75 -7.25 -30.2 -6.45 -26.85 -6.8 Q-25.45 -7.1 -25.1 -7.5 -26.4 -8.25 -25.55 -9.2 L-24.5 -10.75 Q-24.5 -11.65 -26.1 -11.75 L-26.65 -11.45 -28.45 -10.25 -26.95 -12.25 -26.55 -12.7 Q-23.6 -15.95 -20.65 -17.2 -22.9 -15.4 -22.9 -14.15 L-22.85 -13.5 Q-22.3 -13.0 -21.0 -13.0 L-20.8 -13.0 -20.65 -12.75 -20.15 -12.75 Q-19.6 -12.3 -20.15 -10.85 -21.05 -8.55 -17.8 -8.0 -13.95 -12.3 -13.95 -13.5 -13.95 -14.85 -13.0 -15.5 L-9.75 -17.25 -15.35 -18.75 Q-9.6 -21.4 -9.15 -23.8 L-9.15 -24.2 Q-9.15 -25.7 -10.15 -25.75 L-11.7 -25.1 -8.85 -27.95 Q-8.85 -27.0 -6.95 -27.0 -5.45 -27.95 -5.1 -29.0 L0.1 -29.05 Q1.75 -29.1 3.25 -30.4 M9.2 -37.9 L8.95 -37.95 Q7.3 -37.95 5.9 -36.9 2.3 -36.55 2.3 -34.65 L2.3 -34.5 1.7 -34.2 Q1.75 -36.75 4.65 -36.9 L6.15 -37.3 8.4 -38.2 10.25 -37.95 10.1 -37.9 9.6 -37.95 9.2 -37.9 M21.2 -6.8 L21.25 -6.3 20.75 -6.45 20.75 -6.5 21.2 -6.8 M13.1 25.85 L12.8 26.1 12.2 26.2 12.45 26.05 12.65 26.0 13.1 25.85 M-0.4 28.1 L-1.1 28.1 -2.2 27.9 -2.25 27.85 -0.9 28.0 -0.4 28.1 M-37.95 3.95 L-38.05 3.55 -38.0 3.55 -37.95 3.95 M-38.5 -2.55 L-37.8 -5.4 -37.5 -5.95 -34.45 -9.35 -36.35 -6.45 Q-37.25 -5.5 -38.0 -3.8 L-38.5 -2.55 M-32.5 -15.75 L-32.45 -15.9 -32.45 -15.8 -32.5 -15.75 M-32.35 -16.1 L-31.8 -17.0 -30.8 -18.3 Q-29.95 -19.2 -29.15 -19.3 L-28.05 -19.45 -28.35 -19.25 Q-31.75 -16.85 -32.35 -16.1 M-22.85 -21.55 L-21.75 -21.6 -22.45 -21.3 -22.85 -21.55 M-19.15 -22.8 L-19.0 -23.15 -18.9 -22.9 -19.15 -22.8 M-35.05 3.35 L-34.8 2.3 -33.9 3.3 -34.7 3.3 -35.05 3.4 -35.05 3.35 M-9.15 -3.15 Q-9.25 -3.05 -9.45 -3.0 -12.05 -2.9 -12.05 -1.85 -12.05 -0.5 -10.8 0.3 L-9.7 -0.95 -8.85 -2.4 Q-8.85 -3.15 -9.15 -3.15 M-25.9 -4.55 Q-26.35 -5.3 -27.05 -5.4 L-27.3 -5.45 Q-29.25 -5.45 -29.25 -3.6 L-29.0 -1.95 Q-28.45 -0.2 -26.4 0.0 -23.55 -1.7 -23.55 -2.85 -23.55 -3.65 -23.85 -3.65 L-24.15 -3.5 Q-25.45 -3.65 -25.9 -4.55 M10.2 -8.55 L9.4 -9.95 10.1 -9.85 10.5 -9.35 10.2 -8.55 M16.5 14.75 L18.0 15.05 19.6 14.85 Q17.0 16.25 16.15 17.9 L14.05 17.8 Q13.75 17.8 11.85 19.55 L13.1 19.85 11.15 21.0 10.3 21.25 9.4 21.3 Q6.4 19.8 5.45 19.8 L4.95 19.75 -0.9 19.5 Q0.25 18.15 4.25 15.9 7.45 14.1 7.45 13.0 7.45 11.5 6.15 9.8 L5.8 9.35 5.55 8.85 12.15 10.5 Q12.35 9.85 12.85 9.35 L13.0 10.6 13.5 12.6 13.45 13.5 12.85 13.9 13.05 14.8 12.85 15.25 15.1 15.3 16.5 14.75 M-21.35 13.25 L-23.4 12.4 -23.0 12.45 Q-21.7 12.6 -20.35 13.55 L-21.35 13.25 M-14.85 8.5 L-14.95 7.75 Q-17.5 6.3 -17.75 6.3 -19.65 6.3 -19.65 7.5 -19.65 8.75 -19.4 8.75 L-16.2 9.0 Q-14.95 8.8 -14.85 8.5 M-29.65 6.55 L-31.55 4.55 -30.5 4.75 Q-30.35 5.7 -29.65 6.55 M3.0 27.1 L3.7 26.7 4.5 26.75 4.7 26.75 4.2 26.9 3.4 27.2 3.0 27.1" fill="#fcfcb8" fill-rule="evenodd" stroke="none"/>
    <path d="M-5.45 -32.05 L-5.25 -32.1 -2.35 -32.2 -1.75 -32.15 1.95 -31.45 2.7 -32.6 2.3 -34.5 2.3 -34.65 Q2.3 -36.55 5.9 -36.9 7.3 -37.95 8.95 -37.95 L9.2 -37.9 Q7.95 -37.8 5.55 -36.7 2.65 -35.4 2.65 -34.7 2.65 -33.55 3.95 -32.75 L5.9 -34.1 8.4 -34.5 8.35 -34.0 8.35 -33.85 Q7.3 -33.55 5.55 -32.45 3.3 -31.05 3.3 -30.65 L3.3 -30.4 3.25 -30.4 -7.85 -29.2 Q-8.5 -29.8 -8.5 -30.5 -8.5 -31.6 -5.55 -32.05 L-5.45 -32.05 M9.4 -31.15 L8.7 -30.95 Q8.4 -30.5 8.4 -30.0 L8.45 -29.8 8.95 -29.25 Q5.85 -28.85 5.35 -27.65 L4.55 -28.9 4.5 -29.05 4.0 -29.9 4.5 -30.2 Q6.8 -31.6 9.35 -31.25 L9.4 -31.15 M8.25 -20.3 L8.1 -21.1 8.4 -22.0 9.35 -22.1 6.8 -22.25 6.5 -23.25 Q6.5 -24.1 7.7 -24.5 L6.5 -25.95 9.75 -25.75 10.3 -25.8 10.25 -25.75 10.3 -25.75 10.3 -25.25 11.2 -25.2 Q11.2 -25.5 12.35 -25.45 L12.3 -25.25 10.1 -23.8 Q9.6 -23.5 9.6 -22.9 L9.65 -21.2 11.2 -21.0 11.7 -21.75 14.15 -21.25 14.45 -20.8 Q15.4 -19.55 15.4 -19.0 15.4 -18.4 13.85 -16.5 L11.5 -16.95 Q11.2 -16.95 10.6 -16.25 8.8 -19.05 8.25 -20.3 M-21.0 -20.25 Q-16.35 -20.3 -15.2 -22.0 -13.9 -23.95 -11.7 -25.1 L-10.15 -25.75 Q-9.15 -25.7 -9.15 -24.2 L-9.15 -23.8 Q-9.6 -21.4 -15.35 -18.75 L-17.5 -19.0 Q-18.45 -19.0 -20.55 -17.25 L-20.6 -17.25 -20.65 -17.2 Q-23.6 -15.95 -26.55 -12.7 L-26.95 -12.25 -28.45 -10.25 -28.8 -10.0 Q-30.85 -8.5 -30.85 -8.15 L-30.75 -7.25 -34.35 -2.7 -34.6 -2.95 -35.2 -3.6 -33.65 -6.75 -33.8 -7.5 -34.3 -7.7 -34.55 -7.6 -29.2 -13.75 Q-27.85 -15.4 -26.9 -17.65 L-23.35 -19.35 -21.0 -20.25 M-25.3 9.05 L-21.15 10.55 Q-16.8 11.9 -15.25 12.8 L-14.85 13.05 Q-12.75 14.45 -12.7 16.55 L-12.7 16.65 -12.75 17.15 -16.2 17.0 -16.25 17.0 -16.2 16.55 Q-18.0 14.35 -20.35 13.55 -21.7 12.6 -23.0 12.45 L-23.4 12.4 -25.4 12.05 -25.95 11.55 -26.1 11.55 Q-30.6 11.55 -34.0 8.35 L-33.65 6.15 Q-33.65 4.9 -35.05 3.4 L-34.7 3.3 -33.9 3.3 -33.65 3.55 -33.05 3.95 -31.55 4.55 -29.65 6.55 Q-28.95 7.5 -27.4 8.25 L-25.3 9.05 M-5.25 17.3 L-3.45 15.2 Q-2.45 14.05 -2.45 13.5 L-2.5 13.05 -3.15 13.55 -5.05 13.5 -5.3 12.5 -5.3 12.1 Q-5.3 10.65 -4.4 9.0 L-3.25 7.5 -2.7 7.1 0.15 7.5 5.55 8.85 5.8 9.35 6.1 10.25 4.65 10.95 2.6 10.75 0.75 11.05 Q1.05 11.55 0.45 13.05 L2.35 15.5 Q2.35 16.25 0.75 16.65 -0.35 16.9 -1.3 17.5 -2.55 18.2 -3.8 19.5 L-5.55 19.3 -5.6 19.25 -5.7 18.15 -5.25 17.3 M29.25 -23.5 L30.05 -23.6 31.45 -23.1 30.7 -22.35 Q29.55 -22.5 29.25 -22.85 L29.25 -23.5 M16.0 -8.25 L16.6 -7.2 19.5 -8.2 19.8 -6.85 19.6 -6.75 17.55 -7.0 16.05 -6.75 Q14.7 -6.25 14.7 -5.0 L12.8 -3.5 13.0 -3.45 Q15.8 -2.6 16.95 -1.3 17.7 -0.5 20.55 -0.5 L23.3 -0.7 Q25.3 -0.05 25.3 1.75 L25.3 2.2 25.2 2.5 25.3 2.9 Q25.05 7.25 24.05 10.05 L22.1 13.4 Q21.0 14.5 19.6 14.85 L18.0 15.05 16.5 14.75 Q17.65 13.95 17.65 12.65 17.65 12.05 17.0 12.0 16.35 11.95 16.35 11.3 16.35 10.7 17.65 9.45 L24.0 3.85 23.3 0.75 17.1 1.05 Q17.45 1.85 16.35 2.55 L15.15 1.3 12.8 -3.5 10.2 -8.55 10.5 -9.35 10.7 -9.8 12.3 -9.7 12.2 -9.45 Q12.2 -8.7 12.55 -8.25 L14.4 -8.2 15.3 -8.25 15.4 -8.3 16.0 -8.25 M41.35 -20.85 L42.95 -20.6 42.15 -20.0 Q41.35 -20.25 41.35 -20.85 M13.05 14.8 L12.85 13.9 13.45 13.5 13.05 14.8 M-15.25 18.5 L-16.6 18.45 -16.65 18.45 -16.95 18.4 -17.75 18.15 -15.25 18.5" fill="#e8c450" fill-rule="evenodd" stroke="none"/>
    <path d="M19.35 -34.0 Q21.0 -33.35 22.05 -31.85 L22.65 -30.5 Q23.3 -28.8 23.35 -26.4 23.35 -25.7 22.9 -25.15 L22.4 -24.65 22.05 -24.4 19.6 -23.25 18.6 -22.75 Q17.95 -23.2 17.95 -23.75 L18.35 -24.95 19.25 -28.0 19.5 -29.75 Q19.5 -30.4 17.45 -31.6 15.4 -32.8 15.4 -33.35 L15.65 -34.25 16.3 -34.35 16.6 -34.45 17.45 -34.4 19.35 -34.0 M25.2 -5.35 L26.15 -5.5 Q29.75 -5.5 30.65 0.75 L30.3 4.15 30.05 5.65 30.0 5.8 Q29.55 5.8 29.35 6.5 L27.6 4.8 Q26.35 3.3 25.8 1.15 L25.55 0.25 25.15 -1.05 23.7 -5.2 25.2 -5.35 M-38.05 3.55 Q-39.15 2.15 -39.15 0.0 L-38.5 -2.55 -38.0 -3.8 Q-37.25 -5.5 -36.35 -6.45 -35.5 -7.35 -34.55 -7.6 L-34.3 -7.7 -33.8 -7.5 -33.65 -6.75 -35.2 -3.6 -35.25 -3.55 Q-36.85 -0.5 -36.85 0.9 -36.85 1.45 -35.25 3.15 L-35.05 3.35 -35.05 3.4 Q-33.65 4.9 -33.65 6.15 L-34.0 8.35 -34.05 8.5 -34.95 8.5 Q-36.0 6.0 -37.95 3.65 L-38.0 3.55 -38.05 3.55 M37.4 -47.75 L38.15 -49.2 40.6 -49.1 40.6 -46.85 37.4 -46.85 37.4 -47.75 M21.8 -17.2 L22.65 -17.7 Q23.95 -16.2 23.95 -15.0 23.95 -14.15 19.8 -10.0 L18.0 -8.25 16.0 -8.45 15.55 -8.6 Q14.15 -9.15 14.15 -10.45 14.15 -11.05 16.5 -13.05 L21.2 -16.75 21.8 -17.2 M32.95 20.4 L32.95 22.65 29.75 22.65 29.75 20.3 32.95 20.4 M22.85 23.65 L23.7 23.7 24.45 23.9 23.7 24.55 23.05 24.2 22.85 23.65 M18.6 32.05 Q17.75 31.8 17.75 31.15 L19.35 31.4 18.6 32.05 M37.7 34.15 Q36.55 34.05 36.25 33.65 L36.25 33.05 37.05 32.9 38.45 33.4 37.7 34.15 M-19.65 17.45 L-21.8 16.55 Q-24.3 15.3 -25.7 15.25 L-25.9 14.65 -26.0 13.3 -23.4 13.05 -21.35 13.25 -20.35 13.55 Q-18.0 14.35 -16.2 16.55 L-16.25 17.0 Q-16.5 17.75 -17.75 17.75 L-19.65 17.45" fill="#672c03" fill-rule="evenodd" stroke="none"/>
    <path d="M8.35 -33.85 L8.35 -34.0 8.4 -34.5 5.9 -34.1 3.95 -32.75 Q2.65 -33.55 2.65 -34.7 2.65 -35.4 5.55 -36.7 7.95 -37.8 9.2 -37.9 L9.6 -37.95 10.1 -37.9 Q11.25 -37.85 12.65 -37.25 L16.4 -35.1 17.45 -34.4 16.6 -34.45 16.3 -34.35 15.65 -34.25 15.4 -33.35 Q15.4 -32.8 17.45 -31.6 19.5 -30.4 19.5 -29.75 L19.25 -28.0 17.55 -25.8 Q15.7 -23.75 15.35 -22.75 L15.35 -22.7 Q12.2 -24.25 12.2 -25.1 L12.3 -25.25 12.35 -25.45 13.45 -26.75 Q13.45 -26.95 12.8 -27.0 12.2 -27.0 11.4 -26.35 L10.3 -25.8 9.75 -25.75 6.5 -25.95 5.55 -26.0 Q5.2 -25.85 5.2 -27.1 L5.35 -27.65 Q5.85 -28.85 8.95 -29.25 L11.0 -29.45 10.3 -30.1 9.4 -31.15 9.35 -31.25 Q8.4 -32.6 8.35 -33.85 M22.05 -31.85 L22.4 -31.75 23.0 -31.0 22.65 -30.5 22.05 -31.85 M23.95 -17.15 Q25.15 -16.25 25.4 -14.65 L25.45 -14.2 25.45 -14.15 25.9 -11.05 25.9 -10.7 25.8 -10.6 24.6 -10.0 24.4 -10.3 24.0 -10.95 23.35 -11.15 Q22.05 -9.25 19.8 -10.0 23.95 -14.15 23.95 -15.0 23.95 -16.2 22.65 -17.7 L21.8 -17.2 21.8 -17.7 22.35 -17.95 23.0 -17.7 23.1 -17.65 23.1 -17.7 23.3 -17.75 23.5 -17.45 23.95 -17.15 M22.85 -5.9 L25.2 -5.35 23.7 -5.2 25.15 -1.05 24.95 -1.3 23.0 -3.1 21.8 -3.95 Q20.7 -4.8 20.5 -5.2 L20.75 -5.45 21.4 -5.8 22.35 -5.95 22.85 -5.9 M26.0 11.45 Q24.45 13.0 24.05 14.35 L23.5 15.2 23.35 15.35 23.5 15.55 23.9 16.3 23.95 17.0 Q23.95 21.15 17.9 22.3 L17.4 22.15 16.4 21.85 15.9 22.2 16.15 22.5 16.3 23.05 Q16.3 24.15 13.15 25.75 L12.65 26.0 12.45 26.05 12.2 26.2 Q7.65 28.25 2.35 28.25 L-0.4 28.1 -0.9 28.0 -2.0 27.7 -2.45 27.75 -2.65 27.8 -2.8 27.8 Q-3.1 28.2 -3.1 27.7 L-3.15 27.2 -3.15 27.1 -2.8 26.6 -2.8 26.5 -2.7 26.5 Q-2.0 26.05 -0.25 25.55 L1.05 25.75 Q5.9 25.75 9.85 24.5 13.05 23.45 15.6 21.55 L15.4 21.4 Q15.4 20.6 17.2 19.9 L17.25 19.9 17.75 19.65 19.55 17.55 22.1 13.4 24.05 10.05 Q25.55 7.75 26.8 7.05 L27.6 7.2 Q27.85 7.3 27.85 8.1 L26.0 11.45 M8.1 -12.5 L9.35 -14.65 10.6 -16.25 Q11.2 -16.95 11.5 -16.95 L13.85 -16.5 18.6 -15.2 21.2 -16.75 16.5 -13.05 Q14.15 -11.05 14.15 -10.45 14.15 -9.15 15.55 -8.6 L16.0 -8.45 15.9 -8.45 15.4 -8.3 15.3 -8.25 14.4 -8.2 12.55 -8.25 Q12.2 -8.7 12.2 -9.45 L12.3 -9.7 10.7 -9.8 10.1 -9.85 9.4 -9.95 8.1 -12.5 M25.3 2.9 L25.2 2.5 25.3 2.2 25.55 0.25 25.8 1.15 Q26.35 3.3 27.6 4.8 25.45 4.7 25.3 2.9 M3.0 27.1 L3.4 27.2 3.7 27.25 6.8 26.7 7.1 26.6 9.9 25.3 3.7 26.7 2.15 27.0 3.0 27.1" fill="#8c3c04" fill-rule="evenodd" stroke="none"/>
    <path d="M-15.35 -18.75 L-9.75 -17.25 -13.0 -15.5 Q-13.95 -14.85 -13.95 -13.5 -13.95 -12.3 -17.8 -8.0 -21.05 -8.55 -20.15 -10.85 -19.6 -12.3 -20.15 -12.75 -18.95 -12.9 -18.45 -13.5 -18.45 -14.3 -19.7 -15.5 -21.0 -15.4 -21.0 -13.95 L-20.8 -13.0 -21.0 -13.0 Q-22.3 -13.0 -22.85 -13.5 L-22.9 -14.15 Q-22.9 -15.4 -20.65 -17.2 L-20.6 -17.25 -20.55 -17.25 Q-18.45 -19.0 -17.5 -19.0 L-15.35 -18.75 M-34.45 0.5 L-33.9 -0.3 -32.45 -2.25 Q-30.55 -1.3 -30.05 -0.55 L-29.95 -0.45 -29.85 1.25 Q-29.85 2.5 -26.45 5.05 -23.15 7.6 -23.15 8.15 L-23.2 9.0 -23.55 9.3 -25.3 9.05 -27.4 8.25 Q-28.95 7.5 -29.65 6.55 -30.35 5.7 -30.5 4.75 L-31.55 4.55 -33.05 3.95 -33.65 3.55 -33.9 3.3 -34.8 2.3 -34.95 1.65 -34.45 0.5 M-2.7 7.1 L-4.75 7.0 -5.95 6.75 Q-6.35 7.15 -6.35 5.9 -2.25 4.35 -0.8 4.05 2.7 4.15 6.8 5.75 8.8 5.75 9.6 3.0 L9.55 2.8 10.1 3.35 Q11.85 4.95 11.85 5.5 11.85 6.15 11.05 6.2 10.3 6.3 10.3 6.9 10.3 8.15 10.95 7.75 L13.1 7.5 12.85 9.35 Q12.35 9.85 12.15 10.5 L5.55 8.85 0.15 7.5 -2.7 7.1 M9.1 0.2 L8.95 -0.9 Q8.95 -1.6 0.5 -8.85 1.3 -9.8 1.3 -10.5 0.35 -11.25 -1.55 -11.25 L-2.2 -11.2 -2.5 -10.45 -2.5 -8.6 -2.9 -8.3 Q-4.1 -7.2 -4.75 -7.2 -7.05 -7.2 -8.15 -8.25 -3.65 -11.65 -0.8 -12.7 1.4 -13.45 4.9 -13.45 6.5 -13.45 7.05 -14.45 L8.1 -12.5 9.4 -9.95 10.2 -8.55 12.8 -3.5 15.15 1.3 14.25 0.45 13.1 0.2 9.9 0.05 9.1 0.2 M6.35 -13.35 L5.85 -13.25 5.2 -13.25 4.85 -12.2 Q4.85 -10.95 5.2 -10.7 L6.1 -10.7 6.8 -12.5 Q6.8 -13.3 6.35 -13.35 M30.85 -41.1 L30.05 -40.5 Q29.25 -40.75 29.25 -41.35 L30.85 -41.1 M31.15 -47.85 L32.75 -47.6 31.95 -47.0 Q31.15 -47.25 31.15 -47.85" fill="#fce468" fill-rule="evenodd" stroke="none"/>
    <path d="M-29.7 -37.6 L-30.5 -37.0 Q-31.3 -37.25 -31.3 -37.85 L-29.7 -37.6 M-27.6 -31.6 L-27.6 -29.35 -30.8 -29.35 -30.8 -31.75 -27.6 -31.6 M-20.15 -12.75 L-20.65 -12.75 -20.8 -13.0 -21.0 -13.95 Q-21.0 -15.4 -19.7 -15.5 -18.45 -14.3 -18.45 -13.5 -18.95 -12.9 -20.15 -12.75 M-28.45 -10.25 L-26.65 -11.45 -26.1 -11.75 Q-24.5 -11.65 -24.5 -10.75 L-25.55 -9.2 Q-26.4 -8.25 -25.1 -7.5 -25.45 -7.1 -26.85 -6.8 L-30.2 -6.45 -30.75 -7.25 -30.85 -8.15 Q-30.85 -8.5 -28.8 -10.0 L-28.45 -10.25 M9.55 2.8 Q8.4 1.55 8.4 0.75 8.65 0.4 9.1 0.2 L9.9 0.05 13.1 0.2 14.25 0.45 15.15 1.3 16.35 2.55 Q17.45 1.85 17.1 1.05 L23.3 0.75 24.0 3.85 17.65 9.45 Q16.35 10.7 16.35 11.3 16.35 11.95 17.0 12.0 17.65 12.05 17.65 12.65 17.65 13.95 16.5 14.75 L15.1 15.3 12.85 15.25 13.05 14.8 13.45 13.5 13.5 12.6 13.0 10.6 12.85 9.35 13.1 7.5 10.95 7.75 Q10.3 8.15 10.3 6.9 10.3 6.3 11.05 6.2 11.85 6.15 11.85 5.5 11.85 4.95 10.1 3.35 L9.55 2.8 M0.5 -8.85 L-0.2 -8.2 -2.5 -8.2 -2.5 -8.6 -2.5 -10.45 -2.2 -11.2 -1.55 -11.25 Q0.35 -11.25 1.3 -10.5 1.3 -9.8 0.5 -8.85 M6.35 -13.35 Q6.8 -13.3 6.8 -12.5 L6.1 -10.7 5.2 -10.7 Q4.85 -10.95 4.85 -12.2 L5.2 -13.25 5.85 -13.25 6.35 -13.35" fill="#b0701c" fill-rule="evenodd" stroke="none"/>
    <path d="M-5.3 12.5 Q-7.6 11.15 -7.6 10.25 -7.6 7.5 -3.8 7.5 L-3.25 7.5 -4.4 9.0 Q-5.3 10.65 -5.3 12.1 L-5.3 12.5 M-25.9 -4.55 Q-25.45 -3.65 -24.15 -3.5 L-23.85 -3.65 Q-23.55 -3.65 -23.55 -2.85 -23.55 -1.7 -26.4 0.0 -28.45 -0.2 -29.0 -1.95 L-29.25 -3.6 Q-29.25 -5.45 -27.3 -5.45 L-27.05 -5.4 Q-26.35 -5.3 -25.9 -4.55 M-9.15 -3.15 Q-8.85 -3.15 -8.85 -2.4 L-9.7 -0.95 -10.8 0.3 Q-12.05 -0.5 -12.05 -1.85 -12.05 -2.9 -9.45 -3.0 -9.25 -3.05 -9.15 -3.15 M-14.85 8.5 Q-14.95 8.8 -16.2 9.0 L-19.4 8.75 Q-19.65 8.75 -19.65 7.5 -19.65 6.3 -17.75 6.3 -17.5 6.3 -14.95 7.75 L-14.85 8.5" fill="#fefede" fill-rule="evenodd" stroke="none"/>
    <path d="M38.15 -49.2 L37.4 -47.75 37.4 -49.25 38.15 -49.2" fill="#000000" fill-rule="evenodd" stroke="none"/>
  </g>
</svg>
