<?xml version="1.0" encoding="UTF-8" standalone="no"?>
<svg xmlns:xlink="http://www.w3.org/1999/xlink" height="77.45px" width="57.1px" xmlns="http://www.w3.org/2000/svg">
  <g transform="matrix(1.0, 0.0, 0.0, 1.0, 41.0, 60.45)">
    <path d="M-13.35 -59.5 Q-14.25 -59.75 -14.25 -60.45 L-12.65 -60.2 -13.35 -59.5 M3.55 -45.35 Q4.65 -46.2 5.45 -46.2 L5.6 -46.2 Q6.95 -46.15 8.25 -45.25 9.2 -44.8 9.85 -43.85 L10.05 -43.7 Q11.0 -43.35 11.05 -42.35 L11.85 -41.1 12.9 -39.05 12.9 -38.95 12.15 -37.95 Q11.25 -37.2 10.45 -37.2 L9.3 -37.25 Q8.95 -37.1 8.95 -37.75 8.95 -38.1 10.05 -38.35 L9.9 -38.45 9.6 -39.0 9.8 -39.25 Q10.1 -39.55 11.2 -39.7 9.3 -44.6 5.55 -44.6 L4.1 -43.6 2.7 -42.25 1.95 -42.4 1.2 -42.45 -0.25 -41.6 -0.6 -41.25 -1.25 -41.3 Q-2.45 -41.6 -3.8 -42.85 L-4.9 -43.85 -7.85 -44.7 Q-9.0 -44.7 -10.55 -43.95 L-14.55 -41.55 -15.05 -41.15 Q-19.35 -37.95 -19.35 -37.35 L-18.45 -35.5 Q-18.45 -34.05 -20.8 -33.35 -22.05 -32.95 -22.9 -32.3 -23.15 -30.9 -24.8 -28.35 L-26.55 -26.2 Q-29.1 -26.05 -29.85 -24.35 L-31.1 -24.7 Q-31.1 -22.6 -30.5 -21.85 L-29.85 -20.95 -30.15 -19.55 -29.85 -19.5 -29.5 -19.0 -29.85 -18.0 -29.5 -17.7 Q-29.5 -15.85 -31.1 -13.8 -32.75 -11.8 -32.75 -10.6 -32.75 -9.65 -31.3 -9.65 L-30.5 -10.2 Q-29.85 -10.75 -28.95 -10.75 -27.55 -10.75 -27.4 -10.3 L-27.25 -10.0 -26.85 -9.85 -22.45 -11.05 -18.6 -12.05 -17.15 -12.25 Q-14.55 -12.25 -13.1 -11.45 -11.55 -10.55 -11.55 -8.6 L-11.75 -7.85 -12.25 -7.6 -12.5 -7.6 -13.25 -7.8 Q-14.4 -8.25 -14.85 -8.85 L-15.1 -9.4 -15.1 -9.5 -15.2 -9.75 -19.05 -10.1 -21.1 -8.95 -22.25 -8.25 -23.45 -7.8 -27.35 -7.35 -27.85 -7.25 -28.05 -7.1 -28.65 -6.65 -28.7 -6.5 -29.35 -6.05 -29.6 -6.0 -31.1 -6.35 -30.35 -5.15 -30.15 -4.85 -30.15 -4.6 -30.15 -4.55 Q-30.3 -3.75 -31.1 -3.65 L-31.35 -3.65 -32.2 -3.9 -33.3 -4.8 -34.3 -6.25 -34.55 -6.65 -34.75 -7.0 -36.2 -10.15 -36.3 -10.6 -36.2 -10.7 Q-35.3 -12.2 -35.3 -13.05 -36.0 -14.05 -36.2 -14.95 L-36.3 -15.6 -35.5 -17.15 -34.3 -20.25 -34.15 -20.65 -34.15 -20.75 -33.85 -22.1 -33.85 -22.45 -33.85 -22.65 -34.1 -23.35 -34.35 -23.95 -34.6 -25.0 -34.7 -25.45 -34.7 -25.65 -34.55 -26.5 -34.05 -27.5 Q-33.35 -28.25 -31.95 -28.25 -29.8 -28.25 -29.25 -27.35 L-29.2 -27.25 -28.95 -27.25 -28.8 -27.25 -28.45 -27.4 -27.95 -27.65 -26.65 -29.3 -26.25 -30.35 -26.2 -30.45 -26.1 -30.85 -26.1 -30.95 -26.1 -31.5 Q-26.1 -32.8 -23.7 -33.8 L-23.65 -33.85 -22.5 -34.45 -22.0 -35.0 -21.7 -35.45 -21.25 -37.2 Q-21.25 -38.55 -17.65 -42.25 L-15.25 -44.6 -15.05 -44.85 -14.3 -45.5 Q-14.15 -45.55 -14.1 -45.65 L-13.95 -45.7 Q-13.25 -45.7 -13.0 -45.25 L-13.0 -45.2 -13.0 -45.1 -12.75 -45.15 -9.7 -46.2 -9.3 -46.3 -8.85 -46.5 -7.05 -46.45 Q-5.1 -46.3 -4.5 -45.8 L-4.4 -45.75 Q-3.15 -45.5 -3.0 -44.45 L-2.8 -43.9 -2.7 -43.75 Q-2.3 -43.3 -1.3 -43.15 L-0.4 -43.1 0.75 -43.3 2.7 -44.65 3.55 -45.35 M9.2 -28.3 L9.9 -28.45 Q11.7 -28.45 12.4 -27.35 L13.55 -26.3 13.8 -26.25 13.95 -26.25 Q14.65 -26.25 14.9 -25.9 L14.95 -25.8 Q15.2 -25.45 15.0 -24.7 L15.0 -24.35 Q14.7 -23.1 12.45 -20.85 L12.2 -20.55 12.05 -20.35 11.9 -20.25 10.55 -19.15 8.85 -18.2 8.4 -18.1 7.55 -18.0 7.45 -18.0 5.9 -18.45 5.15 -18.75 2.65 -17.4 1.7 -16.95 1.05 -16.65 0.7 -16.5 Q-0.45 -16.5 -2.9 -17.55 L-4.15 -18.05 -4.2 -18.1 -5.05 -18.5 -5.2 -18.6 -5.25 -18.5 -5.35 -18.25 -5.35 -18.2 -5.7 -17.45 -5.45 -16.4 Q-4.1 -14.85 -3.7 -13.9 L-2.9 -13.05 -2.8 -12.95 -2.8 -12.8 Q-2.95 -12.25 -3.9 -12.25 -5.95 -12.25 -7.3 -14.9 L-7.85 -16.2 -9.5 -16.0 Q-10.1 -16.0 -10.3 -16.55 -10.45 -17.0 -11.05 -17.1 L-11.55 -17.15 Q-12.25 -17.15 -12.55 -16.75 L-13.35 -16.4 -13.4 -16.45 -14.15 -17.25 -16.5 -19.55 -15.55 -20.85 Q-18.1 -20.05 -18.1 -21.55 -18.1 -21.9 -16.85 -22.6 -21.0 -23.05 -21.0 -24.15 -21.0 -25.0 -18.2 -25.2 L-17.55 -25.2 -16.5 -25.25 Q-15.95 -25.25 -14.75 -26.25 -13.45 -27.25 -11.25 -27.25 -9.85 -27.25 -10.1 -26.45 L-11.05 -24.45 -10.35 -23.75 Q-9.75 -23.25 -10.4 -21.9 -8.05 -21.95 -7.65 -21.2 -7.4 -20.75 -7.9 -20.25 L-6.65 -20.35 -6.4 -20.35 -5.05 -20.75 Q-4.1 -20.75 -3.15 -20.2 L-3.1 -20.2 -1.85 -19.3 Q-0.4 -17.95 0.7 -18.1 L0.5 -19.05 Q0.55 -19.75 1.65 -19.75 2.45 -19.75 3.1 -19.25 L5.45 -20.5 5.7 -20.5 Q7.55 -20.45 7.55 -19.75 9.55 -22.1 10.75 -24.25 L10.0 -24.65 8.7 -25.55 Q7.35 -26.65 7.35 -27.3 L7.5 -27.5 8.4 -28.0 9.05 -28.25 9.15 -28.3 9.2 -28.3 M2.7 -10.0 L2.8 -9.7 1.65 -8.25 -0.95 -6.4 Q-2.0 -6.2 -2.25 -5.55 L-6.25 -3.0 -8.15 -1.2 -8.35 -1.0 Q-9.05 -0.2 -10.2 0.1 L-10.55 0.15 -10.85 0.2 -11.15 0.25 -11.75 0.25 -13.4 0.1 Q-14.3 -0.15 -14.3 -0.7 -14.3 -1.35 -13.1 -1.55 L-12.9 -1.55 -12.55 -1.6 -12.4 -1.6 Q-13.0 -3.1 -13.0 -3.85 L-12.75 -5.85 -12.75 -5.95 -12.7 -6.05 -12.1 -6.9 -11.95 -7.05 -11.25 -7.25 Q-10.55 -7.25 -10.0 -6.7 L-9.65 -5.95 -9.45 -4.25 Q-7.1 -4.75 -4.35 -6.25 L-3.4 -6.85 Q-1.35 -7.65 0.25 -9.05 1.5 -10.2 2.45 -10.25 L2.6 -10.15 2.7 -10.0 M-32.75 -17.7 L-33.05 -16.9 Q-32.9 -16.95 -32.85 -17.05 L-32.65 -17.55 -32.7 -17.65 -32.75 -17.85 -32.75 -17.7" fill="#300000" fill-rule="evenodd" stroke="none"/>
    <path d="M2.6 -48.95 L1.95 -48.5 1.45 -48.7 Q1.05 -49.0 1.05 -49.45 L2.65 -49.2 2.6 -48.95 M13.75 -38.25 L14.05 -37.75 13.7 -38.2 13.75 -38.25 M9.6 -35.35 L9.55 -34.5 9.15 -33.55 9.05 -33.85 9.2 -34.5 9.6 -35.35 M8.95 -28.85 L9.2 -28.3 9.15 -28.3 8.9 -28.55 8.95 -28.85 M15.55 -25.65 L16.1 -25.45 15.85 -25.25 15.55 -25.65 M12.2 -20.55 L11.95 -19.9 11.95 -20.0 12.05 -20.35 12.2 -20.55 M-4.9 -18.35 L-5.3 -18.25 -5.1 -18.4 -4.9 -18.35 M2.9 -11.4 L3.15 -10.9 Q3.35 -10.45 3.05 -10.25 L2.7 -10.0 2.6 -10.15 2.9 -11.4 M-11.05 0.25 L-14.5 0.55 -13.8 0.2 -13.4 0.1 -11.75 0.25 -11.15 0.25 -11.05 0.25 M-13.8 -3.35 Q-14.1 -4.4 -13.15 -5.4 L-12.85 -5.75 -13.2 -4.4 Q-13.8 -3.85 -13.8 -3.35 M-12.95 -7.1 L-13.2 -6.95 -13.2 -7.45 -13.25 -7.8 -12.5 -7.6 -12.95 -7.1 M-16.5 -9.55 L-19.5 -9.3 -16.8 -9.55 -16.65 -9.6 -16.6 -9.55 -16.5 -9.55 M-23.1 -7.5 Q-24.25 -6.75 -25.95 -6.75 L-24.95 -7.15 -23.1 -7.5 M-26.65 -6.75 L-27.8 -6.95 -27.6 -7.15 -26.65 -6.75 M-30.15 -4.55 L-30.15 -4.5 Q-30.3 -3.55 -31.05 -3.45 L-31.2 -3.6 -31.1 -3.65 Q-30.3 -3.75 -30.15 -4.55 M-34.75 -23.65 Q-35.2 -25.35 -34.6 -26.4 L-34.7 -25.65 -34.7 -25.45 -34.6 -25.0 -34.75 -23.65 M-29.15 -27.35 L-28.35 -27.5 -28.45 -27.4 -28.8 -27.25 -29.15 -27.35 M-26.55 -30.2 L-26.25 -30.75 -26.1 -30.95 -26.1 -30.85 -26.2 -30.45 -26.55 -30.2 M-15.1 -45.15 L-15.2 -45.45 Q-15.45 -46.2 -14.95 -46.35 L-14.5 -46.35 -14.1 -45.65 Q-14.15 -45.55 -14.3 -45.5 L-15.1 -45.15 M-9.95 -46.15 L-9.3 -46.3 -9.7 -46.2 -9.95 -46.15 M-1.55 -33.45 L-1.55 -33.35 -5.2 -33.1 -6.6 -33.6 -6.2 -33.85 -5.35 -34.75 -6.4 -35.35 -6.65 -36.45 -6.15 -36.45 -5.6 -36.5 -5.05 -37.35 Q-4.55 -38.0 -3.9 -38.0 L-3.15 -37.95 -1.6 -37.05 -0.7 -35.2 -0.9 -34.95 Q-2.2 -34.85 -2.45 -34.1 L-1.55 -33.45 M-6.95 -37.3 L-7.55 -38.5 -6.85 -38.4 -6.95 -37.3" fill="#c48c2c" fill-rule="evenodd" stroke="none"/>
    <path d="M11.85 -41.1 L14.2 -38.45 13.75 -38.25 13.7 -38.2 13.3 -38.0 11.45 -37.0 11.35 -36.95 10.45 -36.35 10.0 -35.95 9.75 -35.75 9.5 -35.5 Q8.6 -34.45 8.65 -33.35 L8.8 -30.4 8.45 -29.0 8.9 -28.45 9.05 -28.25 8.4 -28.0 7.5 -27.5 7.35 -27.3 Q7.35 -26.65 8.7 -25.55 L10.0 -24.65 10.75 -24.25 Q9.55 -22.1 7.55 -19.75 7.55 -20.45 5.7 -20.5 L5.45 -20.5 3.1 -19.25 Q2.45 -19.75 1.65 -19.75 0.55 -19.75 0.5 -19.05 L0.7 -18.1 Q-0.4 -17.95 -1.85 -19.3 L-3.1 -20.2 -2.55 -20.15 Q-2.45 -21.45 -1.6 -22.6 L0.6 -24.65 Q3.4 -26.6 6.3 -26.95 L6.1 -28.15 5.8 -28.8 6.6 -32.0 6.75 -33.6 6.75 -35.35 6.85 -36.0 Q7.35 -37.5 9.9 -38.45 L10.05 -38.35 Q8.95 -38.1 8.95 -37.75 8.95 -37.1 9.3 -37.25 L10.45 -37.2 Q11.25 -37.2 12.15 -37.95 L12.9 -38.95 12.9 -39.05 11.85 -41.1 M3.55 -17.45 L1.5 -16.6 1.05 -16.65 1.7 -16.95 2.65 -17.4 5.15 -18.75 5.9 -18.45 3.55 -17.45 M-2.9 -13.05 L-2.0 -13.15 0.0 -13.1 Q3.35 -12.9 2.9 -11.8 L2.9 -11.4 2.6 -10.15 2.45 -10.25 Q1.5 -10.2 0.25 -9.05 -1.35 -7.65 -3.4 -6.85 L-4.35 -6.25 Q-7.1 -4.75 -9.45 -4.25 L-9.65 -5.95 -10.0 -6.7 Q-10.55 -7.25 -11.25 -7.25 L-11.95 -7.05 -11.8 -7.15 -11.95 -7.3 -12.25 -7.6 -11.75 -7.85 -11.55 -8.6 Q-11.55 -10.55 -13.1 -11.45 -14.55 -12.25 -17.15 -12.25 L-18.6 -12.05 -22.45 -11.05 -26.85 -9.85 -27.25 -10.0 -27.4 -10.3 Q-27.55 -10.75 -28.95 -10.75 -29.85 -10.75 -30.5 -10.2 L-31.3 -9.65 Q-32.75 -9.65 -32.75 -10.6 -32.75 -11.8 -31.1 -13.8 -29.5 -15.85 -29.5 -17.7 L-29.85 -18.0 -29.5 -19.0 -29.85 -19.5 -30.15 -19.55 -29.85 -20.95 -30.5 -21.85 Q-31.1 -22.6 -31.1 -24.7 L-29.85 -24.35 Q-30.2 -23.6 -30.2 -22.5 -30.2 -21.85 -29.9 -22.0 L-28.9 -22.1 -28.65 -23.5 Q-26.7 -23.5 -24.8 -25.45 L-26.1 -26.2 -26.55 -26.2 -24.8 -28.35 Q-23.15 -30.9 -22.9 -32.3 -22.05 -32.95 -20.8 -33.35 -18.45 -34.05 -18.45 -35.5 L-19.35 -37.35 Q-19.35 -37.95 -15.05 -41.15 L-14.55 -41.55 -10.55 -43.95 Q-9.0 -44.7 -7.85 -44.7 L-4.9 -43.85 -3.8 -42.85 Q-2.45 -41.6 -1.25 -41.3 -1.4 -40.5 -3.8 -40.5 L-4.75 -40.7 -4.9 -40.95 Q-5.1 -41.45 -5.7 -41.45 L-7.3 -42.7 Q-7.45 -42.6 -7.65 -42.55 L-8.55 -42.75 -10.7 -41.7 -12.7 -40.25 -12.4 -39.9 Q-12.4 -39.15 -11.15 -38.15 L-11.4 -37.85 Q-13.2 -37.8 -13.7 -37.0 L-14.6 -38.25 Q-15.35 -38.1 -15.65 -37.1 -15.75 -36.4 -16.8 -36.25 L-17.4 -36.25 -17.15 -35.1 -17.1 -34.95 Q-17.1 -34.15 -17.65 -33.85 L-19.65 -33.75 -19.7 -33.45 Q-19.7 -33.2 -18.3 -32.85 L-15.8 -32.35 Q-15.0 -32.35 -14.6 -32.95 -13.45 -32.95 -13.45 -31.2 -12.7 -31.6 -12.7 -32.75 -12.7 -33.55 -11.95 -34.0 L-11.3 -34.15 Q-9.5 -32.7 -9.5 -31.5 L-9.85 -29.6 Q-9.85 -28.9 -12.4 -27.25 -16.45 -28.7 -16.85 -30.7 L-16.95 -30.85 -18.55 -30.7 -19.9 -30.9 Q-20.85 -31.2 -21.5 -32.0 L-21.7 -32.3 -23.35 -30.0 -24.5 -28.0 -23.2 -27.85 Q-21.6 -27.5 -19.85 -26.45 L-18.55 -25.55 -18.2 -25.2 Q-21.0 -25.0 -21.0 -24.15 -21.0 -23.05 -16.85 -22.6 -18.1 -21.9 -18.1 -21.55 -18.1 -20.05 -15.55 -20.85 L-16.5 -19.55 -14.15 -17.25 -14.25 -17.25 Q-15.05 -16.4 -15.55 -16.4 L-15.65 -16.4 -17.5 -18.25 -18.0 -18.2 -18.45 -18.9 Q-19.7 -21.0 -19.7 -21.55 -19.7 -22.95 -21.3 -22.95 -22.75 -22.95 -23.65 -19.35 L-24.1 -17.4 -24.6 -15.2 -23.9 -14.7 -23.85 -14.45 -24.5 -12.5 -24.4 -12.3 -24.25 -11.75 -24.1 -11.5 -23.2 -12.0 -22.85 -12.15 Q-20.85 -13.0 -17.9 -13.0 L-13.55 -12.6 Q-12.95 -12.25 -12.1 -12.25 L-11.1 -12.5 Q-11.05 -13.35 -10.45 -14.0 -13.7 -14.3 -13.85 -15.3 L-13.4 -16.45 -13.35 -16.4 -12.55 -16.75 Q-12.25 -17.15 -11.55 -17.15 L-11.05 -17.1 Q-10.45 -17.0 -10.3 -16.55 -10.1 -16.0 -9.5 -16.0 L-7.85 -16.2 -7.3 -14.9 Q-5.95 -12.25 -3.9 -12.25 -2.95 -12.25 -2.8 -12.8 L-2.8 -12.95 -2.9 -13.05 M1.65 -8.25 Q0.3 -6.25 -1.15 -5.75 L-4.2 -4.0 -6.25 -3.0 -2.25 -5.55 Q-2.0 -6.2 -0.95 -6.4 L1.65 -8.25 M-10.85 0.2 L-10.9 0.25 -11.05 0.25 -11.15 0.25 -10.85 0.2 M-12.85 -5.75 L-12.75 -5.95 -12.75 -5.85 -13.0 -3.85 Q-13.0 -3.1 -12.4 -1.6 L-12.55 -1.6 -12.9 -1.55 -13.15 -2.0 -13.35 -3.1 -13.2 -4.4 -12.85 -5.75 M-25.95 -6.75 L-26.4 -6.65 -26.65 -6.75 -27.6 -7.15 -27.85 -7.25 -27.35 -7.35 -23.45 -7.8 -24.95 -7.15 -25.95 -6.75 M-28.0 -6.75 L-28.75 -5.95 -29.4 -5.9 -29.45 -5.9 -29.5 -5.8 -30.35 -5.15 -31.1 -6.35 -29.6 -6.0 -29.35 -6.05 -28.7 -6.5 -28.65 -6.65 -28.05 -7.1 -28.05 -7.05 -28.0 -6.85 -28.0 -6.75 M-32.2 -3.9 Q-33.3 -4.0 -33.35 -4.7 L-33.3 -4.8 -32.2 -3.9 M-34.7 -6.7 Q-35.45 -6.75 -35.65 -7.5 L-35.75 -8.05 Q-36.2 -8.8 -36.2 -9.7 L-36.6 -11.7 -36.4 -14.0 -36.2 -14.95 Q-36.0 -14.05 -35.3 -13.05 -35.3 -12.2 -36.2 -10.7 L-36.3 -10.6 -36.2 -10.15 -34.75 -7.0 -34.55 -6.65 -34.7 -6.7 M-35.6 -18.2 L-35.95 -19.35 Q-35.95 -20.55 -34.3 -20.25 L-35.5 -17.15 -35.3 -17.7 -35.45 -17.9 -35.6 -18.2 M-34.15 -20.75 L-34.15 -20.85 -34.15 -21.05 -33.85 -22.1 -34.15 -20.75 M-34.6 -26.4 Q-34.5 -27.1 -34.05 -27.5 L-34.55 -26.5 -34.7 -25.65 -34.6 -26.4 M-23.7 -33.8 Q-23.3 -34.9 -22.15 -35.15 L-21.7 -35.45 -22.0 -35.0 -22.5 -34.45 -23.65 -33.85 -23.7 -33.8 M4.3 -41.95 L4.3 -42.0 2.7 -42.25 4.1 -43.6 5.55 -44.6 Q9.3 -44.6 11.2 -39.7 10.1 -39.55 9.8 -39.25 L9.3 -41.1 Q8.7 -42.75 5.8 -43.5 L5.55 -42.95 4.3 -41.95 M-13.0 -45.2 L-12.75 -45.15 -13.0 -45.1 -13.0 -45.2 M-28.95 -27.25 L-29.2 -27.25 -29.25 -27.35 -28.95 -27.25 M-27.5 -19.0 L-28.45 -18.15 -28.45 -18.0 Q-28.1 -18.6 -27.15 -18.6 L-27.1 -18.6 -27.05 -18.85 -27.5 -19.0 M-34.1 -23.35 L-33.85 -22.65 -33.85 -22.45 -34.1 -23.35 M-32.75 -17.7 L-32.75 -17.85 -32.7 -17.65 -32.65 -17.55 -32.85 -17.05 Q-32.9 -16.95 -33.05 -16.9 L-32.75 -17.7 M-21.1 -8.95 L-19.05 -10.1 -15.2 -9.75 -15.1 -9.5 -15.1 -9.4 -16.0 -9.55 -16.6 -9.55 -16.65 -9.6 -16.8 -9.55 -19.5 -9.75 -21.1 -8.95 M-5.25 -18.5 L-5.2 -18.6 -5.05 -18.5 -5.25 -18.5 M-6.95 -12.25 L-8.0 -11.6 -9.2 -11.05 -9.2 -10.85 Q-9.0 -9.25 -9.5 -8.15 L-8.25 -8.25 Q-6.2 -8.25 -6.5 -7.2 L-6.45 -7.05 Q-4.15 -7.7 -2.05 -9.15 L0.35 -11.15 Q-1.05 -11.75 -1.85 -11.75 L-4.2 -11.25 Q-5.05 -11.25 -5.8 -12.25 L-6.95 -12.25" fill="#400000" fill-rule="evenodd" stroke="none"/>
    <path d="M14.05 -37.75 L14.25 -37.4 Q13.95 -37.0 12.1 -36.45 L10.0 -35.95 10.45 -36.35 11.35 -36.95 11.45 -37.0 12.2 -37.0 Q13.1 -37.05 13.35 -37.45 L13.45 -37.7 13.3 -38.0 13.7 -38.2 14.05 -37.75 M11.95 -19.9 L11.75 -19.55 11.9 -20.25 12.05 -20.35 11.95 -20.0 11.95 -19.9 M-13.0 -45.25 Q-11.7 -45.95 -9.95 -46.15 L-9.7 -46.2 -12.75 -45.15 -13.0 -45.2 -13.0 -45.25 M-4.75 -40.7 L-4.85 -40.2 -5.05 -40.15 Q-6.35 -39.85 -6.75 -38.75 L-6.85 -38.4 -7.55 -38.5 -6.95 -37.3 -6.95 -36.5 -6.65 -36.45 -6.4 -35.35 Q-8.35 -36.6 -8.35 -36.9 -8.35 -37.8 -9.25 -38.45 -10.15 -39.1 -10.15 -39.75 L-9.85 -40.5 Q-9.4 -41.25 -8.7 -41.25 -7.85 -41.25 -7.3 -40.75 L-6.65 -41.2 -6.65 -41.75 -7.65 -42.55 Q-7.45 -42.6 -7.3 -42.7 L-5.7 -41.45 Q-5.1 -41.45 -4.9 -40.95 L-4.75 -40.7 M-5.2 -33.1 L-3.45 -32.45 Q-2.45 -32.4 -0.7 -31.25 1.15 -31.25 2.35 -33.2 L3.85 -35.5 3.5 -36.0 4.4 -37.7 4.4 -37.8 4.5 -37.85 4.3 -38.0 3.4 -40.2 4.5 -41.5 4.45 -41.65 4.9 -41.75 6.75 -41.6 6.75 -37.95 5.8 -36.6 6.05 -36.0 6.75 -35.35 6.75 -33.6 6.4 -32.7 6.6 -32.0 5.8 -28.8 6.1 -28.15 6.3 -26.95 Q3.4 -26.6 0.6 -24.65 L-1.6 -22.6 -2.5 -22.6 -4.4 -21.85 -6.65 -21.9 -5.8 -23.95 Q-5.8 -25.0 -8.05 -26.5 L-5.7 -28.2 -5.35 -27.4 Q-5.1 -26.95 -4.2 -26.95 -2.75 -26.95 -2.75 -29.2 L-5.05 -31.2 Q-5.6 -33.35 -6.95 -33.35 -7.35 -32.75 -8.15 -32.75 -9.05 -32.75 -9.85 -34.1 L-9.7 -34.1 -9.3 -33.85 Q-8.5 -33.25 -7.6 -33.25 L-6.6 -33.6 -5.2 -33.1 M-12.4 -39.9 L-11.1 -38.6 -11.15 -38.15 Q-12.4 -39.15 -12.4 -39.9 M9.05 -28.25 L8.9 -28.45 8.9 -28.55 9.15 -28.3 9.05 -28.25 M-24.1 -17.4 L-23.65 -19.35 Q-22.75 -22.95 -21.3 -22.95 -19.7 -22.95 -19.7 -21.55 -19.7 -21.0 -18.45 -18.9 L-18.0 -18.2 Q-19.2 -18.0 -20.65 -16.85 -22.25 -15.55 -22.25 -14.95 -22.25 -14.35 -21.95 -14.6 L-21.45 -14.5 -21.25 -14.5 Q-21.45 -14.35 -21.6 -14.25 -22.75 -13.0 -24.4 -12.3 L-24.5 -12.5 -23.85 -14.45 -23.9 -14.7 -23.45 -15.65 Q-23.45 -16.7 -24.1 -17.4 M-18.2 -25.2 L-18.55 -25.55 -17.55 -25.2 -18.2 -25.2 M-20.6 -14.85 L-19.95 -15.75 -19.65 -15.3 -20.6 -14.85 M9.2 -34.5 L9.05 -33.85 8.95 -34.15 9.2 -34.5" fill="#6c2000" fill-rule="evenodd" stroke="none"/>
    <path d="M9.75 -35.75 L9.6 -35.35 9.2 -34.5 8.95 -34.15 9.05 -33.85 9.15 -33.55 9.75 -33.1 Q9.75 -31.8 8.95 -28.85 L8.9 -28.55 8.9 -28.45 8.45 -29.0 8.8 -30.4 8.65 -33.35 Q8.6 -34.45 9.5 -35.5 L9.75 -35.75 M14.9 -25.9 L15.55 -25.65 15.85 -25.25 15.0 -24.35 15.0 -24.7 Q15.2 -25.45 14.95 -25.8 L14.9 -25.9 M11.75 -19.55 L11.7 -19.2 Q11.7 -18.65 11.2 -18.25 L8.4 -18.1 8.85 -18.2 10.55 -19.15 11.9 -20.25 11.75 -19.55 M7.45 -18.0 L3.55 -17.45 5.9 -18.45 7.45 -18.0 M-4.2 -18.1 L-4.9 -18.35 -5.1 -18.4 -5.3 -18.25 -5.35 -18.2 -5.35 -18.25 -5.25 -18.5 -5.05 -18.5 -4.2 -18.1 M-4.2 -4.0 L-8.15 -1.2 -6.25 -3.0 -4.2 -4.0 M-10.2 0.1 L-10.45 0.15 -10.55 0.15 -10.2 0.1 M-13.1 -1.55 Q-13.8 -2.7 -13.8 -3.35 -13.8 -3.85 -13.2 -4.4 L-13.35 -3.1 -13.15 -2.0 -12.9 -1.55 -13.1 -1.55 M-12.7 -6.05 L-13.15 -6.7 -12.95 -7.1 -12.5 -7.6 -12.25 -7.6 -11.95 -7.3 -11.8 -7.15 -11.95 -7.05 -12.1 -6.9 -12.7 -6.05 M-14.85 -8.85 L-16.5 -9.55 -16.6 -9.55 -16.0 -9.55 -15.1 -9.4 -14.85 -8.85 M-19.5 -9.3 Q-20.75 -9.0 -21.5 -8.35 L-23.1 -7.5 -24.95 -7.15 -23.45 -7.8 -22.25 -8.25 -21.1 -8.95 -19.5 -9.75 -16.8 -9.55 -19.5 -9.3 M-27.8 -6.95 L-28.0 -6.75 -28.0 -6.85 -28.05 -7.05 -28.05 -7.1 -27.85 -7.25 -27.6 -7.15 -27.8 -6.95 M-28.75 -5.95 L-30.15 -4.6 -30.15 -4.85 -30.35 -5.15 -29.5 -5.8 -29.45 -5.9 -29.4 -5.9 -28.75 -5.95 M-31.2 -3.6 L-31.35 -3.65 -31.1 -3.65 -31.2 -3.6 M-34.3 -6.25 L-34.7 -6.7 -34.55 -6.65 -34.3 -6.25 M-36.4 -14.0 L-36.4 -14.95 Q-36.45 -15.95 -36.15 -16.75 L-35.6 -18.2 -35.45 -17.9 -35.3 -17.7 -35.5 -17.15 -36.3 -15.6 -36.2 -14.95 -36.4 -14.0 M-34.15 -20.85 Q-34.7 -21.65 -34.7 -22.3 L-34.75 -23.65 -34.6 -25.0 -34.35 -23.95 -34.1 -23.35 -33.85 -22.45 -33.85 -22.1 -34.15 -21.05 -34.15 -20.85 M-29.25 -27.35 L-29.15 -27.35 -28.8 -27.25 -28.95 -27.25 -29.25 -27.35 M-28.35 -27.5 L-28.0 -28.15 Q-28.0 -28.95 -26.55 -30.2 L-26.2 -30.45 -26.25 -30.35 -26.65 -29.3 -27.95 -27.65 -28.45 -27.4 -28.35 -27.5 M-15.25 -44.6 L-15.1 -45.15 -14.3 -45.5 -15.05 -44.85 -15.25 -44.6 M1.15 -43.8 L1.85 -44.5 Q2.6 -45.1 3.55 -45.35 L2.7 -44.65 0.75 -43.3 1.15 -43.8 M4.45 -41.65 L4.3 -41.95 5.55 -42.95 5.8 -43.5 Q8.7 -42.75 9.3 -41.1 L9.8 -39.25 9.6 -39.0 9.9 -38.45 Q7.35 -37.5 6.85 -36.0 L6.75 -35.35 6.05 -36.0 5.8 -36.6 6.75 -37.95 6.75 -41.6 4.9 -41.75 4.45 -41.65 M-13.7 -37.0 L-13.9 -36.5 -13.65 -34.25 -12.5 -33.95 -11.95 -34.0 Q-12.7 -33.55 -12.7 -32.75 -12.7 -31.6 -13.45 -31.2 -13.45 -32.95 -14.6 -32.95 -15.0 -32.35 -15.8 -32.35 L-18.3 -32.85 Q-19.7 -33.2 -19.7 -33.45 L-19.65 -33.75 -17.65 -33.85 Q-17.1 -34.15 -17.1 -34.95 L-17.15 -35.1 -17.4 -36.25 -16.8 -36.25 Q-15.75 -36.4 -15.65 -37.1 -15.35 -38.1 -14.6 -38.25 L-13.7 -37.0 M-11.3 -34.15 L-10.45 -34.5 -9.7 -34.1 -9.85 -34.1 Q-9.05 -32.75 -8.15 -32.75 -7.35 -32.75 -6.95 -33.35 -5.6 -33.35 -5.05 -31.2 L-2.75 -29.2 Q-2.75 -26.95 -4.2 -26.95 -5.1 -26.95 -5.35 -27.4 L-5.7 -28.2 -8.05 -26.5 Q-5.8 -25.0 -5.8 -23.95 L-6.65 -21.9 -4.4 -21.85 -2.5 -22.6 -1.6 -22.6 Q-2.45 -21.45 -2.55 -20.15 L-3.1 -20.2 -3.15 -20.2 Q-4.1 -20.75 -5.05 -20.75 L-6.4 -20.35 -6.65 -20.35 -7.9 -20.25 Q-7.4 -20.75 -7.65 -21.2 -8.05 -21.95 -10.4 -21.9 -9.75 -23.25 -10.35 -23.75 L-11.05 -24.45 -10.1 -26.45 Q-9.85 -27.25 -11.25 -27.25 -13.45 -27.25 -14.75 -26.25 -15.95 -25.25 -16.5 -25.25 L-17.55 -25.2 -18.55 -25.55 -19.85 -26.45 Q-21.6 -27.5 -23.2 -27.85 L-24.5 -28.0 -23.35 -30.0 -21.7 -32.3 -21.5 -32.0 Q-20.85 -31.2 -19.9 -30.9 L-18.55 -30.7 -16.95 -30.85 -16.85 -30.7 Q-16.45 -28.7 -12.4 -27.25 -9.85 -28.9 -9.85 -29.6 L-9.5 -31.5 Q-9.5 -32.7 -11.3 -34.15 M6.6 -32.0 L6.4 -32.7 6.75 -33.6 6.6 -32.0 M-24.1 -17.4 Q-23.45 -16.7 -23.45 -15.65 L-23.9 -14.7 -24.6 -15.2 -24.1 -17.4 M-24.4 -12.3 Q-22.75 -13.0 -21.6 -14.25 -21.45 -14.35 -21.25 -14.5 L-20.6 -14.85 -19.65 -15.3 -19.4 -15.25 -15.7 -15.0 Q-14.95 -15.0 -14.95 -15.5 L-15.65 -16.4 -15.55 -16.4 Q-15.05 -16.4 -14.25 -17.25 L-14.15 -17.25 -13.4 -16.45 -13.85 -15.3 Q-13.7 -14.3 -10.45 -14.0 -11.05 -13.35 -11.1 -12.5 L-12.1 -12.25 Q-12.95 -12.25 -13.55 -12.6 L-17.9 -13.0 Q-20.85 -13.0 -22.85 -12.15 L-23.2 -12.0 -24.1 -11.5 -24.25 -11.75 -24.4 -12.3 M-27.5 -19.0 L-27.05 -18.85 -27.1 -18.6 -27.15 -18.6 Q-28.1 -18.6 -28.45 -18.0 L-28.45 -18.15 -27.5 -19.0 M-6.95 -12.25 L-5.8 -12.25 Q-5.05 -11.25 -4.2 -11.25 L-1.85 -11.75 Q-1.05 -11.75 0.35 -11.15 L-2.05 -9.15 Q-4.15 -7.7 -6.45 -7.05 L-6.5 -7.2 Q-6.2 -8.25 -8.25 -8.25 L-9.5 -8.15 Q-9.0 -9.25 -9.2 -10.85 L-9.2 -11.05 -8.0 -11.6 -6.95 -12.25 M13.3 -38.0 L13.45 -37.7 13.35 -37.45 Q13.1 -37.05 12.2 -37.0 L11.45 -37.0 13.3 -38.0 M-22.25 3.5 Q-23.15 3.25 -23.15 2.55 L-21.55 2.8 -22.25 3.5 M-25.45 4.75 Q-24.55 4.75 -23.85 5.75 -23.85 6.55 -25.45 7.25 -26.4 7.0 -26.95 6.55 L-27.05 5.05 -25.45 4.75" fill="#501000" fill-rule="evenodd" stroke="none"/>
    <path d="M-1.3 -43.15 L0.45 -44.0 1.15 -43.8 0.75 -43.3 -0.4 -43.1 -1.3 -43.15 M-1.25 -41.3 L-0.6 -41.25 -0.25 -41.6 1.2 -42.45 1.95 -42.4 2.7 -42.25 4.3 -42.0 4.3 -41.95 4.45 -41.65 4.5 -41.5 3.4 -40.2 4.3 -38.0 4.5 -37.85 4.4 -37.8 4.4 -37.7 3.5 -36.0 3.85 -35.5 2.35 -33.2 Q1.15 -31.25 -0.7 -31.25 -2.45 -32.4 -3.45 -32.45 L-5.2 -33.1 -1.55 -33.35 -1.55 -33.45 -0.9 -33.2 Q0.3 -33.2 1.65 -34.85 1.0 -35.05 1.0 -35.6 L1.75 -38.0 Q1.75 -38.4 1.0 -38.5 L1.85 -39.5 1.65 -40.0 0.9 -40.1 -0.15 -39.8 -1.25 -39.75 -4.1 -40.25 -4.85 -40.2 -4.75 -40.7 -3.8 -40.5 Q-1.4 -40.5 -1.25 -41.3 M-26.55 -26.2 L-26.1 -26.2 -24.8 -25.45 Q-26.7 -23.5 -28.65 -23.5 L-28.9 -22.1 -29.9 -22.0 Q-30.2 -21.85 -30.2 -22.5 -30.2 -23.6 -29.85 -24.35 -29.1 -26.05 -26.55 -26.2 M-12.4 -39.9 L-12.7 -40.25 -10.7 -41.7 -8.55 -42.75 -7.65 -42.55 -6.65 -41.75 -6.65 -41.2 -7.3 -40.75 Q-7.85 -41.25 -8.7 -41.25 -9.4 -41.25 -9.85 -40.5 L-10.15 -39.75 Q-10.15 -39.1 -9.25 -38.45 -8.35 -37.8 -8.35 -36.9 -8.35 -36.6 -6.4 -35.35 L-5.35 -34.75 -6.2 -33.85 -6.6 -33.6 -7.6 -33.25 Q-8.5 -33.25 -9.3 -33.85 L-9.7 -34.1 -10.45 -34.5 -11.3 -34.15 -11.95 -34.0 -12.5 -33.95 -13.65 -34.25 -13.9 -36.5 -13.7 -37.0 Q-13.2 -37.8 -11.4 -37.85 L-11.15 -38.15 -11.1 -38.6 -12.4 -39.9 M-0.9 -34.95 L-0.7 -35.2 -0.6 -35.0 -0.9 -34.95 M-21.25 -14.5 L-21.45 -14.5 -21.95 -14.6 Q-22.25 -14.35 -22.25 -14.95 -22.25 -15.55 -20.65 -16.85 -19.2 -18.0 -18.0 -18.2 L-17.5 -18.25 -15.65 -16.4 -14.95 -15.5 Q-14.95 -15.0 -15.7 -15.0 L-19.4 -15.25 -19.65 -15.3 -19.95 -15.75 -20.6 -14.85 -21.25 -14.5" fill="#8c3c04" fill-rule="evenodd" stroke="none"/>
    <path d="M-4.85 -40.2 L-4.1 -40.25 -1.25 -39.75 -0.15 -39.8 0.9 -40.1 1.65 -40.0 1.85 -39.5 1.0 -38.5 Q1.75 -38.4 1.75 -38.0 L1.0 -35.6 Q1.0 -35.05 1.65 -34.85 0.3 -33.2 -0.9 -33.2 L-1.55 -33.45 -2.45 -34.1 Q-2.2 -34.85 -0.9 -34.95 L-0.6 -35.0 -0.7 -35.2 -1.6 -37.05 -3.15 -37.95 -3.9 -38.0 Q-4.55 -38.0 -5.05 -37.35 L-5.6 -36.5 -6.15 -36.45 -6.65 -36.45 -6.95 -36.5 -6.95 -37.3 -6.85 -38.4 -6.75 -38.75 Q-6.35 -39.85 -5.05 -40.15 L-4.85 -40.2 M-38.75 -29.7 Q-38.85 -29.25 -39.45 -29.0 -40.35 -29.25 -40.35 -29.95 L-38.75 -29.7" fill="#b0701c" fill-rule="evenodd" stroke="none"/>
    <path d="M5.8 -7.0 L5.1 -7.4 4.9 -7.95 5.4 -7.9 6.5 -7.7 5.8 -7.0 M-3.4 3.05 L-1.8 3.3 Q-1.85 3.75 -2.5 4.0 -3.4 3.75 -3.4 3.05 M-40.1 17.0 Q-41.0 16.75 -41.0 16.05 L-39.4 16.3 -40.1 17.0" fill="#000000" fill-rule="evenodd" stroke="none"/>
  </g>
</svg>
