<?xml version="1.0" encoding="UTF-8" standalone="no"?>
<svg xmlns:xlink="http://www.w3.org/1999/xlink" height="75.05px" width="91.6px" xmlns="http://www.w3.org/2000/svg">
  <g transform="matrix(1.0, 0.0, 0.0, 1.0, 43.4, 38.75)">
    <path d="M-4.6 -32.95 L-4.5 -33.5 Q-3.9 -34.9 -2.65 -35.35 -2.35 -35.45 -2.35 -35.95 -1.8 -34.25 -1.05 -32.95 L-0.8 -31.95 -1.1 -30.95 Q-1.95 -29.85 -3.35 -29.1 -3.65 -28.95 -3.5 -28.45 -3.25 -26.95 -4.3 -25.95 -5.8 -26.45 -5.6 -27.85 L-4.9 -27.95 -4.6 -32.95 M6.65 -28.85 L6.15 -29.35 Q8.15 -31.35 9.85 -33.9 L10.45 -33.85 Q10.6 -31.85 9.6 -30.25 9.4 -29.95 9.6 -29.4 10.2 -27.85 9.15 -27.4 L8.45 -26.95 Q7.25 -27.5 6.65 -28.85" fill="#32240c" fill-rule="evenodd" stroke="none"/>
    <path d="M-7.65 -24.2 L-6.85 -24.25 -4.4 -24.35 -2.25 -24.45 -1.8 -24.5 5.9 -24.45 7.9 -24.45 9.15 -24.45 9.35 -24.45 8.95 -24.7 8.9 -25.0 8.85 -25.2 9.05 -25.4 9.65 -25.5 Q10.55 -25.5 11.75 -24.45 L12.15 -24.45 11.95 -24.25 13.1 -23.0 14.75 -20.55 Q12.35 -22.95 9.65 -24.0 L8.95 -23.2 9.65 -22.95 9.1 -22.65 6.35 -21.85 Q2.55 -21.0 3.3 -23.45 L-4.6 -22.55 -5.7 -22.5 -5.75 -22.5 -9.15 -22.85 -9.65 -23.0 -11.0 -23.85 Q-11.5 -25.35 -12.3 -25.75 -17.8 -22.35 -18.7 -21.25 L-17.5 -21.0 -17.15 -20.0 Q-17.15 -18.75 -19.65 -17.55 L-22.9 -16.0 -23.55 -16.2 -20.8 -18.2 -20.05 -18.7 -19.7 -18.95 -21.6 -19.2 Q-22.2 -19.0 -22.25 -19.85 L-22.25 -20.2 Q-22.25 -21.25 -20.35 -21.25 L-23.2 -21.6 -24.15 -21.7 Q-23.7 -22.1 -22.15 -22.35 L-18.1 -22.75 -17.8 -23.45 Q-18.25 -24.8 -16.95 -25.8 L-15.95 -26.5 -13.35 -27.7 -12.95 -27.85 -12.65 -28.0 -12.4 -28.0 -10.7 -27.95 Q-9.7 -25.35 -9.9 -24.25 L-7.65 -24.2 M20.9 -12.1 L21.8 -11.45 21.5 -10.7 21.25 -9.85 21.2 -9.1 21.2 -8.95 21.15 -8.4 21.15 -8.2 21.35 -6.25 21.45 -5.8 21.35 -6.1 21.0 -7.2 20.45 -9.2 Q21.1 -10.1 21.15 -11.1 L21.15 -11.35 20.65 -12.35 20.9 -12.1 M22.6 -2.1 L21.9 -4.45 Q22.65 -2.5 24.35 -1.1 L24.75 -0.7 Q27.5 2.0 27.5 8.5 L27.3 13.8 Q26.75 16.15 24.7 18.0 L23.7 18.8 22.65 18.8 21.95 18.8 21.1 18.8 24.45 15.95 25.55 14.8 26.15 13.75 Q26.15 8.65 25.4 5.45 L23.75 1.05 22.8 -1.5 22.6 -2.1 M-19.5 22.15 L-21.1 21.9 -24.05 21.0 Q-21.55 21.1 -20.35 21.75 L-19.5 22.15 M-30.75 18.3 L-31.8 18.3 -32.95 16.0 Q-36.0 13.65 -35.7 12.1 L-36.8 10.85 -36.9 10.8 -37.0 10.55 -37.7 9.1 Q-38.2 7.8 -38.2 6.25 L-38.05 6.15 -38.2 5.55 -38.2 5.25 -37.5 3.5 -36.65 3.55 -36.1 3.55 -35.0 1.9 -36.9 -0.9 Q-36.9 -1.45 -34.55 -3.65 -32.15 -5.9 -30.3 -6.15 L-29.9 -6.2 -30.05 -6.7 -30.15 -7.3 -30.55 -9.9 -30.3 -10.55 -28.8 -12.65 -28.2 -14.0 -28.0 -15.25 Q-28.9 -16.75 -26.0 -19.0 -24.75 -18.6 -24.75 -15.95 L-24.75 -15.8 Q-24.75 -13.65 -25.0 -13.25 L-25.45 -12.65 Q-26.45 -11.85 -28.9 -11.0 L-29.2 -10.7 -26.0 -10.95 -26.0 -10.9 -29.35 -5.85 -31.05 -3.35 -33.65 0.3 -35.15 3.55 -32.75 3.55 -32.4 4.5 Q-32.4 5.75 -33.65 8.8 L-32.35 10.25 -19.05 19.1 -16.95 20.45 -25.25 19.85 -25.5 19.85 -27.25 19.6 -29.8 18.15 -29.85 17.75 Q-29.85 17.15 -29.2 17.15 -28.65 17.2 -28.65 16.55 -28.65 15.95 -30.3 14.45 L-33.05 11.5 -33.75 13.25 -31.2 17.2 -30.15 18.3 -30.75 18.3 M-15.2 20.95 L-13.25 21.4 -15.2 21.3 -15.2 20.95 M-8.8 22.3 L-4.6 21.7 0.3 20.75 0.75 20.5 2.55 20.6 3.75 20.85 4.3 21.55 4.9 21.75 14.9 22.2 17.3 22.15 18.85 22.1 20.5 22.05 20.05 23.15 19.15 23.05 Q16.0 23.05 16.0 23.5 L14.4 23.6 16.0 23.05 10.3 23.0 Q8.45 23.0 6.4 22.25 L4.3 21.75 0.1 21.5 -4.1 21.7 Q-5.3 21.85 -5.3 22.15 -5.35 22.8 -8.15 22.8 -9.2 22.8 -9.05 22.55 L-8.8 22.3 M19.1 -11.55 L19.8 -11.45 19.8 -11.25 19.85 -10.65 19.1 -11.55 M-10.65 23.5 L-9.5 23.55 -6.25 23.95 -8.85 24.0 -10.65 23.5 M-17.15 22.25 L-17.3 22.05 Q-17.55 21.55 -16.8 21.55 -15.95 21.55 -15.9 21.95 L-15.8 22.1 -17.15 22.25 M-35.6 5.0 L-34.05 4.75 -35.45 4.65 -35.6 5.0 M-35.95 10.95 L-35.45 11.6 -35.0 11.05 -35.95 10.95 M1.65 23.55 L3.85 23.05 Q4.4 23.05 4.95 24.0 L3.85 24.0 1.65 23.55" fill="#c48c2c" fill-rule="evenodd" stroke="none"/>
    <path d="M-12.4 -28.0 L-12.2 -28.95 Q-9.4 -28.8 -9.4 -26.45 L-9.2 -25.5 Q-8.75 -24.7 -7.85 -24.3 L-7.65 -24.2 -9.9 -24.25 Q-9.7 -25.35 -10.7 -27.95 L-12.4 -28.0 M-4.4 -24.55 L-4.05 -24.6 -3.95 -24.6 -2.25 -24.45 -4.4 -24.35 -4.4 -24.55 M5.9 -24.45 L8.45 -25.0 8.9 -25.0 8.95 -24.7 9.35 -24.45 9.15 -24.45 8.4 -24.5 7.9 -24.45 5.9 -24.45 M21.5 -10.7 L22.3 -9.4 22.2 -8.55 Q21.6 -7.45 21.35 -6.25 L21.15 -8.2 21.2 -8.95 21.2 -9.1 21.25 -9.85 21.5 -10.7 M21.35 -6.1 L21.2 -5.45 21.4 -3.7 Q20.75 -5.3 21.0 -7.2 L21.35 -6.1 M21.5 -3.4 L22.6 -2.1 22.8 -1.5 21.5 -3.4 M24.75 -0.7 L25.65 0.05 26.95 1.55 Q27.95 2.85 27.85 4.55 27.6 9.05 27.85 13.55 28.0 16.9 24.7 18.0 26.75 16.15 27.3 13.8 L27.5 8.5 Q27.5 2.0 24.75 -0.7 M22.65 18.8 Q20.45 20.15 21.0 22.65 21.35 24.2 18.65 23.7 16.1 23.25 14.25 24.15 L13.55 24.35 10.5 24.5 10.25 24.25 14.4 23.6 16.0 23.5 Q16.0 23.05 19.15 23.05 L20.05 23.15 20.5 22.05 18.85 22.1 21.1 20.55 20.0 20.4 21.95 18.8 22.65 18.8 M6.1 24.6 L4.65 24.6 3.5 24.4 0.75 23.7 1.65 23.55 3.85 24.0 4.95 24.0 4.95 24.05 6.1 24.6 M-5.0 24.0 Q-7.2 25.1 -10.65 24.65 L-11.85 24.45 -16.35 23.4 -16.95 23.05 -17.6 22.5 -17.15 22.25 -15.8 22.1 -15.25 22.55 -15.9 23.3 -10.65 23.5 -8.85 24.0 -6.25 23.95 -5.0 24.0 M-21.1 21.9 L-21.5 21.9 Q-23.1 21.95 -24.1 21.0 L-24.05 21.0 -21.1 21.9 M-27.85 20.1 Q-28.95 19.8 -29.85 19.15 L-30.75 18.3 -30.15 18.3 -27.85 20.1 M-37.7 9.1 L-38.05 8.55 -38.45 7.55 Q-38.5 6.45 -38.2 5.55 L-38.05 6.15 -38.2 6.25 Q-38.2 7.8 -37.7 9.1 M-36.65 3.55 L-35.75 2.45 Q-35.5 2.05 -35.85 1.8 -37.05 0.9 -37.3 0.05 -37.4 -0.45 -37.15 -0.85 -36.0 -2.85 -34.1 -4.35 L-32.45 -5.55 -31.5 -6.2 -30.15 -7.3 -30.05 -6.7 -30.3 -6.15 Q-32.15 -5.9 -34.55 -3.65 -36.9 -1.45 -36.9 -0.9 L-35.0 1.9 -36.1 3.55 -36.65 3.55 M-30.3 -10.55 L-30.15 -11.95 Q-30.1 -12.45 -29.65 -12.5 L-28.8 -12.65 -30.3 -10.55 M-28.2 -14.0 L-28.55 -14.4 -28.8 -14.95 Q-28.75 -17.95 -26.95 -19.8 -26.6 -20.2 -26.1 -20.05 L-25.25 -19.9 Q-24.0 -19.75 -24.05 -18.95 -24.15 -17.85 -22.85 -18.1 L-21.5 -18.2 -20.8 -18.2 -23.55 -16.2 -22.9 -16.0 -19.65 -17.55 Q-17.15 -18.75 -17.15 -20.0 L-17.5 -21.0 -18.7 -21.25 Q-17.8 -22.35 -12.3 -25.75 -11.5 -25.35 -11.0 -23.85 L-9.65 -23.0 -9.15 -22.85 -5.75 -22.5 -5.7 -21.6 Q-5.7 -20.35 -6.95 -18.2 L-1.65 -15.45 Q3.7 -13.0 7.05 -13.0 9.65 -13.0 9.65 -15.4 L9.6 -16.2 9.05 -16.25 11.6 -16.45 13.5 -16.25 Q14.05 -14.3 15.65 -13.1 L18.1 -11.85 19.8 -8.0 Q21.5 -1.35 23.75 1.05 L25.4 5.45 25.55 14.8 24.45 15.95 21.0 18.1 Q19.5 19.1 18.9 20.0 L18.4 19.45 18.35 19.35 Q18.15 18.7 15.7 18.8 L9.65 18.5 Q8.85 18.5 8.45 19.0 8.2 19.4 7.75 19.3 L3.55 18.25 Q5.4 17.8 5.7 17.15 L6.4 16.0 Q5.9 15.3 3.3 15.1 L4.0 14.6 4.55 13.65 Q4.55 12.55 3.95 12.5 3.25 13.05 3.25 14.25 2.7 13.05 1.15 13.05 L-0.6 13.5 -0.6 15.55 -2.5 17.3 Q-1.4 17.8 -1.55 18.5 -3.25 19.45 -3.85 20.2 L-4.35 21.05 -11.4 21.3 Q-12.55 21.3 -18.35 17.6 -24.1 13.9 -24.1 13.25 -24.1 12.25 -27.3 7.9 L-30.15 3.55 -30.5 2.8 Q-29.2 -2.7 -29.2 -3.95 L-29.35 -5.85 -26.0 -10.9 -26.0 -10.95 -29.2 -10.7 -28.9 -11.0 Q-26.45 -11.85 -25.45 -12.65 L-25.0 -13.25 Q-24.75 -13.65 -24.75 -15.8 L-24.75 -15.95 Q-24.75 -18.6 -26.0 -19.0 -28.9 -16.75 -28.0 -15.25 L-28.2 -14.0 M-22.25 -19.85 Q-23.15 -20.4 -23.4 -21.45 L-23.2 -21.6 -20.35 -21.25 Q-22.25 -21.25 -22.25 -20.2 L-22.25 -19.85 M-22.15 -22.35 Q-20.8 -23.1 -18.95 -22.95 L-19.45 -24.0 Q-19.6 -24.45 -19.25 -24.7 L-17.75 -25.55 -16.95 -25.8 Q-18.25 -24.8 -17.8 -23.45 L-18.1 -22.75 -22.15 -22.35 M-4.6 -22.55 L3.3 -23.45 Q2.55 -21.0 6.35 -21.85 L9.1 -22.65 12.6 -19.45 10.3 -19.5 9.4 -19.3 9.6 -18.5 10.35 -18.5 Q10.9 -18.5 10.9 -17.75 9.55 -18.5 8.6 -18.6 6.6 -18.75 8.35 -14.75 L7.05 -14.25 Q4.1 -15.7 -2.05 -17.6 -5.0 -18.5 -5.0 -20.5 L-4.6 -22.55 M-18.8 -6.05 L-18.9 -5.75 -21.25 -6.25 -21.3 -6.45 -18.8 -6.05 M-24.0 -7.4 L-24.15 -6.2 -24.15 -3.2 -22.9 -3.0 Q-22.9 -3.45 -22.2 -3.45 -22.3 -2.7 -21.6 -2.5 -20.85 -3.45 -19.65 -3.95 L-20.05 -2.9 Q-20.05 -2.35 -18.7 -2.1 L-18.45 0.3 Q-16.7 5.5 -11.4 5.5 -9.45 2.85 -9.45 2.0 L-9.5 1.05 -14.35 0.8 -14.15 0.4 Q-12.65 -1.35 -12.65 -2.2 -12.65 -2.8 -13.25 -3.05 -13.95 -3.25 -13.95 -3.9 -13.95 -4.9 -11.35 -7.0 -8.8 -9.1 -8.8 -9.6 -9.45 -10.1 -9.45 -12.0 L-13.9 -12.0 -16.35 -10.8 Q-18.45 -9.7 -18.45 -9.2 L-18.55 -7.5 -22.85 -8.0 Q-23.8 -8.0 -24.0 -7.4 M-31.05 -3.35 L-31.8 3.6 -29.0 7.5 Q-26.1 11.3 -25.45 13.55 -25.05 15.0 -23.35 16.2 L-20.3 18.05 -19.05 19.1 -32.35 10.25 -33.65 8.8 Q-32.4 5.75 -32.4 4.5 L-32.75 3.55 -35.15 3.55 -33.65 0.3 -31.05 -3.35 M0.3 20.75 L-1.85 20.8 -1.8 20.55 3.25 20.05 3.25 20.3 2.55 20.6 0.75 20.5 0.3 20.75 M14.9 22.2 L17.25 21.75 17.3 22.15 14.9 22.2 M9.6 20.0 Q9.6 19.55 10.9 19.55 10.0 20.25 8.65 20.25 L9.6 20.0 M-12.7 10.5 L-12.7 12.55 -8.25 13.0 Q-7.2 13.0 -3.15 11.05 -8.35 9.0 -9.45 9.0 -10.45 9.0 -12.7 10.5 M-12.65 3.25 Q-12.0 2.65 -12.3 2.25 -11.5 1.95 -10.8 2.8 -11.05 3.25 -12.7 3.3 L-12.65 3.25 M-17.1 -1.4 L-16.95 -0.75 -17.1 -0.75 -17.1 -1.4 M-35.6 5.0 L-35.45 4.65 -34.05 4.75 -35.6 5.0 M-35.95 10.95 L-35.0 11.05 -35.45 11.6 -35.95 10.95 M-27.25 19.6 Q-29.4 19.1 -29.8 18.15 L-27.25 19.6" fill="#ffffe1" fill-rule="evenodd" stroke="none"/>
    <path d="M-6.85 -24.25 L-6.25 -25.0 -4.4 -24.95 -4.4 -24.55 -4.4 -24.35 -6.85 -24.25 M13.1 -23.0 Q15.35 -21.5 17.5 -18.5 18.6 -18.0 18.6 -17.1 L18.6 -16.9 Q20.25 -14.3 20.9 -12.1 L20.65 -12.35 18.25 -16.3 Q16.6 -18.8 14.75 -20.55 L13.1 -23.0 M21.4 -3.7 L21.5 -3.4 22.8 -1.5 23.75 1.05 Q21.5 -1.35 19.8 -8.0 L18.1 -11.85 19.1 -11.55 19.85 -10.65 Q19.95 -9.4 20.45 -9.0 L20.45 -9.2 21.0 -7.2 Q20.75 -5.3 21.4 -3.7 M5.85 -37.0 Q5.0 -37.25 5.0 -37.85 L6.6 -37.6 6.55 -37.45 5.85 -37.0 M-29.35 -5.85 L-29.2 -3.95 Q-29.2 -2.7 -30.5 2.8 L-30.15 3.55 -27.3 7.9 Q-24.1 12.25 -24.1 13.25 -24.1 13.9 -18.35 17.6 -12.55 21.3 -11.4 21.3 L-4.35 21.05 -3.85 20.2 Q-3.25 19.45 -1.55 18.5 -1.4 17.8 -2.5 17.3 L-0.6 15.55 -0.6 13.5 1.15 13.05 Q2.7 13.05 3.25 14.25 3.25 13.05 3.95 12.5 4.55 12.55 4.55 13.65 L4.0 14.6 3.3 15.1 Q5.9 15.3 6.4 16.0 L5.7 17.15 Q5.4 17.8 3.55 18.25 L7.75 19.3 Q8.2 19.4 8.45 19.0 8.85 18.5 9.65 18.5 L15.7 18.8 Q18.15 18.7 18.35 19.35 L18.4 19.45 18.9 20.0 Q19.5 19.1 21.0 18.1 L24.45 15.95 21.1 18.8 21.95 18.8 20.0 20.4 21.1 20.55 18.85 22.1 17.3 22.15 17.25 21.75 14.9 22.2 4.9 21.75 4.3 21.55 3.75 20.85 2.55 20.6 3.25 20.3 3.25 20.05 -1.8 20.55 -1.85 20.8 0.3 20.75 -4.6 21.7 -8.8 22.3 Q-8.8 21.65 -13.25 21.4 L-15.2 20.95 -15.2 20.55 -16.95 20.45 -19.05 19.1 -20.3 18.05 -23.35 16.2 Q-25.05 15.0 -25.45 13.55 -26.1 11.3 -29.0 7.5 L-31.8 3.6 -31.05 -3.35 -29.35 -5.85 M25.55 14.8 L25.4 5.45 Q26.15 8.65 26.15 13.75 L25.55 14.8 M13.5 -16.25 L11.6 -16.45 9.05 -16.25 9.6 -16.2 9.65 -15.4 Q9.65 -13.0 7.05 -13.0 3.7 -13.0 -1.65 -15.45 L-6.95 -18.2 Q-5.7 -20.35 -5.7 -21.6 L-5.75 -22.5 -5.7 -22.5 -4.6 -22.55 -5.0 -20.5 Q-5.0 -18.5 -2.05 -17.6 4.1 -15.7 7.05 -14.25 L8.35 -14.75 Q6.6 -18.75 8.6 -18.6 9.55 -18.5 10.9 -17.75 10.9 -18.5 10.35 -18.5 L9.6 -18.5 9.4 -19.3 10.3 -19.5 12.6 -19.45 9.1 -22.65 9.65 -22.95 Q11.5 -22.15 12.35 -20.6 L13.25 -17.1 13.5 -16.25 M-30.05 -6.7 L-29.9 -6.2 -30.3 -6.15 -30.05 -6.7 M-24.0 -7.4 Q-23.8 -8.0 -22.85 -8.0 L-18.55 -7.5 -18.45 -9.2 Q-18.45 -9.7 -16.35 -10.8 L-13.9 -12.0 -9.45 -12.0 Q-9.45 -10.1 -8.8 -9.6 -8.8 -9.1 -11.35 -7.0 -13.95 -4.9 -13.95 -3.9 -13.95 -3.25 -13.25 -3.05 -12.65 -2.8 -12.65 -2.2 -12.65 -1.35 -14.15 0.4 L-14.35 0.8 -9.5 1.05 -9.45 2.0 Q-9.45 2.85 -11.4 5.5 -16.7 5.5 -18.45 0.3 L-18.7 -2.1 Q-20.05 -2.35 -20.05 -2.9 L-19.65 -3.95 Q-20.85 -3.45 -21.6 -2.5 -22.3 -2.7 -22.2 -3.45 -22.9 -3.45 -22.9 -3.0 L-24.15 -3.2 -24.15 -6.2 -24.0 -7.4 M-18.8 -6.05 L-21.3 -6.45 -21.25 -6.25 -18.9 -5.75 -18.8 -6.05 M7.9 -24.45 L8.4 -24.5 9.15 -24.45 7.9 -24.45 M20.8 -37.65 Q20.8 -38.35 22.4 -38.75 23.35 -38.45 24.0 -37.75 24.0 -36.75 22.4 -36.25 L20.95 -36.85 Q20.8 -36.4 20.8 -37.65 M17.1 -27.35 L18.35 -27.25 18.7 -27.1 18.0 -26.5 17.95 -26.5 17.4 -26.8 17.1 -27.35 M21.2 -8.95 L21.15 -8.2 21.15 -8.4 21.2 -8.95 M46.0 10.05 L48.1 8.6 48.2 8.75 Q48.2 9.75 46.65 10.25 L46.0 10.05 M9.6 20.0 L8.65 20.25 Q10.0 20.25 10.9 19.55 9.6 19.55 9.6 20.0 M20.5 33.8 Q21.6 34.15 22.1 34.8 22.1 35.7 20.5 36.3 19.55 36.05 19.05 35.65 18.9 36.15 18.9 34.9 18.9 34.05 20.5 33.8 M-12.65 3.25 L-12.7 3.3 Q-11.05 3.25 -10.8 2.8 -11.5 1.95 -12.3 2.25 -12.0 2.65 -12.65 3.25 M-12.7 10.5 Q-10.45 9.0 -9.45 9.0 -8.35 9.0 -3.15 11.05 -7.2 13.0 -8.25 13.0 L-12.7 12.55 -12.7 10.5 M-17.1 -1.4 L-17.1 -0.75 -16.95 -0.75 -17.1 -1.4 M-42.6 3.5 L-42.95 3.35 -43.4 2.8 -43.4 2.65 -41.8 2.9 -42.6 3.5" fill="#ffff99" fill-rule="evenodd" stroke="none"/>
    <path d="M10.5 24.5 Q10.95 25.0 9.6 25.0 L6.1 24.6 4.95 24.05 4.95 24.0 Q4.4 23.05 3.85 23.05 L1.65 23.55 0.75 23.7 -1.85 24.0 -5.0 24.0 -6.25 23.95 -9.5 23.55 -10.65 23.5 -15.9 23.3 -15.25 22.55 -15.8 22.1 -15.9 21.95 Q-15.95 21.55 -16.8 21.55 -17.55 21.55 -17.3 22.05 L-17.15 22.25 -17.6 22.5 -17.8 22.5 -19.5 22.15 -20.35 21.75 Q-21.55 21.1 -24.05 21.0 L-24.1 21.0 -24.8 21.0 Q-26.35 21.0 -27.85 20.1 L-30.15 18.3 -31.2 17.2 -33.75 13.25 -33.05 11.5 -30.3 14.45 Q-28.65 15.95 -28.65 16.55 -28.65 17.2 -29.2 17.15 -29.85 17.15 -29.85 17.75 L-29.8 18.15 Q-29.4 19.1 -27.25 19.6 L-25.5 19.85 -25.25 19.85 -16.95 20.45 -15.2 20.55 -15.2 20.95 -15.2 21.3 -13.25 21.4 Q-8.8 21.65 -8.8 22.3 L-9.05 22.55 Q-9.2 22.8 -8.15 22.8 -5.35 22.8 -5.3 22.15 -5.3 21.85 -4.1 21.7 L0.1 21.5 4.3 21.75 6.4 22.25 Q8.45 23.0 10.3 23.0 L16.0 23.05 14.4 23.6 10.25 24.25 10.5 24.5 M18.1 -11.85 L15.65 -13.1 Q14.05 -14.3 13.5 -16.25 L13.25 -17.1 12.35 -20.6 Q11.5 -22.15 9.65 -22.95 L8.95 -23.2 9.65 -24.0 Q12.35 -22.95 14.75 -20.55 16.6 -18.8 18.25 -16.3 L20.65 -12.35 21.15 -11.35 21.15 -11.1 Q21.1 -10.1 20.45 -9.2 L20.45 -9.0 Q19.95 -9.4 19.85 -10.65 L19.8 -11.25 19.8 -11.45 19.1 -11.55 18.1 -11.85" fill="#976b22" fill-rule="evenodd" stroke="none"/>
    <path d="M-17.9 -37.35 L-16.35 -37.1 -17.1 -36.5 Q-17.9 -36.75 -17.9 -37.35" fill="#cc6600" fill-rule="evenodd" stroke="none"/>
    <path d="M31.15 -31.85 L32.75 -31.6 31.95 -31.0 Q31.15 -31.25 31.15 -31.85 M32.3 -24.75 Q32.3 -23.75 30.7 -23.25 L29.25 -23.85 Q29.1 -23.4 29.1 -24.65 29.1 -25.35 30.7 -25.75 L32.3 -24.75 M48.1 8.6 L46.0 10.05 45.15 9.65 Q45.05 10.1 45.05 8.85 45.05 8.15 46.65 7.75 L48.1 8.6" fill="#ffffcc" fill-rule="evenodd" stroke="none"/>
  </g>
</svg>
