<?xml version="1.0" encoding="UTF-8" standalone="no"?>
<svg xmlns:xlink="http://www.w3.org/1999/xlink" height="76.9px" width="67.0px" xmlns="http://www.w3.org/2000/svg">
  <g transform="matrix(1.0, 0.0, 0.0, 1.0, 36.15, 41.85)">
    <path d="M-8.5 -35.65 Q-8.5 -36.35 -6.9 -36.75 -5.95 -36.45 -5.3 -35.75 -5.3 -34.75 -6.9 -34.25 L-8.35 -34.85 Q-8.5 -34.4 -8.5 -35.65 M-13.9 -34.5 Q-14.75 -34.75 -14.75 -35.35 L-13.15 -35.1 -13.9 -34.5 M-9.65 -29.85 L-8.05 -29.6 -8.8 -29.0 Q-9.65 -29.25 -9.65 -29.85 M1.4 -29.75 L3.0 -28.75 Q3.0 -28.2 2.45 -27.75 L1.4 -27.25 0.6 -27.5 -0.1 -27.85 -0.2 -28.65 Q-0.2 -29.35 1.4 -29.75 M-28.05 -7.5 L-28.05 -7.55 -27.95 -7.55 -28.05 -7.5 M-29.4 8.45 L-29.35 8.5 -29.45 8.45 -29.4 8.45 M-28.55 9.3 Q-27.5 10.5 -27.15 11.45 L-27.05 13.4 -28.8 10.5 -28.55 9.5 -28.55 9.3 M-5.25 18.05 L-9.9 15.2 -11.35 14.05 Q-19.6 12.75 -20.35 11.25 L-20.45 10.7 -19.65 10.5 Q-16.25 10.5 -10.6 12.0 -6.65 13.05 -6.95 12.3 L-3.7 11.55 -5.95 14.55 Q-5.35 14.95 -4.8 15.3 L-2.1 16.7 Q-1.4 15.5 2.0 15.5 L10.95 15.8 13.25 16.1 13.6 16.4 8.1 19.8 8.1 19.75 -0.85 19.1 Q-1.35 19.2 -1.65 19.4 L-1.75 18.9 Q-1.8 18.4 -2.5 18.4 L-2.8 18.5 -5.25 18.05 M12.35 -1.2 Q10.25 -3.15 10.25 -3.5 10.25 -4.1 10.9 -4.5 11.5 -4.85 11.5 -5.5 11.5 -6.25 10.9 -6.6 L10.25 -7.0 Q10.3 -7.5 10.95 -8.0 11.6 -7.95 12.55 -7.15 L11.95 -6.9 Q11.5 -6.6 11.5 -4.4 11.5 -2.9 12.55 -1.45 L12.75 -1.1 12.35 -1.2 M13.15 -7.4 L13.7 -8.25 14.6 -8.35 14.4 -7.85 13.15 -7.4 M-31.2 6.3 L-30.75 5.1 -31.0 6.25 -30.9 6.65 -31.2 6.3 M-19.9 -8.25 L-19.85 -8.35 Q-17.2 -10.7 -15.9 -10.95 L-16.2 -10.5 -16.4 -10.5 Q-18.1 -9.35 -19.9 -8.25 M-14.75 -10.2 L-13.9 -10.5 -13.35 -9.7 -13.95 -9.25 -12.65 -10.0 -12.0 -9.95 -12.7 -8.75 -11.35 -8.05 -11.3 -8.05 Q-10.7 -7.75 -10.7 -7.1 L-11.05 -5.95 Q-11.4 -5.95 -11.4 -5.5 -12.7 -5.7 -12.7 -6.45 -14.1 -5.65 -14.55 -4.7 L-15.25 -4.0 -18.7 -3.75 Q-20.9 -3.65 -20.9 -4.45 -20.9 -5.05 -21.55 -5.05 -22.25 -5.05 -22.25 -5.7 L-22.05 -6.05 Q-21.75 -5.75 -20.65 -5.75 L-14.3 -9.5 -14.75 -10.2 M-15.2 -26.25 L-13.65 -25.35 -13.6 -25.25 Q-13.6 -24.25 -15.2 -23.75 L-15.25 -23.75 -16.65 -24.35 Q-16.8 -23.9 -16.8 -25.15 -16.8 -25.85 -15.2 -26.25 M11.05 -41.6 L10.3 -41.0 Q9.5 -41.25 9.5 -41.85 L11.05 -41.6 M18.25 -31.25 Q18.25 -30.25 16.7 -29.75 15.7 -30.0 15.2 -30.35 15.1 -29.9 15.1 -31.15 15.1 -31.85 16.7 -32.25 L18.25 -31.25 M28.6 -28.35 L30.2 -28.1 29.4 -27.5 Q28.6 -27.75 28.6 -28.35 M-3.7 19.3 L-3.9 19.45 -3.95 19.45 -3.7 19.3 M29.25 14.65 L30.85 14.9 30.05 15.5 Q29.25 15.25 29.25 14.65 M28.8 32.05 Q27.95 31.8 27.95 31.15 L29.55 31.4 28.8 32.05 M11.7 30.0 Q11.35 30.3 10.95 30.55 10.1 30.3 10.1 29.65 L10.9 29.7 11.7 29.9 11.7 30.0 M-30.65 31.15 L-29.1 31.4 -29.85 32.05 Q-30.65 31.8 -30.65 31.15 M-16.45 35.05 Q-17.3 34.8 -17.3 34.15 L-15.7 34.4 -16.45 35.05 M-5.2 26.65 L-3.6 26.9 Q-3.7 27.3 -4.35 27.55 -5.2 27.3 -5.2 26.65" fill="#ffffa4" fill-rule="evenodd" stroke="none"/>
    <path d="M-18.05 -16.25 Q-17.4 -16.75 -17.5 -17.25 -16.7 -18.1 -15.1 -18.05 L-15.05 -18.05 -14.55 -18.1 -13.55 -18.7 -13.15 -19.55 Q-12.05 -21.5 -8.35 -23.75 L-7.1 -24.45 -6.65 -24.75 -6.5 -24.55 -6.5 -24.45 -6.2 -23.55 -6.15 -22.95 -6.15 -22.9 -6.15 -22.2 -6.15 -22.05 -6.85 -22.25 -8.0 -21.9 -8.1 -22.0 -9.25 -20.95 -9.9 -20.35 -10.15 -20.5 -11.6 -19.2 -12.2 -19.15 -12.05 -18.6 -13.6 -17.4 -14.75 -17.25 Q-15.8 -17.15 -16.45 -16.65 -17.2 -16.05 -16.85 -15.25 L-16.95 -15.25 -17.65 -15.35 Q-19.7 -15.5 -19.7 -14.3 L-19.45 -14.1 -19.5 -13.9 Q-19.65 -12.75 -20.3 -12.15 L-21.0 -11.75 -20.65 -11.4 -20.2 -10.95 Q-20.2 -10.05 -24.85 -8.65 L-30.4 -6.95 -30.55 -7.25 -33.9 -4.2 -34.05 -4.75 -33.55 -6.5 -33.55 -6.75 -33.45 -6.75 Q-33.2 -7.45 -31.7 -7.85 L-31.3 -7.8 -31.0 -7.9 -29.65 -8.5 -28.65 -9.0 Q-27.55 -9.1 -26.7 -9.55 L-26.25 -9.95 Q-25.55 -10.65 -23.55 -10.35 L-23.1 -10.5 -24.0 -11.45 Q-24.0 -12.0 -22.45 -12.5 -21.0 -13.0 -21.0 -14.2 -21.0 -14.75 -19.4 -15.5 L-19.15 -15.65 -19.0 -15.7 -18.7 -15.85 -18.05 -16.25 M-6.5 -20.95 L-6.2 -21.0 -3.7 -20.4 0.55 -21.4 3.7 -22.1 5.15 -22.4 Q8.4 -22.4 13.55 -17.6 17.0 -17.6 15.65 -13.45 15.65 -12.6 17.55 -8.95 L16.0 -6.15 17.55 -6.25 17.9 -4.1 17.9 -4.05 17.65 -3.5 17.7 -3.5 17.95 -3.45 Q18.55 -3.4 18.55 -2.95 L17.1 -1.65 Q20.05 -0.55 20.3 5.55 17.55 -1.35 15.15 -1.35 14.7 -1.35 13.8 -0.7 L13.75 -1.05 14.85 -3.15 15.45 -4.0 Q14.7 -4.2 14.7 -4.8 L15.65 -7.0 16.0 -7.3 Q17.1 -8.2 17.1 -8.75 14.7 -13.75 14.7 -14.15 L14.7 -14.55 14.7 -14.85 14.65 -15.05 14.5 -15.0 Q13.85 -16.3 11.45 -18.0 L9.75 -19.05 9.2 -20.0 9.15 -20.1 9.15 -20.05 8.7 -19.75 8.2 -20.1 Q8.2 -21.0 5.9 -21.0 5.0 -21.0 4.85 -20.4 L5.1 -20.3 3.5 -19.85 2.3 -19.65 1.95 -20.05 1.45 -20.15 -3.9 -19.3 Q-6.5 -19.5 -6.5 -19.85 -6.5 -20.3 -7.1 -20.5 L-6.5 -20.95 M20.3 6.7 L19.8 12.45 18.95 13.9 17.65 15.15 17.4 15.35 17.1 16.75 15.85 17.7 14.9 19.2 13.1 20.85 12.6 21.3 12.15 21.6 11.5 20.85 10.55 20.65 Q10.25 20.65 9.55 21.0 L8.5 21.45 Q7.05 22.2 5.65 22.15 L1.3 22.15 0.35 22.15 0.35 22.45 Q0.15 23.0 -0.45 23.0 L-0.85 23.0 -1.15 22.95 Q-2.65 22.6 -2.65 20.75 -3.65 21.85 -4.3 21.6 L-5.05 21.1 -7.6 21.55 -7.85 21.65 -10.45 22.0 -16.2 21.9 Q-24.5 21.5 -27.25 19.95 L-27.85 20.0 -32.6 12.9 -31.7 11.5 -32.25 8.1 Q-35.45 7.5 -35.5 6.7 L-35.0 5.25 Q-36.15 3.9 -36.15 3.25 L-35.85 0.55 -33.4 -3.5 -32.45 -4.1 -32.45 -3.75 Q-33.05 -2.65 -32.15 -2.4 L-32.7 -1.45 Q-33.65 0.25 -34.15 0.4 L-33.6 1.45 -34.55 3.3 Q-34.55 3.95 -33.15 4.6 L-31.8 5.7 Q-31.8 6.65 -32.65 6.8 L-33.75 6.75 -32.05 7.3 -31.75 7.4 -31.2 7.65 -31.05 7.7 -30.4 7.95 -29.45 8.45 -29.35 8.5 -28.55 9.3 -28.55 9.5 -28.8 10.5 -29.7 12.1 -29.6 13.3 -29.7 13.35 -29.8 13.6 Q-29.8 14.35 -28.75 16.5 -27.4 19.25 -26.1 19.25 L-25.45 18.8 -24.5 19.15 -22.6 20.25 -21.5 19.95 -13.6 20.45 -12.45 20.5 -10.45 20.65 -5.25 20.2 -3.9 19.45 -3.7 19.3 -3.0 18.5 -2.8 18.5 -2.5 18.4 Q-1.8 18.4 -1.75 18.9 L-1.65 19.4 -1.65 20.1 Q-1.35 21.75 2.9 21.75 6.05 21.75 8.15 20.8 L10.25 19.85 Q11.4 19.85 11.85 20.5 L14.2 18.0 13.85 17.85 15.45 15.8 15.65 15.85 17.65 13.0 18.0 12.4 18.9 10.3 20.3 6.7 M14.65 -12.1 Q15.45 -10.85 15.45 -10.0 L15.45 -9.7 15.0 -10.8 14.65 -12.1" fill="#300000" fill-rule="evenodd" stroke="none"/>
    <path d="M-15.05 -18.05 L-13.15 -19.55 -13.55 -18.7 -14.55 -18.1 -15.05 -18.05 M-8.35 -23.75 L-7.55 -24.5 -7.1 -24.45 -8.35 -23.75 M17.9 -4.05 L17.95 -3.6 17.95 -3.45 17.7 -3.5 17.65 -3.5 17.9 -4.05 M-31.0 -7.9 L-31.2 -8.0 -30.2 -8.35 -29.65 -8.5 -31.0 -7.9 M-19.4 -15.5 L-18.05 -16.25 -18.7 -15.85 -19.05 -15.7 -19.0 -15.7 -19.15 -15.65 -19.4 -15.5 M-19.45 -14.1 L-18.0 -13.25 Q-16.6 -13.25 -13.0 -16.3 L-11.25 -17.95 -10.45 -17.15 -10.9 -16.35 Q-11.05 -16.05 -10.6 -15.9 -13.15 -14.15 -17.3 -12.95 L-18.45 -11.4 Q-20.05 -9.2 -21.35 -8.25 L-21.55 -8.1 Q-22.6 -7.5 -23.55 -7.5 L-27.95 -7.55 -28.05 -7.55 -28.05 -7.5 -29.85 -4.15 Q-29.95 -4.95 -30.5 -5.0 L-30.85 -4.7 -31.3 -4.85 Q-31.05 -5.2 -29.7 -5.85 L-30.5 -6.6 -30.4 -6.95 -24.85 -8.65 Q-20.2 -10.05 -20.2 -10.95 L-20.65 -11.4 -20.35 -11.7 -20.3 -12.15 Q-19.65 -12.75 -19.5 -13.9 L-19.45 -14.1 M-7.4 -16.8 L-6.9 -16.95 Q-4.35 -17.55 -2.8 -18.75 L-3.15 -19.25 -3.9 -19.3 1.45 -20.15 1.95 -20.05 Q0.8 -19.7 -1.4 -18.35 L-4.4 -16.5 -7.4 -16.8 M-27.05 13.4 Q-25.75 14.9 -23.3 16.05 L-13.6 20.45 -21.5 19.95 -21.15 19.4 Q-24.0 16.9 -26.1 16.9 L-26.55 15.6 Q-27.3 13.25 -29.15 13.25 L-29.6 13.3 -29.7 12.1 -28.8 10.5 -27.05 13.4 M-12.45 20.5 L-12.05 19.8 Q-12.05 19.05 -11.15 19.05 L-7.2 18.75 -7.1 18.35 Q-7.15 18.0 -6.25 18.0 L-5.25 18.05 -2.8 18.5 -3.0 18.5 -3.7 19.3 -3.95 19.45 -5.25 20.2 -10.45 20.65 -12.45 20.5 M16.4 11.55 L16.6 10.0 Q15.35 6.5 15.35 4.55 L15.2 3.4 15.2 3.3 13.85 0.0 Q15.7 0.7 17.25 2.4 19.05 4.35 19.05 6.0 19.05 8.3 18.15 11.25 L17.25 13.5 16.55 14.4 16.4 14.65 16.3 14.8 15.85 15.3 15.65 15.05 16.0 14.65 Q17.7 12.65 17.7 11.9 L16.95 11.35 16.4 11.55 M12.55 -7.15 L13.15 -7.4 14.4 -7.85 14.6 -8.35 15.3 -8.75 15.1 -7.95 15.0 -8.0 Q14.2 -7.6 13.55 -6.15 L13.1 -4.7 Q13.1 -4.3 14.05 -3.75 L13.45 -2.75 Q13.45 -2.15 13.55 -2.4 L14.05 -2.4 14.85 -3.15 13.75 -1.05 13.8 -0.7 13.5 -0.5 12.75 -1.1 12.55 -1.45 Q11.5 -2.9 11.5 -4.4 11.5 -6.6 11.95 -6.9 L12.55 -7.15 M-31.45 6.8 L-31.2 6.3 -30.9 6.65 Q-30.85 7.5 -30.4 7.95 L-31.05 7.7 -31.45 6.8 M14.7 -14.55 L14.5 -15.0 14.65 -15.05 14.7 -14.85 14.7 -14.55 M9.75 -19.05 L8.7 -19.75 9.15 -20.05 9.2 -20.0 9.75 -19.05 M-6.5 -24.45 L-5.6 -24.45 -5.8 -23.85 -6.2 -23.55 -6.5 -24.45 M-6.05 -23.0 L-6.15 -22.9 -6.15 -22.95 Q-6.05 -22.95 -6.05 -23.0 M17.65 13.0 L18.9 10.3 18.0 12.4 17.65 13.0" fill="#d4a83c" fill-rule="evenodd" stroke="none"/>
    <path d="M-6.5 -24.55 L-4.9 -24.95 Q-4.55 -23.6 -6.15 -22.2 L-6.15 -22.9 -6.05 -23.0 -5.0 -24.45 -5.8 -23.85 -5.6 -24.45 -6.5 -24.45 -6.5 -24.55 M0.55 -21.4 L1.45 -21.95 3.7 -22.1 0.55 -21.4 M18.95 13.9 L18.35 14.8 17.65 15.15 18.95 13.9 M14.9 19.2 L14.5 20.0 Q14.15 20.8 13.1 20.85 L14.9 19.2 M11.5 20.85 L9.55 21.0 Q10.25 20.65 10.55 20.65 L11.5 20.85 M1.3 22.15 L0.35 22.45 0.35 22.15 1.3 22.15 M-0.85 23.0 L-1.1 23.1 -1.15 22.95 -0.85 23.0 M-7.85 21.65 L-7.9 21.7 Q-9.0 22.8 -10.65 22.65 L-13.9 22.75 -15.0 22.5 -16.2 21.9 -10.45 22.0 -7.85 21.65 M-30.2 -8.35 L-30.2 -8.4 Q-29.4 -10.0 -26.7 -9.55 -27.55 -9.1 -28.65 -9.0 L-29.65 -8.5 -30.2 -8.35 M-10.6 -15.9 L-9.7 -15.75 Q-9.2 -16.3 -7.4 -16.8 L-4.4 -16.5 -1.4 -18.35 Q0.8 -19.7 1.95 -20.05 L2.3 -19.65 3.5 -19.85 4.85 -19.0 3.55 -19.25 Q1.95 -19.25 1.95 -18.3 1.95 -18.0 2.9 -17.4 4.05 -17.3 5.8 -15.75 7.5 -14.25 7.55 -13.25 L8.95 -13.1 Q10.0 -13.1 10.8 -12.2 11.65 -11.35 12.15 -11.35 L13.0 -11.85 13.45 -11.5 13.55 -10.85 12.65 -8.95 Q12.65 -8.4 13.45 -8.25 L13.7 -8.25 13.15 -7.4 12.55 -7.15 Q11.6 -7.95 10.95 -8.0 10.3 -7.5 10.25 -7.0 L10.9 -6.6 Q11.5 -6.25 11.5 -5.5 11.5 -4.85 10.9 -4.5 10.25 -4.1 10.25 -3.5 10.25 -3.15 12.35 -1.2 L12.15 -1.25 Q11.5 -1.25 9.9 -0.05 8.35 1.1 8.35 1.6 8.35 1.85 9.3 2.5 L11.65 1.75 Q11.15 2.55 12.15 3.45 L14.05 5.15 Q15.2 5.0 15.2 3.4 L15.35 4.55 Q15.35 6.5 16.6 10.0 L16.4 11.55 Q14.25 12.45 12.05 15.25 L13.25 16.1 10.95 15.8 2.0 15.5 Q-1.4 15.5 -2.1 16.7 L-4.8 15.3 Q-5.35 14.95 -5.95 14.55 L-3.7 11.55 -6.95 12.3 Q-6.65 13.05 -10.6 12.0 -16.25 10.5 -19.65 10.5 L-20.45 10.7 -20.35 11.25 Q-19.6 12.75 -11.35 14.05 L-9.9 15.2 -5.25 18.05 -6.25 18.0 Q-7.15 18.0 -7.1 18.35 L-7.2 18.75 -11.15 19.05 Q-12.05 19.05 -12.05 19.8 L-12.45 20.5 -13.6 20.45 -23.3 16.05 Q-25.75 14.9 -27.05 13.4 L-27.15 11.45 Q-27.5 10.5 -28.55 9.3 L-29.35 8.5 -29.4 8.45 -28.8 8.5 Q-27.35 8.5 -27.35 5.8 L-27.05 2.15 -28.0 0.65 Q-28.0 -0.6 -27.55 -0.6 L-26.8 -2.25 -26.25 -4.35 Q-25.9 -5.4 -27.25 -5.4 L-30.3 1.1 -29.85 -3.85 -29.85 -4.15 -28.05 -7.5 -27.95 -7.55 -23.55 -7.5 Q-22.6 -7.5 -21.55 -8.1 L-21.35 -8.25 Q-20.05 -9.2 -18.45 -11.4 L-17.3 -12.95 Q-13.15 -14.15 -10.6 -15.9 M-31.5 6.95 L-31.45 6.8 -31.05 7.7 -31.2 7.65 -31.5 6.95 M-30.5 3.25 L-30.5 3.1 -30.4 3.0 -30.5 3.25 M-20.3 -12.15 L-20.35 -11.7 -20.65 -11.4 -21.0 -11.75 -20.3 -12.15 M-16.2 -10.5 L-15.9 -10.95 Q-17.2 -10.7 -19.85 -8.35 L-19.9 -8.25 -22.25 -6.75 -22.25 -6.25 -22.05 -6.05 -22.25 -5.7 Q-22.25 -5.05 -21.55 -5.05 -20.9 -5.05 -20.9 -4.45 -20.9 -3.65 -18.7 -3.75 L-15.25 -4.0 -14.55 -4.7 Q-14.1 -5.65 -12.7 -6.45 -12.7 -5.7 -11.4 -5.5 -11.4 -5.95 -11.05 -5.95 L-10.7 -7.1 Q-10.7 -7.75 -11.3 -8.05 L-11.35 -8.05 -12.7 -8.75 -12.0 -9.95 -12.65 -10.0 -13.95 -9.25 -13.35 -9.7 -13.9 -10.5 -14.75 -10.2 -16.2 -10.5 M9.35 -15.45 L7.2 -17.1 6.85 -17.5 9.35 -15.45 M-6.95 -14.5 L-7.45 -14.5 -7.6 -13.85 Q-7.6 -13.45 -6.95 -13.25 L-6.45 -13.65 -6.35 -13.95 Q-6.35 -14.3 -6.95 -14.5 M-3.9 19.45 L-5.25 20.2 -3.95 19.45 -3.9 19.45" fill="#ffffd9" fill-rule="evenodd" stroke="none"/>
    <path d="M-6.15 -22.05 L-6.0 -21.7 -6.5 -20.95 -7.1 -20.5 Q-6.5 -20.3 -6.5 -19.85 -6.5 -19.5 -3.9 -19.3 L-3.15 -19.25 -2.8 -18.75 Q-4.35 -17.55 -6.9 -16.95 L-7.4 -16.8 Q-9.2 -16.3 -9.7 -15.75 L-10.6 -15.9 Q-11.05 -16.05 -10.9 -16.35 L-10.45 -17.15 -11.25 -17.95 -13.0 -16.3 Q-16.6 -13.25 -18.0 -13.25 L-19.45 -14.1 -19.7 -14.3 Q-19.7 -15.5 -17.65 -15.35 L-16.95 -15.25 -16.85 -15.25 Q-17.2 -16.05 -16.45 -16.65 -15.8 -17.15 -14.75 -17.25 L-14.4 -17.25 -13.6 -17.4 -12.05 -18.6 -12.05 -18.65 -11.6 -19.2 -10.15 -20.5 -9.9 -20.35 -9.25 -20.95 -8.0 -21.9 -6.85 -22.25 -6.15 -22.05 M20.3 5.55 L20.45 5.9 20.3 6.7 18.9 10.3 17.65 13.0 15.65 15.85 15.45 15.8 15.15 15.75 15.8 15.35 15.85 15.3 16.3 14.8 16.4 14.65 16.55 14.4 17.25 13.5 18.15 11.25 Q19.05 8.3 19.05 6.0 19.05 4.35 17.25 2.4 15.7 0.7 13.85 0.0 L13.5 -0.5 13.8 -0.7 Q14.7 -1.35 15.15 -1.35 17.55 -1.35 20.3 5.55 M-33.4 -3.5 L-33.75 -3.25 Q-34.35 -3.45 -34.35 -3.8 L-33.9 -4.2 -30.55 -7.25 -30.4 -6.95 -30.5 -6.6 -29.7 -5.85 Q-31.05 -5.2 -31.3 -4.85 L-30.85 -4.7 -30.35 -4.25 -31.2 -3.6 -30.85 -3.65 -30.55 -3.25 Q-30.55 -2.65 -31.2 -2.4 L-31.7 -2.35 -32.15 -2.4 Q-33.05 -2.65 -32.45 -3.75 L-32.45 -4.1 -33.4 -3.5 M5.1 -20.3 L4.85 -20.4 Q5.0 -21.0 5.9 -21.0 8.2 -21.0 8.2 -20.1 L8.7 -19.75 9.75 -19.05 11.45 -18.0 Q13.85 -16.3 14.5 -15.0 L14.7 -14.55 14.7 -14.15 Q14.7 -13.75 17.1 -8.75 17.1 -8.2 16.0 -7.3 L15.65 -7.0 14.7 -4.8 Q14.7 -4.2 15.45 -4.0 L14.85 -3.15 14.05 -2.4 13.55 -2.4 Q13.45 -2.15 13.45 -2.75 L14.05 -3.75 Q13.1 -4.3 13.1 -4.7 L13.55 -6.15 Q14.2 -7.6 15.0 -8.0 L15.1 -7.95 15.3 -8.75 15.45 -9.35 15.45 -9.7 15.45 -10.0 Q15.45 -10.85 14.65 -12.1 L13.0 -14.4 13.0 -14.45 11.45 -16.55 9.4 -18.0 Q6.65 -19.7 5.1 -20.3 M-21.5 19.95 L-22.6 20.25 -24.5 19.15 -25.45 18.8 -26.1 19.25 Q-27.4 19.25 -28.75 16.5 -29.8 14.35 -29.8 13.6 L-29.7 13.35 -29.6 13.3 -29.15 13.25 Q-27.3 13.25 -26.55 15.6 L-26.1 16.9 Q-24.0 16.9 -21.15 19.4 L-21.5 19.95" fill="#6c2000" fill-rule="evenodd" stroke="none"/>
    <path d="M12.6 21.3 L12.15 22.0 11.5 20.85 12.15 21.6 12.6 21.3 M-18.7 -15.85 L-19.0 -15.7 -19.05 -15.7 -18.7 -15.85 M-30.85 -4.7 L-30.5 -5.0 Q-29.95 -4.95 -29.85 -4.15 L-29.85 -3.85 -30.3 1.1 -30.35 1.25 -30.35 1.9 -30.35 2.35 -30.4 2.8 -30.4 3.0 -30.5 3.1 -30.5 3.25 -30.75 5.1 -31.2 6.3 -31.45 6.8 -31.5 6.95 -31.75 7.4 -32.05 7.3 -32.65 6.8 Q-31.8 6.65 -31.8 5.7 L-33.15 4.6 Q-34.55 3.95 -34.55 3.3 L-33.6 1.45 -34.15 0.4 Q-33.65 0.25 -32.7 -1.45 L-32.15 -2.4 -31.7 -2.35 -31.2 -2.4 Q-30.55 -2.65 -30.55 -3.25 L-30.85 -3.65 -31.2 -3.6 -30.35 -4.25 -30.85 -4.7 M4.85 -19.0 L3.5 -19.85 5.1 -20.3 Q6.65 -19.7 9.4 -18.0 L11.45 -16.55 13.0 -14.45 13.0 -14.4 14.65 -12.1 15.0 -10.8 Q14.05 -12.5 11.2 -14.65 L9.35 -15.45 6.85 -17.5 4.85 -19.0 M-5.8 -23.85 L-5.0 -24.45 -6.05 -23.0 Q-6.05 -22.95 -6.15 -22.95 L-6.2 -23.55 -5.8 -23.85 M-8.0 -21.9 L-9.25 -20.95 -8.1 -22.0 -8.0 -21.9 M-11.6 -19.2 L-12.05 -18.65 -12.05 -18.6 -12.2 -19.15 -11.6 -19.2 M-13.6 -17.4 L-14.4 -17.25 -14.75 -17.25 -13.6 -17.4 M15.85 15.3 L15.8 15.35 15.15 15.75 15.45 15.8 13.85 17.85 14.2 18.0 11.85 20.5 Q11.4 19.85 10.25 19.85 L8.15 20.8 Q6.05 21.75 2.9 21.75 -1.35 21.75 -1.65 20.1 L-1.65 19.4 Q-1.35 19.2 -0.85 19.1 L8.1 19.75 8.1 19.8 13.6 16.4 13.85 16.6 15.65 15.05 15.85 15.3" fill="#916f20" fill-rule="evenodd" stroke="none"/>
    <path d="M-30.3 1.1 L-27.25 -5.4 Q-25.9 -5.4 -26.25 -4.35 L-26.8 -2.25 -27.55 -0.6 Q-28.0 -0.6 -28.0 0.65 L-27.05 2.15 -27.35 5.8 Q-27.35 8.5 -28.8 8.5 L-29.4 8.45 -29.45 8.45 -30.4 7.95 Q-30.85 7.5 -30.9 6.65 L-31.0 6.25 -30.75 5.1 -30.5 3.25 -30.4 3.0 -30.4 2.8 -30.35 2.35 -30.35 1.9 -30.35 1.25 -30.3 1.1 M13.25 16.1 L12.05 15.25 Q14.25 12.45 16.4 11.55 L16.95 11.35 17.7 11.9 Q17.7 12.65 16.0 14.65 L15.65 15.05 13.85 16.6 13.6 16.4 13.25 16.1 M15.2 3.4 Q15.2 5.0 14.05 5.15 L12.15 3.45 Q11.15 2.55 11.65 1.75 L9.3 2.5 Q8.35 1.85 8.35 1.6 8.35 1.1 9.9 -0.05 11.5 -1.25 12.15 -1.25 L12.35 -1.2 12.75 -1.1 13.5 -0.5 13.85 0.0 15.2 3.3 15.2 3.4 M13.7 -8.25 L13.45 -8.25 Q12.65 -8.4 12.65 -8.95 L13.55 -10.85 13.45 -11.5 13.0 -11.85 12.15 -11.35 Q11.65 -11.35 10.8 -12.2 10.0 -13.1 8.95 -13.1 L7.55 -13.25 Q7.5 -14.25 5.8 -15.75 4.05 -17.3 2.9 -17.4 1.95 -18.0 1.95 -18.3 1.95 -19.25 3.55 -19.25 L4.85 -19.0 6.85 -17.5 7.2 -17.1 9.35 -15.45 11.2 -14.65 Q14.05 -12.5 15.0 -10.8 L15.45 -9.7 15.45 -9.35 15.3 -8.75 14.6 -8.35 13.7 -8.25 M-16.2 -10.5 L-14.75 -10.2 -14.3 -9.5 -20.65 -5.75 Q-21.75 -5.75 -22.05 -6.05 L-22.25 -6.25 -22.25 -6.75 -19.9 -8.25 Q-18.1 -9.35 -16.4 -10.5 L-16.2 -10.5 M-6.95 -14.5 Q-6.35 -14.3 -6.35 -13.95 L-6.45 -13.65 -6.95 -13.25 Q-7.6 -13.45 -7.6 -13.85 L-7.45 -14.5 -6.95 -14.5" fill="#fcfcb8" fill-rule="evenodd" stroke="none"/>
  </g>
</svg>
