<?xml version="1.0" encoding="UTF-8" standalone="no"?>
<svg xmlns:xlink="http://www.w3.org/1999/xlink" height="20.3px" width="89.5px" xmlns="http://www.w3.org/2000/svg">
  <g transform="matrix(1.0, 0.0, 0.0, 1.0, 41.4, 9.8)">
    <path d="M38.2 -9.65 Q42.3 -9.65 45.2 -6.75 48.1 -3.8 48.1 0.35 48.1 4.45 45.2 7.4 42.3 10.3 38.2 10.35 L38.2 9.8 Q42.05 9.75 44.8 7.05 47.55 4.25 47.55 0.3 47.55 -3.65 44.8 -6.4 42.05 -9.15 38.2 -9.2 L38.2 -9.65" fill="url(#gradient0)" fill-rule="evenodd" stroke="none"/>
    <path d="M-38.45 -6.75 Q-36.1 -9.15 -32.9 -9.55 L-32.3 -9.65 -31.9 -9.65 -31.9 -9.2 -32.3 -9.15 -32.9 -9.1 Q-35.9 -8.65 -38.15 -6.4 -40.95 -3.65 -40.95 0.3 -40.95 4.25 -38.15 7.05 -35.4 9.8 -31.45 9.8 L-31.3 9.8 -31.3 10.35 -31.4 10.35 Q-35.55 10.35 -38.45 7.4 -41.4 4.45 -41.4 0.35 -41.4 -3.8 -38.45 -6.75" fill="url(#gradient1)" fill-rule="evenodd" stroke="none"/>
    <path d="M5.65 -9.15 L38.15 -9.15 M-26.35 -9.15 L-31.95 -9.15" fill="none" stroke="#a0a0a0" stroke-linecap="square" stroke-linejoin="round" stroke-width="1.0"/>
    <path d="M5.65 9.85 L38.2 9.85 M-26.35 9.85 L-31.7 9.85" fill="none" stroke="#f7f7f7" stroke-linecap="square" stroke-linejoin="round" stroke-width="1.0"/>
    <path d="M-26.35 -9.15 L5.65 -9.15" fill="none" stroke="#a0a0a0" stroke-linecap="square" stroke-linejoin="round" stroke-width="1.0"/>
    <path d="M-26.35 9.85 L5.65 9.85" fill="none" stroke="#f7f7f7" stroke-linecap="square" stroke-linejoin="round" stroke-width="1.0"/>
    <path d="M38.4 -9.2 Q42.1 -9.05 44.8 -6.4 47.55 -3.65 47.55 0.3 47.55 4.25 44.8 7.05 42.1 9.7 38.4 9.8 L-31.5 9.8 Q-35.4 9.8 -38.15 7.05 -40.95 4.25 -40.95 0.3 -40.95 -3.65 -38.15 -6.4 -35.55 -9.05 -31.9 -9.2 L-31.5 -9.2 -31.5 -9.25 38.4 -9.25 38.4 -9.2" fill="url(#gradient2)" fill-rule="evenodd" stroke="none"/>
  </g>
  <defs>
    <linearGradient gradientTransform="matrix(0.0071, 0.0071, -0.0086, 0.0086, 38.6, 0.8)" gradientUnits="userSpaceOnUse" id="gradient0" spreadMethod="pad" x1="-819.2" x2="819.2">
      <stop offset="0.0" stop-color="#999999"/>
      <stop offset="1.0" stop-color="#ffffff"/>
    </linearGradient>
    <linearGradient gradientTransform="matrix(0.0071, 0.0071, -0.0086, 0.0086, -30.9, 0.8)" gradientUnits="userSpaceOnUse" id="gradient1" spreadMethod="pad" x1="-819.2" x2="819.2">
      <stop offset="0.0" stop-color="#999999"/>
      <stop offset="1.0" stop-color="#ffffff"/>
    </linearGradient>
    <radialGradient cx="0" cy="0" gradientTransform="matrix(0.1011, 0.0, 0.0, 0.1011, -34.75, -8.05)" gradientUnits="userSpaceOnUse" id="gradient2" r="819.2" spreadMethod="pad">
      <stop offset="0.0" stop-color="#eff2ef"/>
      <stop offset="0.5725490196078431" stop-color="#809d80"/>
      <stop offset="1.0" stop-color="#709170"/>
    </radialGradient>
  </defs>
</svg>
