<?xml version="1.0" encoding="UTF-8" standalone="no"?>
<svg xmlns:xlink="http://www.w3.org/1999/xlink" height="34.85px" width="24.85px" xmlns="http://www.w3.org/2000/svg">
  <g transform="matrix(1.0, 0.0, 0.0, 1.0, 1.45, 1.5)">
    <path d="M7.7 -0.1 L7.5 -0.15 7.35 -0.2 7.15 -0.15 Q6.75 -0.05 6.65 0.35 6.35 1.65 7.7 1.45 L7.95 1.25 8.05 1.2 8.1 1.1 8.2 0.85 8.15 0.4 8.05 0.15 7.95 0.05 7.85 0.0 7.7 -0.1 M10.7 -0.85 L10.5 -0.85 Q10.1 -0.75 10.0 -0.3 9.65 1.0 11.05 0.8 L11.3 0.6 11.35 0.5 11.45 0.45 11.5 0.2 11.5 -0.25 11.4 -0.5 11.3 -0.6 11.15 -0.7 11.05 -0.75 10.85 -0.85 10.7 -0.85 M15.1 -0.55 L14.9 -0.6 14.75 -0.65 14.6 -0.65 Q14.15 -0.55 14.05 -0.1 13.75 1.2 15.1 1.0 L15.35 0.8 15.45 0.7 15.5 0.65 15.6 0.4 15.6 -0.05 15.45 -0.3 15.35 -0.4 15.25 -0.5 15.1 -0.55 M21.45 6.05 L21.25 6.0 21.1 5.95 20.9 6.0 Q20.5 6.05 20.4 6.5 20.1 7.8 21.45 7.6 L21.7 7.4 21.8 7.3 21.85 7.25 21.95 7.0 21.9 6.55 21.8 6.3 21.7 6.2 21.6 6.1 21.45 6.05 M22.25 9.65 L22.15 9.55 22.0 9.45 21.8 9.4 21.65 9.4 21.45 9.4 Q21.05 9.5 20.95 9.9 20.65 11.2 22.0 11.0 L22.25 10.85 22.35 10.75 22.4 10.65 22.5 10.4 22.45 9.95 22.35 9.7 22.25 9.65 M22.95 13.55 L22.8 13.3 22.75 13.2 22.6 13.1 22.5 13.05 22.3 13.0 22.15 12.95 21.95 13.0 Q21.55 13.1 21.45 13.5 21.1 14.8 22.5 14.6 L22.75 14.4 22.8 14.35 22.9 14.25 22.95 14.0 22.95 13.55 M23.4 13.0 Q23.4 16.3 21.6 20.7 20.05 24.45 18.0 27.35 L16.1 29.8 14.35 31.35 Q13.05 32.15 11.45 32.55 11.25 32.6 11.35 32.75 L11.65 33.05 Q12.0 33.35 11.0 33.35 9.8 33.35 10.15 33.0 L10.4 32.7 10.35 32.5 7.7 31.65 6.05 30.45 4.3 28.25 Q2.2 25.35 0.5 21.15 -0.95 17.5 -1.3 14.75 L-1.35 14.6 -1.45 13.0 -1.45 12.9 Q-1.45 6.95 2.2 2.75 5.8 -1.5 11.0 -1.5 16.1 -1.5 19.75 2.75 23.35 6.95 23.4 12.9 L23.4 13.0 M21.8 15.9 L21.6 15.85 21.45 15.85 21.25 15.85 Q20.85 15.95 20.75 16.4 20.45 17.65 21.8 17.5 L22.05 17.3 22.15 17.2 22.2 17.15 22.3 16.85 22.25 16.45 22.15 16.2 22.05 16.1 21.95 16.0 21.8 15.9 M20.65 18.55 L20.45 18.5 20.3 18.5 20.1 18.5 Q19.7 18.6 19.6 19.05 19.25 20.3 20.65 20.15 L20.9 19.95 20.95 19.85 21.05 19.8 21.1 19.5 21.1 19.1 21.0 18.85 20.9 18.75 20.8 18.65 20.65 18.55 M17.85 1.35 L17.75 1.25 17.55 1.2 17.35 1.2 17.2 1.2 Q16.75 1.3 16.65 1.75 16.35 3.0 17.75 2.85 L18.0 2.65 18.05 2.55 18.1 2.5 18.2 2.25 18.2 1.8 18.05 1.55 18.0 1.45 17.85 1.35 M19.95 3.85 L19.85 3.75 19.75 3.65 19.6 3.6 19.4 3.55 19.25 3.5 19.1 3.55 Q18.65 3.6 18.55 4.05 18.25 5.35 19.6 5.15 L19.85 4.95 19.95 4.85 20.0 4.8 20.1 4.55 20.1 4.1 19.95 3.85 M4.25 2.1 L4.05 2.1 Q3.65 2.2 3.5 2.65 3.2 3.9 4.6 3.7 L4.85 3.55 4.9 3.45 5.0 3.4 5.05 3.1 5.05 2.7 4.9 2.45 4.85 2.35 4.7 2.25 4.6 2.15 4.4 2.1 4.25 2.1 M2.2 4.9 L2.0 4.9 Q1.6 5.0 1.5 5.4 1.15 6.7 2.55 6.5 L2.8 6.35 2.85 6.25 2.95 6.2 3.0 5.9 3.0 5.5 2.85 5.2 2.8 5.15 2.65 5.05 2.55 4.95 2.35 4.9 2.2 4.9 M1.15 8.35 L1.05 8.25 0.9 8.15 0.7 8.1 0.55 8.1 0.35 8.1 Q-0.05 8.2 -0.15 8.6 -0.5 9.9 0.9 9.7 L1.15 9.55 1.2 9.45 1.3 9.4 1.35 9.1 1.35 8.7 1.25 8.4 1.15 8.35 M0.55 11.75 L0.35 11.7 0.2 11.7 0.0 11.7 Q-0.4 11.8 -0.5 12.25 -0.8 13.5 0.55 13.35 L0.8 13.15 0.9 13.05 0.95 13.0 1.05 12.7 1.0 12.3 0.9 12.05 0.8 11.95 0.7 11.85 0.55 11.75 M0.6 15.2 L0.45 15.15 0.3 15.15 Q-0.15 15.25 -0.25 15.7 -0.55 17.0 0.8 16.8 L1.05 16.6 1.15 16.5 1.2 16.45 1.3 16.2 1.3 15.75 1.15 15.5 1.05 15.4 0.95 15.3 0.8 15.25 0.6 15.2 M1.25 18.15 L1.05 18.15 Q0.65 18.25 0.55 18.7 0.2 20.0 1.6 19.8 L1.85 19.6 1.9 19.5 2.0 19.45 2.05 19.2 2.05 18.75 1.9 18.5 1.85 18.4 1.7 18.3 1.6 18.25 1.4 18.15 1.25 18.15 M3.0 21.3 L2.85 21.0 2.8 20.95 2.65 20.85 2.55 20.75 2.35 20.7 2.2 20.7 2.0 20.7 Q1.6 20.8 1.5 21.2 1.15 22.5 2.55 22.3 L2.8 22.15 2.85 22.05 2.95 22.0 3.0 21.7 3.0 21.3 M3.45 23.1 L3.3 23.15 Q2.85 23.25 2.75 23.65 2.45 24.95 3.8 24.75 L4.05 24.55 4.15 24.5 4.2 24.4 4.3 24.15 4.25 23.7 4.15 23.45 4.05 23.35 3.95 23.25 3.8 23.2 3.6 23.15 3.45 23.1 M18.95 21.1 Q18.55 21.2 18.45 21.6 18.1 22.9 19.5 22.7 L19.75 22.5 19.8 22.45 19.9 22.35 19.95 22.1 19.95 21.65 19.8 21.4 19.75 21.3 19.6 21.25 19.5 21.15 19.3 21.1 19.15 21.05 18.95 21.1 M17.65 23.8 Q17.25 23.9 17.15 24.35 16.8 25.65 18.2 25.45 L18.45 25.25 18.5 25.15 18.6 25.1 18.65 24.85 18.65 24.4 18.55 24.15 18.45 24.05 18.35 23.95 18.2 23.9 18.0 23.85 17.85 23.8 17.65 23.8 M16.1 26.3 Q15.65 26.35 15.55 26.8 15.25 28.1 16.6 27.9 L16.85 27.7 16.95 27.6 17.0 27.55 17.1 27.3 17.1 26.85 16.95 26.6 16.85 26.5 16.75 26.4 16.6 26.35 16.4 26.3 16.25 26.25 16.1 26.3 M12.65 30.05 L12.6 29.95 12.45 29.9 12.35 29.8 12.15 29.75 12.0 29.7 11.8 29.75 Q11.4 29.85 11.3 30.25 10.95 31.55 12.35 31.35 L12.6 31.15 12.65 31.1 12.75 31.0 12.8 30.75 12.8 30.3 12.65 30.05 M14.45 28.6 L14.3 28.55 14.1 28.6 Q13.7 28.65 13.6 29.1 13.3 30.4 14.65 30.2 L14.9 30.0 15.0 29.95 15.05 29.85 15.15 29.6 15.1 29.15 15.0 28.9 14.9 28.8 14.8 28.7 14.65 28.65 14.45 28.6 M5.45 26.2 L5.45 25.75 5.3 25.5 5.2 25.45 5.1 25.35 5.0 25.25 4.75 25.2 4.6 25.2 4.45 25.2 Q4.0 25.3 3.9 25.7 3.6 27.0 5.0 26.8 L5.2 26.65 5.3 26.55 5.35 26.45 5.45 26.2 M6.15 27.3 Q5.75 27.4 5.65 27.8 5.3 29.1 6.7 28.9 L6.95 28.7 7.0 28.65 7.1 28.55 7.15 28.3 7.15 27.85 7.0 27.6 6.95 27.5 6.8 27.45 6.7 27.35 6.5 27.3 6.35 27.25 6.15 27.3 M8.8 29.35 L8.65 29.35 8.45 29.35 Q8.05 29.45 7.95 29.85 7.6 31.15 9.0 30.95 L9.25 30.8 9.3 30.7 9.4 30.65 9.45 30.35 9.45 29.95 9.35 29.65 9.25 29.6 9.15 29.5 9.0 29.4 8.8 29.35" fill="url(#gradient0)" fill-rule="evenodd" stroke="none"/>
    <path d="M7.7 -0.1 L7.85 0.0 7.95 0.05 8.05 0.15 8.15 0.4 8.2 0.85 8.1 1.1 8.05 1.2 7.95 1.25 7.7 1.45 Q6.35 1.65 6.65 0.35 6.75 -0.05 7.15 -0.15 L7.35 -0.2 7.5 -0.15 7.7 -0.1" fill="url(#gradient1)" fill-rule="evenodd" stroke="none"/>
    <path d="M10.7 -0.85 L10.85 -0.85 11.05 -0.75 11.15 -0.7 11.3 -0.6 11.4 -0.5 11.5 -0.25 11.5 0.2 11.45 0.45 11.35 0.5 11.3 0.6 11.05 0.8 Q9.65 1.0 10.0 -0.3 10.1 -0.75 10.5 -0.85 L10.7 -0.85" fill="url(#gradient2)" fill-rule="evenodd" stroke="none"/>
    <path d="M15.1 -0.55 L15.25 -0.5 15.35 -0.4 15.45 -0.3 15.6 -0.05 15.6 0.4 15.5 0.65 15.45 0.7 15.35 0.8 15.1 1.0 Q13.75 1.2 14.05 -0.1 14.15 -0.55 14.6 -0.65 L14.75 -0.65 14.9 -0.6 15.1 -0.55" fill="url(#gradient3)" fill-rule="evenodd" stroke="none"/>
    <path d="M21.45 6.05 L21.6 6.1 21.7 6.2 21.8 6.3 21.9 6.55 21.95 7.0 21.85 7.25 21.8 7.3 21.7 7.4 21.45 7.6 Q20.1 7.8 20.4 6.5 20.5 6.05 20.9 6.0 L21.1 5.95 21.25 6.0 21.45 6.05" fill="url(#gradient4)" fill-rule="evenodd" stroke="none"/>
    <path d="M22.25 9.65 L22.35 9.7 22.45 9.95 22.5 10.4 22.4 10.65 22.35 10.75 22.25 10.85 22.0 11.0 Q20.65 11.2 20.95 9.9 21.05 9.5 21.45 9.4 L21.65 9.4 21.8 9.4 22.0 9.45 22.15 9.55 22.25 9.65" fill="url(#gradient5)" fill-rule="evenodd" stroke="none"/>
    <path d="M22.95 13.55 L22.95 14.0 22.9 14.25 22.8 14.35 22.75 14.4 22.5 14.6 Q21.1 14.8 21.45 13.5 21.55 13.1 21.95 13.0 L22.15 12.95 22.3 13.0 22.5 13.05 22.6 13.1 22.75 13.2 22.8 13.3 22.95 13.55" fill="url(#gradient6)" fill-rule="evenodd" stroke="none"/>
    <path d="M21.8 15.9 L21.95 16.0 22.05 16.1 22.15 16.2 22.25 16.45 22.3 16.85 22.2 17.15 22.15 17.2 22.05 17.3 21.8 17.5 Q20.45 17.65 20.75 16.4 20.85 15.95 21.25 15.85 L21.45 15.85 21.6 15.85 21.8 15.9" fill="url(#gradient7)" fill-rule="evenodd" stroke="none"/>
    <path d="M20.65 18.55 L20.8 18.65 20.9 18.75 21.0 18.85 21.1 19.1 21.1 19.5 21.05 19.8 20.95 19.85 20.9 19.95 20.65 20.15 Q19.25 20.3 19.6 19.05 19.7 18.6 20.1 18.5 L20.3 18.5 20.45 18.5 20.65 18.55" fill="url(#gradient8)" fill-rule="evenodd" stroke="none"/>
    <path d="M17.85 1.35 L18.0 1.45 18.05 1.55 18.2 1.8 18.2 2.25 18.1 2.5 18.05 2.55 18.0 2.65 17.75 2.85 Q16.35 3.0 16.65 1.75 16.75 1.3 17.2 1.2 L17.35 1.2 17.55 1.2 17.75 1.25 17.85 1.35" fill="url(#gradient9)" fill-rule="evenodd" stroke="none"/>
    <path d="M19.95 3.85 L20.1 4.1 20.1 4.55 20.0 4.8 19.95 4.85 19.85 4.95 19.6 5.15 Q18.25 5.35 18.55 4.05 18.65 3.6 19.1 3.55 L19.25 3.5 19.4 3.55 19.6 3.6 19.75 3.65 19.85 3.75 19.95 3.85" fill="url(#gradient10)" fill-rule="evenodd" stroke="none"/>
    <path d="M4.25 2.1 L4.4 2.1 4.6 2.15 4.7 2.25 4.85 2.35 4.9 2.45 5.05 2.7 5.05 3.1 5.0 3.4 4.9 3.45 4.85 3.55 4.6 3.7 Q3.2 3.9 3.5 2.65 3.65 2.2 4.05 2.1 L4.25 2.1" fill="url(#gradient11)" fill-rule="evenodd" stroke="none"/>
    <path d="M2.2 4.9 L2.35 4.9 2.55 4.95 2.65 5.05 2.8 5.15 2.85 5.2 3.0 5.5 3.0 5.9 2.95 6.2 2.85 6.25 2.8 6.35 2.55 6.5 Q1.15 6.7 1.5 5.4 1.6 5.0 2.0 4.9 L2.2 4.9" fill="url(#gradient12)" fill-rule="evenodd" stroke="none"/>
    <path d="M1.15 8.35 L1.25 8.4 1.35 8.7 1.35 9.1 1.3 9.4 1.2 9.45 1.15 9.55 0.9 9.7 Q-0.5 9.9 -0.15 8.6 -0.05 8.2 0.35 8.1 L0.55 8.1 0.7 8.1 0.9 8.15 1.05 8.25 1.15 8.35" fill="url(#gradient13)" fill-rule="evenodd" stroke="none"/>
    <path d="M0.55 11.75 L0.7 11.85 0.8 11.95 0.9 12.05 1.0 12.3 1.05 12.7 0.95 13.0 0.9 13.05 0.8 13.15 0.55 13.35 Q-0.8 13.5 -0.5 12.25 -0.4 11.8 0.0 11.7 L0.2 11.7 0.35 11.7 0.55 11.75" fill="url(#gradient14)" fill-rule="evenodd" stroke="none"/>
    <path d="M0.6 15.2 L0.8 15.25 0.95 15.3 1.05 15.4 1.15 15.5 1.3 15.75 1.3 16.2 1.2 16.45 1.15 16.5 1.05 16.6 0.8 16.8 Q-0.55 17.0 -0.25 15.7 -0.15 15.25 0.3 15.15 L0.45 15.15 0.6 15.2" fill="url(#gradient15)" fill-rule="evenodd" stroke="none"/>
    <path d="M1.25 18.15 L1.4 18.15 1.6 18.25 1.7 18.3 1.85 18.4 1.9 18.5 2.05 18.75 2.05 19.2 2.0 19.45 1.9 19.5 1.85 19.6 1.6 19.8 Q0.2 20.0 0.55 18.7 0.65 18.25 1.05 18.15 L1.25 18.15" fill="url(#gradient16)" fill-rule="evenodd" stroke="none"/>
    <path d="M3.0 21.3 L3.0 21.7 2.95 22.0 2.85 22.05 2.8 22.15 2.55 22.3 Q1.15 22.5 1.5 21.2 1.6 20.8 2.0 20.7 L2.2 20.7 2.35 20.7 2.55 20.75 2.65 20.85 2.8 20.95 2.85 21.0 3.0 21.3" fill="url(#gradient17)" fill-rule="evenodd" stroke="none"/>
    <path d="M3.45 23.1 L3.6 23.15 3.8 23.2 3.95 23.25 4.05 23.35 4.15 23.45 4.25 23.7 4.3 24.15 4.2 24.4 4.15 24.5 4.05 24.55 3.8 24.75 Q2.45 24.95 2.75 23.65 2.85 23.25 3.3 23.15 L3.45 23.1" fill="url(#gradient18)" fill-rule="evenodd" stroke="none"/>
    <path d="M18.95 21.1 L19.15 21.05 19.3 21.1 19.5 21.15 19.6 21.25 19.75 21.3 19.8 21.4 19.95 21.65 19.95 22.1 19.9 22.35 19.8 22.45 19.75 22.5 19.5 22.7 Q18.1 22.9 18.45 21.6 18.55 21.2 18.95 21.1" fill="url(#gradient19)" fill-rule="evenodd" stroke="none"/>
    <path d="M17.65 23.8 L17.85 23.8 18.0 23.85 18.2 23.9 18.35 23.95 18.45 24.05 18.55 24.15 18.65 24.4 18.65 24.85 18.6 25.1 18.5 25.15 18.45 25.25 18.2 25.45 Q16.8 25.65 17.15 24.35 17.25 23.9 17.65 23.8" fill="url(#gradient20)" fill-rule="evenodd" stroke="none"/>
    <path d="M16.1 26.3 L16.25 26.25 16.4 26.3 16.6 26.35 16.75 26.4 16.85 26.5 16.95 26.6 17.1 26.85 17.1 27.3 17.0 27.55 16.95 27.6 16.85 27.7 16.6 27.9 Q15.25 28.1 15.55 26.8 15.65 26.35 16.1 26.3" fill="url(#gradient21)" fill-rule="evenodd" stroke="none"/>
    <path d="M12.65 30.05 L12.8 30.3 12.8 30.75 12.75 31.0 12.65 31.1 12.6 31.15 12.35 31.35 Q10.95 31.55 11.3 30.25 11.4 29.85 11.8 29.75 L12.0 29.7 12.15 29.75 12.35 29.8 12.45 29.9 12.6 29.95 12.65 30.05" fill="url(#gradient22)" fill-rule="evenodd" stroke="none"/>
    <path d="M14.45 28.6 L14.65 28.65 14.8 28.7 14.9 28.8 15.0 28.9 15.1 29.15 15.15 29.6 15.05 29.85 15.0 29.95 14.9 30.0 14.65 30.2 Q13.3 30.4 13.6 29.1 13.7 28.65 14.1 28.6 L14.3 28.55 14.45 28.6" fill="url(#gradient23)" fill-rule="evenodd" stroke="none"/>
    <path d="M5.45 26.2 L5.35 26.45 5.3 26.55 5.2 26.65 5.0 26.8 Q3.6 27.0 3.9 25.7 4.0 25.3 4.45 25.2 L4.6 25.2 4.75 25.2 5.0 25.25 5.1 25.35 5.2 25.45 5.3 25.5 5.45 25.75 5.45 26.2" fill="url(#gradient24)" fill-rule="evenodd" stroke="none"/>
    <path d="M6.15 27.3 L6.35 27.25 6.5 27.3 6.7 27.35 6.8 27.45 6.95 27.5 7.0 27.6 7.15 27.85 7.15 28.3 7.1 28.55 7.0 28.65 6.95 28.7 6.7 28.9 Q5.3 29.1 5.65 27.8 5.75 27.4 6.15 27.3" fill="url(#gradient25)" fill-rule="evenodd" stroke="none"/>
    <path d="M8.8 29.35 L9.0 29.4 9.15 29.5 9.25 29.6 9.35 29.65 9.45 29.95 9.45 30.35 9.4 30.65 9.3 30.7 9.25 30.8 9.0 30.95 Q7.6 31.15 7.95 29.85 8.05 29.45 8.45 29.35 L8.65 29.35 8.8 29.35" fill="url(#gradient26)" fill-rule="evenodd" stroke="none"/>
    <path d="M23.4 12.9 L23.4 13.0 23.4 13.7 23.35 14.05 22.95 17.0 Q22.45 19.55 21.6 21.2 L18.0 26.8 16.2 29.3 14.45 30.95 12.65 31.75 11.45 32.05 Q11.25 32.05 11.35 32.2 L11.65 32.5 Q12.0 32.8 11.0 32.85 9.8 32.85 10.15 32.45 L10.4 32.2 10.35 32.0 9.25 31.85 7.7 31.35 6.1 30.05 4.3 27.75 Q1.8 24.25 0.5 21.7 -0.4 19.85 -0.95 17.15 L-1.4 14.05 -1.4 13.7 -1.45 13.0 -1.45 12.9 23.4 12.9" fill="url(#gradient27)" fill-rule="evenodd" stroke="none"/>
    <path d="M-1.45 12.9 Q-1.45 6.95 2.2 2.75 5.8 -1.5 11.0 -1.5 16.1 -1.5 19.75 2.75 23.35 6.95 23.4 12.9 L-1.45 12.9" fill="url(#gradient28)" fill-rule="evenodd" stroke="none"/>
  </g>
  <defs>
    <radialGradient cx="0" cy="0" gradientTransform="matrix(0.0353, 0.0, 0.0, 0.0353, 15.0, 5.05)" gradientUnits="userSpaceOnUse" id="gradient0" r="819.2" spreadMethod="pad">
      <stop offset="0.21176470588235294" stop-color="#cccccc"/>
      <stop offset="0.5176470588235295" stop-color="#999999"/>
      <stop offset="0.6313725490196078" stop-color="#b3a38a"/>
      <stop offset="0.7686274509803922" stop-color="#999999"/>
      <stop offset="1.0" stop-color="#000000"/>
    </radialGradient>
    <radialGradient cx="0" cy="0" gradientTransform="matrix(0.0015, 0.0, 0.0, 0.0015, 7.4, 0.65)" gradientUnits="userSpaceOnUse" id="gradient1" r="819.2" spreadMethod="pad">
      <stop offset="0.21176470588235294" stop-color="#cccccc"/>
      <stop offset="0.5176470588235295" stop-color="#999999"/>
      <stop offset="0.6313725490196078" stop-color="#b3a38a"/>
      <stop offset="0.7686274509803922" stop-color="#999999"/>
      <stop offset="1.0" stop-color="#000000"/>
    </radialGradient>
    <radialGradient cx="0" cy="0" gradientTransform="matrix(0.0016, 0.0, 0.0, 0.0016, 10.75, 0.0)" gradientUnits="userSpaceOnUse" id="gradient2" r="819.2" spreadMethod="pad">
      <stop offset="0.21176470588235294" stop-color="#cccccc"/>
      <stop offset="0.5176470588235295" stop-color="#999999"/>
      <stop offset="0.6313725490196078" stop-color="#b3a38a"/>
      <stop offset="0.7686274509803922" stop-color="#999999"/>
      <stop offset="1.0" stop-color="#000000"/>
    </radialGradient>
    <radialGradient cx="0" cy="0" gradientTransform="matrix(0.0016, 0.0, 0.0, 0.0016, 14.8, 0.2)" gradientUnits="userSpaceOnUse" id="gradient3" r="819.2" spreadMethod="pad">
      <stop offset="0.21176470588235294" stop-color="#cccccc"/>
      <stop offset="0.5176470588235295" stop-color="#999999"/>
      <stop offset="0.6313725490196078" stop-color="#b3a38a"/>
      <stop offset="0.7686274509803922" stop-color="#999999"/>
      <stop offset="1.0" stop-color="#000000"/>
    </radialGradient>
    <radialGradient cx="0" cy="0" gradientTransform="matrix(0.0016, 0.0, 0.0, 0.0016, 21.15, 6.8)" gradientUnits="userSpaceOnUse" id="gradient4" r="819.2" spreadMethod="pad">
      <stop offset="0.21176470588235294" stop-color="#cccccc"/>
      <stop offset="0.5176470588235295" stop-color="#999999"/>
      <stop offset="0.6313725490196078" stop-color="#b3a38a"/>
      <stop offset="0.7686274509803922" stop-color="#999999"/>
      <stop offset="1.0" stop-color="#000000"/>
    </radialGradient>
    <radialGradient cx="0" cy="0" gradientTransform="matrix(0.0015, 0.0, 0.0, 0.0015, 21.7, 10.2)" gradientUnits="userSpaceOnUse" id="gradient5" r="819.2" spreadMethod="pad">
      <stop offset="0.21176470588235294" stop-color="#cccccc"/>
      <stop offset="0.5176470588235295" stop-color="#999999"/>
      <stop offset="0.6313725490196078" stop-color="#b3a38a"/>
      <stop offset="0.7686274509803922" stop-color="#999999"/>
      <stop offset="1.0" stop-color="#000000"/>
    </radialGradient>
    <radialGradient cx="0" cy="0" gradientTransform="matrix(0.0015, 0.0, 0.0, 0.0015, 22.2, 13.8)" gradientUnits="userSpaceOnUse" id="gradient6" r="819.2" spreadMethod="pad">
      <stop offset="0.21176470588235294" stop-color="#cccccc"/>
      <stop offset="0.5176470588235295" stop-color="#999999"/>
      <stop offset="0.6313725490196078" stop-color="#b3a38a"/>
      <stop offset="0.7686274509803922" stop-color="#999999"/>
      <stop offset="1.0" stop-color="#000000"/>
    </radialGradient>
    <radialGradient cx="0" cy="0" gradientTransform="matrix(0.0016, 0.0, 0.0, 0.0016, 21.5, 16.7)" gradientUnits="userSpaceOnUse" id="gradient7" r="819.2" spreadMethod="pad">
      <stop offset="0.21176470588235294" stop-color="#cccccc"/>
      <stop offset="0.5176470588235295" stop-color="#999999"/>
      <stop offset="0.6313725490196078" stop-color="#b3a38a"/>
      <stop offset="0.7686274509803922" stop-color="#999999"/>
      <stop offset="1.0" stop-color="#000000"/>
    </radialGradient>
    <radialGradient cx="0" cy="0" gradientTransform="matrix(0.0016, 0.0, 0.0, 0.0016, 20.35, 19.35)" gradientUnits="userSpaceOnUse" id="gradient8" r="819.2" spreadMethod="pad">
      <stop offset="0.21176470588235294" stop-color="#cccccc"/>
      <stop offset="0.5176470588235295" stop-color="#999999"/>
      <stop offset="0.6313725490196078" stop-color="#b3a38a"/>
      <stop offset="0.7686274509803922" stop-color="#999999"/>
      <stop offset="1.0" stop-color="#000000"/>
    </radialGradient>
    <radialGradient cx="0" cy="0" gradientTransform="matrix(0.0016, 0.0, 0.0, 0.0016, 17.4, 2.05)" gradientUnits="userSpaceOnUse" id="gradient9" r="819.2" spreadMethod="pad">
      <stop offset="0.21176470588235294" stop-color="#cccccc"/>
      <stop offset="0.5176470588235295" stop-color="#999999"/>
      <stop offset="0.6313725490196078" stop-color="#b3a38a"/>
      <stop offset="0.7686274509803922" stop-color="#999999"/>
      <stop offset="1.0" stop-color="#000000"/>
    </radialGradient>
    <radialGradient cx="0" cy="0" gradientTransform="matrix(0.0016, 0.0, 0.0, 0.0016, 19.3, 4.35)" gradientUnits="userSpaceOnUse" id="gradient10" r="819.2" spreadMethod="pad">
      <stop offset="0.21176470588235294" stop-color="#cccccc"/>
      <stop offset="0.5176470588235295" stop-color="#999999"/>
      <stop offset="0.6313725490196078" stop-color="#b3a38a"/>
      <stop offset="0.7686274509803922" stop-color="#999999"/>
      <stop offset="1.0" stop-color="#000000"/>
    </radialGradient>
    <radialGradient cx="0" cy="0" gradientTransform="matrix(0.0015, 0.0, 0.0, 0.0015, 4.25, 2.9)" gradientUnits="userSpaceOnUse" id="gradient11" r="819.2" spreadMethod="pad">
      <stop offset="0.21176470588235294" stop-color="#cccccc"/>
      <stop offset="0.5176470588235295" stop-color="#999999"/>
      <stop offset="0.6313725490196078" stop-color="#b3a38a"/>
      <stop offset="0.7686274509803922" stop-color="#999999"/>
      <stop offset="1.0" stop-color="#000000"/>
    </radialGradient>
    <radialGradient cx="0" cy="0" gradientTransform="matrix(0.0015, 0.0, 0.0, 0.0015, 2.25, 5.7)" gradientUnits="userSpaceOnUse" id="gradient12" r="819.2" spreadMethod="pad">
      <stop offset="0.21176470588235294" stop-color="#cccccc"/>
      <stop offset="0.5176470588235295" stop-color="#999999"/>
      <stop offset="0.6313725490196078" stop-color="#b3a38a"/>
      <stop offset="0.7686274509803922" stop-color="#999999"/>
      <stop offset="1.0" stop-color="#000000"/>
    </radialGradient>
    <radialGradient cx="0" cy="0" gradientTransform="matrix(0.0015, 0.0, 0.0, 0.0015, 0.6, 8.9)" gradientUnits="userSpaceOnUse" id="gradient13" r="819.2" spreadMethod="pad">
      <stop offset="0.21176470588235294" stop-color="#cccccc"/>
      <stop offset="0.5176470588235295" stop-color="#999999"/>
      <stop offset="0.6313725490196078" stop-color="#b3a38a"/>
      <stop offset="0.7686274509803922" stop-color="#999999"/>
      <stop offset="1.0" stop-color="#000000"/>
    </radialGradient>
    <radialGradient cx="0" cy="0" gradientTransform="matrix(0.0016, 0.0, 0.0, 0.0016, 0.25, 12.55)" gradientUnits="userSpaceOnUse" id="gradient14" r="819.2" spreadMethod="pad">
      <stop offset="0.21176470588235294" stop-color="#cccccc"/>
      <stop offset="0.5176470588235295" stop-color="#999999"/>
      <stop offset="0.6313725490196078" stop-color="#b3a38a"/>
      <stop offset="0.7686274509803922" stop-color="#999999"/>
      <stop offset="1.0" stop-color="#000000"/>
    </radialGradient>
    <radialGradient cx="0" cy="0" gradientTransform="matrix(0.0016, 0.0, 0.0, 0.0016, 0.5, 16.0)" gradientUnits="userSpaceOnUse" id="gradient15" r="819.2" spreadMethod="pad">
      <stop offset="0.21176470588235294" stop-color="#cccccc"/>
      <stop offset="0.5176470588235295" stop-color="#999999"/>
      <stop offset="0.6313725490196078" stop-color="#b3a38a"/>
      <stop offset="0.7686274509803922" stop-color="#999999"/>
      <stop offset="1.0" stop-color="#000000"/>
    </radialGradient>
    <radialGradient cx="0" cy="0" gradientTransform="matrix(0.0016, 0.0, 0.0, 0.0016, 1.3, 19.0)" gradientUnits="userSpaceOnUse" id="gradient16" r="819.2" spreadMethod="pad">
      <stop offset="0.21176470588235294" stop-color="#cccccc"/>
      <stop offset="0.5176470588235295" stop-color="#999999"/>
      <stop offset="0.6313725490196078" stop-color="#b3a38a"/>
      <stop offset="0.7686274509803922" stop-color="#999999"/>
      <stop offset="1.0" stop-color="#000000"/>
    </radialGradient>
    <radialGradient cx="0" cy="0" gradientTransform="matrix(0.0015, 0.0, 0.0, 0.0015, 2.25, 21.5)" gradientUnits="userSpaceOnUse" id="gradient17" r="819.2" spreadMethod="pad">
      <stop offset="0.21176470588235294" stop-color="#cccccc"/>
      <stop offset="0.5176470588235295" stop-color="#999999"/>
      <stop offset="0.6313725490196078" stop-color="#b3a38a"/>
      <stop offset="0.7686274509803922" stop-color="#999999"/>
      <stop offset="1.0" stop-color="#000000"/>
    </radialGradient>
    <radialGradient cx="0" cy="0" gradientTransform="matrix(0.0015, 0.0, 0.0, 0.0015, 3.5, 23.95)" gradientUnits="userSpaceOnUse" id="gradient18" r="819.2" spreadMethod="pad">
      <stop offset="0.21176470588235294" stop-color="#cccccc"/>
      <stop offset="0.5176470588235295" stop-color="#999999"/>
      <stop offset="0.6313725490196078" stop-color="#b3a38a"/>
      <stop offset="0.7686274509803922" stop-color="#999999"/>
      <stop offset="1.0" stop-color="#000000"/>
    </radialGradient>
    <radialGradient cx="0" cy="0" gradientTransform="matrix(0.0015, 0.0, 0.0, 0.0015, 19.2, 21.9)" gradientUnits="userSpaceOnUse" id="gradient19" r="819.2" spreadMethod="pad">
      <stop offset="0.21176470588235294" stop-color="#cccccc"/>
      <stop offset="0.5176470588235295" stop-color="#999999"/>
      <stop offset="0.6313725490196078" stop-color="#b3a38a"/>
      <stop offset="0.7686274509803922" stop-color="#999999"/>
      <stop offset="1.0" stop-color="#000000"/>
    </radialGradient>
    <radialGradient cx="0" cy="0" gradientTransform="matrix(0.0016, 0.0, 0.0, 0.0016, 17.9, 24.65)" gradientUnits="userSpaceOnUse" id="gradient20" r="819.2" spreadMethod="pad">
      <stop offset="0.21176470588235294" stop-color="#cccccc"/>
      <stop offset="0.5176470588235295" stop-color="#999999"/>
      <stop offset="0.6313725490196078" stop-color="#b3a38a"/>
      <stop offset="0.7686274509803922" stop-color="#999999"/>
      <stop offset="1.0" stop-color="#000000"/>
    </radialGradient>
    <radialGradient cx="0" cy="0" gradientTransform="matrix(0.0016, 0.0, 0.0, 0.0016, 16.3, 27.1)" gradientUnits="userSpaceOnUse" id="gradient21" r="819.2" spreadMethod="pad">
      <stop offset="0.21176470588235294" stop-color="#cccccc"/>
      <stop offset="0.5176470588235295" stop-color="#999999"/>
      <stop offset="0.6313725490196078" stop-color="#b3a38a"/>
      <stop offset="0.7686274509803922" stop-color="#999999"/>
      <stop offset="1.0" stop-color="#000000"/>
    </radialGradient>
    <radialGradient cx="0" cy="0" gradientTransform="matrix(0.0015, 0.0, 0.0, 0.0015, 12.05, 30.55)" gradientUnits="userSpaceOnUse" id="gradient22" r="819.2" spreadMethod="pad">
      <stop offset="0.21176470588235294" stop-color="#cccccc"/>
      <stop offset="0.5176470588235295" stop-color="#999999"/>
      <stop offset="0.6313725490196078" stop-color="#b3a38a"/>
      <stop offset="0.7686274509803922" stop-color="#999999"/>
      <stop offset="1.0" stop-color="#000000"/>
    </radialGradient>
    <radialGradient cx="0" cy="0" gradientTransform="matrix(0.0016, 0.0, 0.0, 0.0016, 14.35, 29.4)" gradientUnits="userSpaceOnUse" id="gradient23" r="819.2" spreadMethod="pad">
      <stop offset="0.21176470588235294" stop-color="#cccccc"/>
      <stop offset="0.5176470588235295" stop-color="#999999"/>
      <stop offset="0.6313725490196078" stop-color="#b3a38a"/>
      <stop offset="0.7686274509803922" stop-color="#999999"/>
      <stop offset="1.0" stop-color="#000000"/>
    </radialGradient>
    <radialGradient cx="0" cy="0" gradientTransform="matrix(0.0015, 0.0, 0.0, 0.0015, 4.65, 26.0)" gradientUnits="userSpaceOnUse" id="gradient24" r="819.2" spreadMethod="pad">
      <stop offset="0.21176470588235294" stop-color="#cccccc"/>
      <stop offset="0.5176470588235295" stop-color="#999999"/>
      <stop offset="0.6313725490196078" stop-color="#b3a38a"/>
      <stop offset="0.7686274509803922" stop-color="#999999"/>
      <stop offset="1.0" stop-color="#000000"/>
    </radialGradient>
    <radialGradient cx="0" cy="0" gradientTransform="matrix(0.0015, 0.0, 0.0, 0.0015, 6.4, 28.1)" gradientUnits="userSpaceOnUse" id="gradient25" r="819.2" spreadMethod="pad">
      <stop offset="0.21176470588235294" stop-color="#cccccc"/>
      <stop offset="0.5176470588235295" stop-color="#999999"/>
      <stop offset="0.6313725490196078" stop-color="#b3a38a"/>
      <stop offset="0.7686274509803922" stop-color="#999999"/>
      <stop offset="1.0" stop-color="#000000"/>
    </radialGradient>
    <radialGradient cx="0" cy="0" gradientTransform="matrix(0.0015, 0.0, 0.0, 0.0015, 8.7, 30.15)" gradientUnits="userSpaceOnUse" id="gradient26" r="819.2" spreadMethod="pad">
      <stop offset="0.21176470588235294" stop-color="#cccccc"/>
      <stop offset="0.5176470588235295" stop-color="#999999"/>
      <stop offset="0.6313725490196078" stop-color="#b3a38a"/>
      <stop offset="0.7686274509803922" stop-color="#999999"/>
      <stop offset="1.0" stop-color="#000000"/>
    </radialGradient>
    <radialGradient cx="0" cy="0" gradientTransform="matrix(0.0274, 0.0, 0.0, 0.0329, 4.1, 5.8)" gradientUnits="userSpaceOnUse" id="gradient27" r="819.2" spreadMethod="pad">
      <stop offset="0.0" stop-color="#ffffff" stop-opacity="0.8"/>
      <stop offset="0.3686274509803922" stop-color="#ffffff" stop-opacity="0.28235295"/>
      <stop offset="1.0" stop-color="#ffffff" stop-opacity="0.0"/>
    </radialGradient>
    <radialGradient cx="0" cy="0" gradientTransform="matrix(0.0274, 0.0, 0.0, 0.0275, 4.1, 7.0)" gradientUnits="userSpaceOnUse" id="gradient28" r="819.2" spreadMethod="pad">
      <stop offset="0.0" stop-color="#ffffff" stop-opacity="0.8"/>
      <stop offset="0.3686274509803922" stop-color="#ffffff" stop-opacity="0.28235295"/>
      <stop offset="1.0" stop-color="#ffffff" stop-opacity="0.0"/>
    </radialGradient>
  </defs>
</svg>
