<?xml version="1.0" encoding="UTF-8" standalone="no"?>
<svg xmlns:xlink="http://www.w3.org/1999/xlink" height="41.9px" width="29.9px" xmlns="http://www.w3.org/2000/svg">
  <g transform="matrix(1.0, 0.0, 0.0, 1.0, 1.85, 2.1)">
    <path d="M28.05 15.2 L28.05 15.3 Q28.05 19.3 25.9 24.6 24.0 29.05 21.5 32.55 L19.25 35.5 17.15 37.4 Q15.55 38.35 13.65 38.85 13.4 38.85 13.55 39.05 L13.9 39.4 Q14.35 39.8 13.15 39.8 11.7 39.8 12.1 39.35 L12.4 39.0 Q12.55 38.8 12.35 38.75 10.4 38.4 9.15 37.7 L7.2 36.25 5.1 33.65 Q2.55 30.15 0.5 25.1 -1.85 19.3 -1.85 15.3 L-1.85 15.2 Q-1.85 8.05 2.5 3.0 6.9 -2.1 13.1 -2.1 19.3 -2.1 23.65 3.0 28.0 8.05 28.05 15.2" fill="url(#gradient0)" fill-rule="evenodd" stroke="none"/>
    <path d="M28.05 15.2 L28.05 15.3 28.0 16.15 28.0 16.6 27.5 20.1 Q26.9 23.2 25.9 25.2 24.6 27.6 21.5 31.9 L19.35 34.9 17.3 36.9 15.1 37.85 13.65 38.2 Q13.4 38.25 13.55 38.4 L13.9 38.75 Q14.35 39.15 13.15 39.15 11.7 39.15 12.1 38.7 L12.4 38.4 Q12.55 38.2 12.35 38.15 L11.05 37.95 9.15 37.35 Q8.15 36.85 7.25 35.8 L5.1 33.05 Q2.05 28.85 0.5 25.75 -0.6 23.55 -1.25 20.3 L-1.8 16.6 -1.8 16.15 -1.85 15.3 -1.85 15.2 Q-1.85 8.05 2.5 3.0 6.9 -2.1 13.1 -2.1 19.3 -2.1 23.65 3.0 28.0 8.05 28.05 15.2" fill="url(#gradient1)" fill-rule="evenodd" stroke="none"/>
  </g>
  <defs>
    <radialGradient cx="0" cy="0" gradientTransform="matrix(0.0447, 0.0, 0.0, 0.0447, 3.1, 5.05)" gradientUnits="userSpaceOnUse" id="gradient0" r="819.2" spreadMethod="pad">
      <stop offset="0.0" stop-color="#ff0000"/>
      <stop offset="0.1450980392156863" stop-color="#ff9900"/>
      <stop offset="0.3686274509803922" stop-color="#ffff00"/>
      <stop offset="0.5490196078431373" stop-color="#00cc00"/>
      <stop offset="0.7137254901960784" stop-color="#004fda"/>
      <stop offset="0.8588235294117647" stop-color="#6633cc"/>
      <stop offset="1.0" stop-color="#660099"/>
    </radialGradient>
    <radialGradient cx="0" cy="0" gradientTransform="matrix(0.0366, 0.0, 0.0, 0.0366, 19.25, 10.2)" gradientUnits="userSpaceOnUse" id="gradient1" r="819.2" spreadMethod="pad">
      <stop offset="0.0" stop-color="#ffffff" stop-opacity="0.8"/>
      <stop offset="0.3686274509803922" stop-color="#ffffff" stop-opacity="0.28235295"/>
      <stop offset="1.0" stop-color="#ffffff" stop-opacity="0.0"/>
    </radialGradient>
  </defs>
</svg>
