<?xml version="1.0" encoding="UTF-8" standalone="no"?>
<svg xmlns:xlink="http://www.w3.org/1999/xlink" height="34.85px" width="24.85px" xmlns="http://www.w3.org/2000/svg">
  <g transform="matrix(1.0, 0.0, 0.0, 1.0, 1.45, 1.5)">
    <path d="M23.4 12.9 L23.4 13.0 Q23.4 16.3 21.6 20.7 20.05 24.45 18.0 27.35 L16.1 29.8 14.35 31.35 Q13.05 32.15 11.45 32.55 11.25 32.6 11.35 32.75 L11.65 33.05 Q12.0 33.35 11.0 33.35 9.8 33.35 10.15 33.0 L10.4 32.7 10.35 32.5 7.7 31.65 6.05 30.45 4.3 28.25 Q2.2 25.35 0.5 21.15 -1.45 16.3 -1.45 13.0 L-1.45 12.9 23.4 12.9" fill="url(#gradient0)" fill-rule="evenodd" stroke="none"/>
    <path d="M-1.45 12.9 Q-1.45 6.95 2.2 2.75 5.8 -1.5 11.0 -1.5 16.1 -1.5 19.75 2.75 23.35 6.95 23.4 12.9 L-1.45 12.9" fill="url(#gradient1)" fill-rule="evenodd" stroke="none"/>
    <path d="M23.4 12.9 L23.4 13.0 23.4 13.7 23.35 14.05 22.95 17.0 Q22.45 19.55 21.6 21.2 L18.0 26.8 16.2 29.3 14.45 30.95 12.65 31.75 11.45 32.05 Q11.25 32.05 11.35 32.2 L11.65 32.5 Q12.0 32.8 11.0 32.85 9.8 32.85 10.15 32.45 L10.4 32.2 10.35 32.0 9.25 31.85 7.7 31.35 6.1 30.05 4.3 27.75 Q1.8 24.25 0.5 21.7 -0.4 19.85 -0.95 17.15 L-1.4 14.05 -1.4 13.7 -1.45 13.0 -1.45 12.9 23.4 12.9" fill="url(#gradient2)" fill-rule="evenodd" stroke="none"/>
    <path d="M-1.45 12.9 Q-1.45 6.95 2.2 2.75 5.8 -1.5 11.0 -1.5 16.1 -1.5 19.75 2.75 23.35 6.95 23.4 12.9 L-1.45 12.9" fill="url(#gradient3)" fill-rule="evenodd" stroke="none"/>
  </g>
  <defs>
    <linearGradient gradientTransform="matrix(0.0152, 0.0, 0.0, 0.0217, 11.0, 13.4)" gradientUnits="userSpaceOnUse" id="gradient0" spreadMethod="pad" x1="-819.2" x2="819.2">
      <stop offset="0.0" stop-color="#0099ff"/>
      <stop offset="1.0" stop-color="#0033cc"/>
    </linearGradient>
    <linearGradient gradientTransform="matrix(0.0152, 0.0, 0.0, 0.0181, 11.0, 13.35)" gradientUnits="userSpaceOnUse" id="gradient1" spreadMethod="pad" x1="-819.2" x2="819.2">
      <stop offset="0.0" stop-color="#0099ff"/>
      <stop offset="1.0" stop-color="#0033cc"/>
    </linearGradient>
    <radialGradient cx="0" cy="0" gradientTransform="matrix(0.0274, 0.0, 0.0, 0.0329, 4.1, 5.8)" gradientUnits="userSpaceOnUse" id="gradient2" r="819.2" spreadMethod="pad">
      <stop offset="0.0" stop-color="#ffffff" stop-opacity="0.8"/>
      <stop offset="0.3686274509803922" stop-color="#ffffff" stop-opacity="0.28235295"/>
      <stop offset="1.0" stop-color="#ffffff" stop-opacity="0.0"/>
    </radialGradient>
    <radialGradient cx="0" cy="0" gradientTransform="matrix(0.0274, 0.0, 0.0, 0.0275, 4.1, 7.0)" gradientUnits="userSpaceOnUse" id="gradient3" r="819.2" spreadMethod="pad">
      <stop offset="0.0" stop-color="#ffffff" stop-opacity="0.8"/>
      <stop offset="0.3686274509803922" stop-color="#ffffff" stop-opacity="0.28235295"/>
      <stop offset="1.0" stop-color="#ffffff" stop-opacity="0.0"/>
    </radialGradient>
  </defs>
</svg>
