<?xml version="1.0" encoding="UTF-8" standalone="no"?>
<svg xmlns:xlink="http://www.w3.org/1999/xlink" height="39.05px" width="27.85px" xmlns="http://www.w3.org/2000/svg">
  <g transform="matrix(1.0, 0.0, 0.0, 1.0, 2.85, 3.45)">
    <path d="M25.0 12.65 L25.0 12.75 Q25.0 16.45 23.0 21.4 21.25 25.55 18.9 28.85 L16.85 31.6 14.85 33.35 Q13.35 34.25 11.55 34.7 11.35 34.75 11.5 34.9 L11.85 35.2 Q12.2 35.6 11.1 35.6 9.75 35.6 10.1 35.2 L10.45 34.85 10.35 34.65 Q8.55 34.35 7.4 33.65 L5.55 32.3 3.6 29.9 Q1.25 26.65 -0.65 21.95 -2.85 16.5 -2.85 12.75 L-2.85 12.65 25.0 12.65" fill="url(#gradient0)" fill-rule="evenodd" stroke="none"/>
    <path d="M-2.85 12.65 Q-2.85 6.0 1.2 1.25 5.3 -3.5 11.05 -3.45 16.8 -3.5 20.9 1.25 24.95 6.0 25.0 12.65 L-2.85 12.65" fill="url(#gradient1)" fill-rule="evenodd" stroke="none"/>
    <path d="M25.0 12.65 L25.0 12.75 24.95 13.55 24.95 13.95 24.5 17.25 Q23.9 20.15 23.0 21.95 L18.9 28.25 16.9 31.05 14.95 32.85 12.95 33.75 11.55 34.1 Q11.35 34.15 11.5 34.3 L11.85 34.6 Q12.2 35.0 11.1 35.0 9.75 35.0 10.1 34.6 L10.45 34.3 10.35 34.05 9.15 33.9 Q8.1 33.7 7.4 33.35 L5.6 31.9 3.6 29.3 Q0.8 25.4 -0.65 22.5 -1.65 20.45 -2.25 17.4 L-2.75 13.95 -2.8 13.55 -2.85 12.75 -2.85 12.65 25.0 12.65" fill="url(#gradient2)" fill-rule="evenodd" stroke="none"/>
    <path d="M-2.85 12.65 Q-2.85 6.0 1.2 1.25 5.3 -3.5 11.05 -3.45 16.8 -3.5 20.9 1.25 24.95 6.0 25.0 12.65 L-2.85 12.65" fill="url(#gradient3)" fill-rule="evenodd" stroke="none"/>
  </g>
  <defs>
    <linearGradient gradientTransform="matrix(0.017, 0.0, 0.0, 0.0244, 11.1, 13.3)" gradientUnits="userSpaceOnUse" id="gradient0" spreadMethod="pad" x1="-819.2" x2="819.2">
      <stop offset="0.0" stop-color="#00ff00"/>
      <stop offset="1.0" stop-color="#006600"/>
    </linearGradient>
    <linearGradient gradientTransform="matrix(0.017, 0.0, 0.0, 0.0203, 11.1, 13.2)" gradientUnits="userSpaceOnUse" id="gradient1" spreadMethod="pad" x1="-819.2" x2="819.2">
      <stop offset="0.0" stop-color="#00ff00"/>
      <stop offset="1.0" stop-color="#006600"/>
    </linearGradient>
    <radialGradient cx="0" cy="0" gradientTransform="matrix(0.0307, 0.0, 0.0, 0.0368, 3.35, 4.75)" gradientUnits="userSpaceOnUse" id="gradient2" r="819.2" spreadMethod="pad">
      <stop offset="0.0" stop-color="#ffffff" stop-opacity="0.8"/>
      <stop offset="0.3686274509803922" stop-color="#ffffff" stop-opacity="0.28235295"/>
      <stop offset="1.0" stop-color="#ffffff" stop-opacity="0.0"/>
    </radialGradient>
    <radialGradient cx="0" cy="0" gradientTransform="matrix(0.0307, 0.0, 0.0, 0.0308, 3.35, 6.0)" gradientUnits="userSpaceOnUse" id="gradient3" r="819.2" spreadMethod="pad">
      <stop offset="0.0" stop-color="#ffffff" stop-opacity="0.8"/>
      <stop offset="0.3686274509803922" stop-color="#ffffff" stop-opacity="0.28235295"/>
      <stop offset="1.0" stop-color="#ffffff" stop-opacity="0.0"/>
    </radialGradient>
  </defs>
</svg>
