<?xml version="1.0" encoding="UTF-8" standalone="no"?>
<svg xmlns:xlink="http://www.w3.org/1999/xlink" height="35.1px" width="25.1px" xmlns="http://www.w3.org/2000/svg">
  <g transform="matrix(1.0, 0.0, 0.0, 1.0, 0.0, 0.15)">
    <path d="M24.8 11.6 L24.8 11.65 25.0 14.4 25.0 14.5 Q25.0 17.8 23.2 22.25 21.65 26.0 19.55 28.9 L17.7 31.35 15.9 32.95 Q14.55 33.75 12.95 34.15 12.8 34.2 12.9 34.35 L13.2 34.6 Q13.55 34.95 12.55 34.95 11.35 34.95 11.65 34.6 L11.95 34.3 11.9 34.1 Q10.25 33.8 9.2 33.25 L7.55 32.0 5.8 29.85 Q3.7 26.95 2.0 22.7 0.0 17.85 0.0 14.5 L0.0 14.4 0.1 12.9 0.2 12.95 0.45 12.8 1.75 10.85 2.55 9.7 3.25 8.9 3.3 8.85 3.55 8.6 Q4.05 8.15 4.55 8.2 4.95 8.15 5.35 8.55 L5.65 9.4 5.65 9.45 5.75 10.65 5.75 10.7 Q5.95 12.4 7.1 12.4 L7.15 12.4 7.3 12.35 Q7.75 11.8 8.5 8.9 L9.05 6.75 Q9.2 6.2 9.3 6.2 L9.35 6.15 9.45 6.25 9.55 6.85 9.6 8.45 9.6 8.55 9.6 8.6 9.6 11.65 9.6 11.7 9.75 13.75 9.85 14.45 Q10.2 15.65 10.95 15.8 L11.05 15.8 11.3 15.7 11.9 14.45 12.8 11.1 13.65 7.7 Q14.0 6.4 14.3 6.2 14.35 6.1 14.45 6.1 15.0 6.15 15.25 7.65 L15.35 10.95 15.35 11.0 15.45 14.2 15.45 14.25 15.55 14.8 Q15.65 15.45 16.0 15.45 L16.15 15.4 16.3 15.3 16.65 14.35 16.65 14.3 16.65 12.35 16.65 12.3 16.6 10.3 16.6 10.25 16.65 9.8 17.05 8.9 17.1 8.85 Q17.25 8.7 17.4 8.7 17.9 8.75 18.65 10.05 L19.4 11.55 20.0 12.7 Q20.55 13.55 21.55 13.6 L21.6 13.6 21.7 13.6 23.35 13.1 24.15 12.5 24.65 11.85 24.8 11.6" fill="#f3fbfc" fill-opacity="0.6" fill-rule="evenodd" stroke="none"/>
    <path d="M12.5 -0.15 L14.05 -0.1 Q18.85 0.3 21.35 3.45 L22.75 5.2 23.7 6.55 Q24.5 7.8 25.1 10.2 25.2 10.8 24.9 11.55 L24.85 11.65 24.85 11.6 24.7 11.85 24.2 12.5 23.4 13.15 Q22.55 13.65 21.75 13.65 L21.65 13.65 21.6 13.65 Q20.65 13.55 20.1 12.7 L19.5 11.55 18.7 10.05 Q17.95 8.65 17.45 8.65 17.25 8.65 17.15 8.8 L17.1 8.85 16.7 9.75 16.65 10.25 16.65 10.3 16.7 12.3 16.7 12.35 16.7 14.3 16.7 14.35 16.35 15.35 16.15 15.45 16.0 15.5 Q15.75 15.45 15.6 14.9 L15.5 14.3 15.5 14.25 Q15.4 13.5 15.45 11.05 L15.45 11.0 15.3 7.65 15.3 7.6 Q15.1 6.05 14.5 6.05 L14.35 6.15 Q14.05 6.35 13.7 7.65 L12.85 11.1 11.95 14.45 11.35 15.75 11.05 15.85 Q10.25 15.7 9.95 14.45 L9.8 13.8 9.65 11.75 9.65 11.7 9.7 8.6 9.7 8.55 9.7 8.45 9.6 6.85 9.5 6.2 9.4 6.05 9.35 6.1 9.1 6.65 8.5 8.9 Q7.75 11.85 7.3 12.35 L7.2 12.4 7.15 12.4 Q6.0 12.35 5.8 10.7 L5.7 9.45 5.7 9.4 5.4 8.5 Q5.0 8.1 4.55 8.15 4.05 8.1 3.55 8.55 L3.3 8.8 3.25 8.85 2.55 9.65 1.75 10.8 0.45 12.8 0.2 13.0 0.15 12.95 Q0.0 12.8 0.0 12.25 0.0 7.1 3.65 3.45 6.8 0.35 11.05 -0.1 L12.5 -0.15" fill="#ffffff" fill-opacity="0.9490196" fill-rule="evenodd" stroke="none"/>
  </g>
</svg>
