<?xml version="1.0" encoding="UTF-8" standalone="no"?>
<svg xmlns:xlink="http://www.w3.org/1999/xlink" height="31.0px" width="22.2px" xmlns="http://www.w3.org/2000/svg">
  <g transform="matrix(1.0, 0.0, 0.0, 1.0, 0.0, 0.0)">
    <path d="M0.0 13.25 L0.0 12.95 Q0.0 7.55 3.3 3.8 6.55 0.0 11.1 0.0 15.75 0.0 18.95 3.8 22.2 7.55 22.2 12.95 L22.2 13.25 0.0 13.25" fill="url(#gradient0)" fill-rule="evenodd" stroke="none"/>
    <path d="M22.2 13.25 Q22.15 14.85 21.7 16.65 L20.6 19.75 Q19.25 23.05 17.35 25.7 L15.75 27.8 14.15 29.25 Q12.95 29.95 11.5 30.35 11.4 30.35 11.45 30.5 L11.75 30.75 Q12.05 31.0 11.15 31.0 10.1 31.0 10.35 30.7 L10.6 30.45 10.6 30.25 Q9.1 30.05 8.2 29.5 L6.75 28.4 5.15 26.5 Q3.3 23.9 1.8 20.15 L0.6 16.65 Q0.05 14.8 0.0 13.25 L22.2 13.25" fill="url(#gradient1)" fill-rule="evenodd" stroke="none"/>
    <path d="M21.8 16.0 Q21.35 17.9 20.6 19.15 L17.35 23.35 15.75 25.2 14.2 26.4 12.6 26.95 11.5 27.2 Q11.4 27.25 11.45 27.35 L11.75 27.55 Q12.05 27.8 11.15 27.8 10.1 27.75 10.35 27.5 L10.6 27.35 10.6 27.2 9.55 27.05 Q8.75 26.95 8.2 26.65 7.45 26.35 6.75 25.75 L5.15 24.0 Q2.95 21.4 1.8 19.45 0.95 18.1 0.45 16.1 0.0 14.3 0.0 13.0 0.0 7.65 3.25 3.85 6.5 0.05 11.1 0.1 15.75 0.05 18.95 3.85 22.2 7.65 22.2 13.0 22.2 14.3 21.8 16.0" fill="url(#gradient2)" fill-rule="evenodd" stroke="none"/>
  </g>
  <defs>
    <linearGradient gradientTransform="matrix(0.0136, 0.0, 0.0, 0.0162, 11.1, 13.3)" gradientUnits="userSpaceOnUse" id="gradient0" spreadMethod="pad" x1="-819.2" x2="819.2">
      <stop offset="0.0" stop-color="#ff0000"/>
      <stop offset="1.0" stop-color="#990000"/>
    </linearGradient>
    <linearGradient gradientTransform="matrix(0.0136, 0.0, 0.0, 0.0194, 11.1, 13.3)" gradientUnits="userSpaceOnUse" id="gradient1" spreadMethod="pad" x1="-819.2" x2="819.2">
      <stop offset="0.0" stop-color="#ff0000"/>
      <stop offset="1.0" stop-color="#990000"/>
    </linearGradient>
    <radialGradient cx="0" cy="0" gradientTransform="matrix(0.0245, 0.0, 0.0, 0.0245, 5.0, 7.65)" gradientUnits="userSpaceOnUse" id="gradient2" r="819.2" spreadMethod="pad">
      <stop offset="0.0" stop-color="#ffffff" stop-opacity="0.8"/>
      <stop offset="0.3686274509803922" stop-color="#ffffff" stop-opacity="0.28235295"/>
      <stop offset="1.0" stop-color="#ffffff" stop-opacity="0.0"/>
    </radialGradient>
  </defs>
</svg>
