<?xml version="1.0" encoding="UTF-8" standalone="no"?>
<svg xmlns:xlink="http://www.w3.org/1999/xlink" height="22.5px" width="16.05px" xmlns="http://www.w3.org/2000/svg">
  <g transform="matrix(1.0, 0.0, 0.0, 1.0, -2.8, -3.5)">
    <path d="M2.85 12.8 Q2.85 8.95 5.15 6.25 7.5 3.5 10.85 3.5 14.15 3.5 16.5 6.25 18.8 8.95 18.85 12.8 L2.85 12.8" fill="url(#gradient0)" fill-rule="evenodd" stroke="none"/>
    <path d="M18.85 12.8 L18.85 12.85 Q18.8 14.95 17.65 17.8 16.65 20.2 15.35 22.1 L14.15 23.65 13.0 24.65 11.1 25.5 11.1 25.6 11.25 25.75 Q11.45 25.95 10.85 26.0 10.05 25.95 10.3 25.75 L10.45 25.55 10.45 25.45 8.7 24.9 7.65 24.1 6.55 22.7 Q5.2 20.85 4.1 18.15 2.8 15.0 2.85 12.85 L2.85 12.8 18.85 12.8" fill="url(#gradient1)" fill-rule="evenodd" stroke="none"/>
    <path d="M2.85 12.8 Q2.85 8.95 5.15 6.25 7.5 3.5 10.85 3.5 14.15 3.5 16.5 6.25 18.8 8.95 18.85 12.8 L2.85 12.8" fill="url(#gradient2)" fill-rule="evenodd" stroke="none"/>
    <path d="M18.85 12.8 L18.85 12.85 18.85 13.3 18.8 13.55 18.55 15.45 Q18.2 17.1 17.65 18.15 L15.35 21.75 14.2 23.35 13.05 24.4 11.9 24.95 11.1 25.15 11.1 25.25 11.25 25.4 Q11.5 25.6 10.85 25.65 10.05 25.6 10.3 25.4 L10.45 25.2 10.45 25.1 9.7 25.0 8.7 24.65 7.7 23.85 6.55 22.35 Q4.9 20.1 4.1 18.45 3.5 17.25 3.15 15.5 L2.85 13.55 2.85 13.3 2.85 12.85 2.85 12.8 18.85 12.8" fill="url(#gradient3)" fill-rule="evenodd" stroke="none"/>
  </g>
  <defs>
    <linearGradient gradientTransform="matrix(0.0098, 0.0, 0.0, 0.0117, 10.85, 13.1)" gradientUnits="userSpaceOnUse" id="gradient0" spreadMethod="pad" x1="-819.2" x2="819.2">
      <stop offset="0.0" stop-color="#ffffff"/>
      <stop offset="1.0" stop-color="#cccccc"/>
      <stop offset="1.0" stop-color="#0638ca"/>
    </linearGradient>
    <linearGradient gradientTransform="matrix(0.0098, 0.0, 0.0, 0.014, 10.85, 13.15)" gradientUnits="userSpaceOnUse" id="gradient1" spreadMethod="pad" x1="-819.2" x2="819.2">
      <stop offset="0.0" stop-color="#ffffff"/>
      <stop offset="1.0" stop-color="#cccccc"/>
      <stop offset="1.0" stop-color="#0638ca"/>
    </linearGradient>
    <radialGradient cx="0" cy="0" gradientTransform="matrix(0.0176, 0.0, 0.0, 0.0177, 6.4, 8.95)" gradientUnits="userSpaceOnUse" id="gradient2" r="819.2" spreadMethod="pad">
      <stop offset="0.0" stop-color="#ffffff" stop-opacity="0.8"/>
      <stop offset="0.3686274509803922" stop-color="#ffffff" stop-opacity="0.28235295"/>
      <stop offset="1.0" stop-color="#ffffff" stop-opacity="0.0"/>
    </radialGradient>
    <radialGradient cx="0" cy="0" gradientTransform="matrix(0.0176, 0.0, 0.0, 0.0212, 6.4, 8.25)" gradientUnits="userSpaceOnUse" id="gradient3" r="819.2" spreadMethod="pad">
      <stop offset="0.0" stop-color="#ffffff" stop-opacity="0.8"/>
      <stop offset="0.3686274509803922" stop-color="#ffffff" stop-opacity="0.28235295"/>
      <stop offset="1.0" stop-color="#ffffff" stop-opacity="0.0"/>
    </radialGradient>
  </defs>
</svg>
