<?xml version="1.0" encoding="UTF-8" standalone="no"?>
<svg xmlns:xlink="http://www.w3.org/1999/xlink" height="43.3px" width="30.85px" xmlns="http://www.w3.org/2000/svg">
  <g transform="matrix(1.0, 0.0, 0.0, 1.0, 4.2, 5.4)">
    <path d="M26.65 12.5 L26.65 12.6 Q26.6 16.7 24.4 22.15 22.45 26.75 19.95 30.4 L17.6 33.45 15.45 35.4 Q13.75 36.35 11.8 36.95 11.5 36.95 11.7 37.15 L12.05 37.5 Q12.5 37.9 11.25 37.9 9.75 37.9 10.2 37.4 L10.55 37.05 10.45 36.85 Q8.4 36.5 7.15 35.75 L5.15 34.25 2.95 31.55 Q0.35 27.95 -1.75 22.8 -4.2 16.7 -4.2 12.6 L-4.2 12.5 26.65 12.5" fill="url(#gradient0)" fill-rule="evenodd" stroke="none"/>
    <path d="M-4.2 12.5 Q-4.2 5.15 0.3 -0.15 4.8 -5.4 11.25 -5.4 17.6 -5.4 22.1 -0.15 26.6 5.15 26.65 12.5 L-4.2 12.5" fill="url(#gradient1)" fill-rule="evenodd" stroke="none"/>
    <path d="M26.65 12.5 L26.65 12.6 26.6 13.45 26.6 13.95 26.1 17.6 Q25.4 20.75 24.4 22.8 23.1 25.3 19.95 29.8 L17.7 32.85 15.5 34.85 13.35 35.9 11.8 36.25 Q11.5 36.3 11.7 36.45 L12.05 36.8 Q12.5 37.2 11.25 37.2 9.75 37.2 10.2 36.8 L10.55 36.45 10.45 36.15 9.05 36.0 Q7.95 35.8 7.15 35.4 6.1 34.85 5.2 33.8 L2.95 30.9 Q-0.2 26.65 -1.75 23.4 -2.85 21.1 -3.55 17.75 L-4.15 13.95 -4.15 13.45 -4.2 12.6 -4.2 12.5 26.65 12.5" fill="url(#gradient2)" fill-rule="evenodd" stroke="none"/>
    <path d="M-4.2 12.5 Q-4.2 5.15 0.3 -0.15 4.8 -5.4 11.25 -5.4 17.6 -5.4 22.1 -0.15 26.6 5.15 26.65 12.5 L-4.2 12.5" fill="url(#gradient3)" fill-rule="evenodd" stroke="none"/>
  </g>
  <defs>
    <linearGradient gradientTransform="matrix(0.0188, 0.0, 0.0, 0.027, 11.25, 13.2)" gradientUnits="userSpaceOnUse" id="gradient0" spreadMethod="pad" x1="-819.2" x2="819.2">
      <stop offset="0.0" stop-color="#ffff00"/>
      <stop offset="1.0" stop-color="#ff9900"/>
    </linearGradient>
    <linearGradient gradientTransform="matrix(0.0188, 0.0, 0.0, 0.0225, 11.25, 13.1)" gradientUnits="userSpaceOnUse" id="gradient1" spreadMethod="pad" x1="-819.2" x2="819.2">
      <stop offset="0.0" stop-color="#ffff00"/>
      <stop offset="1.0" stop-color="#ff9900"/>
      <stop offset="1.0" stop-color="#0638ca"/>
    </linearGradient>
    <radialGradient cx="0" cy="0" gradientTransform="matrix(0.034, 0.0, 0.0, 0.0408, 2.65, 3.75)" gradientUnits="userSpaceOnUse" id="gradient2" r="819.2" spreadMethod="pad">
      <stop offset="0.0" stop-color="#ffffff" stop-opacity="0.8"/>
      <stop offset="0.3686274509803922" stop-color="#ffffff" stop-opacity="0.28235295"/>
      <stop offset="1.0" stop-color="#ffffff" stop-opacity="0.0"/>
    </radialGradient>
    <radialGradient cx="0" cy="0" gradientTransform="matrix(0.034, 0.0, 0.0, 0.0341, 2.65, 5.15)" gradientUnits="userSpaceOnUse" id="gradient3" r="819.2" spreadMethod="pad">
      <stop offset="0.0" stop-color="#ffffff" stop-opacity="0.8"/>
      <stop offset="0.3686274509803922" stop-color="#ffffff" stop-opacity="0.28235295"/>
      <stop offset="1.0" stop-color="#ffffff" stop-opacity="0.0"/>
    </radialGradient>
  </defs>
</svg>
