<?xml version="1.0" encoding="UTF-8" standalone="no"?>
<svg xmlns:xlink="http://www.w3.org/1999/xlink" height="27.6px" width="338.5px" xmlns="http://www.w3.org/2000/svg">
  <g transform="matrix(1.0, 0.0, 0.0, 1.0, 179.15, 107.0)">
    <path d="M84.55 -102.4 L84.55 -103.75 Q85.9 -104.85 87.95 -105.1 L91.5 -105.5 94.55 -105.45 97.1 -104.8 Q98.75 -104.35 99.7 -103.55 100.55 -102.25 100.55 -99.95 L100.5 -98.6 100.45 -96.7 100.1 -93.75 Q99.7 -91.85 99.65 -90.9 L98.6 -85.55 Q97.7 -82.55 95.4 -80.9 L91.45 -81.35 87.95 -82.05 Q85.9 -82.65 84.8 -84.05 84.25 -87.85 84.2 -98.3 L84.4 -100.4 84.55 -102.4 M86.0 -100.95 L86.0 -100.5 Q86.0 -99.85 85.1 -99.2 85.45 -99.1 85.8 -92.55 85.75 -87.85 86.2 -85.05 86.65 -84.5 87.65 -84.15 L89.65 -83.7 92.4 -83.2 94.75 -82.9 96.3 -84.55 Q97.2 -86.3 97.7 -89.15 L98.4 -94.15 98.85 -99.0 98.6 -101.9 98.05 -102.3 97.3 -102.7 94.75 -103.35 92.85 -103.5 Q86.0 -103.5 86.0 -101.45 L86.0 -100.95" fill="url(#gradient0)" fill-rule="evenodd" stroke="none"/>
    <path d="M86.0 -100.95 L86.0 -101.45 Q86.0 -103.5 92.85 -103.5 L94.75 -103.35 97.3 -102.7 98.05 -102.3 98.6 -101.9 98.85 -99.0 98.4 -94.15 97.7 -89.15 Q97.2 -86.3 96.3 -84.55 L94.75 -82.9 92.4 -83.2 89.65 -83.7 87.65 -84.15 Q86.65 -84.5 86.2 -85.05 85.75 -87.85 85.8 -92.55 85.45 -99.1 85.1 -99.2 86.0 -99.85 86.0 -100.5 L86.0 -100.95 M94.0 -102.0 Q92.75 -102.35 92.35 -101.4 92.75 -98.2 92.6 -93.55 92.8 -92.15 93.45 -91.85 95.1 -91.65 95.85 -92.45 96.4 -93.7 96.4 -95.05 L96.0 -98.05 95.35 -100.9 Q95.2 -101.5 94.0 -102.0" fill="url(#gradient1)" fill-rule="evenodd" stroke="none"/>
    <path d="M94.3 -99.6 Q93.9 -99.6 94.0 -99.35 L94.2 -98.5 94.2 -97.05 93.55 -94.3 94.4 -93.95 94.45 -93.95 94.75 -95.45 94.5 -97.3 94.2 -98.5 94.3 -99.6 M94.0 -102.0 Q95.2 -101.5 95.35 -100.9 L96.0 -98.05 96.4 -95.05 Q96.4 -93.7 95.85 -92.45 95.1 -91.65 93.45 -91.85 92.8 -92.15 92.6 -93.55 92.75 -98.2 92.35 -101.4 92.75 -102.35 94.0 -102.0" fill="url(#gradient2)" fill-rule="evenodd" stroke="none"/>
    <path d="M103.8 -101.15 Q103.25 -101.3 103.15 -101.95 103.1 -103.05 104.0 -103.35 L107.7 -104.1 111.85 -104.7 112.6 -103.0 112.95 -101.05 113.6 -97.05 Q114.05 -94.95 115.75 -94.1 L116.3 -93.4 116.2 -94.65 115.35 -100.45 115.05 -104.45 Q115.2 -105.0 115.9 -105.6 L117.45 -105.7 Q121.2 -105.7 125.0 -104.55 125.8 -103.85 125.85 -102.3 L125.85 -100.6 Q125.75 -98.65 126.05 -95.4 L126.35 -90.15 Q126.35 -87.5 125.8 -85.5 L125.55 -83.8 Q125.35 -82.85 124.75 -82.3 L122.65 -82.05 120.9 -81.6 119.95 -81.75 116.8 -84.55 Q114.8 -86.05 113.8 -87.35 L113.5 -82.85 Q112.95 -82.3 112.1 -82.2 L110.9 -81.95 108.75 -81.5 Q107.35 -81.2 106.5 -80.75 105.2 -80.85 104.95 -81.9 L104.45 -83.9 104.35 -88.95 104.05 -93.9 104.2 -96.75 104.35 -98.3 104.45 -99.85 104.4 -100.85 103.8 -101.15 M110.9 -102.2 L110.05 -102.3 108.2 -101.9 106.35 -101.45 Q106.05 -101.35 106.15 -100.2 105.85 -98.0 105.85 -95.15 L106.05 -89.7 106.15 -84.25 106.35 -83.55 106.45 -83.1 111.7 -84.3 111.95 -84.5 112.15 -90.4 112.55 -91.1 Q113.25 -91.4 113.85 -90.8 115.4 -87.75 118.4 -85.5 L119.6 -84.55 120.6 -83.9 123.7 -84.35 Q124.1 -85.05 124.35 -86.75 L124.85 -89.55 124.55 -94.35 Q124.25 -97.7 124.3 -99.8 L124.3 -101.4 Q124.4 -102.1 124.1 -102.4 122.45 -103.1 117.15 -103.45 L116.95 -103.0 Q116.95 -101.85 116.7 -102.05 L118.35 -90.25 Q117.9 -89.45 117.05 -89.55 L114.5 -92.4 112.3 -94.45 111.35 -99.6 111.2 -101.1 110.9 -102.2" fill="url(#gradient3)" fill-rule="evenodd" stroke="none"/>
    <path d="M110.9 -102.2 L111.2 -101.1 111.35 -99.6 112.3 -94.45 114.5 -92.4 117.05 -89.55 Q117.9 -89.45 118.35 -90.25 L116.7 -102.05 Q116.95 -101.85 116.95 -103.0 L117.15 -103.45 Q122.45 -103.1 124.1 -102.4 124.4 -102.1 124.3 -101.4 L124.3 -99.8 Q124.25 -97.7 124.55 -94.35 L124.85 -89.55 124.35 -86.75 Q124.1 -85.05 123.7 -84.35 L120.6 -83.9 119.6 -84.55 118.4 -85.5 Q115.4 -87.75 113.85 -90.8 113.25 -91.4 112.55 -91.1 L112.15 -90.4 111.95 -84.5 111.7 -84.3 106.45 -83.1 106.35 -83.55 106.15 -84.25 106.05 -89.7 105.85 -95.15 Q105.85 -98.0 106.15 -100.2 106.05 -101.35 106.35 -101.45 L108.2 -101.9 110.05 -102.3 110.9 -102.2" fill="url(#gradient4)" fill-rule="evenodd" stroke="none"/>
    <path d="M131.2 -106.6 L134.95 -106.8 136.7 -106.6 139.15 -106.8 141.5 -107.0 144.1 -106.55 Q144.9 -106.25 145.2 -105.35 L145.0 -104.15 145.2 -102.55 145.45 -100.9 145.2 -99.6 Q144.95 -98.75 144.3 -98.55 L142.35 -98.55 142.35 -97.8 Q142.55 -97.55 143.6 -97.2 144.65 -96.9 145.1 -96.1 145.85 -94.6 146.4 -92.45 L147.25 -88.55 147.6 -86.2 147.85 -83.75 Q147.85 -82.0 147.0 -80.7 145.6 -79.8 143.4 -79.55 L139.8 -79.55 137.95 -79.4 131.9 -80.15 130.9 -80.6 Q130.35 -80.85 130.2 -81.55 129.55 -84.4 129.55 -87.3 L129.7 -90.15 130.4 -91.3 132.95 -90.95 135.1 -90.5 135.1 -90.7 134.1 -91.35 132.65 -91.75 Q130.1 -92.2 129.4 -93.9 L129.2 -95.2 129.45 -96.85 129.65 -98.55 Q129.85 -101.1 130.6 -106.15 L131.2 -106.6 M135.55 -104.7 L133.85 -104.55 132.65 -104.35 Q132.15 -102.75 131.85 -99.65 L131.4 -94.7 131.55 -94.4 Q132.05 -94.0 133.4 -93.65 L135.95 -92.8 Q137.0 -92.2 137.15 -90.6 L137.0 -89.2 Q136.9 -88.45 136.15 -87.95 L133.65 -88.6 132.75 -88.7 132.1 -88.9 132.05 -88.9 Q131.7 -87.8 131.7 -86.25 131.7 -85.1 132.05 -82.45 132.25 -82.15 133.1 -82.05 L134.75 -81.75 137.4 -81.65 140.2 -81.5 Q143.0 -81.5 144.65 -82.1 145.4 -82.35 145.55 -83.05 L145.75 -84.7 Q145.45 -89.35 143.8 -94.8 143.65 -95.1 143.0 -95.2 141.85 -95.4 141.5 -95.7 140.45 -96.25 140.2 -97.7 L139.9 -100.2 Q140.45 -100.8 141.1 -100.8 L141.85 -100.75 142.5 -100.65 142.85 -100.7 Q143.1 -100.8 143.1 -101.25 L143.2 -102.4 143.05 -103.75 142.7 -104.8 Q141.9 -104.65 140.15 -104.8 L135.55 -104.7" fill="url(#gradient5)" fill-rule="evenodd" stroke="none"/>
    <path d="M135.55 -104.7 L140.15 -104.8 Q141.9 -104.65 142.7 -104.8 L143.05 -103.75 143.2 -102.4 143.1 -101.25 Q143.1 -100.8 142.85 -100.7 L142.5 -100.65 141.85 -100.75 141.1 -100.8 Q140.45 -100.8 139.9 -100.2 L140.2 -97.7 Q140.45 -96.25 141.5 -95.7 141.85 -95.4 143.0 -95.2 143.65 -95.1 143.8 -94.8 145.45 -89.35 145.75 -84.7 L145.55 -83.05 Q145.4 -82.35 144.65 -82.1 143.0 -81.5 140.2 -81.5 L137.4 -81.65 134.75 -81.75 133.1 -82.05 Q132.25 -82.15 132.05 -82.45 131.7 -85.1 131.7 -86.25 131.7 -87.8 132.05 -88.9 L132.1 -88.9 132.75 -88.7 133.65 -88.6 136.15 -87.95 Q136.9 -88.45 137.0 -89.2 L137.15 -90.6 Q137.0 -92.2 135.95 -92.8 L133.4 -93.65 Q132.05 -94.0 131.55 -94.4 L131.4 -94.7 131.85 -99.65 Q132.15 -102.75 132.65 -104.35 L133.85 -104.55 135.55 -104.7" fill="url(#gradient6)" fill-rule="evenodd" stroke="none"/>
    <path d="M150.65 -105.0 Q151.05 -105.7 151.65 -105.7 L152.2 -105.6 152.65 -105.5 152.95 -105.6 Q154.8 -105.8 158.1 -106.85 158.95 -106.95 159.3 -106.05 159.5 -103.8 158.95 -100.45 L158.25 -95.05 157.55 -90.85 Q157.1 -89.9 156.2 -89.75 L154.55 -89.5 151.7 -88.5 Q150.45 -88.5 150.5 -90.0 L150.45 -91.55 Q150.15 -93.05 150.15 -95.0 L150.25 -98.0 150.35 -101.05 150.65 -105.0 M152.55 -103.2 L152.35 -102.2 Q151.8 -95.05 152.25 -90.85 L152.4 -90.45 153.1 -91.05 154.65 -91.3 Q155.4 -91.3 155.7 -91.65 L156.2 -94.35 156.65 -97.1 Q156.6 -98.4 157.05 -100.8 157.5 -103.2 157.4 -104.45 L155.3 -104.1 152.75 -103.55 152.55 -103.2" fill="url(#gradient7)" fill-rule="evenodd" stroke="none"/>
    <path d="M152.55 -103.2 L152.75 -103.55 155.3 -104.1 157.4 -104.45 Q157.5 -103.2 157.05 -100.8 156.6 -98.4 156.65 -97.1 L156.2 -94.35 155.7 -91.65 Q155.4 -91.3 154.65 -91.3 L153.1 -91.05 152.4 -90.45 152.25 -90.85 Q151.8 -95.05 152.35 -102.2 L152.55 -103.2" fill="url(#gradient8)" fill-rule="evenodd" stroke="none"/>
    <path d="M4.7 -104.35 L5.9 -104.45 7.1 -104.55 8.4 -104.6 10.25 -104.2 Q11.05 -103.0 11.25 -101.05 L11.5 -97.65 11.8 -95.7 Q12.05 -94.6 12.4 -93.95 L12.65 -93.75 21.9 -93.65 Q22.45 -93.3 22.6 -92.25 22.4 -86.15 21.95 -83.1 21.9 -82.45 21.0 -82.25 15.4 -82.45 7.25 -81.95 L4.2 -81.8 Q3.4 -81.95 3.25 -82.85 L3.35 -87.35 3.45 -91.65 3.35 -94.2 3.25 -96.75 3.65 -100.15 3.9 -103.45 Q4.05 -104.25 4.7 -104.35 M6.95 -102.0 Q6.05 -102.0 5.7 -101.65 4.85 -97.45 5.0 -94.6 5.35 -88.45 5.0 -84.65 L5.2 -84.6 5.65 -84.55 10.15 -84.6 14.35 -84.75 17.5 -84.85 20.25 -84.8 20.4 -84.9 20.7 -87.8 Q21.35 -90.9 20.9 -90.9 L20.65 -90.95 11.85 -91.1 11.15 -91.6 Q10.2 -93.55 9.8 -96.5 L9.25 -101.6 8.9 -101.9 7.95 -101.95 6.95 -102.0" fill="url(#gradient9)" fill-rule="evenodd" stroke="none"/>
    <path d="M6.95 -102.0 L7.95 -101.95 8.9 -101.9 9.25 -101.6 9.8 -96.5 Q10.2 -93.55 11.15 -91.6 L11.85 -91.1 20.65 -90.95 20.9 -90.9 Q21.35 -90.9 20.7 -87.8 L20.4 -84.9 20.25 -84.8 17.5 -84.85 14.35 -84.75 10.15 -84.6 5.65 -84.55 5.2 -84.6 5.0 -84.65 Q5.35 -88.45 5.0 -94.6 4.85 -97.45 5.7 -101.65 6.05 -102.0 6.95 -102.0" fill="url(#gradient10)" fill-rule="evenodd" stroke="none"/>
    <path d="M39.45 -103.9 L43.4 -103.7 44.45 -103.65 Q45.35 -102.95 45.5 -101.65 L45.7 -99.5 45.25 -85.6 45.05 -84.1 Q44.8 -83.35 44.1 -82.9 L37.9 -82.45 Q37.45 -82.4 37.0 -83.2 36.7 -84.9 36.9 -88.05 L36.35 -88.15 35.2 -87.95 Q35.05 -87.85 35.15 -87.3 34.75 -85.05 35.15 -84.85 35.55 -83.55 34.6 -82.85 L33.3 -82.7 31.55 -82.85 29.85 -83.0 27.8 -83.0 26.45 -82.45 26.35 -86.15 Q26.45 -88.0 25.95 -89.1 26.05 -90.5 25.75 -92.4 25.15 -95.2 25.15 -96.3 L24.75 -98.4 24.4 -100.55 Q24.4 -101.45 25.65 -102.25 L27.9 -102.9 39.45 -103.9 M29.45 -101.05 Q27.25 -100.6 26.05 -99.85 25.95 -99.1 26.35 -98.05 L26.5 -96.1 26.8 -94.15 26.65 -93.3 Q27.35 -91.7 27.15 -90.45 27.55 -89.4 27.7 -85.2 L28.05 -85.15 28.6 -85.05 29.6 -85.15 31.15 -85.0 32.75 -84.9 33.45 -84.9 33.6 -85.0 33.15 -87.6 Q32.8 -89.4 33.6 -90.25 L35.7 -90.4 37.8 -90.5 Q38.8 -90.05 38.95 -89.2 L38.85 -84.6 38.9 -84.6 40.05 -84.7 41.45 -84.9 42.8 -85.05 Q43.4 -85.1 43.5 -85.4 L43.7 -92.05 43.85 -99.8 43.35 -101.55 40.15 -101.75 36.9 -101.85 33.5 -101.6 29.45 -101.05" fill="url(#gradient11)" fill-rule="evenodd" stroke="none"/>
    <path d="M29.45 -101.05 L33.5 -101.6 36.9 -101.85 40.15 -101.75 43.35 -101.55 43.85 -99.8 43.7 -92.05 43.5 -85.4 Q43.4 -85.1 42.8 -85.05 L41.45 -84.9 40.05 -84.7 38.9 -84.6 38.85 -84.6 38.95 -89.2 Q38.8 -90.05 37.8 -90.5 L35.7 -90.4 33.6 -90.25 Q32.8 -89.4 33.15 -87.6 L33.6 -85.0 33.45 -84.9 32.75 -84.9 31.15 -85.0 29.6 -85.15 28.6 -85.05 28.05 -85.15 27.7 -85.2 Q27.55 -89.4 27.15 -90.45 27.35 -91.7 26.65 -93.3 L26.8 -94.15 26.5 -96.1 26.35 -98.05 Q25.95 -99.1 26.05 -99.85 27.25 -100.6 29.45 -101.05 M37.8 -98.0 L37.0 -98.75 32.8 -99.15 Q32.25 -98.75 32.2 -98.35 32.4 -95.85 33.05 -94.9 L33.15 -94.8 32.55 -94.25 Q32.35 -92.95 33.15 -92.65 L36.95 -91.95 37.6 -92.75 37.8 -98.0" fill="url(#gradient12)" fill-rule="evenodd" stroke="none"/>
    <path d="M48.75 -102.3 L48.9 -103.9 48.6 -105.6 Q49.2 -106.6 50.3 -106.6 L51.05 -106.5 51.85 -106.45 52.55 -106.6 55.05 -106.85 57.85 -106.65 60.6 -106.5 63.6 -106.1 Q65.45 -105.85 66.45 -105.4 67.5 -104.9 67.75 -103.65 L67.9 -101.75 67.8 -98.45 67.65 -95.2 66.95 -94.8 65.0 -94.8 63.7 -94.55 64.3 -89.8 64.65 -84.75 Q64.65 -82.15 63.9 -80.4 63.15 -79.55 61.9 -79.95 L59.8 -79.8 56.45 -80.2 53.35 -81.0 Q52.75 -80.95 51.8 -82.05 51.55 -82.65 51.8 -84.05 51.7 -86.15 53.0 -90.5 L53.4 -92.35 53.85 -94.15 53.95 -94.8 49.95 -95.05 Q48.9 -96.1 48.75 -97.75 L48.65 -100.4 48.75 -102.3 M51.3 -97.4 L53.5 -97.4 55.7 -97.4 56.75 -96.45 Q57.05 -95.5 56.6 -94.9 L55.15 -89.8 Q54.3 -86.65 54.15 -84.6 L54.0 -83.6 Q54.0 -83.2 54.15 -83.1 L59.2 -82.0 59.75 -82.1 60.5 -82.05 61.25 -82.0 Q61.85 -82.0 62.1 -82.25 62.65 -84.1 62.65 -86.45 62.65 -88.5 61.45 -95.65 61.75 -96.7 62.35 -97.0 L65.65 -97.1 65.7 -97.15 Q66.2 -100.55 65.95 -103.05 L65.9 -103.2 Q64.3 -103.85 61.8 -104.0 L55.2 -104.45 53.35 -104.1 52.1 -104.1 51.3 -103.9 Q50.75 -99.7 51.05 -97.55 L51.1 -97.4 51.2 -97.3 51.15 -97.4 51.3 -97.4" fill="url(#gradient13)" fill-rule="evenodd" stroke="none"/>
    <path d="M51.05 -97.55 Q50.75 -99.7 51.3 -103.9 L52.1 -104.1 53.35 -104.1 55.2 -104.45 61.8 -104.0 Q64.3 -103.85 65.9 -103.2 L65.95 -103.05 Q66.2 -100.55 65.7 -97.15 L65.65 -97.1 62.35 -97.0 Q61.75 -96.7 61.45 -95.65 62.65 -88.5 62.65 -86.45 62.65 -84.1 62.1 -82.25 61.85 -82.0 61.25 -82.0 L60.5 -82.05 59.75 -82.1 59.2 -82.0 54.15 -83.1 Q54.0 -83.2 54.0 -83.6 L54.15 -84.6 Q54.3 -86.65 55.15 -89.8 L56.6 -94.9 Q57.05 -95.5 56.75 -96.45 L55.7 -97.4 53.5 -97.4 51.3 -97.4 Q51.2 -97.45 51.05 -97.55" fill="url(#gradient14)" fill-rule="evenodd" stroke="none"/>
    <path d="M75.2 -104.5 L77.55 -104.7 79.2 -104.5 Q80.2 -104.2 80.55 -103.25 L81.55 -94.1 81.75 -91.7 81.6 -88.9 81.3 -86.05 81.25 -84.6 Q81.05 -83.45 80.2 -82.9 L76.65 -82.4 73.15 -81.9 71.15 -81.85 Q70.25 -82.3 70.25 -83.45 L70.4 -84.6 Q71.65 -91.15 71.55 -99.95 L71.45 -101.1 71.55 -102.55 71.75 -103.95 Q72.25 -104.7 73.1 -104.7 L73.8 -104.55 75.2 -104.5 M73.65 -102.1 L73.65 -102.2 73.5 -102.15 73.65 -102.1 73.55 -101.8 73.5 -95.65 73.05 -89.4 72.4 -84.2 75.5 -84.45 78.7 -85.0 78.95 -85.15 79.6 -89.9 79.7 -91.9 79.25 -96.85 78.55 -102.0 76.1 -102.15 73.65 -102.1 M72.4 -84.2 L72.25 -84.2 72.35 -84.1 72.4 -84.2" fill="url(#gradient15)" fill-rule="evenodd" stroke="none"/>
    <path d="M73.65 -102.1 L76.1 -102.15 78.55 -102.0 79.25 -96.85 79.7 -91.9 79.6 -89.9 78.95 -85.15 78.7 -85.0 75.5 -84.45 72.4 -84.2 73.05 -89.4 73.5 -95.65 73.55 -101.8 73.65 -102.1" fill="url(#gradient16)" fill-rule="evenodd" stroke="none"/>
    <path d="M51.1 -97.4 L51.05 -97.55 51.15 -97.4 51.1 -97.4 M-39.5 -97.4 L-39.55 -97.55 -39.45 -97.4 -39.5 -97.4" fill="url(#gradient17)" fill-rule="evenodd" stroke="none"/>
    <path d="M35.9 -96.5 L34.35 -96.6 Q34.35 -96.2 35.5 -94.55 35.85 -94.25 36.1 -94.35 L36.1 -96.3 35.9 -96.5 M37.8 -98.0 L37.6 -92.75 36.95 -91.95 33.15 -92.65 Q32.35 -92.95 32.55 -94.25 L33.15 -94.8 33.05 -94.9 Q32.4 -95.85 32.2 -98.35 32.25 -98.75 32.8 -99.15 L37.0 -98.75 37.8 -98.0" fill="url(#gradient18)" fill-rule="evenodd" stroke="none"/>
    <path d="M0.6 -91.65 Q0.55 -89.05 -0.1 -87.65 -1.05 -83.4 -4.8 -81.5 -6.1 -80.85 -8.1 -80.85 L-10.35 -80.95 -12.4 -81.15 Q-14.65 -81.5 -17.65 -83.95 -19.55 -87.1 -19.35 -93.05 -19.25 -96.35 -19.7 -98.0 -19.65 -100.4 -19.9 -102.5 -20.6 -103.0 -20.3 -104.3 -19.7 -105.1 -18.55 -105.3 L-17.15 -105.5 -12.15 -105.45 Q-10.85 -104.7 -10.85 -102.9 -10.85 -101.1 -10.25 -100.65 -10.25 -100.45 -10.15 -100.7 -9.7 -103.2 -10.1 -103.35 -10.5 -104.15 -10.25 -104.9 L-9.8 -105.25 -2.25 -105.05 Q-1.0 -104.35 -0.8 -102.65 L-0.35 -100.05 0.1 -97.55 0.6 -95.1 0.6 -91.65 M-17.9 -102.55 L-17.8 -100.15 -17.7 -97.45 Q-17.45 -96.0 -17.4 -90.15 L-17.05 -87.55 Q-16.75 -86.15 -16.05 -85.35 -13.4 -83.3 -10.9 -83.3 L-9.75 -83.4 Q-8.55 -83.0 -6.4 -83.45 -4.6 -84.2 -3.3 -85.85 L-2.1 -88.4 Q-1.45 -90.0 -1.4 -91.25 L-1.3 -93.35 Q-1.3 -95.4 -2.05 -99.95 -2.4 -100.35 -2.45 -101.35 L-2.6 -102.55 -8.4 -103.0 Q-8.6 -102.9 -8.4 -102.1 L-8.3 -100.85 -8.15 -99.7 Q-8.15 -98.65 -9.0 -98.0 L-9.55 -97.95 -10.4 -98.15 -11.2 -98.4 Q-11.75 -98.9 -12.3 -100.1 L-12.9 -101.95 -12.9 -102.7 -13.05 -102.95 -17.2 -103.0 -17.7 -102.9 -17.9 -102.55" fill="url(#gradient19)" fill-rule="evenodd" stroke="none"/>
    <path d="M156.95 -86.75 L157.35 -86.05 157.8 -81.65 Q157.45 -80.6 156.1 -80.55 L154.5 -80.4 153.0 -79.95 151.15 -79.8 Q150.75 -80.6 150.6 -81.7 L150.35 -83.45 150.15 -84.6 150.4 -85.55 Q150.55 -86.5 151.95 -86.1 L152.35 -85.5 154.1 -86.2 Q155.4 -86.8 156.2 -86.8 L156.95 -86.75 M155.5 -84.95 Q153.85 -84.75 152.35 -83.65 152.1 -82.25 152.5 -81.65 L155.55 -82.1 Q155.85 -82.3 155.85 -83.0 L155.8 -83.8 155.75 -84.6 155.5 -84.95" fill="url(#gradient20)" fill-rule="evenodd" stroke="none"/>
    <path d="M155.5 -84.95 L155.75 -84.6 155.8 -83.8 155.85 -83.0 Q155.85 -82.3 155.55 -82.1 L152.5 -81.65 Q152.1 -82.25 152.35 -83.65 153.85 -84.75 155.5 -84.95" fill="url(#gradient21)" fill-rule="evenodd" stroke="none"/>
    <path d="M-170.9 -104.85 L-167.75 -104.85 -165.9 -104.8 Q-163.6 -104.7 -162.95 -103.45 -161.65 -101.1 -161.65 -97.75 -161.65 -96.15 -161.95 -94.35 -162.0 -93.35 -163.0 -93.15 L-164.35 -92.9 -166.25 -92.75 -167.55 -92.55 -163.75 -92.75 Q-162.7 -92.65 -162.0 -91.55 L-161.25 -90.0 Q-160.8 -88.65 -160.8 -86.95 -160.8 -85.05 -161.4 -82.4 -161.8 -81.8 -162.45 -81.75 L-163.65 -81.7 -167.5 -81.65 -171.35 -81.5 -174.6 -81.75 -176.0 -82.3 Q-176.95 -82.8 -177.35 -83.65 L-178.5 -87.55 Q-179.15 -89.9 -179.15 -91.9 L-178.6 -96.45 Q-178.2 -99.05 -177.2 -100.6 -176.85 -101.9 -175.3 -103.9 -173.9 -104.65 -170.9 -104.85 M-174.2 -102.05 Q-176.95 -97.8 -177.0 -93.05 L-177.1 -91.65 Q-177.1 -90.3 -176.6 -88.3 L-175.65 -84.9 Q-175.6 -84.45 -175.15 -84.25 L-174.25 -83.95 -169.8 -83.6 -165.3 -84.0 -164.05 -83.9 -163.3 -84.0 Q-162.7 -86.0 -162.7 -87.45 -162.7 -89.15 -163.5 -90.1 L-164.9 -90.3 -166.4 -90.25 -167.15 -90.25 -168.1 -90.15 Q-168.95 -90.15 -169.4 -90.95 L-169.95 -93.25 Q-169.95 -94.1 -169.25 -94.8 L-164.05 -95.15 -163.9 -95.3 -163.6 -98.2 Q-163.75 -101.2 -165.0 -102.55 L-169.4 -102.7 -171.6 -103.2 Q-173.45 -102.85 -174.2 -102.05" fill="url(#gradient22)" fill-rule="evenodd" stroke="none"/>
    <path d="M-174.2 -102.05 Q-173.45 -102.85 -171.6 -103.2 L-169.4 -102.7 -165.0 -102.55 Q-163.75 -101.2 -163.6 -98.2 L-163.9 -95.3 -164.05 -95.15 -169.25 -94.8 Q-169.95 -94.1 -169.95 -93.25 L-169.4 -90.95 Q-168.95 -90.15 -168.1 -90.15 L-167.15 -90.25 -166.4 -90.25 -164.9 -90.3 -163.5 -90.1 Q-162.7 -89.15 -162.7 -87.45 -162.7 -86.0 -163.3 -84.0 L-164.05 -83.9 -165.3 -84.0 -169.8 -83.6 -174.25 -83.95 -175.15 -84.25 Q-175.6 -84.45 -175.65 -84.9 L-176.6 -88.3 Q-177.1 -90.3 -177.1 -91.65 L-177.0 -93.05 Q-176.95 -97.8 -174.2 -102.05" fill="url(#gradient23)" fill-rule="evenodd" stroke="none"/>
    <path d="M-79.1 -103.6 Q-76.75 -103.6 -72.65 -102.5 -72.25 -102.05 -71.85 -100.85 L-71.15 -99.15 Q-70.85 -97.9 -70.85 -96.55 L-71.05 -94.65 -71.25 -94.4 -74.35 -93.55 Q-76.35 -93.1 -77.4 -92.45 L-78.3 -92.2 -79.15 -91.5 Q-79.25 -90.7 -78.75 -90.15 L-77.8 -89.2 -75.65 -87.4 -73.75 -85.55 -74.1 -85.1 -74.7 -84.6 -75.05 -84.6 -79.05 -87.9 -80.0 -87.95 -80.5 -87.3 -80.35 -85.95 -80.15 -84.6 -80.25 -83.8 -81.45 -83.7 -82.8 -83.65 -88.25 -83.05 -88.25 -83.1 -88.45 -88.9 Q-88.4 -92.85 -88.65 -94.95 L-88.45 -101.95 -87.75 -102.45 -86.65 -102.85 -80.7 -103.5 -79.1 -103.6 M-83.35 -102.55 L-84.35 -102.45 -85.3 -102.1 Q-86.0 -101.0 -86.0 -99.35 L-85.9 -97.05 -84.3 -92.55 Q-83.5 -91.7 -82.6 -91.65 -80.9 -91.5 -80.35 -92.5 -80.35 -93.0 -80.65 -93.8 L-80.9 -95.0 -81.5 -101.5 Q-81.85 -102.55 -83.35 -102.55" fill="url(#gradient24)" fill-rule="evenodd" stroke="none"/>
    <path d="M-72.95 -104.85 Q-71.25 -104.3 -70.6 -102.9 -68.6 -99.35 -68.6 -95.25 L-68.65 -93.75 Q-68.75 -92.9 -69.55 -92.55 L-71.15 -91.95 -73.7 -91.25 -76.15 -90.3 -76.1 -90.25 -73.65 -88.1 Q-72.05 -86.7 -71.25 -85.5 L-71.25 -84.6 -73.65 -82.3 Q-75.05 -82.1 -76.4 -83.35 L-78.1 -84.7 Q-77.85 -82.85 -78.05 -82.2 L-78.6 -81.75 -81.95 -81.55 -85.05 -81.4 -87.1 -80.95 -89.4 -80.7 Q-90.25 -81.35 -90.4 -82.5 L-90.6 -84.25 -90.8 -90.0 -91.0 -95.7 -90.85 -98.4 -90.7 -101.1 -90.85 -103.5 Q-89.55 -104.45 -87.75 -104.85 L-84.55 -105.45 -79.1 -105.7 -75.8 -105.25 -72.95 -104.85 M-79.1 -103.6 L-80.7 -103.5 -86.65 -102.85 -87.75 -102.45 -88.45 -101.95 -88.65 -94.95 Q-88.4 -92.85 -88.45 -88.9 L-88.25 -83.1 -88.25 -83.05 -82.8 -83.65 -81.45 -83.7 -80.25 -83.8 -80.15 -84.6 -80.35 -85.95 -80.5 -87.3 -80.0 -87.95 -79.05 -87.9 -75.05 -84.6 -74.7 -84.6 -74.1 -85.1 -73.75 -85.55 -75.65 -87.4 -77.8 -89.2 -78.75 -90.15 Q-79.25 -90.7 -79.15 -91.5 L-78.3 -92.2 -77.4 -92.45 Q-76.35 -93.1 -74.35 -93.55 L-71.25 -94.4 -71.05 -94.65 -70.85 -96.55 Q-70.85 -97.9 -71.15 -99.15 L-71.85 -100.85 Q-72.25 -102.05 -72.65 -102.5 -76.75 -103.6 -79.1 -103.6" fill="url(#gradient25)" fill-rule="evenodd" stroke="none"/>
    <path d="M-64.55 -99.85 Q-64.65 -99.1 -64.25 -98.05 L-64.1 -96.1 -63.8 -94.15 Q-63.8 -93.65 -63.95 -93.3 -63.25 -91.7 -63.45 -90.45 -63.05 -89.4 -62.9 -85.2 L-62.55 -85.15 -62.0 -85.05 -61.0 -85.15 -59.45 -85.0 -57.85 -84.9 -57.15 -84.9 -57.0 -85.0 -57.45 -87.6 Q-57.8 -89.4 -57.0 -90.25 L-54.9 -90.4 -52.8 -90.5 Q-51.8 -90.05 -51.65 -89.2 -51.55 -85.5 -51.75 -84.6 L-51.7 -84.6 -50.55 -84.7 -49.15 -84.9 -47.8 -85.05 Q-47.2 -85.1 -47.1 -85.4 L-46.9 -92.05 Q-46.6 -97.9 -46.75 -99.8 L-47.25 -101.55 -50.45 -101.75 -53.7 -101.85 -57.1 -101.6 -61.15 -101.05 Q-63.35 -100.6 -64.55 -99.85 M-64.95 -102.25 L-62.7 -102.9 -51.15 -103.9 -47.2 -103.7 -46.15 -103.65 Q-45.25 -102.95 -45.1 -101.65 L-44.9 -99.5 Q-44.9 -95.0 -45.35 -85.6 L-45.55 -84.1 Q-45.8 -83.35 -46.5 -82.9 L-52.7 -82.45 Q-53.15 -82.4 -53.6 -83.2 -53.9 -84.9 -53.7 -88.05 L-54.25 -88.15 -55.4 -87.95 -55.45 -87.3 Q-55.85 -85.05 -55.45 -84.85 -55.05 -83.55 -56.0 -82.85 L-57.3 -82.7 -59.05 -82.85 -60.75 -83.0 -62.8 -83.0 Q-63.0 -82.85 -64.15 -82.45 L-64.25 -86.15 Q-64.15 -88.0 -64.65 -89.1 -64.55 -90.5 -64.85 -92.4 -65.45 -95.2 -65.45 -96.3 L-65.85 -98.4 -66.2 -100.55 Q-66.2 -101.45 -64.95 -102.25" fill="url(#gradient26)" fill-rule="evenodd" stroke="none"/>
    <path d="M-64.55 -99.85 Q-63.35 -100.6 -61.15 -101.05 L-57.1 -101.6 -53.7 -101.85 -50.45 -101.75 -47.25 -101.55 -46.75 -99.8 Q-46.6 -97.9 -46.9 -92.05 L-47.1 -85.4 Q-47.2 -85.1 -47.8 -85.05 L-49.15 -84.9 -50.55 -84.7 -51.7 -84.6 -51.75 -84.6 Q-51.55 -85.5 -51.65 -89.2 -51.8 -90.05 -52.8 -90.5 L-54.9 -90.4 -57.0 -90.25 Q-57.8 -89.4 -57.45 -87.6 L-57.0 -85.0 -57.15 -84.9 -57.85 -84.9 -59.45 -85.0 -61.0 -85.15 -62.0 -85.05 -62.55 -85.15 -62.9 -85.2 Q-63.05 -89.4 -63.45 -90.45 -63.25 -91.7 -63.95 -93.3 -63.8 -93.65 -63.8 -94.15 L-64.1 -96.1 -64.25 -98.05 Q-64.65 -99.1 -64.55 -99.85 M-52.8 -98.0 L-53.6 -98.75 -57.8 -99.15 -58.4 -98.35 Q-58.2 -95.85 -57.55 -94.9 L-57.45 -94.8 -58.05 -94.25 Q-58.25 -92.95 -57.45 -92.65 L-53.65 -91.95 Q-53.05 -92.4 -53.0 -92.75 L-52.8 -98.0" fill="url(#gradient27)" fill-rule="evenodd" stroke="none"/>
    <path d="M-42.0 -105.6 Q-41.4 -106.6 -40.3 -106.6 L-39.55 -106.5 -38.75 -106.45 -38.05 -106.6 -35.55 -106.85 -32.75 -106.65 -30.0 -106.5 -27.0 -106.1 Q-25.15 -105.85 -24.15 -105.4 -23.1 -104.9 -22.85 -103.65 L-22.7 -101.75 Q-22.6 -100.5 -22.8 -98.45 L-22.95 -95.2 -23.65 -94.8 -25.6 -94.8 -26.9 -94.55 -26.3 -89.8 Q-25.95 -86.75 -25.95 -84.75 -25.95 -82.15 -26.7 -80.4 -27.45 -79.55 -28.7 -79.95 L-30.8 -79.8 -34.15 -80.2 Q-35.95 -80.5 -37.25 -81.0 -37.85 -80.95 -38.8 -82.05 -39.05 -82.65 -38.8 -84.05 -38.9 -86.15 -37.6 -90.5 L-37.2 -92.35 Q-36.75 -93.45 -36.75 -94.15 -36.55 -94.55 -36.65 -94.8 L-40.65 -95.05 Q-41.7 -96.1 -41.85 -97.75 L-41.95 -100.4 -41.85 -102.3 -41.7 -103.9 Q-41.7 -104.75 -42.0 -105.6 M-39.3 -97.4 L-37.1 -97.4 -34.9 -97.4 -33.85 -96.45 Q-33.55 -95.5 -34.0 -94.9 L-35.45 -89.8 Q-36.3 -86.65 -36.45 -84.6 L-36.6 -83.6 -36.45 -83.1 -31.4 -82.0 -30.85 -82.1 -30.1 -82.05 -29.35 -82.0 Q-28.75 -82.0 -28.5 -82.25 -27.95 -84.1 -27.95 -86.45 -27.95 -88.5 -29.15 -95.65 -28.85 -96.7 -28.25 -97.0 L-24.95 -97.1 -24.9 -97.15 Q-24.4 -100.55 -24.65 -103.05 L-24.7 -103.2 -28.8 -104.0 -35.4 -104.45 -37.25 -104.1 -38.5 -104.1 -39.3 -103.9 Q-39.85 -99.7 -39.55 -97.55 L-39.5 -97.4 -39.4 -97.3 -39.45 -97.4 -39.3 -97.4" fill="url(#gradient28)" fill-rule="evenodd" stroke="none"/>
    <path d="M-39.55 -97.55 Q-39.85 -99.7 -39.3 -103.9 L-38.5 -104.1 -37.25 -104.1 -35.4 -104.45 -28.8 -104.0 -24.7 -103.2 -24.65 -103.05 Q-24.4 -100.55 -24.9 -97.15 L-24.95 -97.1 -28.25 -97.0 Q-28.85 -96.7 -29.15 -95.65 -27.95 -88.5 -27.95 -86.45 -27.95 -84.1 -28.5 -82.25 -28.75 -82.0 -29.35 -82.0 L-30.1 -82.05 -30.85 -82.1 -31.4 -82.0 -36.45 -83.1 -36.6 -83.6 -36.45 -84.6 Q-36.3 -86.65 -35.45 -89.8 L-34.0 -94.9 Q-33.55 -95.5 -33.85 -96.45 L-34.9 -97.4 -37.1 -97.4 -39.3 -97.4 -39.55 -97.55" fill="url(#gradient29)" fill-rule="evenodd" stroke="none"/>
    <path d="M-17.9 -102.55 L-17.7 -102.9 -17.2 -103.0 -13.05 -102.95 -12.9 -102.7 -12.9 -101.95 -12.3 -100.1 Q-11.75 -98.9 -11.2 -98.4 L-10.4 -98.15 -9.55 -97.95 -9.0 -98.0 Q-8.15 -98.65 -8.15 -99.7 L-8.3 -100.85 -8.4 -102.1 Q-8.6 -102.9 -8.4 -103.0 L-2.6 -102.55 -2.45 -101.35 Q-2.4 -100.35 -2.05 -99.95 -1.3 -95.4 -1.3 -93.35 L-1.4 -91.25 Q-1.45 -90.0 -2.1 -88.4 L-3.3 -85.85 Q-4.6 -84.2 -6.4 -83.45 -8.55 -83.0 -9.75 -83.4 L-10.9 -83.3 Q-13.4 -83.3 -16.05 -85.35 -16.75 -86.15 -17.05 -87.55 L-17.4 -90.15 Q-17.45 -96.0 -17.7 -97.45 L-17.8 -100.15 -17.9 -102.55" fill="url(#gradient30)" fill-rule="evenodd" stroke="none"/>
    <path d="M-157.85 -102.4 L-157.85 -103.75 Q-156.5 -104.85 -154.45 -105.1 L-150.9 -105.5 -147.85 -105.45 -145.3 -104.8 Q-143.65 -104.35 -142.7 -103.55 -141.85 -102.25 -141.85 -99.95 L-141.9 -98.6 -141.95 -96.7 Q-141.9 -95.7 -142.3 -93.75 L-142.75 -90.9 Q-143.45 -86.5 -143.8 -85.55 -144.7 -82.55 -147.0 -80.9 L-150.95 -81.35 -154.45 -82.05 Q-156.5 -82.65 -157.6 -84.05 -158.15 -87.85 -158.2 -98.3 L-158.0 -100.4 -157.85 -102.4 M-156.4 -100.95 L-156.4 -100.5 Q-156.4 -99.85 -157.3 -99.2 -156.95 -99.1 -156.6 -92.55 -156.65 -87.85 -156.2 -85.05 -155.75 -84.5 -154.75 -84.15 L-152.75 -83.7 -150.0 -83.2 -147.65 -82.9 Q-147.05 -83.35 -146.1 -84.55 -145.2 -86.3 -144.7 -89.15 L-144.0 -94.15 Q-143.55 -96.9 -143.55 -99.0 -143.55 -100.6 -143.8 -101.9 L-144.35 -102.3 -145.1 -102.7 -147.65 -103.35 -149.55 -103.5 Q-156.4 -103.5 -156.4 -101.45 L-156.4 -100.95" fill="url(#gradient31)" fill-rule="evenodd" stroke="none"/>
    <path d="M-156.4 -100.95 L-156.4 -101.45 Q-156.4 -103.5 -149.55 -103.5 L-147.65 -103.35 -145.1 -102.7 -144.35 -102.3 -143.8 -101.9 Q-143.55 -100.6 -143.55 -99.0 -143.55 -96.9 -144.0 -94.15 L-144.7 -89.15 Q-145.2 -86.3 -146.1 -84.55 -147.05 -83.35 -147.65 -82.9 L-150.0 -83.2 -152.75 -83.7 -154.75 -84.15 Q-155.75 -84.5 -156.2 -85.05 -156.65 -87.85 -156.6 -92.55 -156.95 -99.1 -157.3 -99.2 -156.4 -99.85 -156.4 -100.5 L-156.4 -100.95 M-148.4 -102.0 Q-149.65 -102.35 -150.05 -101.4 -149.65 -98.2 -149.8 -93.55 -149.6 -92.15 -148.95 -91.85 -147.3 -91.65 -146.55 -92.45 -146.0 -93.7 -146.0 -95.05 L-146.4 -98.05 -147.05 -100.9 Q-147.2 -101.5 -148.4 -102.0" fill="url(#gradient32)" fill-rule="evenodd" stroke="none"/>
    <path d="M-148.1 -99.6 L-148.4 -99.35 -148.2 -98.5 -148.2 -97.05 -148.85 -94.3 -148.0 -93.95 -147.95 -93.95 Q-147.65 -94.6 -147.65 -95.45 L-147.9 -97.3 -148.2 -98.5 -148.1 -99.6 M-148.4 -102.0 Q-147.2 -101.5 -147.05 -100.9 L-146.4 -98.05 -146.0 -95.05 Q-146.0 -93.7 -146.55 -92.45 -147.3 -91.65 -148.95 -91.85 -149.6 -92.15 -149.8 -93.55 -149.65 -98.2 -150.05 -101.4 -149.65 -102.35 -148.4 -102.0 M-83.55 -100.1 L-83.8 -98.2 Q-83.8 -96.3 -83.05 -94.75 L-83.35 -99.95 -83.5 -100.1 -83.55 -100.1 M-83.35 -102.55 Q-81.85 -102.55 -81.5 -101.5 L-80.9 -95.0 -80.65 -93.8 Q-80.35 -93.0 -80.35 -92.5 -80.9 -91.5 -82.6 -91.65 -83.5 -91.7 -84.3 -92.55 L-85.9 -97.05 -86.0 -99.35 Q-86.0 -101.0 -85.3 -102.1 L-84.35 -102.45 -83.35 -102.55 M-83.05 -94.75 L-83.0 -94.1 -82.8 -94.3 -83.05 -94.75 M-52.8 -98.0 L-53.0 -92.75 Q-53.05 -92.4 -53.65 -91.95 L-57.45 -92.65 Q-58.25 -92.95 -58.05 -94.25 L-57.45 -94.8 -57.55 -94.9 Q-58.2 -95.85 -58.4 -98.35 L-57.8 -99.15 -53.6 -98.75 -52.8 -98.0 M-54.7 -96.5 L-56.25 -96.6 Q-56.25 -96.2 -55.1 -94.55 -54.75 -94.25 -54.5 -94.35 L-54.5 -96.3 Q-54.45 -96.5 -54.7 -96.5" fill="url(#gradient33)" fill-rule="evenodd" stroke="none"/>
    <path d="M-134.2 -101.9 L-132.35 -102.3 -131.5 -102.2 -131.2 -101.1 -131.05 -99.6 -130.1 -94.45 -127.9 -92.4 -125.35 -89.55 Q-124.5 -89.45 -124.05 -90.25 -124.95 -97.95 -125.7 -102.05 -125.45 -101.85 -125.45 -103.0 L-125.25 -103.45 Q-119.95 -103.1 -118.3 -102.4 -118.0 -102.1 -118.1 -101.4 L-118.1 -99.8 -117.85 -94.35 -117.55 -89.55 -118.05 -86.75 Q-118.3 -85.05 -118.7 -84.35 L-121.8 -83.9 Q-122.1 -84.0 -122.8 -84.55 L-124.0 -85.5 Q-127.0 -87.75 -128.55 -90.8 -129.15 -91.4 -129.85 -91.1 L-130.25 -90.4 -130.45 -84.5 -130.7 -84.3 -135.95 -83.1 -136.05 -83.55 -136.25 -84.25 -136.35 -89.7 -136.55 -95.15 -136.25 -100.2 Q-136.35 -101.35 -136.05 -101.45 L-134.2 -101.9" fill="url(#gradient34)" fill-rule="evenodd" stroke="none"/>
    <path d="M-134.7 -104.1 L-130.55 -104.7 Q-130.0 -103.9 -129.8 -103.0 L-129.45 -101.05 -128.8 -97.05 Q-128.35 -94.95 -126.65 -94.1 L-126.1 -93.4 Q-126.0 -93.75 -126.2 -94.65 L-127.05 -100.45 -127.35 -104.45 -126.5 -105.6 -124.95 -105.7 Q-121.2 -105.7 -117.4 -104.55 -116.6 -103.85 -116.55 -102.3 L-116.55 -100.6 Q-116.65 -98.65 -116.35 -95.4 L-116.05 -90.15 Q-116.05 -87.5 -116.6 -85.5 L-116.85 -83.8 Q-117.05 -82.85 -117.65 -82.3 L-119.75 -82.05 -121.5 -81.6 -122.45 -81.75 -125.6 -84.55 Q-127.6 -86.05 -128.6 -87.35 L-128.9 -82.85 Q-129.45 -82.3 -130.3 -82.2 L-131.5 -81.95 -133.65 -81.5 -135.9 -80.75 Q-137.2 -80.85 -137.45 -81.9 L-137.95 -83.9 -138.05 -88.95 Q-138.05 -92.0 -138.35 -93.9 L-138.2 -96.75 -138.05 -98.3 -137.95 -99.85 -138.0 -100.85 Q-138.05 -101.05 -138.6 -101.15 -139.15 -101.3 -139.25 -101.95 -139.3 -103.05 -138.4 -103.35 L-134.7 -104.1 M-134.2 -101.9 L-136.05 -101.45 Q-136.35 -101.35 -136.25 -100.2 L-136.55 -95.15 -136.35 -89.7 -136.25 -84.25 -136.05 -83.55 -135.95 -83.1 -130.7 -84.3 -130.45 -84.5 -130.25 -90.4 -129.85 -91.1 Q-129.15 -91.4 -128.55 -90.8 -127.0 -87.75 -124.0 -85.5 L-122.8 -84.55 Q-122.1 -84.0 -121.8 -83.9 L-118.7 -84.35 Q-118.3 -85.05 -118.05 -86.75 L-117.55 -89.55 -117.85 -94.35 -118.1 -99.8 -118.1 -101.4 Q-118.0 -102.1 -118.3 -102.4 -119.95 -103.1 -125.25 -103.45 L-125.45 -103.0 Q-125.45 -101.85 -125.7 -102.05 -124.95 -97.95 -124.05 -90.25 -124.5 -89.45 -125.35 -89.55 L-127.9 -92.4 -130.1 -94.45 -131.05 -99.6 -131.2 -101.1 -131.5 -102.2 -132.35 -102.3 -134.2 -101.9" fill="url(#gradient35)" fill-rule="evenodd" stroke="none"/>
    <path d="M-107.3 -101.0 Q-111.0 -96.75 -111.05 -93.1 -110.55 -89.1 -108.05 -86.25 -106.25 -84.8 -105.75 -84.5 -104.5 -83.7 -103.2 -83.7 L-101.1 -83.35 Q-98.55 -83.35 -96.45 -85.05 -95.7 -85.5 -95.7 -86.6 L-95.8 -87.55 -95.9 -88.5 -96.1 -90.15 Q-96.2 -91.0 -96.5 -91.35 L-97.75 -91.75 -99.1 -92.05 -100.3 -92.2 -101.0 -90.95 -101.25 -89.8 Q-101.4 -88.9 -102.05 -88.5 L-102.5 -88.4 Q-102.9 -88.4 -103.0 -88.65 L-104.0 -89.45 Q-106.6 -91.9 -106.25 -95.05 -106.25 -95.55 -104.95 -96.9 L-100.6 -98.15 -99.85 -98.1 -99.45 -98.0 -99.5 -103.45 -99.85 -103.45 -104.0 -102.55 Q-106.15 -101.85 -107.3 -101.0 M-102.25 -105.05 L-99.7 -105.45 -98.3 -105.3 Q-97.65 -105.1 -97.3 -104.3 L-97.3 -96.4 Q-97.75 -95.55 -98.8 -95.55 L-99.45 -95.55 -100.1 -95.55 -100.8 -95.45 -102.85 -95.05 Q-103.8 -94.7 -104.2 -94.0 L-103.95 -92.95 -103.45 -92.05 -102.95 -91.55 -102.8 -92.05 -102.55 -92.65 -102.3 -93.5 Q-102.2 -94.45 -101.45 -94.7 L-98.15 -94.3 Q-96.35 -93.95 -95.15 -93.0 -94.25 -91.55 -93.9 -89.35 L-93.45 -85.35 Q-93.95 -83.95 -95.15 -82.85 -96.3 -81.75 -97.65 -81.4 L-100.9 -80.95 Q-105.7 -80.95 -108.3 -84.15 -112.95 -88.25 -113.2 -93.7 -113.2 -94.8 -112.8 -96.0 L-111.95 -98.15 Q-108.85 -103.35 -104.15 -104.45 L-102.25 -105.05" fill="url(#gradient36)" fill-rule="evenodd" stroke="none"/>
    <path d="M-107.3 -101.0 Q-106.15 -101.85 -104.0 -102.55 L-99.85 -103.45 -99.5 -103.45 -99.45 -98.0 -99.85 -98.1 -100.6 -98.15 -104.95 -96.9 Q-106.25 -95.55 -106.25 -95.05 -106.6 -91.9 -104.0 -89.45 L-103.0 -88.65 Q-102.9 -88.4 -102.5 -88.4 L-102.05 -88.5 Q-101.4 -88.9 -101.25 -89.8 L-101.0 -90.95 -100.3 -92.2 -99.1 -92.05 -97.75 -91.75 -96.5 -91.35 Q-96.2 -91.0 -96.1 -90.15 L-95.9 -88.5 -95.8 -87.55 -95.7 -86.6 Q-95.7 -85.5 -96.45 -85.05 -98.55 -83.35 -101.1 -83.35 L-103.2 -83.7 Q-104.5 -83.7 -105.75 -84.5 -106.25 -84.8 -108.05 -86.25 -110.55 -89.1 -111.05 -93.1 -111.0 -96.75 -107.3 -101.0" fill="url(#gradient37)" fill-rule="evenodd" stroke="none"/>
  </g>
  <defs>
    <linearGradient gradientTransform="matrix(0.01, 0.0, 0.0, 0.015, 92.35, -93.2)" gradientUnits="userSpaceOnUse" id="gradient0" spreadMethod="pad" x1="-819.2" x2="819.2">
      <stop offset="0.0" stop-color="#00cc00"/>
      <stop offset="1.0" stop-color="#8ffe8f"/>
    </linearGradient>
    <radialGradient cx="0" cy="0" gradientTransform="matrix(0.0229, 0.0, 0.0, 0.0229, 94.05, -85.75)" gradientUnits="userSpaceOnUse" id="gradient1" r="819.2" spreadMethod="pad">
      <stop offset="0.0" stop-color="#00cc00"/>
      <stop offset="1.0" stop-color="#8ffe8f"/>
    </radialGradient>
    <linearGradient gradientTransform="matrix(0.0025, 0.0, 0.0, 0.0063, 94.35, -96.95)" gradientUnits="userSpaceOnUse" id="gradient2" spreadMethod="pad" x1="-819.2" x2="819.2">
      <stop offset="0.0" stop-color="#00cc00"/>
      <stop offset="1.0" stop-color="#8ffe8f"/>
    </linearGradient>
    <linearGradient gradientTransform="matrix(0.0142, 0.0, 0.0, 0.0152, 114.75, -93.25)" gradientUnits="userSpaceOnUse" id="gradient3" spreadMethod="pad" x1="-819.2" x2="819.2">
      <stop offset="0.0" stop-color="#00cc00"/>
      <stop offset="1.0" stop-color="#8ffe8f"/>
    </linearGradient>
    <radialGradient cx="0" cy="0" gradientTransform="matrix(0.0305, 0.0, 0.0, 0.0305, 123.7, -84.35)" gradientUnits="userSpaceOnUse" id="gradient4" r="819.2" spreadMethod="pad">
      <stop offset="0.0" stop-color="#00cc00"/>
      <stop offset="1.0" stop-color="#8ffe8f"/>
    </radialGradient>
    <linearGradient gradientTransform="matrix(0.0114, 0.0, 0.0, 0.0168, 138.5, -93.2)" gradientUnits="userSpaceOnUse" id="gradient5" spreadMethod="pad" x1="-819.2" x2="819.2">
      <stop offset="0.0" stop-color="#00cc00"/>
      <stop offset="1.0" stop-color="#8ffe8f"/>
    </linearGradient>
    <radialGradient cx="0" cy="0" gradientTransform="matrix(0.028, 0.0, 0.0, 0.028, 144.0, -84.95)" gradientUnits="userSpaceOnUse" id="gradient6" r="819.2" spreadMethod="pad">
      <stop offset="0.0" stop-color="#00cc00"/>
      <stop offset="1.0" stop-color="#8ffe8f"/>
    </radialGradient>
    <radialGradient cx="0" cy="0" gradientTransform="matrix(0.0209, 0.0, 0.0, 0.0209, 150.65, -105.0)" gradientUnits="userSpaceOnUse" id="gradient7" r="819.2" spreadMethod="pad">
      <stop offset="0.0" stop-color="#00cc00"/>
      <stop offset="0.5058823529411764" stop-color="#88fb88"/>
      <stop offset="1.0" stop-color="#8ffe8f"/>
    </radialGradient>
    <radialGradient cx="0" cy="0" gradientTransform="matrix(0.0141, 0.0, 0.0, 0.0141, 155.15, -93.1)" gradientUnits="userSpaceOnUse" id="gradient8" r="819.2" spreadMethod="pad">
      <stop offset="0.0" stop-color="#00cc00"/>
      <stop offset="1.0" stop-color="#8ffe8f"/>
    </radialGradient>
    <linearGradient gradientTransform="matrix(0.0118, 0.0, 0.0, 0.0139, 12.9, -93.2)" gradientUnits="userSpaceOnUse" id="gradient9" spreadMethod="pad" x1="-819.2" x2="819.2">
      <stop offset="0.0" stop-color="#00cc00"/>
      <stop offset="1.0" stop-color="#8ffe8f"/>
    </linearGradient>
    <radialGradient cx="0" cy="0" gradientTransform="matrix(0.0249, 0.0, 0.0, 0.0249, 19.05, -87.1)" gradientUnits="userSpaceOnUse" id="gradient10" r="819.2" spreadMethod="pad">
      <stop offset="0.0" stop-color="#00cc00"/>
      <stop offset="1.0" stop-color="#8ffe8f"/>
    </radialGradient>
    <linearGradient gradientTransform="matrix(0.013, 0.0, 0.0, 0.0131, 35.05, -93.2)" gradientUnits="userSpaceOnUse" id="gradient11" spreadMethod="pad" x1="-819.2" x2="819.2">
      <stop offset="0.0" stop-color="#00cc00"/>
      <stop offset="1.0" stop-color="#8ffe8f"/>
    </linearGradient>
    <radialGradient cx="0" cy="0" gradientTransform="matrix(0.024, 0.0, 0.0, 0.024, 41.45, -87.65)" gradientUnits="userSpaceOnUse" id="gradient12" r="819.2" spreadMethod="pad">
      <stop offset="0.0" stop-color="#00cc00"/>
      <stop offset="1.0" stop-color="#8ffe8f"/>
    </radialGradient>
    <linearGradient gradientTransform="matrix(0.0118, 0.0, 0.0, 0.0165, 58.25, -93.35)" gradientUnits="userSpaceOnUse" id="gradient13" spreadMethod="pad" x1="-819.2" x2="819.2">
      <stop offset="0.0" stop-color="#00cc00"/>
      <stop offset="1.0" stop-color="#8ffe8f"/>
    </linearGradient>
    <radialGradient cx="0" cy="0" gradientTransform="matrix(0.0265, 0.0, 0.0, 0.0265, 61.6, -85.2)" gradientUnits="userSpaceOnUse" id="gradient14" r="819.2" spreadMethod="pad">
      <stop offset="0.0" stop-color="#00cc00"/>
      <stop offset="1.0" stop-color="#8ffe8f"/>
    </radialGradient>
    <radialGradient cx="0" cy="0" gradientTransform="matrix(0.0245, 0.0, 0.0, 0.0245, 79.35, -86.55)" gradientUnits="userSpaceOnUse" id="gradient15" r="819.2" spreadMethod="pad">
      <stop offset="0.0" stop-color="#00cc00"/>
      <stop offset="1.0" stop-color="#8ffe8f"/>
    </radialGradient>
    <radialGradient cx="0" cy="0" gradientTransform="matrix(0.0186, 0.0, 0.0, 0.0186, 77.45, -87.4)" gradientUnits="userSpaceOnUse" id="gradient16" r="819.2" spreadMethod="pad">
      <stop offset="0.0" stop-color="#00cc00"/>
      <stop offset="1.0" stop-color="#8ffe8f"/>
    </radialGradient>
    <radialGradient cx="0" cy="0" gradientTransform="matrix(0.4098, 0.0, 0.0, 0.4098, -175.85, -101.9)" gradientUnits="userSpaceOnUse" id="gradient17" r="819.2" spreadMethod="pad">
      <stop offset="0.09019607843137255" stop-color="#9900cc"/>
      <stop offset="0.24313725490196078" stop-color="#0033cc"/>
      <stop offset="0.4" stop-color="#0099ff"/>
      <stop offset="0.5607843137254902" stop-color="#00ff00"/>
      <stop offset="0.7019607843137254" stop-color="#ffff00"/>
      <stop offset="0.8745098039215686" stop-color="#ff6600"/>
      <stop offset="1.0" stop-color="#ff0000"/>
    </radialGradient>
    <linearGradient gradientTransform="matrix(0.0034, 0.0, 0.0, 0.0044, 35.0, -95.55)" gradientUnits="userSpaceOnUse" id="gradient18" spreadMethod="pad" x1="-819.2" x2="819.2">
      <stop offset="0.0" stop-color="#00cc00"/>
      <stop offset="1.0" stop-color="#8ffe8f"/>
    </linearGradient>
    <linearGradient gradientTransform="matrix(0.0128, 0.0, 0.0, 0.015, -9.9, -93.2)" gradientUnits="userSpaceOnUse" id="gradient19" spreadMethod="pad" x1="-819.2" x2="819.2">
      <stop offset="0.0" stop-color="#00cc00"/>
      <stop offset="1.0" stop-color="#8ffe8f"/>
    </linearGradient>
    <linearGradient gradientTransform="matrix(0.0047, 0.0, 0.0, 0.0043, 153.95, -83.3)" gradientUnits="userSpaceOnUse" id="gradient20" spreadMethod="pad" x1="-819.2" x2="819.2">
      <stop offset="0.0" stop-color="#00cc00"/>
      <stop offset="1.0" stop-color="#8ffe8f"/>
    </linearGradient>
    <radialGradient cx="0" cy="0" gradientTransform="matrix(0.0052, 0.0, 0.0, 0.0052, 155.15, -83.55)" gradientUnits="userSpaceOnUse" id="gradient21" r="819.2" spreadMethod="pad">
      <stop offset="0.0" stop-color="#00cc00"/>
      <stop offset="0.5058823529411764" stop-color="#88fb88"/>
      <stop offset="1.0" stop-color="#8ffe8f"/>
    </radialGradient>
    <linearGradient gradientTransform="matrix(0.0112, 0.0, 0.0, 0.0143, -170.0, -93.2)" gradientUnits="userSpaceOnUse" id="gradient22" spreadMethod="pad" x1="-819.2" x2="819.2">
      <stop offset="0.0" stop-color="#00cc00"/>
      <stop offset="1.0" stop-color="#8ffe8f"/>
    </linearGradient>
    <radialGradient cx="0" cy="0" gradientTransform="matrix(0.022, 0.0, 0.0, 0.022, -165.55, -86.55)" gradientUnits="userSpaceOnUse" id="gradient23" r="819.2" spreadMethod="pad">
      <stop offset="0.0" stop-color="#00cc00"/>
      <stop offset="1.0" stop-color="#8ffe8f"/>
    </radialGradient>
    <radialGradient cx="0" cy="0" gradientTransform="matrix(0.0257, 0.0, 0.0, 0.0257, -75.3, -86.3)" gradientUnits="userSpaceOnUse" id="gradient24" r="819.2" spreadMethod="pad">
      <stop offset="0.0" stop-color="#00cc00"/>
      <stop offset="1.0" stop-color="#8ffe8f"/>
    </radialGradient>
    <linearGradient gradientTransform="matrix(0.0137, 0.0, 0.0, 0.0153, -79.8, -93.2)" gradientUnits="userSpaceOnUse" id="gradient25" spreadMethod="pad" x1="-819.2" x2="819.2">
      <stop offset="0.0" stop-color="#00cc00"/>
      <stop offset="1.0" stop-color="#8ffe8f"/>
    </linearGradient>
    <linearGradient gradientTransform="matrix(0.013, 0.0, 0.0, 0.0131, -55.55, -93.2)" gradientUnits="userSpaceOnUse" id="gradient26" spreadMethod="pad" x1="-819.2" x2="819.2">
      <stop offset="0.0" stop-color="#00cc00"/>
      <stop offset="1.0" stop-color="#8ffe8f"/>
    </linearGradient>
    <radialGradient cx="0" cy="0" gradientTransform="matrix(0.0247, 0.0, 0.0, 0.0247, -48.85, -87.1)" gradientUnits="userSpaceOnUse" id="gradient27" r="819.2" spreadMethod="pad">
      <stop offset="0.0" stop-color="#00cc00"/>
      <stop offset="1.0" stop-color="#8ffe8f"/>
    </radialGradient>
    <linearGradient gradientTransform="matrix(0.0118, 0.0, 0.0, 0.0165, -32.35, -93.35)" gradientUnits="userSpaceOnUse" id="gradient28" spreadMethod="pad" x1="-819.2" x2="819.2">
      <stop offset="0.0" stop-color="#00cc00"/>
      <stop offset="1.0" stop-color="#8ffe8f"/>
    </linearGradient>
    <radialGradient cx="0" cy="0" gradientTransform="matrix(0.0258, 0.0, 0.0, 0.0258, -29.75, -85.5)" gradientUnits="userSpaceOnUse" id="gradient29" r="819.2" spreadMethod="pad">
      <stop offset="0.0" stop-color="#00cc00"/>
      <stop offset="1.0" stop-color="#8ffe8f"/>
    </radialGradient>
    <radialGradient cx="0" cy="0" gradientTransform="matrix(0.0267, 0.0, 0.0, 0.0267, -3.0, -87.1)" gradientUnits="userSpaceOnUse" id="gradient30" r="819.2" spreadMethod="pad">
      <stop offset="0.0" stop-color="#00cc00"/>
      <stop offset="1.0" stop-color="#8ffe8f"/>
    </radialGradient>
    <linearGradient gradientTransform="matrix(0.01, 0.0, 0.0, 0.015, -150.05, -93.2)" gradientUnits="userSpaceOnUse" id="gradient31" spreadMethod="pad" x1="-819.2" x2="819.2">
      <stop offset="0.0" stop-color="#00cc00"/>
      <stop offset="1.0" stop-color="#8ffe8f"/>
    </linearGradient>
    <radialGradient cx="0" cy="0" gradientTransform="matrix(0.0217, 0.0, 0.0, 0.0217, -148.95, -86.55)" gradientUnits="userSpaceOnUse" id="gradient32" r="819.2" spreadMethod="pad">
      <stop offset="0.0" stop-color="#00cc00"/>
      <stop offset="1.0" stop-color="#8ffe8f"/>
    </radialGradient>
    <radialGradient cx="0" cy="0" gradientTransform="matrix(0.4098, 0.0, 0.0, 0.4098, -175.85, -101.9)" gradientUnits="userSpaceOnUse" id="gradient33" r="819.2" spreadMethod="pad">
      <stop offset="0.0" stop-color="#00cc00"/>
      <stop offset="0.5058823529411764" stop-color="#88fb88"/>
      <stop offset="1.0" stop-color="#8ffe8f"/>
    </radialGradient>
    <radialGradient cx="0" cy="0" gradientTransform="matrix(0.027, 0.0, 0.0, 0.027, -119.2, -88.2)" gradientUnits="userSpaceOnUse" id="gradient34" r="819.2" spreadMethod="pad">
      <stop offset="0.0" stop-color="#00cc00"/>
      <stop offset="1.0" stop-color="#8ffe8f"/>
    </radialGradient>
    <linearGradient gradientTransform="matrix(0.0142, 0.0, 0.0, 0.0152, -127.65, -93.25)" gradientUnits="userSpaceOnUse" id="gradient35" spreadMethod="pad" x1="-819.2" x2="819.2">
      <stop offset="0.0" stop-color="#00cc00"/>
      <stop offset="1.0" stop-color="#8ffe8f"/>
    </linearGradient>
    <linearGradient gradientTransform="matrix(0.0121, 0.0, 0.0, 0.015, -103.35, -93.2)" gradientUnits="userSpaceOnUse" id="gradient36" spreadMethod="pad" x1="-819.2" x2="819.2">
      <stop offset="0.0" stop-color="#00cc00"/>
      <stop offset="1.0" stop-color="#8ffe8f"/>
    </linearGradient>
    <radialGradient cx="0" cy="0" gradientTransform="matrix(0.02, 0.0, 0.0, 0.02, -98.5, -87.65)" gradientUnits="userSpaceOnUse" id="gradient37" r="819.2" spreadMethod="pad">
      <stop offset="0.0" stop-color="#00cc00"/>
      <stop offset="1.0" stop-color="#8ffe8f"/>
    </radialGradient>
  </defs>
</svg>
