<?xml version="1.0" encoding="UTF-8" standalone="no"?>
<svg xmlns:xlink="http://www.w3.org/1999/xlink" height="29.6px" width="230.0px" xmlns="http://www.w3.org/2000/svg">
  <g transform="matrix(1.0, 0.0, 0.0, 1.0, 125.4, 112.95)">
    <path d="M96.1 -112.45 L99.45 -111.95 Q101.45 -111.35 102.25 -109.65 104.6 -105.5 104.6 -100.6 L104.55 -98.85 Q104.45 -97.85 103.5 -97.4 L101.6 -96.7 98.55 -95.85 95.65 -94.75 Q95.55 -94.75 95.75 -94.7 L98.65 -92.15 Q100.5 -90.5 101.5 -89.05 L101.5 -88.0 98.65 -85.25 Q96.95 -85.05 95.4 -86.5 93.7 -88.0 93.35 -88.1 93.65 -85.95 93.4 -85.15 L92.75 -84.6 88.8 -84.4 85.15 -84.2 82.7 -83.65 79.95 -83.35 Q78.95 -84.15 78.8 -85.5 L78.55 -87.6 78.3 -94.4 Q78.05 -98.85 78.1 -101.15 L78.25 -104.35 78.45 -107.55 78.25 -110.35 Q79.8 -111.5 81.95 -111.95 L85.7 -112.7 92.2 -112.95 96.1 -112.45 M81.1 -108.55 Q80.85 -105.75 80.85 -100.25 81.15 -97.75 81.1 -93.1 81.1 -88.35 81.35 -86.2 L81.35 -86.15 87.8 -86.85 89.4 -86.95 90.8 -87.05 90.95 -88.0 90.7 -89.6 90.5 -91.2 Q90.6 -91.75 91.1 -91.95 L92.25 -91.9 96.95 -88.0 97.4 -88.0 98.1 -88.6 98.5 -89.1 96.25 -91.3 93.7 -93.45 92.6 -94.55 Q92.0 -95.25 92.1 -96.15 L93.1 -97.0 94.2 -97.3 Q95.4 -98.05 97.8 -98.6 L101.5 -99.6 101.7 -99.9 101.95 -102.15 Q101.95 -103.75 101.6 -105.2 L100.75 -107.25 99.8 -109.2 Q94.95 -110.5 92.2 -110.5 L90.3 -110.35 83.25 -109.6 81.95 -109.15 Q81.3 -108.9 81.1 -108.55" fill="url(#gradient0)" fill-rule="evenodd" stroke="none"/>
    <path d="M89.35 -108.0 L90.05 -100.3 Q89.95 -99.8 90.35 -98.9 L90.7 -97.35 Q90.05 -96.15 88.05 -96.35 86.95 -96.4 86.0 -97.4 L84.1 -102.75 84.0 -105.45 Q84.0 -107.45 84.85 -108.7 85.3 -109.1 85.95 -109.15 L87.15 -109.25 Q88.9 -109.25 89.35 -108.0 M86.9 -106.35 Q86.6 -105.35 86.6 -104.1 86.6 -101.85 87.5 -100.0 L87.15 -106.15 86.95 -106.35 86.9 -106.35 M87.5 -100.0 L87.55 -99.25 87.8 -99.5 87.5 -100.0" fill="url(#gradient1)" fill-rule="evenodd" stroke="none"/>
    <path d="M15.35 -111.9 Q17.3 -111.4 18.45 -110.45 19.45 -108.9 19.45 -106.15 L19.4 -104.55 19.3 -102.3 18.9 -98.85 Q18.4 -96.6 18.35 -95.45 17.55 -90.25 17.15 -89.1 16.05 -85.6 13.35 -83.6 L8.65 -84.15 4.5 -84.95 Q2.05 -85.7 0.8 -87.35 0.1 -91.85 0.05 -104.2 L0.3 -106.7 0.5 -109.05 0.5 -110.65 Q2.05 -112.0 4.5 -112.25 L8.7 -112.75 12.35 -112.7 15.35 -111.9 M2.2 -106.8 Q2.2 -106.05 1.1 -105.3 1.55 -105.2 1.95 -97.4 1.9 -91.85 2.45 -88.5 2.95 -87.9 4.15 -87.45 L6.55 -86.95 9.8 -86.35 12.55 -86.0 14.4 -87.95 Q15.45 -90.0 16.05 -93.4 L16.9 -99.3 17.45 -105.05 17.15 -108.45 16.5 -108.95 15.6 -109.4 12.55 -110.2 10.3 -110.35 Q2.2 -110.4 2.2 -107.95 L2.2 -107.35 2.2 -106.8" fill="url(#gradient2)" fill-rule="evenodd" stroke="none"/>
    <path d="M13.3 -107.3 L14.05 -103.9 14.5 -100.35 Q14.5 -98.8 13.85 -97.3 12.95 -96.35 11.05 -96.6 10.25 -96.95 10.0 -98.6 10.2 -104.1 9.75 -107.9 10.2 -109.0 11.7 -108.6 13.1 -108.0 13.3 -107.3 M12.05 -105.75 Q11.55 -105.75 11.7 -105.45 L11.9 -104.45 11.9 -102.75 11.1 -99.5 12.15 -99.05 12.2 -99.05 Q12.55 -99.85 12.55 -100.85 L12.25 -103.05 11.9 -104.45 12.05 -105.75" fill="url(#gradient3)" fill-rule="evenodd" stroke="none"/>
    <path d="M25.8 -106.8 L26.05 -105.85 27.2 -102.65 Q27.75 -100.5 28.25 -99.5 L31.8 -91.8 Q34.45 -86.8 35.8 -86.25 L39.15 -86.15 42.55 -86.05 42.8 -86.2 Q43.9 -88.6 44.95 -92.65 46.6 -98.8 47.0 -99.65 L47.8 -103.4 Q48.3 -106.0 48.7 -107.05 49.25 -108.7 49.05 -108.95 L44.65 -109.9 44.3 -109.0 43.2 -105.15 Q42.6 -101.05 41.55 -98.85 41.5 -98.1 40.75 -96.65 38.9 -96.4 38.3 -98.6 L37.45 -99.95 35.25 -108.65 35.0 -109.25 34.9 -109.3 28.45 -107.65 25.75 -106.95 25.7 -106.95 25.8 -106.8 M24.25 -109.65 L25.95 -109.85 34.9 -111.9 Q35.55 -111.95 37.05 -111.1 L38.0 -108.3 38.55 -105.45 Q38.95 -104.95 39.2 -103.3 L39.65 -101.45 39.95 -102.95 40.3 -105.05 42.3 -111.95 43.15 -112.4 47.45 -111.65 49.6 -111.15 Q50.95 -110.85 51.7 -110.35 L52.15 -109.35 51.85 -108.4 Q51.55 -107.9 51.6 -107.55 51.0 -105.6 50.35 -101.35 49.75 -100.2 49.1 -97.5 48.65 -95.4 48.1 -94.35 L47.15 -90.0 Q46.85 -89.6 46.7 -88.65 46.55 -87.7 46.2 -87.3 L45.6 -85.7 Q45.05 -84.45 44.0 -84.1 37.55 -83.9 35.6 -84.25 34.65 -83.9 33.4 -84.75 32.4 -86.15 31.1 -88.8 L29.25 -92.3 Q28.7 -93.1 27.9 -95.0 L26.45 -97.75 22.5 -108.35 Q22.85 -109.55 24.25 -109.65" fill="url(#gradient4)" fill-rule="evenodd" stroke="none"/>
    <path d="M58.4 -111.6 Q64.25 -113.0 69.6 -112.7 L72.15 -111.95 Q73.55 -111.4 74.1 -110.2 74.3 -109.25 74.1 -107.8 73.9 -106.4 74.0 -105.75 73.7 -104.95 73.05 -104.65 L68.9 -104.65 65.25 -104.15 Q64.95 -104.05 65.1 -103.9 L65.9 -103.75 67.25 -103.55 69.6 -103.05 Q71.25 -102.4 71.9 -101.15 72.3 -99.95 72.75 -95.85 72.2 -94.7 70.5 -94.6 68.8 -94.65 68.55 -94.2 L68.95 -93.9 70.9 -93.85 72.85 -93.85 Q75.35 -92.55 75.35 -88.45 L74.95 -85.9 Q74.7 -84.45 73.5 -83.75 L65.0 -83.65 56.4 -84.05 Q55.45 -84.7 55.2 -85.9 L55.05 -87.7 54.85 -90.75 55.05 -95.25 55.15 -99.65 55.05 -103.2 Q55.0 -104.45 55.25 -106.75 L55.55 -110.25 Q55.85 -111.35 56.75 -111.45 L58.4 -111.6 M57.55 -100.55 L57.55 -98.75 57.35 -95.1 57.25 -91.2 Q57.2 -90.2 57.3 -89.4 L57.35 -87.95 Q57.45 -87.1 57.75 -86.85 L64.3 -86.35 64.85 -86.35 69.15 -86.15 70.6 -86.25 72.2 -86.15 Q72.9 -86.85 72.95 -89.85 73.05 -90.55 72.65 -90.7 L71.25 -90.9 69.85 -91.05 68.15 -91.2 Q66.55 -91.15 66.15 -92.25 L66.15 -96.3 66.85 -97.1 70.15 -97.35 70.25 -97.4 Q70.4 -98.8 69.65 -99.9 67.5 -101.1 65.45 -101.05 L63.85 -100.9 Q62.9 -101.15 62.8 -102.0 L62.55 -103.05 62.55 -104.9 Q62.65 -106.15 63.45 -106.95 L67.65 -107.1 71.55 -107.05 71.7 -107.9 71.55 -109.05 70.75 -109.5 69.35 -109.9 67.35 -110.0 62.6 -109.55 58.2 -108.65 58.0 -108.45 Q57.3 -103.55 57.55 -100.55" fill="url(#gradient5)" fill-rule="evenodd" stroke="none"/>
    <path d="M-76.7 -108.05 L-80.5 -108.3 -84.35 -108.4 -88.35 -108.1 -93.15 -107.45 Q-95.8 -106.95 -97.2 -106.05 -97.3 -105.15 -96.85 -103.9 L-96.65 -101.6 Q-96.3 -99.95 -96.3 -99.3 L-96.5 -98.3 Q-95.65 -96.4 -95.9 -94.9 -95.45 -93.7 -95.25 -88.7 L-94.8 -88.65 -94.15 -88.5 -93.0 -88.65 -91.15 -88.45 -89.25 -88.35 -88.4 -88.35 -88.25 -88.45 -88.8 -91.55 Q-89.2 -93.7 -88.25 -94.7 L-85.75 -94.85 -83.25 -95.0 Q-82.1 -94.45 -81.9 -93.45 -81.8 -89.05 -82.05 -88.0 L-81.95 -88.0 -80.6 -88.1 -78.95 -88.35 -77.35 -88.5 Q-76.65 -88.6 -76.5 -88.95 L-76.3 -96.8 Q-75.95 -103.75 -76.1 -106.0 L-76.7 -108.05 M-74.15 -108.2 L-73.9 -105.65 Q-73.9 -100.35 -74.45 -89.2 L-74.7 -87.4 Q-75.0 -86.5 -75.8 -86.0 L-83.15 -85.45 Q-83.7 -85.4 -84.2 -86.35 -84.6 -88.35 -84.35 -92.1 L-85.0 -92.2 -86.35 -91.95 Q-86.55 -91.85 -86.4 -91.2 -86.9 -88.55 -86.4 -88.3 -85.95 -86.75 -87.05 -85.9 L-88.6 -85.75 -90.65 -85.9 -92.7 -86.1 -95.1 -86.1 Q-95.35 -85.9 -96.7 -85.45 L-96.85 -89.85 Q-96.75 -92.05 -97.3 -93.3 -97.2 -95.0 -97.55 -97.25 L-98.25 -101.85 -98.75 -104.35 Q-98.9 -106.2 -99.15 -106.9 -99.15 -107.95 -97.65 -108.9 L-95.0 -109.65 -81.3 -110.85 -76.65 -110.6 -75.4 -110.55 Q-74.35 -109.75 -74.15 -108.2" fill="url(#gradient6)" fill-rule="evenodd" stroke="none"/>
    <path d="M-43.45 -87.45 L-43.35 -90.35 -43.15 -93.6 -43.6 -101.55 -43.75 -109.3 -44.0 -109.55 -46.5 -110.45 -47.55 -110.45 Q-48.45 -108.85 -48.85 -106.95 L-49.1 -105.75 Q-49.2 -104.8 -50.2 -104.7 -51.25 -104.95 -51.9 -105.7 L-54.2 -107.9 Q-55.3 -109.2 -56.3 -109.2 L-56.9 -109.05 -64.25 -108.3 -66.1 -108.25 Q-67.05 -108.2 -67.4 -107.8 -67.9 -105.75 -67.95 -102.95 L-67.95 -96.7 Q-67.75 -94.4 -67.95 -89.45 L-67.7 -87.45 Q-67.65 -86.3 -67.4 -85.9 L-64.1 -85.6 -60.75 -85.45 -60.7 -85.55 Q-60.65 -88.4 -60.05 -90.35 -59.75 -91.15 -58.55 -91.25 -57.35 -90.9 -55.2 -88.95 -54.25 -87.65 -53.75 -87.7 -52.95 -87.05 -52.6 -87.05 L-49.8 -89.65 Q-49.0 -90.8 -47.5 -90.3 L-43.7 -87.45 -43.45 -87.3 -43.45 -87.4 -43.45 -87.45 M-70.2 -109.9 Q-69.45 -110.55 -68.3 -110.55 L-66.85 -110.55 -56.75 -111.55 -53.95 -110.95 Q-52.3 -109.0 -51.1 -108.25 L-51.1 -108.65 -50.85 -110.0 -50.3 -111.5 Q-50.0 -112.45 -49.1 -112.8 -47.5 -112.95 -45.35 -112.2 L-42.35 -111.3 Q-41.4 -110.8 -41.25 -109.6 L-41.1 -107.9 Q-41.35 -105.0 -40.85 -102.5 -40.85 -97.85 -40.45 -93.6 L-40.7 -89.65 Q-40.85 -87.45 -40.6 -85.6 -41.1 -84.8 -41.65 -84.8 -43.3 -84.75 -45.05 -85.9 L-47.6 -87.65 -48.9 -87.45 -51.0 -84.75 -52.05 -84.55 Q-53.5 -84.55 -55.3 -86.4 L-57.55 -88.1 -57.7 -88.15 -57.75 -88.1 -57.75 -84.25 -58.5 -83.6 Q-62.05 -83.75 -68.7 -83.5 L-70.05 -84.5 -70.3 -86.55 -70.5 -90.1 Q-70.55 -92.25 -70.25 -93.65 L-70.5 -98.7 -70.3 -104.25 -70.2 -109.9" fill="url(#gradient7)" fill-rule="evenodd" stroke="none"/>
    <path d="M-33.65 -111.6 Q-27.8 -113.0 -22.45 -112.7 L-19.9 -111.95 Q-18.5 -111.4 -17.95 -110.2 -17.75 -109.25 -17.95 -107.8 L-18.05 -105.75 Q-18.35 -104.95 -19.0 -104.65 L-23.15 -104.65 -26.8 -104.15 -26.95 -103.9 -26.15 -103.75 -24.8 -103.55 -22.45 -103.05 Q-20.8 -102.4 -20.15 -101.15 -19.7 -99.95 -19.3 -95.85 -19.85 -94.7 -21.55 -94.6 -23.2 -94.65 -23.5 -94.2 L-23.1 -93.9 -21.15 -93.85 -19.2 -93.85 Q-16.7 -92.55 -16.7 -88.45 L-17.1 -85.9 Q-17.35 -84.45 -18.55 -83.75 L-27.05 -83.65 -35.65 -84.05 Q-36.6 -84.7 -36.85 -85.9 L-37.0 -87.7 -37.2 -90.75 -37.0 -95.25 -36.9 -99.65 -37.0 -103.2 -36.75 -106.75 -36.5 -110.25 Q-36.2 -111.35 -35.3 -111.45 L-33.65 -111.6 M-34.05 -108.45 Q-34.75 -103.55 -34.5 -100.55 L-34.5 -98.75 -34.7 -95.1 -34.8 -91.2 -34.75 -89.4 -34.7 -87.95 Q-34.6 -87.1 -34.3 -86.85 L-27.75 -86.35 -27.2 -86.35 -22.9 -86.15 -21.45 -86.25 -19.85 -86.15 Q-19.15 -86.85 -19.1 -89.85 -19.0 -90.55 -19.4 -90.7 L-20.8 -90.9 -22.2 -91.05 -23.9 -91.2 Q-25.45 -91.15 -25.85 -92.25 L-25.85 -96.3 -25.2 -97.1 -21.9 -97.35 -21.8 -97.4 Q-21.65 -98.8 -22.4 -99.9 -24.55 -101.1 -26.6 -101.05 L-28.2 -100.9 Q-29.15 -101.15 -29.25 -102.0 L-29.5 -103.05 -29.5 -104.9 Q-29.4 -106.15 -28.6 -106.95 L-24.4 -107.1 -20.5 -107.05 -20.35 -107.9 -20.5 -109.05 -21.3 -109.5 -22.65 -109.9 -24.7 -110.0 -29.45 -109.55 -33.85 -108.65 -34.05 -108.45" fill="url(#gradient8)" fill-rule="evenodd" stroke="none"/>
    <path d="M-123.9 -104.05 Q-120.25 -110.2 -114.65 -111.5 L-112.4 -112.2 -109.4 -112.7 -107.75 -112.5 Q-106.95 -112.3 -106.55 -111.3 L-106.55 -101.95 Q-107.1 -100.95 -108.3 -100.95 L-109.1 -100.95 -109.85 -100.95 -110.7 -100.85 -113.1 -100.35 Q-114.25 -99.95 -114.7 -99.1 L-114.45 -97.9 -113.85 -96.8 -113.25 -96.2 -113.05 -96.8 -112.75 -97.5 -112.45 -98.55 Q-112.35 -99.7 -111.45 -99.95 L-107.55 -99.5 Q-105.45 -99.1 -104.0 -97.95 -102.95 -96.25 -102.5 -93.6 L-102.0 -88.9 Q-102.6 -87.25 -104.0 -85.9 -105.4 -84.65 -106.95 -84.2 L-110.8 -83.65 Q-116.5 -83.7 -119.6 -87.45 -125.1 -92.35 -125.4 -98.75 -125.4 -100.1 -124.9 -101.5 L-123.9 -104.05 M-115.6 -102.55 L-110.45 -104.05 -109.55 -104.0 -109.1 -103.85 -109.15 -110.3 -109.55 -110.3 -114.5 -109.25 Q-117.05 -108.45 -118.4 -107.4 -122.8 -102.4 -122.85 -98.05 -122.25 -93.35 -119.3 -89.95 L-116.55 -87.85 Q-115.1 -86.95 -113.55 -86.95 L-111.05 -86.5 Q-108.05 -86.5 -105.55 -88.5 -104.65 -89.05 -104.65 -90.35 L-104.75 -91.5 -104.9 -92.6 -105.15 -94.55 Q-105.25 -95.6 -105.6 -96.0 L-107.1 -96.45 -108.7 -96.8 -110.1 -97.0 -110.95 -95.5 -111.25 -94.15 Q-111.4 -93.1 -112.15 -92.6 L-112.7 -92.5 Q-113.2 -92.5 -113.3 -92.8 -114.35 -93.4 -114.5 -93.75 -117.6 -96.65 -117.15 -100.35 -117.15 -100.95 -115.6 -102.55" fill="url(#gradient9)" fill-rule="evenodd" stroke="none"/>
    <path d="M-89.9 -104.25 Q-89.85 -104.75 -89.2 -105.2 L-84.2 -104.75 -83.25 -103.85 -83.5 -97.65 Q-83.6 -97.25 -84.3 -96.7 L-88.8 -97.5 Q-89.75 -97.9 -89.5 -99.4 L-88.8 -100.05 -88.9 -100.2 Q-89.7 -101.3 -89.9 -104.25 M-85.5 -102.1 L-87.35 -102.25 Q-87.4 -101.75 -86.0 -99.75 -85.6 -99.45 -85.3 -99.55 L-85.3 -101.85 -85.5 -102.1" fill="url(#gradient10)" fill-rule="evenodd" stroke="none"/>
    <path d="M-43.7 -87.45 L-43.45 -87.45 -43.45 -87.4 -43.7 -87.45" fill="url(#gradient11)" fill-rule="evenodd" stroke="none"/>
    <path d="M89.35 -108.0 Q88.9 -109.25 87.15 -109.25 L85.95 -109.15 Q85.3 -109.1 84.85 -108.7 84.0 -107.45 84.0 -105.45 L84.1 -102.75 86.0 -97.4 Q86.95 -96.4 88.05 -96.35 90.05 -96.15 90.7 -97.35 L90.35 -98.9 Q89.95 -99.8 90.05 -100.3 L89.35 -108.0 M81.1 -108.55 Q81.3 -108.9 81.95 -109.15 L83.25 -109.6 90.3 -110.35 92.2 -110.5 Q94.95 -110.5 99.8 -109.2 L100.75 -107.25 101.6 -105.2 Q101.95 -103.75 101.95 -102.15 L101.7 -99.9 101.5 -99.6 97.8 -98.6 Q95.4 -98.05 94.2 -97.3 L93.1 -97.0 92.1 -96.15 Q92.0 -95.25 92.6 -94.55 L93.7 -93.45 96.25 -91.3 98.5 -89.1 98.1 -88.6 97.4 -88.0 96.95 -88.0 92.25 -91.9 91.1 -91.95 Q90.6 -91.75 90.5 -91.2 L90.7 -89.6 90.95 -88.0 90.8 -87.05 89.4 -86.95 87.8 -86.85 81.35 -86.15 81.35 -86.2 Q81.1 -88.35 81.1 -93.1 81.15 -97.75 80.85 -100.25 80.85 -105.75 81.1 -108.55" fill="url(#gradient12)" fill-rule="evenodd" stroke="none"/>
    <path d="M2.2 -106.8 L2.2 -107.35 2.2 -107.95 Q2.2 -110.4 10.3 -110.35 L12.55 -110.2 15.6 -109.4 16.5 -108.95 17.15 -108.45 17.45 -105.05 16.9 -99.3 16.05 -93.4 Q15.45 -90.0 14.4 -87.95 L12.55 -86.0 9.8 -86.35 6.55 -86.95 4.15 -87.45 Q2.95 -87.9 2.45 -88.5 1.9 -91.85 1.95 -97.4 1.55 -105.2 1.1 -105.3 2.2 -106.05 2.2 -106.8 M13.3 -107.3 Q13.1 -108.0 11.7 -108.6 10.2 -109.0 9.75 -107.9 10.2 -104.1 10.0 -98.6 10.25 -96.95 11.05 -96.6 12.95 -96.35 13.85 -97.3 14.5 -98.8 14.5 -100.35 L14.05 -103.9 13.3 -107.3" fill="url(#gradient13)" fill-rule="evenodd" stroke="none"/>
    <path d="M25.75 -106.95 L28.45 -107.65 34.9 -109.3 35.0 -109.25 35.25 -108.65 37.45 -99.95 38.3 -98.6 Q38.9 -96.4 40.75 -96.65 41.5 -98.1 41.55 -98.85 42.6 -101.05 43.2 -105.15 L44.3 -109.0 44.65 -109.9 49.05 -108.95 Q49.25 -108.7 48.7 -107.05 48.3 -106.0 47.8 -103.4 L47.0 -99.65 Q46.6 -98.8 44.95 -92.65 43.9 -88.6 42.8 -86.2 L42.55 -86.05 39.15 -86.15 35.8 -86.25 Q34.45 -86.8 31.8 -91.8 L28.25 -99.5 Q27.75 -100.5 27.2 -102.65 L26.05 -105.85 25.8 -106.8 25.75 -106.95" fill="url(#gradient14)" fill-rule="evenodd" stroke="none"/>
    <path d="M57.55 -100.55 Q57.3 -103.55 58.0 -108.45 L58.2 -108.65 62.6 -109.55 67.35 -110.0 69.35 -109.9 70.75 -109.5 71.55 -109.05 71.7 -107.9 71.55 -107.05 67.65 -107.1 63.45 -106.95 Q62.65 -106.15 62.55 -104.9 L62.55 -103.05 62.8 -102.0 Q62.9 -101.15 63.85 -100.9 L65.45 -101.05 Q67.5 -101.1 69.65 -99.9 70.4 -98.8 70.25 -97.4 L70.15 -97.35 66.85 -97.1 66.15 -96.3 66.15 -92.25 Q66.55 -91.15 68.15 -91.2 L69.85 -91.05 71.25 -90.9 72.65 -90.7 Q73.05 -90.55 72.95 -89.85 72.9 -86.85 72.2 -86.15 L70.6 -86.25 69.15 -86.15 64.85 -86.35 64.3 -86.35 57.75 -86.85 Q57.45 -87.1 57.35 -87.95 L57.3 -89.4 Q57.2 -90.2 57.25 -91.2 L57.35 -95.1 57.55 -98.75 57.55 -100.55" fill="url(#gradient15)" fill-rule="evenodd" stroke="none"/>
    <path d="M-76.7 -108.05 L-76.1 -106.0 Q-75.95 -103.75 -76.3 -96.8 L-76.5 -88.95 Q-76.65 -88.6 -77.35 -88.5 L-78.95 -88.35 -80.6 -88.1 -81.95 -88.0 -82.05 -88.0 Q-81.8 -89.05 -81.9 -93.45 -82.1 -94.45 -83.25 -95.0 L-85.75 -94.85 -88.25 -94.7 Q-89.2 -93.7 -88.8 -91.55 L-88.25 -88.45 -88.4 -88.35 -89.25 -88.35 -91.15 -88.45 -93.0 -88.65 -94.15 -88.5 -94.8 -88.65 -95.25 -88.7 Q-95.45 -93.7 -95.9 -94.9 -95.65 -96.4 -96.5 -98.3 L-96.3 -99.3 Q-96.3 -99.95 -96.65 -101.6 L-96.85 -103.9 Q-97.3 -105.15 -97.2 -106.05 -95.8 -106.95 -93.15 -107.45 L-88.35 -108.1 -84.35 -108.4 -80.5 -108.3 -76.7 -108.05 M-89.9 -104.25 Q-89.7 -101.3 -88.9 -100.2 L-88.8 -100.05 -89.5 -99.4 Q-89.75 -97.9 -88.8 -97.5 L-84.3 -96.7 Q-83.6 -97.25 -83.5 -97.65 L-83.25 -103.85 -84.2 -104.75 -89.2 -105.2 Q-89.85 -104.75 -89.9 -104.25" fill="url(#gradient16)" fill-rule="evenodd" stroke="none"/>
    <path d="M-43.7 -87.45 L-47.5 -90.3 Q-49.0 -90.8 -49.8 -89.65 L-52.6 -87.05 Q-52.95 -87.05 -53.75 -87.7 -54.25 -87.65 -55.2 -88.95 -57.35 -90.9 -58.55 -91.25 -59.75 -91.15 -60.05 -90.35 -60.65 -88.4 -60.7 -85.55 L-60.75 -85.45 -64.1 -85.6 -67.4 -85.9 Q-67.65 -86.3 -67.7 -87.45 L-67.95 -89.45 Q-67.75 -94.4 -67.95 -96.7 L-67.95 -102.95 Q-67.9 -105.75 -67.4 -107.8 -67.05 -108.2 -66.1 -108.25 L-64.25 -108.3 -56.9 -109.05 -56.3 -109.2 Q-55.3 -109.2 -54.2 -107.9 L-51.9 -105.7 Q-51.25 -104.95 -50.2 -104.7 -49.2 -104.8 -49.1 -105.75 L-48.85 -106.95 Q-48.45 -108.85 -47.55 -110.45 L-46.5 -110.45 -44.0 -109.55 -43.75 -109.3 -43.6 -101.55 -43.15 -93.6 -43.35 -90.35 -43.45 -87.45 -43.7 -87.45" fill="url(#gradient17)" fill-rule="evenodd" stroke="none"/>
    <path d="M-34.05 -108.45 L-33.85 -108.65 -29.45 -109.55 -24.7 -110.0 -22.65 -109.9 -21.3 -109.5 -20.5 -109.05 -20.35 -107.9 -20.5 -107.05 -24.4 -107.1 -28.6 -106.95 Q-29.4 -106.15 -29.5 -104.9 L-29.5 -103.05 -29.25 -102.0 Q-29.15 -101.15 -28.2 -100.9 L-26.6 -101.05 Q-24.55 -101.1 -22.4 -99.9 -21.65 -98.8 -21.8 -97.4 L-21.9 -97.35 -25.2 -97.1 -25.85 -96.3 -25.85 -92.25 Q-25.45 -91.15 -23.9 -91.2 L-22.2 -91.05 -20.8 -90.9 -19.4 -90.7 Q-19.0 -90.55 -19.1 -89.85 -19.15 -86.85 -19.85 -86.15 L-21.45 -86.25 -22.9 -86.15 -27.2 -86.35 -27.75 -86.35 -34.3 -86.85 Q-34.6 -87.1 -34.7 -87.95 L-34.75 -89.4 -34.8 -91.2 -34.7 -95.1 -34.5 -98.75 -34.5 -100.55 Q-34.75 -103.55 -34.05 -108.45" fill="url(#gradient18)" fill-rule="evenodd" stroke="none"/>
    <path d="M-115.6 -102.55 Q-117.15 -100.95 -117.15 -100.35 -117.6 -96.65 -114.5 -93.75 -114.35 -93.4 -113.3 -92.8 -113.2 -92.5 -112.7 -92.5 L-112.15 -92.6 Q-111.4 -93.1 -111.25 -94.15 L-110.95 -95.5 -110.1 -97.0 -108.7 -96.8 -107.1 -96.45 -105.6 -96.0 Q-105.25 -95.6 -105.15 -94.55 L-104.9 -92.6 -104.75 -91.5 -104.65 -90.35 Q-104.65 -89.05 -105.55 -88.5 -108.05 -86.5 -111.05 -86.5 L-113.55 -86.95 Q-115.1 -86.95 -116.55 -87.85 L-119.3 -89.95 Q-122.25 -93.35 -122.85 -98.05 -122.8 -102.4 -118.4 -107.4 -117.05 -108.45 -114.5 -109.25 L-109.55 -110.3 -109.15 -110.3 -109.1 -103.85 -109.55 -104.0 -110.45 -104.05 -115.6 -102.55" fill="url(#gradient19)" fill-rule="evenodd" stroke="none"/>
  </g>
  <defs>
    <radialGradient cx="0" cy="0" gradientTransform="matrix(0.0363, 0.0, 0.0, 0.0363, 79.8, -108.15)" gradientUnits="userSpaceOnUse" id="gradient0" r="819.2" spreadMethod="pad">
      <stop offset="0.0" stop-color="#ffffff"/>
      <stop offset="1.0" stop-color="#ff0000"/>
      <stop offset="1.0" stop-color="#ff66cc"/>
    </radialGradient>
    <radialGradient cx="0" cy="0" gradientTransform="matrix(0.0124, 0.0, 0.0, 0.0124, 85.55, -105.6)" gradientUnits="userSpaceOnUse" id="gradient1" r="819.2" spreadMethod="pad">
      <stop offset="0.0" stop-color="#ffffff"/>
      <stop offset="1.0" stop-color="#ff0000"/>
      <stop offset="1.0" stop-color="#ff66cc"/>
    </radialGradient>
    <radialGradient cx="0" cy="0" gradientTransform="matrix(0.0348, 0.0, 0.0, 0.0348, 1.9, -109.75)" gradientUnits="userSpaceOnUse" id="gradient2" r="819.2" spreadMethod="pad">
      <stop offset="0.0" stop-color="#ffffff"/>
      <stop offset="1.0" stop-color="#ff0000"/>
      <stop offset="1.0" stop-color="#ff66cc"/>
    </radialGradient>
    <radialGradient cx="0" cy="0" gradientTransform="matrix(0.0127, 0.0, 0.0, 0.0127, 10.8, -106.9)" gradientUnits="userSpaceOnUse" id="gradient3" r="819.2" spreadMethod="pad">
      <stop offset="0.0" stop-color="#ffffff"/>
      <stop offset="1.0" stop-color="#ff0000"/>
      <stop offset="1.0" stop-color="#ff66cc"/>
    </radialGradient>
    <radialGradient cx="0" cy="0" gradientTransform="matrix(0.0391, 0.0, 0.0, 0.0391, 24.45, -108.15)" gradientUnits="userSpaceOnUse" id="gradient4" r="819.2" spreadMethod="pad">
      <stop offset="0.0" stop-color="#ffffff"/>
      <stop offset="1.0" stop-color="#ff0000"/>
      <stop offset="1.0" stop-color="#ff66cc"/>
    </radialGradient>
    <radialGradient cx="0" cy="0" gradientTransform="matrix(0.0381, 0.0, 0.0, 0.0381, 56.9, -108.8)" gradientUnits="userSpaceOnUse" id="gradient5" r="819.2" spreadMethod="pad">
      <stop offset="0.0" stop-color="#ffffff"/>
      <stop offset="1.0" stop-color="#ff0000"/>
      <stop offset="1.0" stop-color="#ff66cc"/>
    </radialGradient>
    <radialGradient cx="0" cy="0" gradientTransform="matrix(0.0374, 0.0, 0.0, 0.0374, -96.0, -108.15)" gradientUnits="userSpaceOnUse" id="gradient6" r="819.2" spreadMethod="pad">
      <stop offset="0.0" stop-color="#ffffff"/>
      <stop offset="1.0" stop-color="#ff0000"/>
      <stop offset="1.0" stop-color="#ff66cc"/>
    </radialGradient>
    <radialGradient cx="0" cy="0" gradientTransform="matrix(0.044, 0.0, 0.0, 0.0439, -67.7, -108.8)" gradientUnits="userSpaceOnUse" id="gradient7" r="819.2" spreadMethod="pad">
      <stop offset="0.0" stop-color="#ffffff"/>
      <stop offset="1.0" stop-color="#ff0000"/>
      <stop offset="1.0" stop-color="#ff66cc"/>
    </radialGradient>
    <radialGradient cx="0" cy="0" gradientTransform="matrix(0.0218, 0.0, 0.0, 0.0218, -26.95, -98.2)" gradientUnits="userSpaceOnUse" id="gradient8" r="819.2" spreadMethod="pad">
      <stop offset="0.0" stop-color="#ffffff"/>
      <stop offset="1.0" stop-color="#ff0000"/>
      <stop offset="1.0" stop-color="#ff66cc"/>
    </radialGradient>
    <radialGradient cx="0" cy="0" gradientTransform="matrix(0.0336, 0.0, 0.0, 0.0336, -119.25, -107.85)" gradientUnits="userSpaceOnUse" id="gradient9" r="819.2" spreadMethod="pad">
      <stop offset="0.0" stop-color="#ffffff"/>
      <stop offset="1.0" stop-color="#ff0000"/>
      <stop offset="1.0" stop-color="#ff66cc"/>
    </radialGradient>
    <radialGradient cx="0" cy="0" gradientTransform="matrix(0.0095, 0.0, 0.0, 0.0095, -88.4, -103.05)" gradientUnits="userSpaceOnUse" id="gradient10" r="819.2" spreadMethod="pad">
      <stop offset="0.0" stop-color="#ffffff"/>
      <stop offset="1.0" stop-color="#ff0000"/>
      <stop offset="1.0" stop-color="#ff66cc"/>
    </radialGradient>
    <linearGradient gradientTransform="matrix(-0.0045, 0.0172, -0.0167, -0.0044, -55.4, -97.75)" gradientUnits="userSpaceOnUse" id="gradient11" spreadMethod="pad" x1="-819.2" x2="819.2">
      <stop offset="0.0" stop-color="#ffffff"/>
      <stop offset="0.396078431372549" stop-color="#e9f7ff"/>
      <stop offset="1.0" stop-color="#0099ff"/>
      <stop offset="1.0" stop-color="#ff66cc"/>
    </linearGradient>
    <linearGradient gradientTransform="matrix(0.0, -0.0148, 0.0129, 0.0, 91.4, -98.3)" gradientUnits="userSpaceOnUse" id="gradient12" spreadMethod="pad" x1="-819.2" x2="819.2">
      <stop offset="0.0" stop-color="#ffffff"/>
      <stop offset="0.396078431372549" stop-color="#ff6600"/>
      <stop offset="1.0" stop-color="#ff0000"/>
      <stop offset="1.0" stop-color="#ff66cc"/>
    </linearGradient>
    <linearGradient gradientTransform="matrix(0.0, -0.0149, 0.0099, 0.0, 9.25, -98.2)" gradientUnits="userSpaceOnUse" id="gradient13" spreadMethod="pad" x1="-819.2" x2="819.2">
      <stop offset="0.0" stop-color="#ffffff"/>
      <stop offset="0.396078431372549" stop-color="#ff6600"/>
      <stop offset="1.0" stop-color="#ff0000"/>
      <stop offset="1.0" stop-color="#ff66cc"/>
    </linearGradient>
    <linearGradient gradientTransform="matrix(0.0, -0.0146, 0.0143, 0.0, 37.45, -97.95)" gradientUnits="userSpaceOnUse" id="gradient14" spreadMethod="pad" x1="-819.2" x2="819.2">
      <stop offset="0.0" stop-color="#ffffff"/>
      <stop offset="0.396078431372549" stop-color="#ff6600"/>
      <stop offset="1.0" stop-color="#ff0000"/>
      <stop offset="1.0" stop-color="#ff66cc"/>
    </linearGradient>
    <linearGradient gradientTransform="matrix(0.0, -0.0146, 0.0096, 0.0, 65.05, -98.05)" gradientUnits="userSpaceOnUse" id="gradient15" spreadMethod="pad" x1="-819.2" x2="819.2">
      <stop offset="0.0" stop-color="#ffffff"/>
      <stop offset="0.396078431372549" stop-color="#ff6600"/>
      <stop offset="1.0" stop-color="#ff0000"/>
      <stop offset="1.0" stop-color="#ff66cc"/>
    </linearGradient>
    <linearGradient gradientTransform="matrix(0.0, -0.0125, 0.0129, 0.0, -86.65, -98.2)" gradientUnits="userSpaceOnUse" id="gradient16" spreadMethod="pad" x1="-819.2" x2="819.2">
      <stop offset="0.0" stop-color="#ffffff"/>
      <stop offset="0.396078431372549" stop-color="#ff6600"/>
      <stop offset="1.0" stop-color="#ff0000"/>
      <stop offset="1.0" stop-color="#ff66cc"/>
    </linearGradient>
    <linearGradient gradientTransform="matrix(0.0, -0.0153, 0.0151, 0.0, -55.55, -97.95)" gradientUnits="userSpaceOnUse" id="gradient17" spreadMethod="pad" x1="-819.2" x2="819.2">
      <stop offset="0.0" stop-color="#ffffff"/>
      <stop offset="0.396078431372549" stop-color="#ff6600"/>
      <stop offset="1.0" stop-color="#ff0000"/>
      <stop offset="1.0" stop-color="#ff66cc"/>
    </linearGradient>
    <linearGradient gradientTransform="matrix(0.0, -0.0146, 0.0096, 0.0, -27.0, -98.05)" gradientUnits="userSpaceOnUse" id="gradient18" spreadMethod="pad" x1="-819.2" x2="819.2">
      <stop offset="0.0" stop-color="#ffffff"/>
      <stop offset="0.396078431372549" stop-color="#ff6600"/>
      <stop offset="1.0" stop-color="#ff0000"/>
      <stop offset="1.0" stop-color="#ff66cc"/>
    </linearGradient>
    <linearGradient gradientTransform="matrix(0.0, -0.0145, 0.0111, 0.0, -113.8, -98.4)" gradientUnits="userSpaceOnUse" id="gradient19" spreadMethod="pad" x1="-819.2" x2="819.2">
      <stop offset="0.0" stop-color="#ffffff"/>
      <stop offset="0.396078431372549" stop-color="#ff6600"/>
      <stop offset="1.0" stop-color="#ff0000"/>
      <stop offset="1.0" stop-color="#ff66cc"/>
    </linearGradient>
  </defs>
</svg>
