<?xml version="1.0" encoding="UTF-8" standalone="no"?>
<svg xmlns:xlink="http://www.w3.org/1999/xlink" height="30.05px" width="224.4px" xmlns="http://www.w3.org/2000/svg">
  <g transform="matrix(1.0, 0.0, 0.0, 1.0, 12.45, 0.0)">
    <path d="M202.9 1.65 L204.9 2.05 206.85 2.8 Q208.8 3.4 209.8 6.85 L209.9 7.9 209.5 11.75 209.0 14.55 207.5 15.5 Q206.2 16.4 206.35 17.65 L206.45 18.3 206.25 18.9 205.95 19.05 203.3 19.2 200.75 19.5 200.5 18.95 200.55 18.65 200.55 18.3 200.3 17.3 Q199.8 16.35 199.75 15.35 L199.9 14.45 200.05 14.0 Q203.45 14.15 204.55 12.1 205.4 10.5 205.4 9.1 L205.3 8.1 Q204.75 7.3 203.65 7.5 L202.05 7.85 200.65 8.0 Q199.55 8.0 198.85 7.1 L197.65 6.15 196.5 5.35 197.15 4.8 197.8 3.8 Q199.9 2.0 202.9 1.65" fill="url(#gradient0)" fill-rule="evenodd" stroke="none"/>
    <path d="M204.7 0.15 L208.2 1.5 Q211.95 3.5 211.95 7.85 211.95 11.5 210.7 15.55 210.4 16.3 209.4 16.75 208.35 17.2 208.35 17.5 L208.55 18.05 208.55 19.2 208.2 20.35 Q207.45 20.95 206.25 20.95 L204.5 20.95 202.05 21.25 199.25 21.45 198.55 20.75 197.5 14.75 197.9 13.45 Q198.15 12.3 199.1 12.1 L200.0 12.1 200.9 12.1 Q202.4 12.1 202.8 11.3 L203.2 9.6 203.0 9.55 202.3 9.7 Q202.05 9.7 201.45 10.1 L200.4 10.45 199.75 10.3 197.2 8.65 Q195.7 7.55 194.8 6.65 194.1 5.85 194.4 4.85 196.0 2.2 197.9 1.65 199.2 1.1 200.2 0.7 202.05 0.0 203.35 0.0 L204.7 0.15 M202.9 1.65 Q199.9 2.0 197.8 3.8 L197.15 4.8 196.5 5.35 197.65 6.15 198.85 7.1 Q199.55 8.0 200.65 8.0 L202.05 7.85 203.65 7.5 Q204.75 7.3 205.3 8.1 L205.4 9.1 Q205.4 10.5 204.55 12.1 203.45 14.15 200.05 14.0 L199.9 14.45 199.75 15.35 Q199.8 16.35 200.3 17.3 L200.55 18.3 200.55 18.65 200.5 18.95 200.75 19.5 203.3 19.2 205.95 19.05 206.25 18.9 206.45 18.3 206.35 17.65 Q206.2 16.4 207.5 15.5 L209.0 14.55 209.5 11.75 209.9 7.9 209.8 6.85 Q208.8 3.4 206.85 2.8 L204.9 2.05 202.9 1.65" fill="url(#gradient1)" fill-rule="evenodd" stroke="none"/>
    <path d="M205.9 24.0 L206.05 24.15 206.25 27.85 205.95 27.85 205.45 27.8 204.85 27.75 204.35 27.85 201.7 27.85 201.65 27.3 201.65 26.15 201.65 24.8 Q201.6 24.3 201.9 24.2 L205.9 24.0" fill="url(#gradient2)" fill-rule="evenodd" stroke="none"/>
    <path d="M207.5 22.9 Q208.1 23.9 208.1 25.85 208.05 27.85 208.35 28.65 L207.9 29.45 Q205.1 29.15 202.45 29.45 L201.65 29.7 200.5 29.55 200.1 28.9 199.9 24.5 199.7 23.8 Q199.55 23.4 199.7 22.9 L200.3 22.5 205.9 22.05 Q206.85 22.1 207.5 22.9 M205.9 24.0 L201.9 24.2 Q201.6 24.3 201.65 24.8 L201.65 26.15 201.65 27.3 201.7 27.85 204.35 27.85 204.85 27.75 205.45 27.8 205.95 27.85 206.25 27.85 206.05 24.15 205.9 24.0" fill="url(#gradient3)" fill-rule="evenodd" stroke="none"/>
    <path d="M182.3 6.95 L182.1 7.4 Q182.1 8.55 181.85 8.35 L183.5 20.15 Q183.05 20.95 182.2 20.85 L179.65 18.0 Q178.9 17.45 177.45 15.95 L176.5 10.8 176.35 9.3 176.05 8.2 175.2 8.1 173.35 8.5 Q172.05 8.65 171.5 8.95 171.2 9.05 171.3 10.2 171.0 12.4 171.0 15.25 L171.2 20.7 171.3 26.15 171.5 26.85 171.6 27.3 176.85 26.1 177.1 25.9 177.3 20.0 177.7 19.3 Q178.4 19.0 179.0 19.6 180.55 22.65 183.55 24.9 L184.75 25.85 185.75 26.5 188.85 26.05 Q189.25 25.35 189.5 23.65 L190.0 20.85 189.7 16.05 Q189.4 12.7 189.45 10.6 L189.45 9.0 Q189.55 8.3 189.25 8.0 187.6 7.3 182.3 6.95 M191.0 8.1 L191.0 9.8 Q190.9 11.75 191.2 15.0 L191.5 20.25 Q191.5 22.9 190.95 24.9 L190.7 26.6 Q190.5 27.55 189.9 28.1 L187.8 28.35 Q186.65 28.45 186.05 28.8 L185.1 28.65 181.95 25.85 178.95 23.05 178.65 27.55 Q178.1 28.1 177.25 28.2 L176.05 28.45 173.9 28.9 Q172.5 29.2 171.65 29.65 170.35 29.55 170.1 28.5 L169.6 26.5 169.5 21.45 169.2 16.5 169.35 13.65 169.5 12.1 169.6 10.55 169.55 9.55 Q169.5 9.35 168.95 9.25 168.4 9.1 168.3 8.45 168.25 7.35 169.15 7.05 L172.85 6.3 177.0 5.7 Q177.55 6.5 177.75 7.4 L178.1 9.35 178.75 13.35 Q179.2 15.45 180.9 16.3 L181.45 17.0 181.35 15.75 180.5 9.95 180.2 5.95 Q180.35 5.4 181.05 4.8 L182.6 4.7 Q186.35 4.7 190.15 5.85 190.95 6.55 191.0 8.1" fill="url(#gradient4)" fill-rule="evenodd" stroke="none"/>
    <path d="M182.3 6.95 Q187.6 7.3 189.25 8.0 189.55 8.3 189.45 9.0 L189.45 10.6 Q189.4 12.7 189.7 16.05 L190.0 20.85 189.5 23.65 Q189.25 25.35 188.85 26.05 L185.75 26.5 184.75 25.85 183.55 24.9 Q180.55 22.65 179.0 19.6 178.4 19.0 177.7 19.3 L177.3 20.0 177.1 25.9 176.85 26.1 171.6 27.3 171.5 26.85 171.3 26.15 171.2 20.7 171.0 15.25 Q171.0 12.4 171.3 10.2 171.2 9.05 171.5 8.95 172.05 8.65 173.35 8.5 L175.2 8.1 176.05 8.2 176.35 9.3 176.5 10.8 177.45 15.95 Q178.9 17.45 179.65 18.0 L182.2 20.85 Q183.05 20.95 183.5 20.15 L181.85 8.35 Q182.1 8.55 182.1 7.4 L182.3 6.95" fill="url(#gradient5)" fill-rule="evenodd" stroke="none"/>
    <path d="M164.65 7.15 L165.65 16.3 165.85 18.7 165.7 21.5 165.4 24.35 165.35 25.8 Q165.15 26.95 164.3 27.5 L160.75 28.0 157.25 28.5 155.25 28.55 Q154.35 28.1 154.35 26.95 L154.5 25.8 Q155.75 19.25 155.65 10.45 L155.55 9.3 155.65 7.85 155.85 6.45 Q156.35 5.7 157.2 5.7 L157.9 5.85 159.3 5.9 161.65 5.7 163.3 5.9 Q164.3 6.2 164.65 7.15 M163.8 18.5 L163.35 13.55 162.65 8.4 160.2 8.25 157.75 8.3 157.65 8.6 157.6 14.75 157.15 21.0 156.5 26.2 159.6 25.95 162.8 25.4 Q162.95 25.35 163.05 25.25 L163.7 20.5 163.8 18.5 M157.75 8.3 L157.75 8.2 157.6 8.25 157.75 8.3 M156.5 26.2 L156.35 26.2 156.45 26.3 156.5 26.2" fill="url(#gradient6)" fill-rule="evenodd" stroke="none"/>
    <path d="M163.8 18.5 L163.7 20.5 163.05 25.25 Q162.95 25.35 162.8 25.4 L159.6 25.95 156.5 26.2 157.15 21.0 157.6 14.75 157.65 8.6 157.75 8.3 160.2 8.25 162.65 8.4 163.35 13.55 163.8 18.5" fill="url(#gradient7)" fill-rule="evenodd" stroke="none"/>
    <path d="M142.65 8.55 L139.25 8.8 135.2 9.35 Q133.0 9.8 131.8 10.55 131.7 11.3 132.1 12.35 L132.25 14.3 132.55 16.25 132.4 17.1 Q133.1 18.7 132.9 19.95 133.3 21.0 133.45 25.2 L133.8 25.25 134.35 25.35 135.35 25.25 136.9 25.4 138.5 25.5 139.2 25.5 139.35 25.4 138.9 22.8 Q138.55 21.0 139.35 20.15 L141.45 20.0 143.55 19.9 Q144.55 20.35 144.7 21.2 L144.6 25.8 144.65 25.8 145.8 25.7 147.2 25.5 148.55 25.35 Q149.15 25.3 149.25 25.0 L149.45 18.35 149.6 10.6 Q149.35 9.25 149.1 8.85 L145.9 8.65 142.65 8.55 M151.45 10.9 L151.0 24.8 150.8 26.3 149.85 27.5 143.65 27.95 Q143.2 28.0 142.75 27.2 142.45 25.5 142.65 22.35 L142.1 22.25 140.95 22.45 Q140.8 22.55 140.9 23.1 140.5 25.35 140.9 25.55 141.3 26.85 140.35 27.55 L139.05 27.7 137.3 27.55 135.6 27.4 133.55 27.4 132.2 27.95 132.1 24.25 Q132.2 22.4 131.7 21.3 131.8 19.9 131.5 18.0 130.9 15.2 130.9 14.1 L130.5 12.0 130.15 9.85 Q130.15 8.95 131.4 8.15 L133.65 7.5 145.2 6.5 149.15 6.7 150.2 6.75 Q151.1 7.45 151.25 8.75 L151.45 10.9" fill="url(#gradient8)" fill-rule="evenodd" stroke="none"/>
    <path d="M142.65 8.55 L145.9 8.65 149.1 8.85 Q149.35 9.25 149.6 10.6 L149.45 18.35 149.25 25.0 Q149.15 25.3 148.55 25.35 L147.2 25.5 145.8 25.7 144.65 25.8 144.6 25.8 144.7 21.2 Q144.55 20.35 143.55 19.9 L141.45 20.0 139.35 20.15 Q138.55 21.0 138.9 22.8 L139.35 25.4 139.2 25.5 138.5 25.5 136.9 25.4 135.35 25.25 134.35 25.35 133.8 25.25 133.45 25.2 Q133.3 21.0 132.9 19.95 133.1 18.7 132.4 17.1 L132.55 16.25 132.25 14.3 132.1 12.35 Q131.7 11.3 131.8 10.55 133.0 9.8 135.2 9.35 L139.25 8.8 142.65 8.55 M143.35 17.65 L143.55 12.4 142.75 11.65 138.55 11.25 Q138.0 11.65 137.95 12.05 138.15 14.55 138.8 15.5 L138.9 15.6 138.3 16.15 Q138.1 17.45 138.9 17.75 L142.7 18.45 143.35 17.65" fill="url(#gradient9)" fill-rule="evenodd" stroke="none"/>
    <path d="M141.85 14.1 L141.65 13.9 140.1 13.8 Q140.1 14.2 141.25 15.85 141.6 16.15 141.85 16.05 L141.85 14.1 M143.35 17.65 L142.7 18.45 138.9 17.75 Q138.1 17.45 138.3 16.15 L138.9 15.6 138.8 15.5 Q138.15 14.55 137.95 12.05 138.0 11.65 138.55 11.25 L142.75 11.65 143.55 12.4 143.35 17.65" fill="url(#gradient10)" fill-rule="evenodd" stroke="none"/>
    <path d="M121.75 12.3 L121.7 6.95 121.35 6.95 117.2 7.85 Q115.05 8.55 113.9 9.4 110.2 13.65 110.15 17.3 110.65 21.3 113.15 24.15 L115.45 25.9 Q116.7 26.7 118.0 26.7 L120.1 27.05 Q122.65 27.05 124.75 25.35 125.5 24.9 125.5 23.8 L125.4 22.85 125.3 21.9 125.1 20.25 Q125.0 19.4 124.7 19.05 L123.45 18.65 122.1 18.35 120.9 18.2 120.2 19.45 119.95 20.6 Q119.8 21.5 119.15 21.9 L118.7 22.0 Q118.3 22.0 118.2 21.75 L117.2 20.95 Q114.6 18.5 114.95 15.35 114.95 14.85 116.25 13.5 L120.6 12.25 121.35 12.3 121.75 12.4 121.75 12.3 M123.9 6.1 L123.9 14.0 Q123.45 14.85 122.4 14.85 L121.75 14.85 121.1 14.85 120.4 14.95 118.35 15.35 Q117.4 15.7 117.0 16.4 116.95 16.8 117.25 17.45 L117.75 18.35 118.25 18.85 118.4 18.35 118.65 17.75 118.9 16.9 Q119.0 15.95 119.75 15.7 L123.05 16.1 Q124.85 16.45 126.05 17.4 126.95 18.85 127.3 21.05 L127.75 25.05 Q127.25 26.45 126.05 27.55 124.9 28.65 123.55 29.0 L120.3 29.45 Q115.5 29.45 112.9 26.25 108.25 22.15 108.0 16.7 108.0 15.6 108.4 14.4 L109.25 12.25 Q112.35 7.05 117.05 5.95 L118.95 5.35 121.5 4.95 122.9 5.1 Q123.55 5.3 123.9 6.1" fill="url(#gradient11)" fill-rule="evenodd" stroke="none"/>
    <path d="M121.35 12.3 L120.6 12.25 116.25 13.5 Q114.95 14.85 114.95 15.35 114.6 18.5 117.2 20.95 L118.2 21.75 Q118.3 22.0 118.7 22.0 L119.15 21.9 Q119.8 21.5 119.95 20.6 L120.2 19.45 120.9 18.2 122.1 18.35 123.45 18.65 124.7 19.05 Q125.0 19.4 125.1 20.25 L125.3 21.9 125.4 22.85 125.5 23.8 Q125.5 24.9 124.75 25.35 122.65 27.05 120.1 27.05 L118.0 26.7 Q116.7 26.7 115.45 25.9 L113.15 24.15 Q110.65 21.3 110.15 17.3 110.2 13.65 113.9 9.4 115.05 8.55 117.2 7.85 L121.35 6.95 121.7 6.95 121.75 12.3 121.35 12.3" fill="url(#gradient12)" fill-rule="evenodd" stroke="none"/>
    <path d="M102.75 8.85 L99.55 8.65 96.3 8.55 92.9 8.8 88.85 9.35 Q86.65 9.8 85.45 10.55 85.35 11.3 85.75 12.35 L85.9 14.3 86.2 16.25 86.05 17.1 Q86.75 18.7 86.55 19.95 86.95 21.0 87.1 25.2 L87.45 25.25 88.0 25.35 89.0 25.25 90.55 25.4 92.15 25.5 92.85 25.5 93.0 25.4 92.55 22.8 Q92.2 21.0 93.0 20.15 L95.1 20.0 97.2 19.9 Q98.2 20.35 98.35 21.2 L98.25 25.8 98.3 25.8 99.45 25.7 100.85 25.5 102.2 25.35 Q102.8 25.3 102.9 25.0 L103.1 18.35 103.25 10.6 102.75 8.85 M103.85 6.75 Q104.75 7.45 104.9 8.75 L105.1 10.9 104.65 24.8 104.45 26.3 Q104.2 27.05 103.5 27.5 L97.3 27.95 Q96.85 28.0 96.4 27.2 96.1 25.5 96.3 22.35 L95.75 22.25 94.6 22.45 Q94.45 22.55 94.55 23.1 94.15 25.35 94.55 25.55 94.95 26.85 94.0 27.55 L92.7 27.7 90.95 27.55 89.25 27.4 87.2 27.4 85.85 27.95 85.75 24.25 Q85.85 22.4 85.35 21.3 85.45 19.9 85.15 18.0 84.55 15.2 84.55 14.1 L84.15 12.0 83.8 9.85 Q83.8 8.95 85.05 8.15 L87.3 7.5 98.85 6.5 102.8 6.7 103.85 6.75" fill="url(#gradient13)" fill-rule="evenodd" stroke="none"/>
    <path d="M102.75 8.85 L103.25 10.6 103.1 18.35 102.9 25.0 Q102.8 25.3 102.2 25.35 L100.85 25.5 99.45 25.7 98.3 25.8 98.25 25.8 98.35 21.2 Q98.2 20.35 97.2 19.9 L95.1 20.0 93.0 20.15 Q92.2 21.0 92.55 22.8 L93.0 25.4 92.85 25.5 92.15 25.5 90.55 25.4 89.0 25.25 88.0 25.35 87.45 25.25 87.1 25.2 Q86.95 21.0 86.55 19.95 86.75 18.7 86.05 17.1 L86.2 16.25 85.9 14.3 85.75 12.35 Q85.35 11.3 85.45 10.55 86.65 9.8 88.85 9.35 L92.9 8.8 96.3 8.55 99.55 8.65 102.75 8.85 M92.2 11.25 Q91.65 11.65 91.6 12.05 91.8 14.55 92.45 15.5 L92.55 15.6 91.95 16.15 Q91.75 17.45 92.55 17.75 L96.35 18.45 97.0 17.65 97.2 12.4 96.4 11.65 92.2 11.25" fill="url(#gradient14)" fill-rule="evenodd" stroke="none"/>
    <path d="M92.2 11.25 L96.4 11.65 97.2 12.4 97.0 17.65 96.35 18.45 92.55 17.75 Q91.75 17.45 91.95 16.15 L92.55 15.6 92.45 15.5 Q91.8 14.55 91.6 12.05 91.65 11.65 92.2 11.25 M93.75 13.8 Q93.75 14.2 94.9 15.85 95.25 16.15 95.5 16.05 L95.5 14.1 95.3 13.9 93.75 13.8" fill="url(#gradient15)" fill-rule="evenodd" stroke="none"/>
    <path d="M4.5 6.0 L5.4 6.65 Q7.25 8.85 7.25 12.1 6.5 16.1 1.65 18.8 L1.55 18.95 1.65 21.55 Q1.7 23.05 2.05 24.15 1.95 24.75 2.15 25.85 L2.25 27.7 1.65 28.1 Q-0.3 28.8 -3.75 28.95 L-9.2 29.35 Q-10.4 29.5 -10.65 28.45 -12.6 18.85 -12.45 10.65 L-12.45 6.9 Q-11.9 6.35 -11.1 6.05 L-10.0 5.5 Q-6.85 4.2 -0.5 4.45 L2.2 4.95 Q3.65 5.3 4.5 6.0 M3.9 7.8 L2.3 7.0 0.0 6.55 -6.65 6.9 Q-7.2 7.45 -8.65 7.9 L-10.4 8.7 -10.55 13.1 Q-10.55 20.3 -9.25 26.2 -9.1 27.0 -8.65 26.85 L-4.0 26.4 0.35 25.6 -0.25 20.05 -0.45 19.0 -0.65 17.85 -0.3 16.8 1.45 15.95 2.85 14.8 4.3 13.2 5.25 11.5 5.35 10.8 4.9 8.9 Q4.7 8.3 3.9 7.8 M0.35 25.6 L0.35 25.7 0.35 25.6" fill="url(#gradient16)" fill-rule="evenodd" stroke="none"/>
    <path d="M-3.85 12.0 Q-3.35 13.45 -3.35 14.35 L-3.55 15.7 -3.8 16.65 -4.65 17.8 -5.65 18.05 -6.65 18.25 Q-7.35 18.25 -7.7 17.6 -8.3 16.25 -8.4 13.45 -8.55 10.65 -8.9 9.45 -9.05 8.6 -8.15 8.4 -5.65 8.15 -4.5 9.95 L-3.85 12.0 M-6.65 10.95 L-6.5 13.75 Q-6.4 15.3 -6.05 15.75 L-5.8 15.65 Q-5.25 14.95 -5.25 13.75 -5.25 12.4 -5.8 11.45 -6.15 11.0 -6.65 10.95" fill="url(#gradient17)" fill-rule="evenodd" stroke="none"/>
    <path d="M25.65 19.15 Q22.75 18.95 16.85 19.0 L16.15 18.5 Q15.2 16.55 14.8 13.6 L14.25 8.5 13.9 8.2 12.95 8.15 11.95 8.1 Q11.05 8.1 10.7 8.45 9.85 12.65 10.0 15.5 10.35 21.65 10.0 25.45 L10.2 25.5 10.65 25.55 Q12.05 25.4 15.15 25.5 L19.35 25.35 22.5 25.25 25.25 25.3 25.4 25.2 25.7 22.3 Q26.35 19.2 25.9 19.2 L25.65 19.15 M27.6 17.85 Q27.4 23.95 26.95 27.0 26.9 27.65 26.0 27.85 20.4 27.65 12.25 28.15 L9.2 28.3 Q8.4 28.15 8.25 27.25 L8.35 22.75 8.45 18.45 8.35 15.9 8.25 13.35 8.65 9.95 8.9 6.65 Q9.05 5.85 9.7 5.75 L10.9 5.65 12.1 5.55 13.4 5.5 Q14.4 5.5 15.25 5.9 16.05 7.1 16.25 9.05 L16.5 12.45 16.8 14.4 17.4 16.15 17.65 16.35 26.9 16.45 Q27.45 16.8 27.6 17.85" fill="url(#gradient18)" fill-rule="evenodd" stroke="none"/>
    <path d="M42.8 12.1 L42.6 17.35 41.95 18.15 38.15 17.45 Q37.35 17.15 37.55 15.85 L38.15 15.3 38.05 15.2 Q37.4 14.25 37.2 11.75 37.25 11.35 37.8 10.95 L42.0 11.35 42.8 12.1 M41.1 13.8 L40.9 13.6 39.35 13.5 Q39.35 13.9 40.5 15.55 40.85 15.85 41.1 15.75 L41.1 13.8" fill="url(#gradient19)" fill-rule="evenodd" stroke="none"/>
    <path d="M73.65 3.85 L75.8 5.05 77.45 6.55 Q77.55 7.25 77.15 7.8 76.8 8.35 76.8 8.65 L75.2 11.35 73.6 13.8 70.2 18.45 Q69.35 19.3 68.35 20.95 L66.65 23.5 63.9 28.05 63.25 29.15 Q62.75 30.05 61.95 30.05 L61.45 30.0 59.7 29.3 57.85 28.6 55.55 27.55 53.6 26.2 53.65 25.4 58.45 18.85 60.5 16.55 54.3 5.45 Q54.0 4.45 55.05 4.1 L65.65 3.6 Q66.65 3.45 67.45 4.65 L68.85 7.5 69.25 6.95 Q69.8 6.2 70.2 6.0 L71.65 4.8 Q72.7 3.8 73.65 3.85 M56.95 6.15 Q58.55 9.7 61.95 14.95 L62.5 15.95 Q62.8 16.55 62.75 17.3 L60.7 19.95 Q59.5 21.0 58.3 22.7 L56.2 25.75 56.35 25.8 60.85 27.7 61.5 27.65 Q64.4 24.05 68.4 17.0 L72.1 12.25 Q74.35 9.0 75.0 6.95 L74.35 6.45 73.8 6.2 Q71.55 7.3 69.25 10.6 67.85 10.7 67.2 9.75 66.95 9.35 66.65 8.2 L66.1 6.7 65.6 5.85 64.0 5.8 60.5 5.95 57.0 6.1 56.95 6.1 56.95 6.15" fill="url(#gradient20)" fill-rule="evenodd" stroke="none"/>
    <path d="M41.9 8.25 L38.5 8.5 34.45 9.05 Q32.25 9.5 31.05 10.25 30.95 11.0 31.35 12.05 L31.5 14.0 31.8 15.95 31.65 16.8 Q32.35 18.4 32.15 19.65 32.55 20.7 32.7 24.9 L33.05 24.95 33.6 25.05 34.6 24.95 36.15 25.1 37.75 25.2 38.45 25.2 38.6 25.1 38.15 22.5 Q37.8 20.7 38.6 19.85 L40.7 19.7 42.8 19.6 Q43.8 20.05 43.95 20.9 L43.85 25.5 43.9 25.5 45.05 25.4 46.45 25.2 47.8 25.05 Q48.4 25.0 48.5 24.7 L48.7 18.05 48.85 10.3 48.35 8.55 45.15 8.35 41.9 8.25 M49.45 6.45 Q50.35 7.15 50.5 8.45 L50.7 10.6 50.25 24.5 50.05 26.0 Q49.8 26.75 49.1 27.2 L42.9 27.65 Q42.45 27.7 42.0 26.9 41.7 25.2 41.9 22.05 L41.35 21.95 40.2 22.15 Q40.05 22.25 40.15 22.8 39.75 25.05 40.15 25.25 40.55 26.55 39.6 27.25 L38.3 27.4 36.55 27.25 34.85 27.1 32.8 27.1 31.45 27.65 31.35 23.95 Q31.45 22.1 30.95 21.0 31.05 19.6 30.75 17.7 30.15 14.9 30.15 13.8 L29.75 11.7 29.4 9.55 Q29.4 8.65 30.65 7.85 L32.9 7.2 44.45 6.2 48.4 6.4 49.45 6.45" fill="url(#gradient21)" fill-rule="evenodd" stroke="none"/>
    <path d="M57.0 6.1 L60.5 5.95 64.0 5.8 65.6 5.85 66.1 6.7 66.65 8.2 Q66.95 9.35 67.2 9.75 67.85 10.7 69.25 10.6 71.55 7.3 73.8 6.2 L74.35 6.45 75.0 6.95 Q74.35 9.0 72.1 12.25 L68.4 17.0 Q64.4 24.05 61.5 27.65 L60.85 27.7 56.35 25.8 56.2 25.75 58.3 22.7 Q59.5 21.0 60.7 19.95 L62.75 17.3 Q62.8 16.55 62.5 15.95 L61.95 14.95 Q58.55 9.7 56.95 6.15 L57.0 6.1" fill="url(#gradient22)" fill-rule="evenodd" stroke="none"/>
    <path d="M41.9 8.25 L45.15 8.35 48.35 8.55 48.85 10.3 48.7 18.05 48.5 24.7 Q48.4 25.0 47.8 25.05 L46.45 25.2 45.05 25.4 43.9 25.5 43.85 25.5 43.95 20.9 Q43.8 20.05 42.8 19.6 L40.7 19.7 38.6 19.85 Q37.8 20.7 38.15 22.5 L38.6 25.1 38.45 25.2 37.75 25.2 36.15 25.1 34.6 24.95 33.6 25.05 33.05 24.95 32.7 24.9 Q32.55 20.7 32.15 19.65 32.35 18.4 31.65 16.8 L31.8 15.95 31.5 14.0 31.35 12.05 Q30.95 11.0 31.05 10.25 32.25 9.5 34.45 9.05 L38.5 8.5 41.9 8.25 M42.8 12.1 L42.0 11.35 37.8 10.95 Q37.25 11.35 37.2 11.75 37.4 14.25 38.05 15.2 L38.15 15.3 37.55 15.85 Q37.35 17.15 38.15 17.45 L41.95 18.15 42.6 17.35 42.8 12.1" fill="url(#gradient23)" fill-rule="evenodd" stroke="none"/>
    <path d="M25.65 19.15 L25.9 19.2 Q26.35 19.2 25.7 22.3 L25.4 25.2 25.25 25.3 22.5 25.25 19.35 25.35 15.15 25.5 Q12.05 25.4 10.65 25.55 L10.2 25.5 10.0 25.45 Q10.35 21.65 10.0 15.5 9.85 12.65 10.7 8.45 11.05 8.1 11.95 8.1 L12.95 8.15 13.9 8.2 14.25 8.5 14.8 13.6 Q15.2 16.55 16.15 18.5 L16.85 19.0 Q22.75 18.95 25.65 19.15" fill="url(#gradient24)" fill-rule="evenodd" stroke="none"/>
    <path d="M3.9 7.8 Q4.7 8.3 4.9 8.9 L5.35 10.8 5.25 11.5 4.3 13.2 2.85 14.8 1.45 15.95 -0.3 16.8 -0.65 17.85 -0.45 19.0 -0.25 20.05 0.35 25.6 -4.0 26.4 -8.65 26.85 Q-9.1 27.0 -9.25 26.2 -10.55 20.3 -10.55 13.1 L-10.4 8.7 -8.65 7.9 Q-7.2 7.45 -6.65 6.9 L0.0 6.55 2.3 7.0 3.9 7.8 M-3.85 12.0 L-4.5 9.95 Q-5.65 8.15 -8.15 8.4 -9.05 8.6 -8.9 9.45 -8.55 10.65 -8.4 13.45 -8.3 16.25 -7.7 17.6 -7.35 18.25 -6.65 18.25 L-5.65 18.05 -4.65 17.8 -3.8 16.65 -3.55 15.7 -3.35 14.35 Q-3.35 13.45 -3.85 12.0" fill="url(#gradient25)" fill-rule="evenodd" stroke="none"/>
  </g>
  <defs>
    <linearGradient gradientTransform="matrix(0.0, -0.0109, 0.0082, 0.0, 203.2, 10.6)" gradientUnits="userSpaceOnUse" id="gradient0" spreadMethod="pad" x1="-819.2" x2="819.2">
      <stop offset="0.0" stop-color="#ffffff"/>
      <stop offset="0.396078431372549" stop-color="#e9f7ff"/>
      <stop offset="1.0" stop-color="#0099ff"/>
      <stop offset="1.0" stop-color="#ff66cc"/>
    </linearGradient>
    <radialGradient cx="0" cy="0" gradientTransform="matrix(0.0249, 0.0, 0.0, 0.0249, 196.0, 4.2)" gradientUnits="userSpaceOnUse" id="gradient1" r="819.2" spreadMethod="pad">
      <stop offset="0.0" stop-color="#ffffff"/>
      <stop offset="0.396078431372549" stop-color="#e9f7ff"/>
      <stop offset="1.0" stop-color="#0099ff"/>
      <stop offset="1.0" stop-color="#ff66cc"/>
    </radialGradient>
    <linearGradient gradientTransform="matrix(0.0, -0.0024, 0.0028, 0.0, 203.95, 25.9)" gradientUnits="userSpaceOnUse" id="gradient2" spreadMethod="pad" x1="-819.2" x2="819.2">
      <stop offset="0.0" stop-color="#ffffff"/>
      <stop offset="0.396078431372549" stop-color="#e9f7ff"/>
      <stop offset="1.0" stop-color="#0099ff"/>
      <stop offset="1.0" stop-color="#ff66cc"/>
    </linearGradient>
    <radialGradient cx="0" cy="0" gradientTransform="matrix(0.0113, 0.0, 0.0, 0.0113, 201.7, 22.85)" gradientUnits="userSpaceOnUse" id="gradient3" r="819.2" spreadMethod="pad">
      <stop offset="0.0" stop-color="#ffffff"/>
      <stop offset="0.396078431372549" stop-color="#e9f7ff"/>
      <stop offset="1.0" stop-color="#0099ff"/>
      <stop offset="1.0" stop-color="#ff66cc"/>
    </radialGradient>
    <radialGradient cx="0" cy="0" gradientTransform="matrix(0.0346, 0.0, 0.0, 0.0346, 170.55, 8.15)" gradientUnits="userSpaceOnUse" id="gradient4" r="819.2" spreadMethod="pad">
      <stop offset="0.0" stop-color="#ffffff"/>
      <stop offset="0.396078431372549" stop-color="#e9f7ff"/>
      <stop offset="1.0" stop-color="#0099ff"/>
      <stop offset="1.0" stop-color="#ff66cc"/>
    </radialGradient>
    <linearGradient gradientTransform="matrix(0.0, -0.0124, 0.0116, 0.0, 180.5, 17.15)" gradientUnits="userSpaceOnUse" id="gradient5" spreadMethod="pad" x1="-819.2" x2="819.2">
      <stop offset="0.0" stop-color="#ffffff"/>
      <stop offset="0.396078431372549" stop-color="#e9f7ff"/>
      <stop offset="1.0" stop-color="#0099ff"/>
      <stop offset="1.0" stop-color="#ff66cc"/>
    </linearGradient>
    <radialGradient cx="0" cy="0" gradientTransform="matrix(0.0258, 0.0, 0.0, 0.0258, 158.05, 8.15)" gradientUnits="userSpaceOnUse" id="gradient6" r="819.2" spreadMethod="pad">
      <stop offset="0.0" stop-color="#ffffff"/>
      <stop offset="0.396078431372549" stop-color="#e9f7ff"/>
      <stop offset="1.0" stop-color="#0099ff"/>
      <stop offset="1.0" stop-color="#ff66cc"/>
    </radialGradient>
    <linearGradient gradientTransform="matrix(0.0, -0.011, 0.0045, 0.0, 160.15, 17.25)" gradientUnits="userSpaceOnUse" id="gradient7" spreadMethod="pad" x1="-819.2" x2="819.2">
      <stop offset="0.0" stop-color="#ffffff"/>
      <stop offset="0.396078431372549" stop-color="#e9f7ff"/>
      <stop offset="1.0" stop-color="#0099ff"/>
      <stop offset="1.0" stop-color="#ff66cc"/>
    </linearGradient>
    <radialGradient cx="0" cy="0" gradientTransform="matrix(0.0323, 0.0, 0.0, 0.0323, 132.0, 8.7)" gradientUnits="userSpaceOnUse" id="gradient8" r="819.2" spreadMethod="pad">
      <stop offset="0.0" stop-color="#ffffff"/>
      <stop offset="0.396078431372549" stop-color="#e9f7ff"/>
      <stop offset="1.0" stop-color="#0099ff"/>
      <stop offset="1.0" stop-color="#ff66cc"/>
    </radialGradient>
    <linearGradient gradientTransform="matrix(0.0, -0.0105, 0.0109, 0.0, 140.7, 17.2)" gradientUnits="userSpaceOnUse" id="gradient9" spreadMethod="pad" x1="-819.2" x2="819.2">
      <stop offset="0.0" stop-color="#ffffff"/>
      <stop offset="0.396078431372549" stop-color="#e9f7ff"/>
      <stop offset="1.0" stop-color="#0099ff"/>
      <stop offset="1.0" stop-color="#ff66cc"/>
    </linearGradient>
    <radialGradient cx="0" cy="0" gradientTransform="matrix(0.008, 0.0, 0.0, 0.008, 139.95, 12.7)" gradientUnits="userSpaceOnUse" id="gradient10" r="819.2" spreadMethod="pad">
      <stop offset="0.0" stop-color="#ffffff"/>
      <stop offset="0.396078431372549" stop-color="#e9f7ff"/>
      <stop offset="1.0" stop-color="#0099ff"/>
      <stop offset="1.0" stop-color="#ff66cc"/>
    </radialGradient>
    <radialGradient cx="0" cy="0" gradientTransform="matrix(0.0271, 0.0, 0.0, 0.0271, 111.65, 11.55)" gradientUnits="userSpaceOnUse" id="gradient11" r="819.2" spreadMethod="pad">
      <stop offset="0.0" stop-color="#ffffff"/>
      <stop offset="0.396078431372549" stop-color="#e9f7ff"/>
      <stop offset="1.0" stop-color="#0099ff"/>
      <stop offset="1.0" stop-color="#ff66cc"/>
    </radialGradient>
    <linearGradient gradientTransform="matrix(0.0, -0.0123, 0.0094, 0.0, 117.8, 17.0)" gradientUnits="userSpaceOnUse" id="gradient12" spreadMethod="pad" x1="-819.2" x2="819.2">
      <stop offset="0.0" stop-color="#ffffff"/>
      <stop offset="0.396078431372549" stop-color="#e9f7ff"/>
      <stop offset="1.0" stop-color="#0099ff"/>
      <stop offset="1.0" stop-color="#ff66cc"/>
    </linearGradient>
    <radialGradient cx="0" cy="0" gradientTransform="matrix(0.0318, 0.0, 0.0, 0.0318, 85.6, 9.3)" gradientUnits="userSpaceOnUse" id="gradient13" r="819.2" spreadMethod="pad">
      <stop offset="0.0" stop-color="#ffffff"/>
      <stop offset="0.396078431372549" stop-color="#e9f7ff"/>
      <stop offset="1.0" stop-color="#0099ff"/>
      <stop offset="1.0" stop-color="#ff66cc"/>
    </radialGradient>
    <linearGradient gradientTransform="matrix(0.0, -0.0105, 0.0109, 0.0, 94.35, 17.2)" gradientUnits="userSpaceOnUse" id="gradient14" spreadMethod="pad" x1="-819.2" x2="819.2">
      <stop offset="0.0" stop-color="#ffffff"/>
      <stop offset="0.396078431372549" stop-color="#e9f7ff"/>
      <stop offset="1.0" stop-color="#0099ff"/>
      <stop offset="1.0" stop-color="#ff66cc"/>
    </linearGradient>
    <radialGradient cx="0" cy="0" gradientTransform="matrix(0.009, 0.0, 0.0, 0.009, 92.95, 12.1)" gradientUnits="userSpaceOnUse" id="gradient15" r="819.2" spreadMethod="pad">
      <stop offset="0.0" stop-color="#ffffff"/>
      <stop offset="0.396078431372549" stop-color="#e9f7ff"/>
      <stop offset="1.0" stop-color="#0099ff"/>
      <stop offset="1.0" stop-color="#ff66cc"/>
    </radialGradient>
    <radialGradient cx="0" cy="0" gradientTransform="matrix(0.0291, 0.0, 0.0, 0.0291, -11.4, 8.65)" gradientUnits="userSpaceOnUse" id="gradient16" r="819.2" spreadMethod="pad">
      <stop offset="0.0" stop-color="#ffffff"/>
      <stop offset="0.396078431372549" stop-color="#e9f7ff"/>
      <stop offset="1.0" stop-color="#0099ff"/>
      <stop offset="1.0" stop-color="#ff66cc"/>
    </radialGradient>
    <radialGradient cx="0" cy="0" gradientTransform="matrix(0.0112, 0.0, 0.0, 0.0112, -8.0, 9.6)" gradientUnits="userSpaceOnUse" id="gradient17" r="819.2" spreadMethod="pad">
      <stop offset="0.0" stop-color="#ffffff"/>
      <stop offset="0.396078431372549" stop-color="#e9f7ff"/>
      <stop offset="1.0" stop-color="#0099ff"/>
      <stop offset="1.0" stop-color="#ff66cc"/>
    </radialGradient>
    <radialGradient cx="0" cy="0" gradientTransform="matrix(0.0322, 0.0, 0.0, 0.0322, 9.85, 7.15)" gradientUnits="userSpaceOnUse" id="gradient18" r="819.2" spreadMethod="pad">
      <stop offset="0.0" stop-color="#ffffff"/>
      <stop offset="0.396078431372549" stop-color="#e9f7ff"/>
      <stop offset="1.0" stop-color="#0099ff"/>
      <stop offset="1.0" stop-color="#ff66cc"/>
    </radialGradient>
    <radialGradient cx="0" cy="0" gradientTransform="matrix(0.0087, 0.0, 0.0, 0.0087, 38.3, 12.25)" gradientUnits="userSpaceOnUse" id="gradient19" r="819.2" spreadMethod="pad">
      <stop offset="0.0" stop-color="#ffffff"/>
      <stop offset="0.396078431372549" stop-color="#e9f7ff"/>
      <stop offset="1.0" stop-color="#0099ff"/>
      <stop offset="1.0" stop-color="#ff66cc"/>
    </radialGradient>
    <radialGradient cx="0" cy="0" gradientTransform="matrix(0.0314, 0.0, 0.0, 0.0314, 55.9, 5.25)" gradientUnits="userSpaceOnUse" id="gradient20" r="819.2" spreadMethod="pad">
      <stop offset="0.0" stop-color="#ffffff"/>
      <stop offset="0.28627450980392155" stop-color="#f8fdff"/>
      <stop offset="1.0" stop-color="#0099ff"/>
      <stop offset="1.0" stop-color="#ff66cc"/>
    </radialGradient>
    <radialGradient cx="0" cy="0" gradientTransform="matrix(0.0316, 0.0, 0.0, 0.0316, 31.5, 8.9)" gradientUnits="userSpaceOnUse" id="gradient21" r="819.2" spreadMethod="pad">
      <stop offset="0.0" stop-color="#ffffff"/>
      <stop offset="0.28627450980392155" stop-color="#f8fdff"/>
      <stop offset="1.0" stop-color="#0099ff"/>
      <stop offset="1.0" stop-color="#ff66cc"/>
    </radialGradient>
    <linearGradient gradientTransform="matrix(0.0, -0.0134, 0.0115, 0.0, 65.6, 16.8)" gradientUnits="userSpaceOnUse" id="gradient22" spreadMethod="pad" x1="-819.2" x2="819.2">
      <stop offset="0.0" stop-color="#ffffff"/>
      <stop offset="0.28627450980392155" stop-color="#f8fdff"/>
      <stop offset="1.0" stop-color="#0099ff"/>
      <stop offset="1.0" stop-color="#ff66cc"/>
    </linearGradient>
    <linearGradient gradientTransform="matrix(0.0, -0.0105, 0.0109, 0.0, 39.95, 16.9)" gradientUnits="userSpaceOnUse" id="gradient23" spreadMethod="pad" x1="-819.2" x2="819.2">
      <stop offset="0.0" stop-color="#ffffff"/>
      <stop offset="0.28627450980392155" stop-color="#f8fdff"/>
      <stop offset="1.0" stop-color="#0099ff"/>
      <stop offset="1.0" stop-color="#ff66cc"/>
    </linearGradient>
    <linearGradient gradientTransform="matrix(0.0, -0.0107, 0.0098, 0.0, 18.05, 16.85)" gradientUnits="userSpaceOnUse" id="gradient24" spreadMethod="pad" x1="-819.2" x2="819.2">
      <stop offset="0.0" stop-color="#ffffff"/>
      <stop offset="0.28627450980392155" stop-color="#f8fdff"/>
      <stop offset="1.0" stop-color="#0099ff"/>
      <stop offset="1.0" stop-color="#ff66cc"/>
    </linearGradient>
    <linearGradient gradientTransform="matrix(0.0, -0.0124, 0.0097, 0.0, -2.6, 16.7)" gradientUnits="userSpaceOnUse" id="gradient25" spreadMethod="pad" x1="-819.2" x2="819.2">
      <stop offset="0.0" stop-color="#ffffff"/>
      <stop offset="0.28627450980392155" stop-color="#f8fdff"/>
      <stop offset="1.0" stop-color="#0099ff"/>
      <stop offset="1.0" stop-color="#ff66cc"/>
    </linearGradient>
  </defs>
</svg>
