<?xml version="1.0" encoding="UTF-8" standalone="no"?>
<svg xmlns:xlink="http://www.w3.org/1999/xlink" height="30.6px" width="211.95px" xmlns="http://www.w3.org/2000/svg">
  <g transform="matrix(1.0, 0.0, 0.0, 1.0, 0.0, 0.0)">
    <path d="M159.3 5.9 L161.65 5.7 163.3 5.9 Q164.3 6.2 164.65 7.15 L165.65 16.3 165.85 18.7 165.7 21.5 165.4 24.35 165.35 25.8 Q165.15 26.95 164.3 27.5 L160.75 28.0 157.25 28.5 155.25 28.55 Q154.35 28.1 154.35 26.95 L154.5 25.8 Q155.75 19.25 155.65 10.45 L155.55 9.3 155.65 7.85 155.85 6.45 Q156.35 5.7 157.2 5.7 L157.9 5.85 159.3 5.9 M163.35 13.55 L162.65 8.4 160.2 8.25 157.75 8.3 157.65 8.6 157.6 14.75 157.15 21.0 156.5 26.2 159.6 25.95 162.8 25.4 Q162.95 25.35 163.05 25.25 L163.7 20.5 163.8 18.5 163.35 13.55 M156.5 26.2 L156.35 26.2 156.45 26.3 156.5 26.2 M157.75 8.3 L157.75 8.2 157.6 8.25 157.75 8.3" fill="url(#gradient0)" fill-rule="evenodd" stroke="none"/>
    <path d="M181.05 4.8 L182.6 4.7 Q186.35 4.7 190.15 5.85 190.95 6.55 191.0 8.1 L191.0 9.8 Q190.9 11.75 191.2 15.0 L191.5 20.25 Q191.5 22.9 190.95 24.9 L190.7 26.6 Q190.5 27.55 189.9 28.1 L187.8 28.35 Q186.65 28.45 186.05 28.8 L185.1 28.65 181.95 25.85 178.95 23.05 178.65 27.55 Q178.1 28.1 177.25 28.2 L176.05 28.45 173.9 28.9 Q172.5 29.2 171.65 29.65 170.35 29.55 170.1 28.5 L169.6 26.5 169.5 21.45 169.2 16.5 169.35 13.65 169.5 12.1 169.6 10.55 169.55 9.55 Q169.5 9.35 168.95 9.25 168.4 9.1 168.3 8.45 168.25 7.35 169.15 7.05 L172.85 6.3 177.0 5.7 Q177.55 6.5 177.75 7.4 L178.1 9.35 178.75 13.35 Q179.2 15.45 180.9 16.3 L181.45 17.0 181.35 15.75 180.5 9.95 180.2 5.95 Q180.35 5.4 181.05 4.8 M189.25 8.0 Q187.6 7.3 182.3 6.95 L182.1 7.4 Q182.1 8.55 181.85 8.35 L183.5 20.15 Q183.05 20.95 182.2 20.85 L179.65 18.0 Q178.9 17.45 177.45 15.95 L176.5 10.8 176.35 9.3 176.05 8.2 175.2 8.1 173.35 8.5 Q172.05 8.65 171.5 8.95 171.2 9.05 171.3 10.2 171.0 12.4 171.0 15.25 L171.2 20.7 171.3 26.15 171.5 26.85 171.6 27.3 176.85 26.1 177.1 25.9 177.3 20.0 177.7 19.3 Q178.4 19.0 179.0 19.6 180.55 22.65 183.55 24.9 L184.75 25.85 185.75 26.5 188.85 26.05 Q189.25 25.35 189.5 23.65 L190.0 20.85 189.7 16.05 Q189.4 12.7 189.45 10.6 L189.45 9.0 Q189.55 8.3 189.25 8.0" fill="url(#gradient1)" fill-rule="evenodd" stroke="none"/>
    <path d="M118.95 5.35 L121.5 4.95 122.9 5.1 Q123.55 5.3 123.9 6.1 L123.9 14.0 Q123.45 14.85 122.4 14.85 L121.75 14.85 121.1 14.85 120.4 14.95 118.35 15.35 Q117.4 15.7 117.0 16.4 116.95 16.8 117.25 17.45 L117.75 18.35 118.25 18.85 118.4 18.35 118.65 17.75 118.9 16.9 Q119.0 15.95 119.75 15.7 L123.05 16.1 Q124.85 16.45 126.05 17.4 126.95 18.85 127.3 21.05 L127.75 25.05 Q127.25 26.45 126.05 27.55 124.9 28.65 123.55 29.0 L120.3 29.45 Q115.5 29.45 112.9 26.25 108.25 22.15 108.0 16.7 108.0 15.6 108.4 14.4 L109.25 12.25 Q112.35 7.05 117.05 5.95 L118.95 5.35 M121.75 12.3 L121.7 6.95 121.35 6.95 117.2 7.85 Q115.05 8.55 113.9 9.4 110.2 13.65 110.15 17.3 110.65 21.3 113.15 24.15 L115.45 25.9 Q116.7 26.7 118.0 26.7 L120.1 27.05 Q122.65 27.05 124.75 25.35 125.5 24.9 125.5 23.8 L125.4 22.85 125.3 21.9 125.1 20.25 Q125.0 19.4 124.7 19.05 L123.45 18.65 122.1 18.35 120.9 18.2 120.2 19.45 119.95 20.6 Q119.8 21.5 119.15 21.9 L118.7 22.0 Q118.3 22.0 118.2 21.75 L117.2 20.95 Q114.6 18.5 114.95 15.35 114.95 14.85 116.25 13.5 L120.6 12.25 121.35 12.3 121.75 12.4 121.75 12.3" fill="url(#gradient2)" fill-rule="evenodd" stroke="none"/>
    <path d="M149.15 6.7 L150.2 6.75 Q151.1 7.45 151.25 8.75 L151.45 10.9 151.0 24.8 150.8 26.3 149.85 27.5 143.65 27.95 Q143.2 28.0 142.75 27.2 142.45 25.5 142.65 22.35 L142.1 22.25 140.95 22.45 Q140.8 22.55 140.9 23.1 140.5 25.35 140.9 25.55 141.3 26.85 140.35 27.55 L139.05 27.7 137.3 27.55 135.6 27.4 133.55 27.4 132.2 27.95 132.1 24.25 Q132.2 22.4 131.7 21.3 131.8 19.9 131.5 18.0 130.9 15.2 130.9 14.1 L130.5 12.0 130.15 9.85 Q130.15 8.95 131.4 8.15 L133.65 7.5 145.2 6.5 149.15 6.7 M145.9 8.65 L142.65 8.55 139.25 8.8 135.2 9.35 Q133.0 9.8 131.8 10.55 131.7 11.3 132.1 12.35 L132.25 14.3 132.55 16.25 132.4 17.1 Q133.1 18.7 132.9 19.95 133.3 21.0 133.45 25.2 L133.8 25.25 134.35 25.35 135.35 25.25 136.9 25.4 138.5 25.5 139.2 25.5 139.35 25.4 138.9 22.8 Q138.55 21.0 139.35 20.15 L141.45 20.0 143.55 19.9 Q144.55 20.35 144.7 21.2 L144.6 25.8 144.65 25.8 145.8 25.7 147.2 25.5 148.55 25.35 Q149.15 25.3 149.25 25.0 L149.45 18.35 149.6 10.6 Q149.35 9.25 149.1 8.85 L145.9 8.65" fill="url(#gradient3)" fill-rule="evenodd" stroke="none"/>
    <path d="M145.9 8.65 L149.1 8.85 Q149.35 9.25 149.6 10.6 L149.45 18.35 149.25 25.0 Q149.15 25.3 148.55 25.35 L147.2 25.5 145.8 25.7 144.65 25.8 144.6 25.8 144.7 21.2 Q144.55 20.35 143.55 19.9 L141.45 20.0 139.35 20.15 Q138.55 21.0 138.9 22.8 L139.35 25.4 139.2 25.5 138.5 25.5 136.9 25.4 135.35 25.25 134.35 25.35 133.8 25.25 133.45 25.2 Q133.3 21.0 132.9 19.95 133.1 18.7 132.4 17.1 L132.55 16.25 132.25 14.3 132.1 12.35 Q131.7 11.3 131.8 10.55 133.0 9.8 135.2 9.35 L139.25 8.8 142.65 8.55 145.9 8.65 M143.55 12.4 L142.75 11.65 138.55 11.25 Q138.0 11.65 137.95 12.05 138.15 14.55 138.8 15.5 L138.9 15.6 138.3 16.15 Q138.1 17.45 138.9 17.75 L142.7 18.45 143.35 17.65 143.55 12.4" fill="url(#gradient4)" fill-rule="evenodd" stroke="none"/>
    <path d="M143.55 12.4 L143.35 17.65 142.7 18.45 138.9 17.75 Q138.1 17.45 138.3 16.15 L138.9 15.6 138.8 15.5 Q138.15 14.55 137.95 12.05 138.0 11.65 138.55 11.25 L142.75 11.65 143.55 12.4 M141.85 14.1 L141.65 13.9 140.1 13.8 Q140.1 14.2 141.25 15.85 141.6 16.15 141.85 16.05 L141.85 14.1" fill="url(#gradient5)" fill-rule="evenodd" stroke="none"/>
    <path d="M121.35 12.3 L120.6 12.25 116.25 13.5 Q114.95 14.85 114.95 15.35 114.6 18.5 117.2 20.95 L118.2 21.75 Q118.3 22.0 118.7 22.0 L119.15 21.9 Q119.8 21.5 119.95 20.6 L120.2 19.45 120.9 18.2 122.1 18.35 123.45 18.65 124.7 19.05 Q125.0 19.4 125.1 20.25 L125.3 21.9 125.4 22.85 125.5 23.8 Q125.5 24.9 124.75 25.35 122.65 27.05 120.1 27.05 L118.0 26.7 Q116.7 26.7 115.45 25.9 L113.15 24.15 Q110.65 21.3 110.15 17.3 110.2 13.65 113.9 9.4 115.05 8.55 117.2 7.85 L121.35 6.95 121.7 6.95 121.75 12.3 121.35 12.3" fill="url(#gradient6)" fill-rule="evenodd" stroke="none"/>
    <path d="M189.25 8.0 Q189.55 8.3 189.45 9.0 L189.45 10.6 Q189.4 12.7 189.7 16.05 L190.0 20.85 189.5 23.65 Q189.25 25.35 188.85 26.05 L185.75 26.5 184.75 25.85 183.55 24.9 Q180.55 22.65 179.0 19.6 178.4 19.0 177.7 19.3 L177.3 20.0 177.1 25.9 176.85 26.1 171.6 27.3 171.5 26.85 171.3 26.15 171.2 20.7 171.0 15.25 Q171.0 12.4 171.3 10.2 171.2 9.05 171.5 8.95 172.05 8.65 173.35 8.5 L175.2 8.1 176.05 8.2 176.35 9.3 176.5 10.8 177.45 15.95 Q178.9 17.45 179.65 18.0 L182.2 20.85 Q183.05 20.95 183.5 20.15 L181.85 8.35 Q182.1 8.55 182.1 7.4 L182.3 6.95 Q187.6 7.3 189.25 8.0" fill="url(#gradient7)" fill-rule="evenodd" stroke="none"/>
    <path d="M163.35 13.55 L163.8 18.5 163.7 20.5 163.05 25.25 Q162.95 25.35 162.8 25.4 L159.6 25.95 156.5 26.2 157.15 21.0 157.6 14.75 157.65 8.6 157.75 8.3 160.2 8.25 162.65 8.4 163.35 13.55" fill="url(#gradient8)" fill-rule="evenodd" stroke="none"/>
    <path d="M197.15 4.8 L196.5 5.35 197.65 6.15 198.85 7.1 Q199.55 8.0 200.65 8.0 L202.05 7.85 203.65 7.5 Q204.75 7.3 205.3 8.1 L205.4 9.1 Q205.4 10.5 204.55 12.1 203.45 14.15 200.05 14.0 L199.9 14.45 199.75 15.35 Q199.8 16.35 200.3 17.3 L200.55 18.3 200.55 18.65 200.5 18.95 200.75 19.5 203.3 19.2 205.95 19.05 206.25 18.9 206.45 18.3 206.35 17.65 Q206.2 16.4 207.5 15.5 L209.0 14.55 209.5 11.75 209.9 7.9 209.8 6.85 Q208.8 3.4 206.85 2.8 L204.9 2.05 202.9 1.65 Q199.9 2.0 197.8 3.8 L197.15 4.8 M197.9 1.65 Q199.2 1.1 200.2 0.7 202.05 0.0 203.35 0.0 L204.7 0.15 208.2 1.5 Q211.95 3.5 211.95 7.85 211.95 11.5 210.7 15.55 210.4 16.3 209.4 16.75 208.35 17.2 208.35 17.5 L208.55 18.05 208.55 19.2 208.2 20.35 Q207.45 20.95 206.25 20.95 L204.5 20.95 202.05 21.25 199.25 21.45 198.55 20.75 197.5 14.75 197.9 13.45 Q198.15 12.3 199.1 12.1 L200.0 12.1 200.9 12.1 Q202.4 12.1 202.8 11.3 L203.2 9.6 203.0 9.55 202.3 9.7 Q202.05 9.7 201.45 10.1 L200.4 10.45 199.75 10.3 197.2 8.65 Q195.7 7.55 194.8 6.65 194.1 5.85 194.4 4.85 196.0 2.2 197.9 1.65" fill="url(#gradient9)" fill-rule="evenodd" stroke="none"/>
    <path d="M197.15 4.8 L197.8 3.8 Q199.9 2.0 202.9 1.65 L204.9 2.05 206.85 2.8 Q208.8 3.4 209.8 6.85 L209.9 7.9 209.5 11.75 209.0 14.55 207.5 15.5 Q206.2 16.4 206.35 17.65 L206.45 18.3 206.25 18.9 205.95 19.05 203.3 19.2 200.75 19.5 200.5 18.95 200.55 18.65 200.55 18.3 200.3 17.3 Q199.8 16.35 199.75 15.35 L199.9 14.45 200.05 14.0 Q203.45 14.15 204.55 12.1 205.4 10.5 205.4 9.1 L205.3 8.1 Q204.75 7.3 203.65 7.5 L202.05 7.85 200.65 8.0 Q199.55 8.0 198.85 7.1 L197.65 6.15 196.5 5.35 197.15 4.8" fill="url(#gradient10)" fill-rule="evenodd" stroke="none"/>
    <path d="M199.7 23.8 Q199.55 23.4 199.7 22.9 L200.3 22.5 205.9 22.05 Q206.85 22.1 207.5 22.9 208.1 23.9 208.1 25.85 208.05 27.85 208.35 28.65 L207.9 29.45 Q205.1 29.15 202.45 29.45 L201.65 29.7 200.5 29.55 200.1 28.9 199.9 24.5 199.7 23.8 M205.9 24.0 L201.9 24.2 Q201.6 24.3 201.65 24.8 L201.65 26.15 201.65 27.3 201.7 27.85 204.35 27.85 204.85 27.75 205.45 27.8 205.95 27.85 206.25 27.85 206.05 24.15 205.9 24.0" fill="url(#gradient11)" fill-rule="evenodd" stroke="none"/>
    <path d="M205.9 24.0 L206.05 24.15 206.25 27.85 205.95 27.85 205.45 27.8 204.85 27.75 204.35 27.85 201.7 27.85 201.65 27.3 201.65 26.15 201.65 24.8 Q201.6 24.3 201.9 24.2 L205.9 24.0" fill="url(#gradient12)" fill-rule="evenodd" stroke="none"/>
    <path d="M1.7 3.8 L2.45 3.9 3.25 3.95 3.95 3.8 6.45 3.55 9.25 3.75 12.0 3.9 15.0 4.3 17.85 5.0 Q18.9 5.5 19.15 6.75 L19.3 8.65 19.2 11.95 19.05 15.2 18.35 15.6 16.4 15.6 15.1 15.85 15.7 20.6 16.05 25.65 Q16.05 28.25 15.3 30.0 14.55 30.85 13.3 30.45 L11.2 30.6 7.85 30.2 Q6.05 29.9 4.75 29.4 4.15 29.45 3.2 28.35 2.95 27.75 3.2 26.35 3.1 24.25 4.4 19.9 4.4 19.2 4.8 18.05 L5.25 16.25 5.35 15.6 1.35 15.35 Q0.3 14.3 0.15 12.65 L0.05 10.0 0.15 8.1 0.3 6.5 0.0 4.8 Q0.6 3.8 1.7 3.8 M2.7 13.0 L4.9 13.0 7.1 13.0 8.15 13.95 Q8.45 14.9 8.0 15.5 L6.55 20.6 Q5.7 23.75 5.55 25.8 L5.4 26.8 Q5.4 27.2 5.55 27.3 L10.6 28.4 11.15 28.3 11.9 28.35 12.65 28.4 13.5 28.15 Q14.05 26.3 14.05 23.95 14.05 21.9 12.85 14.75 13.15 13.7 13.75 13.4 L17.05 13.3 17.1 13.25 Q17.6 9.85 17.35 7.35 L17.3 7.2 Q15.7 6.55 13.2 6.4 L6.6 5.95 4.75 6.3 3.5 6.3 2.7 6.5 Q2.15 10.7 2.45 12.85 L2.5 13.0 2.6 13.1 2.55 13.0 2.7 13.0" fill="url(#gradient13)" fill-rule="evenodd" stroke="none"/>
    <path d="M2.45 12.85 Q2.15 10.7 2.7 6.5 L3.5 6.3 4.75 6.3 6.6 5.95 13.2 6.4 Q15.7 6.55 17.3 7.2 L17.35 7.35 Q17.6 9.85 17.1 13.25 L17.05 13.3 13.75 13.4 Q13.15 13.7 12.85 14.75 14.05 21.9 14.05 23.95 14.05 26.3 13.5 28.15 L12.65 28.4 11.9 28.35 11.15 28.3 10.6 28.4 5.55 27.3 Q5.4 27.2 5.4 26.8 L5.55 25.8 Q5.7 23.75 6.55 20.6 L8.0 15.5 Q8.45 14.9 8.15 13.95 L7.1 13.0 4.9 13.0 2.7 13.0 2.45 12.85" fill="url(#gradient14)" fill-rule="evenodd" stroke="none"/>
    <path d="M28.15 4.95 L33.6 4.7 36.9 5.15 39.75 5.55 Q41.45 6.1 42.1 7.5 44.1 11.05 44.1 15.15 L44.05 16.65 Q43.95 17.5 43.15 17.85 L41.55 18.45 Q40.45 18.55 39.0 19.15 L36.55 20.1 36.6 20.15 39.05 22.3 Q40.65 23.7 41.45 24.9 L41.45 25.8 39.05 28.1 Q37.65 28.3 36.3 27.05 L34.6 25.7 34.65 28.2 34.1 28.65 30.75 28.85 27.65 29.0 25.6 29.45 23.3 29.7 Q22.45 29.05 22.3 27.9 L22.1 26.15 21.9 20.4 21.7 14.7 21.85 12.0 22.0 9.3 21.85 6.9 Q23.15 5.95 24.95 5.55 L28.15 4.95 M24.25 8.45 L24.05 15.45 24.25 21.5 24.45 27.3 24.45 27.35 29.9 26.75 31.25 26.7 32.45 26.6 32.55 25.8 32.35 24.45 32.2 23.1 Q32.3 22.65 32.7 22.45 L33.65 22.5 37.65 25.8 38.0 25.8 38.6 25.3 38.95 24.85 37.05 23.0 34.9 21.2 33.95 20.25 Q33.45 19.7 33.55 18.9 33.9 18.35 34.4 18.2 L35.3 17.95 Q36.35 17.3 38.35 16.85 L41.45 16.0 41.65 15.75 41.85 13.85 41.55 11.25 40.85 9.55 Q40.45 8.35 40.05 7.9 35.95 6.8 33.6 6.8 L32.0 6.9 26.05 7.55 24.95 7.95 24.25 8.45" fill="url(#gradient15)" fill-rule="evenodd" stroke="none"/>
    <path d="M24.25 8.45 L24.95 7.95 26.05 7.55 32.0 6.9 33.6 6.8 Q35.95 6.8 40.05 7.9 40.45 8.35 40.85 9.55 L41.55 11.25 41.85 13.85 41.65 15.75 41.45 16.0 38.35 16.85 Q36.35 17.3 35.3 17.95 L34.4 18.2 Q33.9 18.35 33.55 18.9 33.45 19.7 33.95 20.25 L34.9 21.2 37.05 23.0 38.95 24.85 38.6 25.3 38.0 25.8 37.65 25.8 33.65 22.5 32.7 22.45 Q32.3 22.65 32.2 23.1 L32.35 24.45 32.55 25.8 32.45 26.6 31.25 26.7 29.9 26.75 24.45 27.35 24.45 27.3 24.25 21.5 24.05 15.45 24.25 8.45 M27.4 8.3 Q26.7 9.4 26.7 11.05 L26.8 13.35 28.4 17.85 Q29.2 18.7 30.1 18.75 31.8 18.9 32.35 17.9 L32.05 16.6 Q31.75 15.85 31.8 15.4 L31.2 8.9 Q30.85 7.85 29.35 7.85 L28.35 7.95 Q27.8 8.0 27.4 8.3" fill="url(#gradient16)" fill-rule="evenodd" stroke="none"/>
    <path d="M27.4 8.3 Q27.8 8.0 28.35 7.95 L29.35 7.85 Q30.85 7.85 31.2 8.9 L31.8 15.4 Q31.75 15.85 32.05 16.6 L32.35 17.9 Q31.8 18.9 30.1 18.75 29.2 18.7 28.4 17.85 L26.8 13.35 26.7 11.05 Q26.7 9.4 27.4 8.3 M29.2 10.3 L29.15 10.3 Q28.9 11.15 28.9 12.2 28.9 14.1 29.65 15.65 L29.35 10.45 29.2 10.3 M29.65 15.65 L29.7 16.3 29.9 16.1 29.65 15.65" fill="url(#gradient17)" fill-rule="evenodd" stroke="none"/>
    <path d="M2.5 13.0 L2.45 12.85 2.55 13.0 2.5 13.0" fill="#ffffff" fill-rule="evenodd" stroke="none"/>
    <path d="M103.85 6.75 Q104.75 7.45 104.9 8.75 L105.1 10.9 104.65 24.8 104.45 26.3 Q104.2 27.05 103.5 27.5 L97.3 27.95 Q96.85 28.0 96.4 27.2 96.1 25.5 96.3 22.35 L95.75 22.25 94.6 22.45 Q94.45 22.55 94.55 23.1 94.15 25.35 94.55 25.55 94.95 26.85 94.0 27.55 L92.7 27.7 90.95 27.55 89.25 27.4 87.2 27.4 85.85 27.95 85.75 24.25 Q85.85 22.4 85.35 21.3 85.45 19.9 85.15 18.0 84.55 15.2 84.55 14.1 L84.15 12.0 83.8 9.85 Q83.8 8.95 85.05 8.15 L87.3 7.5 98.85 6.5 102.8 6.7 103.85 6.75 M103.25 10.6 L102.75 8.85 99.55 8.65 96.3 8.55 92.9 8.8 88.85 9.35 Q86.65 9.8 85.45 10.55 85.35 11.3 85.75 12.35 L85.9 14.3 86.2 16.25 86.05 17.1 Q86.75 18.7 86.55 19.95 86.95 21.0 87.1 25.2 L87.45 25.25 88.0 25.35 89.0 25.25 90.55 25.4 92.15 25.5 92.85 25.5 93.0 25.4 92.55 22.8 Q92.2 21.0 93.0 20.15 L95.1 20.0 97.2 19.9 Q98.2 20.35 98.35 21.2 L98.25 25.8 98.3 25.8 99.45 25.7 100.85 25.5 102.2 25.35 Q102.8 25.3 102.9 25.0 L103.1 18.35 103.25 10.6" fill="url(#gradient18)" fill-rule="evenodd" stroke="none"/>
    <path d="M47.95 4.4 L58.55 3.9 Q59.55 3.75 60.35 4.95 L61.75 7.8 62.15 7.25 Q62.7 6.5 63.1 6.3 L64.55 5.1 Q65.6 4.1 66.55 4.15 L68.7 5.35 70.35 6.85 Q70.45 7.55 70.05 8.1 69.7 8.65 69.7 8.95 69.25 10.1 68.1 11.65 66.85 13.35 66.5 14.1 L63.1 18.75 Q62.25 19.6 61.25 21.25 L59.55 23.8 56.8 28.35 56.15 29.45 Q55.65 30.35 54.85 30.35 L54.35 30.3 52.6 29.6 50.75 28.9 Q50.3 28.65 48.45 27.85 L46.5 26.5 46.55 25.7 51.35 19.15 Q52.2 18.65 53.4 16.85 52.3 15.35 47.2 5.75 46.9 4.75 47.95 4.4 M49.25 26.1 L53.75 28.0 54.4 27.95 Q57.3 24.35 61.3 17.3 L65.0 12.55 Q67.25 9.3 67.9 7.25 L67.25 6.75 66.7 6.5 Q64.45 7.6 62.15 10.9 60.75 11.0 60.1 10.05 L59.55 8.5 59.0 7.0 58.5 6.15 56.9 6.1 53.4 6.25 49.9 6.4 49.85 6.4 49.85 6.45 Q51.45 10.0 54.85 15.25 L55.4 16.25 Q55.7 16.85 55.65 17.6 L53.6 20.25 Q52.4 21.3 51.2 23.0 L49.15 26.0 49.1 26.05 49.25 26.1" fill="url(#gradient19)" fill-rule="evenodd" stroke="none"/>
    <path d="M49.9 6.4 L53.4 6.25 56.9 6.1 58.5 6.15 59.0 7.0 59.55 8.5 60.1 10.05 Q60.75 11.0 62.15 10.9 64.45 7.6 66.7 6.5 L67.25 6.75 67.9 7.25 Q67.25 9.3 65.0 12.55 L61.3 17.3 Q57.3 24.35 54.4 27.95 L53.75 28.0 49.25 26.1 49.15 26.0 51.2 23.0 Q52.4 21.3 53.6 20.25 L55.65 17.6 Q55.7 16.85 55.4 16.25 L54.85 15.25 Q51.45 10.0 49.85 6.45 L49.9 6.4" fill="url(#gradient20)" fill-rule="evenodd" stroke="none"/>
    <path d="M103.25 10.6 L103.1 18.35 102.9 25.0 Q102.8 25.3 102.2 25.35 L100.85 25.5 99.45 25.7 98.3 25.8 98.25 25.8 98.35 21.2 Q98.2 20.35 97.2 19.9 L95.1 20.0 93.0 20.15 Q92.2 21.0 92.55 22.8 L93.0 25.4 92.85 25.5 92.15 25.5 90.55 25.4 89.0 25.25 88.0 25.35 87.45 25.25 87.1 25.2 Q86.95 21.0 86.55 19.95 86.75 18.7 86.05 17.1 L86.2 16.25 85.9 14.3 85.75 12.35 Q85.35 11.3 85.45 10.55 86.65 9.8 88.85 9.35 L92.9 8.8 96.3 8.55 99.55 8.65 102.75 8.85 103.25 10.6 M97.2 12.4 L96.4 11.65 92.2 11.25 Q91.65 11.65 91.6 12.05 91.8 14.55 92.45 15.5 L92.55 15.6 91.95 16.15 Q91.75 17.45 92.55 17.75 L96.35 18.45 97.0 17.65 97.2 12.4" fill="url(#gradient21)" fill-rule="evenodd" stroke="none"/>
    <path d="M97.2 12.4 L97.0 17.65 96.35 18.45 92.55 17.75 Q91.75 17.45 91.95 16.15 L92.55 15.6 92.45 15.5 Q91.8 14.55 91.6 12.05 91.65 11.65 92.2 11.25 L96.4 11.65 97.2 12.4 M95.3 13.9 L93.75 13.8 Q93.75 14.2 94.9 15.85 95.25 16.15 95.5 16.05 L95.5 14.1 95.3 13.9" fill="url(#gradient22)" fill-rule="evenodd" stroke="none"/>
  </g>
  <defs>
    <radialGradient cx="0" cy="0" gradientTransform="matrix(0.0258, 0.0, 0.0, 0.0258, 158.05, 8.15)" gradientUnits="userSpaceOnUse" id="gradient0" r="819.2" spreadMethod="pad">
      <stop offset="0.0" stop-color="#ffffff"/>
      <stop offset="0.396078431372549" stop-color="#e9f7ff"/>
      <stop offset="1.0" stop-color="#0099ff"/>
      <stop offset="1.0" stop-color="#ff66cc"/>
    </radialGradient>
    <radialGradient cx="0" cy="0" gradientTransform="matrix(0.0346, 0.0, 0.0, 0.0346, 170.55, 8.15)" gradientUnits="userSpaceOnUse" id="gradient1" r="819.2" spreadMethod="pad">
      <stop offset="0.0" stop-color="#ffffff"/>
      <stop offset="0.396078431372549" stop-color="#e9f7ff"/>
      <stop offset="1.0" stop-color="#0099ff"/>
      <stop offset="1.0" stop-color="#ff66cc"/>
    </radialGradient>
    <radialGradient cx="0" cy="0" gradientTransform="matrix(0.0271, 0.0, 0.0, 0.0271, 111.65, 11.55)" gradientUnits="userSpaceOnUse" id="gradient2" r="819.2" spreadMethod="pad">
      <stop offset="0.0" stop-color="#ffffff"/>
      <stop offset="0.396078431372549" stop-color="#e9f7ff"/>
      <stop offset="1.0" stop-color="#0099ff"/>
      <stop offset="1.0" stop-color="#ff66cc"/>
    </radialGradient>
    <radialGradient cx="0" cy="0" gradientTransform="matrix(0.0323, 0.0, 0.0, 0.0323, 132.0, 8.7)" gradientUnits="userSpaceOnUse" id="gradient3" r="819.2" spreadMethod="pad">
      <stop offset="0.0" stop-color="#ffffff"/>
      <stop offset="0.396078431372549" stop-color="#e9f7ff"/>
      <stop offset="1.0" stop-color="#0099ff"/>
      <stop offset="1.0" stop-color="#ff66cc"/>
    </radialGradient>
    <linearGradient gradientTransform="matrix(0.0, -0.0105, 0.0109, 0.0, 140.7, 17.2)" gradientUnits="userSpaceOnUse" id="gradient4" spreadMethod="pad" x1="-819.2" x2="819.2">
      <stop offset="0.0" stop-color="#ffffff"/>
      <stop offset="0.396078431372549" stop-color="#e9f7ff"/>
      <stop offset="1.0" stop-color="#0099ff"/>
      <stop offset="1.0" stop-color="#ff66cc"/>
    </linearGradient>
    <radialGradient cx="0" cy="0" gradientTransform="matrix(0.008, 0.0, 0.0, 0.008, 139.95, 12.7)" gradientUnits="userSpaceOnUse" id="gradient5" r="819.2" spreadMethod="pad">
      <stop offset="0.0" stop-color="#ffffff"/>
      <stop offset="0.396078431372549" stop-color="#e9f7ff"/>
      <stop offset="1.0" stop-color="#0099ff"/>
      <stop offset="1.0" stop-color="#ff66cc"/>
    </radialGradient>
    <linearGradient gradientTransform="matrix(0.0, -0.0123, 0.0094, 0.0, 117.8, 17.0)" gradientUnits="userSpaceOnUse" id="gradient6" spreadMethod="pad" x1="-819.2" x2="819.2">
      <stop offset="0.0" stop-color="#ffffff"/>
      <stop offset="0.396078431372549" stop-color="#e9f7ff"/>
      <stop offset="1.0" stop-color="#0099ff"/>
      <stop offset="1.0" stop-color="#ff66cc"/>
    </linearGradient>
    <linearGradient gradientTransform="matrix(0.0, -0.0124, 0.0116, 0.0, 180.5, 17.15)" gradientUnits="userSpaceOnUse" id="gradient7" spreadMethod="pad" x1="-819.2" x2="819.2">
      <stop offset="0.0" stop-color="#ffffff"/>
      <stop offset="0.396078431372549" stop-color="#e9f7ff"/>
      <stop offset="1.0" stop-color="#0099ff"/>
      <stop offset="1.0" stop-color="#ff66cc"/>
    </linearGradient>
    <linearGradient gradientTransform="matrix(0.0, -0.011, 0.0045, 0.0, 160.15, 17.25)" gradientUnits="userSpaceOnUse" id="gradient8" spreadMethod="pad" x1="-819.2" x2="819.2">
      <stop offset="0.0" stop-color="#ffffff"/>
      <stop offset="0.396078431372549" stop-color="#e9f7ff"/>
      <stop offset="1.0" stop-color="#0099ff"/>
      <stop offset="1.0" stop-color="#ff66cc"/>
    </linearGradient>
    <radialGradient cx="0" cy="0" gradientTransform="matrix(0.0249, 0.0, 0.0, 0.0249, 196.0, 4.2)" gradientUnits="userSpaceOnUse" id="gradient9" r="819.2" spreadMethod="pad">
      <stop offset="0.0" stop-color="#ffffff"/>
      <stop offset="0.396078431372549" stop-color="#e9f7ff"/>
      <stop offset="1.0" stop-color="#0099ff"/>
      <stop offset="1.0" stop-color="#ff66cc"/>
    </radialGradient>
    <linearGradient gradientTransform="matrix(0.0, -0.0109, 0.0082, 0.0, 203.2, 10.6)" gradientUnits="userSpaceOnUse" id="gradient10" spreadMethod="pad" x1="-819.2" x2="819.2">
      <stop offset="0.0" stop-color="#ffffff"/>
      <stop offset="0.396078431372549" stop-color="#e9f7ff"/>
      <stop offset="1.0" stop-color="#0099ff"/>
      <stop offset="1.0" stop-color="#ff66cc"/>
    </linearGradient>
    <radialGradient cx="0" cy="0" gradientTransform="matrix(0.0113, 0.0, 0.0, 0.0113, 201.7, 22.85)" gradientUnits="userSpaceOnUse" id="gradient11" r="819.2" spreadMethod="pad">
      <stop offset="0.0" stop-color="#ffffff"/>
      <stop offset="0.396078431372549" stop-color="#e9f7ff"/>
      <stop offset="1.0" stop-color="#0099ff"/>
      <stop offset="1.0" stop-color="#ff66cc"/>
    </radialGradient>
    <linearGradient gradientTransform="matrix(0.0, -0.0024, 0.0028, 0.0, 203.95, 25.9)" gradientUnits="userSpaceOnUse" id="gradient12" spreadMethod="pad" x1="-819.2" x2="819.2">
      <stop offset="0.0" stop-color="#ffffff"/>
      <stop offset="0.396078431372549" stop-color="#e9f7ff"/>
      <stop offset="1.0" stop-color="#0099ff"/>
      <stop offset="1.0" stop-color="#ff66cc"/>
    </linearGradient>
    <radialGradient cx="0" cy="0" gradientTransform="matrix(0.0335, 0.0, 0.0, 0.0335, 2.35, 5.9)" gradientUnits="userSpaceOnUse" id="gradient13" r="819.2" spreadMethod="pad">
      <stop offset="0.0" stop-color="#ffffff"/>
      <stop offset="0.396078431372549" stop-color="#e9f7ff"/>
      <stop offset="1.0" stop-color="#0099ff"/>
      <stop offset="1.0" stop-color="#ff66cc"/>
    </radialGradient>
    <linearGradient gradientTransform="matrix(0.0, -0.0137, 0.0092, 0.0, 9.9, 17.2)" gradientUnits="userSpaceOnUse" id="gradient14" spreadMethod="pad" x1="-819.2" x2="819.2">
      <stop offset="0.0" stop-color="#ffffff"/>
      <stop offset="0.396078431372549" stop-color="#e9f7ff"/>
      <stop offset="1.0" stop-color="#0099ff"/>
      <stop offset="1.0" stop-color="#ff66cc"/>
    </linearGradient>
    <radialGradient cx="0" cy="0" gradientTransform="matrix(0.0301, 0.0, 0.0, 0.0301, 23.3, 9.3)" gradientUnits="userSpaceOnUse" id="gradient15" r="819.2" spreadMethod="pad">
      <stop offset="0.0" stop-color="#ffffff"/>
      <stop offset="0.396078431372549" stop-color="#e9f7ff"/>
      <stop offset="1.0" stop-color="#0099ff"/>
      <stop offset="1.0" stop-color="#ff66cc"/>
    </radialGradient>
    <linearGradient gradientTransform="matrix(0.0, -0.0125, 0.0109, 0.0, 32.95, 17.1)" gradientUnits="userSpaceOnUse" id="gradient16" spreadMethod="pad" x1="-819.2" x2="819.2">
      <stop offset="0.0" stop-color="#ffffff"/>
      <stop offset="0.396078431372549" stop-color="#e9f7ff"/>
      <stop offset="1.0" stop-color="#0099ff"/>
      <stop offset="1.0" stop-color="#ff66cc"/>
    </linearGradient>
    <radialGradient cx="0" cy="0" gradientTransform="matrix(0.0103, 0.0, 0.0, 0.0103, 29.35, 10.45)" gradientUnits="userSpaceOnUse" id="gradient17" r="819.2" spreadMethod="pad">
      <stop offset="0.0" stop-color="#ffffff"/>
      <stop offset="0.396078431372549" stop-color="#e9f7ff"/>
      <stop offset="1.0" stop-color="#0099ff"/>
      <stop offset="1.0" stop-color="#ff66cc"/>
    </radialGradient>
    <radialGradient cx="0" cy="0" gradientTransform="matrix(0.0318, 0.0, 0.0, 0.0318, 85.6, 9.3)" gradientUnits="userSpaceOnUse" id="gradient18" r="819.2" spreadMethod="pad">
      <stop offset="0.0" stop-color="#ffffff"/>
      <stop offset="0.396078431372549" stop-color="#e9f7ff"/>
      <stop offset="1.0" stop-color="#0099ff"/>
      <stop offset="1.0" stop-color="#ff66cc"/>
    </radialGradient>
    <radialGradient cx="0" cy="0" gradientTransform="matrix(0.0306, 0.0, 0.0, 0.0306, 49.9, 5.9)" gradientUnits="userSpaceOnUse" id="gradient19" r="819.2" spreadMethod="pad">
      <stop offset="0.0" stop-color="#ffffff"/>
      <stop offset="0.396078431372549" stop-color="#e9f7ff"/>
      <stop offset="1.0" stop-color="#0099ff"/>
      <stop offset="1.0" stop-color="#ff66cc"/>
    </radialGradient>
    <linearGradient gradientTransform="matrix(0.0, -0.0134, 0.0114, 0.0, 58.5, 17.1)" gradientUnits="userSpaceOnUse" id="gradient20" spreadMethod="pad" x1="-819.2" x2="819.2">
      <stop offset="0.0" stop-color="#ffffff"/>
      <stop offset="0.396078431372549" stop-color="#e9f7ff"/>
      <stop offset="1.0" stop-color="#0099ff"/>
      <stop offset="1.0" stop-color="#ff66cc"/>
    </linearGradient>
    <linearGradient gradientTransform="matrix(0.0, -0.0105, 0.0109, 0.0, 94.35, 17.2)" gradientUnits="userSpaceOnUse" id="gradient21" spreadMethod="pad" x1="-819.2" x2="819.2">
      <stop offset="0.0" stop-color="#ffffff"/>
      <stop offset="0.396078431372549" stop-color="#e9f7ff"/>
      <stop offset="1.0" stop-color="#0099ff"/>
      <stop offset="1.0" stop-color="#ff66cc"/>
    </linearGradient>
    <radialGradient cx="0" cy="0" gradientTransform="matrix(0.009, 0.0, 0.0, 0.009, 92.95, 12.1)" gradientUnits="userSpaceOnUse" id="gradient22" r="819.2" spreadMethod="pad">
      <stop offset="0.0" stop-color="#ffffff"/>
      <stop offset="0.396078431372549" stop-color="#e9f7ff"/>
      <stop offset="1.0" stop-color="#0099ff"/>
      <stop offset="1.0" stop-color="#ff66cc"/>
    </radialGradient>
  </defs>
</svg>
