<?xml version="1.0" encoding="UTF-8" standalone="no"?>
<svg xmlns:xlink="http://www.w3.org/1999/xlink" height="598.6px" width="749.3px" xmlns="http://www.w3.org/2000/svg">
  <g transform="matrix(1.0, 0.0, 0.0, 1.0, 0.0, 0.0)">
    <path d="M89.5 2.9 L101.65 1.7 121.95 0.0 133.6 0.0 134.7 0.15 139.0 0.95 143.9 2.3 148.7 3.7 153.6 5.1 158.2 6.3 159.45 6.6 173.15 6.6 174.5 6.45 175.9 6.3 177.3 6.15 178.5 6.0 180.95 5.7 182.2 5.55 198.65 5.7 200.05 6.15 201.4 6.6 202.5 6.9 203.1 7.05 203.7 7.25 204.8 7.55 205.85 8.0 207.1 8.45 208.0 8.95 211.3 10.65 Q215.35 12.35 219.25 14.4 L226.8 18.05 229.55 19.05 230.45 19.2 232.3 19.5 235.1 20.0 239.7 20.8 Q241.8 21.2 243.85 22.0 L245.4 22.25 246.45 22.45 247.5 22.6 249.05 22.9 250.45 23.35 251.85 23.8 253.05 24.1 253.85 24.3 254.6 24.45 255.85 24.75 256.9 25.2 258.15 25.7 259.2 26.15 260.15 26.6 261.05 27.05 262.3 27.5 263.65 28.0 264.6 28.3 265.35 28.45 266.15 28.6 266.9 28.75 267.65 28.9 268.45 29.05 269.95 29.4 272.1 29.95 274.3 30.3 275.65 30.75 276.6 31.05 277.05 31.2 283.95 31.5 285.05 31.95 286.25 32.45 287.35 32.9 287.8 33.35 288.25 33.8 288.75 34.3 289.35 34.75 290.6 35.2 292.9 35.95 294.1 36.25 297.65 37.1 Q299.6 37.65 301.5 38.45 L301.95 38.9 302.4 39.35 302.7 39.8 302.85 40.25 303.2 40.75 303.65 41.2 304.1 41.65 304.85 42.1 307.1 42.55 307.2 41.5 312.1 42.9 311.5 46.15 314.4 45.4 311.2 49.05 315.0 52.9 313.65 56.75 313.3 57.15 Q311.1 59.3 313.2 60.75 L312.7 67.8 313.35 73.35 Q310.2 76.2 311.95 78.45 L310.85 82.1 312.4 87.5 309.2 90.1 313.35 91.5 309.35 92.25 312.55 94.55 Q309.95 96.55 314.1 94.9 L313.95 99.5 314.4 103.65 316.4 105.5 317.0 108.25 318.55 110.4 Q316.7 112.2 318.1 114.55 320.15 112.75 321.35 114.85 L320.4 119.45 Q319.9 121.0 321.0 119.95 L327.0 121.3 331.3 123.0 333.0 125.75 Q335.25 126.15 335.15 124.1 L339.95 124.7 342.4 123.8 344.7 125.3 346.4 124.25 Q347.75 125.2 349.0 124.4 L351.9 123.45 355.0 126.25 358.2 123.8 360.7 124.7 Q363.45 122.65 365.0 125.15 L369.45 125.75 371.9 125.6 Q373.8 128.15 375.15 125.6 L378.35 123.95 383.75 125.95 382.5 123.95 387.6 123.6 395.9 121.3 394.5 125.0 397.55 121.95 399.75 124.25 404.0 121.6 409.7 119.3 411.7 120.85 Q413.05 117.5 419.1 120.7 L422.95 118.7 428.65 120.25 427.1 117.65 433.25 119.0 439.85 114.55 Q441.1 117.05 443.1 114.55 L446.9 117.3 Q448.5 118.55 448.45 115.95 L451.2 117.45 Q453.6 114.3 453.55 118.4 456.35 114.65 458.6 118.7 L464.0 119.0 467.85 119.95 474.9 120.4 476.9 125.0 476.3 133.75 478.6 136.95 478.3 139.25 475.7 144.35 478.0 145.6 475.7 151.55 476.75 155.25 475.7 158.65 476.15 163.55 474.45 167.55 478.15 172.0 479.35 178.95 476.15 185.4 478.0 192.3 476.3 198.15 476.65 198.2 Q480.15 201.0 476.3 204.3 L476.3 209.7 472.6 210.45 Q472.55 207.7 470.6 208.6 L464.3 212.0 Q463.85 209.0 460.9 211.7 L457.85 208.0 455.25 211.55 450.0 207.55 445.4 209.35 442.95 208.0 437.25 209.2 436.9 208.3 Q436.15 206.95 435.1 209.55 437.3 212.0 432.65 211.7 L428.8 209.05 421.7 209.35 415.9 211.2 413.1 208.75 Q410.7 212.45 409.6 208.6 L406.65 210.3 403.6 209.7 401.1 209.7 398.5 211.2 398.5 210.75 Q398.7 208.6 396.2 211.7 L391.75 209.55 387.6 208.45 385.15 210.0 382.05 209.7 380.2 213.35 Q377.95 215.0 378.2 212.0 L373.9 210.75 Q369.8 210.8 369.75 214.45 L363.15 217.65 358.25 221.5 358.55 228.75 357.0 230.75 355.15 235.35 353.3 237.35 352.7 240.1 353.3 241.95 351.0 246.1 354.55 248.4 353.3 250.75 352.7 253.95 355.95 255.95 350.7 262.25 352.85 264.55 353.95 267.8 354.4 273.3 352.4 275.8 351.15 280.85 351.15 281.2 Q351.5 282.0 353.15 280.4 L351.45 285.6 354.55 289.3 353.45 295.3 353.0 301.75 354.1 306.35 353.3 309.15 352.55 318.35 350.7 320.25 353.8 325.75 353.15 326.2 Q351.25 326.15 352.7 328.05 L352.7 332.95 354.4 336.65 351.75 339.9 355.0 343.55 353.9 350.95 Q356.7 351.5 357.0 355.25 L360.7 357.7 363.0 361.55 Q366.7 359.3 367.3 364.0 L371.75 366.8 373.45 365.25 378.05 366.0 379.6 367.1 386.95 366.45 388.65 367.55 391.45 367.25 392.95 365.85 Q395.5 364.6 394.95 367.25 397.5 369.35 396.05 365.7 L401.4 367.25 407.55 366.0 410.2 367.55 412.35 365.4 424.5 365.25 427.25 364.65 Q429.4 362.1 430.15 364.3 L437.1 362.95 441.1 363.4 456.6 362.65 459.55 360.95 475.05 366.45 475.5 391.7 472.45 401.5 475.05 407.05 471.5 412.15 473.8 417.65 470.75 432.3 473.1 436.9 472.75 442.45 475.0 447.4 Q471.45 447.5 474.9 451.05 L475.0 453.85 Q478.1 456.1 473.1 455.05 L470.75 457.05 463.4 454.25 457.5 454.95 Q453.95 453.75 442.5 453.8 L417.75 455.8 415.25 454.85 413.6 455.8 391.0 454.1 389.1 455.65 387.15 454.6 381.5 455.85 372.85 455.35 369.6 453.95 357.0 455.8 352.7 453.65 348.85 455.65 344.8 454.45 341.5 455.35 337.2 454.45 332.65 455.25 Q326.8 458.35 318.85 454.5 L307.05 455.8 277.5 454.4 275.65 455.85 Q262.15 453.7 247.35 454.4 L244.45 456.55 238.9 453.8 235.4 455.35 229.1 453.35 214.95 456.4 211.3 454.05 211.25 454.6 Q211.0 455.5 210.0 455.2 L189.9 456.4 186.95 453.65 181.75 455.8 176.3 453.85 176.0 454.0 175.65 454.25 175.4 454.5 175.05 454.8 174.45 455.05 173.1 455.6 171.35 456.3 170.7 456.2 170.55 455.95 170.55 455.65 170.9 455.4 171.35 455.15 171.7 454.95 170.9 455.05 170.8 455.15 170.45 455.3 170.0 455.55 169.4 455.85 168.95 455.95 168.45 456.2 167.9 456.45 167.45 456.65 166.85 456.55 166.55 456.3 163.55 456.35 163.2 456.45 162.85 456.55 162.35 456.65 162.0 456.9 161.55 456.9 161.25 456.65 161.0 456.35 160.65 456.1 160.3 455.85 159.95 455.55 159.6 455.3 159.15 455.5 158.0 455.5 157.75 455.2 157.5 454.95 157.5 454.7 156.6 454.45 156.4 454.15 156.4 453.9 156.6 453.65 156.25 453.65 155.55 453.9 155.25 454.15 154.9 454.45 153.75 454.45 153.6 454.15 153.6 453.9 154.05 453.6 154.4 453.35 154.2 453.1 153.4 453.0 153.3 452.85 152.4 452.8 152.25 452.9 152.2 453.2 152.0 453.45 151.75 453.7 150.95 453.7 150.75 453.45 150.75 453.2 151.05 452.9 151.2 452.75 150.0 452.7 149.9 452.85 149.45 453.0 149.0 452.85 149.0 452.7 148.45 452.65 147.9 451.95 147.65 452.05 147.4 452.3 147.25 452.55 147.05 452.85 146.8 453.1 146.45 453.35 146.0 453.35 145.8 453.1 145.8 452.85 145.55 452.55 145.45 452.3 145.55 452.05 145.8 451.8 146.1 451.5 146.15 451.25 146.15 451.0 146.15 450.7 146.25 450.45 146.35 450.2 146.4 450.05 145.15 448.4 143.9 426.3 146.15 421.35 146.15 421.15 146.0 420.85 145.8 420.6 145.75 420.35 145.55 420.1 145.45 419.8 145.45 419.55 145.45 419.3 145.9 419.0 146.15 418.85 146.15 418.55 146.45 418.3 146.55 418.05 146.55 417.8 146.55 417.5 146.8 417.25 146.95 417.05 147.05 417.0 147.3 417.0 147.5 417.0 147.75 417.25 147.9 417.45 149.0 415.05 153.6 416.0 165.45 414.6 170.55 416.75 Q170.75 412.65 175.15 417.45 L179.75 415.05 186.2 415.2 187.7 418.35 Q189.8 416.1 186.35 414.45 L199.55 416.45 203.7 413.2 205.4 415.8 221.85 415.2 225.1 418.45 227.7 415.05 Q240.9 420.6 247.0 416.0 L251.2 414.6 253.5 416.3 258.7 414.2 263.05 414.6 Q270.15 419.65 277.35 414.15 L278.6 411.85 284.9 408.3 287.2 408.9 291.2 407.5 287.95 405.85 293.65 403.7 Q296.9 394.1 303.5 386.9 299.15 382.95 303.4 383.75 305.9 384.8 305.95 373.25 L304.3 369.95 306.1 368.45 304.45 350.8 306.3 347.9 304.15 345.1 Q308.75 341.8 305.2 340.85 L305.45 315.65 Q301.0 316.1 304.75 311.0 L304.15 309.0 305.2 307.45 303.95 303.3 305.65 296.85 303.95 295.45 303.8 292.4 302.7 290.15 304.75 284.25 305.3 257.65 304.05 253.5 303.2 234.1 306.6 233.65 304.65 232.75 Q302.4 231.1 304.25 228.2 299.45 219.3 305.05 208.0 L302.0 204.6 304.7 198.8 304.6 193.1 Q299.55 184.25 302.75 175.45 L301.35 169.1 303.2 165.85 300.6 156.4 297.35 150.2 296.1 149.6 Q294.5 148.6 295.7 147.35 L293.35 145.55 291.45 141.95 289.35 141.55 282.25 132.35 276.1 130.8 273.8 127.25 270.75 127.2 Q264.2 121.4 252.0 124.5 L244.9 125.6 242.3 123.6 236.3 124.5 233.4 122.95 224.9 123.6 Q203.95 124.75 182.2 124.5 L178.5 127.6 173.4 128.95 171.75 132.2 167.5 133.15 158.8 140.65 156.5 144.35 154.4 145.9 Q158.3 149.8 151.65 151.75 L145.45 160.0 144.7 162.15 144.7 165.95 Q140.9 168.6 145.3 171.4 L142.7 175.7 144.2 177.55 143.6 183.1 Q139.5 184.6 142.3 185.1 L141.95 188.55 145.45 216.3 147.3 218.75 149.15 227.2 146.35 230.4 Q151.25 236.75 146.5 243.2 L147.75 248.25 143.6 250.7 141.95 253.2 134.75 250.7 Q130.3 256.05 122.1 250.85 L118.55 252.85 113.45 250.55 105.95 254.1 94.4 251.35 88.9 253.5 82.2 250.75 80.4 252.25 75.8 251.0 72.75 257.8 68.9 249.65 69.15 248.5 68.9 248.6 68.3 248.5 68.1 248.25 68.1 247.95 68.1 247.7 68.3 247.45 68.45 247.15 68.45 246.9 68.45 246.65 68.45 246.4 68.45 246.1 68.45 245.85 68.45 245.6 68.45 245.3 68.35 245.05 68.1 244.8 68.1 244.5 68.1 244.25 68.1 244.0 68.0 243.75 67.85 243.45 67.75 243.2 67.65 242.95 67.4 242.65 67.15 242.4 61.9 242.15 61.55 241.95 54.25 242.05 53.7 242.25 52.3 242.3 51.95 242.4 51.6 242.5 51.25 242.6 50.9 242.65 50.55 242.75 49.9 242.95 49.4 243.2 48.85 243.45 48.4 243.65 Q46.95 243.85 45.6 244.35 L41.6 245.65 40.3 246.1 38.7 246.3 38.15 246.45 33.65 246.4 33.15 246.2 31.2 246.0 30.65 245.85 29.8 245.65 29.35 245.4 28.9 245.15 28.55 244.9 28.0 244.6 27.5 244.35 27.15 244.1 26.85 243.8 26.5 243.55 26.1 243.3 25.7 243.0 25.55 242.75 24.85 242.5 24.65 242.25 24.55 241.95 24.4 241.7 23.75 241.45 23.6 241.15 23.5 240.9 23.35 240.65 23.25 240.35 23.15 240.1 22.9 239.85 22.9 239.6 22.75 239.35 22.6 239.7 22.3 240.6 22.0 241.55 21.7 242.45 21.4 242.9 21.25 243.4 20.95 243.85 20.8 244.3 20.45 244.75 20.3 245.2 20.0 245.7 19.85 246.15 19.55 246.6 19.4 247.05 19.1 247.55 18.95 248.0 18.6 248.45 18.45 248.9 18.15 249.35 18.0 249.85 17.85 250.3 17.55 250.75 17.4 251.2 17.25 251.7 16.95 252.15 16.8 252.6 16.65 253.05 16.3 253.55 16.3 254.0 16.15 254.45 16.0 254.9 16.0 255.35 15.85 255.85 15.7 256.3 15.7 256.75 15.55 257.2 15.4 257.7 15.4 258.15 15.25 258.6 15.1 259.05 15.1 259.5 14.95 260.0 14.95 260.45 14.95 260.9 14.8 261.35 14.8 261.85 14.8 262.3 14.65 262.75 14.65 263.2 14.65 263.65 14.45 264.15 14.45 271.95 14.45 279.8 14.45 287.65 14.45 295.5 14.45 302.85 14.45 305.65 14.65 306.1 14.65 306.55 14.65 307.0 14.65 307.5 14.75 307.75 14.8 307.7 14.85 307.4 15.05 307.15 15.2 306.9 15.5 306.6 15.9 306.35 16.2 306.1 16.3 305.85 16.8 305.55 17.15 305.3 17.4 305.05 17.7 304.75 18.2 304.5 18.55 304.25 18.85 303.95 19.1 303.7 19.65 303.45 19.9 303.25 20.15 303.2 20.85 303.0 21.2 302.8 21.85 302.65 22.3 302.5 22.9 302.3 23.45 302.05 Q24.75 301.5 26.15 301.1 L27.2 300.8 27.85 300.6 28.55 300.35 29.1 300.1 29.6 299.8 30.05 299.55 30.4 299.3 30.85 299.05 31.45 298.85 34.3 298.25 35.6 297.95 36.5 297.8 37.4 297.6 38.1 297.4 38.9 297.15 39.7 296.95 41.25 296.55 41.7 296.45 43.55 296.4 44.0 296.3 44.45 296.2 44.9 296.1 57.85 296.2 58.4 296.4 65.65 296.3 66.1 296.1 67.05 295.95 67.05 295.65 67.05 295.4 67.25 295.15 68.1 294.9 68.75 294.6 69.0 294.45 69.25 294.4 69.25 294.35 71.25 294.45 71.95 292.7 74.1 292.55 83.5 293.9 Q83.9 291.2 86.7 293.15 86.05 290.1 88.9 293.0 L93.5 293.6 103.8 293.9 106.85 292.7 113.0 292.85 115.6 294.35 131.9 293.9 131.8 294.3 Q131.0 296.5 131.9 295.45 132.0 294.85 132.25 294.4 L132.3 294.3 Q133.05 292.8 135.25 293.6 L139.75 294.2 142.85 294.2 145.15 293.3 149.15 294.7 154.8 292.2 157.45 293.3 163.45 291.0 168.35 293.6 166.05 290.55 172.65 288.85 171.25 286.7 174.95 284.85 Q177.7 284.45 176.5 281.9 L180.95 279.45 182.8 273.95 Q186.2 272.9 185.25 271.15 L188.05 269.8 Q183.45 268.45 188.05 267.45 184.7 266.05 188.65 265.3 L189.1 260.25 188.2 255.65 190.5 251.8 189.1 243.05 190.8 236.1 188.8 231.65 189.85 228.25 190.65 228.9 Q192.9 231.35 192.35 229.2 191.8 225.0 188.2 225.35 L188.5 222.1 190.35 218.45 187.55 218.6 189.1 214.9 186.95 214.3 186.35 210.6 186.4 210.2 Q187.4 208.5 185.4 207.35 L188.2 203.2 Q184.2 202.7 185.9 201.05 L183.25 198.6 Q187.65 198.8 185.1 196.6 189.15 196.1 183.25 194.75 187.35 192.75 182.65 193.55 L183.55 188.9 186.05 184.0 188.95 183.85 184.95 181.1 185.25 178.3 187.7 174.3 188.8 170.3 189.0 170.05 Q192.2 171.8 192.8 168.0 L197.25 168.6 197.8 168.2 198.3 167.95 198.9 167.65 199.55 167.35 200.15 166.95 200.3 166.85 200.4 166.75 200.45 166.7 200.5 166.65 200.6 166.65 200.65 166.65 200.75 166.75 200.75 166.85 200.75 166.95 200.7 167.05 200.6 167.15 200.45 167.25 200.45 167.3 200.3 167.35 200.05 167.45 199.55 167.75 199.05 168.05 198.85 168.1 198.65 168.2 198.35 168.4 198.1 168.6 198.25 168.6 198.4 168.6 198.6 168.5 198.8 168.45 198.9 168.45 199.0 168.4 199.15 168.4 199.3 168.35 199.4 168.3 199.5 168.3 199.6 168.25 199.85 168.2 200.15 168.2 200.25 168.3 200.25 168.4 200.15 168.5 200.5 168.55 200.8 168.45 201.25 168.25 201.55 168.15 200.5 167.4 214.8 167.85 216.0 166.65 220.75 167.7 229.0 168.0 235.2 166.45 242.9 168.95 246.15 166.65 249.05 169.25 253.65 168.0 258.6 170.15 257.65 175.25 257.95 182.15 261.2 186.9 262.1 193.4 258.55 199.0 259.0 211.25 261.2 220.75 259.65 223.35 260.3 234.25 Q265.1 241.7 259.35 248.55 L260.65 255.55 Q264.2 259.85 260.6 262.15 264.0 279.75 261.4 296.4 L261.35 296.8 263.5 299.0 264.6 302.2 262.4 306.55 260.9 318.35 262.9 320.2 264.1 324.8 261.05 328.95 262.6 335.95 Q260.45 337.55 262.9 339.4 L262.9 347.35 Q260.05 350.3 262.85 352.3 259.15 356.4 262.35 357.35 L263.35 370.65 Q249.5 376.55 233.4 372.8 L232.0 374.45 227.85 375.25 Q218.75 368.7 206.3 375.25 L202.5 371.7 192.8 374.0 192.5 373.5 192.4 373.6 192.3 373.7 192.2 373.8 192.1 373.9 191.95 374.0 191.75 374.1 191.55 374.1 191.35 374.1 191.1 374.0 190.95 373.9 190.85 373.8 190.75 373.7 190.7 373.6 190.6 373.5 190.6 373.4 190.55 373.35 190.55 373.25 190.55 373.15 190.55 373.05 190.55 372.95 190.5 372.85 190.4 372.75 190.35 372.65 190.3 372.55 190.25 372.45 190.2 372.4 184.65 373.85 Q181.25 371.65 179.2 374.35 L175.35 372.7 175.3 372.7 175.15 372.8 175.0 372.9 174.85 373.0 174.75 373.1 174.65 373.2 174.6 373.3 174.5 373.4 174.4 373.5 174.3 373.6 174.15 373.7 174.05 373.75 174.0 373.8 173.85 373.85 173.65 373.85 173.6 373.85 173.9 375.25 165.8 373.25 165.7 373.3 165.6 373.35 165.45 373.45 165.25 373.55 165.05 373.55 164.25 373.6 164.15 373.65 164.0 373.65 163.85 373.7 163.65 373.75 163.25 373.75 163.05 373.7 162.8 373.65 162.65 373.55 162.6 373.45 162.45 373.45 162.25 373.45 162.0 373.35 161.85 373.3 161.75 373.2 161.65 373.1 161.6 373.0 161.5 373.0 161.45 373.1 161.35 373.2 161.25 373.3 161.15 373.35 161.1 373.45 161.0 373.55 160.95 373.65 160.85 373.75 160.75 373.85 160.6 373.95 160.4 374.05 160.15 374.15 159.9 374.25 159.7 374.3 159.55 374.35 159.35 374.4 159.2 374.4 159.05 374.45 158.9 374.5 158.7 374.5 158.5 374.5 158.35 374.45 158.2 374.4 158.05 374.4 157.9 374.35 157.7 374.3 157.55 374.2 157.4 374.1 157.25 374.0 157.15 373.9 157.0 373.8 156.85 373.7 156.75 373.6 156.65 373.5 156.55 373.4 156.5 373.3 156.4 373.2 156.4 373.1 156.35 373.0 156.2 372.95 155.95 373.05 155.7 373.15 155.2 373.35 154.7 373.55 154.5 373.65 154.35 373.75 154.15 373.85 153.95 373.95 153.7 374.1 153.55 374.2 153.5 374.3 153.4 374.4 153.4 374.5 153.3 374.6 153.25 374.7 153.15 374.8 153.0 374.9 152.9 374.95 152.75 375.0 152.45 375.05 152.35 375.1 152.25 375.2 152.1 375.3 152.0 375.35 151.8 375.4 151.65 375.4 151.45 375.4 151.2 375.35 151.05 375.25 150.95 375.15 150.85 375.05 150.8 374.95 150.7 374.85 150.7 374.75 150.65 374.65 150.65 374.55 150.65 374.45 150.65 374.35 150.65 374.25 150.6 374.15 150.6 374.05 150.6 373.95 147.45 374.6 149.15 376.3 Q138.35 371.9 127.65 376.15 L113.15 387.95 103.05 404.75 104.9 408.9 102.6 411.7 102.3 416.15 104.15 422.1 Q108.3 424.2 103.2 426.6 L103.0 430.4 Q106.45 439.9 101.95 449.95 L103.5 451.65 102.1 453.2 102.45 459.2 Q104.9 461.05 103.05 463.15 103.5 466.35 105.45 467.4 L105.95 476.1 109.2 478.1 109.2 480.7 113.65 483.45 115.35 491.6 122.7 493.0 125.15 495.25 128.7 493.45 133.0 495.3 137.65 493.3 145.5 497.65 145.55 497.55 145.7 497.5 145.75 497.45 145.9 497.45 146.1 497.4 146.3 497.45 146.55 497.5 146.65 497.6 146.8 497.7 146.9 497.75 147.05 497.75 147.25 497.65 147.4 497.55 147.55 497.45 147.7 497.35 147.9 497.25 148.05 497.15 148.2 497.05 148.35 496.95 148.55 496.85 148.75 496.75 148.95 496.65 149.4 496.45 150.0 496.2 150.05 496.15 150.2 496.15 150.4 496.1 150.75 496.1 150.95 496.15 151.2 496.2 151.35 496.3 151.45 496.4 151.55 496.5 151.6 496.6 151.65 496.7 151.7 496.8 151.7 496.9 151.75 497.0 151.75 497.1 151.75 497.15 155.95 496.85 158.25 498.35 160.7 497.2 172.7 497.6 175.3 498.2 191.9 498.2 199.75 496.4 201.25 498.05 210.05 499.0 215.75 498.2 220.2 499.15 221.55 497.7 227.7 499.0 Q228.9 494.9 233.25 499.9 L235.4 498.55 Q249.6 495.9 261.75 500.0 L279.85 497.9 282.9 499.15 287.65 496.4 290.95 498.4 305.5 497.0 308.75 498.7 312.55 496.85 Q320.9 501.95 329.8 497.0 L358.5 498.25 363.45 497.8 369.45 495.15 375.45 499.0 378.55 497.0 386.2 499.65 Q384.9 495.9 390.4 497.0 L391.9 498.4 405.15 497.45 407.3 499.7 408.05 496.4 414.2 496.95 Q416.15 499.85 416.5 495.6 L424.05 498.4 430.35 496.4 433.55 498.4 436.8 496.85 440.05 498.4 441.95 497.6 449.9 497.5 449.9 497.4 449.9 497.3 449.9 497.2 449.95 497.1 450.0 497.0 450.1 496.9 450.2 496.8 450.3 496.7 450.45 496.6 450.65 496.55 450.85 496.55 450.85 496.5 451.05 496.55 451.3 496.6 451.4 496.7 451.55 496.8 451.65 496.9 451.75 497.0 451.9 497.1 452.05 497.2 452.15 497.3 452.25 497.4 452.3 497.45 453.85 497.4 452.95 497.85 453.0 497.9 453.25 498.1 453.55 498.25 456.15 498.5 457.9 498.7 459.05 498.85 460.5 498.9 460.7 498.9 460.9 499.0 461.0 499.05 462.15 497.0 467.8 496.5 469.25 497.6 479.85 496.3 487.4 494.8 489.85 493.3 493.85 494.4 496.3 491.45 501.2 491.65 503.05 488.1 512.25 479.9 511.45 476.1 514.6 474.3 Q510.9 471.65 515.65 466.55 513.1 462.8 516.55 461.8 L519.35 456.25 515.95 452.1 518.1 450.6 514.45 442.9 515.5 438.1 515.45 438.1 515.25 438.15 515.05 438.2 514.85 438.15 514.6 438.1 514.45 438.0 514.35 437.9 514.25 437.8 514.2 437.7 514.15 437.6 514.1 437.5 514.05 437.4 514.05 437.3 514.05 437.2 514.05 437.1 514.05 437.0 514.1 436.9 514.15 436.85 514.2 436.75 514.25 436.65 514.35 436.55 514.4 436.45 514.45 436.35 514.45 436.25 514.5 436.15 514.5 436.05 514.55 435.95 514.6 435.85 514.65 435.75 514.7 435.65 514.7 435.55 514.75 435.45 514.8 435.35 514.85 435.25 514.85 435.15 514.9 435.05 514.95 434.95 515.0 434.85 515.05 434.75 515.05 434.7 515.15 434.6 515.15 434.5 515.25 434.4 515.3 434.3 515.35 434.2 515.4 434.1 515.45 434.0 515.55 433.9 515.55 433.8 515.6 433.7 515.7 433.6 515.7 433.5 515.8 433.4 515.85 433.3 515.9 433.25 515.9 432.65 515.85 432.55 515.8 432.45 515.8 432.35 515.75 432.25 515.6 432.15 515.55 432.05 515.45 432.0 515.35 431.9 515.3 431.8 515.25 431.7 515.25 431.6 515.2 431.55 Q513.0 430.25 514.85 426.55 L511.65 421.5 515.5 420.25 514.1 416.6 518.25 408.75 514.7 405.05 517.65 398.6 514.7 397.05 516.7 394.3 517.65 388.75 516.55 385.2 518.1 382.0 515.35 376.0 519.15 372.0 515.3 364.5 Q510.8 362.0 518.25 359.55 L517.15 357.25 518.2 352.6 518.05 352.55 517.85 352.45 517.75 352.35 517.65 352.25 517.55 352.15 517.5 352.05 517.4 351.95 517.3 351.9 517.2 351.8 517.2 351.7 517.1 351.6 517.1 351.5 517.1 351.4 517.1 351.3 517.1 351.2 517.1 351.1 517.1 351.0 517.1 350.9 517.1 350.8 517.1 350.75 516.05 351.25 513.95 342.75 511.8 339.4 508.85 339.55 502.4 332.95 498.75 331.75 497.55 330.4 Q490.6 330.7 487.75 326.15 L482.45 326.05 Q482.55 320.9 479.85 322.9 L473.95 320.55 471.25 321.1 469.35 320.05 452.9 320.95 450.45 322.95 448.45 319.1 425.4 322.95 422.35 324.35 411.15 323.65 402.35 324.95 398.05 324.05 395.1 324.7 393.8 312.4 396.2 307.75 394.2 305.45 394.2 301.45 397.1 299.0 392.95 295.15 395.9 290.55 392.35 287.6 395.75 283.3 392.35 279.0 394.75 274.9 Q390.95 271.6 395.2 268.5 L392.35 260.25 395.4 257.95 394.8 254.25 396.5 252.25 400.05 252.85 401.85 251.15 403.75 252.4 405.9 252.4 407.9 250.85 421.25 251.95 424.45 250.75 441.65 252.1 477.5 251.0 479.8 249.65 482.9 250.55 484.75 249.65 488.6 250.7 493.3 250.3 496.6 247.35 502.9 246.1 515.95 234.4 519.8 227.65 518.25 222.75 516.25 219.65 520.25 216.0 520.4 215.5 Q521.6 212.75 518.7 212.3 L518.6 212.0 Q521.05 208.5 518.4 208.15 L521.75 206.3 518.4 205.2 522.7 199.7 519.0 200.75 516.55 193.85 520.25 193.25 521.6 185.7 517.8 187.4 521.3 180.95 521.25 180.05 Q521.0 179.1 519.8 180.3 L521.45 175.4 517.15 176.8 520.1 172.15 516.55 167.55 520.1 164.8 515.95 162.2 517.95 160.35 518.15 159.85 Q518.15 157.0 521.05 158.45 L516.55 156.05 518.85 153.75 Q519.55 152.85 517.8 151.75 520.1 148.6 518.7 148.35 L516.1 144.2 519.45 139.1 Q516.5 137.3 519.0 135.6 L517.95 133.75 518.35 133.3 Q520.1 130.95 516.55 131.3 L516.55 126.8 Q518.35 124.5 516.25 124.35 519.35 121.9 516.55 119.75 L519.95 114.85 515.95 115.9 517.6 111.3 514.1 109.9 515.65 104.55 514.7 99.6 510.4 101.75 512.25 97.6 509.15 94.4 Q509.05 90.75 505.0 93.6 L504.4 93.15 Q503.45 92.1 504.25 90.55 L498.4 87.8 493.8 88.25 498.55 83.65 495.95 84.85 491.35 84.7 490.45 85.35 Q489.1 85.8 489.5 84.25 L485.05 82.55 Q482.95 82.1 485.2 80.25 L480.9 80.85 Q475.2 80.15 476.3 78.25 478.65 77.0 475.05 77.05 L473.05 74.75 472.55 75.5 Q470.6 79.1 469.85 75.95 L466.6 76.45 464.75 74.1 461.2 75.95 461.0 74.65 Q460.85 74.3 460.8 75.8 L460.75 76.25 454.6 73.95 Q454.85 76.45 451.7 75.2 L451.3 74.35 Q450.9 73.5 451.05 75.2 L451.05 75.65 Q449.2 77.9 446.3 75.35 L441.4 73.95 Q436.9 72.2 438.75 76.1 439.25 79.15 436.15 75.8 L432.45 77.8 Q429.9 75.45 428.95 77.35 L416.65 78.25 416.2 77.85 Q413.65 75.8 414.2 78.75 L410.65 79.35 407.7 80.25 405.25 77.35 403.9 81.95 389.25 82.75 387.45 78.75 383.3 79.95 386.5 80.45 379.15 85.65 379.9 81.65 371.0 83.35 367.9 84.4 Q364.9 84.5 365.3 81.8 L360.7 83.5 359.0 83.2 355.3 84.6 354.55 84.1 Q353.2 82.85 354.55 80.6 L353.6 75.65 Q351.5 76.35 351.15 74.4 L353.15 71.05 Q352.25 68.65 355.0 67.8 L351.75 66.9 Q353.85 66.05 352.4 64.0 L356.05 60.0 355.8 59.1 Q355.4 58.2 353.3 59.85 L355.15 55.2 Q351.8 55.0 353.9 52.15 L351.15 49.85 354.4 46.75 352.4 44.45 355.95 44.55 355.95 44.5 355.95 44.4 356.05 44.3 356.05 44.2 356.1 44.15 356.05 44.1 356.05 43.65 356.05 43.2 356.05 42.75 356.05 42.25 356.05 41.8 356.35 41.35 357.25 41.1 357.25 41.05 357.25 40.95 357.35 40.85 357.45 40.75 357.55 40.7 357.65 40.6 357.75 40.5 357.9 40.4 357.95 40.4 358.1 40.35 358.3 40.35 358.3 40.3 358.5 40.35 358.65 40.4 359.3 40.0 360.05 39.5 361.0 39.05 361.9 38.6 363.0 38.15 364.35 37.65 365.75 37.2 366.65 36.9 367.6 36.75 368.5 36.6 369.45 36.45 370.35 36.3 371.3 36.15 372.2 35.95 373.1 35.8 374.05 35.65 381.25 35.45 382.95 35.35 384.65 35.2 386.35 35.05 386.95 34.9 394.3 33.05 406.45 30.25 418.3 28.3 431.7 26.3 442.0 24.55 448.45 23.65 450.0 23.5 451.5 23.35 467.5 23.35 468.75 23.5 472.45 24.0 476.75 24.6 481.0 25.35 484.9 26.3 489.2 27.55 489.65 27.65 490.7 27.8 493.95 28.3 496.7 28.75 499.5 29.2 502.85 29.85 Q505.95 30.5 508.85 31.65 L509.8 32.15 510.7 32.45 511.8 32.75 513.0 33.05 514.55 33.35 516.4 33.65 518.25 33.95 521.0 34.45 523.75 34.9 527.75 35.05 528.55 35.2 529.3 35.35 530.1 35.5 533.3 35.65 533.9 35.8 534.55 35.95 535.15 36.15 563.45 36.3 564.65 36.45 565.9 36.6 567.1 36.75 584.35 37.1 589.9 37.45 644.0 39.95 645.2 40.1 646.45 40.3 647.7 40.4 653.8 40.6 654.9 40.75 656.0 40.9 657.05 41.05 667.95 41.2 668.6 41.35 669.2 41.5 669.8 41.65 673.5 41.8 674.25 41.95 675.05 42.1 675.8 42.25 682.7 42.45 683.65 42.6 684.55 42.75 685.5 42.9 711.6 43.05 712.55 43.2 715.3 43.7 717.6 44.1 719.95 44.6 724.75 45.8 730.55 47.2 731.75 47.5 732.85 47.95 734.05 48.45 735.15 48.85 736.35 49.35 737.45 49.8 738.2 50.3 738.85 50.75 739.45 51.2 740.05 51.65 741.0 52.1 741.9 52.6 742.65 53.05 743.3 53.5 743.6 53.95 743.9 54.4 744.2 54.9 744.7 55.35 745.0 55.8 745.15 56.25 745.45 56.75 745.75 57.2 746.05 57.65 746.35 58.1 746.5 58.55 746.85 59.05 747.0 59.5 747.15 59.95 747.15 60.4 747.3 60.9 747.45 61.35 747.45 61.8 747.6 62.25 747.75 62.7 747.75 63.2 747.9 63.65 747.9 64.1 748.05 64.55 748.2 65.05 748.35 65.5 748.35 65.95 748.5 66.4 748.65 66.85 748.65 67.35 748.65 67.8 748.65 68.25 748.65 68.7 748.65 69.2 748.65 69.65 748.65 70.1 748.65 70.55 748.65 71.0 748.65 71.5 748.65 71.95 748.65 72.4 748.65 72.85 748.65 73.35 748.5 73.8 748.35 74.25 748.05 74.7 747.75 75.15 747.3 75.65 747.15 76.1 746.85 76.55 746.65 77.0 746.35 77.5 746.2 77.95 746.05 78.4 745.9 78.85 745.75 79.3 745.6 79.8 745.45 80.25 745.3 80.7 745.15 81.15 744.85 81.65 744.7 82.1 744.35 82.55 744.05 83.0 743.75 83.45 743.6 83.95 743.45 84.4 743.45 84.85 743.3 85.3 743.15 85.8 743.0 86.25 742.7 86.7 742.5 87.15 742.2 87.6 742.05 88.1 741.9 88.55 741.75 89.0 741.6 89.45 741.45 89.95 741.45 90.4 741.3 90.85 741.15 91.3 741.15 91.75 741.0 92.25 740.85 92.7 740.85 93.15 740.7 93.6 740.7 94.1 740.7 94.55 740.7 95.0 740.7 95.45 740.7 95.9 740.7 96.4 740.7 96.85 740.55 97.3 740.55 97.75 740.35 98.25 740.2 98.7 740.05 99.15 740.05 99.6 740.05 100.1 740.05 100.55 740.05 101.0 740.05 101.45 740.05 101.9 740.05 102.4 740.05 102.85 740.05 103.3 740.05 103.75 740.05 104.25 740.05 104.7 740.05 105.15 740.05 105.6 739.9 106.05 739.75 106.55 739.75 107.0 739.6 107.45 739.45 107.9 739.3 108.4 739.3 108.85 739.15 109.3 739.0 109.75 738.85 110.2 738.85 110.7 738.7 111.15 738.55 111.6 738.35 112.05 738.35 112.55 738.2 113.0 738.2 113.45 738.2 113.9 738.2 114.35 738.2 114.85 738.2 115.3 738.2 115.75 738.2 116.2 738.2 116.7 738.2 117.15 738.05 117.6 737.9 118.05 737.75 118.5 737.6 119.0 737.6 119.45 737.6 119.9 737.6 120.35 737.6 120.85 737.6 121.3 737.6 121.75 737.45 122.2 737.3 122.65 737.15 123.15 737.15 123.6 737.0 124.05 736.85 124.5 736.85 125.0 736.7 125.45 736.55 125.9 736.55 126.35 736.35 126.8 736.35 127.3 736.35 127.75 736.35 128.2 736.35 128.65 736.35 129.15 736.35 129.6 736.35 130.05 736.35 130.5 736.35 130.95 736.35 131.45 736.35 131.9 736.35 132.35 736.35 132.8 736.35 133.75 736.35 134.2 736.55 134.65 736.7 135.1 736.85 135.6 737.0 136.05 737.0 136.5 737.0 136.95 737.0 137.45 737.0 137.9 737.0 138.35 737.0 138.8 737.15 139.3 737.15 139.75 737.3 140.2 737.45 140.65 737.6 141.1 737.6 141.6 737.6 142.05 737.6 142.5 737.6 142.95 737.6 143.45 737.6 143.9 737.6 144.35 737.75 144.8 737.75 145.25 737.9 145.75 738.05 146.2 738.2 146.65 738.2 147.1 738.35 147.6 738.35 148.05 738.55 148.5 738.7 148.95 738.7 149.4 738.85 149.9 738.85 150.35 738.85 150.8 738.85 151.25 738.85 151.75 738.85 152.2 738.85 152.65 738.85 153.1 739.0 153.55 739.0 154.05 739.15 154.5 739.15 154.95 739.3 155.4 739.45 155.9 739.45 156.35 739.75 156.8 739.9 157.25 740.05 157.7 740.2 158.2 740.35 158.65 740.7 159.1 740.7 159.55 740.85 160.05 740.85 160.5 741.0 160.95 741.0 161.4 741.15 161.85 741.15 162.35 741.3 162.8 741.45 163.25 741.6 163.7 741.75 164.2 741.9 164.65 742.2 165.1 742.35 165.55 742.5 166.0 742.7 166.5 742.85 166.95 743.0 167.4 743.0 167.85 743.15 168.35 743.3 168.8 743.45 169.25 743.6 169.7 743.75 170.15 743.75 170.65 743.9 171.1 743.9 171.55 744.05 172.0 744.05 172.5 744.05 172.95 744.2 173.4 744.2 173.85 744.35 174.3 744.35 174.8 744.5 175.25 744.5 175.7 744.5 176.15 744.7 176.65 744.7 177.1 744.7 177.55 744.85 178.0 744.85 178.5 745.0 178.95 745.0 179.4 745.0 179.85 745.0 180.3 745.0 180.8 745.0 181.25 745.0 182.15 745.0 183.1 745.0 184.0 745.0 184.95 744.95 186.3 745.0 187.7 745.0 189.1 745.0 190.0 744.85 190.45 744.85 190.95 744.7 191.4 744.7 191.85 744.7 192.3 744.5 192.75 744.5 193.25 744.35 193.7 744.35 194.15 744.35 194.6 744.35 195.1 744.35 195.55 744.35 196.0 744.35 196.45 744.35 196.9 744.35 197.4 744.35 197.85 744.35 198.3 744.35 198.75 744.35 199.25 744.2 199.7 744.2 200.15 744.2 200.6 744.05 201.05 744.05 201.55 744.05 202.0 743.9 202.45 743.9 202.9 743.9 203.4 743.75 203.85 743.75 204.3 743.75 204.75 743.6 205.2 743.6 205.7 743.6 206.15 743.45 206.6 743.45 207.05 743.45 207.55 743.3 208.0 743.3 208.45 743.15 208.9 743.15 209.35 743.15 209.85 743.15 210.3 743.15 210.75 743.15 211.2 743.15 211.7 743.15 212.15 743.15 212.6 743.15 213.05 743.15 213.5 743.15 214.0 743.15 214.45 743.15 214.9 743.15 215.35 743.0 215.85 743.0 216.3 742.85 216.75 742.85 217.2 742.7 217.65 742.7 218.15 742.7 218.6 742.5 219.05 742.5 219.5 742.35 220.0 742.35 220.45 742.35 220.9 742.2 221.35 742.2 221.85 742.2 222.3 742.05 222.75 742.05 223.2 741.9 223.65 741.9 224.15 741.9 224.6 741.9 225.05 741.9 225.5 741.9 226.0 741.9 226.45 741.9 226.9 741.9 227.35 741.9 227.8 741.9 228.3 741.75 228.75 741.75 229.2 741.6 229.65 741.6 230.15 741.45 230.6 741.45 231.05 741.45 231.5 741.3 231.95 741.3 232.45 741.15 232.9 741.15 233.35 741.0 233.8 741.0 234.3 740.85 234.75 740.85 235.2 740.7 235.65 740.7 236.1 740.5 236.6 740.35 237.05 740.2 237.5 740.2 237.95 740.05 238.45 739.75 238.9 739.6 239.35 739.3 239.8 739.15 240.25 738.85 240.75 738.7 241.2 738.55 241.65 738.35 242.1 738.2 242.6 738.1 242.8 738.1 242.85 738.25 243.35 738.4 243.8 738.4 244.25 738.55 244.7 738.7 245.2 738.85 245.65 738.85 246.1 738.85 246.55 738.85 247.0 738.85 247.5 738.85 247.95 738.85 248.4 738.85 248.85 738.85 249.35 739.0 249.8 739.0 250.25 739.15 250.7 739.15 251.15 739.35 251.65 739.35 252.1 739.5 252.55 739.45 253.5 739.5 254.85 739.5 256.25 739.45 257.65 739.5 259.0 739.5 260.4 739.5 260.85 739.35 261.3 739.35 261.8 739.15 262.25 739.15 262.7 739.0 263.15 739.0 263.6 738.85 264.1 738.85 269.6 738.85 276.1 738.85 282.55 738.85 289.0 738.85 295.45 738.85 297.75 738.7 298.2 738.7 298.65 738.55 299.15 738.55 299.6 738.4 300.05 738.4 300.5 738.25 301.0 738.25 301.45 738.1 301.9 738.1 302.35 737.95 302.8 737.95 303.3 737.8 303.75 737.8 304.2 737.65 304.65 737.65 305.15 737.5 305.6 737.5 306.05 737.35 306.5 737.35 307.0 737.15 307.45 737.15 307.9 737.0 308.35 737.0 308.8 736.85 309.3 736.85 309.75 736.7 310.2 736.7 310.65 736.55 311.15 736.55 311.6 736.55 312.05 736.4 312.5 736.4 312.95 736.25 313.45 736.1 313.9 736.1 314.35 735.95 314.8 735.8 315.3 735.8 315.75 735.65 316.2 735.5 316.65 735.5 317.1 735.35 317.6 735.15 318.05 735.15 318.5 735.15 318.95 735.0 319.45 735.0 319.9 735.0 320.35 734.85 320.8 734.85 321.25 734.85 321.75 734.85 322.2 734.7 322.65 734.7 323.1 734.7 323.6 734.7 324.05 734.55 324.5 734.55 324.95 734.55 325.4 734.55 325.9 734.4 326.35 734.4 326.8 734.4 327.25 734.4 327.75 734.25 328.2 734.25 328.65 734.25 329.1 734.25 329.55 734.1 330.05 734.1 330.5 734.1 330.95 734.1 331.4 733.95 331.9 733.95 337.85 733.95 344.8 733.95 351.7 733.95 358.65 733.95 365.55 733.95 368.3 734.1 368.75 734.1 369.25 734.1 369.7 734.1 370.15 734.1 370.6 734.25 371.1 734.25 371.55 734.25 372.0 734.25 372.45 734.4 372.9 734.4 373.4 734.4 373.85 734.4 374.3 734.55 374.75 734.55 375.25 734.55 375.7 734.55 376.15 734.55 376.6 734.7 377.05 734.7 377.55 734.7 378.0 734.7 378.45 734.85 378.9 734.85 379.4 734.85 379.85 734.85 380.3 735.0 380.75 735.0 381.2 735.0 381.7 735.0 382.15 735.15 382.6 735.15 383.05 735.15 383.55 735.35 384.0 735.35 384.45 735.35 384.9 735.35 385.35 735.5 385.85 735.5 386.3 735.5 386.75 735.5 387.2 735.65 387.7 735.65 388.15 735.65 388.6 735.8 389.05 735.8 389.55 735.8 390.0 735.8 390.45 735.95 390.9 735.95 391.35 735.95 391.85 736.1 392.3 736.1 392.75 736.2 392.6 736.7 392.15 737.3 391.7 737.9 391.2 738.5 390.75 739.15 390.3 739.6 389.85 740.05 389.35 740.5 388.9 741.15 388.45 741.75 388.0 743.45 387.1 744.35 386.6 745.15 386.15 745.6 385.7 746.05 385.2 746.85 384.75 747.45 384.45 747.9 384.4 747.9 384.3 748.8 384.45 749.3 384.9 749.15 385.4 749.0 385.7 748.5 385.85 747.45 386.15 746.8 386.6 746.35 387.05 745.75 387.5 744.95 387.95 744.05 388.45 743.15 388.9 742.5 389.35 741.75 389.85 741.3 390.3 740.85 390.75 740.35 391.2 739.9 391.7 739.3 392.15 738.7 392.6 738.05 393.05 737.45 393.5 737.15 394.0 736.85 394.45 736.35 394.9 736.4 395.05 736.4 395.5 736.4 396.0 736.4 396.9 736.4 397.85 736.4 398.3 736.4 399.2 736.4 400.15 736.85 400.6 737.0 401.05 737.0 401.5 736.85 402.0 736.25 402.3 735.5 402.0 735.0 401.5 734.85 401.05 734.85 400.6 734.85 400.15 734.85 399.2 734.85 398.3 734.85 397.35 734.85 396.75 734.35 397.2 733.9 397.65 733.45 398.15 733.15 398.6 733.0 399.05 732.7 399.5 732.55 400.0 732.35 400.45 732.2 400.9 732.05 401.35 731.75 401.8 731.6 402.3 731.3 402.75 731.15 403.2 730.85 403.65 730.7 404.15 730.7 404.6 730.55 405.05 730.55 405.5 730.4 406.0 730.2 406.45 730.2 406.9 730.05 407.35 729.9 407.8 729.9 408.3 729.75 408.75 729.6 409.2 729.45 409.65 729.3 410.15 729.15 410.6 729.0 411.05 728.85 411.5 728.55 411.95 728.4 412.45 728.05 412.9 727.9 413.35 727.75 413.8 727.6 414.3 727.45 414.75 727.3 415.2 727.3 415.65 727.15 416.1 727.15 417.05 727.15 418.45 727.15 418.9 727.15 419.8 727.15 420.75 727.15 421.2 727.15 422.1 727.15 423.05 727.15 423.95 727.15 424.9 727.15 425.35 727.3 425.8 727.3 426.25 727.45 426.75 727.45 427.2 727.6 427.65 727.6 428.1 727.75 428.55 727.75 429.05 727.75 429.5 727.75 429.95 727.75 430.4 727.75 430.9 727.75 431.35 727.75 431.8 727.9 432.25 727.9 432.7 728.05 433.2 728.2 433.65 728.2 434.1 728.4 434.55 728.4 435.05 728.55 435.5 728.7 435.95 728.7 436.4 728.85 436.85 728.85 437.35 729.0 437.8 729.0 438.25 729.15 438.7 729.15 439.2 729.3 439.65 729.3 440.1 729.45 440.55 729.45 441.0 729.6 441.5 729.6 441.95 729.75 442.4 729.75 442.85 729.9 443.35 729.9 443.8 730.05 444.25 730.05 444.7 730.2 445.15 730.2 445.65 730.2 446.1 730.2 447.0 730.2 447.5 730.2 447.95 730.2 448.4 730.2 448.85 730.2 449.35 730.2 449.8 730.4 450.25 730.4 450.7 730.4 451.15 730.55 451.65 730.55 452.1 730.7 452.55 730.7 453.0 730.7 453.5 730.85 453.95 730.85 454.4 730.85 454.85 731.0 455.3 731.0 455.8 731.15 456.25 731.15 456.7 731.3 457.15 731.3 457.65 731.45 458.1 731.45 458.55 731.6 459.0 731.6 459.45 731.75 459.95 731.75 460.4 731.9 460.85 731.9 461.3 732.05 461.8 732.05 462.25 732.2 462.7 732.2 463.15 732.35 463.6 732.35 464.1 732.55 464.55 732.55 465.0 732.7 465.45 732.7 465.95 732.7 466.4 732.7 466.85 732.7 467.3 732.7 467.75 732.7 468.25 732.7 468.7 732.7 469.15 732.7 469.6 732.85 470.1 732.85 470.55 733.0 471.0 733.0 471.45 733.15 471.9 733.15 472.4 733.15 472.85 733.3 473.3 733.3 473.75 733.45 474.25 733.45 474.7 733.6 475.15 733.6 475.6 733.75 476.05 733.75 476.55 733.9 477.0 734.05 477.45 734.2 477.9 734.35 478.4 734.55 478.85 734.85 479.3 735.0 479.75 735.15 480.2 735.3 480.7 735.45 481.15 735.45 481.6 735.6 482.05 735.75 482.55 735.9 483.0 735.9 483.45 736.05 483.9 736.2 484.35 736.35 484.85 736.35 486.7 736.4 488.05 736.35 489.45 736.35 490.35 736.35 491.75 736.35 493.6 736.35 495.0 736.35 496.85 736.35 498.65 736.2 499.15 736.05 499.6 736.05 500.05 735.9 500.5 735.9 501.0 735.75 501.45 735.75 501.9 735.75 502.35 735.75 502.8 735.75 503.3 735.75 503.75 735.75 504.2 735.6 504.65 735.45 505.15 735.45 505.6 735.3 506.05 735.3 506.5 735.15 506.95 735.0 507.45 734.85 507.9 734.7 508.35 734.7 508.8 734.55 509.3 734.2 510.2 733.9 511.1 733.75 511.6 733.6 512.05 733.45 512.5 733.3 512.95 733.15 513.45 733.0 513.9 732.85 514.35 732.55 514.8 732.35 515.25 732.2 515.75 732.05 516.2 731.9 516.65 731.6 517.1 731.45 517.6 731.3 518.05 731.15 518.5 730.85 518.95 730.7 519.4 730.55 519.9 730.2 520.35 730.05 520.8 729.75 521.25 729.45 521.75 729.3 522.2 729.0 522.65 728.7 523.1 728.4 523.55 728.2 524.05 728.05 524.5 727.75 524.95 727.6 525.4 727.45 525.9 727.3 526.35 727.0 526.8 726.7 527.25 726.4 527.7 726.05 528.2 725.6 528.65 725.3 529.1 724.85 529.55 724.55 530.05 724.25 530.5 724.05 530.95 723.75 531.4 723.45 531.9 723.15 532.35 723.0 532.8 722.7 533.25 722.4 533.7 722.25 534.2 721.75 534.65 721.45 535.1 721.0 535.55 720.7 536.05 720.25 536.5 719.75 536.95 719.45 537.4 719.0 537.85 718.7 538.35 718.25 538.8 717.9 539.25 717.45 539.7 717.0 540.2 716.7 540.65 716.25 541.1 715.95 541.55 715.45 542.0 715.15 542.5 714.25 543.4 712.85 544.8 712.4 545.25 711.45 546.15 710.55 547.1 710.1 547.55 709.15 548.5 708.7 548.95 708.1 549.4 707.45 549.85 706.1 550.75 705.35 551.25 704.7 551.7 704.25 552.15 703.8 552.65 703.3 553.1 702.85 553.55 702.4 554.0 701.95 554.45 Q694.75 559.6 686.65 563.1 673.0 569.05 659.1 574.55 650.55 577.95 641.75 580.5 L634.15 582.7 628.0 584.45 612.6 585.15 592.35 584.45 591.1 584.3 589.85 584.15 587.4 583.85 586.8 583.7 586.2 583.55 584.95 583.2 584.35 583.05 583.7 582.9 583.1 582.75 582.5 582.6 573.45 581.5 567.9 580.65 560.95 579.5 556.65 578.9 Q551.25 577.2 545.75 576.05 L526.55 572.1 504.75 567.35 486.4 562.95 475.2 560.5 Q458.2 557.4 440.95 555.65 L427.85 554.65 Q404.1 553.45 380.9 558.75 368.7 561.55 356.25 563.15 L349.6 564.15 Q332.45 567.1 315.15 568.9 L305.8 570.3 278.25 571.9 260.9 573.4 250.0 575.4 241.2 577.35 Q236.8 578.5 232.3 579.05 L229.25 579.25 211.1 579.55 209.85 579.4 208.65 579.2 207.4 579.05 199.1 578.95 198.95 579.4 198.95 579.85 198.8 580.3 198.65 580.75 198.65 581.25 198.5 581.7 198.5 582.15 198.35 582.6 198.2 583.1 198.05 583.55 197.9 584.0 197.75 584.45 197.75 584.9 197.55 585.4 197.4 585.85 197.25 586.3 197.1 586.75 196.95 587.25 196.8 587.7 196.65 588.15 196.35 589.05 196.2 589.55 195.9 590.0 195.75 590.45 195.4 590.9 195.25 591.4 194.95 591.85 194.8 592.3 194.5 592.75 194.35 593.2 194.05 593.7 193.75 594.15 193.25 594.6 192.8 595.05 192.35 595.55 191.9 596.0 191.4 596.45 190.95 596.9 190.2 597.35 188.8 597.85 187.45 598.3 186.5 598.6 176.95 597.15 Q171.75 596.1 166.7 594.45 L159.0 591.7 158.35 591.2 157.9 590.75 157.3 590.3 156.7 589.85 156.2 589.4 155.6 588.9 155.15 588.45 154.7 588.0 154.4 587.55 154.05 587.05 153.75 586.6 153.45 586.15 153.15 585.7 152.7 585.25 152.4 584.75 152.05 584.3 151.75 583.85 151.3 583.4 150.85 582.9 150.4 582.45 149.9 582.0 149.45 581.55 148.85 581.1 148.2 580.65 147.45 580.15 146.85 579.7 145.3 578.75 144.25 578.3 143.0 577.85 141.75 577.4 141.0 577.1 140.4 576.9 139.3 576.6 138.25 576.3 137.0 576.0 135.95 575.7 134.25 575.25 120.85 574.3 111.5 574.0 105.95 573.1 99.5 571.85 93.8 570.6 91.95 570.15 90.75 569.7 89.5 569.25 88.3 568.8 87.05 568.3 85.2 567.4 82.3 566.0 79.05 564.65 75.45 562.45 Q72.55 560.9 69.85 559.1 L64.9 555.85 64.3 555.4 63.85 554.95 63.35 554.5 62.9 554.0 62.45 553.55 62.0 553.1 61.55 552.65 60.9 552.2 60.3 551.75 59.55 551.25 58.9 550.8 57.55 549.85 56.9 549.4 56.45 548.95 55.85 548.5 55.2 548.05 54.75 547.55 54.15 547.1 53.7 546.65 53.05 546.2 52.6 545.7 52.0 545.25 51.55 544.8 50.9 544.35 50.45 543.9 49.85 543.4 49.4 542.95 48.75 542.5 48.3 542.05 47.7 541.55 47.25 541.1 46.6 540.65 46.15 540.2 45.55 539.75 45.1 539.25 44.6 538.8 44.3 538.35 43.85 537.9 43.4 537.4 43.1 536.95 42.6 536.5 42.3 536.05 41.85 535.6 41.55 535.1 41.1 534.65 40.75 534.2 40.6 533.75 40.3 533.25 40.0 532.8 39.85 532.35 39.55 531.9 39.25 531.4 39.1 530.95 38.8 530.5 38.45 530.05 38.3 529.6 38.0 529.1 37.85 528.65 37.55 528.2 37.4 527.75 37.25 527.25 36.95 526.8 36.8 526.35 36.6 525.9 36.3 525.45 36.15 524.95 36.0 524.5 35.7 524.05 35.55 523.6 35.55 523.1 35.4 522.65 35.25 522.2 35.1 521.75 34.95 521.3 34.8 520.8 34.65 520.35 34.65 519.9 34.45 519.45 34.3 518.95 34.0 518.5 33.85 518.05 33.7 517.6 33.55 517.15 33.4 516.65 33.25 516.2 33.1 515.75 32.95 515.3 32.65 514.8 32.65 514.35 32.45 513.9 32.45 513.45 32.45 513.0 32.3 512.5 32.3 512.05 32.3 511.6 32.15 511.15 32.15 510.65 32.0 510.2 32.0 509.75 32.0 509.3 31.85 508.85 31.85 508.35 31.85 507.9 31.7 507.45 31.7 507.0 31.7 506.5 31.55 506.05 31.55 505.6 31.55 505.15 31.4 504.7 31.4 504.2 31.4 503.75 31.25 503.3 31.25 502.85 31.25 502.35 31.1 501.9 31.1 501.45 31.1 501.0 30.95 500.55 30.95 500.05 30.95 499.6 30.8 499.15 30.8 498.7 30.8 498.2 30.65 497.75 30.65 497.3 30.65 496.85 30.45 496.4 30.45 495.9 30.3 495.45 30.3 495.0 30.3 494.55 30.15 494.05 30.15 492.2 30.15 489.45 30.15 486.7 30.15 483.9 30.15 481.15 30.15 478.4 30.0 477.95 30.0 477.45 29.85 477.0 29.85 476.55 29.7 476.1 29.7 475.6 29.55 475.15 29.55 474.7 29.4 474.25 29.25 473.8 29.1 473.3 28.95 472.85 28.8 472.4 28.65 471.95 28.5 471.45 28.3 471.0 28.15 470.55 28.15 470.1 28.0 469.65 28.0 469.15 27.85 468.7 27.7 468.25 27.7 467.8 27.55 467.3 27.25 466.4 26.95 465.5 26.65 464.55 26.3 463.65 26.0 462.7 25.7 461.8 25.7 461.35 25.55 460.85 25.4 460.4 25.25 459.95 25.1 459.5 24.8 459.0 24.65 458.55 24.5 458.1 24.35 457.65 24.0 457.2 23.85 456.7 23.7 456.25 23.4 455.8 23.4 455.35 23.25 454.85 23.1 454.4 22.95 453.95 22.95 453.5 22.8 453.05 22.65 452.55 22.5 452.1 22.5 451.65 22.35 451.2 22.15 450.7 22.0 450.25 21.85 449.8 21.7 449.35 21.55 448.85 21.25 448.4 21.1 447.95 20.95 447.5 20.8 447.05 20.65 446.55 20.35 445.65 20.0 444.7 19.7 443.8 19.55 443.35 19.55 442.9 19.4 442.4 19.25 441.95 19.1 441.5 18.95 441.05 18.65 440.55 18.5 440.1 18.35 439.65 18.2 439.2 17.85 438.75 17.7 438.25 17.55 437.8 17.25 437.35 17.25 436.9 17.1 436.4 17.1 435.95 16.95 435.5 16.95 435.05 16.95 434.6 16.8 434.1 16.8 433.65 16.65 433.2 16.65 432.75 16.5 432.25 16.35 431.8 16.2 431.35 16.0 430.9 15.85 430.45 15.7 429.95 15.55 429.5 15.4 429.05 15.25 428.6 15.25 428.1 15.1 427.65 15.1 427.2 14.95 426.75 14.95 426.3 14.8 425.8 14.8 425.35 14.5 424.9 14.35 424.45 14.2 423.95 14.05 423.5 13.85 423.05 13.55 422.6 13.55 422.15 13.4 421.65 13.25 421.2 13.1 420.75 13.1 420.3 12.8 419.8 12.65 419.35 12.35 418.9 12.05 418.45 11.7 418.0 11.4 417.5 11.25 417.05 10.95 416.6 10.8 416.15 10.5 415.65 10.35 415.2 10.2 414.75 10.05 414.3 9.9 413.85 9.7 413.35 9.4 412.9 9.25 412.45 8.95 412.0 8.8 411.5 8.65 411.05 8.65 410.6 8.65 410.15 8.65 409.65 8.65 409.2 8.65 408.3 8.65 407.35 8.65 406.45 8.65 405.5 8.5 405.05 8.35 404.6 8.2 404.15 8.2 403.7 8.1 403.45 7.7 403.85 7.25 404.35 6.8 404.8 6.35 405.25 5.85 405.7 5.25 406.15 4.65 406.65 4.0 407.1 3.4 407.55 2.8 408.0 1.7 408.5 0.35 408.5 0.0 408.0 0.0 407.55 0.35 407.25 0.8 407.1 1.85 406.8 Q2.2 406.55 2.5 406.35 L3.1 405.85 3.7 405.4 4.35 404.95 4.95 404.5 5.4 404.0 5.85 403.55 6.35 403.1 6.8 402.65 7.25 402.2 7.55 401.7 7.85 401.25 8.05 400.95 8.05 400.45 8.05 399.55 8.05 398.6 8.05 397.7 8.2 397.2 8.35 396.75 8.5 396.3 8.65 395.85 8.65 395.4 8.8 395.05 8.95 394.95 9.4 394.85 9.4 394.75 10.35 394.9 10.8 395.4 10.65 395.85 10.2 396.3 10.05 396.75 9.9 397.2 9.7 397.7 9.55 398.15 9.55 398.6 9.55 398.95 9.85 398.5 10.15 398.05 10.65 397.55 10.95 397.1 11.4 396.65 11.7 396.2 12.15 395.7 12.65 395.25 12.95 394.8 13.4 394.35 13.7 393.9 14.15 393.4 14.45 392.95 14.95 392.5 15.25 392.05 15.7 391.55 16.0 391.1 16.45 390.65 16.8 390.2 17.25 389.75 17.7 389.25 18.15 388.8 18.6 388.35 19.1 387.9 19.55 387.4 20.0 386.95 20.3 386.5 20.6 386.05 20.95 385.6 21.25 385.1 21.4 384.65 21.7 384.2 22.0 383.75 22.15 383.25 22.45 382.8 22.6 382.35 22.75 381.9 22.95 381.4 23.1 380.95 23.4 380.5 23.4 380.05 23.55 379.6 23.55 379.1 23.7 378.65 23.7 378.2 23.85 377.75 23.85 377.25 24.0 376.8 24.0 376.35 24.15 375.9 24.15 375.45 24.3 374.95 24.3 374.5 24.45 374.05 24.45 373.6 24.6 373.1 24.6 372.65 24.6 372.2 24.6 371.75 24.6 371.3 24.6 370.8 24.6 370.35 24.6 369.9 24.45 369.45 24.3 368.95 24.3 368.5 24.15 368.05 24.0 367.6 24.0 367.15 23.85 366.65 23.7 366.2 23.7 365.75 23.55 365.3 23.4 364.8 23.4 364.35 23.25 363.9 23.25 363.45 23.1 363.0 23.1 362.5 22.95 362.05 22.95 361.6 22.8 361.15 22.8 360.65 22.6 360.2 22.6 359.75 22.45 359.3 22.45 358.85 22.3 358.35 22.3 357.9 22.15 357.45 22.15 357.0 22.0 356.5 21.85 356.05 21.7 355.6 21.7 355.15 21.55 354.7 21.4 354.2 21.25 353.75 21.25 353.3 21.1 352.85 20.95 352.35 20.8 351.9 20.8 351.45 20.6 351.0 20.45 350.55 20.3 350.05 20.3 349.6 20.15 349.15 20.0 348.7 19.85 348.2 19.85 347.75 19.7 347.3 19.55 346.85 19.55 346.4 19.4 345.9 19.25 345.45 19.25 345.0 19.1 344.55 18.95 344.05 18.95 343.6 18.8 343.15 18.6 342.7 18.45 342.2 18.45 341.75 18.3 341.3 18.15 340.85 18.15 340.4 18.0 339.9 17.85 339.45 17.7 339.0 17.7 338.55 17.55 338.05 17.4 337.6 17.25 337.15 17.25 336.7 17.1 336.25 16.95 335.75 16.8 335.3 16.8 334.85 16.65 334.4 16.45 333.9 16.45 333.45 16.3 333.0 16.3 332.55 16.15 332.1 16.15 331.6 16.0 331.15 15.85 330.7 15.85 330.25 15.7 329.75 15.7 329.3 15.55 328.85 15.55 328.4 15.4 327.95 15.4 327.45 15.25 327.0 15.25 326.55 15.1 326.1 15.1 325.6 14.95 325.15 14.95 324.7 14.8 324.25 14.8 323.8 14.65 323.3 14.65 322.85 14.45 322.4 14.45 321.95 14.3 321.45 14.3 321.0 14.15 320.55 14.15 320.1 14.15 319.65 14.0 319.15 14.0 318.7 14.0 318.25 14.0 317.8 13.85 317.3 13.85 316.85 13.85 316.4 13.85 315.95 13.85 315.5 13.7 315.0 13.7 314.55 13.7 314.1 13.7 313.65 13.55 313.15 13.55 312.7 13.55 312.25 13.55 311.8 13.4 311.35 13.4 310.85 13.4 310.4 13.4 309.95 13.25 309.5 13.25 309.0 13.25 308.55 13.1 308.1 13.1 307.65 13.1 307.2 13.1 306.7 12.95 306.25 12.95 298.4 12.95 290.1 12.95 281.8 12.95 273.95 12.95 266.6 12.95 263.85 13.1 263.35 13.1 262.9 13.1 262.45 13.25 262.0 13.25 261.5 13.25 261.05 13.4 260.6 13.4 260.15 13.4 259.65 13.55 259.2 13.55 258.75 13.55 258.3 13.7 257.85 13.85 257.35 13.85 256.9 14.0 256.45 14.15 256.0 14.15 255.5 14.3 255.05 14.45 254.6 14.45 254.15 14.65 253.7 14.8 253.2 14.95 252.75 15.1 252.3 15.4 251.85 15.55 251.35 15.7 250.9 16.0 250.45 16.15 250.0 16.3 249.55 16.65 249.05 16.8 248.6 16.95 248.15 17.25 247.7 17.4 247.2 17.7 246.75 17.85 246.3 18.15 245.85 18.3 245.4 18.6 244.9 18.8 244.45 19.1 244.0 19.25 243.55 19.55 243.05 19.7 242.6 20.0 242.15 20.3 241.25 20.8 239.85 21.25 238.45 21.7 237.1 22.15 235.7 22.45 234.75 22.45 234.3 22.6 233.85 22.8 233.4 22.8 232.95 22.95 232.45 23.1 232.0 23.1 231.55 23.25 231.1 23.4 230.6 23.4 230.15 23.55 229.7 23.55 229.25 23.55 228.8 23.7 228.3 23.7 227.85 23.85 227.4 23.85 226.95 24.0 226.45 24.0 224.65 24.0 222.3 24.0 220.0 24.0 217.7 24.0 215.4 24.0 214.0 23.85 213.55 23.85 213.1 23.7 212.65 23.7 212.15 23.55 211.7 23.45 211.45 23.25 211.4 22.65 211.2 22.15 211.05 21.55 210.9 21.1 210.75 20.0 210.45 19.25 210.0 18.5 209.55 17.7 209.05 16.95 208.6 16.5 208.15 16.0 207.7 15.55 207.2 15.1 206.75 14.65 206.3 14.15 205.85 13.85 205.35 13.55 204.9 13.25 204.45 12.95 204.0 12.8 203.55 12.5 203.05 12.35 202.6 12.35 202.15 12.35 201.7 12.35 201.2 12.35 200.75 12.35 200.3 12.35 199.4 12.35 198.45 12.35 197.55 12.35 196.6 12.5 196.15 12.5 195.7 12.5 195.25 12.65 194.75 12.65 194.3 12.65 193.85 12.8 193.4 12.8 192.9 12.8 192.45 12.95 192.0 12.95 191.55 12.95 191.1 13.1 190.6 13.1 190.15 13.1 189.7 13.1 189.25 13.25 188.75 13.25 188.3 13.25 187.85 13.25 187.4 13.4 186.95 13.4 186.45 13.4 186.0 13.55 185.55 13.55 185.1 13.55 184.6 13.55 184.15 13.7 183.7 13.7 183.25 13.7 182.8 13.7 182.3 13.85 181.85 13.85 181.4 13.85 180.95 14.0 180.45 14.0 180.0 14.0 179.55 14.0 179.1 14.15 178.65 14.15 178.15 14.2 176.3 14.15 172.65 14.15 168.95 14.15 165.25 14.15 161.55 14.15 158.35 14.15 157.85 14.2 156.5 14.15 155.1 14.15 154.65 14.15 154.2 14.0 153.7 14.0 153.25 14.0 152.8 14.0 152.35 13.85 151.9 13.85 151.4 13.85 150.95 13.85 150.5 13.85 150.05 13.7 149.55 13.7 149.1 13.7 148.65 13.7 148.2 13.55 147.75 13.55 147.25 13.55 146.35 13.55 144.95 13.55 142.65 13.55 140.35 13.55 138.05 13.55 135.75 13.55 133.45 13.55 131.6 13.4 131.15 13.4 130.65 13.4 130.2 13.4 129.75 13.25 129.3 13.25 128.8 13.25 128.35 13.1 127.9 13.1 127.45 13.1 127.0 13.1 126.5 12.95 126.05 12.95 125.6 12.95 123.3 12.95 119.15 12.95 115.0 12.95 110.85 12.95 107.15 12.95 105.75 12.95 105.3 12.95 103.9 12.95 102.05 12.95 101.6 12.95 99.3 13.1 98.85 13.1 98.4 13.25 97.9 13.25 97.45 13.4 97.0 13.4 96.55 13.55 96.1 13.55 95.6 13.7 95.15 13.7 94.7 13.85 94.25 13.85 93.75 14.0 93.3 14.0 92.85 14.15 92.4 14.15 91.95 14.15 91.45 14.35 91.0 14.35 90.55 14.5 90.1 14.5 89.6 14.65 89.15 14.65 88.7 14.8 88.25 14.8 87.8 14.95 87.3 14.95 86.85 15.1 86.4 15.1 85.95 15.1 85.45 15.25 85.0 15.25 84.55 15.4 84.1 15.4 83.6 15.4 83.15 15.55 82.7 15.55 82.25 15.55 81.8 15.7 81.3 15.7 80.85 15.7 80.4 15.7 79.95 15.85 79.45 15.85 79.0 15.85 78.55 15.85 78.1 16.0 77.65 16.0 77.15 16.0 76.7 16.0 76.25 16.0 75.8 16.0 75.3 16.0 74.4 16.0 73.5 16.0 72.55 16.0 71.65 16.0 71.15 16.15 70.7 16.15 70.25 16.35 69.8 16.35 69.35 16.35 68.85 16.5 68.4 16.5 67.95 16.5 67.5 16.65 67.0 16.65 66.55 16.65 66.1 16.8 65.65 16.8 65.2 16.8 64.7 16.95 64.25 16.95 63.8 16.95 63.35 17.1 62.85 17.1 62.4 17.1 61.95 17.25 61.5 17.25 61.05 17.55 60.55 17.7 60.1 17.85 59.65 18.0 59.2 18.15 58.7 18.3 58.25 18.5 57.8 18.65 57.35 18.95 56.9 19.1 56.4 19.25 55.95 19.55 55.5 19.85 55.05 20.0 54.55 20.3 54.1 20.65 53.65 20.95 53.2 21.1 52.75 21.4 52.25 21.7 51.8 22.0 51.35 22.3 50.9 22.8 50.4 23.1 49.95 23.4 49.5 23.7 49.05 24.0 48.6 24.3 48.1 24.8 47.65 25.1 47.2 25.55 46.75 25.85 46.25 26.3 45.8 26.65 45.35 27.1 44.9 27.4 44.4 27.7 43.95 28.0 43.5 28.3 43.05 28.6 42.6 29.25 41.65 29.85 40.75 30.45 39.8 30.8 39.35 30.95 38.9 31.25 38.45 31.55 37.95 31.7 37.5 32.0 37.05 32.3 36.6 32.6 36.1 32.95 35.65 33.25 35.2 33.55 34.75 33.85 34.3 34.15 33.8 34.6 33.35 34.95 32.9 35.25 32.45 35.55 31.95 35.85 31.5 36.15 31.05 36.45 30.6 36.75 30.15 36.95 29.65 37.25 29.2 37.55 28.75 37.85 28.3 38.15 27.8 38.45 27.35 38.75 26.9 39.1 26.45 39.55 26.0 39.85 25.5 40.15 25.05 40.6 24.6 40.9 24.15 41.4 23.65 41.85 23.2 42.3 22.75 42.75 22.3 43.25 21.85 43.7 21.35 44.15 20.9 44.75 20.45 45.4 20.0 45.85 19.5 46.45 19.05 47.1 18.6 47.85 18.15 48.6 17.7 49.5 17.2 51.05 16.3 52.15 15.85 53.35 15.35 54.6 14.9 55.85 14.45 56.75 14.0 57.65 13.5 58.45 13.1 59.35 12.6 60.15 12.15 61.85 11.2 63.2 10.75 71.05 7.95 Q75.5 6.15 80.1 4.95 L86.1 3.5 88.1 3.05 89.5 2.9 M465.25 207.85 L465.3 208.05 465.4 207.95 465.25 207.85 M400.1 208.25 Q400.15 207.65 399.9 208.3 L400.1 208.25 M402.5 78.45 L402.3 78.9 Q401.85 82.5 402.5 78.45 M478.9 78.1 L478.9 78.2 Q483.1 76.3 478.9 78.1 M358.15 45.0 L358.15 45.05 358.2 45.0 358.15 45.0 M413.25 252.3 L413.15 252.4 Q413.8 253.85 413.25 252.3 M395.75 278.1 L395.6 278.15 Q394.8 281.75 395.75 278.1 M397.1 300.9 L396.85 300.8 Q395.7 303.5 397.1 300.9 M519.95 355.6 L519.85 355.65 Q518.9 358.3 519.95 355.6 M376.7 209.25 Q376.55 210.45 377.0 208.9 376.7 209.05 376.7 209.25 M256.5 197.1 L256.5 197.05 256.45 197.0 256.5 197.1 M310.75 63.2 L310.25 63.4 310.0 63.9 310.25 64.4 Q310.45 64.6 310.75 64.6 L311.3 64.4 311.5 63.9 311.3 63.4 310.75 63.2 M362.95 126.65 L363.15 126.15 362.95 125.65 362.45 125.45 361.95 125.65 361.75 126.15 361.95 126.65 Q362.15 126.85 362.45 126.85 L362.95 126.65 M355.6 74.1 L355.55 74.15 Q359.2 72.9 355.6 74.1 M201.5 168.75 L201.2 168.85 200.95 168.95 200.8 169.0 200.9 169.0 201.0 168.95 201.15 168.95 201.25 168.9 201.45 168.85 201.65 168.75 201.6 168.7 201.5 168.75 M185.8 276.85 L185.9 276.8 185.95 276.8 185.9 276.6 185.8 276.85 M130.8 373.5 Q132.6 375.9 130.7 373.1 L130.8 373.5 M145.8 374.0 L146.15 374.3 Q146.25 373.55 145.8 374.0 M203.5 415.5 Q201.2 418.4 203.55 415.65 L203.5 415.5 M351.45 269.8 L351.15 270.25 Q350.6 273.35 351.45 269.8 M112.4 484.65 Q112.75 486.35 112.6 484.4 L112.4 484.65" fill="url(#gradient0)" fill-rule="evenodd" stroke="none"/>
  </g>
  <defs>
    <linearGradient gradientTransform="matrix(-0.335, -0.3839, 0.3889, -0.3393, 380.8, 281.1)" gradientUnits="userSpaceOnUse" id="gradient0" spreadMethod="pad" x1="-819.2" x2="819.2">
      <stop offset="0.0" stop-color="#006600"/>
      <stop offset="1.0" stop-color="#00cc00"/>
    </linearGradient>
  </defs>
</svg>
