<?xml version="1.0" encoding="UTF-8" standalone="no"?>
<svg xmlns:xlink="http://www.w3.org/1999/xlink" height="488.35px" width="478.3px" xmlns="http://www.w3.org/2000/svg">
  <g transform="matrix(1.0, 0.0, 0.0, 1.0, 26.2, 30.75)">
    <path d="M239.3 -5.45 L239.35 -10.8 Q239.35 -19.05 245.3 -24.9 251.3 -30.75 259.75 -30.75 262.95 -30.75 265.8 -29.9 274.15 -29.9 280.1 -24.05 286.1 -18.2 286.1 -9.95 286.1 0.35 285.3 13.85 285.15 16.15 284.5 18.3 L284.45 18.95 284.45 19.05 284.45 19.1 Q284.6 24.95 285.35 31.55 L302.05 31.6 302.1 31.6 Q309.3 31.6 316.6 29.4 L318.35 28.9 328.35 26.85 331.95 26.1 335.7 25.65 Q347.8 25.3 361.3 23.0 L362.55 22.85 373.7 22.25 374.15 22.25 386.4 22.75 386.65 22.75 387.05 22.8 390.5 23.05 398.6 24.1 Q413.85 25.65 429.85 33.5 432.1 34.65 434.1 36.3 L442.05 42.9 Q447.3 47.1 448.95 53.65 450.4 59.6 450.4 66.1 L450.4 109.6 450.45 109.8 Q452.25 116.85 452.1 125.25 L452.1 125.35 451.05 172.25 Q451.0 175.05 450.2 177.65 450.0 183.3 446.75 188.1 443.5 192.8 439.55 196.15 L439.1 196.55 436.5 198.5 433.6 201.25 433.15 201.65 Q427.75 206.3 418.85 208.45 L418.8 208.45 Q407.25 211.2 394.3 210.95 L394.2 210.95 Q372.8 210.4 351.4 210.4 L326.55 210.65 326.7 239.05 326.7 275.05 Q334.75 274.75 342.85 275.1 L347.95 274.6 348.15 274.55 Q361.5 269.95 377.4 270.9 L377.25 270.9 Q381.45 271.1 385.7 270.75 393.65 269.95 401.4 271.55 414.2 272.65 426.45 279.95 L428.95 281.75 Q432.7 282.9 435.7 285.4 450.65 292.25 449.7 307.4 L449.7 307.45 Q449.25 328.1 448.95 348.85 448.85 353.75 448.4 358.65 L448.35 358.8 447.45 365.4 Q446.5 371.4 446.7 378.05 L446.8 378.05 447.25 385.65 447.5 385.65 Q447.8 388.45 448.9 393.2 L449.3 395.55 449.55 400.5 449.55 401.85 449.55 402.35 449.55 402.8 449.55 403.2 449.55 405.9 Q449.4 410.3 448.5 414.4 448.05 418.6 446.8 422.55 L446.55 423.65 Q445.45 436.5 434.8 444.65 L434.45 444.9 433.15 445.85 Q431.25 447.9 428.85 449.75 L428.5 450.0 425.25 452.4 Q420.8 455.75 415.25 456.4 L393.6 457.6 350.2 457.6 305.7 457.6 260.0 457.6 246.9 457.6 216.7 457.6 167.65 457.6 125.4 457.6 Q102.95 457.6 78.45 457.2 74.7 457.15 71.15 455.8 65.65 453.9 57.55 454.2 L54.9 454.05 Q32.05 451.75 29.45 429.7 L29.45 429.85 Q29.0 426.5 28.85 423.05 L28.7 417.0 28.7 416.7 28.7 416.15 28.7 415.85 28.7 414.45 28.7 414.15 28.7 413.6 28.7 413.3 28.7 381.95 28.75 378.05 28.85 370.1 Q28.85 367.45 29.6 364.95 L29.6 364.9 29.7 359.05 Q29.7 356.4 30.45 353.9 38.7 325.45 67.95 325.5 L68.0 325.5 112.6 325.4 131.05 325.4 134.75 325.4 153.45 325.4 188.6 325.15 188.75 325.05 189.2 324.3 189.2 321.85 189.2 276.9 Q189.2 254.6 188.7 232.35 L188.55 229.55 187.5 216.0 187.45 215.15 Q186.9 192.4 186.9 169.7 186.9 149.9 186.35 129.25 L181.8 124.65 181.5 124.25 Q170.5 123.9 159.5 124.0 L159.4 124.0 133.45 123.75 129.65 123.7 119.0 123.45 118.85 123.55 116.75 126.65 116.0 131.35 114.95 137.4 Q114.6 141.7 115.5 146.45 116.85 149.65 117.4 155.8 L118.85 160.65 118.95 161.0 Q120.95 169.9 121.15 179.85 121.4 193.5 119.75 205.95 L119.75 206.15 118.8 212.1 118.4 214.55 117.95 217.2 Q116.15 230.35 104.7 239.85 L104.55 240.0 101.9 242.1 98.75 244.95 98.6 245.1 Q92.1 251.25 80.05 251.45 L38.7 251.9 -5.8 251.9 Q-14.25 251.85 -20.25 246.05 -26.2 240.15 -26.2 231.9 -26.2 228.15 -25.0 224.9 L-25.35 220.85 Q-25.35 212.6 -19.4 206.75 -13.4 200.9 -4.95 200.9 L39.55 200.9 73.25 200.6 73.4 199.7 73.5 198.85 73.55 190.85 73.55 190.8 Q73.45 185.2 72.4 180.2 L72.1 179.2 Q70.3 175.55 70.15 171.55 70.05 170.55 70.95 172.35 70.0 170.35 69.55 168.35 65.75 152.8 68.05 139.35 67.95 131.45 69.75 124.2 L69.65 124.45 Q70.75 119.4 71.05 113.85 71.3 108.85 73.95 104.55 77.75 98.3 81.3 93.35 L81.35 93.25 Q83.85 89.75 87.05 86.75 L86.95 86.75 Q90.5 83.25 96.55 79.6 107.25 72.1 119.75 72.45 L119.95 72.45 131.4 72.7 131.6 72.7 134.75 72.75 135.15 72.75 160.2 73.0 160.25 73.0 Q172.2 72.9 184.1 73.35 L184.5 73.35 184.65 73.35 184.9 73.35 189.7 73.5 Q192.35 73.6 194.7 74.3 L195.65 74.35 Q202.05 74.65 206.9 78.3 214.45 81.8 219.25 88.05 L221.45 90.25 221.5 90.25 Q232.0 99.0 233.5 109.65 L233.8 112.8 Q234.45 136.7 234.5 159.5 234.5 181.6 235.05 203.75 L236.05 216.5 236.1 217.05 236.25 221.15 236.25 221.25 Q236.75 243.95 236.8 266.7 L236.8 311.65 236.25 330.0 Q236.1 332.3 235.4 334.55 L235.4 335.1 Q235.15 338.5 233.8 341.7 228.85 353.15 223.8 358.1 L223.65 358.25 Q219.9 362.1 216.2 364.85 210.2 370.7 204.3 373.6 L204.1 373.7 Q201.65 374.95 198.95 375.55 L198.8 375.6 193.45 376.0 190.45 376.1 189.6 376.1 152.6 376.4 133.9 376.4 130.2 376.4 111.75 376.4 76.3 376.45 76.25 378.7 76.3 401.05 Q81.85 401.65 86.65 402.95 L126.25 403.25 168.5 403.25 217.55 403.25 247.75 403.25 260.85 403.25 306.55 403.25 351.05 403.25 394.45 403.25 400.05 403.15 400.0 402.55 400.0 402.3 Q399.45 395.6 399.2 388.85 L399.15 388.2 399.1 388.2 399.1 384.55 399.2 378.05 399.35 378.05 399.95 372.05 Q400.15 364.95 401.2 358.35 L401.35 357.45 401.9 327.25 Q397.55 325.25 394.85 322.55 391.7 321.45 388.5 321.6 381.4 322.25 374.2 321.85 L374.1 321.85 Q366.6 321.4 360.3 323.45 L359.95 323.5 Q350.85 326.5 340.15 326.05 332.05 325.7 324.1 326.2 L324.4 326.2 310.65 327.15 310.75 327.15 Q297.6 328.15 288.6 321.5 281.7 316.7 280.25 308.55 279.6 304.8 280.25 301.35 L279.9 298.75 Q279.15 294.8 279.15 290.7 L279.15 249.25 278.75 205.8 278.75 205.65 Q278.7 200.3 279.65 195.8 L279.6 194.75 279.6 194.6 Q279.5 181.65 285.0 173.5 286.3 169.9 289.15 166.85 294.85 160.7 303.25 160.35 L309.1 160.1 309.3 160.1 311.25 160.05 Q332.6 159.4 352.25 159.4 374.1 159.4 395.95 159.95 L396.1 159.95 403.95 159.6 404.5 134.75 404.5 134.65 Q404.55 131.9 404.05 129.6 L404.05 129.45 404.0 129.25 Q402.8 124.75 402.85 120.1 L402.85 78.65 402.85 78.55 402.6 78.4 Q394.2 74.65 386.25 73.9 L386.2 73.9 383.2 73.65 382.55 73.6 373.25 73.25 372.8 73.25 366.8 73.55 Q351.55 76.1 337.8 76.6 L336.1 76.95 326.6 78.95 Q313.7 82.65 301.0 82.6 L300.95 82.6 Q281.1 82.45 261.35 82.6 253.3 82.65 247.35 77.25 241.4 71.85 240.85 64.0 240.65 61.9 240.95 61.2 239.85 58.7 239.4 56.1 236.8 40.15 236.8 27.2 236.7 23.0 237.7 19.35 L237.65 16.15 Q237.55 12.45 238.35 9.15 L238.5 0.25 Q238.5 -2.75 239.3 -5.45" fill="#000000" fill-opacity="0.12941177" fill-rule="evenodd" stroke="none"/>
  </g>
</svg>
