<?xml version="1.0" encoding="UTF-8" standalone="no"?>
<svg xmlns:xlink="http://www.w3.org/1999/xlink" height="49.6px" width="68.0px" xmlns="http://www.w3.org/2000/svg">
  <g transform="matrix(1.0, 0.0, 0.0, 1.0, -1.95, 0.0)">
    <path d="M67.65 8.2 L65.15 4.8 50.75 3.2 44.0 5.5 25.7 3.7 23.25 2.55 9.2 4.55 9.5 4.75 13.15 3.95 13.05 4.05 12.85 4.25 12.55 4.5 11.85 5.25 11.85 5.55 11.95 5.7 12.15 5.9 12.5 5.9 4.45 11.95 7.5 11.1 12.9 7.45 9.8 10.1 22.9 4.5 11.7 13.5 20.2 8.2 9.15 18.75 24.15 6.8 26.9 6.15 27.2 6.0 27.45 5.95 27.45 6.0 27.25 6.1 26.95 6.4 32.85 4.75 29.45 7.2 35.7 5.4 32.7 7.35 38.0 5.55 35.2 7.3 42.0 5.55 37.9 8.0 44.45 6.3 41.6 7.7 52.0 5.0 47.8 8.0 53.5 6.2 50.6 8.2 59.05 6.4 57.75 7.2 59.6 7.5 64.65 6.65 60.55 9.5 65.15 8.3 62.7 10.0 65.15 9.7 63.35 11.2 65.15 10.7 65.4 10.6 65.15 11.5 62.75 14.85 65.35 13.4 62.0 16.6 64.65 15.65 61.6 18.6 65.15 17.3 61.45 22.6 65.15 20.8 61.85 25.0 65.15 23.35 67.65 8.2 Q68.95 13.4 68.1 18.7 L67.5 22.7 67.35 24.8 67.4 26.9 67.6 29.0 67.75 29.85 68.05 31.75 68.2 33.5 68.25 35.2 68.15 36.9 67.45 40.95 66.75 43.85 67.05 41.15 63.65 44.5 58.8 44.4 61.5 41.0 51.1 44.75 53.35 42.5 50.55 43.5 49.3 43.95 48.0 44.2 46.8 44.45 45.6 44.5 Q44.45 44.4 43.8 43.9 L44.2 43.45 44.4 42.9 35.2 45.5 35.5 43.1 31.7 45.45 28.55 45.6 27.95 45.35 27.6 45.15 27.45 44.85 27.5 44.4 27.65 43.45 18.15 45.8 20.25 43.15 16.1 45.2 14.6 45.85 13.25 46.15 11.5 45.95 10.85 45.65 10.9 45.35 7.75 45.0 5.45 44.1 7.6 40.65 4.6 41.5 6.75 34.2 Q5.35 35.35 3.9 36.45 4.05 33.45 4.8 30.65 5.35 28.7 6.5 26.95 L4.05 28.3 6.3 20.1 3.75 21.75 3.6 16.7 4.45 15.0 4.4 14.85 4.2 14.7 4.05 14.7 Q3.75 12.8 4.3 11.15 4.95 9.1 6.3 7.3 L3.45 7.25 7.55 3.1 4.1 3.1 15.9 1.5 17.85 1.6 19.8 1.65 21.85 1.95 24.0 2.3 26.55 2.8 29.05 3.0 31.65 3.1 34.15 2.95 Q38.05 2.8 41.95 2.8 L57.45 2.9 65.75 3.55 67.65 8.2 M17.3 19.3 L28.25 7.65 16.2 17.6 24.55 11.05 10.4 25.85 26.5 13.35 8.65 30.55 33.15 8.75 17.3 19.3 M34.85 18.4 L16.45 36.8 47.1 11.25 34.85 18.4 M40.2 20.1 L39.25 21.1 38.15 22.25 Q31.35 30.15 24.0 35.1 28.3 35.1 32.0 30.1 35.4 25.45 39.05 22.1 L39.95 21.25 Q45.65 16.3 51.9 14.5 L32.75 34.15 53.5 13.75 Q46.2 14.25 40.2 20.1 M62.95 26.55 L62.5 29.45 65.15 29.35 63.4 32.65 Q63.7 32.3 63.7 32.45 L63.65 32.7 63.5 33.05 62.3 35.5 63.7 35.25 Q61.4 37.25 64.5 36.25 L62.7 39.5 63.45 39.1 62.35 40.85 65.15 40.5 67.1 36.8 65.95 25.55 65.15 24.45 62.95 26.55 M41.75 11.05 L41.05 11.2 Q33.1 15.4 25.6 21.2 L22.65 23.65 21.75 24.5 Q18.55 27.75 16.45 31.75 L36.3 15.0 28.4 23.7 32.25 19.9 33.0 19.15 41.75 11.05" fill="#999999" fill-rule="evenodd" stroke="none"/>
    <path d="M67.65 8.2 L65.15 23.35 61.85 25.0 65.15 20.8 61.45 22.6 65.15 17.3 61.6 18.6 64.65 15.65 62.0 16.6 65.35 13.4 62.75 14.85 65.15 11.5 65.4 10.6 65.15 10.7 63.35 11.2 65.15 9.7 62.7 10.0 65.15 8.3 60.55 9.5 64.65 6.65 59.6 7.5 57.75 7.2 59.05 6.4 50.6 8.2 53.5 6.2 47.8 8.0 52.0 5.0 41.6 7.7 44.45 6.3 37.9 8.0 42.0 5.55 35.2 7.3 38.0 5.55 32.7 7.35 35.7 5.4 29.45 7.2 32.85 4.75 26.95 6.4 27.25 6.1 27.45 6.0 27.45 5.95 27.2 6.0 26.9 6.15 24.15 6.8 9.15 18.75 20.2 8.2 11.7 13.5 22.9 4.5 9.8 10.1 12.9 7.45 7.5 11.1 4.45 11.95 12.5 5.9 12.15 5.9 11.95 5.7 11.85 5.55 11.85 5.25 12.55 4.5 12.85 4.25 13.05 4.05 13.15 3.95 9.5 4.75 9.2 4.55 23.25 2.55 25.7 3.7 44.0 5.5 50.75 3.2 65.15 4.8 67.65 8.2 M41.75 11.05 L33.0 19.15 32.25 19.9 28.4 23.7 36.3 15.0 16.45 31.75 Q18.55 27.75 21.75 24.5 L22.65 23.65 25.6 21.2 Q33.1 15.4 41.05 11.2 L41.75 11.05 M62.95 26.55 L65.15 24.45 65.95 25.55 67.1 36.8 65.15 40.5 62.35 40.85 63.45 39.1 62.7 39.5 64.5 36.25 Q61.4 37.25 63.7 35.25 L62.3 35.5 63.5 33.05 63.65 32.7 63.7 32.45 Q63.7 32.3 63.4 32.65 L65.15 29.35 62.5 29.45 62.95 26.55 M40.2 20.1 Q46.2 14.25 53.5 13.75 L32.75 34.15 51.9 14.5 Q45.65 16.3 39.95 21.25 L39.05 22.1 Q35.4 25.45 32.0 30.1 28.3 35.1 24.0 35.1 31.35 30.15 38.15 22.25 L39.25 21.1 40.2 20.1 M34.85 18.4 L47.1 11.25 16.45 36.8 34.85 18.4 M17.3 19.3 L33.15 8.75 8.65 30.55 26.5 13.35 10.4 25.85 24.55 11.05 16.2 17.6 28.25 7.65 17.3 19.3" fill="#949494" fill-rule="evenodd" stroke="none"/>
    <path d="M69.1 5.4 L69.45 8.2 69.65 10.9 69.65 13.65 69.55 16.9 69.5 19.55 69.5 22.15 69.5 24.8 69.5 27.45 69.65 30.3 69.9 34.25 Q70.05 36.3 69.8 38.35 L69.45 41.85 Q69.3 43.75 68.0 45.25 L67.6 45.8 Q55.45 47.5 43.05 47.5 L39.35 47.5 35.6 47.5 31.55 47.55 23.5 48.3 19.45 48.9 17.05 49.4 14.75 49.6 12.65 49.6 9.1 48.65 Q7.5 48.15 6.1 47.25 L5.05 46.1 Q4.35 44.8 4.1 43.4 2.15 33.55 2.0 23.5 1.9 17.95 2.2 12.55 L2.25 10.95 2.3 7.55 2.35 6.55 2.5 6.05 2.5 5.95 2.45 5.9 2.4 5.8 2.4 5.7 2.4 5.65 2.4 5.55 2.4 5.45 2.45 4.8 2.45 2.3 2.55 1.55 2.65 1.35 2.65 1.3 2.7 1.2 2.7 1.1 2.75 1.1 2.85 0.85 2.85 0.75 2.9 0.6 8.4 0.65 13.6 0.0 34.05 0.2 42.3 0.2 50.45 0.1 54.2 0.1 61.55 0.7 65.15 1.25 67.05 1.75 Q68.8 3.2 69.1 5.4 M67.65 8.2 L65.75 3.55 57.45 2.9 41.95 2.8 Q38.05 2.8 34.15 2.95 L31.65 3.1 29.05 3.0 26.55 2.8 24.0 2.3 21.85 1.95 19.8 1.65 17.85 1.6 15.9 1.5 4.1 3.1 7.55 3.1 3.45 7.25 6.3 7.3 Q4.95 9.1 4.3 11.15 3.75 12.8 4.05 14.7 L4.2 14.7 4.4 14.85 4.45 15.0 3.6 16.7 3.75 21.75 6.3 20.1 4.05 28.3 6.5 26.95 Q5.35 28.7 4.8 30.65 4.05 33.45 3.9 36.45 5.35 35.35 6.75 34.2 L4.6 41.5 7.6 40.65 5.45 44.1 7.75 45.0 10.9 45.35 10.85 45.65 11.5 45.95 13.25 46.15 14.6 45.85 16.1 45.2 20.25 43.15 18.15 45.8 27.65 43.45 27.5 44.4 27.45 44.85 27.6 45.15 27.95 45.35 28.55 45.6 31.7 45.45 35.5 43.1 35.2 45.5 44.4 42.9 44.2 43.45 43.8 43.9 Q44.45 44.4 45.6 44.5 L46.8 44.45 48.0 44.2 49.3 43.95 50.55 43.5 53.35 42.5 51.1 44.75 61.5 41.0 58.8 44.4 63.65 44.5 67.05 41.15 66.75 43.85 67.45 40.95 68.15 36.9 68.25 35.2 68.2 33.5 68.05 31.75 67.75 29.85 67.6 29.0 67.4 26.9 67.35 24.8 67.5 22.7 68.1 18.7 Q68.95 13.4 67.65 8.2" fill="#777777" fill-rule="evenodd" stroke="none"/>
  </g>
</svg>
