<?xml version="1.0" encoding="UTF-8" standalone="no"?>
<svg xmlns:xlink="http://www.w3.org/1999/xlink" height="28.8px" width="28.85px" xmlns="http://www.w3.org/2000/svg">
  <g transform="matrix(1.0, 0.0, 0.0, 1.0, 340.7, 191.15)">
    <path d="M-336.45 -166.55 Q-340.7 -170.8 -340.7 -176.75 -340.7 -182.7 -336.45 -186.9 -332.25 -191.15 -326.3 -191.15 -320.35 -191.15 -316.1 -186.9 -311.9 -182.7 -311.85 -176.75 -311.9 -170.8 -316.1 -166.55 -320.35 -162.35 -326.3 -162.35 -332.25 -162.35 -336.45 -166.55" fill="#000000" fill-rule="evenodd" stroke="none"/>
    <path d="M-340.7 -176.75 Q-340.7 -182.7 -336.45 -186.9 -332.25 -191.15 -326.3 -191.15 -320.35 -191.15 -316.1 -186.9 -311.9 -182.7 -311.85 -176.75 -311.9 -170.8 -316.1 -166.55 -320.35 -162.35 -326.3 -162.35 -332.25 -162.35 -336.45 -166.55 -340.7 -170.8 -340.7 -176.75" fill="url(#gradient0)" fill-rule="evenodd" stroke="none"/>
  </g>
  <defs>
    <radialGradient cx="0" cy="0" gradientTransform="matrix(0.0264, 0.0, 0.0, 0.0264, -324.6, -183.7)" gradientUnits="userSpaceOnUse" id="gradient0" r="819.2" spreadMethod="pad">
      <stop offset="0.011764705882352941" stop-color="#ffffff" stop-opacity="0.4627451"/>
      <stop offset="0.5333333333333333" stop-color="#ffffff" stop-opacity="0.15294118"/>
      <stop offset="1.0" stop-color="#ffffff" stop-opacity="0.36078432"/>
    </radialGradient>
  </defs>
</svg>
