<?xml version="1.0" encoding="UTF-8" standalone="no"?>
<svg xmlns:xlink="http://www.w3.org/1999/xlink" height="18.55px" width="46.1px" xmlns="http://www.w3.org/2000/svg">
  <g transform="matrix(1.0, 0.0, 0.0, 1.0, 23.05, 9.25)">
    <path d="M-7.35 -6.3 L-7.35 -8.05 Q13.8 -11.1 23.05 -6.5 22.6 0.4 23.05 7.0 17.15 10.8 -7.35 8.35 L-7.35 6.55 -7.35 -6.3" fill="url(#gradient0)" fill-rule="evenodd" stroke="none"/>
    <path d="M-8.1 6.55 L-8.1 8.35 -15.3 8.35 Q-18.4 8.2 -20.65 5.95 -23.05 3.55 -23.05 0.15 -23.05 -2.55 -21.5 -4.65 L-22.5 -5.65 -20.65 -7.5 -19.65 -6.5 Q-17.75 -7.95 -15.3 -8.05 L-15.3 -8.0 -8.1 -8.0 -8.1 -6.3 -8.1 6.55" fill="url(#gradient1)" fill-rule="evenodd" stroke="none"/>
    <path d="M-7.35 6.55 L-8.1 6.55 -8.1 -6.3 -7.35 -6.3 -7.35 6.55" fill="#333333" fill-rule="evenodd" stroke="none"/>
  </g>
  <defs>
    <linearGradient gradientTransform="matrix(0.0, 0.0094, -0.0186, 0.0, 7.8, 1.6)" gradientUnits="userSpaceOnUse" id="gradient0" spreadMethod="pad" x1="-819.2" x2="819.2">
      <stop offset="0.011764705882352941" stop-color="#000000"/>
      <stop offset="0.33725490196078434" stop-color="#000000"/>
      <stop offset="0.4196078431372549" stop-color="#000000"/>
      <stop offset="0.5333333333333333" stop-color="#cdcdcd"/>
      <stop offset="0.6392156862745098" stop-color="#000000"/>
      <stop offset="1.0" stop-color="#000000"/>
    </linearGradient>
    <linearGradient gradientTransform="matrix(0.0, 0.0103, -0.0091, 0.0, -15.55, 1.9)" gradientUnits="userSpaceOnUse" id="gradient1" spreadMethod="pad" x1="-819.2" x2="819.2">
      <stop offset="0.011764705882352941" stop-color="#000000"/>
      <stop offset="0.4" stop-color="#000000"/>
      <stop offset="0.5333333333333333" stop-color="#d6d6d6"/>
      <stop offset="0.6549019607843137" stop-color="#000000"/>
      <stop offset="1.0" stop-color="#000000"/>
    </linearGradient>
  </defs>
</svg>
