<?xml version="1.0" encoding="UTF-8" standalone="no"?>
<svg xmlns:xlink="http://www.w3.org/1999/xlink" height="43.85px" width="28.5px" xmlns="http://www.w3.org/2000/svg">
  <g transform="matrix(1.0, 0.0, 0.0, 1.0, 12.1, 22.7)">
    <path d="M10.4 10.75 L10.45 10.8 10.4 10.8 10.4 10.95 10.4 11.15 10.35 11.15 10.35 11.3 10.35 11.35 10.35 11.4 10.3 11.4 10.3 11.5 10.3 11.6 10.25 11.65 10.25 11.7 10.25 11.75 10.2 11.8 10.2 11.85 10.2 11.9 10.15 11.9 10.15 11.95 10.15 12.0 10.1 12.0 10.1 12.05 10.1 12.1 10.05 12.1 10.05 12.15 10.05 12.2 10.0 12.2 10.0 12.25 9.95 12.3 9.95 12.4 9.9 12.4 9.9 12.45 9.85 12.5 9.8 12.55 9.8 12.6 9.75 12.65 9.75 12.7 9.7 12.75 9.7 12.8 9.65 12.8 9.65 12.85 9.6 12.9 9.6 12.95 9.55 13.0 Q8.2 14.7 4.95 15.95 5.4 16.65 5.4 17.55 5.35 19.0 4.15 20.1 2.9 21.1 1.15 21.15 -0.6 21.1 -1.8 20.1 -3.05 19.0 -3.05 17.55 -3.1 16.5 -2.5 15.7 -5.65 14.5 -8.1 11.4 L-8.35 11.05 Q-12.15 6.1 -12.1 -0.75 L-12.1 -0.8 Q-12.15 -7.7 -8.35 -12.6 L-8.1 -12.95 Q-5.65 -16.1 -2.5 -17.25 -3.1 -18.1 -3.05 -19.1 -3.05 -20.6 -1.8 -21.65 -0.6 -22.7 1.15 -22.7 2.9 -22.7 4.15 -21.65 5.35 -20.6 5.4 -19.1 5.4 -18.2 4.95 -17.5 7.6 -16.55 9.05 -14.75 L10.6 -12.65 10.7 -12.1 10.7 -12.0 10.7 -11.95 10.25 -12.7 9.45 -13.25 9.4 -13.25 9.3 -13.25 Q7.95 -13.25 7.05 -9.6 6.1 -6.0 6.1 -0.9 6.1 4.2 7.05 7.85 7.95 11.45 9.3 11.45 L9.35 11.45 9.65 11.35 10.15 11.05 10.25 10.9 10.35 10.75 10.4 10.75" fill="#663333" fill-rule="evenodd" stroke="none"/>
    <path d="M10.7 -12.0 L11.55 -9.6 Q11.6 -9.3 12.0 -8.95 13.05 -8.65 14.15 -7.4 L14.7 -6.65 Q16.4 -4.25 16.4 -0.75 16.4 2.7 14.7 5.15 L14.15 5.9 12.0 7.6 Q11.45 7.85 11.2 8.9 L10.4 10.75 10.35 10.75 10.25 10.9 10.15 11.05 9.65 11.35 9.35 11.45 9.3 11.45 Q7.95 11.45 7.05 7.85 6.1 4.2 6.1 -0.9 6.1 -6.0 7.05 -9.6 7.95 -13.25 9.3 -13.25 L9.4 -13.25 9.45 -13.25 10.25 -12.7 10.7 -11.95 10.7 -12.0 M10.05 5.45 Q9.85 5.15 9.55 5.15 9.3 5.15 9.1 5.45 L8.9 6.15 9.1 6.85 9.55 7.15 10.05 6.85 10.25 6.15 10.05 5.45 M9.55 -8.5 L9.1 -8.2 8.9 -7.5 9.1 -6.8 9.55 -6.5 Q9.85 -6.5 10.05 -6.8 L10.25 -7.5 10.05 -8.2 9.55 -8.5" fill="#cc9933" fill-rule="evenodd" stroke="none"/>
    <path d="M9.55 -8.5 L10.05 -8.2 10.25 -7.5 10.05 -6.8 Q9.85 -6.5 9.55 -6.5 L9.1 -6.8 8.9 -7.5 9.1 -8.2 9.55 -8.5 M10.05 5.45 L10.25 6.15 10.05 6.85 9.55 7.15 9.1 6.85 8.9 6.15 9.1 5.45 Q9.3 5.15 9.55 5.15 9.85 5.15 10.05 5.45" fill="#000000" fill-rule="evenodd" stroke="none"/>
  </g>
</svg>
