<?xml version="1.0" encoding="UTF-8" standalone="no"?>
<svg
   height="42.45px"
   width="39.95px"
   version="1.1"
   id="svg195"
   sodipodi:docname="dart-monkey-base.svg"
   inkscape:version="1.2.1 (9c6d41e, 2022-07-14)"
   xmlns:inkscape="http://www.inkscape.org/namespaces/inkscape"
   xmlns:sodipodi="http://sodipodi.sourceforge.net/DTD/sodipodi-0.dtd"
   xmlns="http://www.w3.org/2000/svg"
   xmlns:svg="http://www.w3.org/2000/svg">
  <defs
     id="defs199" />
  <sodipodi:namedview
     id="namedview197"
     pagecolor="#ffffff"
     bordercolor="#000000"
     borderopacity="0.25"
     inkscape:showpageshadow="2"
     inkscape:pageopacity="0.0"
     inkscape:pagecheckerboard="0"
     inkscape:deskcolor="#d1d1d1"
     showgrid="false"
     inkscape:zoom="5.5594816"
     inkscape:cx="-14.030085"
     inkscape:cy="21.225"
     inkscape:window-width="1309"
     inkscape:window-height="456"
     inkscape:window-x="0"
     inkscape:window-y="25"
     inkscape:window-maximized="0"
     inkscape:current-layer="svg195" />
  <g
     id="g258"
     transform="matrix(0.93568235,0,0,0.93568235,1.2905935,2.6183023)">
    <g
       transform="translate(22.15,19.75)"
       id="g193">
      <path
         d="M 7.75,-15.75 7.7,-15.2 q 3.05,1.1 5.55,3.6 4.55,4.55 4.55,11 0,6.4 -4.55,10.95 Q 8.7,14.9 2.3,14.9 q -6.45,0 -11,-4.55 -4.15,-4.15 -4.5,-9.9 -0.95,0.35 -1.75,1.05 -0.85,0.65 -0.95,2.5 -0.1,1.8 0.6,2.9 l 1.35,2.4 0.95,2 q 0.4,1.2 0.4,2.55 l -0.2,1.75 -0.8,3 q -1.4,4.1 -3.6,4.1 -1.4,0 -2.2,-0.95 -0.6,-0.7 -0.6,-1.5 -0.05,-1 1.2,-3.4 1.2,-2.4 1.2,-2.95 0,-1.3 -0.75,-2.6 l -1.6,-2.25 -1.6,-2.4 q -0.7,-1.5 -0.6,-3.1 0.15,-2.75 1.55,-5.15 2.75,-4.85 8.35,-4.85 h 0.1 q 1.15,-2.85 3.45,-5.15 2.55,-2.55 5.75,-3.65 L -3,-15.75 q 0,-1.65 1.55,-2.8 1.6,-1.2 3.85,-1.2 2.2,0 3.8,1.2 1.55,1.15 1.55,2.8"
         fill="#613030"
         fill-rule="evenodd"
         stroke="none"
         id="path191" />
    </g>
    <g
       transform="translate(22.672783,20.021399)"
       id="g207">
      <path
         d="m 10.4,10.75 0.05,0.05 H 10.4 v 0.15 0.2 h -0.05 v 0.15 0.05 0.05 H 10.3 v 0.1 0.1 l -0.05,0.05 v 0.05 0.05 L 10.2,11.8 v 0.05 0.05 H 10.15 V 11.95 12 H 10.1 v 0.05 0.05 h -0.05 v 0.05 0.05 H 10 v 0.05 L 9.95,12.3 v 0.1 H 9.9 v 0.05 L 9.85,12.5 9.8,12.55 V 12.6 L 9.75,12.65 V 12.7 L 9.7,12.75 V 12.8 H 9.65 v 0.05 L 9.6,12.9 v 0.05 L 9.55,13 Q 8.2,14.7 4.95,15.95 5.4,16.65 5.4,17.55 5.35,19 4.15,20.1 2.9,21.1 1.15,21.15 -0.6,21.1 -1.8,20.1 -3.05,19 -3.05,17.55 -3.1,16.5 -2.5,15.7 -5.65,14.5 -8.1,11.4 L -8.35,11.05 Q -12.15,6.1 -12.1,-0.75 V -0.8 q -0.05,-6.9 3.75,-11.8 l 0.25,-0.35 q 2.45,-3.15 5.6,-4.3 -0.6,-0.85 -0.55,-1.85 0,-1.5 1.25,-2.55 1.2,-1.05 2.95,-1.05 1.75,0 3,1.05 1.2,1.05 1.25,2.55 0,0.9 -0.45,1.6 2.65,0.95 4.1,2.75 l 1.55,2.1 0.1,0.55 v 0.1 0.05 l -0.45,-0.75 -0.8,-0.55 H 9.4 9.3 q -1.35,0 -2.25,3.65 -0.95,3.6 -0.95,8.7 0,5.1 0.95,8.75 0.9,3.6 2.25,3.6 h 0.05 l 0.3,-0.1 0.5,-0.3 0.1,-0.15 0.1,-0.15 h 0.05"
         fill="#663333"
         fill-rule="evenodd"
         stroke="none"
         id="path201" />
      <path
         d="m 10.7,-12 0.85,2.4 q 0.05,0.3 0.45,0.65 1.05,0.3 2.15,1.55 l 0.55,0.75 q 1.7,2.4 1.7,5.9 0,3.45 -1.7,5.9 L 14.15,5.9 12,7.6 q -0.55,0.25 -0.8,1.3 l -0.8,1.85 h -0.05 l -0.1,0.15 -0.1,0.15 -0.5,0.3 -0.3,0.1 H 9.3 Q 7.95,11.45 7.05,7.85 6.1,4.2 6.1,-0.9 q 0,-5.1 0.95,-8.7 0.9,-3.65 2.25,-3.65 h 0.1 0.05 l 0.8,0.55 0.45,0.75 V -12 M 10.05,5.45 q -0.2,-0.3 -0.5,-0.3 -0.25,0 -0.45,0.3 l -0.2,0.7 0.2,0.7 0.45,0.3 0.5,-0.3 0.2,-0.7 -0.2,-0.7 M 9.55,-8.5 9.1,-8.2 l -0.2,0.7 0.2,0.7 0.45,0.3 q 0.3,0 0.5,-0.3 l 0.2,-0.7 -0.2,-0.7 -0.5,-0.3"
         fill="#cc9933"
         fill-rule="evenodd"
         stroke="none"
         id="path203" />
      <path
         d="m 9.55,-8.5 0.5,0.3 0.2,0.7 -0.2,0.7 q -0.2,0.3 -0.5,0.3 L 9.1,-6.8 8.9,-7.5 9.1,-8.2 9.55,-8.5 m 0.5,13.95 0.2,0.7 -0.2,0.7 -0.5,0.3 L 9.1,6.85 8.9,6.15 9.1,5.45 q 0.2,-0.3 0.45,-0.3 0.3,0 0.5,0.3"
         fill="#000000"
         fill-rule="evenodd"
         stroke="none"
         id="path205" />
    </g>
  </g>
</svg>
