<?xml version="1.0" encoding="UTF-8" standalone="no"?>
<svg xmlns:xlink="http://www.w3.org/1999/xlink" height="28.75px" width="28.75px" xmlns="http://www.w3.org/2000/svg">
  <g transform="matrix(1.0, 0.0, 0.0, 1.0, 97.65, 101.0)">
    <path d="M-93.45 -96.8 Q-89.25 -101.0 -83.3 -101.0 -77.35 -101.0 -73.1 -96.8 -68.9 -92.6 -68.9 -86.65 -68.9 -80.7 -73.1 -76.45 -77.35 -72.25 -83.3 -72.25 -89.25 -72.25 -93.45 -76.45 -97.65 -80.7 -97.65 -86.65 -97.65 -92.6 -93.45 -96.8 M-92.7 -96.15 Q-96.6 -92.25 -96.6 -86.75 -96.6 -81.25 -92.7 -77.3 -88.8 -73.45 -83.3 -73.4 -77.8 -73.45 -73.9 -77.3 -70.0 -81.25 -70.0 -86.75 -70.0 -92.25 -73.9 -96.15 -77.8 -100.05 -83.3 -100.05 -88.8 -100.05 -92.7 -96.15" fill="url(#gradient0)" fill-rule="evenodd" stroke="none"/>
    <path d="M-91.9 -95.15 Q-95.35 -91.7 -95.3 -86.85 -95.35 -82.0 -91.9 -78.55 -88.45 -75.15 -83.6 -75.15 -78.75 -75.15 -75.3 -78.55 -71.9 -82.0 -71.9 -86.85 -71.9 -91.7 -75.3 -95.15 -78.75 -98.6 -83.6 -98.55 -88.45 -98.6 -91.9 -95.15 M-92.6 -96.05 Q-88.8 -99.9 -83.35 -99.9 -77.95 -99.9 -74.1 -96.05 -70.25 -92.25 -70.25 -86.8 -70.25 -81.35 -74.1 -77.5 -77.95 -73.7 -83.35 -73.7 -88.8 -73.7 -92.6 -77.5 -96.45 -81.35 -96.45 -86.8 -96.45 -92.25 -92.6 -96.05" fill="url(#gradient1)" fill-rule="evenodd" stroke="none"/>
    <path d="M-91.9 -95.15 Q-88.45 -98.6 -83.6 -98.55 -78.75 -98.6 -75.3 -95.15 -71.9 -91.7 -71.9 -86.85 -71.9 -82.0 -75.3 -78.55 -78.75 -75.15 -83.6 -75.15 -88.45 -75.15 -91.9 -78.55 -95.35 -82.0 -95.3 -86.85 -95.35 -91.7 -91.9 -95.15" fill="url(#gradient2)" fill-rule="evenodd" stroke="none"/>
  </g>
  <defs>
    <radialGradient cx="0" cy="0" gradientTransform="matrix(0.0244, 0.0, 0.0, 0.0244, -87.55, -90.0)" gradientUnits="userSpaceOnUse" id="gradient0" r="819.2" spreadMethod="pad">
      <stop offset="0.0" stop-color="#00ccff"/>
      <stop offset="1.0" stop-color="#bddeff"/>
    </radialGradient>
    <radialGradient cx="0" cy="0" gradientTransform="matrix(0.021, 0.0, 0.0, 0.021, -79.55, -85.6)" gradientUnits="userSpaceOnUse" id="gradient1" r="819.2" spreadMethod="pad">
      <stop offset="0.0" stop-color="#00ccff"/>
      <stop offset="1.0" stop-color="#bdf1ff"/>
    </radialGradient>
    <radialGradient cx="0" cy="0" gradientTransform="matrix(0.0188, 0.0, 0.0, 0.0188, -83.5, -90.45)" gradientUnits="userSpaceOnUse" id="gradient2" r="819.2" spreadMethod="pad">
      <stop offset="0.0" stop-color="#ffffff"/>
      <stop offset="0.7568627450980392" stop-color="#00ccff"/>
      <stop offset="0.9725490196078431" stop-color="#ffffff"/>
    </radialGradient>
  </defs>
</svg>
