<?xml version="1.0" encoding="UTF-8" standalone="no"?>
<svg xmlns:xlink="http://www.w3.org/1999/xlink" height="29.1px" width="32.7px" xmlns="http://www.w3.org/2000/svg">
  <g transform="matrix(1.0, 0.0, 0.0, 1.0, 98.4, 97.5)">
    <path d="M-97.5 -80.5 L-97.55 -80.6 -97.6 -80.7 -97.65 -80.75 -98.4 -80.85 Q-97.6 -80.8 -97.5 -81.35 -97.45 -81.95 -97.0 -82.2 -96.5 -82.5 -96.35 -81.8 L-96.2 -80.95 -96.15 -80.55 -96.15 -80.35 -95.9 -80.35 -95.6 -80.2 -95.4 -80.05 -95.15 -79.85 -94.95 -79.7 -94.9 -79.65 -94.85 -79.55 -94.75 -79.5 -94.7 -79.4 -94.6 -79.35 -94.55 -79.25 -94.45 -79.15 -94.4 -79.1 -94.35 -79.0 -94.3 -78.95 -94.25 -78.85 -94.15 -78.8 -93.95 -78.7 -93.85 -78.6 -93.8 -78.55 -93.75 -78.45 -93.65 -78.4 -93.55 -78.3 -93.45 -78.25 -93.35 -78.15 -93.15 -78.1 -92.65 -78.05 -92.65 -78.0 -92.6 -77.95 -92.5 -77.85 -92.45 -77.8 -92.35 -77.7 -92.3 -77.6 -92.2 -77.55 -92.1 -77.45 -92.0 -77.35 -91.85 -77.3 -91.7 -77.25 -91.6 -77.25 -91.5 -77.35 -91.45 -77.35 -91.3 -77.3 -91.2 -77.25 -91.1 -77.15 -90.95 -77.05 -90.7 -77.0 -90.45 -76.85 -90.25 -76.65 -90.0 -76.5 -89.75 -76.35 -89.6 -76.3 -89.15 -76.25 -89.1 -76.15 -89.05 -76.1 -89.0 -76.0 -88.9 -75.95 -88.0 -75.6 -86.85 -75.25 -86.55 -75.25 -86.45 -75.3 -86.35 -75.3 -86.2 -75.35 -86.05 -75.45 -85.9 -75.5 -85.6 -75.55 -85.4 -75.6 -85.15 -75.6 -84.95 -75.55 -84.85 -75.6 -84.8 -75.6 -84.75 -75.65 -84.65 -75.75 -84.45 -75.8 -84.2 -75.8 -84.0 -75.8 -83.9 -75.8 -83.85 -75.8 -83.75 -75.9 -83.65 -75.95 -83.5 -76.05 -83.3 -76.1 -83.05 -76.2 -82.9 -76.25 -82.8 -76.35 -82.75 -76.45 -82.65 -76.5 -82.55 -76.6 -82.45 -76.65 -82.1 -76.75 -81.85 -76.8 -81.65 -76.9 -81.55 -76.95 -81.4 -77.05 -81.2 -77.1 -81.05 -77.2 -80.95 -77.25 -80.9 -77.35 -80.85 -77.4 -80.65 -77.35 -80.55 -77.35 -80.45 -77.45 -80.4 -77.5 -80.35 -77.6 -80.3 -77.65 -80.15 -77.75 -80.0 -77.8 -79.9 -77.9 -79.85 -78.0 -79.75 -78.05 -79.75 -78.15 -79.5 -78.25 -79.25 -78.3 -79.1 -78.4 -79.05 -78.45 -79.0 -78.55 -78.95 -78.6 -78.85 -78.7 -78.8 -78.8 -78.75 -78.85 -78.65 -78.95 -78.55 -79.0 -78.5 -79.1 -78.45 -79.15 -78.4 -79.25 -78.3 -79.35 -78.2 -79.4 -78.1 -79.5 -78.0 -79.55 -78.0 -79.65 -77.95 -79.7 -77.9 -79.8 -77.85 -79.9 -77.85 -79.95 -77.8 -80.05 -77.75 -80.1 -77.7 -80.2 -77.6 -80.25 -77.55 -80.35 -77.3 -80.4 -77.15 -80.45 -77.1 -80.45 -77.05 -80.5 -77.0 -80.6 -76.95 -80.7 -76.9 -80.75 -76.85 -80.85 -76.85 -80.9 -76.8 -81.0 -76.65 -81.05 -76.55 -81.05 -76.4 -81.1 -76.15 -81.2 -76.05 -81.25 -75.95 -81.35 -75.85 -81.45 -75.8 -81.5 -75.7 -81.6 -75.65 -81.7 -75.55 -81.75 -75.35 -81.85 -75.25 -81.9 -75.25 -82.0 -75.2 -82.05 -75.15 -82.15 -75.15 -82.2 -75.1 -82.3 -75.1 -82.4 -75.05 -82.45 -74.65 -82.5 -74.55 -82.55 -74.5 -82.55 -74.4 -82.6 -74.3 -82.7 -74.15 -82.75 -74.1 -82.85 -74.05 -82.95 -74.05 -83.0 -74.05 -83.1 -74.05 -83.15 -74.05 -83.25 -74.05 -83.35 -74.0 -83.4 -73.95 -83.5 -73.85 -83.6 -73.7 -83.65 -73.65 -83.7 -73.6 -83.8 -73.55 -83.9 -73.5 -83.95 -73.45 -84.05 -73.35 -84.1 -73.25 -84.2 -73.2 -84.3 -73.15 -84.35 -73.1 -84.45 -73.1 -84.5 -73.1 -84.6 -73.1 -84.65 -73.1 -84.75 -73.05 -84.85 -73.0 -84.9 -72.95 -85.0 -72.9 -85.05 -72.9 -85.15 -72.85 -85.2 -72.85 -85.3 -72.8 -85.4 -72.8 -85.45 -72.8 -85.55 -72.8 -85.6 -72.8 -85.7 -72.75 -85.85 -72.65 -86.2 -72.55 -86.5 -72.45 -86.8 -72.35 -87.1 -72.2 -87.45 -72.1 -87.5 -72.0 -87.6 -71.9 -87.65 -71.9 -87.75 -71.85 -87.85 -71.85 -87.9 -71.85 -88.0 -71.85 -88.05 -71.85 -88.15 -71.9 -88.25 -71.9 -88.3 -71.95 -88.4 -72.0 -88.45 -72.0 -88.55 -72.0 -88.65 -71.95 -88.7 -71.95 -88.8 -71.95 -88.85 -71.95 -88.95 -71.95 -89.0 -71.95 -89.1 -71.95 -89.15 -72.0 -89.25 -72.0 -89.35 -72.05 -89.4 -72.05 -89.5 -72.05 -89.55 -72.05 -89.65 -72.05 -89.7 -72.0 -89.8 -72.0 -89.9 -71.95 -89.95 -71.95 -90.05 -71.9 -90.1 -71.9 -90.2 -71.85 -90.3 -71.85 -90.35 -71.9 -90.45 -71.9 -90.5 -72.0 -90.6 -72.1 -90.7 -72.1 -90.75 -72.05 -90.85 -72.05 -90.9 -72.05 -91.05 -72.05 -91.25 -72.05 -91.4 -72.05 -91.45 -72.05 -91.6 -72.05 -91.8 -72.05 -91.85 -72.0 -91.95 -72.0 -92.0 -71.95 -92.1 -71.95 -92.15 -71.95 -92.25 -71.95 -92.35 -71.95 -92.4 -71.95 -92.5 -72.0 -92.55 -72.0 -92.65 -72.05 -92.75 -72.05 -92.8 -72.0 -92.9 -72.0 -92.95 -71.95 -93.05 -71.95 -93.15 -71.95 -93.2 -71.95 -93.3 -71.95 -93.35 -71.95 -93.45 -71.9 -93.5 -71.9 -93.6 -71.85 -93.7 -71.8 -93.75 -71.8 -93.85 -71.8 -93.9 -71.75 -94.0 -71.75 -94.05 -71.8 -94.15 -71.8 -94.25 -71.8 -94.3 -71.85 -94.4 -71.95 -94.5 -72.65 -94.9 Q-73.3 -95.2 -72.6 -94.9 L-71.85 -94.7 -71.85 -94.75 -71.85 -94.85 -71.85 -94.95 -71.85 -95.0 -72.5 -95.2 -73.15 -95.4 -72.6 -95.35 -72.05 -95.35 -72.1 -95.4 -72.1 -95.5 -72.15 -95.6 -72.15 -95.65 -72.2 -95.75 -73.55 -95.8 Q-74.85 -95.85 -73.65 -95.9 L-72.35 -95.95 -72.3 -96.05 -72.35 -96.1 -72.4 -96.2 -73.05 -96.2 -73.7 -96.15 -73.15 -96.35 -72.55 -96.5 -72.6 -96.6 -72.75 -96.65 -73.1 -96.65 -72.95 -96.75 -72.6 -96.9 -72.6 -97.0 -72.65 -97.1 -72.7 -97.15 -72.75 -97.25 -72.75 -97.3 -72.7 -97.4 -72.7 -97.45 -72.7 -97.5 -72.65 -97.5 -72.6 -97.45 -72.55 -97.35 -72.45 -97.3 -72.4 -97.2 -72.25 -97.1 -72.15 -97.05 -72.1 -96.95 -72.1 -96.9 -72.05 -96.8 -72.05 -96.75 -72.0 -96.65 -72.0 -96.55 -71.95 -96.5 -71.9 -96.4 -71.8 -96.35 -71.75 -96.25 -71.65 -96.2 -71.6 -96.1 -71.5 -96.05 -71.45 -95.95 -71.35 -95.85 -71.35 -95.8 -71.35 -95.7 -71.35 -95.65 -71.35 -95.55 -71.25 -95.45 -71.15 -95.4 -70.95 -95.3 -70.75 -95.25 -70.45 -95.2 -70.4 -95.2 -70.3 -95.1 -70.25 -95.0 -70.2 -94.95 -70.15 -94.85 -70.05 -94.75 -70.0 -94.7 -69.9 -94.65 -69.8 -94.55 -69.75 -94.45 -69.55 -94.4 -69.3 -94.3 -69.15 -94.25 -69.1 -94.15 -69.0 -94.0 -68.9 -93.85 -68.75 -93.7 -68.65 -93.5 -68.55 -93.35 -68.55 -93.3 -68.5 -93.2 -68.5 -93.15 -68.45 -93.05 -68.35 -92.95 -68.2 -92.9 -68.15 -92.8 -68.1 -92.75 -68.1 -92.65 -68.05 -92.55 -68.05 -92.5 -68.0 -92.4 -68.0 -92.35 -67.95 -92.25 -67.9 -92.15 -67.85 -92.1 -67.8 -92.0 -67.75 -91.95 -67.7 -91.85 -67.65 -91.8 -67.6 -91.7 -67.55 -91.6 -67.55 -91.55 -67.55 -91.45 -67.55 -91.4 -67.55 -91.3 -67.55 -91.25 -67.55 -91.15 -67.55 -91.05 -67.55 -91.0 -67.5 -90.9 -67.45 -90.85 -67.4 -90.75 -67.3 -90.7 -67.3 -90.6 -67.3 -90.5 -67.25 -90.45 -67.2 -90.35 -67.15 -90.3 -67.1 -90.2 -67.05 -90.1 -67.0 -90.05 -66.95 -89.95 -66.85 -89.9 -66.7 -89.8 -66.7 -89.7 -66.7 -89.65 -66.7 -89.55 -66.7 -89.5 -66.65 -89.35 -66.6 -89.15 -66.55 -89.0 -66.5 -88.85 -66.45 -88.7 -66.4 -88.55 -66.4 -88.45 -66.4 -88.4 -66.4 -88.3 -66.4 -88.25 -66.35 -88.15 -66.3 -88.05 -66.3 -88.0 -66.3 -87.9 -66.25 -87.85 -66.2 -87.75 -66.2 -87.65 -66.25 -87.6 -66.3 -87.5 -66.3 -87.45 -66.3 -87.35 -66.3 -87.3 -66.3 -87.2 -66.3 -87.1 -66.3 -87.05 -66.25 -86.95 -66.15 -86.9 -66.1 -86.8 -66.05 -86.75 -66.05 -86.65 -66.05 -86.55 -66.05 -86.5 -66.05 -86.35 -66.05 -86.2 -66.05 -86.1 -66.05 -86.0 -66.05 -85.85 -66.05 -85.7 -66.0 -85.55 -65.95 -85.4 -65.9 -85.2 -65.85 -85.05 -65.8 -84.9 -65.75 -84.75 -65.7 -84.6 -65.7 -84.5 -65.7 -84.45 -65.75 -84.35 -65.75 -84.3 -65.8 -84.2 -65.85 -84.1 -65.85 -84.05 -65.85 -83.95 -65.85 -83.9 -65.85 -83.8 -65.85 -83.7 -65.85 -83.65 -65.85 -83.55 -65.85 -83.5 -65.85 -83.4 -65.9 -83.35 -65.95 -83.25 -66.0 -83.15 -66.05 -83.1 -66.1 -83.0 -66.1 -82.95 -66.15 -82.85 -66.15 -82.75 -66.15 -82.7 -66.15 -82.6 -66.15 -82.55 -66.15 -82.45 -66.15 -82.4 -66.15 -82.3 -66.15 -82.2 -66.15 -82.15 -66.1 -82.05 -66.1 -82.0 -66.05 -81.9 -66.05 -81.85 -66.05 -81.75 -66.05 -81.7 -66.05 -81.6 -66.05 -81.5 -66.1 -81.45 -66.1 -81.35 -66.15 -81.25 -66.15 -81.2 -66.2 -81.1 -66.2 -81.05 -66.25 -80.95 -66.3 -80.85 -66.3 -80.8 -66.3 -80.7 -66.3 -80.65 -66.3 -80.55 -66.3 -80.5 -66.3 -80.4 -66.3 -80.35 -66.3 -80.25 -66.3 -80.15 -66.3 -80.1 -66.35 -80.0 -66.4 -79.95 -66.4 -79.85 -66.4 -79.8 -66.4 -79.7 -66.4 -79.6 -66.4 -79.55 -66.45 -79.45 -66.45 -79.4 -66.5 -79.3 -66.55 -79.25 -66.6 -79.15 -66.65 -79.05 -66.7 -79.0 -66.75 -78.9 -66.8 -78.8 -66.85 -78.75 -66.9 -78.65 -66.95 -78.6 -66.95 -78.5 -67.0 -78.45 -67.0 -78.35 -67.0 -78.25 -67.0 -78.2 -67.0 -78.1 -67.05 -78.05 -67.1 -77.95 -67.15 -77.9 -67.25 -77.8 -67.3 -77.7 -67.4 -77.65 -67.45 -77.55 -67.5 -77.5 -67.55 -77.4 -67.55 -77.35 -67.55 -77.15 -67.55 -77.0 -67.55 -76.85 -67.55 -76.8 -67.55 -76.6 -67.55 -76.45 -67.55 -76.35 -67.6 -76.3 -67.6 -76.2 -67.65 -76.15 -67.7 -76.05 -67.75 -76.0 -67.8 -75.9 -67.85 -75.8 -67.9 -75.75 -67.9 -75.65 -67.95 -75.6 -68.0 -75.5 -68.15 -75.45 -68.2 -75.35 -68.3 -75.25 -68.35 -75.2 -68.4 -75.1 -68.45 -75.05 -68.5 -74.95 -68.5 -74.9 -68.55 -74.8 -68.55 -74.7 -68.6 -74.65 -68.65 -74.55 -68.7 -74.5 -68.75 -74.4 -68.9 -74.35 -69.0 -74.25 -69.1 -74.15 -69.15 -74.1 -69.2 -74.0 -69.25 -73.95 -69.3 -73.85 -69.35 -73.75 -69.45 -73.7 -69.55 -73.6 -69.6 -73.55 -69.65 -73.45 -69.75 -73.4 -69.75 -73.3 -69.9 -73.2 -70.0 -73.15 -70.1 -73.05 -70.2 -73.0 -70.35 -72.9 -70.45 -72.85 -70.5 -72.75 -70.55 -72.65 -70.6 -72.6 -70.65 -72.5 -70.7 -72.45 -70.8 -72.35 -70.9 -72.3 -71.0 -72.2 -71.1 -72.1 -71.25 -72.05 -71.5 -71.95 -71.6 -71.9 -71.65 -71.8 -71.7 -71.7 -71.8 -71.65 -71.8 -71.55 -71.9 -71.5 -71.95 -71.4 -72.0 -71.3 -72.05 -71.25 -72.15 -71.15 -72.3 -71.1 -72.55 -71.0 -72.8 -70.9 -72.95 -70.85 -73.05 -70.8 -73.2 -70.7 -73.25 -70.6 -73.35 -70.55 -73.4 -70.45 -73.9 -70.4 -74.0 -70.4 -74.05 -70.35 -74.15 -70.3 -74.25 -70.2 -74.4 -70.15 -74.5 -70.05 -74.6 -70.0 -74.8 -69.9 -75.0 -69.85 -75.15 -69.75 -75.25 -69.65 -75.35 -69.6 -75.45 -69.5 -75.5 -69.45 -75.55 -69.35 -75.65 -69.25 -76.1 -69.1 -76.55 -68.95 -76.65 -68.85 -76.8 -68.85 -76.95 -68.95 -77.3 -68.95 -77.45 -68.85 -77.5 -68.8 -77.55 -68.7 -77.6 -68.65 -77.65 -68.55 -77.7 -68.5 -77.8 -68.4 -77.95 -68.4 -78.1 -68.4 -80.4 -68.4 -80.45 -68.45 -80.85 -68.6 -81.3 -68.7 -82.35 -68.75 -82.55 -68.8 -82.85 -68.8 -82.95 -68.8 -83.05 -68.75 -83.2 -68.75 -83.25 -68.8 -83.4 -68.9 -83.6 -69.0 -83.8 -69.05 -84.45 -69.05 -84.65 -69.0 -84.65 -69.05 -84.7 -69.1 -84.8 -69.2 -84.95 -69.25 -85.7 -69.3 -85.9 -69.35 -86.9 -69.4 -87.05 -69.45 -87.3 -69.5 -87.5 -69.55 -88.05 -69.6 -88.15 -69.7 -88.2 -69.75 -88.35 -69.85 -88.45 -69.9 -88.55 -70.0 -88.65 -70.1 -88.8 -70.15 -88.9 -70.25 -88.95 -70.3 -89.0 -70.4 -89.05 -70.5 -89.1 -70.55 -89.25 -70.65 -89.35 -70.7 -89.4 -70.8 -89.4 -70.85 -89.45 -70.95 -89.45 -71.05 -89.5 -71.1 -89.5 -71.2 -89.55 -71.25 -89.6 -71.35 -89.7 -71.45 -89.95 -71.5 -90.15 -71.6 -90.35 -71.65 -90.5 -71.75 -90.6 -71.85 -91.05 -72.0 -91.5 -72.15 -91.6 -72.2 -91.7 -72.3 -91.75 -72.4 -91.9 -72.45 -92.05 -72.55 -92.2 -72.6 -92.25 -72.7 -92.3 -72.75 -92.35 -72.85 -92.4 -72.95 -92.45 -73.0 -92.5 -73.1 -92.55 -73.15 -92.55 -73.25 -92.6 -73.35 -92.6 -73.4 -92.65 -73.5 -92.7 -73.55 -92.75 -73.65 -92.85 -73.7 -92.85 -73.8 -92.9 -73.9 -92.9 -73.95 -92.95 -74.05 -93.0 -74.1 -93.05 -74.2 -93.1 -74.3 -93.15 -74.35 -93.2 -74.45 -93.3 -74.5 -93.45 -74.6 -93.5 -74.65 -93.55 -74.75 -93.6 -74.8 -93.65 -74.9 -93.75 -75.0 -93.85 -75.05 -94.05 -74.15 -94.3 -73.2 -94.25 -74.3 -94.2 -75.4 -94.3 -75.45 -94.35 -75.55 -94.35 -75.6 -94.4 -75.7 -94.6 -75.45 -94.75 -75.35 -94.6 -75.75 -94.5 -76.0 -94.55 -76.1 -94.6 -76.15 -94.65 -76.25 -94.7 -76.35 -94.75 -76.4 -94.9 -76.5 -95.1 -76.55 -95.2 -76.65 -95.3 -76.7 -95.35 -76.8 -95.4 -76.9 -95.45 -76.95 -95.95 -76.9 -96.4 -76.8 -96.1 -77.05 Q-95.75 -77.25 -95.8 -77.3 L-95.9 -77.35 -95.9 -77.45 -95.95 -77.5 -96.0 -77.6 -96.0 -77.65 -96.15 -77.9 -96.35 -78.15 -96.5 -78.4 -96.65 -78.6 -96.8 -78.85 -96.8 -78.95 -96.85 -79.0 -96.9 -79.1 -96.9 -79.15 -96.9 -79.25 -96.9 -79.35 -96.9 -79.4 -96.95 -79.5 -96.95 -79.55 -97.0 -79.65 -97.05 -79.7 -97.1 -79.8 -97.15 -79.9 -97.2 -79.95 -97.2 -80.05 -97.25 -80.1 -97.25 -80.2 -97.35 -80.25 -97.4 -80.35 -97.45 -80.45 -97.5 -80.5" fill="url(#gradient0)" fill-rule="evenodd" stroke="none"/>
  </g>
  <defs>
    <linearGradient gradientTransform="matrix(0.007, 0.0122, -0.0168, 0.0097, -79.3, -80.35)" gradientUnits="userSpaceOnUse" id="gradient0" spreadMethod="pad" x1="-819.2" x2="819.2">
      <stop offset="0.0" stop-color="#ffffff"/>
      <stop offset="0.7803921568627451" stop-color="#ffffff"/>
      <stop offset="1.0" stop-color="#caffff"/>
    </linearGradient>
  </defs>
</svg>
