<?xml version="1.0" encoding="UTF-8" standalone="no"?>
<svg xmlns:xlink="http://www.w3.org/1999/xlink" height="22.8px" width="20.0px" xmlns="http://www.w3.org/2000/svg">
  <g transform="matrix(1.0, 0.0, 0.0, 1.0, 517.5, 124.0)">
    <path d="M-503.0 -112.1 L-502.3 -111.7 -502.8 -110.7 -502.1 -110.3 -501.5 -111.3 -500.7 -110.9 -501.3 -109.9 -500.6 -109.5 -500.1 -110.4 -499.3 -110.0 -499.8 -109.1 -499.3 -108.8 -498.4 -109.1 -497.5 -107.3 -499.5 -107.1 -499.8 -108.0 -500.3 -108.2 -500.8 -107.3 -501.5 -107.7 -501.0 -108.6 -501.8 -109.0 -502.3 -108.0 -503.1 -108.5 -502.5 -109.5 -503.3 -109.9 -503.8 -108.9 -504.5 -109.3 -504.0 -110.2 -504.4 -110.5 -504.5 -111.1 -504.0 -111.4 -503.5 -111.1 -503.0 -112.1 M-505.0 -114.0 L-502.7 -113.1 -504.8 -111.5 -507.0 -112.7 -505.0 -114.0 M-499.3 -118.2 L-497.5 -118.0 -498.4 -116.3 -499.3 -116.6 -499.8 -116.3 -499.4 -115.4 -500.0 -115.0 -500.5 -115.9 -501.3 -115.5 -500.8 -114.5 -501.5 -114.2 -502.1 -115.2 -502.9 -114.8 -502.4 -113.8 -503.0 -113.5 -503.5 -114.4 -504.0 -114.2 -504.5 -114.4 -504.4 -115.0 -503.9 -115.2 -504.4 -116.2 -503.8 -116.5 -503.3 -115.5 -502.5 -115.9 -503.0 -117.0 -502.2 -117.3 -501.7 -116.3 -500.9 -116.7 -501.4 -117.7 -500.7 -118.0 -500.2 -117.1 -499.7 -117.4 -499.3 -118.2 M-507.2 -121.7 L-507.2 -121.1 -506.1 -121.1 -506.1 -120.3 -507.2 -120.3 -507.2 -119.5 -506.0 -119.5 -506.0 -118.6 -507.2 -118.6 -507.2 -117.7 -506.1 -117.7 -506.1 -116.9 -507.2 -116.9 -507.2 -116.5 -507.6 -116.0 -508.2 -116.4 -508.2 -116.9 -509.3 -116.9 -509.3 -117.7 -508.2 -117.7 -508.2 -118.6 -509.3 -118.6 -509.3 -119.5 -508.2 -119.5 -508.2 -120.3 -509.2 -120.3 -509.2 -121.1 -508.2 -121.1 -508.2 -121.7 -508.8 -122.4 -507.7 -124.0 -506.5 -122.4 -507.2 -121.7 M-505.1 -110.9 L-504.9 -108.4 -507.3 -109.5 -507.2 -112.0 -505.1 -110.9 M-509.7 -108.2 L-510.1 -110.8 -507.9 -112.1 -507.7 -109.7 Q-508.7 -108.9 -509.7 -108.2 M-507.1 -108.2 L-506.0 -108.1 -506.0 -107.5 -507.1 -107.5 -507.1 -106.5 -506.0 -106.5 -506.0 -105.7 -507.1 -105.7 -507.1 -104.8 -506.1 -104.8 -506.1 -104.0 -507.2 -104.1 -507.2 -103.4 -506.6 -102.7 -507.7 -101.2 -508.7 -102.8 -508.1 -103.5 -508.1 -104.1 -509.1 -104.1 -509.1 -104.9 -508.0 -104.9 -508.0 -105.8 -509.2 -105.8 -509.1 -106.6 -508.0 -106.6 -508.0 -107.5 -509.0 -107.6 -509.0 -108.2 -508.0 -108.2 -507.9 -108.7 -507.5 -109.1 -507.0 -108.7 -507.1 -108.2 M-507.9 -113.1 L-510.1 -114.2 -510.3 -116.7 -507.9 -115.6 -507.9 -113.1 M-507.2 -115.7 L-505.1 -117.1 -505.0 -114.4 -507.2 -113.2 -507.2 -115.7 M-510.5 -111.3 L-512.7 -112.4 -510.5 -113.9 -508.4 -112.6 -510.5 -111.3 M-512.7 -111.2 L-512.1 -111.6 -511.6 -110.7 -511.1 -110.9 -510.5 -110.8 -510.6 -110.2 -511.1 -109.9 -510.5 -109.0 -511.1 -108.6 -511.7 -109.6 -512.5 -109.1 -511.9 -108.1 -512.6 -107.7 -513.2 -108.6 -514.0 -108.1 -513.4 -107.2 -514.1 -106.9 -514.6 -107.8 -515.2 -107.4 -515.4 -106.5 -517.3 -106.7 -516.5 -108.4 -515.6 -108.2 -515.1 -108.5 -515.6 -109.4 -515.0 -109.8 -514.4 -108.9 -513.7 -109.4 -514.2 -110.4 -513.5 -110.8 -512.9 -109.8 -512.1 -110.3 -512.7 -111.2 M-514.3 -118.2 L-513.7 -117.8 -514.2 -116.9 -513.4 -116.5 -512.8 -117.4 -512.1 -117.0 -512.7 -116.0 -511.9 -115.5 -511.3 -116.4 -510.8 -116.1 -511.3 -115.2 -510.9 -114.9 -510.8 -114.3 -511.3 -114.1 -511.8 -114.4 -512.4 -113.5 -512.9 -113.8 -512.4 -114.8 -513.2 -115.3 -513.8 -114.3 -514.5 -114.7 -513.9 -115.7 -514.7 -116.2 -515.2 -115.3 -515.8 -115.7 -515.3 -116.6 -515.8 -116.9 -516.8 -116.7 -517.5 -118.4 -515.6 -118.6 -515.4 -117.6 -514.8 -117.3 -514.3 -118.2" fill="#ffffff" fill-rule="evenodd" stroke="none"/>
  </g>
</svg>
