<?xml version="1.0" encoding="UTF-8" standalone="no"?>
<svg
   height="49.85px"
   width="46.95px"
   version="1.1"
   id="svg276"
   sodipodi:docname="super-monkey-base.svg"
   inkscape:version="1.2.1 (9c6d41e, 2022-07-14)"
   xmlns:inkscape="http://www.inkscape.org/namespaces/inkscape"
   xmlns:sodipodi="http://sodipodi.sourceforge.net/DTD/sodipodi-0.dtd"
   xmlns="http://www.w3.org/2000/svg"
   xmlns:svg="http://www.w3.org/2000/svg">
  <defs
     id="defs280" />
  <sodipodi:namedview
     id="namedview278"
     pagecolor="#ffffff"
     bordercolor="#000000"
     borderopacity="0.25"
     inkscape:showpageshadow="2"
     inkscape:pageopacity="0.0"
     inkscape:pagecheckerboard="0"
     inkscape:deskcolor="#d1d1d1"
     showgrid="false"
     inkscape:zoom="4.7342028"
     inkscape:cx="-6.3368642"
     inkscape:cy="31.684321"
     inkscape:window-width="1309"
     inkscape:window-height="456"
     inkscape:window-x="-5"
     inkscape:window-y="90"
     inkscape:window-maximized="0"
     inkscape:current-layer="svg276" />
  <g
     id="g372"
     transform="matrix(0.90552658,0,0,0.90552658,2.2190956,3.7802826)">
    <g
       transform="translate(23.35,16.5)"
       id="g274">
      <path
         d="m -15.7,9.8 -0.1,0.35 -0.15,1.2 L -16,12 v 0.1 l 0.2,1.4 0.55,1.25 1.6,2.85 1.1,2.35 q 0.45,1.45 0.45,3 l -0.25,2.05 -0.9,3.5 -0.2,0.6 q -1.65,4.25 -4.05,4.25 -1.65,0 -2.6,-1.1 -0.75,-0.85 -0.7,-1.8 0,-1.15 1.4,-3.95 l 0.15,-0.25 Q -18,23.6 -18,23 q 0,-1.55 -0.85,-3.05 l -1.85,-2.65 -1.9,-2.85 q -0.8,-1.55 -0.75,-3.2 v -0.4 l 0.05,-0.5 0.05,-0.45 0.5,-0.35 Q -21,8.3 -18.9,7.9 l 0.65,0.3 q 1.3,0.6 2.4,1.5 l 0.15,0.1"
         fill="#613030"
         fill-rule="evenodd"
         stroke="none"
         id="path270" />
      <path
         d="m -23.25,9.9 0.05,-0.35 0.05,-0.4 q 0.45,-2.3 1.65,-4.35 3.2,-5.7 9.8,-5.7 h 0.15 q 1.3,-3.3 4.05,-6.05 3,-3 6.7,-4.3 v -0.55 q -0.05,-1.95 1.8,-3.35 1.85,-1.35 4.5,-1.35 2.6,0 4.45,1.35 1.85,1.4 1.85,3.35 l -0.05,0.6 q 3.6,1.3 6.55,4.25 5.3,5.35 5.3,12.9 0,7.55 -5.3,12.9 -5.35,5.3 -12.9,5.35 -7.55,-0.05 -12.9,-5.35 -4.9,-4.9 -5.3,-11.65 -1.1,0.4 -2.1,1.2 -0.55,0.45 -0.8,1.4 l -0.15,-0.1 q -1.1,-0.9 -2.4,-1.5 L -18.9,7.9 q -2.1,0.4 -3.85,1.65 l -0.5,0.35"
         fill="#003bd4"
         fill-rule="evenodd"
         stroke="none"
         id="path272" />
    </g>
    <g
       transform="translate(23.924576,16.851482)"
       id="g296">
      <path
         d="M -6.4,9.2 V 9.15 l 0.05,0.1 0.15,0.2 v 0.1 0.15 l -0.05,0.1 -0.1,0.1 -0.05,0.15 -0.05,0.1 -0.05,0.1 -0.15,0.15 -0.05,0.1 V 10.45 10.35 10.2 10.1 10 9.8 9.7 l 0.15,-0.15 v -0.1 l 0.1,-0.1 0.05,-0.15 m -3.7,-6.55 h 0.05 0.55 l 0.1,0.1 0.15,0.1 0.1,0.15 0.2,0.1 0.05,0.1 V 3.35 L -8.95,3.5 V 3.65 3.75 4 4.1 4.2 4.35 4.45 4.7 4.8 4.9 L -9.1,5.1 -9.15,5.2 -9.2,5.35 -9.35,5.45 -9.45,5.55 -9.5,5.7 -9.6,5.8 -9.75,5.9 -10.05,6 -10.1,6.05 -10.15,6.1 -10.35,6.05 -10.55,6 -10.8,5.9 -10.85,5.85 -10.95,5.75 -11.1,5.65 V 5.45 5.35 L -11.15,5.2 -11.2,5.1 -11.25,5 V 4.85 4.75 4.65 4.5 4.4 4.3 4.15 3.85 3.75 l 0.05,-0.1 0.05,-0.15 0.05,-0.1 V 3.3 3.15 l 0.15,-0.1 0.05,-0.1 h 0.2 l 0.2,-0.1 0.1,-0.05 0.05,-0.05 0.25,-0.1 m -0.5,13.6 0.05,-0.05 0.05,0.05 h -0.05 -0.05"
         fill="#ffff00"
         fill-rule="evenodd"
         stroke="none"
         id="path282" />
      <path
         d="m 15.3,-7.4 0.95,2.8 q 0.1,0.35 0.55,0.75 1.2,0.35 2.5,1.85 l 0.7,0.85 q 1.95,2.85 2,6.95 -0.05,4.05 -2,6.9 l -0.7,0.9 -2.5,2 q -0.65,0.3 -0.95,1.55 L 14.9,19.3 h -0.05 l -0.1,0.2 -0.15,0.15 -0.55,0.35 -0.4,0.15 H 13.6 q -1.55,0 -2.65,-4.25 Q 9.85,11.65 9.9,5.65 9.85,-0.4 10.95,-4.6 q 1.1,-4.3 2.65,-4.3 h 0.15 0.05 q 0.45,0.05 0.9,0.65 l 0.55,0.85 v -0.05 l 0.05,0.05 m -0.8,22.1 0.2,-0.8 -0.2,-0.85 -0.55,-0.35 q -0.35,0 -0.6,0.35 -0.25,0.35 -0.2,0.85 -0.05,0.45 0.2,0.8 0.25,0.35 0.6,0.35 L 14.5,14.7 m -0.55,-18 q -0.35,0 -0.6,0.35 -0.25,0.35 -0.2,0.85 -0.05,0.45 0.2,0.8 0.25,0.35 0.6,0.35 L 14.5,-1.3 14.7,-2.1 14.5,-2.95 13.95,-3.3"
         fill="#cc9933"
         fill-rule="evenodd"
         stroke="none"
         id="path284" />
      <path
         d="m 13.95,-3.3 0.55,0.35 0.2,0.85 -0.2,0.8 -0.55,0.35 q -0.35,0 -0.6,-0.35 -0.25,-0.35 -0.2,-0.8 -0.05,-0.5 0.2,-0.85 0.25,-0.35 0.6,-0.35 m 0.55,18 -0.55,0.35 q -0.35,0 -0.6,-0.35 -0.25,-0.35 -0.2,-0.8 -0.05,-0.5 0.2,-0.85 0.25,-0.35 0.6,-0.35 l 0.55,0.35 0.2,0.85 -0.2,0.8"
         fill="#000000"
         fill-rule="evenodd"
         stroke="none"
         id="path286" />
      <path
         d="m 14.9,19.3 0.05,0.05 v 0.15 l -0.05,0.05 v 0.2 h -0.05 v 0.2 0.05 0.1 H 14.8 v 0.05 0.15 l -0.05,0.05 v 0.1 H 14.7 v 0.05 0.1 h -0.05 v 0.05 0.05 H 14.6 v 0.1 h -0.05 v 0.05 H 14.5 v 0.1 0.05 h -0.05 v 0.05 0.05 H 14.4 v 0.05 h -0.05 v 0.05 0.05 l -0.05,0.05 -0.05,0.05 v 0.1 L 14.2,21.5 h -0.05 v 0.1 L 14.1,21.65 V 21.7 H 14.05 14 v 0.1 l -0.05,0.05 -0.05,0.1 q -1.55,2 -5.35,3.45 0.5,0.8 0.5,1.85 Q 9,29 7.55,30.25 6.1,31.5 4.05,31.5 2,31.5 0.55,30.25 -0.9,29 -0.9,27.25 q 0,-1.2 0.7,-2.1 -3.7,-1.45 -6.65,-5.1 L -7.1,19.65 Q -11.55,13.85 -11.55,5.8 V 5.75 q 0,-8.1 4.45,-13.9 l 0.25,-0.4 q 2.95,-3.7 6.65,-5.05 -0.7,-0.95 -0.7,-2.15 0,-1.75 1.45,-3 Q 2,-20 4.05,-20 q 2.05,0 3.5,1.25 1.45,1.25 1.5,3 0,1.05 -0.5,1.9 3.1,1.1 4.8,3.2 l 1.8,2.45 0.15,0.65 V -7.4 L 15.25,-7.45 V -7.4 L 14.7,-8.25 Q 14.25,-8.85 13.8,-8.9 H 13.75 13.6 q -1.55,0 -2.65,4.3 -1.1,4.2 -1.05,10.25 -0.05,6 1.05,10.25 1.1,4.25 2.65,4.25 h 0.05 l 0.4,-0.15 0.55,-0.35 0.15,-0.15 0.1,-0.2 h 0.05"
         fill="#003bd4"
         fill-rule="evenodd"
         stroke="none"
         id="path288" />
      <path
         d="m -2.55,-0.45 -1.5,-0.1 q -1.45,0 -2.45,0.75 -1.7,1.25 -1.65,5.2 l 0.1,7.15 q 0,0.35 0.4,0.2 L -7.2,12.6 -5.75,12 q 0.7,-0.3 0.7,-0.65 l 0.3,-2.2 9.55,-2.6 V 7.3 L 4.9,7.4 5.05,7.3 5.15,7.2 5.2,4.85 Q 5.15,3.2 4.65,2.35 L 3.85,1.65 Q 3.05,1.3 2.4,1.85 1.75,2.2 1.7,3.1 1.1,1 -1.3,0 l -1.25,-0.45 m 4.8,6.2 V 5.2 Q 2.2,2.6 3.85,3.05 4.8,3.3 4.8,4.9 v 0.65 l -2.55,0.2 m -0.85,0.1 -6.05,0.6 0.1,-1.8 Q -4.55,3.35 -3.5,2.6 -2.65,2 -1,2.35 0.4,2.65 1,3.55 L 1.4,5.5 V 5.85 M -10.7,10.4 V 0.15 L -4.4,-6.4 10.1,5.2 -4.55,17.1 -10.7,10.4"
         fill="#ffcc00"
         fill-rule="evenodd"
         stroke="none"
         id="path290" />
      <path
         d="M -2.55,-0.45 -1.3,0 Q 1.1,1 1.7,3.1 1.75,2.2 2.4,1.85 3.05,1.3 3.85,1.65 l 0.8,0.7 Q 5.15,3.2 5.2,4.85 L 5.15,7.2 5.05,7.3 4.9,7.4 4.8,7.3 V 6.55 l -9.55,2.6 -0.3,2.2 q 0,0.35 -0.7,0.65 l -1.45,0.6 -0.45,0.15 q -0.4,0.15 -0.4,-0.2 L -8.15,5.4 Q -8.2,1.45 -6.5,0.2 q 1,-0.75 2.45,-0.75 l 1.5,0.1 m 7.35,6 V 4.9 Q 4.8,3.3 3.85,3.05 2.2,2.6 2.25,5.2 V 5.75 L 4.8,5.55 V 5.5 5.55 M 1.4,5.85 V 5.9 L 1.45,5.85 H 1.4 V 5.5 L 1,3.55 Q 0.4,2.65 -1,2.35 -2.65,2 -3.5,2.6 -4.55,3.35 -4.55,4.65 l -0.1,1.8 6.05,-0.6 m 0.85,-0.1 -0.1,0.05 0.1,0.05 v -0.1 m -6.9,0.7 -0.2,0.05 0.2,0.1 V 6.45"
         fill="#ff0000"
         fill-rule="evenodd"
         stroke="none"
         id="path292" />
      <path
         d="M -10.7,10.4 -4.55,17.1 10.1,5.2 -4.4,-6.4 -10.7,0.15 Z"
         fill="none"
         stroke="#ff0000"
         stroke-linecap="round"
         stroke-linejoin="round"
         stroke-width="1"
         id="path294" />
    </g>
  </g>
</svg>
