<?xml version="1.0" encoding="UTF-8" standalone="no"?>
<svg xmlns:xlink="http://www.w3.org/1999/xlink" height="51.5px" width="33.55px" xmlns="http://www.w3.org/2000/svg">
  <g transform="matrix(1.0, 0.0, 0.0, 1.0, 11.55, 20.0)">
    <path d="M-6.4 9.2 L-6.4 9.15 -6.35 9.25 -6.2 9.45 -6.2 9.55 -6.2 9.7 -6.25 9.8 -6.35 9.9 -6.4 10.05 -6.45 10.15 -6.5 10.25 -6.65 10.4 -6.7 10.5 -6.7 10.45 -6.7 10.35 -6.7 10.2 -6.7 10.1 -6.7 10.0 -6.7 9.8 -6.7 9.7 -6.55 9.55 -6.55 9.45 -6.45 9.35 -6.4 9.2 M-10.1 2.65 L-10.05 2.65 -9.5 2.65 -9.4 2.75 -9.25 2.85 -9.15 3.0 -8.95 3.1 -8.9 3.2 -8.9 3.35 -8.95 3.5 -8.95 3.65 -8.95 3.75 -8.95 4.0 -8.95 4.1 -8.95 4.2 -8.95 4.35 -8.95 4.45 -8.95 4.7 -8.95 4.8 -8.95 4.9 -9.1 5.1 -9.15 5.2 -9.2 5.35 -9.35 5.45 -9.45 5.55 -9.5 5.7 -9.6 5.8 -9.75 5.9 -10.05 6.0 -10.1 6.05 -10.15 6.1 -10.35 6.05 -10.55 6.0 -10.8 5.9 -10.85 5.85 -10.95 5.75 -11.1 5.65 -11.1 5.45 -11.1 5.35 -11.15 5.2 -11.2 5.1 -11.25 5.0 -11.25 4.85 -11.25 4.75 -11.25 4.65 -11.25 4.5 -11.25 4.4 -11.25 4.3 -11.25 4.15 -11.25 3.85 -11.25 3.75 -11.2 3.65 -11.15 3.5 -11.1 3.4 -11.1 3.3 -11.1 3.15 -10.95 3.05 -10.9 2.95 -10.7 2.95 -10.5 2.85 -10.4 2.8 -10.35 2.75 -10.1 2.65 M-10.6 16.25 L-10.55 16.2 -10.5 16.25 -10.55 16.25 -10.6 16.25" fill="#ffff00" fill-rule="evenodd" stroke="none"/>
    <path d="M15.3 -7.4 L16.25 -4.6 Q16.35 -4.25 16.8 -3.85 18.0 -3.5 19.3 -2.0 L20.0 -1.15 Q21.95 1.7 22.0 5.8 21.95 9.85 20.0 12.7 L19.3 13.6 16.8 15.6 Q16.15 15.9 15.85 17.15 L14.9 19.3 14.85 19.3 14.75 19.5 14.6 19.65 14.05 20.0 13.65 20.15 13.6 20.15 Q12.05 20.15 10.95 15.9 9.85 11.65 9.9 5.65 9.85 -0.4 10.95 -4.6 12.05 -8.9 13.6 -8.9 L13.75 -8.9 13.8 -8.9 Q14.25 -8.85 14.7 -8.25 L15.25 -7.4 15.25 -7.45 15.3 -7.4 M14.5 14.7 L14.7 13.9 14.5 13.05 13.95 12.7 Q13.6 12.7 13.35 13.05 13.1 13.4 13.15 13.9 13.1 14.35 13.35 14.7 13.6 15.05 13.95 15.05 L14.5 14.7 M13.95 -3.3 Q13.6 -3.3 13.35 -2.95 13.1 -2.6 13.15 -2.1 13.1 -1.65 13.35 -1.3 13.6 -0.95 13.95 -0.95 L14.5 -1.3 14.7 -2.1 14.5 -2.95 13.95 -3.3" fill="#cc9933" fill-rule="evenodd" stroke="none"/>
    <path d="M13.95 -3.3 L14.5 -2.95 14.7 -2.1 14.5 -1.3 13.95 -0.95 Q13.6 -0.95 13.35 -1.3 13.1 -1.65 13.15 -2.1 13.1 -2.6 13.35 -2.95 13.6 -3.3 13.95 -3.3 M14.5 14.7 L13.95 15.05 Q13.6 15.05 13.35 14.7 13.1 14.35 13.15 13.9 13.1 13.4 13.35 13.05 13.6 12.7 13.95 12.7 L14.5 13.05 14.7 13.9 14.5 14.7" fill="#000000" fill-rule="evenodd" stroke="none"/>
    <path d="M14.9 19.3 L14.95 19.35 14.95 19.5 14.9 19.55 14.9 19.75 14.85 19.75 14.85 19.95 14.85 20.0 14.85 20.1 14.8 20.1 14.8 20.15 14.8 20.3 14.75 20.35 14.75 20.45 14.7 20.45 14.7 20.5 14.7 20.6 14.65 20.6 14.65 20.65 14.65 20.7 14.6 20.7 14.6 20.8 14.55 20.8 14.55 20.85 14.5 20.85 14.5 20.95 14.5 21.0 14.45 21.0 14.45 21.05 14.45 21.1 14.4 21.1 14.4 21.15 14.35 21.15 14.35 21.2 14.35 21.25 14.3 21.3 14.25 21.35 14.25 21.45 14.2 21.5 14.15 21.5 14.15 21.6 14.1 21.65 14.1 21.7 14.05 21.7 14.0 21.7 14.0 21.8 13.95 21.85 13.9 21.95 Q12.35 23.95 8.55 25.4 9.05 26.2 9.05 27.25 9.0 29.0 7.55 30.25 6.1 31.5 4.05 31.5 2.0 31.5 0.55 30.25 -0.9 29.0 -0.9 27.25 -0.9 26.05 -0.2 25.15 -3.9 23.7 -6.85 20.05 L-7.1 19.65 Q-11.55 13.85 -11.55 5.8 L-11.55 5.75 Q-11.55 -2.35 -7.1 -8.15 L-6.85 -8.55 Q-3.9 -12.25 -0.2 -13.6 -0.9 -14.55 -0.9 -15.75 -0.9 -17.5 0.55 -18.75 2.0 -20.0 4.05 -20.0 6.1 -20.0 7.55 -18.75 9.0 -17.5 9.05 -15.75 9.05 -14.7 8.55 -13.85 11.65 -12.75 13.35 -10.65 L15.15 -8.2 15.3 -7.55 15.3 -7.4 15.25 -7.45 15.25 -7.4 14.7 -8.25 Q14.25 -8.85 13.8 -8.9 L13.75 -8.9 13.6 -8.9 Q12.05 -8.9 10.95 -4.6 9.85 -0.4 9.9 5.65 9.85 11.65 10.95 15.9 12.05 20.15 13.6 20.15 L13.65 20.15 14.05 20.0 14.6 19.65 14.75 19.5 14.85 19.3 14.9 19.3" fill="#003bd4" fill-rule="evenodd" stroke="none"/>
    <path d="M-2.55 -0.45 L-4.05 -0.55 Q-5.5 -0.55 -6.5 0.2 -8.2 1.45 -8.15 5.4 L-8.05 12.55 Q-8.05 12.9 -7.65 12.75 L-7.2 12.6 -5.75 12.0 Q-5.05 11.7 -5.05 11.35 L-4.75 9.15 4.8 6.55 4.8 7.3 4.9 7.4 5.05 7.3 5.15 7.2 5.2 4.85 Q5.15 3.2 4.65 2.35 L3.85 1.65 Q3.05 1.3 2.4 1.85 1.75 2.2 1.7 3.1 1.1 1.0 -1.3 0.0 L-2.55 -0.45 M2.25 5.75 L2.25 5.2 Q2.2 2.6 3.85 3.05 4.8 3.3 4.8 4.9 L4.8 5.55 2.25 5.75 M1.4 5.85 L-4.65 6.45 -4.55 4.65 Q-4.55 3.35 -3.5 2.6 -2.65 2.0 -1.0 2.35 0.4 2.65 1.0 3.55 L1.4 5.5 1.4 5.85 M-10.7 10.4 L-10.7 0.15 -4.4 -6.4 10.1 5.2 -4.55 17.1 -10.7 10.4" fill="#ffcc00" fill-rule="evenodd" stroke="none"/>
    <path d="M-2.55 -0.45 L-1.3 0.0 Q1.1 1.0 1.7 3.1 1.75 2.2 2.4 1.85 3.05 1.3 3.85 1.65 L4.65 2.35 Q5.15 3.2 5.2 4.85 L5.15 7.2 5.05 7.3 4.9 7.4 4.8 7.3 4.8 6.55 -4.75 9.15 -5.05 11.35 Q-5.05 11.7 -5.75 12.0 L-7.2 12.6 -7.65 12.75 Q-8.05 12.9 -8.05 12.55 L-8.15 5.4 Q-8.2 1.45 -6.5 0.2 -5.5 -0.55 -4.05 -0.55 L-2.55 -0.45 M4.8 5.55 L4.8 4.9 Q4.8 3.3 3.85 3.05 2.2 2.6 2.25 5.2 L2.25 5.75 4.8 5.55 4.8 5.5 4.8 5.55 M1.4 5.85 L1.4 5.9 1.45 5.85 1.4 5.85 1.4 5.5 1.0 3.55 Q0.4 2.65 -1.0 2.35 -2.65 2.0 -3.5 2.6 -4.55 3.35 -4.55 4.65 L-4.65 6.45 1.4 5.85 M2.25 5.75 L2.15 5.8 2.25 5.85 2.25 5.75 M-4.65 6.45 L-4.85 6.5 -4.65 6.6 -4.65 6.45" fill="#ff0000" fill-rule="evenodd" stroke="none"/>
    <path d="M-10.7 10.4 L-4.55 17.1 10.1 5.2 -4.4 -6.4 -10.7 0.15 -10.7 10.4 Z" fill="none" stroke="#ff0000" stroke-linecap="round" stroke-linejoin="round" stroke-width="1.0"/>
  </g>
</svg>
