<?xml version="1.0" encoding="UTF-8" standalone="no"?>
<svg xmlns:xlink="http://www.w3.org/1999/xlink" height="38.4px" width="37.8px" xmlns="http://www.w3.org/2000/svg">
  <g transform="matrix(1.0, 0.0, 0.0, 1.0, -49.6, -52.45)">
    <path d="M75.15 68.75 L87.4 68.75 Q86.35 72.1 87.4 74.5 L75.15 74.5 74.55 73.9 73.95 73.9 73.9 73.9 73.65 74.5 73.45 74.5 Q74.15 73.1 74.2 71.45 L73.9 69.4 73.95 69.35 74.55 69.35 75.15 68.75" fill="url(#gradient0)" fill-rule="evenodd" stroke="none"/>
    <path d="M61.25 68.75 L52.75 60.25 Q55.45 58.9 56.8 56.2 L65.3 64.7 65.9 65.3 65.9 65.9 65.95 65.95 66.25 66.2 Q65.0 66.7 64.0 67.75 63.05 68.65 62.6 69.75 L62.6 69.55 62.75 69.1 62.45 68.75 61.25 68.75" fill="url(#gradient1)" fill-rule="evenodd" stroke="none"/>
    <path d="M65.3 64.7 L65.3 52.45 Q68.3 53.25 71.05 52.45 L71.05 64.7 71.05 65.3 70.45 65.9 70.45 66.1 68.0 65.65 65.95 65.95 65.9 65.9 65.9 65.3 65.3 64.7" fill="url(#gradient2)" fill-rule="evenodd" stroke="none"/>
    <path d="M75.15 68.75 L74.55 69.35 73.95 69.35 73.9 69.4 73.6 69.7 Q73.1 68.45 72.1 67.45 71.35 66.65 70.45 66.2 L70.45 66.1 70.45 65.9 71.05 65.3 71.05 64.7 79.55 56.2 Q81.0 59.2 83.65 60.25 L75.15 68.75" fill="url(#gradient3)" fill-rule="evenodd" stroke="none"/>
    <path d="M61.25 74.5 L49.6 74.5 Q51.4 71.4 49.6 68.75 L61.25 68.75 62.45 68.75 62.75 69.1 62.6 69.55 62.6 69.75 Q62.35 70.55 62.35 71.45 62.35 72.75 62.8 73.9 L62.45 73.9 62.35 74.0 61.85 74.5 61.25 74.5" fill="url(#gradient4)" fill-rule="evenodd" stroke="none"/>
    <path d="M73.65 74.5 L73.9 73.9 73.95 73.9 74.55 73.9 75.15 74.5 83.65 83.0 Q80.65 84.7 79.55 87.1 L71.05 78.6 70.45 78.0 70.45 77.6 70.45 77.55 72.4 76.15 73.65 74.5" fill="url(#gradient5)" fill-rule="evenodd" stroke="none"/>
    <path d="M65.3 78.6 L56.8 87.1 Q55.35 84.1 52.75 83.0 L61.25 74.5 61.85 74.5 62.35 74.0 Q62.8 75.0 63.7 75.85 64.7 76.85 65.9 77.35 L65.9 77.75 65.9 78.0 65.3 78.6" fill="url(#gradient6)" fill-rule="evenodd" stroke="none"/>
    <path d="M71.05 78.6 L71.05 90.85 Q68.05 89.9 65.3 90.85 L65.3 78.6 65.9 78.0 65.9 77.75 68.0 78.05 70.45 77.6 70.45 78.0 71.05 78.6" fill="url(#gradient7)" fill-rule="evenodd" stroke="none"/>
  </g>
  <defs>
    <linearGradient gradientTransform="matrix(0.0, 0.0035, -0.0092, 0.0, 79.8, 71.65)" gradientUnits="userSpaceOnUse" id="gradient0" spreadMethod="pad" x1="-819.2" x2="819.2">
      <stop offset="0.0" stop-color="#ff81d7"/>
      <stop offset="0.12941176470588237" stop-color="#ff82d7"/>
      <stop offset="0.5490196078431373" stop-color="#fff0fa"/>
      <stop offset="0.8627450980392157" stop-color="#ffc2eb"/>
      <stop offset="1.0" stop-color="#ffdaf3"/>
    </linearGradient>
    <linearGradient gradientTransform="matrix(0.0025, -0.0025, 0.0065, 0.0065, 60.1, 63.6)" gradientUnits="userSpaceOnUse" id="gradient1" spreadMethod="pad" x1="-819.2" x2="819.2">
      <stop offset="0.0" stop-color="#ff81d7"/>
      <stop offset="0.12941176470588237" stop-color="#ff82d7"/>
      <stop offset="0.5490196078431373" stop-color="#fff0fa"/>
      <stop offset="0.8627450980392157" stop-color="#ffc2eb"/>
      <stop offset="1.0" stop-color="#ffdaf3"/>
    </linearGradient>
    <linearGradient gradientTransform="matrix(0.0035, 0.0, 0.0, 0.0092, 68.15, 60.0)" gradientUnits="userSpaceOnUse" id="gradient2" spreadMethod="pad" x1="-819.2" x2="819.2">
      <stop offset="0.0" stop-color="#ff81d7"/>
      <stop offset="0.12941176470588237" stop-color="#ff82d7"/>
      <stop offset="0.5490196078431373" stop-color="#fff0fa"/>
      <stop offset="0.8627450980392157" stop-color="#ffc2eb"/>
      <stop offset="1.0" stop-color="#ffdaf3"/>
    </linearGradient>
    <linearGradient gradientTransform="matrix(0.0025, 0.0025, -0.0065, 0.0065, 76.25, 63.55)" gradientUnits="userSpaceOnUse" id="gradient3" spreadMethod="pad" x1="-819.2" x2="819.2">
      <stop offset="0.0" stop-color="#ff81d7"/>
      <stop offset="0.12941176470588237" stop-color="#ff82d7"/>
      <stop offset="0.5490196078431373" stop-color="#fff0fa"/>
      <stop offset="0.8627450980392157" stop-color="#ffc2eb"/>
      <stop offset="1.0" stop-color="#ffdaf3"/>
    </linearGradient>
    <linearGradient gradientTransform="matrix(0.0, 0.0035, -0.0092, 0.0, 57.15, 71.65)" gradientUnits="userSpaceOnUse" id="gradient4" spreadMethod="pad" x1="-819.2" x2="819.2">
      <stop offset="0.0" stop-color="#ff81d7"/>
      <stop offset="0.12941176470588237" stop-color="#ff82d7"/>
      <stop offset="0.5490196078431373" stop-color="#fff0fa"/>
      <stop offset="0.8627450980392157" stop-color="#ffc2eb"/>
      <stop offset="1.0" stop-color="#ffdaf3"/>
    </linearGradient>
    <linearGradient gradientTransform="matrix(0.0025, -0.0025, 0.0065, 0.0065, 76.25, 79.7)" gradientUnits="userSpaceOnUse" id="gradient5" spreadMethod="pad" x1="-819.2" x2="819.2">
      <stop offset="0.0" stop-color="#ff81d7"/>
      <stop offset="0.12941176470588237" stop-color="#ff82d7"/>
      <stop offset="0.5490196078431373" stop-color="#fff0fa"/>
      <stop offset="0.8627450980392157" stop-color="#ffc2eb"/>
      <stop offset="1.0" stop-color="#ffdaf3"/>
    </linearGradient>
    <linearGradient gradientTransform="matrix(0.0025, 0.0025, -0.0065, 0.0065, 60.1, 79.7)" gradientUnits="userSpaceOnUse" id="gradient6" spreadMethod="pad" x1="-819.2" x2="819.2">
      <stop offset="0.0" stop-color="#ff81d7"/>
      <stop offset="0.12941176470588237" stop-color="#ff82d7"/>
      <stop offset="0.5490196078431373" stop-color="#fff0fa"/>
      <stop offset="0.8627450980392157" stop-color="#ffc2eb"/>
      <stop offset="1.0" stop-color="#ffdaf3"/>
    </linearGradient>
    <linearGradient gradientTransform="matrix(0.0035, 0.0, 0.0, 0.0092, 68.15, 83.3)" gradientUnits="userSpaceOnUse" id="gradient7" spreadMethod="pad" x1="-819.2" x2="819.2">
      <stop offset="0.0" stop-color="#ff81d7"/>
      <stop offset="0.12941176470588237" stop-color="#ff82d7"/>
      <stop offset="0.5490196078431373" stop-color="#fff0fa"/>
      <stop offset="0.8627450980392157" stop-color="#ffc2eb"/>
      <stop offset="1.0" stop-color="#ffdaf3"/>
    </linearGradient>
  </defs>
</svg>
