<?xml version="1.0" encoding="UTF-8" standalone="no"?>
<svg xmlns:xlink="http://www.w3.org/1999/xlink" height="80.4px" width="80.4px" xmlns="http://www.w3.org/2000/svg">
  <g transform="matrix(1.0, 0.0, 0.0, 1.0, 0.4, 0.3)">
    <path d="M50.8 1.65 Q45.6 0.2 39.8 0.2 23.35 0.2 11.7 11.8 0.1 23.45 0.1 39.9 0.1 56.35 11.7 67.95 23.35 79.6 39.8 79.6 56.25 79.6 67.85 67.95 79.5 56.35 79.5 39.9 79.5 23.45 67.85 11.8 65.45 9.4 62.8 7.5 L63.9 8.0 Q66.0 9.65 68.0 11.65 73.65 17.35 76.6 24.2 79.65 31.4 79.65 39.85 79.65 49.75 75.45 57.9 72.65 63.3 68.0 68.0 56.3 79.65 39.85 79.65 23.3 79.65 11.65 68.0 L10.55 66.8 Q6.65 62.65 4.2 57.9 0.0 49.75 0.0 39.85 0.0 31.4 3.05 24.2 5.95 17.35 11.65 11.65 23.3 0.0 39.85 0.0 L45.25 0.35 49.9 1.2 50.8 1.65" fill="url(#gradient0)" fill-rule="evenodd" stroke="none"/>
    <path d="M62.8 7.5 Q65.45 9.4 67.85 11.8 79.5 23.45 79.5 39.9 79.5 56.35 67.85 67.95 56.25 79.6 39.8 79.6 23.35 79.6 11.7 67.95 0.1 56.35 0.1 39.9 0.1 23.45 11.7 11.8 23.35 0.2 39.8 0.2 45.6 0.2 50.8 1.65 L62.8 7.5" fill="url(#gradient1)" fill-rule="evenodd" stroke="none"/>
    <path d="M62.8 7.5 Q65.45 9.4 67.85 11.8 79.5 23.45 79.5 39.9 79.5 56.35 67.85 67.95 56.25 79.6 39.8 79.6 23.35 79.6 11.7 67.95 0.1 56.35 0.1 39.9 0.1 23.45 11.7 11.8 23.35 0.2 39.8 0.2 45.6 0.2 50.8 1.65 57.25 3.45 62.8 7.5 Z" fill="none" stroke="#ffb8e8" stroke-linecap="round" stroke-linejoin="round" stroke-width="1.0"/>
  </g>
  <defs>
    <radialGradient cx="0" cy="0" gradientTransform="matrix(0.0496, 0.0, 0.0, 0.0496, 39.85, 39.85)" gradientUnits="userSpaceOnUse" id="gradient0" r="819.2" spreadMethod="pad">
      <stop offset="0.0" stop-color="#ff81d7"/>
      <stop offset="1.0" stop-color="#ffffff"/>
    </radialGradient>
    <radialGradient cx="0" cy="0" gradientTransform="matrix(0.0757, 0.0, 0.0, 0.0757, 26.25, 57.1)" gradientUnits="userSpaceOnUse" id="gradient1" r="819.2" spreadMethod="pad">
      <stop offset="0.0" stop-color="#ff81d7"/>
      <stop offset="1.0" stop-color="#ffffff"/>
    </radialGradient>
  </defs>
</svg>
