<?xml version="1.0" encoding="UTF-8" standalone="no"?>
<svg xmlns:xlink="http://www.w3.org/1999/xlink" height="205.4px" width="249.55px" xmlns="http://www.w3.org/2000/svg">
  <g transform="matrix(1.0, 0.0, 0.0, 1.0, 89.2, 95.1)">
    <path d="M99.4 -93.15 Q100.6 -92.65 101.05 -91.65 L101.05 -89.65 100.95 -87.9 Q100.7 -87.2 100.15 -86.95 L96.65 -86.95 93.95 -86.65 93.55 -86.55 Q93.3 -86.45 93.45 -86.35 L94.1 -86.2 95.25 -86.05 97.25 -85.6 Q98.65 -85.05 99.2 -84.0 99.55 -83.0 99.9 -79.55 99.45 -78.55 98.0 -78.5 96.6 -78.5 96.35 -78.15 L96.7 -77.9 98.35 -77.85 100.0 -77.85 Q102.1 -76.75 102.1 -73.3 L101.75 -71.15 Q101.55 -69.9 100.55 -69.3 L93.35 -69.25 86.1 -69.55 Q85.3 -70.1 85.1 -71.15 L84.95 -72.65 Q84.8 -73.85 84.8 -75.25 L84.95 -79.05 85.05 -82.75 84.95 -85.75 85.15 -88.75 85.4 -91.7 Q85.65 -92.6 86.4 -92.7 L87.8 -92.85 Q92.75 -94.0 97.25 -93.75 L99.4 -93.15 M92.05 -88.9 L95.6 -89.05 98.9 -89.0 99.0 -89.7 98.9 -90.7 98.2 -91.05 97.05 -91.4 95.35 -91.5 91.35 -91.1 87.6 -90.35 87.45 -90.2 Q86.85 -86.05 87.05 -83.5 L87.05 -82.0 86.9 -78.9 86.8 -75.6 86.85 -74.1 86.9 -72.85 Q87.0 -72.15 87.25 -71.95 L92.75 -71.5 93.25 -71.5 96.85 -71.35 98.1 -71.45 99.45 -71.35 Q100.05 -71.9 100.05 -74.45 100.15 -75.05 99.8 -75.2 L98.65 -75.35 97.45 -75.5 96.0 -75.6 Q94.7 -75.55 94.35 -76.5 L94.35 -79.9 94.9 -80.6 97.7 -80.8 97.8 -80.85 Q97.95 -82.0 97.3 -82.95 95.5 -83.95 93.75 -83.95 L92.4 -83.8 Q91.6 -84.0 91.5 -84.75 L91.3 -85.6 91.3 -87.2 Q91.4 -88.25 92.05 -88.9" fill="url(#gradient0)" fill-rule="evenodd" stroke="none"/>
    <path d="M92.05 -88.9 Q91.4 -88.25 91.3 -87.2 L91.3 -85.6 91.5 -84.75 Q91.6 -84.0 92.4 -83.8 L93.75 -83.95 Q95.5 -83.95 97.3 -82.95 97.95 -82.0 97.8 -80.85 L97.7 -80.8 94.9 -80.6 94.35 -79.9 94.35 -76.5 Q94.7 -75.55 96.0 -75.6 L97.45 -75.5 98.65 -75.35 99.8 -75.2 Q100.15 -75.05 100.05 -74.45 100.05 -71.9 99.45 -71.35 L98.1 -71.45 96.85 -71.35 93.25 -71.5 92.75 -71.5 87.25 -71.95 Q87.0 -72.15 86.9 -72.85 L86.85 -74.1 86.8 -75.6 86.9 -78.9 87.05 -82.0 87.05 -83.5 Q86.85 -86.05 87.45 -90.2 L87.6 -90.35 91.35 -91.1 95.35 -91.5 97.05 -91.4 98.2 -91.05 98.9 -90.7 99.0 -89.7 98.9 -89.0 95.6 -89.05 92.05 -88.9" fill="url(#gradient1)" fill-rule="evenodd" stroke="none"/>
    <path d="M79.5 -72.4 L79.6 -74.9 79.75 -77.65 79.4 -84.35 Q79.15 -88.35 79.25 -90.9 L79.05 -91.1 76.95 -91.85 76.05 -91.85 Q75.3 -90.5 74.95 -88.9 L74.75 -87.9 Q74.65 -87.1 73.8 -87.0 72.95 -87.2 72.4 -87.85 71.95 -88.1 70.45 -89.7 69.5 -90.8 68.65 -90.8 L68.15 -90.7 61.95 -90.05 60.4 -90.0 59.3 -89.65 Q58.9 -87.9 58.85 -85.55 L58.85 -80.25 58.85 -74.15 59.05 -72.45 Q59.1 -71.45 59.3 -71.15 L62.1 -70.9 64.9 -70.75 64.95 -70.85 Q65.0 -73.25 65.5 -74.9 65.75 -75.55 66.75 -75.65 67.8 -75.35 69.6 -73.7 70.4 -72.6 70.8 -72.65 71.5 -72.1 71.8 -72.1 L74.15 -74.3 Q74.85 -75.25 76.1 -74.85 76.95 -74.05 79.3 -72.45 L79.5 -72.3 79.5 -72.4 M73.05 -90.0 L73.05 -90.35 73.25 -91.5 73.75 -92.75 Q74.0 -93.55 74.75 -93.85 L77.9 -93.35 80.45 -92.6 Q81.25 -92.15 81.35 -91.15 L81.5 -89.7 Q81.3 -87.25 81.7 -85.15 81.7 -81.2 82.05 -77.65 L81.85 -74.3 Q81.7 -72.45 81.9 -70.9 81.5 -70.2 81.05 -70.2 79.65 -70.15 78.15 -71.15 L76.0 -72.6 74.9 -72.45 73.15 -70.15 72.25 -70.0 Q71.05 -70.0 69.5 -71.55 L67.6 -73.0 67.5 -73.05 67.45 -73.0 67.45 -69.75 66.8 -69.2 58.2 -69.1 57.05 -69.95 56.85 -71.7 56.7 -74.7 Q56.65 -76.5 56.9 -77.7 L56.7 -81.95 56.85 -86.65 56.95 -91.4 Q57.6 -91.95 58.55 -91.95 L59.75 -91.95 68.3 -92.8 70.65 -92.3 Q71.95 -90.75 72.9 -90.1 L73.05 -90.0" fill="url(#gradient2)" fill-rule="evenodd" stroke="none"/>
    <path d="M79.3 -72.45 Q76.95 -74.05 76.1 -74.85 74.85 -75.25 74.15 -74.3 L71.8 -72.1 Q71.5 -72.1 70.8 -72.65 70.4 -72.6 69.6 -73.7 67.8 -75.35 66.75 -75.65 65.75 -75.55 65.5 -74.9 65.0 -73.25 64.95 -70.85 L64.9 -70.75 62.1 -70.9 59.3 -71.15 Q59.1 -71.45 59.05 -72.45 L58.85 -74.15 58.85 -80.25 58.85 -85.55 Q58.9 -87.9 59.3 -89.65 L60.4 -90.0 61.95 -90.05 68.15 -90.7 68.65 -90.8 Q69.5 -90.8 70.45 -89.7 71.95 -88.1 72.4 -87.85 72.95 -87.2 73.8 -87.0 74.65 -87.1 74.75 -87.9 L74.95 -88.9 Q75.3 -90.5 76.05 -91.85 L76.95 -91.85 79.05 -91.1 79.25 -90.9 Q79.15 -88.35 79.4 -84.35 L79.75 -77.65 79.6 -74.9 79.5 -72.4 79.3 -72.45" fill="url(#gradient3)" fill-rule="evenodd" stroke="none"/>
    <path d="M51.45 -89.85 L51.95 -88.1 51.8 -80.35 51.6 -73.7 Q51.5 -73.4 50.9 -73.35 L49.55 -73.2 48.15 -73.0 47.0 -72.9 46.95 -72.9 47.05 -77.5 Q46.9 -78.35 45.9 -78.8 L43.8 -78.7 41.7 -78.55 Q40.9 -77.7 41.25 -75.9 L41.7 -73.3 41.55 -73.2 40.85 -73.2 39.25 -73.3 37.7 -73.45 36.7 -73.35 36.15 -73.45 35.8 -73.5 Q35.65 -77.7 35.25 -78.75 35.45 -80.0 34.75 -81.6 L34.9 -82.45 34.6 -84.4 34.45 -86.35 Q34.05 -87.4 34.15 -88.15 35.35 -88.9 37.55 -89.35 L41.6 -89.9 45.0 -90.15 48.25 -90.05 51.45 -89.85 M45.1 -87.05 L40.9 -87.45 Q40.35 -87.05 40.3 -86.65 40.5 -84.15 41.15 -83.2 L41.25 -83.1 40.65 -82.55 Q40.45 -81.25 41.25 -80.95 L45.05 -80.25 Q45.65 -80.7 45.7 -81.05 L45.9 -86.3 45.1 -87.05" fill="url(#gradient4)" fill-rule="evenodd" stroke="none"/>
    <path d="M51.45 -89.85 L48.25 -90.05 45.0 -90.15 41.6 -89.9 37.55 -89.35 Q35.35 -88.9 34.15 -88.15 34.05 -87.4 34.45 -86.35 L34.6 -84.4 34.9 -82.45 34.75 -81.6 Q35.45 -80.0 35.25 -78.75 35.65 -77.7 35.8 -73.5 L36.15 -73.45 36.7 -73.35 37.7 -73.45 39.25 -73.3 40.85 -73.2 41.55 -73.2 41.7 -73.3 41.25 -75.9 Q40.9 -77.7 41.7 -78.55 L43.8 -78.7 45.9 -78.8 Q46.9 -78.35 47.05 -77.5 L46.95 -72.9 47.0 -72.9 48.15 -73.0 49.55 -73.2 50.9 -73.35 Q51.5 -73.4 51.6 -73.7 L51.8 -80.35 51.95 -88.1 51.45 -89.85 M52.55 -91.95 Q53.45 -91.25 53.6 -89.95 L53.8 -87.8 53.35 -73.9 53.15 -72.4 Q52.9 -71.65 52.2 -71.2 L46.0 -70.75 Q45.55 -70.7 45.1 -71.5 44.8 -73.2 45.0 -76.35 L44.45 -76.45 43.3 -76.25 Q43.15 -76.15 43.25 -75.6 42.85 -73.35 43.25 -73.15 43.65 -71.85 42.7 -71.15 L41.4 -71.0 39.65 -71.15 37.95 -71.3 35.9 -71.3 34.55 -70.75 34.45 -74.45 Q34.55 -76.3 34.05 -77.4 34.15 -78.8 33.85 -80.7 33.25 -83.5 33.25 -84.6 L32.85 -86.7 32.5 -88.85 Q32.5 -89.75 33.75 -90.55 L36.0 -91.2 47.55 -92.2 51.5 -92.0 52.55 -91.95" fill="url(#gradient5)" fill-rule="evenodd" stroke="none"/>
    <path d="M50.45 -1.15 L47.05 -0.9 43.0 -0.35 Q40.8 0.1 39.6 0.85 39.5 1.6 39.9 2.65 L40.05 4.6 40.35 6.55 40.2 7.4 Q40.9 9.0 40.7 10.25 41.1 11.3 41.25 15.5 L41.6 15.55 42.15 15.65 43.15 15.55 44.7 15.7 46.3 15.8 47.0 15.8 47.15 15.7 46.7 13.1 Q46.35 11.3 47.15 10.45 L49.25 10.3 51.35 10.2 Q52.35 10.65 52.5 11.5 L52.4 16.1 52.45 16.1 53.6 16.0 55.0 15.8 56.35 15.65 Q56.95 15.6 57.05 15.3 L57.25 8.65 57.4 0.9 56.9 -0.85 53.7 -1.05 50.45 -1.15 M56.95 -3.0 L58.0 -2.95 Q58.9 -2.25 59.05 -0.95 L59.25 1.2 58.8 15.1 58.6 16.6 57.65 17.8 51.45 18.25 50.55 17.5 Q50.25 15.8 50.45 12.65 L49.9 12.55 48.75 12.75 Q48.6 12.85 48.7 13.4 48.3 15.65 48.7 15.85 49.1 17.15 48.15 17.85 L46.85 18.0 45.1 17.85 43.4 17.7 41.35 17.7 40.0 18.25 39.9 14.55 Q40.0 12.7 39.5 11.6 39.6 10.2 39.3 8.3 38.7 5.5 38.7 4.4 L38.3 2.3 37.95 0.15 Q37.95 -0.75 39.2 -1.55 L41.45 -2.2 53.0 -3.2 56.95 -3.0" fill="url(#gradient6)" fill-rule="evenodd" stroke="none"/>
    <path d="M84.95 16.6 L85.05 14.1 85.2 11.35 84.85 4.65 Q84.6 0.65 84.7 -1.9 L84.5 -2.1 82.4 -2.85 81.5 -2.85 Q80.75 -1.5 80.4 0.1 L80.2 1.1 Q80.1 1.9 79.25 2.0 78.4 1.8 77.85 1.15 L75.9 -0.7 Q74.95 -1.8 74.1 -1.8 L73.6 -1.7 67.4 -1.05 65.85 -1.0 64.75 -0.65 Q64.35 1.1 64.3 3.45 L64.3 8.75 64.3 14.85 64.5 16.55 Q64.55 17.55 64.75 17.85 L67.55 18.1 70.35 18.25 70.4 18.15 Q70.45 15.75 70.95 14.1 71.2 13.45 72.2 13.35 73.25 13.65 75.05 15.3 75.85 16.4 76.25 16.35 L77.25 16.9 79.6 14.7 Q80.3 13.75 81.55 14.15 L84.75 16.55 84.95 16.7 84.95 16.6 M64.0 -2.95 L65.2 -2.95 73.75 -3.8 76.1 -3.3 Q77.4 -1.75 78.35 -1.1 L78.5 -1.0 78.5 -1.35 78.7 -2.5 79.2 -3.75 Q79.45 -4.55 80.2 -4.85 L83.35 -4.35 85.9 -3.6 Q86.7 -3.15 86.8 -2.15 L86.95 -0.7 Q86.75 1.75 87.15 3.85 87.15 7.8 87.5 11.35 L87.3 14.7 Q87.15 16.55 87.35 18.1 L86.5 18.8 Q85.1 18.85 83.6 17.85 L81.45 16.4 80.35 16.55 78.6 18.85 77.7 19.0 Q76.5 19.0 74.95 17.45 L73.05 16.0 72.95 15.95 72.9 16.0 72.9 19.25 72.25 19.8 Q69.25 19.7 63.65 19.9 L62.5 19.05 62.3 17.3 62.15 14.3 Q62.1 12.5 62.35 11.3 L62.15 7.05 62.3 2.35 62.4 -2.4 Q63.05 -2.95 64.0 -2.95" fill="url(#gradient7)" fill-rule="evenodd" stroke="none"/>
    <path d="M84.75 16.55 L81.55 14.15 Q80.3 13.75 79.6 14.7 L77.25 16.9 76.25 16.35 Q75.85 16.4 75.05 15.3 73.25 13.65 72.2 13.35 71.2 13.45 70.95 14.1 70.45 15.75 70.4 18.15 L70.35 18.25 67.55 18.1 64.75 17.85 Q64.55 17.55 64.5 16.55 L64.3 14.85 64.3 8.75 64.3 3.45 Q64.35 1.1 64.75 -0.65 L65.85 -1.0 67.4 -1.05 73.6 -1.7 74.1 -1.8 Q74.95 -1.8 75.9 -0.7 L77.85 1.15 Q78.4 1.8 79.25 2.0 80.1 1.9 80.2 1.1 L80.4 0.1 Q80.75 -1.5 81.5 -2.85 L82.4 -2.85 84.5 -2.1 84.7 -1.9 Q84.6 0.65 84.85 4.65 L85.2 11.35 85.05 14.1 84.95 16.6 84.75 16.55" fill="url(#gradient8)" fill-rule="evenodd" stroke="none"/>
    <path d="M93.05 -1.35 L96.8 -2.1 100.8 -2.5 102.5 -2.4 103.65 -2.05 104.35 -1.7 104.45 -0.7 104.35 0.0 101.05 -0.05 97.5 0.1 Q96.85 0.75 96.75 1.8 L96.75 3.4 96.95 4.25 Q97.05 5.0 97.85 5.2 L99.2 5.05 Q100.95 5.05 102.75 6.05 103.4 7.0 103.25 8.15 L103.15 8.2 100.35 8.4 99.8 9.1 99.8 12.5 Q100.15 13.45 101.45 13.4 L102.9 13.5 104.1 13.65 105.25 13.8 Q105.6 13.95 105.5 14.55 105.5 17.1 104.9 17.65 L103.55 17.55 102.3 17.65 98.7 17.5 98.2 17.5 92.7 17.05 Q92.45 16.85 92.35 16.15 L92.3 14.9 92.25 13.4 92.35 10.1 92.5 7.0 92.5 5.5 Q92.3 2.95 92.9 -1.2 L93.05 -1.35" fill="url(#gradient9)" fill-rule="evenodd" stroke="none"/>
    <path d="M93.25 -3.85 Q98.2 -5.0 102.7 -4.75 L104.85 -4.15 Q106.05 -3.65 106.5 -2.65 L106.5 -0.65 106.4 1.1 105.6 2.05 102.1 2.05 99.4 2.35 99.0 2.45 98.9 2.65 99.55 2.8 100.7 2.95 102.7 3.4 Q104.1 3.95 104.65 5.0 105.0 6.0 105.35 9.45 104.9 10.45 103.45 10.5 102.05 10.5 101.8 10.85 101.7 11.0 102.15 11.1 L103.8 11.15 105.45 11.15 Q107.55 12.25 107.55 15.7 L107.2 17.85 Q107.0 19.1 106.0 19.7 L98.8 19.75 91.55 19.45 Q90.75 18.9 90.55 17.85 L90.4 16.35 Q90.25 15.15 90.25 13.75 L90.4 9.95 90.5 6.25 90.4 3.25 90.6 0.25 90.85 -2.7 Q91.1 -3.6 91.85 -3.7 L93.25 -3.85 M93.05 -1.35 L92.9 -1.2 Q92.3 2.95 92.5 5.5 L92.5 7.0 92.35 10.1 92.25 13.4 92.3 14.9 92.35 16.15 Q92.45 16.85 92.7 17.05 L98.2 17.5 98.7 17.5 102.3 17.65 103.55 17.55 104.9 17.65 Q105.5 17.1 105.5 14.55 105.6 13.95 105.25 13.8 L104.1 13.65 102.9 13.5 101.45 13.4 Q100.15 13.45 99.8 12.5 L99.8 9.1 100.35 8.4 103.15 8.2 103.25 8.15 Q103.4 7.0 102.75 6.05 100.95 5.05 99.2 5.05 L97.85 5.2 Q97.05 5.0 96.95 4.25 L96.75 3.4 96.75 1.8 Q96.85 0.75 97.5 0.1 L101.05 -0.05 104.35 0.0 104.45 -0.7 104.35 -1.7 103.65 -2.05 102.5 -2.4 100.8 -2.5 96.8 -2.1 93.05 -1.35" fill="url(#gradient10)" fill-rule="evenodd" stroke="none"/>
    <path d="M119.75 -6.1 L122.1 -6.3 124.7 -5.85 Q125.5 -5.55 125.8 -4.65 L125.6 -3.45 125.8 -1.85 126.05 -0.2 125.8 1.1 Q125.55 1.95 124.9 2.15 L122.95 2.15 122.95 2.9 124.2 3.5 Q125.25 3.8 125.7 4.6 126.45 6.1 127.0 8.25 L127.85 12.15 128.2 14.5 128.45 16.95 Q128.45 18.7 127.6 20.0 126.2 20.9 124.0 21.15 L120.4 21.15 118.55 21.3 112.5 20.55 111.5 20.1 Q110.95 19.85 110.8 19.15 110.15 16.3 110.15 13.4 110.15 11.95 110.3 10.55 L111.0 9.4 113.55 9.75 115.7 10.2 115.7 10.0 Q115.55 9.55 114.7 9.35 L113.25 8.95 Q110.7 8.5 110.0 6.8 L109.8 5.5 110.05 3.85 110.25 2.15 Q110.45 -0.4 111.2 -5.45 L111.8 -5.9 115.55 -6.1 117.3 -5.9 119.75 -6.1 M116.15 -4.0 L114.45 -3.85 113.25 -3.65 Q112.75 -2.05 112.45 1.05 L112.0 6.0 112.15 6.3 114.0 7.05 Q115.8 7.45 116.55 7.9 117.6 8.5 117.75 10.1 L117.6 11.5 Q117.5 12.25 116.75 12.75 L114.25 12.1 113.35 12.0 112.7 11.8 112.65 11.8 Q112.3 12.9 112.3 14.45 112.3 15.6 112.65 18.25 112.85 18.55 113.7 18.65 L115.35 18.95 118.0 19.05 120.8 19.2 125.25 18.6 Q126.0 18.35 126.15 17.65 L126.35 16.0 Q126.05 11.35 124.4 5.9 124.25 5.6 123.6 5.5 L122.1 5.0 Q121.05 4.45 120.8 3.0 L120.5 0.5 Q121.05 -0.1 121.7 -0.1 L122.45 -0.05 123.1 0.05 123.45 0.0 123.7 -0.55 123.8 -1.7 123.65 -3.05 123.3 -4.1 Q122.5 -3.95 120.75 -4.1 L116.15 -4.0" fill="url(#gradient11)" fill-rule="evenodd" stroke="none"/>
    <path d="M116.15 -4.0 L120.75 -4.1 Q122.5 -3.95 123.3 -4.1 L123.65 -3.05 123.8 -1.7 123.7 -0.55 123.45 0.0 123.1 0.05 122.45 -0.05 121.7 -0.1 Q121.05 -0.1 120.5 0.5 L120.8 3.0 Q121.05 4.45 122.1 5.0 L123.6 5.5 Q124.25 5.6 124.4 5.9 126.05 11.35 126.35 16.0 L126.15 17.65 Q126.0 18.35 125.25 18.6 L120.8 19.2 118.0 19.05 115.35 18.95 113.7 18.65 Q112.85 18.55 112.65 18.25 112.3 15.6 112.3 14.45 112.3 12.9 112.65 11.8 L112.7 11.8 113.35 12.0 114.25 12.1 116.75 12.75 Q117.5 12.25 117.6 11.5 L117.75 10.1 Q117.6 8.5 116.55 7.9 115.8 7.45 114.0 7.05 L112.15 6.3 112.0 6.0 112.45 1.05 Q112.75 -2.05 113.25 -3.65 L114.45 -3.85 116.15 -4.0" fill="url(#gradient12)" fill-rule="evenodd" stroke="none"/>
    <path d="M128.9 85.5 Q129.7 86.7 129.9 88.65 L130.15 92.05 130.45 94.0 131.05 95.75 131.3 95.95 140.55 96.05 Q141.1 96.4 141.25 97.45 141.05 103.55 140.6 106.6 140.55 107.25 139.65 107.45 134.05 107.25 125.9 107.75 L122.85 107.9 Q122.05 107.75 121.9 106.85 L122.0 102.35 122.1 98.05 122.0 95.5 121.9 92.95 122.3 89.55 122.55 86.25 Q122.7 85.45 123.35 85.35 L124.55 85.25 125.75 85.15 127.05 85.1 Q128.05 85.1 128.9 85.5 M127.55 87.8 L126.6 87.75 125.6 87.7 Q124.7 87.7 124.35 88.05 123.5 92.25 123.65 95.1 124.0 101.25 123.65 105.05 L123.85 105.1 124.3 105.15 Q125.7 105.0 128.8 105.1 L133.0 104.95 136.15 104.85 138.9 104.9 139.05 104.8 139.35 101.9 Q140.0 98.8 139.55 98.8 L139.3 98.75 Q136.4 98.55 130.5 98.6 L129.8 98.1 Q128.85 96.15 128.45 93.2 L127.9 88.1 127.55 87.8" fill="url(#gradient13)" fill-rule="evenodd" stroke="none"/>
    <path d="M148.7 85.35 Q151.6 85.35 154.6 87.1 158.3 89.2 159.9 93.5 160.35 94.75 160.35 96.45 160.35 98.75 159.25 102.35 158.7 104.25 157.5 105.45 156.1 106.85 154.45 106.95 L144.35 107.55 Q143.75 107.3 143.6 106.75 L143.3 100.5 143.05 94.2 Q143.05 89.65 143.85 86.3 144.2 85.35 145.2 85.35 L146.0 85.45 146.9 85.6 147.25 85.5 148.7 85.35 M145.45 88.35 Q145.1 90.35 145.1 92.95 L145.25 97.05 145.3 101.25 145.45 103.5 145.65 105.25 150.05 105.5 Q153.95 105.15 155.8 103.9 156.95 103.1 157.5 101.25 L158.3 98.15 158.5 96.55 Q158.5 93.8 156.55 91.45 153.5 87.7 146.8 87.6 L145.75 87.85 Q145.45 88.0 145.45 88.35" fill="url(#gradient14)" fill-rule="evenodd" stroke="none"/>
    <path d="M145.45 88.35 Q145.45 88.0 145.75 87.85 L146.8 87.6 Q153.5 87.7 156.55 91.45 158.5 93.8 158.5 96.55 L158.3 98.15 157.5 101.25 Q156.95 103.1 155.8 103.9 153.95 105.15 150.05 105.5 L145.65 105.25 145.45 103.5 145.3 101.25 145.25 97.05 145.1 92.95 Q145.1 90.35 145.45 88.35 M149.05 93.05 L148.4 93.9 148.25 97.4 147.95 100.65 Q147.65 102.65 148.45 103.35 L151.75 102.75 152.0 101.55 151.9 100.45 151.75 99.6 151.7 97.05 Q151.65 95.1 151.1 94.05 150.0 92.9 149.05 93.05" fill="url(#gradient15)" fill-rule="evenodd" stroke="none"/>
    <path d="M150.15 97.25 L149.8 97.25 149.9 99.15 149.85 100.75 149.85 100.85 149.95 100.9 150.05 98.9 150.15 97.25 M149.05 93.05 Q150.0 92.9 151.1 94.05 151.65 95.1 151.7 97.05 L151.75 99.6 151.9 100.45 152.0 101.55 151.75 102.75 148.45 103.35 Q147.65 102.65 147.95 100.65 L148.25 97.4 148.4 93.9 149.05 93.05" fill="url(#gradient16)" fill-rule="evenodd" stroke="none"/>
    <path d="M50.45 -1.15 L53.7 -1.05 56.9 -0.85 57.4 0.9 57.25 8.65 57.05 15.3 Q56.95 15.6 56.35 15.65 L55.0 15.8 53.6 16.0 52.45 16.1 52.4 16.1 52.5 11.5 Q52.35 10.65 51.35 10.2 L49.25 10.3 47.15 10.45 Q46.35 11.3 46.7 13.1 L47.15 15.7 47.0 15.8 46.3 15.8 44.7 15.7 43.15 15.55 42.15 15.65 41.6 15.55 41.25 15.5 Q41.1 11.3 40.7 10.25 40.9 9.0 40.2 7.4 L40.35 6.55 40.05 4.6 39.9 2.65 Q39.5 1.6 39.6 0.85 40.8 0.1 43.0 -0.35 L47.05 -0.9 50.45 -1.15 M51.15 7.95 L51.35 2.7 50.55 1.95 46.35 1.55 Q45.8 1.95 45.75 2.35 45.95 4.85 46.6 5.8 L46.7 5.9 46.1 6.45 Q45.9 7.75 46.7 8.05 L50.5 8.75 51.15 7.95" fill="url(#gradient17)" fill-rule="evenodd" stroke="none"/>
    <path d="M51.15 7.95 L50.5 8.75 46.7 8.05 Q45.9 7.75 46.1 6.45 L46.7 5.9 46.6 5.8 Q45.95 4.85 45.75 2.35 45.8 1.95 46.35 1.55 L50.55 1.95 51.35 2.7 51.15 7.95 M49.45 4.2 L47.9 4.1 Q47.9 4.5 49.05 6.15 49.4 6.45 49.65 6.35 L49.65 4.4 49.45 4.2" fill="url(#gradient18)" fill-rule="evenodd" stroke="none"/>
    <path d="M39.65 89.1 L39.9 89.95 40.85 92.6 41.75 95.3 44.75 101.7 Q47.0 106.05 48.1 106.45 L50.95 106.6 53.8 106.6 54.0 106.5 55.65 102.45 Q56.7 99.8 57.35 99.8 58.0 99.75 59.1 102.1 L60.85 106.0 61.7 106.45 64.6 106.6 67.4 106.6 67.65 106.5 Q68.55 104.5 69.5 100.9 L71.15 95.25 71.9 92.0 72.6 88.75 Q73.05 87.5 72.9 87.3 L69.25 86.5 68.95 87.3 67.95 90.55 Q67.45 94.0 66.55 95.9 L65.9 97.7 Q64.4 97.85 63.85 96.6 L63.15 94.95 61.25 87.5 61.1 87.1 60.9 87.05 55.65 86.5 55.3 87.3 54.35 90.55 Q53.85 94.0 52.95 95.9 L52.3 97.7 Q50.75 97.85 50.2 96.15 L49.5 94.95 47.65 87.55 47.45 87.05 47.4 87.0 41.9 88.4 39.65 88.95 39.6 88.95 39.65 89.1 M38.35 86.7 L39.8 86.6 Q43.6 85.4 47.35 84.8 47.9 84.8 49.15 85.55 L49.95 87.85 50.45 90.25 Q50.8 90.75 51.0 92.05 L51.2 93.0 51.3 93.65 51.6 92.85 51.9 90.6 53.6 84.8 54.25 84.4 60.9 84.8 60.95 84.8 Q61.55 84.8 62.8 85.5 L63.5 87.85 64.1 90.25 64.6 92.05 64.95 93.65 65.2 92.3 65.5 90.6 67.2 84.8 67.9 84.4 71.65 85.0 73.35 85.45 Q74.5 85.7 75.15 86.1 75.55 86.5 75.55 86.95 L75.3 87.75 75.05 88.5 74.05 93.75 Q73.5 94.7 73.0 96.75 L72.15 99.7 71.3 103.35 70.95 104.45 70.5 105.6 70.05 107.05 Q69.6 108.0 68.7 108.3 63.15 108.45 61.55 108.2 60.8 108.4 59.75 107.8 58.85 106.55 57.7 103.35 57.45 103.65 57.3 104.45 L56.9 105.6 56.4 107.0 Q55.95 108.0 55.05 108.3 49.6 108.45 47.95 108.2 47.15 108.4 46.15 107.8 L44.15 104.45 42.6 101.35 Q42.15 100.7 41.45 99.1 L40.2 96.8 36.9 87.85 Q37.2 86.85 38.35 86.7" fill="url(#gradient19)" fill-rule="evenodd" stroke="none"/>
    <path d="M39.65 88.95 L41.9 88.4 47.4 87.0 47.45 87.05 47.65 87.55 49.5 94.95 50.2 96.15 Q50.75 97.85 52.3 97.7 L52.95 95.9 Q53.85 94.0 54.35 90.55 L55.3 87.3 55.65 86.5 60.9 87.05 61.1 87.1 61.25 87.5 63.15 94.95 63.85 96.6 Q64.4 97.85 65.9 97.7 L66.55 95.9 Q67.45 94.0 67.95 90.55 L68.95 87.3 69.25 86.5 72.9 87.3 Q73.05 87.5 72.6 88.75 L71.9 92.0 71.15 95.25 69.5 100.9 Q68.55 104.5 67.65 106.5 L67.4 106.6 64.6 106.6 61.7 106.45 60.85 106.0 59.1 102.1 Q58.0 99.75 57.35 99.8 56.7 99.8 55.65 102.45 L54.0 106.5 53.8 106.6 50.95 106.6 48.1 106.45 Q47.0 106.05 44.75 101.7 L41.75 95.3 40.85 92.6 39.9 89.95 39.65 89.1 39.65 88.95" fill="url(#gradient20)" fill-rule="evenodd" stroke="none"/>
    <path d="M86.7 86.2 Q79.85 86.2 79.85 88.25 L79.85 88.75 79.85 89.2 Q79.85 89.85 78.95 90.5 79.3 90.6 79.65 97.15 79.6 101.85 80.05 104.65 80.5 105.2 81.5 105.55 L83.5 106.0 86.25 106.5 88.6 106.8 90.15 105.15 Q91.05 103.4 91.55 100.55 L92.25 95.55 92.7 90.7 92.45 87.8 91.9 87.4 91.15 87.0 88.6 86.35 86.7 86.2 M85.35 84.2 L88.4 84.25 90.95 84.9 Q92.6 85.35 93.55 86.15 94.4 87.45 94.4 89.75 L94.35 91.1 94.3 93.0 93.95 95.95 Q93.55 97.85 93.5 98.8 L92.45 104.15 Q91.55 107.15 89.25 108.8 L85.3 108.35 81.8 107.65 Q79.75 107.05 78.65 105.65 78.1 101.85 78.05 91.4 L78.25 89.3 78.4 87.3 78.4 85.95 Q79.75 84.85 81.8 84.6 L85.35 84.2" fill="url(#gradient21)" fill-rule="evenodd" stroke="none"/>
    <path d="M86.7 86.2 L88.6 86.35 91.15 87.0 91.9 87.4 92.45 87.8 92.7 90.7 92.25 95.55 91.55 100.55 Q91.05 103.4 90.15 105.15 L88.6 106.8 86.25 106.5 83.5 106.0 81.5 105.55 Q80.5 105.2 80.05 104.65 79.6 101.85 79.65 97.15 79.3 90.6 78.95 90.5 79.85 89.85 79.85 89.2 L79.85 88.75 79.85 88.25 Q79.85 86.2 86.7 86.2 M89.2 88.8 Q89.05 88.2 87.85 87.7 86.6 87.35 86.2 88.3 86.6 91.5 86.45 96.15 86.65 97.55 87.3 97.85 88.95 98.05 89.7 97.25 90.25 96.0 90.25 94.65 90.25 93.5 89.85 91.65 L89.2 88.8" fill="url(#gradient22)" fill-rule="evenodd" stroke="none"/>
    <path d="M88.15 90.1 Q87.75 90.1 87.85 90.35 L88.05 91.2 88.05 92.65 87.4 95.4 88.25 95.75 88.3 95.75 88.6 94.25 88.35 92.4 88.05 91.2 88.15 90.1 M89.2 88.8 L89.85 91.65 Q90.25 93.5 90.25 94.65 90.25 96.0 89.7 97.25 88.95 98.05 87.3 97.85 86.65 97.55 86.45 96.15 86.6 91.5 86.2 88.3 86.6 87.35 87.85 87.7 89.05 88.2 89.2 88.8" fill="url(#gradient23)" fill-rule="evenodd" stroke="none"/>
    <path d="M100.3 84.85 L103.5 84.25 108.95 84.0 112.25 84.45 115.1 84.85 Q116.8 85.4 117.45 86.8 119.45 90.35 119.45 94.45 L119.4 95.95 Q119.3 96.8 118.5 97.15 L116.9 97.75 Q115.8 97.85 114.35 98.45 L111.9 99.4 111.95 99.45 114.4 101.6 116.8 104.2 116.8 105.1 114.4 107.4 Q113.0 107.6 111.65 106.35 L109.95 105.0 110.0 107.5 109.45 107.95 106.1 108.15 103.0 108.3 100.95 108.75 98.65 109.0 Q97.8 108.35 97.65 107.2 L97.45 105.45 97.25 99.7 97.05 94.0 97.2 91.3 97.35 88.6 97.2 86.2 Q98.5 85.25 100.3 84.85 M99.6 87.75 L99.4 94.75 99.6 100.8 99.8 106.6 99.8 106.65 105.25 106.05 106.6 106.0 107.8 105.9 107.9 105.1 107.7 103.75 107.55 102.4 Q107.65 101.95 108.05 101.75 L109.0 101.8 Q110.4 102.85 113.0 105.1 L113.35 105.1 113.95 104.6 114.3 104.15 112.4 102.3 110.25 100.5 109.3 99.55 Q108.8 99.0 108.9 98.2 109.25 97.65 109.75 97.5 L110.65 97.25 Q111.7 96.6 113.7 96.15 L116.8 95.3 117.0 95.05 117.2 93.15 116.9 90.55 116.2 88.85 Q115.8 87.65 115.4 87.2 111.3 86.1 108.95 86.1 L107.35 86.2 Q104.85 86.15 101.4 86.85 L100.3 87.25 99.6 87.75" fill="url(#gradient24)" fill-rule="evenodd" stroke="none"/>
    <path d="M99.6 87.75 L100.3 87.25 101.4 86.85 Q104.85 86.15 107.35 86.2 L108.95 86.1 Q111.3 86.1 115.4 87.2 115.8 87.65 116.2 88.85 L116.9 90.55 117.2 93.15 117.0 95.05 116.8 95.3 113.7 96.15 Q111.7 96.6 110.65 97.25 L109.75 97.5 Q109.25 97.65 108.9 98.2 108.8 99.0 109.3 99.55 L110.25 100.5 112.4 102.3 114.3 104.15 113.95 104.6 113.35 105.1 113.0 105.1 Q110.4 102.85 109.0 101.8 L108.05 101.75 Q107.65 101.95 107.55 102.4 L107.7 103.75 107.9 105.1 107.8 105.9 106.6 106.0 105.25 106.05 99.8 106.65 99.8 106.6 99.6 100.8 99.4 94.75 99.6 87.75 M102.75 87.6 Q102.05 88.7 102.05 90.35 L102.15 92.65 103.75 97.15 Q104.55 98.0 105.45 98.05 107.15 98.2 107.7 97.2 L107.4 95.9 Q107.1 95.15 107.15 94.7 L106.55 88.2 Q106.2 87.15 104.7 87.15 L103.7 87.25 Q103.15 87.3 102.75 87.6" fill="url(#gradient25)" fill-rule="evenodd" stroke="none"/>
    <path d="M102.75 87.6 Q103.15 87.3 103.7 87.25 L104.7 87.15 Q106.2 87.15 106.55 88.2 L107.15 94.7 Q107.1 95.15 107.4 95.9 L107.7 97.2 Q107.15 98.2 105.45 98.05 104.55 98.0 103.75 97.15 L102.15 92.65 102.05 90.35 Q102.05 88.7 102.75 87.6 M104.5 89.6 Q104.25 90.45 104.25 91.5 104.25 93.4 105.0 94.95 L104.7 89.75 104.55 89.6 104.5 89.6 M105.0 94.95 L105.05 95.6 105.25 95.4 105.0 94.95" fill="url(#gradient26)" fill-rule="evenodd" stroke="none"/>
    <path d="M127.55 87.8 L127.9 88.1 128.45 93.2 Q128.85 96.15 129.8 98.1 L130.5 98.6 Q136.4 98.55 139.3 98.75 L139.55 98.8 Q140.0 98.8 139.35 101.9 L139.05 104.8 138.9 104.9 136.15 104.85 133.0 104.95 128.8 105.1 Q125.7 105.0 124.3 105.15 L123.85 105.1 123.65 105.05 Q124.0 101.25 123.65 95.1 123.5 92.25 124.35 88.05 124.7 87.7 125.6 87.7 L126.6 87.75 127.55 87.8" fill="url(#gradient27)" fill-rule="evenodd" stroke="none"/>
    <path d="M-9.65 -90.7 L-9.35 -91.5 -5.7 -90.7 Q-5.55 -90.5 -6.0 -89.25 L-6.7 -86.0 -7.45 -82.75 -9.1 -77.1 Q-10.05 -73.5 -10.95 -71.5 L-11.2 -71.4 -14.0 -71.4 -16.9 -71.55 -17.75 -72.0 -19.5 -75.9 Q-20.6 -78.25 -21.25 -78.2 -21.9 -78.2 -22.95 -75.55 L-24.6 -71.5 -24.8 -71.4 -27.65 -71.4 -30.5 -71.55 Q-31.6 -71.95 -33.85 -76.3 L-36.85 -82.7 -37.75 -85.4 -38.7 -88.05 -38.95 -88.9 -39.0 -89.05 -36.7 -89.6 -31.2 -91.0 -31.15 -90.95 -30.95 -90.45 -29.1 -83.05 -28.4 -81.85 Q-27.85 -80.15 -26.3 -80.3 -25.65 -81.55 -25.65 -82.1 -24.75 -84.0 -24.25 -87.45 L-23.3 -90.7 -22.95 -91.5 -17.7 -90.95 -17.5 -90.9 -17.35 -90.5 -15.45 -83.05 Q-15.25 -82.9 -14.75 -81.4 -14.2 -80.15 -12.7 -80.3 -12.05 -81.55 -12.05 -82.1 -11.15 -84.0 -10.65 -87.45 L-9.65 -90.7" fill="url(#gradient28)" fill-rule="evenodd" stroke="none"/>
    <path d="M-3.55 -89.5 L-4.55 -84.25 -5.6 -81.25 Q-6.05 -79.25 -6.45 -78.3 L-7.3 -74.65 -7.65 -73.55 Q-7.75 -72.75 -8.1 -72.4 L-8.55 -70.95 Q-9.0 -70.0 -9.9 -69.7 -15.45 -69.55 -17.05 -69.8 -17.8 -69.6 -18.85 -70.2 -19.75 -71.45 -20.9 -74.65 L-21.3 -73.55 Q-21.4 -72.75 -21.7 -72.4 L-22.2 -71.0 Q-22.65 -70.0 -23.55 -69.7 -29.0 -69.55 -30.65 -69.8 -31.45 -69.6 -32.45 -70.2 L-34.45 -73.55 -36.0 -76.65 -37.15 -78.9 -38.4 -81.2 -41.7 -90.15 Q-41.4 -91.15 -40.25 -91.3 L-38.8 -91.4 Q-35.0 -92.6 -31.25 -93.2 -30.7 -93.2 -29.45 -92.45 L-28.65 -90.15 -28.15 -87.75 Q-27.8 -87.25 -27.6 -85.95 L-27.4 -85.0 -27.3 -84.35 -27.0 -85.15 -26.7 -87.4 -25.0 -93.2 -24.35 -93.6 -17.7 -93.2 -17.65 -93.2 Q-17.05 -93.2 -15.8 -92.5 L-15.1 -90.15 -14.5 -87.75 Q-14.2 -87.25 -14.0 -85.95 L-13.65 -84.35 -13.4 -85.7 -13.1 -87.4 Q-12.4 -89.3 -11.4 -93.2 L-10.7 -93.6 -6.95 -93.0 -5.25 -92.55 Q-4.1 -92.3 -3.45 -91.9 -3.05 -91.5 -3.05 -91.05 L-3.3 -90.25 -3.55 -89.5 M-9.65 -90.7 L-10.65 -87.45 Q-11.15 -84.0 -12.05 -82.1 -12.05 -81.55 -12.7 -80.3 -14.2 -80.15 -14.75 -81.4 -15.25 -82.9 -15.45 -83.05 L-17.35 -90.5 -17.5 -90.9 -17.7 -90.95 -22.95 -91.5 -23.3 -90.7 -24.25 -87.45 Q-24.75 -84.0 -25.65 -82.1 -25.65 -81.55 -26.3 -80.3 -27.85 -80.15 -28.4 -81.85 L-29.1 -83.05 -30.95 -90.45 -31.15 -90.95 -31.2 -91.0 -36.7 -89.6 -39.0 -89.05 -38.95 -88.9 -38.7 -88.05 -37.75 -85.4 -36.85 -82.7 -33.85 -76.3 Q-31.6 -71.95 -30.5 -71.55 L-27.65 -71.4 -24.8 -71.4 -24.6 -71.5 -22.95 -75.55 Q-21.9 -78.2 -21.25 -78.2 -20.6 -78.25 -19.5 -75.9 L-17.75 -72.0 -16.9 -71.55 -14.0 -71.4 -11.2 -71.4 -10.95 -71.5 Q-10.05 -73.5 -9.1 -77.1 L-7.45 -82.75 -6.7 -86.0 -6.0 -89.25 Q-5.55 -90.5 -5.7 -90.7 L-9.35 -91.5 -9.65 -90.7" fill="url(#gradient29)" fill-rule="evenodd" stroke="none"/>
    <path d="M-49.0 -91.4 L-47.85 -91.05 -47.15 -90.7 -47.05 -89.7 -47.15 -89.0 -50.45 -89.05 -54.0 -88.9 Q-54.65 -88.25 -54.75 -87.2 L-54.75 -85.6 -54.55 -84.75 Q-54.45 -84.0 -53.65 -83.8 L-52.3 -83.95 Q-50.55 -83.95 -48.75 -82.95 -48.1 -82.0 -48.25 -80.85 L-48.35 -80.8 -51.15 -80.6 -51.7 -79.9 -51.7 -76.5 Q-51.35 -75.55 -50.05 -75.6 L-48.6 -75.5 -47.4 -75.35 -46.25 -75.2 Q-45.9 -75.05 -46.0 -74.45 -46.0 -71.9 -46.6 -71.35 L-47.95 -71.45 -49.2 -71.35 -52.8 -71.5 -53.3 -71.5 -58.8 -71.95 -59.15 -72.85 -59.2 -74.1 -59.25 -75.6 -59.15 -78.9 -59.0 -82.0 -59.0 -83.5 Q-59.2 -86.05 -58.6 -90.2 L-58.45 -90.35 -54.7 -91.1 -50.7 -91.5 -49.0 -91.4" fill="url(#gradient30)" fill-rule="evenodd" stroke="none"/>
    <path d="M-46.65 -93.15 Q-45.45 -92.65 -45.0 -91.65 -44.85 -90.85 -45.0 -89.65 L-45.1 -87.9 Q-45.35 -87.2 -45.9 -86.95 L-49.4 -86.95 -52.1 -86.65 -52.5 -86.55 -52.6 -86.35 -51.95 -86.2 -50.8 -86.05 -48.8 -85.6 Q-47.4 -85.05 -46.85 -84.0 -46.5 -83.0 -46.15 -79.55 -46.6 -78.55 -48.05 -78.5 -49.45 -78.5 -49.7 -78.15 L-49.35 -77.9 -47.7 -77.85 -46.05 -77.85 Q-43.95 -76.75 -43.95 -73.3 L-44.3 -71.15 Q-44.5 -69.9 -45.5 -69.3 L-52.7 -69.25 -59.95 -69.55 Q-60.75 -70.1 -60.95 -71.15 L-61.1 -72.65 -61.25 -75.25 -61.1 -79.05 -61.0 -82.75 -61.1 -85.75 -60.9 -88.75 -60.65 -91.7 Q-60.4 -92.6 -59.65 -92.7 L-58.25 -92.85 Q-53.3 -94.0 -48.8 -93.75 L-46.65 -93.15 M-49.0 -91.4 L-50.7 -91.5 -54.7 -91.1 -58.45 -90.35 -58.6 -90.2 Q-59.2 -86.05 -59.0 -83.5 L-59.0 -82.0 -59.15 -78.9 -59.25 -75.6 -59.2 -74.1 -59.15 -72.85 -58.8 -71.95 -53.3 -71.5 -52.8 -71.5 -49.2 -71.35 -47.95 -71.45 -46.6 -71.35 Q-46.0 -71.9 -46.0 -74.45 -45.9 -75.05 -46.25 -75.2 L-47.4 -75.35 -48.6 -75.5 -50.05 -75.6 Q-51.35 -75.55 -51.7 -76.5 L-51.7 -79.9 -51.15 -80.6 -48.35 -80.8 -48.25 -80.85 Q-48.1 -82.0 -48.75 -82.95 -50.55 -83.95 -52.3 -83.95 L-53.65 -83.8 Q-54.45 -84.0 -54.55 -84.75 L-54.75 -85.6 -54.75 -87.2 Q-54.65 -88.25 -54.0 -88.9 L-50.45 -89.05 -47.15 -89.0 -47.05 -89.7 -47.15 -90.7 -47.85 -91.05 -49.0 -91.4" fill="url(#gradient31)" fill-rule="evenodd" stroke="none"/>
    <path d="M-86.65 -89.25 L-86.3 -89.7 -84.55 -89.85 -82.7 -89.95 -80.75 -89.7 -79.5 -87.65 -78.2 -85.8 -77.25 -84.15 Q-76.6 -82.95 -75.65 -82.55 -74.75 -82.4 -74.4 -83.3 -74.05 -89.8 -73.2 -92.5 L-72.5 -92.65 -71.6 -92.75 -69.0 -92.55 -66.75 -92.1 -66.6 -91.9 Q-66.1 -83.15 -66.05 -78.7 -66.45 -73.55 -67.25 -70.6 -67.25 -70.5 -67.45 -70.5 -67.7 -70.35 -67.9 -70.35 -68.3 -70.35 -68.8 -70.8 L-69.65 -71.55 Q-73.2 -74.95 -77.3 -80.05 L-77.6 -80.2 -78.4 -80.05 Q-78.85 -79.5 -78.85 -78.6 L-78.85 -77.55 -78.85 -76.5 -78.65 -74.75 -78.8 -72.75 -78.9 -70.8 -79.1 -70.5 -83.35 -70.4 -87.3 -70.35 -87.3 -70.75 -87.3 -71.85 -86.95 -80.55 -86.65 -89.25" fill="url(#gradient32)" fill-rule="evenodd" stroke="none"/>
    <path d="M-87.8 -92.0 L-86.3 -92.0 -83.5 -92.25 -80.6 -92.4 Q-79.5 -92.05 -78.8 -90.6 L-77.8 -89.0 -76.05 -86.5 -75.1 -94.0 -74.3 -95.05 -73.2 -94.9 -71.4 -95.05 -69.4 -95.05 -65.55 -94.3 Q-64.9 -93.9 -64.85 -93.0 L-64.8 -91.95 Q-64.45 -89.55 -64.35 -85.35 L-64.1 -78.8 Q-64.45 -74.15 -65.25 -70.35 L-65.45 -69.65 Q-65.6 -68.55 -66.4 -68.3 L-67.4 -68.2 -68.35 -68.05 Q-69.05 -68.05 -69.55 -68.4 L-73.45 -72.25 -76.7 -75.8 Q-76.65 -73.75 -77.05 -69.45 -77.55 -68.45 -78.9 -68.35 L-80.85 -68.25 -82.35 -68.35 -85.4 -68.1 -88.65 -67.95 Q-89.3 -68.5 -89.2 -69.95 -88.85 -72.5 -88.85 -76.9 L-88.65 -84.05 -88.65 -85.25 -88.55 -87.7 -88.5 -90.1 -88.5 -91.25 -87.8 -92.0 M-86.65 -89.25 L-86.95 -80.55 -87.3 -71.85 -87.3 -70.75 -87.3 -70.35 -83.35 -70.4 -79.1 -70.5 -78.9 -70.8 -78.8 -72.75 -78.65 -74.75 -78.85 -76.5 -78.85 -77.55 -78.85 -78.6 Q-78.85 -79.5 -78.4 -80.05 L-77.6 -80.2 -77.3 -80.05 Q-73.2 -74.95 -69.65 -71.55 L-68.8 -70.8 Q-68.3 -70.35 -67.9 -70.35 -67.7 -70.35 -67.45 -70.5 -67.25 -70.5 -67.25 -70.6 -66.45 -73.55 -66.05 -78.7 -66.1 -83.15 -66.6 -91.9 L-66.75 -92.1 -69.0 -92.55 -71.6 -92.75 -72.5 -92.65 -73.2 -92.5 Q-74.05 -89.8 -74.4 -83.3 -74.75 -82.4 -75.65 -82.55 -76.6 -82.95 -77.25 -84.15 L-78.2 -85.8 -79.5 -87.65 -80.75 -89.7 -82.7 -89.95 -84.55 -89.85 -86.3 -89.7 -86.65 -89.25" fill="url(#gradient33)" fill-rule="evenodd" stroke="none"/>
    <path d="M-86.15 -1.15 L-86.25 0.0 -86.3 1.4 -86.3 2.9 -86.6 7.55 -86.95 12.05 -87.15 14.05 -87.05 15.65 -86.8 15.6 -86.0 15.45 -83.45 15.7 -81.1 15.85 -81.3 8.7 -81.35 7.4 -81.45 6.15 Q-81.45 4.95 -80.75 4.15 L-80.25 4.05 -79.4 4.3 -78.8 4.65 -76.75 5.9 -75.2 4.3 Q-74.8 4.2 -74.3 3.5 -73.7 2.85 -73.0 2.7 -72.25 2.9 -72.0 3.65 -72.05 6.2 -72.75 12.75 L-73.15 15.05 -73.35 17.05 -73.3 17.05 -66.75 16.9 -65.7 16.9 -64.85 16.75 Q-64.3 14.25 -63.95 10.05 -63.15 0.9 -63.2 -1.8 L-63.3 -1.85 -68.85 -2.15 Q-69.75 -2.2 -70.65 -1.5 L-72.5 -0.1 Q-73.3 0.65 -74.6 1.6 -75.25 1.8 -76.15 3.0 -77.05 4.2 -78.3 4.3 -78.65 4.0 -80.25 3.05 L-81.95 1.55 Q-82.35 0.8 -84.25 -0.15 L-86.15 -1.15 M-87.8 -3.9 Q-87.7 -4.5 -87.1 -4.7 -86.4 -4.75 -85.95 -4.15 L-85.25 -3.55 -82.75 -2.05 Q-81.45 -1.4 -80.7 -0.4 -79.4 0.85 -77.9 1.65 L-74.15 -1.55 -70.35 -4.55 -66.2 -4.35 -61.8 -4.15 Q-61.3 -3.65 -61.15 -2.55 L-61.35 2.5 Q-61.45 5.5 -61.85 7.35 -62.25 13.15 -63.15 18.3 L-63.55 19.0 -64.45 19.6 -66.25 19.55 -68.05 19.5 -71.4 19.6 -75.05 19.55 -75.4 18.15 -75.25 16.9 -75.05 15.75 Q-74.15 9.45 -74.15 7.6 L-74.2 6.55 -75.45 7.7 -76.8 8.9 Q-77.65 8.9 -78.4 8.25 L-79.2 7.6 -79.2 17.8 Q-79.5 18.75 -80.15 19.05 L-81.3 18.75 -81.95 18.5 -84.1 18.3 -86.05 18.2 -88.2 18.45 Q-88.85 18.35 -89.15 17.6 L-89.1 16.5 -88.95 15.75 Q-87.9 3.7 -87.95 -3.2 L-87.8 -3.9 M-81.1 15.85 L-81.1 15.95 -81.0 15.85 -81.1 15.85" fill="url(#gradient34)" fill-rule="evenodd" stroke="none"/>
    <path d="M-86.15 -1.15 L-84.25 -0.15 Q-82.35 0.8 -81.95 1.55 L-80.25 3.05 Q-78.65 4.0 -78.3 4.3 -77.05 4.2 -76.15 3.0 -75.25 1.8 -74.6 1.6 -73.3 0.65 -72.5 -0.1 L-70.65 -1.5 Q-69.75 -2.2 -68.85 -2.15 L-63.3 -1.85 -63.2 -1.8 Q-63.15 0.9 -63.95 10.05 -64.3 14.25 -64.85 16.75 L-65.7 16.9 -66.75 16.9 -73.3 17.05 -73.35 17.05 -73.15 15.05 -72.75 12.75 Q-72.05 6.2 -72.0 3.65 -72.25 2.9 -73.0 2.7 -73.7 2.85 -74.3 3.5 -74.8 4.2 -75.2 4.3 L-76.75 5.9 -78.8 4.65 -79.4 4.3 -80.25 4.05 -80.75 4.15 Q-81.45 4.95 -81.45 6.15 L-81.35 7.4 -81.3 8.7 -81.1 15.85 -83.45 15.7 -86.0 15.45 -86.8 15.6 -87.05 15.65 -87.15 14.05 -86.95 12.05 -86.6 7.55 -86.3 2.9 -86.3 1.4 -86.25 0.0 -86.15 -1.15" fill="url(#gradient35)" fill-rule="evenodd" stroke="none"/>
    <path d="M-56.65 -0.25 L-56.65 0.2 Q-56.65 0.85 -57.55 1.5 -57.2 1.6 -56.85 8.15 -56.9 12.85 -56.45 15.65 -56.0 16.2 -55.0 16.55 L-53.0 17.0 -50.25 17.5 -47.9 17.8 -46.35 16.15 Q-45.45 14.4 -44.95 11.55 L-44.25 6.55 Q-43.8 3.8 -43.8 1.7 -43.8 0.1 -44.05 -1.2 L-44.6 -1.6 -45.35 -2.0 -47.9 -2.65 -49.8 -2.8 Q-56.65 -2.8 -56.65 -0.75 L-56.65 -0.25 M-54.7 -4.4 L-51.15 -4.8 -48.1 -4.75 -45.55 -4.1 Q-43.9 -3.65 -42.95 -2.85 -42.1 -1.55 -42.1 0.75 L-42.15 2.1 -42.2 4.0 Q-42.15 5.0 -42.55 6.95 L-43.0 9.8 Q-43.7 14.2 -44.05 15.15 -44.95 18.15 -47.25 19.8 L-51.2 19.35 -54.7 18.65 Q-56.75 18.05 -57.85 16.65 -58.4 12.85 -58.45 2.4 L-58.25 0.3 -58.1 -1.7 -58.1 -3.05 Q-56.75 -4.15 -54.7 -4.4" fill="url(#gradient36)" fill-rule="evenodd" stroke="none"/>
    <path d="M-36.2 -1.75 L-35.1 -2.15 -29.15 -2.8 -27.55 -2.9 Q-25.2 -2.9 -21.1 -1.8 L-20.3 -0.15 -19.6 1.55 Q-19.3 2.8 -19.3 4.15 L-19.5 6.05 -19.7 6.3 -22.8 7.15 Q-24.8 7.6 -25.85 8.25 L-26.75 8.5 Q-27.25 8.65 -27.6 9.2 -27.7 10.0 -27.2 10.55 L-26.25 11.5 -24.1 13.3 -22.2 15.15 -22.55 15.6 -23.15 16.1 -23.5 16.1 -27.5 12.8 -28.45 12.75 -28.95 13.4 -28.8 14.75 -28.6 16.1 -28.7 16.9 -29.9 17.0 -31.25 17.05 -36.7 17.65 -36.7 17.6 -36.9 11.8 Q-36.85 7.85 -37.1 5.75 L-36.9 -1.25 -36.2 -1.75 M-32.8 -1.75 L-33.75 -1.4 Q-34.45 -0.3 -34.45 1.35 L-34.35 3.65 -32.75 8.15 Q-31.95 9.0 -31.05 9.05 -29.35 9.2 -28.8 8.2 -28.8 7.7 -29.1 6.9 L-29.35 5.7 -29.95 -0.8 Q-30.3 -1.85 -31.8 -1.85 L-32.8 -1.75" fill="url(#gradient37)" fill-rule="evenodd" stroke="none"/>
    <path d="M-36.2 -1.75 L-36.9 -1.25 -37.1 5.75 Q-36.85 7.85 -36.9 11.8 L-36.7 17.6 -36.7 17.65 -31.25 17.05 -29.9 17.0 -28.7 16.9 -28.6 16.1 -28.8 14.75 -28.95 13.4 -28.45 12.75 -27.5 12.8 -23.5 16.1 -23.15 16.1 -22.55 15.6 -22.2 15.15 -24.1 13.3 -26.25 11.5 -27.2 10.55 Q-27.7 10.0 -27.6 9.2 -27.25 8.65 -26.75 8.5 L-25.85 8.25 Q-24.8 7.6 -22.8 7.15 L-19.7 6.3 -19.5 6.05 -19.3 4.15 Q-19.3 2.8 -19.6 1.55 L-20.3 -0.15 -21.1 -1.8 Q-25.2 -2.9 -27.55 -2.9 L-29.15 -2.8 -35.1 -2.15 -36.2 -1.75 M-36.2 -4.15 L-33.0 -4.75 -27.55 -5.0 -24.25 -4.55 -21.4 -4.15 Q-19.7 -3.6 -19.05 -2.2 -17.05 1.35 -17.05 5.45 L-17.1 6.95 Q-17.2 7.8 -18.0 8.15 L-19.6 8.75 -22.15 9.45 -24.6 10.4 -24.55 10.45 -22.1 12.6 Q-20.5 14.0 -19.7 15.2 L-19.7 16.1 -22.1 18.4 Q-23.5 18.6 -24.85 17.35 -26.25 16.1 -26.55 16.0 -26.3 17.85 -26.5 18.5 L-27.05 18.95 -30.4 19.15 -33.5 19.3 -35.55 19.75 -37.85 20.0 Q-38.7 19.35 -38.85 18.2 L-39.05 16.45 -39.25 10.7 -39.45 5.0 -39.3 2.3 -39.15 -0.4 -39.3 -2.8 Q-38.0 -3.75 -36.2 -4.15" fill="url(#gradient38)" fill-rule="evenodd" stroke="none"/>
    <path d="M-56.65 -0.25 L-56.65 -0.75 Q-56.65 -2.8 -49.8 -2.8 L-47.9 -2.65 -45.35 -2.0 -44.6 -1.6 -44.05 -1.2 Q-43.8 0.1 -43.8 1.7 -43.8 3.8 -44.25 6.55 L-44.95 11.55 Q-45.45 14.4 -46.35 16.15 L-47.9 17.8 -50.25 17.5 -53.0 17.0 -55.0 16.55 Q-56.0 16.2 -56.45 15.65 -56.9 12.85 -56.85 8.15 -57.2 1.6 -57.55 1.5 -56.65 0.85 -56.65 0.2 L-56.65 -0.25 M-48.65 -1.3 Q-49.9 -1.65 -50.3 -0.7 -49.9 2.5 -50.05 7.15 -49.85 8.55 -49.2 8.85 -47.55 9.05 -46.8 8.25 -46.25 7.0 -46.25 5.65 -46.25 4.5 -46.65 2.65 L-47.3 -0.2 Q-47.45 -0.8 -48.65 -1.3" fill="url(#gradient39)" fill-rule="evenodd" stroke="none"/>
    <path d="M22.3 -93.35 L24.85 -93.75 26.25 -93.6 Q26.9 -93.4 27.25 -92.6 L27.25 -84.7 Q26.8 -83.85 25.75 -83.85 L25.1 -83.85 24.45 -83.85 23.8 -83.75 21.7 -83.35 Q20.75 -83.0 20.35 -82.3 20.3 -81.9 20.6 -81.25 L21.1 -80.35 21.6 -79.85 21.75 -80.35 22.0 -80.95 22.25 -81.4 Q22.4 -82.75 23.1 -83.0 L26.4 -82.6 Q28.2 -82.25 29.4 -81.3 30.3 -79.85 30.65 -77.65 L31.1 -73.65 Q30.6 -72.25 29.4 -71.15 28.25 -70.05 26.9 -69.7 L23.65 -69.25 Q18.9 -69.25 15.55 -72.55 11.6 -76.55 11.35 -82.0 11.35 -83.1 11.75 -84.3 L12.6 -86.45 Q15.7 -91.65 20.4 -92.75 L22.3 -93.35 M25.1 -86.4 L25.05 -91.75 24.7 -91.75 20.55 -90.85 Q18.4 -90.15 17.25 -89.3 13.55 -85.05 13.5 -81.4 14.0 -77.4 16.5 -74.55 L18.75 -72.8 Q20.05 -72.0 21.35 -72.0 L23.45 -71.65 Q26.0 -71.65 28.1 -73.35 28.85 -73.8 28.85 -74.9 L28.75 -75.85 28.65 -76.8 28.45 -78.45 28.05 -79.65 26.8 -80.05 25.45 -80.35 24.25 -80.5 23.55 -79.25 23.3 -78.1 Q23.15 -77.2 22.5 -76.8 L22.05 -76.7 Q21.65 -76.7 21.55 -76.95 L20.55 -77.75 Q17.95 -80.2 18.3 -83.35 18.3 -83.85 19.6 -85.2 L23.95 -86.45 24.7 -86.4 25.1 -86.3 25.1 -86.4" fill="url(#gradient40)" fill-rule="evenodd" stroke="none"/>
    <path d="M45.1 -87.05 L45.9 -86.3 45.7 -81.05 Q45.65 -80.7 45.05 -80.25 L41.25 -80.95 Q40.45 -81.25 40.65 -82.55 L41.25 -83.1 41.15 -83.2 Q40.5 -84.15 40.3 -86.65 40.35 -87.05 40.9 -87.45 L45.1 -87.05 M44.2 -84.6 L44.0 -84.8 42.45 -84.9 Q42.45 -84.5 43.6 -82.85 43.95 -82.55 44.2 -82.65 L44.2 -84.6" fill="url(#gradient41)" fill-rule="evenodd" stroke="none"/>
    <path d="M24.7 -86.4 L23.95 -86.45 19.6 -85.2 Q18.3 -83.85 18.3 -83.35 17.95 -80.2 20.55 -77.75 L21.55 -76.95 Q21.65 -76.7 22.05 -76.7 L22.5 -76.8 Q23.15 -77.2 23.3 -78.1 L23.55 -79.25 24.25 -80.5 25.45 -80.35 26.8 -80.05 28.05 -79.65 28.45 -78.45 28.65 -76.8 28.75 -75.85 28.85 -74.9 Q28.85 -73.8 28.1 -73.35 26.0 -71.65 23.45 -71.65 L21.35 -72.0 Q20.05 -72.0 18.75 -72.8 L16.5 -74.55 Q14.0 -77.4 13.5 -81.4 13.55 -85.05 17.25 -89.3 18.4 -90.15 20.55 -90.85 L24.7 -91.75 25.05 -91.75 25.1 -86.4 24.7 -86.4" fill="url(#gradient42)" fill-rule="evenodd" stroke="none"/>
    <path d="M1.6 -0.65 L1.5 1.1 0.7 2.05 -2.8 2.05 -5.5 2.35 -5.9 2.45 -6.0 2.65 -5.35 2.8 -4.2 2.95 -2.2 3.4 Q-0.8 3.95 -0.25 5.0 0.1 6.0 0.45 9.45 0.0 10.45 -1.45 10.5 -2.85 10.5 -3.1 10.85 L-2.75 11.1 -1.1 11.15 0.55 11.15 Q2.65 12.25 2.65 15.7 L2.3 17.85 Q2.1 19.1 1.1 19.7 L-6.1 19.75 -13.35 19.45 Q-14.15 18.9 -14.35 17.85 L-14.5 16.35 -14.65 13.75 -14.5 9.95 -14.4 6.25 -14.5 3.25 -14.3 0.25 -14.05 -2.7 Q-13.8 -3.6 -13.05 -3.7 L-11.65 -3.85 Q-6.7 -5.0 -2.2 -4.75 L-0.05 -4.15 Q1.15 -3.65 1.6 -2.65 L1.6 -0.65 M0.35 13.8 L-0.8 13.65 -2.0 13.5 -3.45 13.4 Q-4.75 13.45 -5.1 12.5 L-5.1 9.1 -4.55 8.4 -1.75 8.2 -1.65 8.15 Q-1.5 7.0 -2.15 6.05 -3.95 5.05 -5.7 5.05 L-7.05 5.2 Q-7.85 5.0 -7.95 4.25 L-8.15 3.4 -8.15 1.8 Q-8.05 0.75 -7.4 0.1 L-3.85 -0.05 -0.55 0.0 -0.45 -0.7 -0.55 -1.7 -1.25 -2.05 -2.4 -2.4 -4.1 -2.5 -8.1 -2.1 -11.85 -1.35 -12.0 -1.2 Q-12.6 2.95 -12.4 5.5 L-12.4 7.0 -12.55 10.1 -12.65 13.4 -12.6 14.9 -12.55 16.15 -12.2 17.05 -6.7 17.5 -6.2 17.5 -2.6 17.65 -1.35 17.55 0.0 17.65 Q0.6 17.1 0.6 14.55 0.7 13.95 0.35 13.8" fill="url(#gradient43)" fill-rule="evenodd" stroke="none"/>
    <path d="M0.35 13.8 Q0.7 13.95 0.6 14.55 0.6 17.1 0.0 17.65 L-1.35 17.55 -2.6 17.65 -6.2 17.5 -6.7 17.5 -12.2 17.05 -12.55 16.15 -12.6 14.9 -12.65 13.4 -12.55 10.1 -12.4 7.0 -12.4 5.5 Q-12.6 2.95 -12.0 -1.2 L-11.85 -1.35 -8.1 -2.1 -4.1 -2.5 -2.4 -2.4 -1.25 -2.05 -0.55 -1.7 -0.45 -0.7 -0.55 0.0 -3.85 -0.05 -7.4 0.1 Q-8.05 0.75 -8.15 1.8 L-8.15 3.4 -7.95 4.25 Q-7.85 5.0 -7.05 5.2 L-5.7 5.05 Q-3.95 5.05 -2.15 6.05 -1.5 7.0 -1.65 8.15 L-1.75 8.2 -4.55 8.4 -5.1 9.1 -5.1 12.5 Q-4.75 13.45 -3.45 13.4 L-2.0 13.5 -0.8 13.65 0.35 13.8" fill="url(#gradient44)" fill-rule="evenodd" stroke="none"/>
    <path d="M30.15 -2.75 L26.0 -1.85 Q23.85 -1.15 22.7 -0.3 19.0 3.95 18.95 7.6 19.45 11.6 21.95 14.45 L24.2 16.2 Q25.5 17.0 26.8 17.0 L28.9 17.35 Q31.45 17.35 33.55 15.65 34.3 15.2 34.3 14.1 L34.2 13.15 34.1 12.2 33.9 10.55 Q33.8 9.7 33.5 9.35 33.0 9.1 32.25 8.95 L30.9 8.65 29.7 8.5 29.0 9.75 28.75 10.9 Q28.6 11.8 27.95 12.2 L27.5 12.3 Q27.1 12.3 27.0 12.05 L26.0 11.25 Q23.4 8.8 23.75 5.65 23.75 5.15 25.05 3.8 L29.4 2.55 30.15 2.6 30.55 2.7 30.5 -2.75 30.15 -2.75 M27.75 -4.35 L30.3 -4.75 31.7 -4.6 Q32.35 -4.4 32.7 -3.6 L32.7 4.3 Q32.25 5.15 31.2 5.15 L30.55 5.15 29.9 5.15 29.25 5.25 27.15 5.65 Q26.2 6.0 25.8 6.7 25.75 7.1 26.05 7.75 L26.55 8.65 27.05 9.15 27.2 8.65 27.45 8.05 27.7 7.6 Q27.85 6.25 28.55 6.0 L31.85 6.4 Q33.65 6.75 34.85 7.7 35.75 9.15 36.1 11.35 L36.55 15.35 Q36.05 16.75 34.85 17.85 33.7 18.95 32.35 19.3 L29.1 19.75 Q24.35 19.75 21.0 16.45 17.05 12.45 16.8 7.0 16.8 5.9 17.2 4.7 L18.05 2.55 Q21.15 -2.65 25.85 -3.75 L27.75 -4.35" fill="url(#gradient45)" fill-rule="evenodd" stroke="none"/>
    <path d="M30.15 -2.75 L30.5 -2.75 30.55 2.7 30.15 2.6 29.4 2.55 25.05 3.8 Q23.75 5.15 23.75 5.65 23.4 8.8 26.0 11.25 L27.0 12.05 Q27.1 12.3 27.5 12.3 L27.95 12.2 Q28.6 11.8 28.75 10.9 L29.0 9.75 29.7 8.5 30.9 8.65 32.25 8.95 Q33.0 9.1 33.5 9.35 33.8 9.7 33.9 10.55 L34.1 12.2 34.2 13.15 34.3 14.1 Q34.3 15.2 33.55 15.65 31.45 17.35 28.9 17.35 L26.8 17.0 Q25.5 17.0 24.2 16.2 L21.95 14.45 Q19.45 11.6 18.95 7.6 19.0 3.95 22.7 -0.3 23.85 -1.15 26.0 -1.85 L30.15 -2.75" fill="url(#gradient46)" fill-rule="evenodd" stroke="none"/>
    <path d="M-32.8 -1.75 L-31.8 -1.85 Q-30.3 -1.85 -29.95 -0.8 L-29.35 5.7 -29.1 6.9 Q-28.8 7.7 -28.8 8.2 -29.35 9.2 -31.05 9.05 -31.95 9.0 -32.75 8.15 L-34.35 3.65 -34.45 1.35 Q-34.45 -0.3 -33.75 -1.4 L-32.8 -1.75 M-31.95 0.6 L-32.0 0.6 -32.25 2.5 Q-32.25 4.4 -31.5 5.95 L-31.8 0.75 Q-31.75 0.6 -31.95 0.6 M-31.5 5.95 L-31.45 6.6 -31.25 6.4 -31.5 5.95" fill="url(#gradient47)" fill-rule="evenodd" stroke="none"/>
    <path d="M-21.75 84.2 L-18.7 84.25 -16.15 84.9 Q-14.5 85.35 -13.55 86.15 -12.7 87.45 -12.7 89.75 L-12.75 91.1 -12.8 93.0 Q-12.75 94.0 -13.15 95.95 L-13.6 98.8 Q-14.3 103.2 -14.65 104.15 -15.55 107.15 -17.85 108.8 L-21.8 108.35 -25.3 107.65 Q-27.35 107.05 -28.45 105.65 -29.0 101.85 -29.05 91.4 L-28.85 89.3 -28.7 87.3 -28.7 85.95 Q-27.35 84.85 -25.3 84.6 L-21.75 84.2 M-27.25 88.75 L-27.25 89.2 Q-27.25 89.85 -28.15 90.5 -27.8 90.6 -27.45 97.15 -27.5 101.85 -27.05 104.65 L-25.6 105.55 -23.6 106.0 -20.85 106.5 -18.5 106.8 -16.95 105.15 Q-16.05 103.4 -15.55 100.55 L-14.85 95.55 Q-14.4 92.8 -14.4 90.7 -14.4 89.1 -14.65 87.8 L-15.2 87.4 -15.95 87.0 -18.5 86.35 -20.4 86.2 Q-27.25 86.2 -27.25 88.25 L-27.25 88.75" fill="url(#gradient48)" fill-rule="evenodd" stroke="none"/>
    <path d="M-40.7 84.2 L-37.65 84.25 -35.1 84.9 Q-33.45 85.35 -32.5 86.15 -31.65 87.45 -31.65 89.75 L-31.7 91.1 -31.75 93.0 Q-31.7 94.0 -32.1 95.95 L-32.55 98.8 Q-33.25 103.2 -33.6 104.15 -34.5 107.15 -36.8 108.8 L-40.75 108.35 -44.25 107.65 Q-46.3 107.05 -47.4 105.65 -47.95 101.85 -48.0 91.4 L-47.8 89.3 -47.65 87.3 -47.65 85.95 Q-46.3 84.85 -44.25 84.6 L-40.7 84.2 M-47.1 90.5 Q-46.75 90.6 -46.4 97.15 -46.45 101.85 -46.0 104.65 -45.55 105.2 -44.55 105.55 L-42.55 106.0 -39.8 106.5 -37.45 106.8 -35.9 105.15 Q-35.0 103.4 -34.5 100.55 L-33.8 95.55 Q-33.35 92.8 -33.35 90.7 -33.35 89.1 -33.6 87.8 -33.7 87.65 -34.15 87.4 L-34.9 87.0 -37.45 86.35 -39.35 86.2 Q-46.2 86.2 -46.2 88.25 L-46.2 88.75 -46.2 89.2 Q-46.2 89.85 -47.1 90.5" fill="url(#gradient49)" fill-rule="evenodd" stroke="none"/>
    <path d="M-20.9 88.3 Q-20.5 91.5 -20.65 96.15 -20.45 97.55 -19.8 97.85 -18.15 98.05 -17.4 97.25 -16.85 96.0 -16.85 94.65 L-17.25 91.65 -17.9 88.8 Q-18.05 88.2 -19.25 87.7 -20.5 87.35 -20.9 88.3 M-27.25 88.75 L-27.25 88.25 Q-27.25 86.2 -20.4 86.2 L-18.5 86.35 -15.95 87.0 -15.2 87.4 -14.65 87.8 Q-14.4 89.1 -14.4 90.7 -14.4 92.8 -14.85 95.55 L-15.55 100.55 Q-16.05 103.4 -16.95 105.15 L-18.5 106.8 -20.85 106.5 -23.6 106.0 -25.6 105.55 -27.05 104.65 Q-27.5 101.85 -27.45 97.15 -27.8 90.6 -28.15 90.5 -27.25 89.85 -27.25 89.2 L-27.25 88.75" fill="url(#gradient50)" fill-rule="evenodd" stroke="none"/>
    <path d="M-20.9 88.3 Q-20.5 87.35 -19.25 87.7 -18.05 88.2 -17.9 88.8 L-17.25 91.65 -16.85 94.65 Q-16.85 96.0 -17.4 97.25 -18.15 98.05 -19.8 97.85 -20.45 97.55 -20.65 96.15 -20.5 91.5 -20.9 88.3 M-18.95 90.1 L-19.25 90.35 -19.05 91.2 -19.05 92.65 -19.7 95.4 -18.85 95.75 -18.8 95.75 Q-18.5 95.1 -18.5 94.25 L-18.75 92.4 -19.05 91.2 -18.95 90.1" fill="url(#gradient51)" fill-rule="evenodd" stroke="none"/>
    <path d="M4.2 84.0 Q7.95 84.0 11.75 85.15 12.55 85.85 12.6 87.4 L12.6 89.1 Q12.5 91.05 12.8 94.3 L13.1 99.55 Q13.1 102.2 12.55 104.2 L12.3 105.9 Q12.1 106.85 11.5 107.4 L9.4 107.65 7.65 108.1 6.7 107.95 3.55 105.15 Q1.55 103.65 0.55 102.35 L0.25 106.85 Q-0.3 107.4 -1.15 107.5 L-2.35 107.75 -4.5 108.2 Q-5.9 108.5 -6.75 108.95 -8.05 108.85 -8.3 107.8 L-8.8 105.8 -8.9 100.75 Q-8.9 97.7 -9.2 95.8 L-9.05 92.95 -8.9 91.4 -8.8 89.85 -8.85 88.85 Q-8.9 88.65 -9.45 88.55 -10.0 88.4 -10.1 87.75 -10.15 86.65 -9.25 86.35 L-5.55 85.6 -1.4 85.0 Q-0.85 85.8 -0.65 86.7 L-0.3 88.65 0.35 92.65 Q0.8 94.75 2.5 95.6 L3.05 96.3 3.05 95.7 2.95 95.05 2.1 89.25 1.8 85.25 Q1.95 84.7 2.65 84.1 L4.2 84.0 M3.45 87.65 L5.1 99.45 Q4.65 100.25 3.8 100.15 L1.25 97.3 -0.95 95.25 -1.9 90.1 -2.05 88.6 Q-2.15 87.8 -2.35 87.5 L-3.2 87.4 -5.05 87.8 -6.9 88.25 Q-7.2 88.35 -7.1 89.5 L-7.4 94.55 -7.2 100.0 -7.1 105.45 -6.9 106.15 -6.8 106.6 -1.55 105.4 -1.3 105.2 -1.1 99.3 -0.7 98.6 Q0.0 98.3 0.6 98.9 2.15 101.95 5.15 104.2 L6.35 105.15 7.35 105.8 10.45 105.35 Q10.85 104.65 11.1 102.95 L11.6 100.15 11.3 95.35 Q11.0 92.0 11.05 89.9 L11.05 88.3 Q11.15 87.6 10.85 87.3 9.2 86.6 3.9 86.25 L3.7 86.7 Q3.7 87.85 3.45 87.65" fill="url(#gradient52)" fill-rule="evenodd" stroke="none"/>
    <path d="M3.45 87.65 Q3.7 87.85 3.7 86.7 L3.9 86.25 Q9.2 86.6 10.85 87.3 11.15 87.6 11.05 88.3 L11.05 89.9 Q11.0 92.0 11.3 95.35 L11.6 100.15 11.1 102.95 Q10.85 104.65 10.45 105.35 L7.35 105.8 6.35 105.15 5.15 104.2 Q2.15 101.95 0.6 98.9 0.0 98.3 -0.7 98.6 L-1.1 99.3 -1.3 105.2 -1.55 105.4 -6.8 106.6 -6.9 106.15 -7.1 105.45 -7.2 100.0 -7.4 94.55 -7.1 89.5 Q-7.2 88.35 -6.9 88.25 L-5.05 87.8 -3.2 87.4 -2.35 87.5 Q-2.15 87.8 -2.05 88.6 L-1.9 90.1 -0.95 95.25 1.25 97.3 3.8 100.15 Q4.65 100.25 5.1 99.45 L3.45 87.65" fill="url(#gradient53)" fill-rule="evenodd" stroke="none"/>
    <path d="M17.95 83.1 L21.7 82.9 23.45 83.1 25.9 82.9 28.25 82.7 30.85 83.15 Q31.65 83.45 31.95 84.35 L31.75 85.55 31.95 87.15 32.2 88.8 31.95 90.1 Q31.7 90.95 31.05 91.15 L29.1 91.15 29.1 91.9 30.35 92.5 Q31.4 92.8 31.85 93.6 32.6 95.1 33.15 97.25 L34.0 101.15 34.35 103.5 34.6 105.95 Q34.6 107.7 33.75 109.0 32.35 109.9 30.15 110.15 L26.55 110.15 24.7 110.3 18.65 109.55 17.65 109.1 Q17.1 108.85 16.95 108.15 16.3 105.3 16.3 102.4 16.3 100.95 16.45 99.55 L17.15 98.4 19.7 98.75 21.85 99.2 21.85 99.0 Q21.7 98.55 20.85 98.35 L19.4 97.95 Q16.85 97.5 16.15 95.8 L15.95 94.5 16.2 92.85 16.4 91.15 Q16.6 88.6 17.35 83.55 L17.95 83.1 M18.3 95.3 L20.15 96.05 Q21.95 96.45 22.7 96.9 23.75 97.5 23.9 99.1 L23.75 100.5 Q23.65 101.25 22.9 101.75 L20.4 101.1 19.5 101.0 18.85 100.8 18.8 100.8 Q18.45 101.9 18.45 103.45 18.45 104.6 18.8 107.25 19.0 107.55 19.85 107.65 L21.5 107.95 24.15 108.05 26.95 108.2 Q29.75 108.2 31.4 107.6 32.15 107.35 32.3 106.65 L32.5 105.0 Q32.2 100.35 30.55 94.9 30.4 94.6 29.75 94.5 L28.25 94.0 Q27.2 93.45 26.95 92.0 L26.65 89.5 Q27.2 88.9 27.85 88.9 L28.6 88.95 29.25 89.05 29.6 89.0 29.85 88.45 29.95 87.3 29.8 85.95 29.45 84.9 26.9 84.9 22.3 85.0 20.6 85.15 19.4 85.35 Q18.9 86.95 18.6 90.05 L18.15 95.0 18.3 95.3" fill="url(#gradient54)" fill-rule="evenodd" stroke="none"/>
    <path d="M18.3 95.3 L18.15 95.0 18.6 90.05 Q18.9 86.95 19.4 85.35 L20.6 85.15 22.3 85.0 26.9 84.9 29.45 84.9 29.8 85.95 29.95 87.3 29.85 88.45 29.6 89.0 29.25 89.05 28.6 88.95 27.85 88.9 Q27.2 88.9 26.65 89.5 L26.95 92.0 Q27.2 93.45 28.25 94.0 L29.75 94.5 Q30.4 94.6 30.55 94.9 32.2 100.35 32.5 105.0 L32.3 106.65 Q32.15 107.35 31.4 107.6 29.75 108.2 26.95 108.2 L24.15 108.05 21.5 107.95 19.85 107.65 Q19.0 107.55 18.8 107.25 18.45 104.6 18.45 103.45 18.45 101.9 18.8 100.8 L18.85 100.8 19.5 101.0 20.4 101.1 22.9 101.75 Q23.65 101.25 23.75 100.5 L23.9 99.1 Q23.75 97.5 22.7 96.9 21.95 96.45 20.15 96.05 L18.3 95.3" fill="url(#gradient55)" fill-rule="evenodd" stroke="none"/>
    <path d="M-48.65 -1.3 Q-47.45 -0.8 -47.3 -0.2 L-46.65 2.65 Q-46.25 4.5 -46.25 5.65 -46.25 7.0 -46.8 8.25 -47.55 9.05 -49.2 8.85 -49.85 8.55 -50.05 7.15 -49.9 2.5 -50.3 -0.7 -49.9 -1.65 -48.65 -1.3 M-48.45 2.2 L-48.35 1.1 Q-48.75 1.1 -48.65 1.35 L-48.45 2.2 -48.45 3.65 -49.1 6.4 -48.25 6.75 -48.2 6.75 Q-47.9 6.1 -47.9 5.25 L-48.15 3.4 -48.45 2.2" fill="url(#gradient56)" fill-rule="evenodd" stroke="none"/>
    <path d="M-76.6 87.55 L-76.35 87.85 -76.25 90.45 Q-76.25 91.85 -76.6 96.15 -76.1 96.9 -75.05 96.9 L-73.95 96.9 -73.45 97.2 Q-72.8 101.4 -72.8 102.9 L-73.0 105.25 -73.45 105.6 -82.65 106.2 -84.4 106.15 -86.05 105.95 Q-86.85 105.9 -87.05 105.6 -87.45 102.95 -87.3 98.3 -87.15 92.85 -87.35 90.8 L-87.3 88.95 -87.2 87.4 -83.85 87.15 -80.45 86.9 -79.45 86.95 Q-77.8 87.05 -76.6 87.55 M-77.85 91.8 L-77.7 89.9 Q-77.7 88.9 -78.05 88.05 -78.4 87.15 -79.5 87.15 -80.35 87.15 -81.2 87.7 L-81.45 88.55 Q-80.55 89.7 -80.95 89.25 -81.65 92.6 -81.65 94.4 -81.35 95.15 -80.75 95.15 L-80.05 94.9 -79.3 94.75 Q-78.45 94.7 -78.1 93.7 L-77.85 91.8 M-81.3 98.8 L-82.0 97.85 -82.85 97.5 Q-83.4 97.15 -83.8 97.15 -84.35 97.15 -84.8 97.85 -84.75 98.9 -85.0 100.9 -85.3 102.95 -85.2 104.1 -85.1 105.15 -83.6 105.0 L-82.35 104.6 Q-81.25 104.5 -80.7 103.85 L-81.3 98.8" fill="url(#gradient57)" fill-rule="evenodd" stroke="none"/>
    <path d="M-76.4 85.1 Q-75.1 85.9 -74.65 86.95 -74.4 87.55 -74.4 88.4 L-74.4 89.7 -74.45 94.55 -73.65 94.65 Q-72.95 94.65 -72.55 95.1 -71.8 95.75 -71.6 96.85 L-71.25 98.85 Q-70.85 103.55 -71.15 106.8 -71.45 107.35 -72.8 107.7 L-78.45 107.95 -84.1 108.25 -87.7 108.05 Q-88.55 107.9 -88.85 107.05 -89.2 103.6 -89.2 99.05 L-89.1 93.2 -89.05 87.25 -88.95 85.9 Q-88.9 85.2 -88.15 84.75 L-87.1 85.1 -83.5 84.95 -79.9 84.75 -76.4 85.1 M-76.6 87.55 Q-77.8 87.05 -79.45 86.95 L-80.45 86.9 -83.85 87.15 -87.2 87.4 -87.3 88.95 -87.35 90.8 Q-87.15 92.85 -87.3 98.3 -87.45 102.95 -87.05 105.6 -86.85 105.9 -86.05 105.95 L-84.4 106.15 -82.65 106.2 -73.45 105.6 -73.0 105.25 -72.8 102.9 Q-72.8 101.4 -73.45 97.2 L-73.95 96.9 -75.05 96.9 Q-76.1 96.9 -76.6 96.15 -76.25 91.85 -76.25 90.45 L-76.35 87.85 -76.6 87.55" fill="url(#gradient58)" fill-rule="evenodd" stroke="none"/>
    <path d="M-79.55 89.55 L-79.45 89.65 Q-79.9 90.55 -79.8 92.25 L-79.95 92.75 -79.75 92.65 -79.8 92.25 Q-79.45 91.0 -79.45 89.65 L-79.35 89.4 -79.55 89.55 M-77.85 91.8 L-78.1 93.7 Q-78.45 94.7 -79.3 94.75 L-80.05 94.9 -80.75 95.15 Q-81.35 95.15 -81.65 94.4 -81.65 92.6 -80.95 89.25 -80.55 89.7 -81.45 88.55 L-81.2 87.7 Q-80.35 87.15 -79.5 87.15 -78.4 87.15 -78.05 88.05 -77.7 88.9 -77.7 89.9 L-77.85 91.8" fill="url(#gradient59)" fill-rule="evenodd" stroke="none"/>
    <path d="M-64.45 87.75 L-63.5 87.8 -63.15 88.1 -62.6 93.2 Q-62.2 96.15 -61.25 98.1 L-60.55 98.6 Q-54.65 98.55 -51.75 98.75 L-51.5 98.8 Q-51.05 98.8 -51.7 101.9 L-52.0 104.8 -52.15 104.9 -54.9 104.85 -58.05 104.95 -62.25 105.1 Q-65.35 105.0 -66.75 105.15 L-67.2 105.1 -67.4 105.05 Q-67.05 101.25 -67.4 95.1 -67.55 92.25 -66.7 88.05 -66.35 87.7 -65.45 87.7 L-64.45 87.75" fill="url(#gradient60)" fill-rule="evenodd" stroke="none"/>
    <path d="M-64.0 85.1 L-62.15 85.5 Q-61.35 86.7 -61.15 88.65 L-60.9 92.05 -60.6 94.0 -60.0 95.75 -59.75 95.95 -50.5 96.05 Q-49.95 96.4 -49.8 97.45 -50.0 103.55 -50.45 106.6 -50.5 107.25 -51.4 107.45 -57.0 107.25 -65.15 107.75 L-68.2 107.9 Q-69.0 107.75 -69.15 106.85 L-69.05 102.35 -68.95 98.05 -69.05 95.5 -69.15 92.95 -68.75 89.55 Q-68.4 87.5 -68.5 86.25 -68.35 85.45 -67.7 85.35 L-66.5 85.25 -65.3 85.15 -64.0 85.1 M-64.45 87.75 L-65.45 87.7 Q-66.35 87.7 -66.7 88.05 -67.55 92.25 -67.4 95.1 -67.05 101.25 -67.4 105.05 L-67.2 105.1 -66.75 105.15 Q-65.35 105.0 -62.25 105.1 L-58.05 104.95 -54.9 104.85 -52.15 104.9 -52.0 104.8 -51.7 101.9 Q-51.05 98.8 -51.5 98.8 L-51.75 98.75 Q-54.65 98.55 -60.55 98.6 L-61.25 98.1 Q-62.2 96.15 -62.6 93.2 L-63.15 88.1 -63.5 87.8 -64.45 87.75" fill="url(#gradient61)" fill-rule="evenodd" stroke="none"/>
    <path d="M-47.1 90.5 Q-46.2 89.85 -46.2 89.2 L-46.2 88.75 -46.2 88.25 Q-46.2 86.2 -39.35 86.2 L-37.45 86.35 -34.9 87.0 -34.15 87.4 Q-33.7 87.65 -33.6 87.8 -33.35 89.1 -33.35 90.7 -33.35 92.8 -33.8 95.55 L-34.5 100.55 Q-35.0 103.4 -35.9 105.15 L-37.45 106.8 -39.8 106.5 -42.55 106.0 -44.55 105.55 Q-45.55 105.2 -46.0 104.65 -46.45 101.85 -46.4 97.15 -46.75 90.6 -47.1 90.5 M-38.2 87.7 Q-39.45 87.35 -39.85 88.3 -39.45 91.5 -39.6 96.15 -39.4 97.55 -38.75 97.85 -37.1 98.05 -36.35 97.25 -35.8 96.0 -35.8 94.65 -35.8 93.5 -36.2 91.65 L-36.85 88.8 Q-37.0 88.2 -38.2 87.7" fill="url(#gradient62)" fill-rule="evenodd" stroke="none"/>
    <path d="M-38.2 87.7 Q-37.0 88.2 -36.85 88.8 L-36.2 91.65 Q-35.8 93.5 -35.8 94.65 -35.8 96.0 -36.35 97.25 -37.1 98.05 -38.75 97.85 -39.4 97.55 -39.6 96.15 -39.45 91.5 -39.85 88.3 -39.45 87.35 -38.2 87.7 M-37.9 90.1 Q-38.3 90.1 -38.2 90.35 L-38.0 91.2 -38.0 92.65 -38.65 95.4 -37.8 95.75 -37.75 95.75 Q-37.45 95.1 -37.45 94.25 L-37.7 92.4 -38.0 91.2 -37.9 90.1" fill="url(#gradient63)" fill-rule="evenodd" stroke="none"/>
    <path d="M-81.3 98.8 L-80.7 103.85 Q-81.25 104.5 -82.35 104.6 L-83.6 105.0 Q-85.1 105.15 -85.2 104.1 -85.3 102.95 -85.0 100.9 -84.75 98.9 -84.8 97.85 -84.35 97.15 -83.8 97.15 -83.4 97.15 -82.85 97.5 L-82.0 97.85 -81.3 98.8 M-83.0 99.9 L-83.3 102.8 -83.0 102.8 -82.8 102.65 -82.85 102.2 -82.9 100.65 -83.0 99.9" fill="url(#gradient64)" fill-rule="evenodd" stroke="none"/>
  </g>
  <defs>
    <radialGradient cx="0" cy="0" gradientTransform="matrix(0.0333, 0.0, 0.0, 0.0333, 86.0, -91.2)" gradientUnits="userSpaceOnUse" id="gradient0" r="819.2" spreadMethod="pad">
      <stop offset="0.0" stop-color="#ffffff"/>
      <stop offset="1.0" stop-color="#0099ff"/>
      <stop offset="1.0" stop-color="#ff66cc"/>
    </radialGradient>
    <linearGradient gradientTransform="matrix(0.0, -0.0123, 0.0081, 0.0, 93.4, -81.4)" gradientUnits="userSpaceOnUse" id="gradient1" spreadMethod="pad" x1="-819.2" x2="819.2">
      <stop offset="0.0" stop-color="#ffffff"/>
      <stop offset="0.396078431372549" stop-color="#e9f7ff"/>
      <stop offset="1.0" stop-color="#0099ff"/>
      <stop offset="1.0" stop-color="#ff66cc"/>
    </linearGradient>
    <radialGradient cx="0" cy="0" gradientTransform="matrix(0.0383, 0.0, 0.0, 0.0383, 57.55, -90.3)" gradientUnits="userSpaceOnUse" id="gradient2" r="819.2" spreadMethod="pad">
      <stop offset="0.0" stop-color="#ffffff"/>
      <stop offset="1.0" stop-color="#0099ff"/>
      <stop offset="1.0" stop-color="#ff66cc"/>
    </radialGradient>
    <linearGradient gradientTransform="matrix(0.0, -0.0129, 0.0128, 0.0, 69.3, -81.3)" gradientUnits="userSpaceOnUse" id="gradient3" spreadMethod="pad" x1="-819.2" x2="819.2">
      <stop offset="0.0" stop-color="#ffffff"/>
      <stop offset="0.396078431372549" stop-color="#e9f7ff"/>
      <stop offset="1.0" stop-color="#0099ff"/>
      <stop offset="1.0" stop-color="#ff66cc"/>
    </linearGradient>
    <linearGradient gradientTransform="matrix(0.0, -0.0105, 0.0109, 0.0, 43.05, -81.5)" gradientUnits="userSpaceOnUse" id="gradient4" spreadMethod="pad" x1="-819.2" x2="819.2">
      <stop offset="0.0" stop-color="#ffffff"/>
      <stop offset="0.396078431372549" stop-color="#e9f7ff"/>
      <stop offset="1.0" stop-color="#0099ff"/>
      <stop offset="1.0" stop-color="#ff66cc"/>
    </linearGradient>
    <radialGradient cx="0" cy="0" gradientTransform="matrix(0.0313, 0.0, 0.0, 0.0313, 34.05, -88.55)" gradientUnits="userSpaceOnUse" id="gradient5" r="819.2" spreadMethod="pad">
      <stop offset="0.0" stop-color="#ffffff"/>
      <stop offset="1.0" stop-color="#0099ff"/>
      <stop offset="1.0" stop-color="#ff66cc"/>
    </radialGradient>
    <radialGradient cx="0" cy="0" gradientTransform="matrix(0.0309, 0.0, 0.0, 0.0309, 39.35, 1.15)" gradientUnits="userSpaceOnUse" id="gradient6" r="819.2" spreadMethod="pad">
      <stop offset="0.0" stop-color="#ffffff"/>
      <stop offset="1.0" stop-color="#0099ff"/>
      <stop offset="1.0" stop-color="#ff66cc"/>
    </radialGradient>
    <radialGradient cx="0" cy="0" gradientTransform="matrix(0.0374, 0.0, 0.0, 0.0374, 64.2, -1.5)" gradientUnits="userSpaceOnUse" id="gradient7" r="819.2" spreadMethod="pad">
      <stop offset="0.0" stop-color="#ffffff"/>
      <stop offset="1.0" stop-color="#0099ff"/>
      <stop offset="1.0" stop-color="#ff66cc"/>
    </radialGradient>
    <linearGradient gradientTransform="matrix(0.0, -0.0129, 0.0128, 0.0, 74.75, 7.7)" gradientUnits="userSpaceOnUse" id="gradient8" spreadMethod="pad" x1="-819.2" x2="819.2">
      <stop offset="0.0" stop-color="#ffffff"/>
      <stop offset="0.396078431372549" stop-color="#e9f7ff"/>
      <stop offset="1.0" stop-color="#0099ff"/>
      <stop offset="1.0" stop-color="#ff66cc"/>
    </linearGradient>
    <linearGradient gradientTransform="matrix(0.0, -0.0123, 0.0081, 0.0, 98.85, 7.6)" gradientUnits="userSpaceOnUse" id="gradient9" spreadMethod="pad" x1="-819.2" x2="819.2">
      <stop offset="0.0" stop-color="#ffffff"/>
      <stop offset="0.396078431372549" stop-color="#e9f7ff"/>
      <stop offset="1.0" stop-color="#0099ff"/>
      <stop offset="1.0" stop-color="#ff66cc"/>
    </linearGradient>
    <radialGradient cx="0" cy="0" gradientTransform="matrix(0.0324, 0.0, 0.0, 0.0324, 91.75, -1.5)" gradientUnits="userSpaceOnUse" id="gradient10" r="819.2" spreadMethod="pad">
      <stop offset="0.0" stop-color="#ffffff"/>
      <stop offset="1.0" stop-color="#0099ff"/>
      <stop offset="1.0" stop-color="#ff66cc"/>
    </radialGradient>
    <radialGradient cx="0" cy="0" gradientTransform="matrix(0.0323, 0.0, 0.0, 0.0323, 112.15, -1.5)" gradientUnits="userSpaceOnUse" id="gradient11" r="819.2" spreadMethod="pad">
      <stop offset="0.0" stop-color="#ffffff"/>
      <stop offset="1.0" stop-color="#0099ff"/>
      <stop offset="1.0" stop-color="#ff66cc"/>
    </radialGradient>
    <linearGradient gradientTransform="matrix(0.0, -0.0142, 0.0088, 0.0, 119.15, 7.55)" gradientUnits="userSpaceOnUse" id="gradient12" spreadMethod="pad" x1="-819.2" x2="819.2">
      <stop offset="0.0" stop-color="#ffffff"/>
      <stop offset="0.396078431372549" stop-color="#e9f7ff"/>
      <stop offset="1.0" stop-color="#0099ff"/>
      <stop offset="1.0" stop-color="#ff66cc"/>
    </linearGradient>
    <radialGradient cx="0" cy="0" gradientTransform="matrix(0.0317, 0.0, 0.0, 0.0317, 123.3, 87.45)" gradientUnits="userSpaceOnUse" id="gradient13" r="819.2" spreadMethod="pad">
      <stop offset="0.0" stop-color="#ffffff"/>
      <stop offset="1.0" stop-color="#0099ff"/>
      <stop offset="1.0" stop-color="#ff66cc"/>
    </radialGradient>
    <radialGradient cx="0" cy="0" gradientTransform="matrix(0.0276, 0.0, 0.0, 0.0276, 144.85, 87.9)" gradientUnits="userSpaceOnUse" id="gradient14" r="819.2" spreadMethod="pad">
      <stop offset="0.0" stop-color="#ffffff"/>
      <stop offset="1.0" stop-color="#0099ff"/>
      <stop offset="1.0" stop-color="#ff66cc"/>
    </radialGradient>
    <linearGradient gradientTransform="matrix(0.0, -0.0109, 0.0082, 0.0, 151.8, 96.55)" gradientUnits="userSpaceOnUse" id="gradient15" spreadMethod="pad" x1="-819.2" x2="819.2">
      <stop offset="0.0" stop-color="#ffffff"/>
      <stop offset="0.396078431372549" stop-color="#e9f7ff"/>
      <stop offset="1.0" stop-color="#0099ff"/>
      <stop offset="1.0" stop-color="#ff66cc"/>
    </linearGradient>
    <radialGradient cx="0" cy="0" gradientTransform="matrix(0.0116, 0.0, 0.0, 0.0116, 149.3, 94.6)" gradientUnits="userSpaceOnUse" id="gradient16" r="819.2" spreadMethod="pad">
      <stop offset="0.0" stop-color="#ffffff"/>
      <stop offset="1.0" stop-color="#0099ff"/>
      <stop offset="1.0" stop-color="#ff66cc"/>
    </radialGradient>
    <linearGradient gradientTransform="matrix(0.0, -0.0105, 0.0109, 0.0, 48.5, 7.5)" gradientUnits="userSpaceOnUse" id="gradient17" spreadMethod="pad" x1="-819.2" x2="819.2">
      <stop offset="0.0" stop-color="#ffffff"/>
      <stop offset="0.396078431372549" stop-color="#e9f7ff"/>
      <stop offset="1.0" stop-color="#0099ff"/>
      <stop offset="1.0" stop-color="#ff66cc"/>
    </linearGradient>
    <radialGradient cx="0" cy="0" gradientTransform="matrix(0.007, 0.0, 0.0, 0.007, 46.9, 4.7)" gradientUnits="userSpaceOnUse" id="gradient18" r="819.2" spreadMethod="pad">
      <stop offset="0.0" stop-color="#ffffff"/>
      <stop offset="1.0" stop-color="#0099ff"/>
      <stop offset="1.0" stop-color="#ff66cc"/>
    </radialGradient>
    <radialGradient cx="0" cy="0" gradientTransform="matrix(0.0444, 0.0, 0.0, 0.0444, 39.6, 88.95)" gradientUnits="userSpaceOnUse" id="gradient19" r="819.2" spreadMethod="pad">
      <stop offset="0.0" stop-color="#ffffff"/>
      <stop offset="1.0" stop-color="#0099ff"/>
      <stop offset="1.0" stop-color="#ff66cc"/>
    </radialGradient>
    <linearGradient gradientTransform="matrix(0.0, -0.0123, 0.0203, 0.0, 56.3, 96.55)" gradientUnits="userSpaceOnUse" id="gradient20" spreadMethod="pad" x1="-819.2" x2="819.2">
      <stop offset="0.0" stop-color="#ffffff"/>
      <stop offset="0.396078431372549" stop-color="#e9f7ff"/>
      <stop offset="1.0" stop-color="#0099ff"/>
      <stop offset="1.0" stop-color="#ff66cc"/>
    </linearGradient>
    <radialGradient cx="0" cy="0" gradientTransform="matrix(0.0296, 0.0, 0.0, 0.0296, 79.1, 86.8)" gradientUnits="userSpaceOnUse" id="gradient21" r="819.2" spreadMethod="pad">
      <stop offset="0.0" stop-color="#ffffff"/>
      <stop offset="1.0" stop-color="#0099ff"/>
      <stop offset="1.0" stop-color="#ff66cc"/>
    </radialGradient>
    <linearGradient gradientTransform="matrix(0.0, -0.0126, 0.0084, 0.0, 85.8, 96.5)" gradientUnits="userSpaceOnUse" id="gradient22" spreadMethod="pad" x1="-819.2" x2="819.2">
      <stop offset="0.0" stop-color="#ffffff"/>
      <stop offset="0.396078431372549" stop-color="#e9f7ff"/>
      <stop offset="1.0" stop-color="#0099ff"/>
      <stop offset="1.0" stop-color="#ff66cc"/>
    </linearGradient>
    <radialGradient cx="0" cy="0" gradientTransform="matrix(0.0113, 0.0, 0.0, 0.0113, 87.35, 88.6)" gradientUnits="userSpaceOnUse" id="gradient23" r="819.2" spreadMethod="pad">
      <stop offset="0.0" stop-color="#ffffff"/>
      <stop offset="1.0" stop-color="#0099ff"/>
      <stop offset="1.0" stop-color="#ff66cc"/>
    </radialGradient>
    <radialGradient cx="0" cy="0" gradientTransform="matrix(0.0312, 0.0, 0.0, 0.0312, 98.45, 87.45)" gradientUnits="userSpaceOnUse" id="gradient24" r="819.2" spreadMethod="pad">
      <stop offset="0.0" stop-color="#ffffff"/>
      <stop offset="1.0" stop-color="#0099ff"/>
      <stop offset="1.0" stop-color="#ff66cc"/>
    </radialGradient>
    <linearGradient gradientTransform="matrix(0.0, -0.0125, 0.0109, 0.0, 108.3, 96.4)" gradientUnits="userSpaceOnUse" id="gradient25" spreadMethod="pad" x1="-819.2" x2="819.2">
      <stop offset="0.0" stop-color="#ffffff"/>
      <stop offset="0.396078431372549" stop-color="#e9f7ff"/>
      <stop offset="1.0" stop-color="#0099ff"/>
      <stop offset="1.0" stop-color="#ff66cc"/>
    </linearGradient>
    <radialGradient cx="0" cy="0" gradientTransform="matrix(0.0111, 0.0, 0.0, 0.0111, 103.3, 89.7)" gradientUnits="userSpaceOnUse" id="gradient26" r="819.2" spreadMethod="pad">
      <stop offset="0.0" stop-color="#ffffff"/>
      <stop offset="1.0" stop-color="#0099ff"/>
      <stop offset="1.0" stop-color="#ff66cc"/>
    </radialGradient>
    <linearGradient gradientTransform="matrix(0.0, -0.0107, 0.0098, 0.0, 131.7, 96.45)" gradientUnits="userSpaceOnUse" id="gradient27" spreadMethod="pad" x1="-819.2" x2="819.2">
      <stop offset="0.0" stop-color="#ffffff"/>
      <stop offset="0.396078431372549" stop-color="#e9f7ff"/>
      <stop offset="1.0" stop-color="#0099ff"/>
      <stop offset="1.0" stop-color="#ff66cc"/>
    </linearGradient>
    <linearGradient gradientTransform="matrix(0.0, -0.0123, 0.0204, 0.0, -22.35, -81.45)" gradientUnits="userSpaceOnUse" id="gradient28" spreadMethod="pad" x1="-819.2" x2="819.2">
      <stop offset="0.0" stop-color="#ffffff"/>
      <stop offset="0.396078431372549" stop-color="#e9f7ff"/>
      <stop offset="1.0" stop-color="#0099ff"/>
      <stop offset="1.0" stop-color="#ff66cc"/>
    </linearGradient>
    <radialGradient cx="0" cy="0" gradientTransform="matrix(0.0453, 0.0, 0.0, 0.0453, -39.7, -89.4)" gradientUnits="userSpaceOnUse" id="gradient29" r="819.2" spreadMethod="pad">
      <stop offset="0.0" stop-color="#ffffff"/>
      <stop offset="1.0" stop-color="#0099ff"/>
      <stop offset="1.0" stop-color="#ff66cc"/>
    </radialGradient>
    <linearGradient gradientTransform="matrix(0.0, -0.0123, 0.0081, 0.0, -52.65, -81.4)" gradientUnits="userSpaceOnUse" id="gradient30" spreadMethod="pad" x1="-819.2" x2="819.2">
      <stop offset="0.0" stop-color="#ffffff"/>
      <stop offset="0.396078431372549" stop-color="#e9f7ff"/>
      <stop offset="1.0" stop-color="#0099ff"/>
      <stop offset="1.0" stop-color="#ff66cc"/>
    </linearGradient>
    <radialGradient cx="0" cy="0" gradientTransform="matrix(0.0327, 0.0, 0.0, 0.0327, -59.2, -91.2)" gradientUnits="userSpaceOnUse" id="gradient31" r="819.2" spreadMethod="pad">
      <stop offset="0.0" stop-color="#ffffff"/>
      <stop offset="1.0" stop-color="#0099ff"/>
      <stop offset="1.0" stop-color="#ff66cc"/>
    </radialGradient>
    <linearGradient gradientTransform="matrix(0.0, -0.0137, 0.013, 0.0, -76.7, -81.55)" gradientUnits="userSpaceOnUse" id="gradient32" spreadMethod="pad" x1="-819.2" x2="819.2">
      <stop offset="0.0" stop-color="#ffffff"/>
      <stop offset="0.396078431372549" stop-color="#e9f7ff"/>
      <stop offset="1.0" stop-color="#0099ff"/>
      <stop offset="1.0" stop-color="#ff66cc"/>
    </linearGradient>
    <radialGradient cx="0" cy="0" gradientTransform="matrix(0.0378, 0.0, 0.0, 0.0378, -87.2, -91.2)" gradientUnits="userSpaceOnUse" id="gradient33" r="819.2" spreadMethod="pad">
      <stop offset="0.0" stop-color="#ffffff"/>
      <stop offset="1.0" stop-color="#0099ff"/>
      <stop offset="1.0" stop-color="#ff66cc"/>
    </radialGradient>
    <radialGradient cx="0" cy="0" gradientTransform="matrix(0.0385, 0.0, 0.0, 0.0385, -85.85, -2.4)" gradientUnits="userSpaceOnUse" id="gradient34" r="819.2" spreadMethod="pad">
      <stop offset="0.0" stop-color="#ffffff"/>
      <stop offset="1.0" stop-color="#0099ff"/>
      <stop offset="1.0" stop-color="#ff66cc"/>
    </radialGradient>
    <linearGradient gradientTransform="matrix(0.0, -0.0117, 0.0146, 0.0, -75.2, 7.45)" gradientUnits="userSpaceOnUse" id="gradient35" spreadMethod="pad" x1="-819.2" x2="819.2">
      <stop offset="0.0" stop-color="#ffffff"/>
      <stop offset="0.396078431372549" stop-color="#e9f7ff"/>
      <stop offset="1.0" stop-color="#0099ff"/>
      <stop offset="1.0" stop-color="#ff66cc"/>
    </linearGradient>
    <radialGradient cx="0" cy="0" gradientTransform="matrix(0.0294, 0.0, 0.0, 0.0294, -56.55, -2.4)" gradientUnits="userSpaceOnUse" id="gradient36" r="819.2" spreadMethod="pad">
      <stop offset="0.0" stop-color="#ffffff"/>
      <stop offset="1.0" stop-color="#0099ff"/>
      <stop offset="1.0" stop-color="#ff66cc"/>
    </radialGradient>
    <linearGradient gradientTransform="matrix(0.0, -0.0125, 0.0109, 0.0, -28.2, 7.4)" gradientUnits="userSpaceOnUse" id="gradient37" spreadMethod="pad" x1="-819.2" x2="819.2">
      <stop offset="0.0" stop-color="#ffffff"/>
      <stop offset="0.396078431372549" stop-color="#e9f7ff"/>
      <stop offset="1.0" stop-color="#0099ff"/>
      <stop offset="1.0" stop-color="#ff66cc"/>
    </linearGradient>
    <radialGradient cx="0" cy="0" gradientTransform="matrix(0.0322, 0.0, 0.0, 0.0322, -38.35, -2.4)" gradientUnits="userSpaceOnUse" id="gradient38" r="819.2" spreadMethod="pad">
      <stop offset="0.0" stop-color="#ffffff"/>
      <stop offset="1.0" stop-color="#0099ff"/>
      <stop offset="1.0" stop-color="#ff66cc"/>
    </radialGradient>
    <linearGradient gradientTransform="matrix(0.0, -0.0126, 0.0084, 0.0, -50.7, 7.5)" gradientUnits="userSpaceOnUse" id="gradient39" spreadMethod="pad" x1="-819.2" x2="819.2">
      <stop offset="0.0" stop-color="#ffffff"/>
      <stop offset="0.396078431372549" stop-color="#e9f7ff"/>
      <stop offset="1.0" stop-color="#0099ff"/>
      <stop offset="1.0" stop-color="#ff66cc"/>
    </linearGradient>
    <radialGradient cx="0" cy="0" gradientTransform="matrix(0.0265, 0.0, 0.0, 0.0265, 14.05, -85.45)" gradientUnits="userSpaceOnUse" id="gradient40" r="819.2" spreadMethod="pad">
      <stop offset="0.0" stop-color="#ffffff"/>
      <stop offset="1.0" stop-color="#0099ff"/>
      <stop offset="1.0" stop-color="#ff66cc"/>
    </radialGradient>
    <radialGradient cx="0" cy="0" gradientTransform="matrix(0.0092, 0.0, 0.0, 0.0092, 41.6, -86.75)" gradientUnits="userSpaceOnUse" id="gradient41" r="819.2" spreadMethod="pad">
      <stop offset="0.0" stop-color="#ffffff"/>
      <stop offset="1.0" stop-color="#0099ff"/>
      <stop offset="1.0" stop-color="#ff66cc"/>
    </radialGradient>
    <linearGradient gradientTransform="matrix(0.0, -0.0123, 0.0094, 0.0, 21.15, -81.7)" gradientUnits="userSpaceOnUse" id="gradient42" spreadMethod="pad" x1="-819.2" x2="819.2">
      <stop offset="0.0" stop-color="#ffffff"/>
      <stop offset="0.396078431372549" stop-color="#e9f7ff"/>
      <stop offset="1.0" stop-color="#0099ff"/>
      <stop offset="1.0" stop-color="#ff66cc"/>
    </linearGradient>
    <radialGradient cx="0" cy="0" gradientTransform="matrix(0.0331, 0.0, 0.0, 0.0331, -12.15, -2.85)" gradientUnits="userSpaceOnUse" id="gradient43" r="819.2" spreadMethod="pad">
      <stop offset="0.0" stop-color="#ffffff"/>
      <stop offset="1.0" stop-color="#0099ff"/>
      <stop offset="1.0" stop-color="#ff66cc"/>
    </radialGradient>
    <linearGradient gradientTransform="matrix(0.0, -0.0123, 0.0081, 0.0, -6.05, 7.6)" gradientUnits="userSpaceOnUse" id="gradient44" spreadMethod="pad" x1="-819.2" x2="819.2">
      <stop offset="0.0" stop-color="#ffffff"/>
      <stop offset="0.396078431372549" stop-color="#e9f7ff"/>
      <stop offset="1.0" stop-color="#0099ff"/>
      <stop offset="1.0" stop-color="#ff66cc"/>
    </linearGradient>
    <radialGradient cx="0" cy="0" gradientTransform="matrix(0.0279, 0.0, 0.0, 0.0279, 19.8, 1.6)" gradientUnits="userSpaceOnUse" id="gradient45" r="819.2" spreadMethod="pad">
      <stop offset="0.0" stop-color="#ffffff"/>
      <stop offset="1.0" stop-color="#0099ff"/>
      <stop offset="1.0" stop-color="#ff66cc"/>
    </radialGradient>
    <linearGradient gradientTransform="matrix(0.0, -0.0123, 0.0094, 0.0, 26.6, 7.3)" gradientUnits="userSpaceOnUse" id="gradient46" spreadMethod="pad" x1="-819.2" x2="819.2">
      <stop offset="0.0" stop-color="#ffffff"/>
      <stop offset="0.396078431372549" stop-color="#e9f7ff"/>
      <stop offset="1.0" stop-color="#0099ff"/>
      <stop offset="1.0" stop-color="#ff66cc"/>
    </linearGradient>
    <radialGradient cx="0" cy="0" gradientTransform="matrix(0.0111, 0.0, 0.0, 0.0111, -33.9, 1.15)" gradientUnits="userSpaceOnUse" id="gradient47" r="819.2" spreadMethod="pad">
      <stop offset="0.0" stop-color="#ffffff"/>
      <stop offset="1.0" stop-color="#0099ff"/>
      <stop offset="1.0" stop-color="#ff66cc"/>
    </radialGradient>
    <radialGradient cx="0" cy="0" gradientTransform="matrix(0.0293, 0.0, 0.0, 0.0293, -27.0, 86.6)" gradientUnits="userSpaceOnUse" id="gradient48" r="819.2" spreadMethod="pad">
      <stop offset="0.0" stop-color="#ffffff"/>
      <stop offset="1.0" stop-color="#0099ff"/>
      <stop offset="1.0" stop-color="#ff66cc"/>
    </radialGradient>
    <radialGradient cx="0" cy="0" gradientTransform="matrix(0.0304, 0.0, 0.0, 0.0304, -46.1, 85.7)" gradientUnits="userSpaceOnUse" id="gradient49" r="819.2" spreadMethod="pad">
      <stop offset="0.0" stop-color="#ffffff"/>
      <stop offset="1.0" stop-color="#0099ff"/>
      <stop offset="1.0" stop-color="#ff66cc"/>
    </radialGradient>
    <linearGradient gradientTransform="matrix(0.0, -0.0126, 0.0084, 0.0, -21.3, 96.5)" gradientUnits="userSpaceOnUse" id="gradient50" spreadMethod="pad" x1="-819.2" x2="819.2">
      <stop offset="0.0" stop-color="#ffffff"/>
      <stop offset="0.396078431372549" stop-color="#e9f7ff"/>
      <stop offset="1.0" stop-color="#0099ff"/>
      <stop offset="1.0" stop-color="#ff66cc"/>
    </linearGradient>
    <radialGradient cx="0" cy="0" gradientTransform="matrix(0.0105, 0.0, 0.0, 0.0105, -19.65, 89.25)" gradientUnits="userSpaceOnUse" id="gradient51" r="819.2" spreadMethod="pad">
      <stop offset="0.0" stop-color="#ffffff"/>
      <stop offset="1.0" stop-color="#0099ff"/>
      <stop offset="1.0" stop-color="#ff66cc"/>
    </radialGradient>
    <radialGradient cx="0" cy="0" gradientTransform="matrix(0.0339, 0.0, 0.0, 0.0339, -7.25, 87.7)" gradientUnits="userSpaceOnUse" id="gradient52" r="819.2" spreadMethod="pad">
      <stop offset="0.0" stop-color="#ffffff"/>
      <stop offset="1.0" stop-color="#0099ff"/>
      <stop offset="1.0" stop-color="#ff66cc"/>
    </radialGradient>
    <linearGradient gradientTransform="matrix(0.0, -0.0124, 0.0116, 0.0, 2.1, 96.45)" gradientUnits="userSpaceOnUse" id="gradient53" spreadMethod="pad" x1="-819.2" x2="819.2">
      <stop offset="0.0" stop-color="#ffffff"/>
      <stop offset="0.396078431372549" stop-color="#e9f7ff"/>
      <stop offset="1.0" stop-color="#0099ff"/>
      <stop offset="1.0" stop-color="#ff66cc"/>
    </linearGradient>
    <radialGradient cx="0" cy="0" gradientTransform="matrix(0.034, 0.0, 0.0, 0.034, 18.5, 85.9)" gradientUnits="userSpaceOnUse" id="gradient54" r="819.2" spreadMethod="pad">
      <stop offset="0.0" stop-color="#ffffff"/>
      <stop offset="1.0" stop-color="#0099ff"/>
      <stop offset="1.0" stop-color="#ff66cc"/>
    </radialGradient>
    <linearGradient gradientTransform="matrix(0.0, -0.0142, 0.0088, 0.0, 25.3, 96.55)" gradientUnits="userSpaceOnUse" id="gradient55" spreadMethod="pad" x1="-819.2" x2="819.2">
      <stop offset="0.0" stop-color="#ffffff"/>
      <stop offset="0.396078431372549" stop-color="#e9f7ff"/>
      <stop offset="1.0" stop-color="#0099ff"/>
      <stop offset="1.0" stop-color="#ff66cc"/>
    </linearGradient>
    <radialGradient cx="0" cy="0" gradientTransform="matrix(0.0101, 0.0, 0.0, 0.0101, -49.45, 0.7)" gradientUnits="userSpaceOnUse" id="gradient56" r="819.2" spreadMethod="pad">
      <stop offset="0.0" stop-color="#ffffff"/>
      <stop offset="1.0" stop-color="#0099ff"/>
      <stop offset="1.0" stop-color="#ff66cc"/>
    </radialGradient>
    <linearGradient gradientTransform="matrix(0.0, -0.0118, 0.0089, 0.0, -80.1, 96.55)" gradientUnits="userSpaceOnUse" id="gradient57" spreadMethod="pad" x1="-819.2" x2="819.2">
      <stop offset="0.0" stop-color="#ffffff"/>
      <stop offset="0.396078431372549" stop-color="#e9f7ff"/>
      <stop offset="1.0" stop-color="#0099ff"/>
      <stop offset="1.0" stop-color="#ff66cc"/>
    </linearGradient>
    <radialGradient cx="0" cy="0" gradientTransform="matrix(0.0325, 0.0, 0.0, 0.0325, -87.2, 85.95)" gradientUnits="userSpaceOnUse" id="gradient58" r="819.2" spreadMethod="pad">
      <stop offset="0.0" stop-color="#ffffff"/>
      <stop offset="1.0" stop-color="#0099ff"/>
      <stop offset="1.0" stop-color="#ff66cc"/>
    </radialGradient>
    <radialGradient cx="0" cy="0" gradientTransform="matrix(0.0081, 0.0, 0.0, 0.0081, -80.5, 88.8)" gradientUnits="userSpaceOnUse" id="gradient59" r="819.2" spreadMethod="pad">
      <stop offset="0.0" stop-color="#ffffff"/>
      <stop offset="1.0" stop-color="#0099ff"/>
      <stop offset="1.0" stop-color="#ff66cc"/>
    </radialGradient>
    <linearGradient gradientTransform="matrix(0.0, -0.0107, 0.0098, 0.0, -59.35, 96.45)" gradientUnits="userSpaceOnUse" id="gradient60" spreadMethod="pad" x1="-819.2" x2="819.2">
      <stop offset="0.0" stop-color="#ffffff"/>
      <stop offset="0.396078431372549" stop-color="#e9f7ff"/>
      <stop offset="1.0" stop-color="#0099ff"/>
      <stop offset="1.0" stop-color="#ff66cc"/>
    </linearGradient>
    <radialGradient cx="0" cy="0" gradientTransform="matrix(0.0324, 0.0, 0.0, 0.0324, -67.6, 86.6)" gradientUnits="userSpaceOnUse" id="gradient61" r="819.2" spreadMethod="pad">
      <stop offset="0.0" stop-color="#ffffff"/>
      <stop offset="1.0" stop-color="#0099ff"/>
      <stop offset="1.0" stop-color="#ff66cc"/>
    </radialGradient>
    <linearGradient gradientTransform="matrix(0.0, -0.0126, 0.0084, 0.0, -40.25, 96.5)" gradientUnits="userSpaceOnUse" id="gradient62" spreadMethod="pad" x1="-819.2" x2="819.2">
      <stop offset="0.0" stop-color="#ffffff"/>
      <stop offset="0.396078431372549" stop-color="#e9f7ff"/>
      <stop offset="1.0" stop-color="#0099ff"/>
      <stop offset="1.0" stop-color="#ff66cc"/>
    </linearGradient>
    <radialGradient cx="0" cy="0" gradientTransform="matrix(0.0106, 0.0, 0.0, 0.0106, -39.0, 89.25)" gradientUnits="userSpaceOnUse" id="gradient63" r="819.2" spreadMethod="pad">
      <stop offset="0.0" stop-color="#ffffff"/>
      <stop offset="1.0" stop-color="#0099ff"/>
      <stop offset="1.0" stop-color="#ff66cc"/>
    </radialGradient>
    <radialGradient cx="0" cy="0" gradientTransform="matrix(0.008, 0.0, 0.0, 0.008, -84.05, 99.0)" gradientUnits="userSpaceOnUse" id="gradient64" r="819.2" spreadMethod="pad">
      <stop offset="0.0" stop-color="#ffffff"/>
      <stop offset="1.0" stop-color="#0099ff"/>
      <stop offset="1.0" stop-color="#ff66cc"/>
    </radialGradient>
  </defs>
</svg>
