<?xml version="1.0" encoding="UTF-8" standalone="no"?>
<svg xmlns:xlink="http://www.w3.org/1999/xlink" height="92.9px" width="415.9px" xmlns="http://www.w3.org/2000/svg">
  <g transform="matrix(1.0, 0.0, 0.0, 1.0, 0.0, 0.0)">
    <path d="M84.55 8.0 Q88.0 8.0 90.95 9.35 93.65 13.55 94.15 20.1 L95.0 31.5 96.15 37.95 Q96.9 41.65 98.0 43.95 L98.95 44.5 Q107.85 44.5 130.1 45.05 131.9 46.2 132.5 49.65 131.85 70.15 130.35 80.45 130.1 82.6 127.05 83.3 108.2 82.6 80.75 84.3 L70.5 84.8 Q67.7 84.2 67.3 81.4 67.2 76.0 67.55 66.15 L68.0 51.6 67.65 43.0 Q67.3 37.3 67.3 34.45 67.3 30.7 68.65 23.15 69.85 16.25 69.6 12.05 70.0 9.15 72.1 8.95 L76.3 8.5 80.2 8.25 84.55 8.0 M86.4 17.2 L83.05 17.0 79.75 16.85 Q76.65 16.85 75.55 17.95 72.7 32.15 73.2 41.75 74.4 62.45 73.2 75.25 73.2 75.5 73.85 75.5 L75.4 75.55 Q80.0 75.15 90.45 75.4 L104.75 74.9 115.2 74.55 124.6 74.75 125.05 74.3 Q125.85 70.85 126.15 64.65 128.15 54.1 126.8 54.2 L125.85 54.1 Q116.1 53.45 96.15 53.55 L93.9 51.95 Q90.7 45.35 89.45 35.25 L87.5 18.1 Q87.4 17.35 86.4 17.2" fill="url(#gradient0)" fill-rule="evenodd" stroke="none"/>
    <path d="M86.4 17.2 Q87.4 17.35 87.5 18.1 L89.45 35.25 Q90.7 45.35 93.9 51.95 L96.15 53.55 Q116.1 53.45 125.85 54.1 L126.8 54.2 Q128.15 54.1 126.15 64.65 125.85 70.85 125.05 74.3 L124.6 74.75 115.2 74.55 104.75 74.9 90.45 75.4 Q80.0 75.15 75.4 75.55 L73.85 75.5 Q73.2 75.5 73.2 75.25 74.4 62.45 73.2 41.75 72.7 32.15 75.55 17.95 76.65 16.85 79.75 16.85 L83.05 17.0 86.4 17.2" fill="url(#gradient1)" fill-rule="evenodd" stroke="none"/>
    <path d="M49.65 23.65 Q49.3 29.45 49.65 39.9 L52.25 40.15 Q54.7 40.3 55.95 41.85 58.4 43.9 59.15 47.7 L60.35 54.3 Q61.65 70.15 60.75 81.05 59.65 82.95 55.1 84.25 L36.1 85.0 17.15 86.0 4.95 85.25 Q2.2 84.8 1.2 81.9 0.0 70.35 0.0 55.05 L0.25 35.25 Q0.5 22.8 0.35 15.4 L0.75 10.85 Q1.0 8.5 3.55 7.0 L7.0 8.15 19.1 7.6 31.15 7.0 43.1 8.0 Q47.45 10.7 48.95 14.25 49.6 16.25 49.65 19.1 L49.65 23.65 M51.25 47.8 Q50.95 47.65 47.55 47.8 44.0 47.8 42.4 45.2 43.6 30.85 43.6 26.1 43.6 21.2 43.1 17.45 L42.25 16.35 Q38.15 14.6 32.6 14.25 L29.45 14.15 17.85 14.9 6.65 15.75 Q6.35 17.35 6.4 21.15 6.4 25.5 6.05 27.2 6.75 34.25 6.25 52.45 5.8 68.25 7.25 77.15 7.8 78.1 10.6 78.25 L16.0 78.95 22.05 79.1 52.9 77.15 Q54.1 77.0 54.45 75.9 55.1 72.2 55.1 68.0 55.1 63.0 52.9 48.8 L51.25 47.8" fill="url(#gradient2)" fill-rule="evenodd" stroke="none"/>
    <path d="M51.25 47.8 L52.9 48.8 Q55.1 63.0 55.1 68.0 55.1 72.2 54.45 75.9 54.1 77.0 52.9 77.15 L22.05 79.1 16.0 78.95 10.6 78.25 Q7.8 78.1 7.25 77.15 5.8 68.25 6.25 52.45 6.75 34.25 6.05 27.2 6.4 25.5 6.4 21.15 6.35 17.35 6.65 15.75 L17.85 14.9 29.45 14.15 32.6 14.25 Q38.15 14.6 42.25 16.35 L43.1 17.45 Q43.6 21.2 43.6 26.1 43.6 30.85 42.4 45.2 44.0 47.8 47.55 47.8 50.95 47.65 51.25 47.8 M37.45 17.95 Q36.25 14.9 32.55 14.9 29.7 14.9 26.85 16.85 25.75 18.25 26.0 19.8 29.1 23.55 27.7 22.05 25.3 33.25 25.35 39.4 26.35 41.9 28.35 41.9 29.1 41.9 30.7 41.0 32.45 40.05 33.15 40.65 36.1 40.4 37.35 37.05 L38.05 30.7 38.55 24.25 Q38.5 20.95 37.45 17.95 M18.1 48.75 Q16.2 48.75 14.65 51.0 14.9 54.55 13.95 61.35 13.05 68.1 13.45 71.95 13.6 75.55 18.7 75.0 19.75 74.05 22.95 73.7 26.55 73.35 28.45 71.1 26.65 59.8 26.5 54.1 L24.15 51.1 21.3 49.8 Q19.35 48.7 18.1 48.75" fill="url(#gradient3)" fill-rule="evenodd" stroke="none"/>
    <path d="M162.9 5.0 L173.25 5.25 181.85 7.35 Q187.3 9.0 190.6 11.6 193.45 16.0 193.45 23.75 L193.25 28.3 193.2 34.6 Q193.25 37.95 191.9 44.5 190.55 51.0 190.5 54.2 187.95 69.0 186.95 72.2 183.75 82.4 176.1 87.85 170.7 87.85 162.75 86.35 L151.05 84.0 Q144.1 82.05 140.35 77.25 138.55 64.35 138.5 29.3 138.45 26.75 139.0 22.15 L139.5 15.4 139.5 10.95 Q144.15 7.25 151.05 6.4 L162.9 5.0 M144.45 20.3 L144.45 21.9 Q144.45 24.2 141.4 26.35 142.55 26.75 143.8 48.55 143.7 64.45 145.15 73.9 146.65 75.75 150.0 76.85 L156.85 78.45 166.1 80.2 Q171.05 81.3 174.0 81.2 175.95 79.6 179.15 75.55 182.15 69.65 183.95 60.0 L186.3 43.25 Q187.7 34.0 187.7 27.0 187.7 21.6 186.85 17.2 186.5 16.6 184.95 15.75 L182.5 14.5 173.9 12.2 167.45 11.8 Q144.45 11.8 144.45 18.7 L144.45 20.3" fill="url(#gradient4)" fill-rule="evenodd" stroke="none"/>
    <path d="M144.45 20.3 L144.45 18.7 Q144.45 11.8 167.45 11.8 L173.9 12.2 182.5 14.5 184.95 15.75 Q186.5 16.6 186.85 17.2 187.7 21.6 187.7 27.0 187.7 34.0 186.3 43.25 L183.95 60.0 Q182.15 69.65 179.15 75.55 175.95 79.6 174.0 81.2 171.05 81.3 166.1 80.2 L156.85 78.45 150.0 76.85 Q146.65 75.75 145.15 73.9 143.7 64.45 143.8 48.55 142.55 26.75 141.4 26.35 144.45 24.2 144.45 21.9 L144.45 20.3 M165.75 18.85 Q167.25 29.7 166.6 45.3 167.4 49.9 169.55 51.0 175.0 51.75 177.6 49.0 179.45 44.85 179.45 40.25 179.45 36.35 178.05 30.15 L175.85 20.45 Q175.45 18.4 171.5 16.9 167.1 15.65 165.75 18.85" fill="url(#gradient5)" fill-rule="evenodd" stroke="none"/>
    <path d="M165.75 18.85 Q167.1 15.65 171.5 16.9 175.45 18.4 175.85 20.45 L178.05 30.15 Q179.45 36.35 179.45 40.25 179.45 44.85 177.6 49.0 175.0 51.75 169.55 51.0 167.4 49.9 166.6 45.3 167.25 29.7 165.75 18.85 M172.4 24.9 Q171.05 24.9 171.5 25.75 L172.05 28.4 172.05 33.6 169.9 42.65 172.65 43.95 172.9 43.95 Q173.85 41.8 173.85 38.9 173.85 36.35 173.1 32.65 L172.05 28.4 Q172.15 26.25 172.4 24.9" fill="url(#gradient6)" fill-rule="evenodd" stroke="none"/>
    <path d="M203.1 15.4 L203.1 10.95 Q207.75 7.25 214.65 6.4 L226.5 5.0 236.85 5.25 245.45 7.35 Q250.9 9.0 254.2 11.6 257.05 16.0 257.05 23.75 L256.9 28.3 256.8 34.6 Q256.85 37.95 255.55 44.5 254.2 51.0 254.1 54.2 251.55 69.0 250.55 72.2 247.35 82.4 239.7 87.85 234.3 87.85 226.35 86.35 L214.65 84.0 Q207.75 82.05 203.95 77.25 202.2 64.35 202.1 29.3 202.1 26.75 202.6 22.15 L203.1 15.4 M205.0 26.35 Q206.2 26.75 207.4 48.55 207.3 64.45 208.75 73.9 210.25 75.75 213.65 76.85 L220.45 78.45 229.7 80.2 Q234.65 81.3 237.6 81.2 239.55 79.6 242.75 75.55 245.75 69.65 247.55 60.0 L249.9 43.25 Q251.3 34.0 251.3 27.0 251.3 21.6 250.5 17.2 250.15 16.6 248.55 15.75 L246.1 14.5 237.55 12.2 231.05 11.8 Q208.05 11.8 208.1 18.7 L208.1 20.3 208.1 21.9 Q208.05 24.2 205.0 26.35" fill="url(#gradient7)" fill-rule="evenodd" stroke="none"/>
    <path d="M205.0 26.35 Q208.05 24.2 208.1 21.9 L208.1 20.3 208.1 18.7 Q208.05 11.8 231.05 11.8 L237.55 12.2 246.1 14.5 248.55 15.75 Q250.15 16.6 250.5 17.2 251.3 21.6 251.3 27.0 251.3 34.0 249.9 43.25 L247.55 60.0 Q245.75 69.65 242.75 75.55 239.55 79.6 237.6 81.2 234.65 81.3 229.7 80.2 L220.45 78.45 213.65 76.85 Q210.25 75.75 208.75 73.9 207.3 64.45 207.4 48.55 206.2 26.75 205.0 26.35 M239.45 20.45 Q239.05 18.4 235.1 16.9 230.7 15.65 229.35 18.85 230.85 29.7 230.2 45.3 231.05 49.9 233.15 51.0 238.6 51.75 241.25 49.0 243.1 44.85 243.1 40.25 243.05 36.35 241.65 30.15 L239.45 20.45" fill="url(#gradient8)" fill-rule="evenodd" stroke="none"/>
    <path d="M32.65 23.3 L33.05 22.55 Q32.2 22.55 32.5 23.0 L32.65 23.3 Q31.25 26.25 31.65 31.8 L31.05 33.85 Q31.6 33.9 31.8 33.4 L31.65 31.8 Q32.7 27.8 32.75 23.5 L32.65 23.3 M37.45 17.95 Q38.5 20.95 38.55 24.25 L38.05 30.7 37.35 37.05 Q36.1 40.4 33.15 40.65 32.45 40.05 30.7 41.0 29.1 41.9 28.35 41.9 26.35 41.9 25.35 39.4 25.3 33.25 27.7 22.05 29.1 23.55 26.0 19.8 25.75 18.25 26.85 16.85 29.7 14.9 32.55 14.9 36.25 14.9 37.45 17.95" fill="url(#gradient9)" fill-rule="evenodd" stroke="none"/>
    <path d="M18.1 48.75 Q19.35 48.7 21.3 49.8 L24.15 51.1 26.5 54.1 Q26.65 59.8 28.45 71.1 26.55 73.35 22.95 73.7 19.75 74.05 18.7 75.0 13.6 75.55 13.45 71.95 13.05 68.1 13.95 61.35 14.9 54.55 14.65 51.0 16.2 48.75 18.1 48.75 M20.8 57.75 L20.8 57.8 19.7 67.65 20.8 67.65 Q21.35 67.65 21.35 67.25 L21.2 65.55 Q20.75 64.1 21.1 60.4 21.35 58.55 20.8 57.75" fill="url(#gradient10)" fill-rule="evenodd" stroke="none"/>
    <path d="M403.45 1.55 Q405.95 2.6 407.05 5.65 406.4 7.65 406.4 9.6 406.4 11.45 407.15 15.05 407.8 18.65 407.8 20.55 407.8 22.9 407.15 24.9 406.2 27.75 404.1 28.45 L397.55 28.45 397.55 31.0 Q398.15 31.9 401.7 32.9 405.2 34.0 406.65 36.7 409.25 41.65 411.1 49.0 L414.05 62.1 Q414.1 63.8 415.15 70.0 415.9 75.15 415.9 78.2 415.9 84.15 413.2 88.55 408.4 91.65 401.1 92.3 L388.8 92.5 382.6 92.9 Q371.9 92.05 362.2 90.3 L359.0 88.85 Q357.15 88.0 356.6 85.65 354.3 76.05 354.3 66.4 354.3 61.4 354.9 56.7 355.15 55.35 357.25 52.75 L365.9 54.1 373.05 55.55 Q372.9 55.45 373.05 54.85 372.55 53.45 369.7 52.7 L364.85 51.35 Q356.3 49.9 353.95 44.0 353.3 42.15 353.3 39.75 353.3 37.85 353.95 34.1 354.7 30.35 354.75 28.35 355.4 19.85 357.95 2.95 L359.95 1.45 372.55 0.7 378.45 1.25 386.7 0.7 394.55 0.0 Q399.55 0.0 403.45 1.55 M398.65 7.5 Q395.95 7.85 390.05 7.35 386.7 8.15 374.6 7.75 L368.95 8.25 Q365.85 8.4 364.85 9.0 363.05 14.4 362.15 24.75 L360.6 41.5 361.15 42.4 Q362.7 43.75 367.45 44.85 373.3 46.3 375.95 47.8 379.55 49.9 379.95 55.2 L379.45 59.9 Q379.1 62.45 376.7 64.15 371.7 62.7 368.2 61.95 367.1 62.25 365.25 61.6 L363.0 60.95 362.8 60.95 Q361.6 64.65 361.65 69.95 361.6 73.7 362.7 82.65 363.55 83.55 366.35 83.9 370.85 84.45 371.8 84.9 L380.9 85.4 390.25 85.75 Q399.65 85.75 405.2 83.9 407.7 82.95 408.25 80.6 408.5 77.65 408.9 75.15 408.0 59.4 402.35 41.15 401.85 40.05 399.65 39.75 395.7 38.95 394.55 38.15 391.15 36.2 390.3 31.3 L389.3 22.9 Q391.05 20.75 393.25 20.8 L395.7 21.15 398.05 21.4 399.05 21.3 Q399.9 20.95 400.0 19.35 400.15 15.8 400.4 15.4 L399.85 10.85 Q399.4 8.25 398.65 7.5" fill="url(#gradient11)" fill-rule="evenodd" stroke="none"/>
    <path d="M398.65 7.5 Q399.4 8.25 399.85 10.85 L400.4 15.4 Q400.15 15.8 400.0 19.35 399.9 20.95 399.05 21.3 L398.05 21.4 395.7 21.15 393.25 20.8 Q391.05 20.75 389.3 22.9 L390.3 31.3 Q391.15 36.2 394.55 38.15 395.7 38.95 399.65 39.75 401.85 40.05 402.35 41.15 408.0 59.4 408.9 75.15 408.5 77.65 408.25 80.6 407.7 82.95 405.2 83.9 399.65 85.75 390.25 85.75 L380.9 85.4 371.8 84.9 Q370.85 84.45 366.35 83.9 363.55 83.55 362.7 82.65 361.6 73.7 361.65 69.95 361.6 64.65 362.8 60.95 L363.0 60.95 365.25 61.6 Q367.1 62.25 368.2 61.95 371.7 62.7 376.7 64.15 379.1 62.45 379.45 59.9 L379.95 55.2 Q379.55 49.9 375.95 47.8 373.3 46.3 367.45 44.85 362.7 43.75 361.15 42.4 L360.6 41.5 362.15 24.75 Q363.05 14.4 364.85 9.0 365.85 8.4 368.95 8.25 L374.6 7.75 Q386.7 8.15 390.05 7.35 395.95 7.85 398.65 7.5" fill="url(#gradient12)" fill-rule="evenodd" stroke="none"/>
    <path d="M239.45 20.45 L241.65 30.15 Q243.05 36.35 243.1 40.25 243.1 44.85 241.25 49.0 238.6 51.75 233.15 51.0 231.05 49.9 230.2 45.3 230.85 29.7 229.35 18.85 230.7 15.65 235.1 16.9 239.05 18.4 239.45 20.45 M236.0 24.9 Q234.65 24.9 235.1 25.75 L235.65 28.4 235.65 33.6 233.55 42.65 236.25 43.95 236.5 43.95 Q237.45 41.8 237.45 38.9 237.45 36.35 236.7 32.65 L235.65 28.4 Q235.75 26.25 236.0 24.9" fill="url(#gradient13)" fill-rule="evenodd" stroke="none"/>
    <path d="M276.4 18.7 Q278.25 17.75 282.6 17.2 287.05 16.65 288.95 15.75 L291.65 16.1 Q292.4 17.15 292.8 19.85 L293.3 24.9 296.4 42.15 Q301.2 47.3 303.9 49.15 309.45 55.1 312.35 58.75 315.35 59.05 316.7 56.45 313.85 30.35 311.15 16.6 312.05 17.25 312.05 13.4 312.05 12.2 312.65 11.95 330.55 13.15 336.15 15.6 337.05 16.4 336.8 18.85 336.4 23.05 336.8 24.35 336.7 31.3 337.55 42.65 L338.75 58.65 Q338.25 60.65 337.0 68.15 336.1 73.95 334.85 76.35 327.6 76.65 324.35 77.75 323.25 77.4 321.1 75.5 318.05 72.95 316.85 72.45 306.95 64.9 301.55 54.45 299.7 52.5 297.35 53.55 L295.9 55.8 295.25 75.75 Q295.15 76.25 294.5 76.4 282.2 78.75 276.8 80.35 L276.4 78.95 275.7 76.6 Q275.85 70.35 275.4 58.15 274.7 45.85 274.7 39.8 274.7 30.35 275.7 22.9 275.35 19.0 276.4 18.7" fill="url(#gradient14)" fill-rule="evenodd" stroke="none"/>
    <path d="M276.4 18.7 Q275.35 19.0 275.7 22.9 274.7 30.35 274.7 39.8 274.7 45.85 275.4 58.15 275.85 70.35 275.7 76.6 L276.4 78.95 276.8 80.35 Q282.2 78.75 294.5 76.4 295.15 76.25 295.25 75.75 L295.9 55.8 297.35 53.55 Q299.7 52.5 301.55 54.45 306.95 64.9 316.85 72.45 318.05 72.95 321.1 75.5 323.25 77.4 324.35 77.75 327.6 76.65 334.85 76.35 336.1 73.95 337.0 68.15 338.25 60.65 338.75 58.65 L337.55 42.65 Q336.7 31.3 336.8 24.35 336.4 23.05 336.8 18.85 337.05 16.4 336.15 15.6 330.55 13.15 312.65 11.95 312.05 12.2 312.05 13.4 312.05 17.25 311.15 16.6 313.85 30.35 316.7 56.45 315.35 59.05 312.35 58.75 309.45 55.1 303.9 49.15 301.2 47.3 296.4 42.15 L293.3 24.9 292.8 19.85 Q292.4 17.15 291.65 16.1 L288.95 15.75 Q287.05 16.65 282.6 17.2 278.25 17.75 276.4 18.7 M269.75 20.65 Q269.65 20.1 267.75 19.6 265.85 19.25 265.7 17.0 265.45 13.3 268.5 12.3 L280.85 9.85 Q288.95 7.85 294.9 7.75 296.75 10.35 297.35 13.4 L298.6 20.1 300.7 33.5 Q302.2 40.55 307.95 43.35 L309.8 45.75 Q310.15 44.5 309.55 41.6 L306.7 21.95 305.6 8.5 Q306.15 6.75 308.45 4.65 L313.75 4.45 Q326.3 4.45 339.15 8.25 341.75 10.6 342.05 15.9 L342.05 21.45 Q341.6 28.2 342.7 39.05 343.75 52.1 343.8 56.7 343.75 65.55 341.75 72.35 L340.95 78.0 Q340.35 81.3 338.25 83.25 L331.25 84.05 Q327.35 84.2 325.35 85.5 L322.15 85.1 311.5 75.55 Q304.95 70.5 301.5 66.05 L300.55 81.4 Q298.6 83.05 295.75 83.5 L291.8 84.25 284.4 85.75 Q279.85 86.9 276.9 88.45 272.55 88.1 271.6 84.5 L270.0 77.65 Q269.5 73.05 269.65 60.75 269.65 50.5 268.75 44.2 L269.1 34.6 269.65 29.3 270.0 24.1 269.75 20.65" fill="url(#gradient15)" fill-rule="evenodd" stroke="none"/>
  </g>
  <defs>
    <radialGradient cx="0" cy="0" gradientTransform="matrix(0.1025, 0.0, 0.0, 0.1025, 72.75, 20.05)" gradientUnits="userSpaceOnUse" id="gradient0" r="819.2" spreadMethod="pad">
      <stop offset="0.0" stop-color="#ffffff"/>
      <stop offset="1.0" stop-color="#0099ff"/>
      <stop offset="1.0" stop-color="#ff66cc"/>
    </radialGradient>
    <linearGradient gradientTransform="matrix(0.0, -0.0358, 0.0331, 0.0, 100.2, 46.2)" gradientUnits="userSpaceOnUse" id="gradient1" spreadMethod="pad" x1="-819.2" x2="819.2">
      <stop offset="0.0" stop-color="#ffffff"/>
      <stop offset="0.396078431372549" stop-color="#e9f7ff"/>
      <stop offset="1.0" stop-color="#0099ff"/>
      <stop offset="1.0" stop-color="#ff66cc"/>
    </linearGradient>
    <radialGradient cx="0" cy="0" gradientTransform="matrix(0.1067, 0.0, 0.0, 0.1067, 2.7, 16.05)" gradientUnits="userSpaceOnUse" id="gradient2" r="819.2" spreadMethod="pad">
      <stop offset="0.0" stop-color="#ffffff"/>
      <stop offset="1.0" stop-color="#0099ff"/>
      <stop offset="1.0" stop-color="#ff66cc"/>
    </radialGradient>
    <linearGradient gradientTransform="matrix(0.0, -0.0396, 0.0299, 0.0, 30.55, 46.6)" gradientUnits="userSpaceOnUse" id="gradient3" spreadMethod="pad" x1="-819.2" x2="819.2">
      <stop offset="0.0" stop-color="#ffffff"/>
      <stop offset="0.396078431372549" stop-color="#e9f7ff"/>
      <stop offset="1.0" stop-color="#0099ff"/>
      <stop offset="1.0" stop-color="#ff66cc"/>
    </linearGradient>
    <radialGradient cx="0" cy="0" gradientTransform="matrix(0.0957, 0.0, 0.0, 0.0957, 144.45, 16.05)" gradientUnits="userSpaceOnUse" id="gradient4" r="819.2" spreadMethod="pad">
      <stop offset="0.0" stop-color="#ffffff"/>
      <stop offset="1.0" stop-color="#0099ff"/>
      <stop offset="1.0" stop-color="#ff66cc"/>
    </radialGradient>
    <linearGradient gradientTransform="matrix(0.0, -0.0424, 0.0282, 0.0, 164.55, 46.55)" gradientUnits="userSpaceOnUse" id="gradient5" spreadMethod="pad" x1="-819.2" x2="819.2">
      <stop offset="0.0" stop-color="#ffffff"/>
      <stop offset="0.396078431372549" stop-color="#e9f7ff"/>
      <stop offset="1.0" stop-color="#0099ff"/>
      <stop offset="1.0" stop-color="#ff66cc"/>
    </linearGradient>
    <radialGradient cx="0" cy="0" gradientTransform="matrix(0.038, 0.0, 0.0, 0.038, 169.85, 20.8)" gradientUnits="userSpaceOnUse" id="gradient6" r="819.2" spreadMethod="pad">
      <stop offset="0.0" stop-color="#ffffff"/>
      <stop offset="1.0" stop-color="#0099ff"/>
      <stop offset="1.0" stop-color="#ff66cc"/>
    </radialGradient>
    <radialGradient cx="0" cy="0" gradientTransform="matrix(0.0989, 0.0, 0.0, 0.0989, 208.9, 12.85)" gradientUnits="userSpaceOnUse" id="gradient7" r="819.2" spreadMethod="pad">
      <stop offset="0.0" stop-color="#ffffff"/>
      <stop offset="1.0" stop-color="#0099ff"/>
      <stop offset="1.0" stop-color="#ff66cc"/>
    </radialGradient>
    <linearGradient gradientTransform="matrix(0.0, -0.0424, 0.0282, 0.0, 228.15, 46.55)" gradientUnits="userSpaceOnUse" id="gradient8" spreadMethod="pad" x1="-819.2" x2="819.2">
      <stop offset="0.0" stop-color="#ffffff"/>
      <stop offset="0.396078431372549" stop-color="#e9f7ff"/>
      <stop offset="1.0" stop-color="#0099ff"/>
      <stop offset="1.0" stop-color="#ff66cc"/>
    </linearGradient>
    <radialGradient cx="0" cy="0" gradientTransform="matrix(0.0291, 0.0, 0.0, 0.0291, 30.55, 19.2)" gradientUnits="userSpaceOnUse" id="gradient9" r="819.2" spreadMethod="pad">
      <stop offset="0.0" stop-color="#ffffff"/>
      <stop offset="1.0" stop-color="#0099ff"/>
      <stop offset="1.0" stop-color="#ff66cc"/>
    </radialGradient>
    <radialGradient cx="0" cy="0" gradientTransform="matrix(0.0267, 0.0, 0.0, 0.0267, 20.2, 53.45)" gradientUnits="userSpaceOnUse" id="gradient10" r="819.2" spreadMethod="pad">
      <stop offset="0.0" stop-color="#ffffff"/>
      <stop offset="1.0" stop-color="#0099ff"/>
      <stop offset="1.0" stop-color="#ff66cc"/>
    </radialGradient>
    <radialGradient cx="0" cy="0" gradientTransform="matrix(0.1156, 0.0, 0.0, 0.1156, 361.85, 8.85)" gradientUnits="userSpaceOnUse" id="gradient11" r="819.2" spreadMethod="pad">
      <stop offset="0.0" stop-color="#ffffff"/>
      <stop offset="1.0" stop-color="#0099ff"/>
      <stop offset="1.0" stop-color="#ff66cc"/>
    </radialGradient>
    <linearGradient gradientTransform="matrix(0.0, -0.0479, 0.0295, 0.0, 384.75, 46.55)" gradientUnits="userSpaceOnUse" id="gradient12" spreadMethod="pad" x1="-819.2" x2="819.2">
      <stop offset="0.0" stop-color="#ffffff"/>
      <stop offset="0.396078431372549" stop-color="#e9f7ff"/>
      <stop offset="1.0" stop-color="#0099ff"/>
      <stop offset="1.0" stop-color="#ff66cc"/>
    </linearGradient>
    <radialGradient cx="0" cy="0" gradientTransform="matrix(0.035, 0.0, 0.0, 0.035, 233.65, 23.2)" gradientUnits="userSpaceOnUse" id="gradient13" r="819.2" spreadMethod="pad">
      <stop offset="0.0" stop-color="#ffffff"/>
      <stop offset="1.0" stop-color="#0099ff"/>
      <stop offset="1.0" stop-color="#ff66cc"/>
    </radialGradient>
    <linearGradient gradientTransform="matrix(0.0, -0.0417, 0.0391, 0.0, 306.7, 46.2)" gradientUnits="userSpaceOnUse" id="gradient14" spreadMethod="pad" x1="-819.2" x2="819.2">
      <stop offset="0.0" stop-color="#ffffff"/>
      <stop offset="0.396078431372549" stop-color="#e9f7ff"/>
      <stop offset="1.0" stop-color="#0099ff"/>
      <stop offset="1.0" stop-color="#ff66cc"/>
    </linearGradient>
    <radialGradient cx="0" cy="0" gradientTransform="matrix(0.1148, 0.0, 0.0, 0.1148, 271.1, 17.6)" gradientUnits="userSpaceOnUse" id="gradient15" r="819.2" spreadMethod="pad">
      <stop offset="0.0" stop-color="#ffffff"/>
      <stop offset="1.0" stop-color="#0099ff"/>
      <stop offset="1.0" stop-color="#ff66cc"/>
    </radialGradient>
  </defs>
</svg>
