<?xml version="1.0" encoding="UTF-8" standalone="no"?>
<svg xmlns:xlink="http://www.w3.org/1999/xlink" height="92.9px" width="482.8px" xmlns="http://www.w3.org/2000/svg">
  <g transform="matrix(1.0, 0.0, 0.0, 1.0, 0.0, 0.0)">
    <path d="M14.15 9.4 L19.05 8.9 Q28.7 8.9 38.9 14.8 51.25 21.8 56.65 36.45 58.2 40.6 58.25 46.25 58.25 53.9 54.45 66.15 52.5 72.45 48.5 76.5 43.9 81.2 38.3 81.55 28.35 84.2 4.3 83.65 2.35 82.8 1.7 80.85 1.6 74.35 0.75 59.8 0.0 46.1 0.0 38.6 0.0 23.35 2.7 12.1 3.8 8.9 7.1 8.9 L9.85 9.35 12.8 9.65 14.15 9.4 M8.1 19.0 Q6.75 25.8 6.75 34.5 6.75 39.2 7.35 48.4 L7.6 62.45 7.9 70.1 Q8.05 74.35 8.75 75.8 L23.5 76.65 Q36.6 75.6 42.75 71.35 46.7 68.55 48.55 62.45 49.9 58.3 51.25 52.0 51.85 49.3 51.85 46.6 51.8 37.35 45.45 29.45 35.1 16.8 12.45 16.55 L9.1 17.4 Q8.05 17.75 8.1 19.0" fill="url(#gradient0)" fill-rule="evenodd" stroke="none"/>
    <path d="M8.1 19.0 Q8.05 17.75 9.1 17.4 L12.45 16.55 Q35.1 16.8 45.45 29.45 51.8 37.35 51.85 46.6 51.85 49.3 51.25 52.0 49.9 58.3 48.55 62.45 46.7 68.55 42.75 71.35 36.6 75.6 23.5 76.65 L8.75 75.8 Q8.05 74.35 7.9 70.1 L7.6 62.45 7.35 48.4 Q6.75 39.2 6.75 34.5 6.75 25.8 8.1 19.0 M20.2 34.85 Q18.2 36.6 17.95 37.6 17.7 38.6 17.45 49.55 17.25 56.2 16.5 60.4 15.4 67.15 18.1 69.5 22.55 69.5 29.2 67.55 30.05 65.35 30.05 63.45 L29.65 59.75 29.2 56.85 29.05 48.4 Q28.95 41.7 27.1 38.2 23.3 34.3 20.2 34.85" fill="url(#gradient1)" fill-rule="evenodd" stroke="none"/>
    <path d="M71.85 8.75 L76.5 8.15 Q93.05 4.45 108.3 5.2 L115.55 7.25 Q119.65 8.8 121.15 12.35 121.5 14.95 121.15 19.0 120.65 23.15 120.75 24.9 119.8 27.15 118.05 28.0 L106.3 28.0 Q99.45 28.0 95.75 29.55 95.1 29.75 95.5 30.1 96.0 30.45 97.6 30.6 L101.5 31.15 Q107.25 32.2 108.3 32.75 113.0 34.4 114.85 38.1 116.1 41.4 117.2 52.9 115.7 56.45 110.9 56.55 106.2 56.5 105.35 57.7 104.9 58.1 106.45 58.45 L112.0 58.65 117.65 58.65 Q124.5 62.4 124.55 74.1 L123.45 81.2 Q122.75 85.45 119.4 87.5 107.1 87.55 95.25 87.75 L70.75 86.55 Q68.05 84.8 67.4 81.2 L66.8 76.3 Q66.45 72.15 66.5 67.4 66.45 63.15 66.8 54.75 L67.25 42.15 Q67.2 36.75 66.8 32.15 66.8 28.6 67.65 22.05 68.4 15.45 68.4 12.1 69.25 9.05 71.85 8.75 M75.9 16.55 L75.25 17.15 Q73.2 31.2 73.9 39.7 L73.9 44.85 73.45 55.1 Q73.1 62.25 73.15 66.2 73.1 69.15 73.2 71.35 L73.45 75.55 Q73.8 77.9 74.65 78.65 80.45 80.1 93.15 80.1 L94.85 80.1 107.05 80.6 111.15 80.25 115.6 80.6 Q117.8 78.75 117.65 70.15 118.05 68.2 116.95 67.65 116.1 67.15 112.95 67.05 L108.95 66.65 104.1 66.4 Q99.7 66.45 98.55 63.2 L98.55 51.75 100.4 49.55 109.8 48.9 110.15 48.65 Q110.55 44.75 108.55 41.5 102.5 38.2 96.6 38.2 L91.9 38.8 Q89.25 38.1 88.95 35.5 L88.35 32.55 88.35 27.25 Q88.5 23.8 90.8 21.55 L102.75 21.1 113.75 21.1 Q114.25 20.7 114.25 18.95 L113.85 15.5 Q113.4 14.8 111.5 14.3 L107.65 13.1 101.8 12.7 Q96.25 12.7 88.55 14.15 L75.9 16.55" fill="url(#gradient2)" fill-rule="evenodd" stroke="none"/>
    <path d="M75.9 16.55 L88.55 14.15 Q96.25 12.7 101.8 12.7 L107.65 13.1 111.5 14.3 Q113.4 14.8 113.85 15.5 L114.25 18.95 Q114.25 20.7 113.75 21.1 L102.75 21.1 90.8 21.55 Q88.5 23.8 88.35 27.25 L88.35 32.55 88.95 35.5 Q89.25 38.1 91.9 38.8 L96.6 38.2 Q102.5 38.2 108.55 41.5 110.55 44.75 110.15 48.65 L109.8 48.9 100.4 49.55 98.55 51.75 98.55 63.2 Q99.7 66.45 104.1 66.4 L108.95 66.65 112.95 67.05 Q116.1 67.15 116.95 67.65 118.05 68.2 117.65 70.15 117.8 78.75 115.6 80.6 L111.15 80.25 107.05 80.6 94.85 80.1 93.15 80.1 Q80.45 80.1 74.65 78.65 73.8 77.9 73.45 75.55 L73.2 71.35 Q73.1 69.15 73.15 66.2 73.1 62.25 73.45 55.1 L73.9 44.85 73.9 39.7 Q73.2 31.2 75.25 17.15 L75.9 16.55" fill="url(#gradient3)" fill-rule="evenodd" stroke="none"/>
    <path d="M142.7 15.9 Q143.2 15.55 144.4 15.15 L147.6 14.55 150.6 14.15 174.7 15.05 175.0 15.9 175.0 26.5 174.75 26.75 Q164.4 27.0 160.9 28.0 159.2 30.2 159.2 32.8 159.2 34.15 159.8 36.95 160.35 39.6 160.3 41.2 160.85 43.05 162.55 43.6 L165.1 44.15 184.95 45.6 Q186.15 45.85 186.4 48.05 L186.7 52.0 186.4 52.35 174.7 53.0 162.55 53.15 Q160.35 55.5 160.4 58.3 160.35 59.65 160.95 62.5 161.55 65.25 161.5 66.7 162.45 74.5 162.5 79.95 L150.95 79.6 139.6 78.75 139.45 78.65 Q139.85 73.95 139.6 61.85 139.25 50.8 139.85 45.0 139.95 39.85 140.45 37.25 142.45 23.7 142.7 15.9" fill="url(#gradient4)" fill-rule="evenodd" stroke="none"/>
    <path d="M136.55 9.1 Q138.6 7.75 141.7 7.05 L146.35 6.4 Q160.9 5.1 167.7 6.15 L175.95 6.05 Q181.3 9.25 181.65 17.0 181.9 26.55 182.7 28.45 182.85 32.3 180.05 33.4 L173.75 34.4 166.7 35.15 166.7 35.5 Q167.35 36.7 171.65 36.45 L188.25 37.75 Q192.0 40.55 192.85 46.5 194.2 54.75 194.65 56.35 L192.45 58.7 179.8 59.8 168.2 60.75 167.6 61.35 Q167.45 65.45 168.65 72.45 170.15 81.6 170.3 84.3 168.7 87.5 162.75 87.15 L154.0 86.65 145.75 86.3 137.5 87.15 Q132.6 87.15 132.3 83.55 L132.95 53.75 Q133.05 35.35 135.4 23.8 135.65 22.55 135.4 17.25 135.3 12.25 136.55 9.1 M142.7 15.9 Q142.45 23.7 140.45 37.25 139.95 39.85 139.85 45.0 139.25 50.8 139.6 61.85 139.85 73.95 139.45 78.65 L139.6 78.75 150.95 79.6 162.5 79.95 Q162.45 74.5 161.5 66.7 161.55 65.25 160.95 62.5 160.35 59.65 160.4 58.3 160.35 55.5 162.55 53.15 L174.7 53.0 186.4 52.35 186.7 52.0 186.4 48.05 Q186.15 45.85 184.95 45.6 L165.1 44.15 162.55 43.6 Q160.85 43.05 160.3 41.2 160.35 39.6 159.8 36.95 159.2 34.15 159.2 32.8 159.2 30.2 160.9 28.0 164.4 27.0 174.75 26.75 L175.0 26.5 175.0 15.9 174.7 15.05 150.6 14.15 147.6 14.55 144.4 15.15 Q143.2 15.55 142.7 15.9 M162.5 79.95 L162.5 80.0 162.65 79.95 162.5 79.95" fill="url(#gradient5)" fill-rule="evenodd" stroke="none"/>
    <path d="M210.3 16.55 L209.6 17.15 Q207.6 31.2 208.25 39.7 L208.25 44.85 207.85 55.1 Q207.5 62.25 207.5 66.2 L207.6 71.35 207.85 75.55 Q208.15 77.9 209.0 78.65 214.8 80.1 227.55 80.1 L229.2 80.1 241.4 80.6 245.55 80.25 250.0 80.6 Q252.15 78.75 252.0 70.15 252.4 68.2 251.35 67.65 L247.3 67.05 243.35 66.65 238.45 66.4 Q234.1 66.45 232.9 63.2 L232.9 51.75 234.75 49.55 244.2 48.9 244.5 48.65 Q244.9 44.75 242.9 41.5 236.85 38.2 230.95 38.2 L226.25 38.8 Q223.65 38.1 223.3 35.5 L222.75 32.55 222.75 27.25 Q222.9 23.8 225.15 21.55 L237.1 21.1 248.15 21.1 Q248.65 20.7 248.65 18.95 L248.2 15.5 Q247.8 14.8 245.85 14.3 L242.0 13.1 236.2 12.7 Q230.6 12.7 222.9 14.15 L210.3 16.55 M210.85 8.15 Q227.4 4.45 242.65 5.2 L249.9 7.25 Q254.0 8.8 255.55 12.35 255.85 14.95 255.55 19.0 255.0 23.15 255.1 24.9 254.2 27.15 252.45 28.0 L240.65 28.0 Q233.85 28.0 230.15 29.55 229.45 29.75 229.9 30.1 230.4 30.45 232.0 30.6 L235.85 31.15 Q241.65 32.2 242.65 32.75 247.35 34.4 249.25 38.1 250.5 41.4 251.6 52.9 250.05 56.45 245.3 56.55 240.55 56.5 239.75 57.7 239.3 58.1 240.8 58.45 L246.35 58.65 252.0 58.65 Q258.9 62.4 258.9 74.1 L257.8 81.2 Q257.15 85.45 253.8 87.5 241.5 87.55 229.65 87.75 L205.15 86.55 Q202.45 84.8 201.8 81.2 L201.2 76.3 Q200.85 72.15 200.85 67.4 200.85 63.15 201.2 54.75 L201.6 42.15 Q201.6 36.75 201.2 32.15 201.2 28.6 202.05 22.05 202.8 15.45 202.8 12.1 203.6 9.05 206.25 8.75 L210.85 8.15" fill="url(#gradient6)" fill-rule="evenodd" stroke="none"/>
    <path d="M210.3 16.55 L222.9 14.15 Q230.6 12.7 236.2 12.7 L242.0 13.1 245.85 14.3 Q247.8 14.8 248.2 15.5 L248.65 18.95 Q248.65 20.7 248.15 21.1 L237.1 21.1 225.15 21.55 Q222.9 23.8 222.75 27.25 L222.75 32.55 223.3 35.5 Q223.65 38.1 226.25 38.8 L230.95 38.2 Q236.85 38.2 242.9 41.5 244.9 44.75 244.5 48.65 L244.2 48.9 234.75 49.55 232.9 51.75 232.9 63.2 Q234.1 66.45 238.45 66.4 L243.35 66.65 247.3 67.05 251.35 67.65 Q252.4 68.2 252.0 70.15 252.15 78.75 250.0 80.6 L245.55 80.25 241.4 80.6 229.2 80.1 227.55 80.1 Q214.8 80.1 209.0 78.65 208.15 77.9 207.85 75.55 L207.6 71.35 207.5 66.2 Q207.5 62.25 207.85 55.1 L208.25 44.85 208.25 39.7 Q207.6 31.2 209.6 17.15 L210.3 16.55" fill="url(#gradient7)" fill-rule="evenodd" stroke="none"/>
    <path d="M269.45 12.3 L281.8 9.85 Q289.85 7.8 295.85 7.75 297.7 10.35 298.3 13.35 L299.55 20.1 301.65 33.5 Q303.15 40.55 308.9 43.35 L310.75 45.7 Q311.1 44.5 310.5 41.55 L307.65 21.95 306.55 8.5 Q307.1 6.7 309.4 4.6 L314.7 4.45 Q327.2 4.45 340.1 8.25 342.7 10.6 342.95 15.9 L342.95 21.45 Q342.55 28.2 343.65 39.05 344.7 52.05 344.75 56.7 344.7 65.55 342.7 72.35 L341.85 78.0 Q341.25 81.25 339.2 83.2 L332.2 84.05 Q328.3 84.2 326.3 85.5 L323.1 85.05 Q317.1 80.0 312.4 75.55 305.9 70.5 302.45 66.05 L301.5 81.35 Q299.55 83.05 296.7 83.45 293.5 83.85 292.75 84.2 L285.35 85.75 Q280.8 86.9 277.85 88.45 273.45 88.1 272.55 84.45 271.5 80.85 270.95 77.65 270.45 73.0 270.6 60.75 270.6 50.45 269.7 44.15 L270.0 34.6 270.6 29.3 270.95 24.05 270.7 20.6 Q270.6 20.1 268.65 19.6 266.8 19.25 266.65 17.0 266.4 13.3 269.45 12.3 M277.35 18.65 Q276.3 19.0 276.65 22.9 275.65 30.35 275.65 39.8 275.65 45.85 276.35 58.15 276.8 70.3 276.65 76.55 L277.35 78.9 277.75 80.35 Q283.15 78.75 295.45 76.4 296.1 76.2 296.2 75.7 L296.85 55.8 298.3 53.5 Q300.65 52.5 302.5 54.45 307.85 64.85 317.8 72.45 L322.0 75.45 Q324.2 77.4 325.3 77.75 328.55 76.65 335.8 76.3 337.05 73.95 337.9 68.15 339.15 60.65 339.7 58.65 L338.5 42.65 Q337.65 31.3 337.75 24.3 337.3 23.05 337.75 18.85 338.0 16.4 337.05 15.55 331.5 13.1 313.6 11.95 313.0 12.15 313.0 13.35 313.0 17.2 312.1 16.55 314.75 30.35 317.65 56.45 316.3 59.05 313.25 58.7 310.4 55.1 304.85 49.15 302.15 47.25 297.35 42.15 L294.25 24.9 293.75 19.85 Q293.3 17.15 292.55 16.05 L289.85 15.75 Q288.0 16.65 283.55 17.15 279.2 17.75 277.35 18.65" fill="url(#gradient8)" fill-rule="evenodd" stroke="none"/>
    <path d="M277.35 18.65 Q279.2 17.75 283.55 17.15 288.0 16.65 289.85 15.75 L292.55 16.05 Q293.3 17.15 293.75 19.85 L294.25 24.9 297.35 42.15 Q302.15 47.25 304.85 49.15 310.4 55.1 313.25 58.7 316.3 59.05 317.65 56.45 314.75 30.35 312.1 16.55 313.0 17.2 313.0 13.35 313.0 12.15 313.6 11.95 331.5 13.1 337.05 15.55 338.0 16.4 337.75 18.85 337.3 23.05 337.75 24.3 337.65 31.3 338.5 42.65 L339.7 58.65 Q339.15 60.65 337.9 68.15 337.05 73.95 335.8 76.3 328.55 76.65 325.3 77.75 324.2 77.4 322.0 75.45 L317.8 72.45 Q307.85 64.85 302.5 54.45 300.65 52.5 298.3 53.5 L296.85 55.8 296.2 75.7 Q296.1 76.2 295.45 76.4 283.15 78.75 277.75 80.35 L277.35 78.9 276.65 76.55 Q276.8 70.3 276.35 58.15 275.65 45.85 275.65 39.8 275.65 30.35 276.65 22.9 276.3 19.0 277.35 18.65" fill="url(#gradient9)" fill-rule="evenodd" stroke="none"/>
    <path d="M387.65 0.65 L395.45 0.0 Q400.5 0.0 404.4 1.5 406.9 2.6 408.0 5.65 407.35 7.65 407.35 9.6 407.3 11.45 408.1 15.05 L408.75 20.55 Q408.75 22.9 408.1 24.9 407.15 27.75 405.05 28.45 L398.5 28.45 398.5 30.95 Q399.05 31.85 402.6 32.9 406.15 34.0 407.6 36.7 410.2 41.65 412.05 48.95 L415.0 62.1 Q415.05 63.75 416.1 70.0 416.85 75.1 416.85 78.15 416.8 84.1 414.15 88.5 409.35 91.6 402.05 92.3 L389.75 92.45 383.5 92.9 Q372.8 92.05 363.15 90.3 L359.95 88.85 Q358.1 88.0 357.5 85.65 355.25 76.05 355.25 66.4 355.25 61.4 355.85 56.7 356.05 55.35 358.2 52.75 L366.85 54.1 373.95 55.55 374.0 54.85 Q373.5 53.4 370.65 52.65 L365.75 51.3 Q357.25 49.85 354.9 44.0 354.25 42.15 354.25 39.7 354.25 37.85 354.9 34.05 355.65 30.35 355.65 28.35 356.3 19.85 358.85 2.95 L360.9 1.45 373.5 0.65 379.4 1.25 387.65 0.65 M369.9 8.25 Q366.75 8.4 365.75 9.0 364.0 14.35 363.05 24.75 L361.55 41.5 362.05 42.4 Q363.65 43.75 368.35 44.85 374.25 46.25 376.85 47.8 380.45 49.9 380.9 55.2 L380.4 59.9 Q380.05 62.4 377.65 64.1 L369.15 61.9 Q368.05 62.25 366.2 61.6 L363.9 60.9 363.75 60.9 Q362.55 64.6 362.55 69.9 362.55 73.7 363.65 82.6 364.5 83.55 367.3 83.9 371.8 84.45 372.75 84.9 L381.85 85.4 391.2 85.75 Q400.6 85.75 406.15 83.9 408.65 82.95 409.2 80.6 409.45 77.65 409.85 75.15 408.9 59.4 403.3 41.15 402.75 40.05 400.6 39.7 396.6 38.95 395.45 38.1 392.1 36.15 391.25 31.3 L390.25 22.9 Q392.0 20.75 394.2 20.8 L396.65 21.1 399.0 21.35 400.0 21.3 Q400.85 20.95 400.95 19.35 401.1 15.8 401.35 15.4 L400.75 10.85 Q400.35 8.2 399.6 7.5 396.9 7.8 391.0 7.3 L375.55 7.75 369.9 8.25" fill="url(#gradient10)" fill-rule="evenodd" stroke="none"/>
    <path d="M369.9 8.25 L375.55 7.75 391.0 7.3 Q396.9 7.8 399.6 7.5 400.35 8.2 400.75 10.85 L401.35 15.4 Q401.1 15.8 400.95 19.35 400.85 20.95 400.0 21.3 L399.0 21.35 396.65 21.1 394.2 20.8 Q392.0 20.75 390.25 22.9 L391.25 31.3 Q392.1 36.15 395.45 38.1 396.6 38.95 400.6 39.7 402.75 40.05 403.3 41.15 408.9 59.4 409.85 75.15 409.45 77.65 409.2 80.6 408.65 82.95 406.15 83.9 400.6 85.75 391.2 85.75 L381.85 85.4 372.75 84.9 Q371.8 84.45 367.3 83.9 364.5 83.55 363.65 82.6 362.55 73.7 362.55 69.9 362.55 64.6 363.75 60.9 L363.9 60.9 366.2 61.6 Q368.05 62.25 369.15 61.9 L377.65 64.1 Q380.05 62.4 380.4 59.9 L380.9 55.2 Q380.45 49.9 376.85 47.8 374.25 46.25 368.35 44.85 363.65 43.75 362.05 42.4 L361.55 41.5 363.05 24.75 Q364.0 14.35 365.75 9.0 366.75 8.4 369.9 8.25" fill="url(#gradient11)" fill-rule="evenodd" stroke="none"/>
    <path d="M434.75 8.15 Q451.3 4.45 466.55 5.2 L473.8 7.25 Q477.9 8.8 479.45 12.35 479.75 14.95 479.45 19.0 478.9 23.15 479.0 24.9 478.05 27.15 476.3 28.0 L464.55 28.0 Q457.7 28.0 454.05 29.55 453.35 29.75 453.8 30.1 454.3 30.45 455.9 30.6 L459.75 31.15 Q465.55 32.2 466.55 32.75 471.25 34.4 473.15 38.1 474.4 41.4 475.5 52.9 473.95 56.45 469.15 56.55 464.45 56.5 463.6 57.7 463.2 58.1 464.7 58.45 L470.25 58.65 475.9 58.65 Q482.8 62.4 482.8 74.1 L481.7 81.2 Q481.0 85.45 477.65 87.5 465.35 87.55 453.5 87.75 L429.05 86.55 Q426.35 84.8 425.65 81.2 L425.1 76.3 Q424.75 72.15 424.75 67.4 424.75 63.15 425.1 54.75 L425.5 42.15 Q425.5 36.75 425.1 32.15 425.1 28.6 425.95 22.05 426.7 15.45 426.7 12.1 427.5 9.05 430.15 8.75 L434.75 8.15 M433.5 17.15 Q431.45 31.2 432.15 39.7 L432.15 44.85 431.75 55.1 Q431.4 62.25 431.4 66.2 L431.5 71.35 431.75 75.55 Q432.05 77.9 432.9 78.65 438.7 80.1 451.4 80.1 L453.1 80.1 465.3 80.6 469.45 80.25 473.9 80.6 Q476.05 78.75 475.9 70.15 476.3 68.2 475.25 67.65 474.4 67.15 471.2 67.05 L467.25 66.65 462.35 66.4 Q458.0 66.45 456.8 63.2 L456.8 51.75 458.65 49.55 468.1 48.9 468.4 48.65 Q468.8 44.75 466.8 41.5 460.75 38.2 454.85 38.2 L450.15 38.8 Q447.55 38.1 447.2 35.5 L446.6 32.55 446.6 27.25 Q446.75 23.8 449.05 21.55 L461.0 21.1 472.05 21.1 Q472.55 20.7 472.55 18.95 L472.1 15.5 Q471.7 14.8 469.75 14.3 L465.9 13.1 460.1 12.7 Q454.5 12.7 446.8 14.15 L434.15 16.55 433.5 17.15" fill="url(#gradient12)" fill-rule="evenodd" stroke="none"/>
    <path d="M433.5 17.15 L434.15 16.55 446.8 14.15 Q454.5 12.7 460.1 12.7 L465.9 13.1 469.75 14.3 Q471.7 14.8 472.1 15.5 L472.55 18.95 Q472.55 20.7 472.05 21.1 L461.0 21.1 449.05 21.55 Q446.75 23.8 446.6 27.25 L446.6 32.55 447.2 35.5 Q447.55 38.1 450.15 38.8 L454.85 38.2 Q460.75 38.2 466.8 41.5 468.8 44.75 468.4 48.65 L468.1 48.9 458.65 49.55 456.8 51.75 456.8 63.2 Q458.0 66.45 462.35 66.4 L467.25 66.65 471.2 67.05 Q474.4 67.15 475.25 67.65 476.3 68.2 475.9 70.15 476.05 78.75 473.9 80.6 L469.45 80.25 465.3 80.6 453.1 80.1 451.4 80.1 Q438.7 80.1 432.9 78.65 432.05 77.9 431.75 75.55 L431.5 71.35 431.4 66.2 Q431.4 62.25 431.75 55.1 L432.15 44.85 432.15 39.7 Q431.45 31.2 433.5 17.15" fill="url(#gradient13)" fill-rule="evenodd" stroke="none"/>
    <path d="M20.2 34.85 Q23.3 34.3 27.1 38.2 28.95 41.7 29.05 48.4 L29.2 56.85 29.65 59.75 30.05 63.45 Q30.05 65.35 29.2 67.55 22.55 69.5 18.1 69.5 15.4 67.15 16.5 60.4 17.25 56.2 17.45 49.55 17.7 38.6 17.95 37.6 18.2 36.6 20.2 34.85 M23.8 48.95 L22.65 49.05 22.9 55.35 Q23.2 58.9 22.8 60.75 L22.8 61.1 23.25 61.35 23.15 61.25 23.5 54.45 23.8 48.95" fill="url(#gradient14)" fill-rule="evenodd" stroke="none"/>
  </g>
  <defs>
    <radialGradient cx="0" cy="0" gradientTransform="matrix(0.0944, 0.0, 0.0, 0.0944, 7.75, 11.6)" gradientUnits="userSpaceOnUse" id="gradient0" r="819.2" spreadMethod="pad">
      <stop offset="0.0" stop-color="#ffffff"/>
      <stop offset="1.0" stop-color="#0099ff"/>
      <stop offset="1.0" stop-color="#ff66cc"/>
    </radialGradient>
    <linearGradient gradientTransform="matrix(0.0, -0.0367, 0.0275, 0.0, 29.3, 46.6)" gradientUnits="userSpaceOnUse" id="gradient1" spreadMethod="pad" x1="-819.2" x2="819.2">
      <stop offset="0.0" stop-color="#ffffff"/>
      <stop offset="0.396078431372549" stop-color="#e9f7ff"/>
      <stop offset="1.0" stop-color="#0099ff"/>
      <stop offset="1.0" stop-color="#ff66cc"/>
    </linearGradient>
    <radialGradient cx="0" cy="0" gradientTransform="matrix(0.1071, 0.0, 0.0, 0.1071, 71.45, 13.95)" gradientUnits="userSpaceOnUse" id="gradient2" r="819.2" spreadMethod="pad">
      <stop offset="0.0" stop-color="#ffffff"/>
      <stop offset="1.0" stop-color="#0099ff"/>
      <stop offset="1.0" stop-color="#ff66cc"/>
    </radialGradient>
    <linearGradient gradientTransform="matrix(0.0, -0.0414, 0.0272, 0.0, 95.4, 46.7)" gradientUnits="userSpaceOnUse" id="gradient3" spreadMethod="pad" x1="-819.2" x2="819.2">
      <stop offset="0.0" stop-color="#ffffff"/>
      <stop offset="0.396078431372549" stop-color="#e9f7ff"/>
      <stop offset="1.0" stop-color="#0099ff"/>
      <stop offset="1.0" stop-color="#ff66cc"/>
    </linearGradient>
    <linearGradient gradientTransform="matrix(0.0, -0.0403, 0.0289, 0.0, 163.05, 47.0)" gradientUnits="userSpaceOnUse" id="gradient4" spreadMethod="pad" x1="-819.2" x2="819.2">
      <stop offset="0.0" stop-color="#ffffff"/>
      <stop offset="0.396078431372549" stop-color="#e9f7ff"/>
      <stop offset="1.0" stop-color="#0099ff"/>
      <stop offset="1.0" stop-color="#ff66cc"/>
    </linearGradient>
    <radialGradient cx="0" cy="0" gradientTransform="matrix(0.0947, 0.0, 0.0, 0.0947, 139.9, 14.8)" gradientUnits="userSpaceOnUse" id="gradient5" r="819.2" spreadMethod="pad">
      <stop offset="0.0" stop-color="#ffffff"/>
      <stop offset="1.0" stop-color="#0099ff"/>
      <stop offset="1.0" stop-color="#ff66cc"/>
    </radialGradient>
    <radialGradient cx="0" cy="0" gradientTransform="matrix(0.1039, 0.0, 0.0, 0.1039, 206.9, 16.4)" gradientUnits="userSpaceOnUse" id="gradient6" r="819.2" spreadMethod="pad">
      <stop offset="0.0" stop-color="#ffffff"/>
      <stop offset="1.0" stop-color="#0099ff"/>
      <stop offset="1.0" stop-color="#ff66cc"/>
    </radialGradient>
    <linearGradient gradientTransform="matrix(0.0, -0.0414, 0.0272, 0.0, 229.8, 46.7)" gradientUnits="userSpaceOnUse" id="gradient7" spreadMethod="pad" x1="-819.2" x2="819.2">
      <stop offset="0.0" stop-color="#ffffff"/>
      <stop offset="0.396078431372549" stop-color="#e9f7ff"/>
      <stop offset="1.0" stop-color="#0099ff"/>
      <stop offset="1.0" stop-color="#ff66cc"/>
    </linearGradient>
    <radialGradient cx="0" cy="0" gradientTransform="matrix(0.1165, 0.0, 0.0, 0.1165, 272.2, 15.55)" gradientUnits="userSpaceOnUse" id="gradient8" r="819.2" spreadMethod="pad">
      <stop offset="0.0" stop-color="#ffffff"/>
      <stop offset="1.0" stop-color="#0099ff"/>
      <stop offset="1.0" stop-color="#ff66cc"/>
    </radialGradient>
    <linearGradient gradientTransform="matrix(0.0, -0.0417, 0.0391, 0.0, 307.6, 46.15)" gradientUnits="userSpaceOnUse" id="gradient9" spreadMethod="pad" x1="-819.2" x2="819.2">
      <stop offset="0.0" stop-color="#ffffff"/>
      <stop offset="0.396078431372549" stop-color="#e9f7ff"/>
      <stop offset="1.0" stop-color="#0099ff"/>
      <stop offset="1.0" stop-color="#ff66cc"/>
    </linearGradient>
    <radialGradient cx="0" cy="0" gradientTransform="matrix(0.1146, 0.0, 0.0, 0.1146, 363.75, 9.25)" gradientUnits="userSpaceOnUse" id="gradient10" r="819.2" spreadMethod="pad">
      <stop offset="0.0" stop-color="#ffffff"/>
      <stop offset="1.0" stop-color="#0099ff"/>
      <stop offset="1.0" stop-color="#ff66cc"/>
    </radialGradient>
    <linearGradient gradientTransform="matrix(0.0, -0.0479, 0.0295, 0.0, 385.7, 46.5)" gradientUnits="userSpaceOnUse" id="gradient11" spreadMethod="pad" x1="-819.2" x2="819.2">
      <stop offset="0.0" stop-color="#ffffff"/>
      <stop offset="0.396078431372549" stop-color="#e9f7ff"/>
      <stop offset="1.0" stop-color="#0099ff"/>
      <stop offset="1.0" stop-color="#ff66cc"/>
    </linearGradient>
    <radialGradient cx="0" cy="0" gradientTransform="matrix(0.1052, 0.0, 0.0, 0.1052, 431.45, 14.8)" gradientUnits="userSpaceOnUse" id="gradient12" r="819.2" spreadMethod="pad">
      <stop offset="0.0" stop-color="#ffffff"/>
      <stop offset="1.0" stop-color="#0099ff"/>
      <stop offset="1.0" stop-color="#ff66cc"/>
    </radialGradient>
    <linearGradient gradientTransform="matrix(0.0, -0.0414, 0.0272, 0.0, 453.7, 46.7)" gradientUnits="userSpaceOnUse" id="gradient13" spreadMethod="pad" x1="-819.2" x2="819.2">
      <stop offset="0.0" stop-color="#ffffff"/>
      <stop offset="0.396078431372549" stop-color="#e9f7ff"/>
      <stop offset="1.0" stop-color="#0099ff"/>
      <stop offset="1.0" stop-color="#ff66cc"/>
    </linearGradient>
    <radialGradient cx="0" cy="0" gradientTransform="matrix(0.0397, 0.0, 0.0, 0.0397, 27.1, 38.2)" gradientUnits="userSpaceOnUse" id="gradient14" r="819.2" spreadMethod="pad">
      <stop offset="0.0" stop-color="#ffffff"/>
      <stop offset="1.0" stop-color="#0099ff"/>
      <stop offset="1.0" stop-color="#ff66cc"/>
    </radialGradient>
  </defs>
</svg>
