<?xml version="1.0" encoding="UTF-8" standalone="no"?>
<svg xmlns:xlink="http://www.w3.org/1999/xlink" height="92.25px" width="415.25px" xmlns="http://www.w3.org/2000/svg">
  <g transform="matrix(1.0, 0.0, 0.0, 1.0, 0.0, 0.0)">
    <path d="M1.7 11.7 L1.45 6.95 Q1.4 3.1 4.45 3.1 L10.25 3.1 25.9 1.9 41.8 0.9 55.6 0.5 57.9 3.0 Q60.5 8.8 61.5 18.75 62.85 30.6 63.7 34.3 L63.8 36.75 Q63.75 38.75 61.6 39.25 L51.75 40.8 Q51.4 41.05 51.4 42.15 L51.6 44.25 52.0 45.9 54.95 62.9 Q56.5 70.3 56.55 77.15 L56.1 84.65 54.7 89.6 Q53.9 91.95 50.55 91.95 47.85 91.75 34.6 92.2 L18.1 91.6 Q15.95 89.35 15.8 85.4 15.55 80.85 15.3 79.9 L14.15 61.0 Q13.45 49.6 12.1 43.0 L11.2 42.3 6.0 42.05 Q2.25 41.55 0.35 39.0 0.0 36.25 0.0 33.4 0.0 29.6 0.85 22.45 1.65 15.2 1.7 11.7 M15.0 11.4 L10.85 11.4 Q9.0 11.4 8.65 11.75 6.7 25.4 6.5 34.05 L8.75 34.3 13.05 34.5 Q17.5 34.65 18.6 38.75 20.25 53.2 22.3 82.7 L22.9 83.6 Q25.05 84.45 32.15 84.8 L35.1 84.45 37.7 84.05 Q39.45 84.0 40.2 84.8 40.95 84.5 43.1 84.8 L46.35 84.8 Q48.05 84.75 48.9 84.1 50.15 80.5 50.15 75.55 50.15 73.75 47.9 57.7 46.35 50.55 44.75 35.5 46.75 32.8 50.9 32.45 L55.85 32.35 56.45 31.8 55.95 26.5 Q55.55 22.6 55.7 20.5 L54.95 14.1 Q54.25 10.3 53.25 8.8 L40.9 8.5 Q34.65 8.4 15.0 11.4" fill="url(#gradient0)" fill-rule="evenodd" stroke="none"/>
    <path d="M15.0 11.4 Q34.65 8.4 40.9 8.5 L53.25 8.8 Q54.25 10.3 54.95 14.1 L55.7 20.5 Q55.55 22.6 55.95 26.5 L56.45 31.8 55.85 32.35 50.9 32.45 Q46.75 32.8 44.75 35.5 46.35 50.55 47.9 57.7 50.15 73.75 50.15 75.55 50.15 80.5 48.9 84.1 48.05 84.75 46.35 84.8 L43.1 84.8 Q40.95 84.5 40.2 84.8 39.45 84.0 37.7 84.05 L35.1 84.45 32.15 84.8 Q25.05 84.45 22.9 83.6 L22.3 82.7 Q20.25 53.2 18.6 38.75 17.5 34.65 13.05 34.5 L8.75 34.3 6.5 34.05 Q6.7 25.4 8.65 11.75 9.0 11.4 10.85 11.4 L15.0 11.4" fill="url(#gradient1)" fill-rule="evenodd" stroke="none"/>
    <path d="M144.55 20.85 L144.65 21.2 145.5 24.15 Q146.9 26.8 148.7 33.05 150.45 39.35 151.8 42.15 L161.7 63.6 Q169.3 78.2 173.1 79.75 L182.75 80.1 Q189.3 80.1 192.25 80.25 L192.95 79.85 198.5 66.2 Q201.9 57.15 204.3 57.2 206.4 57.1 210.1 65.0 L216.05 78.15 Q216.3 78.65 218.95 79.75 L228.55 80.1 Q235.1 80.1 238.05 80.25 L238.85 79.75 Q241.9 73.1 245.2 61.0 249.8 44.25 250.65 42.05 251.65 38.5 253.1 31.05 254.5 23.55 255.6 20.0 256.95 15.8 256.65 15.2 252.9 14.0 244.25 12.45 243.85 12.95 243.15 15.2 L239.9 26.15 Q238.25 37.85 235.15 44.25 235.15 46.05 232.9 50.3 227.95 50.8 226.1 46.45 224.3 41.55 223.65 40.95 221.2 32.55 217.25 15.95 L216.9 14.55 Q216.65 13.95 216.15 14.35 209.65 13.0 198.5 12.45 197.9 12.95 197.4 15.15 196.95 16.1 194.1 26.15 192.35 37.75 189.3 44.15 189.3 46.1 187.2 50.3 181.9 50.8 180.25 44.9 178.45 41.55 177.85 40.95 175.35 32.55 171.55 15.95 L170.9 14.3 Q170.85 13.85 170.7 14.2 164.4 15.35 152.3 19.0 L144.55 20.85 M140.2 13.2 L145.15 12.75 Q158.0 8.8 170.45 6.8 172.5 6.8 176.55 9.25 178.2 12.6 179.2 17.15 L181.05 25.05 Q182.15 26.8 182.9 31.2 L183.95 36.65 184.85 33.9 185.85 26.4 Q188.05 19.9 191.6 6.7 L193.85 5.45 Q212.25 5.1 216.25 6.8 L216.4 6.8 Q218.35 6.8 222.45 9.15 223.95 12.6 225.0 17.15 225.8 20.85 226.95 25.05 228.0 26.8 228.7 31.2 229.35 35.55 229.7 36.65 230.2 35.55 230.65 32.1 L231.7 26.3 Q233.95 19.9 237.45 6.7 L239.8 5.45 252.35 7.4 Q253.85 8.2 257.95 9.05 261.9 9.8 264.1 11.15 265.55 12.4 265.55 14.05 265.55 15.1 264.6 16.8 263.7 18.4 263.85 19.35 262.35 24.85 260.35 36.9 258.55 40.1 256.95 46.95 255.25 53.8 253.95 56.85 253.0 60.55 251.15 69.25 250.4 70.15 250.05 72.85 249.65 75.6 248.45 76.9 247.85 78.2 246.95 81.6 245.35 84.8 242.4 85.9 223.8 86.4 218.35 85.45 215.7 86.3 212.35 84.2 209.25 80.0 205.35 69.1 L205.3 69.25 Q204.45 70.25 204.05 72.95 203.7 75.55 202.6 76.9 L201.0 81.5 Q199.55 84.8 196.45 85.9 178.05 86.4 172.5 85.45 169.8 86.3 166.5 84.2 163.45 79.75 159.85 73.0 L154.65 62.6 Q153.05 60.3 150.7 55.0 148.4 49.7 146.55 47.2 143.0 36.9 135.45 17.0 136.4 13.6 140.2 13.2" fill="url(#gradient2)" fill-rule="evenodd" stroke="none"/>
    <path d="M144.55 20.85 L152.3 19.0 Q164.4 15.35 170.7 14.2 170.85 13.85 170.9 14.3 L171.55 15.95 Q175.35 32.55 177.85 40.95 178.45 41.55 180.25 44.9 181.9 50.8 187.2 50.3 189.3 46.1 189.3 44.15 192.35 37.75 194.1 26.15 196.95 16.1 197.4 15.15 197.9 12.95 198.5 12.45 209.65 13.0 216.15 14.35 216.65 13.95 216.9 14.55 L217.25 15.95 Q221.2 32.55 223.65 40.95 224.3 41.55 226.1 46.45 227.95 50.8 232.9 50.3 235.15 46.05 235.15 44.25 238.25 37.85 239.9 26.15 L243.15 15.2 Q243.85 12.95 244.25 12.45 252.9 14.0 256.65 15.2 256.95 15.8 255.6 20.0 254.5 23.55 253.1 31.05 251.65 38.5 250.65 42.05 249.8 44.25 245.2 61.0 241.9 73.1 238.85 79.75 L238.05 80.25 Q235.1 80.1 228.55 80.1 L218.95 79.75 Q216.3 78.65 216.05 78.15 L210.1 65.0 Q206.4 57.1 204.3 57.2 201.9 57.15 198.5 66.2 L192.95 79.85 192.25 80.25 Q189.3 80.1 182.75 80.1 L173.1 79.75 Q169.3 78.2 161.7 63.6 L151.8 42.15 Q150.45 39.35 148.7 33.05 146.9 26.8 145.5 24.15 L144.65 21.2 144.55 20.85" fill="url(#gradient3)" fill-rule="evenodd" stroke="none"/>
    <path d="M84.4 6.1 L96.25 4.7 106.6 4.95 115.2 7.05 Q120.65 8.7 123.95 11.35 126.8 15.7 126.8 23.45 L126.65 28.0 126.55 34.3 Q126.6 37.65 125.3 44.25 123.95 50.7 123.85 53.9 121.3 68.7 120.3 71.9 117.1 82.1 109.45 87.55 104.05 87.55 96.1 86.05 L84.4 83.7 Q77.5 81.75 73.7 76.95 71.95 64.1 71.85 29.0 71.85 26.5 72.35 21.85 L72.85 15.15 72.85 10.65 Q77.5 6.95 84.4 6.1 M74.75 26.05 Q75.95 26.45 77.15 48.3 77.05 64.2 78.5 73.6 80.0 75.45 83.4 76.55 L90.2 78.15 99.45 79.9 Q104.4 81.0 107.35 80.9 109.3 79.3 112.5 75.3 115.5 69.4 117.3 59.7 L119.65 43.0 Q121.05 33.7 121.1 26.75 121.05 21.35 120.25 16.9 119.9 16.3 118.3 15.45 L115.85 14.2 107.3 11.95 100.8 11.5 Q77.85 11.5 77.85 18.4 L77.85 20.0 77.85 21.6 Q77.8 23.95 74.75 26.05" fill="url(#gradient4)" fill-rule="evenodd" stroke="none"/>
    <path d="M74.75 26.05 Q77.8 23.95 77.85 21.6 L77.85 20.0 77.85 18.4 Q77.85 11.5 100.8 11.5 L107.3 11.95 115.85 14.2 118.3 15.45 Q119.9 16.3 120.25 16.9 121.05 21.35 121.1 26.75 121.05 33.7 119.65 43.0 L117.3 59.7 Q115.5 69.4 112.5 75.3 109.3 79.3 107.35 80.9 104.4 81.0 99.45 79.9 L90.2 78.15 83.4 76.55 Q80.0 75.45 78.5 73.6 77.05 64.2 77.15 48.3 75.95 26.45 74.75 26.05 M104.85 16.65 Q100.45 15.35 99.1 18.6 100.6 29.4 99.95 45.0 100.8 49.6 102.9 50.7 108.35 51.45 111.0 48.7 112.85 44.55 112.85 39.95 112.85 36.05 111.4 29.85 L109.2 20.15 Q108.8 18.15 104.85 16.65" fill="url(#gradient5)" fill-rule="evenodd" stroke="none"/>
    <path d="M105.45 28.15 L105.75 24.65 Q104.4 24.65 104.85 25.5 L105.45 28.15 105.45 33.3 103.3 42.35 106.0 43.65 106.25 43.65 Q107.2 41.55 107.2 38.6 107.2 36.05 106.45 32.35 L105.45 28.15 M104.85 16.65 Q108.8 18.15 109.2 20.15 L111.4 29.85 Q112.85 36.05 112.85 39.95 112.85 44.55 111.0 48.7 108.35 51.45 102.9 50.7 100.8 49.6 99.95 45.0 100.6 29.4 99.1 18.6 100.45 15.35 104.85 16.65" fill="url(#gradient6)" fill-rule="evenodd" stroke="none"/>
    <path d="M323.0 6.95 Q327.15 8.55 328.65 12.1 329.0 14.7 328.65 18.75 328.15 22.85 328.25 24.65 327.3 26.9 325.55 27.75 L313.75 27.75 Q306.95 27.75 303.25 29.25 302.55 29.5 303.0 29.85 303.5 30.2 305.1 30.35 L308.95 30.85 Q314.75 31.95 315.8 32.45 320.5 34.15 322.35 37.85 323.6 41.1 324.7 52.65 323.15 56.15 318.4 56.25 313.65 56.25 312.85 57.45 312.4 57.85 313.95 58.2 L319.5 58.35 325.1 58.35 Q332.0 62.15 332.0 73.85 L330.9 80.9 Q330.25 85.2 326.9 87.25 314.6 87.3 302.75 87.5 L278.25 86.3 Q275.55 84.55 274.9 80.9 L274.3 76.05 Q273.95 71.9 273.95 67.1 273.95 62.9 274.3 54.5 L274.7 41.9 Q274.7 36.5 274.3 31.85 274.3 28.3 275.15 21.75 275.9 15.2 275.9 11.85 276.7 8.8 279.35 8.5 L283.95 7.9 Q300.55 4.15 315.8 4.95 L323.0 6.95 M315.1 12.85 L309.3 12.45 Q303.75 12.4 296.0 13.85 L283.4 16.3 282.7 16.9 Q280.7 30.95 281.35 39.45 L281.35 44.6 280.95 54.85 Q280.6 61.95 280.6 65.95 L280.7 71.1 280.95 75.3 Q281.25 77.6 282.1 78.4 287.9 79.8 300.65 79.85 L302.3 79.85 314.5 80.35 318.65 80.0 323.1 80.35 Q325.25 78.5 325.1 69.9 325.5 67.95 324.45 67.4 323.6 66.85 320.4 66.8 L316.45 66.35 311.55 66.1 Q307.2 66.2 306.0 62.9 L306.0 51.45 307.85 49.3 317.3 48.6 317.65 48.35 Q318.05 44.5 316.05 41.2 309.95 37.9 304.1 37.95 L299.35 38.5 Q296.75 37.85 296.45 35.25 L295.85 32.3 295.85 27.0 Q296.0 23.5 298.3 21.25 L310.2 20.85 321.25 20.85 Q321.75 20.4 321.75 18.65 L321.35 15.2 Q320.9 14.55 318.95 14.05 L315.1 12.85" fill="url(#gradient7)" fill-rule="evenodd" stroke="none"/>
    <path d="M315.1 12.85 L318.95 14.05 Q320.9 14.55 321.35 15.2 L321.75 18.65 Q321.75 20.4 321.25 20.85 L310.2 20.85 298.3 21.25 Q296.0 23.5 295.85 27.0 L295.85 32.3 296.45 35.25 Q296.75 37.85 299.35 38.5 L304.1 37.95 Q309.95 37.9 316.05 41.2 318.05 44.5 317.65 48.35 L317.3 48.6 307.85 49.3 306.0 51.45 306.0 62.9 Q307.2 66.2 311.55 66.1 L316.45 66.35 320.4 66.8 Q323.6 66.85 324.45 67.4 325.5 67.95 325.1 69.9 325.25 78.5 323.1 80.35 L318.65 80.0 314.5 80.35 302.3 79.85 300.65 79.85 Q287.9 79.8 282.1 78.4 281.25 77.6 280.95 75.3 L280.7 71.1 280.6 65.95 Q280.6 61.95 280.95 54.85 L281.35 44.6 281.35 39.45 Q280.7 30.95 282.7 16.9 L283.4 16.3 296.0 13.85 Q303.75 12.4 309.3 12.45 L315.1 12.85" fill="url(#gradient8)" fill-rule="evenodd" stroke="none"/>
    <path d="M350.85 6.95 L361.55 4.85 Q380.9 5.2 379.9 4.0 385.7 4.0 390.9 5.55 L400.5 6.95 Q406.3 8.8 408.4 13.45 415.2 25.55 415.25 39.25 L415.0 44.25 Q414.8 47.25 411.95 48.35 L406.75 50.45 Q402.95 50.7 398.05 52.65 L389.9 55.95 Q389.55 55.95 390.0 56.1 L398.25 63.4 Q403.6 67.95 406.3 72.1 L406.3 75.1 398.25 82.95 Q393.6 83.5 388.9 79.25 384.25 75.1 383.15 74.8 L383.15 74.85 Q384.0 81.05 383.45 83.2 L381.55 84.65 370.4 85.4 359.85 85.9 352.95 87.5 345.25 88.25 Q342.45 86.05 341.85 82.25 L341.2 76.3 Q341.15 69.95 340.5 56.85 339.85 44.4 339.85 37.85 339.85 34.65 340.45 28.6 L340.95 19.6 Q340.9 15.7 340.25 11.5 344.6 8.2 350.85 6.95 M348.35 16.8 Q347.8 24.6 347.65 40.35 348.6 47.25 348.5 60.55 348.3 74.1 349.1 80.1 L349.2 80.35 Q354.45 79.3 367.45 78.25 L372.0 78.15 375.95 77.8 376.25 75.2 375.75 70.65 Q375.25 67.35 375.25 66.05 375.5 64.6 376.95 63.75 378.45 63.15 380.05 64.0 384.7 67.55 393.45 75.2 L394.6 75.2 396.65 73.45 Q398.15 72.15 397.9 71.9 395.95 69.4 391.5 65.8 L384.25 59.65 381.0 56.45 Q379.3 54.65 379.8 51.9 380.8 50.05 382.5 49.55 384.25 49.0 385.7 48.8 389.15 46.5 395.8 44.9 403.85 43.15 406.25 42.15 L406.9 41.3 Q407.75 38.6 407.75 34.9 407.75 30.35 406.55 26.25 L404.4 20.45 Q402.95 16.4 401.6 14.95 387.8 11.15 380.0 11.15 L374.5 11.5 Q366.15 11.4 354.55 13.7 352.45 14.45 350.7 15.15 348.85 15.7 348.35 16.8" fill="url(#gradient9)" fill-rule="evenodd" stroke="none"/>
    <path d="M348.35 16.8 Q348.85 15.7 350.7 15.15 352.45 14.45 354.55 13.7 366.15 11.4 374.5 11.5 L380.0 11.15 Q387.8 11.15 401.6 14.95 402.95 16.4 404.4 20.45 L406.55 26.25 Q407.75 30.35 407.75 34.9 407.75 38.6 406.9 41.3 L406.25 42.15 Q403.85 43.15 395.8 44.9 389.15 46.5 385.7 48.8 384.25 49.0 382.5 49.55 380.8 50.05 379.8 51.9 379.3 54.65 381.0 56.45 L384.25 59.65 391.5 65.8 Q395.95 69.4 397.9 71.9 398.15 72.15 396.65 73.45 L394.6 75.2 393.45 75.2 Q384.7 67.55 380.05 64.0 378.45 63.15 376.95 63.75 375.5 64.6 375.25 66.05 375.25 67.35 375.75 70.65 L376.25 75.2 375.95 77.8 372.0 78.15 367.45 78.25 Q354.45 79.3 349.2 80.35 L349.1 80.1 Q348.3 74.1 348.5 60.55 348.6 47.25 347.65 40.35 347.8 24.6 348.35 16.8 M362.15 15.05 Q360.45 15.2 359.05 16.2 356.65 19.9 356.65 25.55 L357.0 33.2 Q361.8 47.15 362.4 48.35 365.05 51.2 368.1 51.45 373.75 51.8 375.7 48.6 375.7 46.75 374.7 44.15 373.6 41.55 373.85 40.2 372.3 21.35 371.8 18.3 370.55 14.75 365.6 14.8 L362.15 15.05" fill="url(#gradient10)" fill-rule="evenodd" stroke="none"/>
    <path d="M362.15 15.05 L365.6 14.8 Q370.55 14.75 371.8 18.3 372.3 21.35 373.85 40.2 373.6 41.55 374.7 44.15 375.7 46.75 375.7 48.6 373.75 51.8 368.1 51.45 365.05 51.2 362.4 48.35 361.8 47.15 357.0 33.2 L356.65 25.55 Q356.65 19.9 359.05 16.2 360.45 15.2 362.15 15.05 M365.1 22.95 L365.0 22.95 Q364.05 25.7 364.05 29.25 364.05 35.9 366.7 41.15 L365.65 23.45 Q365.75 22.95 365.1 22.95 M366.7 41.15 L366.85 43.05 Q366.95 42.45 367.45 42.45 L366.7 41.15" fill="url(#gradient11)" fill-rule="evenodd" stroke="none"/>
  </g>
  <defs>
    <radialGradient cx="0" cy="0" gradientTransform="matrix(0.1142, 0.0, 0.0, 0.1142, 6.4, 10.3)" gradientUnits="userSpaceOnUse" id="gradient0" r="819.2" spreadMethod="pad">
      <stop offset="0.0" stop-color="#ffffff"/>
      <stop offset="1.0" stop-color="#0099ff"/>
      <stop offset="1.0" stop-color="#ff66cc"/>
    </radialGradient>
    <linearGradient gradientTransform="matrix(0.0, -0.0466, 0.0305, 0.0, 31.45, 46.65)" gradientUnits="userSpaceOnUse" id="gradient1" spreadMethod="pad" x1="-819.2" x2="819.2">
      <stop offset="0.0" stop-color="#ffffff"/>
      <stop offset="0.396078431372549" stop-color="#e9f7ff"/>
      <stop offset="1.0" stop-color="#0099ff"/>
      <stop offset="1.0" stop-color="#ff66cc"/>
    </linearGradient>
    <radialGradient cx="0" cy="0" gradientTransform="matrix(0.1477, 0.0, 0.0, 0.1477, 144.95, 17.55)" gradientUnits="userSpaceOnUse" id="gradient2" r="819.2" spreadMethod="pad">
      <stop offset="0.0" stop-color="#ffffff"/>
      <stop offset="1.0" stop-color="#0099ff"/>
      <stop offset="1.0" stop-color="#ff66cc"/>
    </radialGradient>
    <linearGradient gradientTransform="matrix(0.0, -0.0414, 0.0685, 0.0, 200.6, 46.35)" gradientUnits="userSpaceOnUse" id="gradient3" spreadMethod="pad" x1="-819.2" x2="819.2">
      <stop offset="0.0" stop-color="#ffffff"/>
      <stop offset="0.396078431372549" stop-color="#e9f7ff"/>
      <stop offset="1.0" stop-color="#0099ff"/>
      <stop offset="1.0" stop-color="#ff66cc"/>
    </linearGradient>
    <radialGradient cx="0" cy="0" gradientTransform="matrix(0.1009, 0.0, 0.0, 0.1009, 78.05, 11.15)" gradientUnits="userSpaceOnUse" id="gradient4" r="819.2" spreadMethod="pad">
      <stop offset="0.0" stop-color="#ffffff"/>
      <stop offset="1.0" stop-color="#0099ff"/>
      <stop offset="1.0" stop-color="#ff66cc"/>
    </radialGradient>
    <linearGradient gradientTransform="matrix(0.0, -0.0424, 0.0282, 0.0, 97.95, 46.25)" gradientUnits="userSpaceOnUse" id="gradient5" spreadMethod="pad" x1="-819.2" x2="819.2">
      <stop offset="0.0" stop-color="#ffffff"/>
      <stop offset="0.396078431372549" stop-color="#e9f7ff"/>
      <stop offset="1.0" stop-color="#0099ff"/>
      <stop offset="1.0" stop-color="#ff66cc"/>
    </linearGradient>
    <radialGradient cx="0" cy="0" gradientTransform="matrix(0.0359, 0.0, 0.0, 0.0359, 101.15, 22.25)" gradientUnits="userSpaceOnUse" id="gradient6" r="819.2" spreadMethod="pad">
      <stop offset="0.0" stop-color="#ffffff"/>
      <stop offset="1.0" stop-color="#0099ff"/>
      <stop offset="1.0" stop-color="#ff66cc"/>
    </radialGradient>
    <radialGradient cx="0" cy="0" gradientTransform="matrix(0.1092, 0.0, 0.0, 0.1092, 281.2, 10.3)" gradientUnits="userSpaceOnUse" id="gradient7" r="819.2" spreadMethod="pad">
      <stop offset="0.0" stop-color="#ffffff"/>
      <stop offset="1.0" stop-color="#0099ff"/>
      <stop offset="1.0" stop-color="#ff66cc"/>
    </radialGradient>
    <linearGradient gradientTransform="matrix(0.0, -0.0414, 0.0272, 0.0, 302.9, 46.4)" gradientUnits="userSpaceOnUse" id="gradient8" spreadMethod="pad" x1="-819.2" x2="819.2">
      <stop offset="0.0" stop-color="#ffffff"/>
      <stop offset="0.396078431372549" stop-color="#e9f7ff"/>
      <stop offset="1.0" stop-color="#0099ff"/>
      <stop offset="1.0" stop-color="#ff66cc"/>
    </linearGradient>
    <radialGradient cx="0" cy="0" gradientTransform="matrix(0.1046, 0.0, 0.0, 0.1046, 344.9, 15.95)" gradientUnits="userSpaceOnUse" id="gradient9" r="819.2" spreadMethod="pad">
      <stop offset="0.0" stop-color="#ffffff"/>
      <stop offset="1.0" stop-color="#0099ff"/>
      <stop offset="1.0" stop-color="#ff66cc"/>
    </radialGradient>
    <linearGradient gradientTransform="matrix(0.0, -0.0422, 0.0367, 0.0, 377.7, 45.75)" gradientUnits="userSpaceOnUse" id="gradient10" spreadMethod="pad" x1="-819.2" x2="819.2">
      <stop offset="0.0" stop-color="#ffffff"/>
      <stop offset="0.396078431372549" stop-color="#e9f7ff"/>
      <stop offset="1.0" stop-color="#0099ff"/>
      <stop offset="1.0" stop-color="#ff66cc"/>
    </linearGradient>
    <radialGradient cx="0" cy="0" gradientTransform="matrix(0.0388, 0.0, 0.0, 0.0388, 360.0, 22.25)" gradientUnits="userSpaceOnUse" id="gradient11" r="819.2" spreadMethod="pad">
      <stop offset="0.0" stop-color="#ffffff"/>
      <stop offset="1.0" stop-color="#0099ff"/>
      <stop offset="1.0" stop-color="#ff66cc"/>
    </radialGradient>
  </defs>
</svg>
