<?xml version="1.0" encoding="UTF-8" standalone="no"?>
<svg xmlns:xlink="http://www.w3.org/1999/xlink" height="47.15px" width="43.85px" xmlns="http://www.w3.org/2000/svg">
  <g transform="matrix(1.0, 0.0, 0.0, 1.0, 34.0, 40.95)">
    <path d="M-3.85 -33.45 Q-1.25 -34.95 0.4 -36.2 L-1.0 -31.65 -2.8 -23.05 Q-2.8 -19.65 0.5 -15.9 L4.75 -11.55 3.4 -11.6 Q-10.25 -11.6 -10.3 -1.3 -14.65 -11.15 -22.4 -11.15 L-23.95 -11.1 Q-26.3 -11.05 -29.65 -9.35 L-29.9 -9.2 -27.5 -13.6 Q-24.05 -20.7 -24.05 -24.05 -24.05 -27.3 -25.1 -29.4 L-26.35 -31.6 Q-21.5 -29.1 -16.05 -29.1 -11.3 -29.1 -3.85 -33.45" fill="#ffffff" fill-rule="evenodd" stroke="none"/>
    <path d="M4.1 -39.1 Q-1.0 -29.65 -1.0 -23.0 -1.0 -19.55 4.45 -14.45 L9.85 -9.75 Q9.85 -8.85 8.9 -8.85 L8.25 -9.0 7.6 -8.85 6.6 -9.3 3.35 -9.75 Q-8.5 -9.75 -8.5 -1.3 -8.5 1.6 -7.0 5.35 -7.0 6.2 -7.95 6.2 -9.45 6.2 -10.0 3.05 -10.6 2.8 -11.4 1.1 L-13.45 -3.1 Q-16.85 -9.3 -22.6 -9.3 -26.35 -9.3 -29.05 -7.4 -31.8 -5.55 -32.05 -5.55 -32.7 -5.55 -32.95 -6.0 L-33.0 -6.35 -33.1 -6.35 Q-34.0 -6.35 -34.0 -7.35 -31.95 -9.9 -29.9 -13.0 -25.85 -19.2 -25.85 -24.05 -25.85 -27.45 -28.7 -30.8 L-31.6 -33.9 Q-31.6 -34.7 -30.8 -34.8 L-30.85 -35.0 Q-30.85 -35.9 -29.95 -35.9 -29.35 -35.9 -26.15 -33.4 -21.95 -30.9 -16.3 -30.9 -13.8 -30.9 -10.65 -32.25 -8.8 -33.1 -4.3 -35.25 -3.4 -35.6 2.45 -40.95 3.3 -40.95 3.35 -40.05 4.1 -39.95 4.1 -39.1 M-3.85 -33.45 Q-11.3 -29.1 -16.05 -29.1 -21.5 -29.1 -26.35 -31.6 L-25.1 -29.4 Q-24.05 -27.3 -24.05 -24.05 -24.05 -20.7 -27.5 -13.6 L-29.9 -9.2 -29.65 -9.35 Q-26.3 -11.05 -23.95 -11.1 L-22.4 -11.15 Q-14.65 -11.15 -10.3 -1.3 -10.25 -11.6 3.4 -11.6 L4.75 -11.55 0.5 -15.9 Q-2.8 -19.65 -2.8 -23.05 L-1.0 -31.65 0.4 -36.2 Q-1.25 -34.95 -3.85 -33.45" fill="#000000" fill-rule="evenodd" stroke="none"/>
  </g>
</svg>
