<?xml version="1.0" encoding="UTF-8" standalone="no"?>
<svg xmlns:xlink="http://www.w3.org/1999/xlink" height="18.0px" width="15.7px" xmlns="http://www.w3.org/2000/svg">
  <g transform="matrix(1.0, 0.0, 0.0, 1.0, 0.0, 0.0)">
    <path d="M13.65 2.25 L13.6 2.3 13.65 2.3 13.65 2.4 13.6 2.4 13.6 2.45 13.6 2.4 13.6 2.35 13.55 2.35 13.6 2.35 13.6 2.3 13.6 2.25 13.6 2.2 13.65 2.2 13.65 2.25" fill="#000000" fill-rule="evenodd" stroke="none"/>
    <path d="M13.7 2.35 L13.75 2.35 13.75 2.4 13.75 2.45 13.7 2.45 13.7 2.4 13.7 2.35 13.65 2.35 13.65 2.3 13.7 2.3 13.7 2.25 13.7 2.2 13.65 2.2 13.7 2.15 13.75 2.15 13.75 2.2 13.7 2.25 13.7 2.3 13.75 2.3 13.7 2.3 13.7 2.35" fill="#000000" fill-rule="evenodd" stroke="none"/>
    <path d="M13.8 2.15 L13.85 2.15 13.8 2.15 13.8 2.2 13.8 2.25 13.8 2.3 13.8 2.35 13.85 2.35 13.8 2.35 13.8 2.4 13.8 2.45 13.85 2.45 13.85 2.5 13.8 2.5 13.75 2.5 13.75 2.45 13.8 2.45 13.8 2.4 13.75 2.4 13.75 2.35 13.8 2.35 13.75 2.3 13.75 2.25 13.8 2.2 13.75 2.2 13.75 2.15 13.8 2.15" fill="#000000" fill-rule="evenodd" stroke="none"/>
    <path d="M13.8 2.2 L13.85 2.25 13.8 2.3 13.85 2.35 13.8 2.35 13.8 2.4 13.75 2.4 13.75 2.35 13.8 2.35 13.8 2.3 13.75 2.25 13.8 2.2 13.8 2.15 13.8 2.2" fill="#000000" fill-rule="evenodd" stroke="none"/>
    <path d="M13.5 2.3 L13.5 2.35 13.5 2.4 13.5 2.45 13.45 2.45 13.5 2.45 13.5 2.5 13.45 2.5 13.45 2.45 13.45 2.4 13.5 2.4 13.5 2.35 13.45 2.35 13.45 2.3 13.5 2.3" fill="#000000" fill-rule="evenodd" stroke="none"/>
    <path d="M13.6 2.2 L13.65 2.2 13.65 2.25 13.6 2.25 13.6 2.3 13.65 2.35 13.65 2.4 13.6 2.4 13.65 2.45 13.65 2.5 13.65 2.45 13.6 2.45 13.6 2.4 13.6 2.35 13.55 2.35 13.6 2.35 13.6 2.3 13.55 2.3 13.55 2.25 13.6 2.25 13.6 2.2 13.6 2.15 13.6 2.2" fill="#000000" fill-rule="evenodd" stroke="none"/>
    <path d="M13.7 2.0 L13.7 2.05 13.75 2.05 13.7 2.1 13.7 2.15 13.7 2.2 13.7 2.3 13.65 2.3 13.65 2.35 13.7 2.35 13.65 2.35 13.65 2.3 13.65 2.25 13.7 2.25 13.65 2.25 13.65 2.2 13.7 2.15 13.65 2.15 13.65 2.1 13.65 2.05 13.7 2.05 13.7 2.0" fill="#000000" fill-rule="evenodd" stroke="none"/>
    <path d="M11.9 3.7 L11.7 4.7 12.55 5.45 Q14.7 7.6 14.7 10.65 14.7 13.7 12.55 15.85 10.4 18.0 7.35 18.0 4.3 18.0 2.15 15.85 0.0 13.7 0.0 10.65 0.0 7.6 2.15 5.45 4.3 3.3 7.35 3.3 L8.65 3.4 9.15 2.55 Q9.55 1.65 9.65 1.7 11.25 2.15 12.15 2.7 L11.9 3.7" fill="url(#gradient0)" fill-rule="evenodd" stroke="none"/>
    <path d="M13.05 1.7 Q12.9 1.05 12.1 1.05 L11.2 1.75 11.2 1.9 Q11.2 2.45 10.9 2.55 L10.6 2.65 10.55 2.6 10.4 2.45 10.35 2.4 10.35 2.3 10.35 2.25 10.45 1.8 Q10.45 1.55 11.0 1.05 11.6 0.5 12.1 0.5 13.6 0.5 13.6 1.9 L13.35 2.35 Q13.15 2.35 13.05 1.7" fill="#000000" fill-rule="evenodd" stroke="none"/>
    <path d="M12.4 1.35 L12.4 1.4 12.45 1.4 12.5 1.45 12.5 1.5 12.45 1.5 12.45 1.6 12.4 1.65 12.4 1.7 12.45 1.75 12.45 1.8 12.45 1.85 12.45 1.9 12.45 1.95 12.45 2.0 12.5 2.0 12.5 2.05 12.45 2.1 12.45 2.15 12.45 2.2 12.45 2.15 12.4 2.15 12.4 2.1 12.35 2.1 12.35 2.05 12.4 2.0 12.35 1.95 12.35 1.85 12.35 1.8 12.3 1.8 12.35 1.8 12.35 1.7 12.3 1.7 12.3 1.65 12.35 1.65 12.35 1.6 12.3 1.55 12.35 1.55 12.35 1.5 12.35 1.45 12.4 1.35" fill="#000000" fill-rule="evenodd" stroke="none"/>
    <path d="M12.65 2.1 L12.6 2.1 12.6 2.05 12.55 2.0 12.6 2.0 12.6 1.95 12.6 1.9 12.6 1.85 12.6 1.8 12.65 1.8 12.6 1.8 12.6 1.75 12.55 1.75 12.55 1.7 12.6 1.65 12.6 1.6 12.55 1.55 12.6 1.55 12.6 1.45 12.55 1.45 12.6 1.4 12.55 1.4 12.55 1.3 12.65 1.2 12.65 1.25 12.7 1.2 12.75 1.3 12.7 1.3 12.7 1.35 12.65 1.3 12.65 1.35 12.65 1.4 12.65 1.45 12.7 1.45 12.65 1.5 12.65 1.55 12.7 1.55 12.7 1.6 12.65 1.6 12.65 1.65 12.7 1.65 12.7 1.7 12.7 1.75 12.65 1.75 12.65 1.8 12.7 1.8 12.7 1.85 12.65 1.9 12.7 1.9 12.7 1.95 12.65 2.0 12.7 2.0 12.7 2.05 12.65 2.1" fill="#000000" fill-rule="evenodd" stroke="none"/>
    <path d="M13.1 1.45 L13.15 1.5 13.1 1.5 13.15 1.6 13.15 1.65 13.1 1.65 13.1 1.7 13.15 1.7 13.1 1.75 13.1 1.8 13.15 1.85 13.1 1.85 13.1 1.9 13.15 1.9 13.15 2.0 13.2 2.0 13.15 2.0 13.15 2.05 13.15 2.1 13.1 2.1 13.1 2.05 13.1 2.0 13.05 2.0 13.0 1.95 13.05 1.95 13.05 1.9 13.05 1.85 13.0 1.8 13.05 1.8 13.05 1.75 13.0 1.7 13.05 1.65 13.0 1.65 13.0 1.6 13.05 1.6 13.05 1.55 13.0 1.5 13.0 1.45 13.05 1.45 13.0 1.45 13.0 1.4 13.0 1.35 13.0 1.3 13.0 1.25 13.05 1.25 13.0 1.15 13.0 1.1 13.05 1.0 13.1 1.05 13.15 1.05 13.1 1.05 13.1 1.1 13.05 1.15 13.1 1.15 13.1 1.25 13.1 1.3 13.05 1.3 13.1 1.3 13.1 1.35 13.1 1.45" fill="#000000" fill-rule="evenodd" stroke="none"/>
    <path d="M13.95 1.4 L14.0 1.45 13.95 1.45 13.95 1.5 14.0 1.55 14.05 1.55 14.0 1.6 14.0 1.65 14.05 1.65 14.05 1.7 14.0 1.7 14.0 1.75 14.05 1.75 14.0 1.85 14.05 1.9 14.0 1.95 14.0 2.0 13.9 1.95 13.85 2.0 13.85 2.05 13.75 2.05 13.75 2.1 13.75 2.05 13.7 2.05 13.65 2.1 13.6 2.1 13.6 2.15 13.6 2.1 13.55 2.1 13.5 2.1 13.5 2.15 13.5 2.1 13.45 2.1 13.45 2.15 13.4 2.15 13.35 2.2 13.35 2.15 13.3 2.15 13.3 2.2 13.2 2.2 13.2 2.15 13.2 2.2 13.15 2.2 13.15 2.25 13.05 2.2 13.0 2.25 12.95 2.2 12.9 2.25 12.85 2.25 12.85 2.2 12.85 2.25 12.8 2.25 12.75 2.25 12.65 2.25 12.65 2.3 12.6 2.3 12.55 2.25 12.4 2.2 12.4 2.15 12.35 2.15 12.4 2.1 12.45 2.05 12.45 2.1 12.5 2.1 12.5 2.05 12.5 2.0 12.45 2.0 12.45 1.95 12.5 1.95 12.45 1.95 12.45 1.9 12.4 1.85 12.45 1.8 12.45 1.75 12.4 1.75 12.4 1.7 12.4 1.65 12.4 1.6 12.35 1.6 12.35 1.55 12.4 1.55 12.35 1.55 12.35 1.5 12.35 1.45 12.35 1.4 12.4 1.4 12.35 1.4 12.35 1.35 12.4 1.3 12.35 1.25 12.35 1.2 12.4 1.2 12.4 1.15 12.4 1.1 12.45 1.15 12.5 1.15 12.55 1.15 12.55 1.1 12.5 1.1 12.55 1.05 12.6 1.05 12.6 1.0 12.65 1.1 12.65 1.2 12.7 1.2 12.7 1.25 12.65 1.3 12.6 1.3 12.65 1.35 12.6 1.35 12.6 1.4 12.65 1.4 12.65 1.45 12.6 1.5 12.65 1.5 12.65 1.55 12.7 1.55 12.7 1.6 12.75 1.6 12.7 1.65 12.7 1.7 12.75 1.7 12.75 1.75 12.65 1.85 12.65 1.9 12.6 2.0 12.65 2.05 12.65 2.0 12.7 2.0 12.85 2.1 12.8 2.05 12.8 2.0 12.75 1.95 12.75 1.9 12.75 1.85 12.75 1.8 12.8 1.8 12.8 1.75 12.75 1.7 12.8 1.65 12.75 1.65 12.75 1.6 12.8 1.55 12.85 1.55 12.9 1.55 12.85 1.65 12.9 1.65 12.9 1.7 12.95 1.75 12.9 1.75 12.9 1.8 12.95 1.8 12.95 1.75 13.0 1.75 13.0 1.7 12.95 1.7 13.0 1.65 13.0 1.6 12.95 1.55 13.0 1.55 13.0 1.5 12.95 1.5 12.95 1.45 13.0 1.45 12.95 1.35 13.0 1.3 13.05 1.35 13.1 1.35 13.15 1.4 13.1 1.45 13.15 1.45 13.2 1.5 13.2 1.55 13.2 1.65 13.25 1.65 13.25 1.7 13.25 1.75 13.3 1.7 13.3 1.65 13.35 1.6 13.4 1.6 13.45 1.65 13.45 1.7 13.55 1.6 13.55 1.65 13.6 1.65 13.6 1.6 13.7 1.6 13.7 1.55 13.7 1.6 13.7 1.55 13.7 1.5 13.7 1.45 13.75 1.45 13.75 1.5 13.8 1.5 13.75 1.45 13.8 1.45 13.8 1.4 13.8 1.35 13.75 1.35 13.8 1.35 13.8 1.3 13.75 1.3 13.75 1.25 13.75 1.2 13.8 1.2 13.8 1.15 13.75 1.15 13.75 1.1 13.8 1.05 13.85 1.05 13.85 1.1 13.85 1.15 13.9 1.15 13.85 1.15 13.9 1.15 13.9 1.25 13.95 1.3 13.9 1.3 13.95 1.35 13.95 1.4 M13.5 1.8 L13.4 1.95 13.35 1.9 13.4 1.85 13.35 1.85 13.35 1.8 13.35 1.85 13.3 1.95 13.25 1.9 13.2 1.9 13.2 1.85 13.15 1.8 13.2 1.75 13.15 1.75 13.15 1.7 13.15 1.65 13.1 1.65 13.15 1.65 13.15 1.6 13.1 1.55 13.1 1.6 13.05 1.6 13.1 1.65 13.1 1.7 13.05 1.75 13.1 1.8 13.05 1.8 13.0 1.95 12.95 1.95 12.9 1.9 12.85 1.9 12.9 1.9 12.9 1.95 12.85 1.95 13.0 2.05 13.05 2.1 13.1 2.1 13.15 2.05 13.2 2.1 13.25 2.05 13.3 2.05 13.3 2.1 13.35 2.05 13.35 2.0 13.4 2.0 13.45 2.0 13.45 1.95 13.45 2.0 13.5 2.0 13.6 1.95 13.55 1.95 13.55 1.9 13.55 1.85 13.55 1.8 13.5 1.8 M13.7 1.9 L13.7 1.85 13.75 1.85 13.75 1.8 13.7 1.8 13.7 1.85 13.75 1.85 13.7 1.85 13.7 1.9 M12.5 1.35 L12.45 1.35 12.45 1.3 12.45 1.35 12.45 1.4 12.45 1.45 12.45 1.5 12.45 1.55 12.45 1.6 12.5 1.6 12.45 1.6 12.45 1.65 12.45 1.6 12.5 1.6 12.5 1.55 12.45 1.55 12.45 1.5 12.5 1.5 12.5 1.45 12.5 1.4 12.55 1.35 12.5 1.35" fill="#000000" fill-rule="evenodd" stroke="none"/>
    <path d="M12.8 1.9 L12.85 1.95 12.8 1.95 12.85 1.95 12.85 2.0 12.9 2.05 12.85 2.1 12.8 2.05 12.75 2.05 12.8 2.05 12.75 2.0 12.75 1.95 12.7 1.95 12.7 1.9 12.65 1.85 12.7 1.85 12.65 1.85 12.65 1.75 12.6 1.75 12.6 1.7 12.65 1.7 12.6 1.7 12.6 1.6 12.6 1.55 12.6 1.45 12.55 1.45 12.6 1.4 12.55 1.4 12.55 1.35 12.6 1.3 12.7 1.25 12.65 1.25 12.7 1.35 12.75 1.4 12.7 1.4 12.7 1.45 12.75 1.5 12.75 1.55 12.75 1.6 12.8 1.65 12.8 1.6 12.9 1.45 12.9 1.4 12.95 1.5 12.9 1.6 12.85 1.65 12.9 1.65 12.85 1.8 12.8 1.8 12.75 1.75 12.7 1.75 12.75 1.8 12.75 1.85 12.8 1.85 12.8 1.9" fill="#000000" fill-rule="evenodd" stroke="none"/>
    <path d="M13.1 1.45 L13.15 1.45 13.2 1.55 13.15 1.55 13.15 1.6 13.1 1.55 13.05 1.55 13.05 1.6 13.0 1.6 13.05 1.6 13.05 1.65 13.05 1.75 13.05 1.8 13.05 1.85 13.05 1.95 13.05 2.0 13.05 2.05 12.95 2.05 12.95 2.0 12.9 2.0 12.95 2.0 12.95 1.95 13.0 1.9 12.95 1.85 12.95 1.8 12.95 1.75 12.95 1.7 12.9 1.65 12.95 1.6 12.95 1.55 12.9 1.55 12.95 1.55 12.95 1.5 12.95 1.45 12.9 1.4 12.95 1.4 12.95 1.35 12.9 1.35 12.95 1.3 13.0 1.3 13.05 1.35 13.05 1.4 13.1 1.45" fill="#000000" fill-rule="evenodd" stroke="none"/>
    <path d="M13.4 1.6 L13.4 1.65 13.35 1.65 13.3 1.65 13.3 1.7 13.35 1.75 13.3 1.75 13.3 1.8 13.25 1.85 13.3 1.9 13.3 1.95 13.25 1.95 13.3 2.0 13.3 2.1 13.25 2.1 13.25 2.05 13.25 2.1 13.2 2.1 13.2 2.05 13.25 2.05 13.2 2.0 13.2 1.95 13.15 1.9 13.2 1.9 13.2 1.8 13.15 1.8 13.2 1.75 13.2 1.7 13.25 1.7 13.25 1.65 13.2 1.65 13.25 1.55 13.35 1.5 13.4 1.55 13.35 1.6 13.4 1.6" fill="#000000" fill-rule="evenodd" stroke="none"/>
    <path d="M13.4 1.5 L13.45 1.5 13.5 1.6 13.45 1.65 13.5 1.65 13.5 1.7 13.45 1.7 13.45 1.8 13.5 1.8 13.5 1.85 13.45 1.85 13.5 1.9 13.5 1.95 13.45 2.0 13.45 2.05 13.45 2.0 13.4 2.0 13.4 1.95 13.35 1.95 13.4 1.85 13.4 1.8 13.35 1.8 13.4 1.8 13.4 1.75 13.35 1.65 13.4 1.65 13.4 1.6 13.35 1.6 13.4 1.55 13.4 1.5 13.4 1.45 13.4 1.5" fill="#000000" fill-rule="evenodd" stroke="none"/>
    <path d="M11.75 1.7 L12.65 2.25 12.7 2.25 12.75 2.35 12.7 2.35 12.7 2.4 12.65 2.45 12.65 2.5 12.6 2.45 12.55 2.45 11.65 1.9 11.55 1.9 11.5 1.85 11.5 1.9 11.45 1.9 11.4 1.85 11.35 1.8 11.3 1.85 11.15 1.8 11.1 1.8 11.05 1.75 10.95 1.8 10.9 1.8 10.85 1.8 10.8 1.75 10.75 1.8 10.7 1.8 10.65 1.75 10.65 1.8 10.6 1.8 10.55 1.8 10.5 1.8 10.45 1.85 10.45 1.8 10.4 1.8 10.35 1.85 10.35 1.9 10.25 1.85 10.25 1.9 10.2 1.9 10.2 1.95 10.15 2.0 10.15 1.95 10.05 1.95 10.05 1.9 10.0 1.85 10.0 1.8 10.05 1.75 10.1 1.75 10.1 1.7 10.15 1.7 10.15 1.65 10.2 1.7 10.25 1.65 10.25 1.6 10.35 1.6 10.35 1.65 10.35 1.6 10.4 1.6 10.45 1.55 10.5 1.6 10.5 1.55 10.55 1.55 10.65 1.55 10.7 1.55 10.8 1.55 10.85 1.55 10.9 1.55 10.95 1.55 11.05 1.55 11.1 1.6 11.15 1.55 11.15 1.6 11.2 1.6 11.3 1.55 11.3 1.6 11.35 1.6 11.4 1.65 11.45 1.6 11.5 1.65 11.55 1.7 11.6 1.7 11.65 1.7 11.7 1.7 11.75 1.7" fill="#ffff00" fill-rule="evenodd" stroke="none"/>
    <path d="M12.95 2.1 L12.95 2.15 13.0 2.15 13.0 2.2 13.0 2.25 13.05 2.25 13.0 2.25 13.05 2.35 13.1 2.35 13.1 2.4 13.05 2.4 13.05 2.45 13.0 2.5 12.95 2.5 12.9 2.45 12.85 2.45 12.85 2.4 12.85 2.35 12.8 2.35 12.8 2.3 12.8 2.25 12.75 2.25 11.7 1.65 11.65 1.65 11.6 1.65 11.55 1.6 11.5 1.6 11.4 1.6 11.35 1.6 11.35 1.55 11.3 1.55 11.25 1.55 11.2 1.55 11.15 1.55 11.1 1.55 11.1 1.6 11.05 1.55 11.0 1.55 11.0 1.6 10.95 1.6 10.9 1.55 10.85 1.5 10.9 1.5 10.85 1.4 10.95 1.4 10.95 1.35 11.0 1.35 11.05 1.35 11.1 1.35 11.15 1.3 11.2 1.35 11.25 1.35 11.25 1.3 11.3 1.3 11.3 1.35 11.35 1.35 11.4 1.35 11.5 1.35 11.5 1.4 11.55 1.4 11.6 1.4 11.65 1.4 11.7 1.45 11.75 1.45 11.85 1.5 11.9 1.5 11.9 1.45 12.9 2.05 12.9 2.1 12.95 2.1" fill="#ffff00" fill-rule="evenodd" stroke="none"/>
    <path d="M13.3 1.8 L13.3 1.9 13.35 1.9 13.35 2.0 13.4 2.0 13.35 2.05 13.4 2.05 13.4 2.1 13.4 2.15 13.45 2.15 13.45 2.2 13.45 2.25 13.5 2.3 13.45 2.3 13.45 2.4 13.5 2.4 13.5 2.45 13.45 2.45 13.45 2.5 13.4 2.5 13.4 2.55 13.35 2.55 13.35 2.5 13.3 2.5 13.3 2.45 13.25 2.45 13.25 2.4 13.25 2.3 13.2 2.3 13.25 2.3 13.25 2.25 13.2 2.2 13.2 2.15 13.15 2.15 13.2 2.15 13.15 2.05 13.1 2.0 13.15 2.0 13.15 1.95 13.1 1.95 13.1 1.9 13.05 1.9 13.05 1.8 13.0 1.75 12.95 1.75 12.95 1.7 12.9 1.65 12.9 1.6 12.9 1.55 12.85 1.55 12.8 1.5 12.75 1.45 12.7 1.45 12.7 1.4 12.65 1.4 12.65 1.35 12.55 1.3 12.5 1.25 12.5 1.2 12.45 1.2 12.4 1.15 12.35 1.15 11.55 0.7 11.55 0.65 11.5 0.6 11.55 0.6 11.5 0.5 11.6 0.5 11.6 0.45 11.65 0.45 11.65 0.5 12.45 0.9 12.45 0.95 12.5 0.95 12.55 1.0 12.6 1.05 12.6 1.1 12.65 1.1 12.75 1.15 12.8 1.2 12.85 1.2 12.9 1.25 12.95 1.25 12.9 1.35 12.95 1.35 13.0 1.4 13.05 1.4 13.05 1.45 13.1 1.5 13.1 1.55 13.15 1.6 13.2 1.6 13.2 1.7 13.25 1.7 13.25 1.75 13.3 1.8" fill="#ffff00" fill-rule="evenodd" stroke="none"/>
    <path d="M12.9 1.75 L12.95 1.8 13.0 1.85 13.05 1.85 13.05 1.9 13.1 1.95 13.05 1.95 13.05 2.0 13.1 2.05 13.15 2.1 13.1 2.1 13.1 2.15 13.15 2.2 13.1 2.25 13.1 2.3 13.05 2.25 13.0 2.25 12.95 2.25 12.95 2.3 12.9 2.2 12.95 2.2 12.9 2.2 12.9 2.15 12.9 2.1 12.9 2.05 12.85 2.0 12.8 2.0 12.75 1.9 12.75 1.85 12.7 1.8 12.65 1.8 12.65 1.75 12.65 1.7 12.6 1.6 12.55 1.6 12.55 1.55 12.5 1.55 12.45 1.5 12.5 1.45 12.45 1.45 12.4 1.4 12.4 1.35 12.35 1.35 12.35 1.25 12.3 1.25 12.3 1.2 12.25 1.2 12.2 1.2 12.2 1.15 12.15 1.1 12.1 1.1 12.1 1.05 12.05 1.05 12.1 1.05 12.05 1.0 11.55 0.7 11.5 0.7 11.45 0.75 11.4 0.7 11.35 0.7 11.3 0.6 11.35 0.5 11.4 0.5 11.4 0.45 11.45 0.5 11.5 0.5 11.55 0.45 11.6 0.5 11.65 0.5 12.15 0.8 12.2 0.85 12.25 0.85 12.3 0.9 12.3 1.0 12.35 1.0 12.4 1.0 12.4 1.05 12.45 1.05 12.5 1.15 12.55 1.15 12.55 1.2 12.55 1.25 12.6 1.25 12.65 1.3 12.65 1.35 12.7 1.35 12.65 1.4 12.7 1.4 12.75 1.45 12.75 1.5 12.8 1.5 12.85 1.55 12.8 1.6 12.85 1.65 12.9 1.65 12.9 1.7 12.95 1.75 12.9 1.75" fill="#ffff00" fill-rule="evenodd" stroke="none"/>
    <path d="M14.65 0.2 L14.6 0.25 14.55 0.3 14.55 0.35 14.5 0.4 14.5 0.45 14.45 0.5 14.45 0.55 14.4 0.6 14.35 0.65 14.35 0.75 14.3 0.75 14.3 0.8 14.35 0.8 14.3 0.85 14.25 0.9 14.25 0.95 14.2 1.0 14.2 1.05 14.15 1.1 14.15 1.15 14.2 1.15 14.2 1.2 14.15 1.2 14.15 1.25 14.15 1.3 14.1 1.3 14.1 1.35 14.15 1.4 14.1 1.4 14.1 1.45 14.1 1.5 14.05 1.55 14.05 1.6 14.0 1.6 14.0 1.65 13.95 1.7 13.95 1.75 13.9 1.8 13.9 1.85 13.85 1.9 13.85 1.95 13.8 1.95 13.8 2.0 13.75 2.05 13.75 2.1 13.7 2.15 13.75 2.15 13.75 2.2 13.7 2.25 13.65 2.3 13.65 2.25 13.55 2.25 13.55 2.3 13.5 2.2 13.55 2.2 13.5 2.2 13.5 2.15 13.5 2.1 13.55 2.05 13.55 2.0 13.6 1.95 13.6 1.9 13.65 1.9 13.65 1.85 13.7 1.8 13.7 1.75 13.75 1.7 13.75 1.65 13.8 1.6 13.85 1.55 13.85 1.5 13.8 1.45 13.85 1.45 13.85 1.4 13.9 1.4 13.9 1.35 13.9 1.3 13.95 1.3 13.9 1.25 13.9 1.2 13.95 1.2 13.95 1.1 13.95 1.05 14.0 1.05 13.95 1.05 13.95 1.0 14.0 0.9 14.05 0.9 14.05 0.85 14.05 0.8 14.1 0.8 14.15 0.7 14.2 0.6 14.15 0.6 14.15 0.55 14.2 0.5 14.2 0.45 14.25 0.45 14.25 0.35 14.3 0.35 14.35 0.3 14.35 0.25 14.4 0.2 14.4 0.15 14.4 0.1 14.45 0.05 14.5 0.05 14.55 0.0 14.6 0.0 14.6 0.05 14.65 0.05 14.7 0.05 14.65 0.15 14.65 0.2" fill="#ffff00" fill-rule="evenodd" stroke="none"/>
    <path d="M15.55 1.25 L15.6 1.3 15.65 1.3 15.7 1.35 15.65 1.4 15.65 1.45 15.65 1.5 15.6 1.5 15.55 1.5 15.5 1.5 15.5 1.45 15.45 1.5 15.4 1.5 15.4 1.55 15.35 1.55 15.3 1.55 15.3 1.6 15.25 1.6 15.2 1.65 15.15 1.7 15.1 1.65 15.1 1.7 15.0 1.7 15.0 1.75 15.0 1.8 15.0 1.75 14.9 1.75 14.9 1.8 14.9 1.85 14.85 1.85 14.8 1.85 14.8 1.9 14.75 1.9 14.7 1.9 14.7 1.95 14.65 1.95 14.65 2.0 14.6 2.0 14.55 2.0 14.55 2.05 14.5 2.05 14.5 2.1 14.45 2.1 14.45 2.15 14.4 2.1 14.35 2.15 14.3 2.2 14.2 2.2 14.1 2.2 14.05 2.25 13.95 2.25 13.9 2.3 13.8 2.25 13.8 2.3 13.75 2.3 13.7 2.25 13.65 2.25 13.65 2.2 13.7 2.15 13.65 2.15 13.65 2.1 13.7 2.05 13.75 2.05 13.8 2.05 13.9 2.1 13.9 2.05 13.95 2.05 13.95 2.0 14.05 2.0 14.05 2.05 14.05 2.0 14.1 2.0 14.15 1.95 14.2 2.0 14.2 1.95 14.25 1.95 14.3 1.95 14.3 1.9 14.3 1.95 14.3 1.9 14.4 1.9 14.4 1.85 14.45 1.8 14.5 1.8 14.5 1.85 14.5 1.8 14.6 1.75 14.6 1.7 14.7 1.75 14.7 1.7 14.7 1.65 14.75 1.65 14.75 1.6 14.8 1.6 14.8 1.55 14.85 1.55 14.85 1.6 14.9 1.55 14.95 1.5 15.0 1.45 15.05 1.5 15.1 1.45 15.1 1.4 15.15 1.4 15.15 1.35 15.25 1.3 15.25 1.35 15.3 1.3 15.35 1.3 15.4 1.3 15.4 1.25 15.5 1.25 15.55 1.25" fill="#ffff00" fill-rule="evenodd" stroke="none"/>
    <path d="M15.05 0.9 L15.05 0.95 15.1 1.0 15.1 1.05 15.0 1.0 15.0 1.05 14.9 1.1 14.9 1.15 14.9 1.1 14.85 1.1 14.8 1.15 14.8 1.2 14.75 1.2 14.7 1.25 14.7 1.2 14.7 1.25 14.65 1.25 14.65 1.3 14.6 1.35 14.55 1.35 14.55 1.4 14.5 1.4 14.5 1.45 14.45 1.55 14.45 1.6 14.4 1.65 14.4 1.7 14.35 1.75 14.3 1.75 14.3 1.8 14.25 1.85 14.25 1.95 14.2 2.0 14.15 2.05 14.15 2.1 14.1 2.1 14.1 2.15 14.05 2.1 14.0 2.15 13.95 2.05 13.9 2.0 13.95 2.0 13.95 1.95 14.0 1.9 14.05 1.85 14.05 1.8 14.1 1.75 14.1 1.7 14.15 1.6 14.2 1.55 14.2 1.5 14.25 1.45 14.3 1.4 14.3 1.3 14.35 1.3 14.35 1.25 14.4 1.2 14.45 1.2 14.45 1.15 14.5 1.15 14.5 1.1 14.5 1.05 14.55 1.05 14.6 1.05 14.6 1.0 14.6 1.05 14.65 1.0 14.7 0.95 14.75 0.95 14.75 0.9 14.8 0.9 14.85 0.9 14.85 0.85 14.9 0.85 14.9 0.8 14.95 0.85 15.0 0.85 15.05 0.85 15.05 0.9 15.1 0.9 15.05 0.9" fill="#ffff00" fill-rule="evenodd" stroke="none"/>
    <path d="M14.35 2.15 L14.4 2.1 14.45 2.15 14.45 2.1 14.55 2.1 14.55 2.05 14.6 2.1 14.65 2.1 14.65 2.15 14.7 2.1 14.75 2.1 14.8 2.15 14.85 2.15 14.85 2.1 14.9 2.15 14.95 2.15 15.05 2.15 15.1 2.15 15.15 2.15 15.2 2.2 15.3 2.25 15.35 2.25 15.35 2.35 15.4 2.35 15.35 2.35 15.35 2.4 15.35 2.45 15.25 2.45 15.25 2.4 15.25 2.45 15.2 2.45 15.1 2.4 15.05 2.35 15.0 2.4 14.95 2.35 14.9 2.35 14.85 2.4 14.85 2.35 14.8 2.35 14.7 2.35 14.65 2.35 14.6 2.35 14.55 2.35 14.55 2.3 14.45 2.3 14.45 2.35 14.4 2.35 14.35 2.35 14.3 2.35 14.3 2.4 14.25 2.35 14.15 2.4 14.2 2.3 14.15 2.3 14.15 2.25 14.1 2.25 14.15 2.2 14.2 2.2 14.2 2.15 14.25 2.15 14.3 2.15 14.35 2.15" fill="#ffff00" fill-rule="evenodd" stroke="none"/>
    <path d="M14.1 2.25 L14.15 2.25 14.2 2.25 14.25 2.3 14.3 2.25 14.35 2.3 14.35 2.25 14.45 2.25 14.45 2.3 14.5 2.3 14.5 2.25 14.55 2.25 14.55 2.3 14.6 2.3 14.65 2.3 14.65 2.35 14.7 2.35 14.8 2.35 14.85 2.35 14.9 2.4 14.95 2.4 14.95 2.45 15.0 2.4 15.05 2.4 15.05 2.45 15.1 2.45 15.15 2.5 15.25 2.55 15.35 2.6 15.4 2.6 15.4 2.55 15.6 2.65 15.65 2.75 15.6 2.75 15.65 2.8 15.65 2.85 15.6 2.9 15.55 2.9 15.5 2.9 15.5 2.95 15.45 2.9 15.4 2.9 15.4 2.85 15.2 2.75 15.2 2.8 15.2 2.75 15.15 2.75 15.05 2.7 15.0 2.65 14.95 2.65 14.95 2.6 14.9 2.6 14.85 2.6 14.75 2.6 14.7 2.55 14.65 2.55 14.6 2.55 14.55 2.55 14.55 2.5 14.5 2.5 14.45 2.5 14.4 2.5 14.35 2.5 14.3 2.5 14.3 2.45 14.25 2.5 14.15 2.45 14.15 2.5 14.1 2.5 14.1 2.45 14.05 2.5 14.0 2.5 13.95 2.45 13.9 2.5 13.85 2.4 13.9 2.4 13.85 2.4 13.85 2.35 13.9 2.3 13.9 2.25 13.95 2.25 14.05 2.25 14.1 2.25" fill="#ffff00" fill-rule="evenodd" stroke="none"/>
    <path d="M15.25 3.55 L15.3 3.6 15.3 3.65 15.35 3.65 15.35 3.7 15.3 3.7 15.3 3.75 15.35 3.8 15.35 3.85 15.3 3.85 15.3 3.9 15.25 3.9 15.2 3.95 15.2 3.9 15.15 3.9 15.15 3.85 15.15 3.8 15.1 3.75 15.1 3.7 15.05 3.7 15.1 3.7 15.1 3.65 15.05 3.65 15.05 3.6 15.0 3.55 15.05 3.55 15.0 3.55 15.0 3.45 14.95 3.45 14.95 3.4 14.9 3.35 14.95 3.35 14.9 3.35 14.9 3.3 14.85 3.3 14.8 3.25 14.8 3.2 14.75 3.2 14.7 3.15 14.7 3.05 14.65 3.05 14.6 3.05 14.6 3.0 14.55 3.0 14.5 3.0 14.5 2.95 14.45 2.95 14.45 2.9 14.4 2.85 14.35 2.85 14.4 2.85 14.35 2.8 14.3 2.8 14.3 2.75 14.25 2.7 14.2 2.65 14.1 2.6 14.05 2.6 14.05 2.55 14.0 2.55 13.95 2.5 13.9 2.5 13.9 2.45 13.95 2.45 13.9 2.4 13.95 2.3 14.0 2.3 14.05 2.3 14.1 2.35 14.15 2.35 14.15 2.4 14.2 2.4 14.25 2.45 14.3 2.45 14.35 2.5 14.4 2.5 14.4 2.6 14.45 2.6 14.5 2.65 14.55 2.65 14.6 2.7 14.55 2.7 14.6 2.7 14.6 2.75 14.65 2.8 14.7 2.8 14.7 2.85 14.75 2.85 14.8 2.9 14.85 2.95 14.9 3.0 14.9 3.05 14.95 3.1 15.0 3.1 15.0 3.15 15.05 3.15 15.1 3.2 15.1 3.25 15.15 3.25 15.2 3.3 15.15 3.3 15.2 3.3 15.2 3.4 15.25 3.4 15.25 3.45 15.2 3.45 15.25 3.5 15.25 3.55 15.3 3.55 15.25 3.55" fill="#ffff00" fill-rule="evenodd" stroke="none"/>
    <path d="M15.05 3.95 L15.05 4.0 15.0 4.0 15.0 4.05 14.95 4.1 14.9 4.1 14.9 4.05 14.85 4.1 14.8 4.05 14.8 4.0 14.8 3.95 14.8 3.9 14.75 3.9 14.8 3.85 14.8 3.8 14.75 3.75 14.8 3.75 14.75 3.7 14.75 3.65 14.7 3.65 14.75 3.6 14.75 3.55 14.7 3.5 14.7 3.45 14.7 3.4 14.65 3.4 14.6 3.3 14.55 3.2 14.5 3.15 14.45 3.1 14.45 3.05 14.4 3.05 14.35 2.95 14.3 2.95 14.3 2.85 14.25 2.85 14.25 2.8 14.2 2.8 14.15 2.7 14.1 2.7 14.05 2.65 14.05 2.6 14.05 2.55 14.1 2.5 14.1 2.55 14.1 2.5 14.15 2.45 14.2 2.5 14.25 2.5 14.3 2.5 14.3 2.55 14.35 2.6 14.4 2.65 14.45 2.7 14.45 2.75 14.5 2.75 14.5 2.8 14.55 2.85 14.6 2.9 14.65 2.95 14.65 3.0 14.7 3.05 14.75 3.1 14.8 3.15 14.8 3.2 14.8 3.25 14.85 3.3 14.9 3.3 14.85 3.35 14.9 3.4 14.95 3.45 14.95 3.5 14.9 3.5 14.95 3.55 14.95 3.6 15.0 3.6 15.0 3.65 14.95 3.65 15.0 3.65 15.0 3.7 15.0 3.75 15.05 3.75 15.0 3.8 15.0 3.85 15.05 3.85 15.05 3.9 15.0 3.9 15.05 3.95" fill="#ffff00" fill-rule="evenodd" stroke="none"/>
    <path d="M13.85 2.4 L13.8 2.4 13.85 2.45 13.9 2.5 13.9 2.55 13.95 2.55 13.9 2.65 13.95 2.65 14.0 2.7 13.95 2.75 14.0 2.8 13.95 2.8 14.0 2.9 14.05 2.95 14.0 2.95 14.0 3.0 14.05 3.05 14.1 3.1 14.05 3.1 14.05 3.15 14.05 3.2 14.1 3.2 14.05 3.25 14.1 3.3 14.1 3.35 14.05 3.35 14.1 3.4 14.1 3.45 14.1 3.5 14.1 3.55 14.05 3.6 14.05 3.65 14.0 3.7 14.0 3.75 13.95 3.75 13.9 3.75 13.85 3.75 13.8 3.7 13.8 3.65 13.85 3.65 13.85 3.6 13.8 3.6 13.85 3.55 13.85 3.5 13.85 3.45 13.85 3.4 13.85 3.35 13.9 3.35 13.85 3.3 13.85 3.25 13.85 3.2 13.9 3.2 13.85 3.2 13.85 3.15 13.8 3.1 13.8 3.05 13.8 3.0 13.8 2.95 13.8 2.9 13.75 2.9 13.75 2.85 13.75 2.8 13.75 2.75 13.7 2.7 13.7 2.65 13.7 2.55 13.65 2.55 13.6 2.55 13.65 2.5 13.6 2.45 13.55 2.4 13.6 2.35 13.6 2.3 13.6 2.35 13.6 2.3 13.65 2.3 13.7 2.3 13.75 2.35 13.75 2.3 13.8 2.35 13.85 2.35 13.85 2.4" fill="#ffff00" fill-rule="evenodd" stroke="none"/>
    <path d="M13.9 2.9 L13.95 2.9 14.0 2.9 14.05 2.9 14.1 3.0 14.05 3.0 14.05 3.05 14.1 3.05 14.1 3.15 14.15 3.2 14.15 3.25 14.15 3.3 14.2 3.4 14.15 3.4 14.15 3.45 14.2 3.45 14.2 3.55 14.25 3.55 14.2 3.55 14.2 3.6 14.25 3.6 14.2 3.65 14.2 3.7 14.2 3.75 14.15 3.8 14.2 3.8 14.2 3.85 14.15 3.85 14.15 3.9 14.2 3.9 14.2 4.0 14.15 4.0 14.15 4.05 14.2 4.05 14.2 4.1 14.15 4.1 14.15 4.15 14.15 4.2 14.15 4.25 14.15 4.3 14.15 4.35 14.15 4.4 14.15 4.45 14.15 4.5 14.15 4.55 14.15 4.6 14.15 4.65 14.1 4.65 14.1 4.7 14.15 4.7 14.15 4.75 14.1 4.75 14.1 4.8 14.15 4.85 14.1 4.9 14.1 4.95 14.15 4.95 14.1 5.0 14.1 5.05 14.05 5.05 14.05 5.1 14.0 5.15 14.0 5.2 14.0 5.25 13.9 5.25 13.85 5.2 13.8 5.2 13.85 5.15 13.8 5.1 13.85 5.0 13.9 4.95 13.9 4.9 13.85 4.9 13.9 4.85 13.9 4.8 13.9 4.75 13.95 4.75 13.9 4.7 13.95 4.65 13.9 4.55 13.9 4.5 13.95 4.5 13.95 4.45 13.9 4.45 13.95 4.4 13.95 4.35 13.9 4.3 13.95 4.3 13.95 4.25 13.9 4.25 13.9 4.2 13.95 4.15 13.95 4.1 13.9 4.1 13.9 4.05 13.95 4.05 13.95 4.0 13.95 3.95 13.95 3.9 13.95 3.85 13.95 3.8 13.95 3.75 14.0 3.75 13.95 3.65 14.0 3.6 13.95 3.6 13.95 3.55 13.95 3.45 13.95 3.4 13.95 3.35 13.95 3.3 13.9 3.3 13.9 3.25 13.9 3.2 13.85 3.15 13.9 3.1 13.85 3.05 13.85 3.0 13.85 2.95 13.9 2.9" fill="#ffff00" fill-rule="evenodd" stroke="none"/>
    <path d="M14.75 4.5 L14.7 4.5 14.75 4.6 14.75 4.65 14.8 4.75 14.8 4.8 14.8 4.85 14.8 4.9 14.75 4.95 14.8 4.95 14.8 5.0 14.85 5.0 14.8 5.0 14.8 5.1 14.85 5.15 14.8 5.2 14.85 5.25 14.85 5.3 14.8 5.3 14.85 5.3 14.85 5.35 14.85 5.4 14.85 5.45 14.85 5.5 14.85 5.55 14.85 5.6 14.85 5.65 14.8 5.65 14.85 5.65 14.85 5.7 14.85 5.75 14.85 5.8 14.85 5.85 14.8 5.85 14.85 5.9 14.85 5.95 14.85 6.0 14.85 6.05 14.9 6.05 14.9 6.1 14.85 6.1 14.85 6.15 14.85 6.2 14.9 6.2 14.85 6.25 14.85 6.3 14.85 6.35 14.85 6.4 14.85 6.45 14.8 6.45 14.8 6.5 14.85 6.5 14.85 6.55 14.75 6.55 14.75 6.6 14.75 6.55 14.7 6.55 14.65 6.5 14.6 6.5 14.6 6.45 14.6 6.35 14.65 6.3 14.6 6.3 14.6 6.25 14.65 6.2 14.6 6.1 14.65 6.05 14.6 6.05 14.6 6.0 14.65 6.0 14.65 5.9 14.6 5.9 14.6 5.85 14.65 5.85 14.65 5.8 14.6 5.8 14.6 5.7 14.65 5.7 14.6 5.7 14.6 5.65 14.65 5.65 14.65 5.6 14.6 5.55 14.6 5.5 14.65 5.5 14.65 5.45 14.6 5.45 14.6 5.4 14.65 5.4 14.65 5.35 14.65 5.3 14.6 5.3 14.65 5.25 14.6 5.25 14.6 5.15 14.55 5.15 14.6 5.1 14.55 5.1 14.55 5.05 14.6 5.0 14.6 4.95 14.55 4.95 14.55 4.9 14.6 4.85 14.55 4.85 14.55 4.8 14.55 4.75 14.55 4.7 14.5 4.65 14.55 4.65 14.55 4.6 14.5 4.6 14.5 4.5 14.55 4.5 14.5 4.5 14.5 4.45 14.45 4.4 14.5 4.35 14.5 4.3 14.45 4.3 14.5 4.3 14.5 4.25 14.45 4.15 14.5 4.15 14.5 4.1 14.45 4.1 14.45 4.05 14.5 4.0 14.45 3.95 14.45 3.9 14.45 3.85 14.45 3.8 14.4 3.8 14.45 3.75 14.4 3.7 14.4 3.65 14.4 3.6 14.4 3.55 14.35 3.55 14.35 3.5 14.4 3.5 14.35 3.5 14.35 3.4 14.3 3.4 14.3 3.35 14.3 3.3 14.25 3.25 14.3 3.25 14.3 3.2 14.35 3.2 14.35 3.25 14.4 3.2 14.45 3.2 14.45 3.25 14.5 3.25 14.5 3.3 14.55 3.3 14.55 3.35 14.55 3.4 14.6 3.5 14.6 3.55 14.6 3.65 14.65 3.65 14.6 3.65 14.65 3.7 14.65 3.75 14.7 3.8 14.65 3.8 14.7 3.9 14.65 3.95 14.7 4.0 14.7 4.05 14.7 4.1 14.7 4.15 14.75 4.15 14.7 4.15 14.7 4.2 14.7 4.25 14.75 4.3 14.7 4.3 14.7 4.35 14.75 4.35 14.75 4.45 14.75 4.5" fill="#ffff00" fill-rule="evenodd" stroke="none"/>
    <path d="M14.0 2.55 L14.0 2.6 14.05 2.65 14.0 2.65 14.05 2.65 14.05 2.7 14.1 2.75 14.1 2.8 14.15 2.9 14.1 2.9 14.15 2.95 14.15 3.0 14.15 3.05 14.15 3.1 14.2 3.1 14.2 3.15 14.25 3.2 14.2 3.2 14.25 3.25 14.25 3.3 14.3 3.3 14.35 3.35 14.35 3.4 14.35 3.45 14.4 3.45 14.4 3.5 14.45 3.5 14.45 3.55 14.4 3.55 14.45 3.6 14.5 3.65 14.5 3.7 14.55 3.7 14.5 3.7 14.5 3.8 14.55 3.8 14.5 3.85 14.55 3.9 14.55 3.95 14.6 3.95 14.55 4.0 14.6 4.05 14.6 4.1 14.55 4.1 14.6 4.15 14.6 4.2 14.65 4.2 14.65 4.25 14.6 4.25 14.65 4.3 14.65 4.35 14.7 4.35 14.7 4.4 14.65 4.4 14.65 4.45 14.55 4.45 14.55 4.5 14.55 4.45 14.5 4.45 14.45 4.4 14.4 4.4 14.4 4.35 14.45 4.35 14.4 4.25 14.4 4.2 14.4 4.15 14.35 4.1 14.4 4.1 14.35 4.1 14.35 4.0 14.35 3.95 14.3 3.85 14.3 3.8 14.3 3.75 14.25 3.75 14.25 3.7 14.2 3.7 14.25 3.65 14.25 3.6 14.2 3.6 14.15 3.5 14.1 3.4 14.05 3.4 14.05 3.35 14.0 3.3 14.05 3.3 14.0 3.3 13.95 3.2 13.95 3.1 13.9 3.05 13.95 3.05 13.95 3.0 13.9 2.95 13.9 2.9 13.85 2.9 13.9 2.9 13.85 2.8 13.8 2.7 13.85 2.7 13.8 2.7 13.75 2.6 13.8 2.6 13.8 2.55 13.75 2.55 13.75 2.5 13.8 2.45 13.85 2.45 13.85 2.4 13.9 2.45 13.95 2.45 13.95 2.5 14.0 2.55" fill="#ffff00" fill-rule="evenodd" stroke="none"/>
    <path d="M14.0 2.3 L14.0 2.35 13.95 2.35 13.95 2.45 14.0 2.45 13.95 2.45 13.95 2.5 13.9 2.55 13.9 2.6 13.85 2.65 13.8 2.7 13.8 2.8 13.75 2.85 13.7 2.9 13.7 2.95 13.65 3.0 13.6 3.05 13.6 3.1 13.55 3.15 13.5 3.15 13.45 3.15 13.4 3.15 13.4 3.1 13.35 3.1 13.35 3.05 13.4 3.05 13.35 3.0 13.35 2.95 13.45 2.95 13.45 2.9 13.5 2.85 13.5 2.8 13.55 2.8 13.55 2.75 13.55 2.7 13.6 2.7 13.6 2.65 13.65 2.6 13.65 2.55 13.7 2.5 13.7 2.45 13.75 2.45 13.75 2.4 13.7 2.4 13.75 2.35 13.75 2.3 13.8 2.25 13.85 2.25 13.85 2.2 13.9 2.2 13.9 2.25 13.95 2.25 14.0 2.3" fill="#ffff00" fill-rule="evenodd" stroke="none"/>
    <path d="M13.3 2.45 L13.35 2.45 13.35 2.4 13.4 2.4 13.45 2.45 13.5 2.45 13.5 2.4 13.55 2.45 13.5 2.5 13.55 2.55 13.5 2.55 13.5 2.6 13.5 2.65 13.55 2.65 13.5 2.7 13.5 2.75 13.55 2.75 13.55 2.8 13.5 2.8 13.55 2.8 13.55 2.85 13.55 2.9 13.5 2.95 13.55 2.95 13.55 3.0 13.5 3.0 13.5 3.05 13.5 3.1 13.5 3.15 13.5 3.2 13.45 3.25 13.45 3.3 13.4 3.35 13.45 3.35 13.45 3.4 13.4 3.45 13.35 3.55 13.35 3.6 13.3 3.6 13.3 3.65 13.25 3.75 13.2 3.85 13.15 3.9 13.05 4.0 13.0 4.15 12.95 4.25 12.9 4.35 12.85 4.45 12.8 4.55 12.7 4.65 12.65 4.75 12.65 4.8 12.6 4.8 12.55 4.85 12.5 4.8 12.45 4.8 12.45 4.7 12.4 4.7 12.45 4.65 12.45 4.6 12.5 4.5 12.6 4.45 12.65 4.35 12.7 4.25 12.75 4.15 12.8 4.05 12.85 3.95 12.9 3.85 13.0 3.75 13.05 3.65 13.1 3.55 13.1 3.5 13.15 3.45 13.15 3.4 13.2 3.4 13.2 3.35 13.2 3.3 13.25 3.3 13.25 3.25 13.2 3.25 13.25 3.2 13.25 3.15 13.25 3.1 13.3 3.05 13.25 3.05 13.25 3.0 13.3 3.0 13.3 2.95 13.3 2.9 13.3 2.8 13.3 2.75 13.3 2.7 13.3 2.65 13.3 2.6 13.3 2.55 13.3 2.5 13.3 2.45" fill="#ffff00" fill-rule="evenodd" stroke="none"/>
    <path d="M13.1 2.45 L13.15 2.45 13.15 2.5 13.15 2.55 13.15 2.6 13.1 2.65 13.05 2.75 12.95 2.85 12.9 3.0 12.85 3.1 12.75 3.2 12.7 3.35 12.65 3.45 12.55 3.55 12.5 3.65 12.45 3.8 12.4 3.85 12.4 3.9 12.35 3.85 12.35 3.9 12.25 3.95 12.25 4.0 12.2 4.0 12.2 4.05 12.15 4.05 12.05 4.05 12.0 4.0 11.95 4.0 12.0 4.0 12.0 3.95 11.95 3.9 12.0 3.85 12.05 3.8 12.05 3.85 12.1 3.8 12.15 3.8 12.15 3.75 12.2 3.7 12.25 3.65 12.25 3.6 12.3 3.55 12.35 3.45 12.4 3.35 12.45 3.25 12.5 3.15 12.6 3.05 12.65 2.95 12.7 2.85 12.75 2.75 12.8 2.65 12.85 2.55 12.95 2.45 13.0 2.45 13.0 2.4 13.05 2.45 13.1 2.45" fill="#ffff00" fill-rule="evenodd" stroke="none"/>
    <path d="M12.1 3.0 L12.15 3.0 12.15 2.95 12.25 3.0 12.25 2.95 12.25 2.9 12.3 2.9 12.3 2.85 12.35 2.85 12.35 2.8 12.4 2.8 12.4 2.75 12.45 2.8 12.5 2.75 12.5 2.7 12.55 2.65 12.6 2.65 12.6 2.7 12.65 2.7 12.7 2.75 12.7 2.8 12.7 2.85 12.65 2.9 12.6 2.95 12.55 2.95 12.55 3.0 12.55 2.95 12.55 3.0 12.45 3.0 12.45 3.05 12.45 3.1 12.4 3.1 12.4 3.15 12.35 3.15 12.3 3.15 12.25 3.2 12.2 3.2 12.2 3.25 12.15 3.2 12.15 3.25 12.1 3.25 12.05 3.3 12.0 3.35 11.95 3.3 11.95 3.35 11.9 3.35 11.9 3.4 11.85 3.45 11.8 3.5 11.75 3.55 11.75 3.5 11.75 3.55 11.7 3.55 11.65 3.6 11.65 3.65 11.6 3.65 11.6 3.7 11.55 3.7 11.55 3.75 11.5 3.75 11.5 3.8 11.45 3.85 11.4 3.85 11.4 3.9 11.4 3.95 11.35 3.95 11.3 4.05 11.3 4.1 11.25 4.1 11.2 4.15 11.2 4.2 11.1 4.25 11.1 4.2 11.05 4.2 11.05 4.15 11.0 4.15 11.05 4.1 11.0 4.05 11.05 4.0 11.1 3.95 11.15 3.9 11.15 3.85 11.2 3.8 11.25 3.75 11.25 3.7 11.3 3.7 11.3 3.65 11.3 3.6 11.35 3.6 11.35 3.55 11.4 3.55 11.45 3.5 11.45 3.55 11.45 3.5 11.5 3.45 11.55 3.4 11.6 3.35 11.65 3.3 11.65 3.35 11.7 3.3 11.75 3.25 11.75 3.2 11.85 3.15 11.85 3.2 11.85 3.15 11.95 3.15 11.95 3.1 11.95 3.05 12.0 3.05 12.05 3.05 12.05 3.0 12.05 3.05 12.05 3.0 12.1 3.0" fill="#ffff00" fill-rule="evenodd" stroke="none"/>
    <path d="M12.4 2.55 L12.45 2.6 12.4 2.65 12.45 2.7 12.4 2.7 12.35 2.75 12.3 2.75 12.25 2.75 12.15 2.7 12.15 2.75 12.1 2.75 12.05 2.7 12.05 2.75 12.0 2.7 11.95 2.7 11.9 2.75 11.9 2.7 11.85 2.7 11.8 2.7 11.7 2.7 11.65 2.75 11.65 2.7 11.6 2.7 11.55 2.7 11.55 2.75 11.5 2.7 11.45 2.75 11.4 2.7 11.35 2.7 11.35 2.75 11.3 2.75 11.3 2.8 11.25 2.75 11.2 2.75 11.2 2.8 11.1 2.85 11.1 2.8 11.1 2.85 11.05 2.85 11.0 2.85 11.0 2.9 11.0 2.95 10.95 3.0 10.9 3.05 10.85 3.05 10.8 3.1 10.8 3.15 10.75 3.2 10.7 3.3 10.75 3.4 10.7 3.4 10.7 3.45 10.65 3.45 10.65 3.5 10.6 3.5 10.5 3.5 10.5 3.45 10.5 3.4 10.45 3.4 10.45 3.35 10.5 3.3 10.45 3.25 10.5 3.25 10.5 3.2 10.5 3.15 10.55 3.15 10.55 3.1 10.6 3.05 10.65 2.95 10.65 2.9 10.7 2.9 10.75 2.9 10.75 2.85 10.8 2.8 10.8 2.85 10.8 2.8 10.85 2.75 10.85 2.7 10.9 2.7 10.95 2.65 11.0 2.6 11.0 2.65 11.05 2.65 11.05 2.6 11.1 2.6 11.1 2.55 11.15 2.55 11.2 2.55 11.25 2.5 11.3 2.5 11.35 2.5 11.45 2.5 11.5 2.5 11.55 2.45 11.55 2.5 11.6 2.5 11.65 2.5 11.65 2.45 11.7 2.5 11.75 2.45 11.8 2.5 11.85 2.5 11.9 2.45 11.9 2.5 11.95 2.5 12.05 2.45 12.05 2.5 12.1 2.5 12.15 2.55 12.15 2.5 12.2 2.5 12.3 2.5 12.35 2.55 12.4 2.55" fill="#ffff00" fill-rule="evenodd" stroke="none"/>
    <path d="M13.5 2.2 L13.55 2.15 13.65 2.15 13.7 2.1 13.7 2.15 13.75 2.15 13.8 2.1 13.85 2.15 13.9 2.15 13.95 2.15 13.95 2.2 13.9 2.25 13.95 2.25 13.95 2.3 13.9 2.35 13.85 2.35 13.85 2.4 13.85 2.35 13.8 2.35 13.75 2.4 13.8 2.45 13.75 2.5 13.8 2.55 13.75 2.6 13.85 2.6 13.9 2.6 13.9 2.55 14.0 2.6 14.0 2.55 14.05 2.55 14.05 2.6 14.1 2.6 14.15 2.6 14.2 2.6 14.2 2.55 14.25 2.55 14.3 2.5 14.35 2.55 14.45 2.6 14.5 2.65 14.5 2.7 14.55 2.75 14.55 2.8 14.55 2.85 14.55 2.9 14.55 2.95 14.55 3.0 14.5 3.05 14.45 3.05 14.45 3.1 14.45 3.05 14.35 3.05 14.35 3.1 14.3 3.15 14.3 3.2 14.3 3.25 14.25 3.25 14.25 3.3 14.2 3.25 14.15 3.3 14.1 3.3 14.1 3.35 14.05 3.3 14.0 3.3 14.0 3.25 13.95 3.25 13.85 3.25 13.8 3.25 13.75 3.2 13.75 3.25 13.65 3.2 13.6 3.15 13.6 3.1 13.55 3.1 13.5 3.05 13.45 3.05 13.3 2.95 13.25 2.95 13.25 2.9 13.2 2.85 13.25 2.85 13.2 2.85 13.2 2.8 13.1 2.8 13.1 2.85 13.1 2.8 13.05 2.8 13.0 2.85 12.95 2.8 12.9 2.8 12.85 2.85 12.85 2.8 12.8 2.8 12.75 2.85 12.7 2.8 12.65 2.75 12.6 2.75 12.55 2.7 12.55 2.65 12.5 2.6 12.5 2.55 12.45 2.55 12.5 2.5 12.55 2.45 12.5 2.35 12.55 2.25 12.6 2.25 12.6 2.2 12.65 2.2 12.7 2.2 12.7 2.15 12.75 2.15 12.75 2.1 12.85 2.15 12.85 2.1 12.9 2.1 12.95 2.15 13.0 2.1 13.05 2.1 13.1 2.1 13.2 2.15 13.25 2.15 13.25 2.1 13.3 2.15 13.35 2.15 13.35 2.2 13.4 2.2 13.45 2.2 13.5 2.2 M13.6 2.75 L13.55 2.75 13.55 2.8 13.45 2.8 13.55 2.85 13.6 2.85 13.6 2.75 M13.85 2.85 L13.9 2.9 13.9 2.85 13.9 2.8 13.85 2.8 13.85 2.85" fill="#ffff00" fill-rule="evenodd" stroke="none"/>
    <path d="M13.15 1.35 L13.15 1.4 13.2 1.4 13.25 1.45 13.25 1.5 13.25 1.55 13.3 1.6 13.3 1.7 13.35 1.75 13.3 1.75 13.35 1.8 13.4 1.8 13.4 1.85 13.45 1.9 13.45 1.95 13.45 2.0 13.5 2.05 13.45 2.05 13.5 2.1 13.5 2.15 13.55 2.2 13.55 2.25 13.55 2.3 13.55 2.35 13.5 2.4 13.45 2.45 13.4 2.4 13.35 2.4 13.35 2.35 13.35 2.3 13.3 2.3 13.3 2.2 13.3 2.15 13.25 2.15 13.25 2.1 13.25 2.05 13.2 1.95 13.15 1.95 13.15 1.9 13.15 1.85 13.1 1.85 13.1 1.75 13.1 1.7 13.05 1.65 13.05 1.6 13.0 1.6 13.05 1.6 13.0 1.5 12.95 1.5 12.95 1.45 12.9 1.4 12.95 1.4 12.9 1.4 12.9 1.35 12.85 1.3 12.9 1.25 12.9 1.2 12.95 1.2 13.0 1.2 13.05 1.2 13.1 1.25 13.15 1.3 13.1 1.3 13.15 1.35" fill="#ff6633" fill-rule="evenodd" stroke="none"/>
    <path d="M13.25 2.05 L13.2 2.05 13.25 2.1 13.25 2.15 13.3 2.15 13.35 2.2 13.35 2.25 13.4 2.25 13.4 2.35 13.45 2.35 13.45 2.4 13.45 2.45 13.45 2.5 13.5 2.5 13.45 2.5 13.4 2.55 13.4 2.6 13.35 2.6 13.3 2.55 13.25 2.55 13.25 2.5 13.25 2.45 13.2 2.45 13.2 2.4 13.15 2.35 13.15 2.3 13.1 2.3 13.1 2.25 13.05 2.2 13.05 2.15 13.0 2.1 13.0 2.05 12.95 2.05 12.95 2.0 12.9 2.0 12.9 1.95 12.85 1.95 12.7 1.85 12.65 1.75 12.6 1.75 12.65 1.7 12.65 1.65 12.7 1.6 12.75 1.6 12.8 1.65 12.8 1.6 12.9 1.65 12.95 1.75 13.0 1.75 13.05 1.8 13.1 1.8 13.1 1.85 13.15 1.85 13.15 1.9 13.15 1.95 13.2 1.95 13.2 2.0 13.25 2.05" fill="#ff6633" fill-rule="evenodd" stroke="none"/>
    <path d="M12.8 2.2 L12.85 2.2 12.85 2.25 12.9 2.25 12.95 2.3 12.95 2.25 13.1 2.3 13.1 2.4 13.15 2.4 13.15 2.45 13.15 2.5 13.1 2.5 13.1 2.55 13.05 2.55 13.0 2.55 13.0 2.5 12.85 2.4 12.8 2.4 12.8 2.45 12.75 2.4 12.7 2.4 12.65 2.35 12.6 2.35 12.5 2.35 12.45 2.35 12.45 2.4 12.4 2.35 12.35 2.35 12.35 2.4 12.3 2.4 12.2 2.4 12.15 2.4 12.1 2.35 12.15 2.3 12.1 2.3 12.1 2.25 12.1 2.2 12.15 2.2 12.2 2.2 12.3 2.15 12.35 2.15 12.4 2.15 12.45 2.1 12.45 2.15 12.5 2.1 12.55 2.15 12.65 2.15 12.7 2.15 12.75 2.15 12.8 2.2" fill="#ff6633" fill-rule="evenodd" stroke="none"/>
    <path d="M13.8 0.8 L13.9 0.8 13.95 0.85 13.95 0.8 13.95 0.85 13.95 0.9 13.95 0.95 14.0 0.95 13.95 1.0 14.0 1.0 14.0 1.1 13.95 1.1 14.0 1.15 14.0 1.2 14.0 1.3 14.0 1.35 13.95 1.35 14.0 1.35 14.0 1.4 13.95 1.45 13.95 1.5 14.0 1.55 13.95 1.55 13.95 1.6 13.95 1.65 14.0 1.65 13.95 1.65 13.95 1.7 13.95 1.75 13.95 1.8 13.9 1.8 13.95 1.8 13.95 1.85 13.9 1.9 13.9 1.95 13.85 1.95 13.9 2.0 13.9 2.05 13.9 2.1 13.85 2.1 13.85 2.15 13.9 2.15 13.85 2.2 13.85 2.25 13.85 2.3 13.85 2.4 13.8 2.45 13.75 2.5 13.75 2.55 13.7 2.6 13.7 2.65 13.7 2.6 13.6 2.6 13.55 2.65 13.5 2.55 13.55 2.55 13.5 2.55 13.5 2.5 13.55 2.45 13.55 2.4 13.55 2.35 13.6 2.3 13.65 2.25 13.6 2.2 13.65 2.15 13.65 2.1 13.6 2.1 13.65 2.05 13.65 2.0 13.65 1.95 13.7 1.95 13.7 1.9 13.65 1.85 13.7 1.85 13.7 1.8 13.75 1.75 13.75 1.7 13.75 1.65 13.7 1.65 13.75 1.65 13.75 1.6 13.75 1.55 13.7 1.55 13.75 1.55 13.75 1.5 13.75 1.45 13.75 1.4 13.8 1.4 13.75 1.4 13.75 1.35 13.8 1.3 13.75 1.3 13.75 1.25 13.8 1.2 13.8 1.15 13.75 1.15 13.75 1.1 13.8 1.1 13.8 1.05 13.75 1.0 13.7 0.95 13.75 0.95 13.75 0.9 13.75 0.85 13.8 0.8 13.8 0.85 13.8 0.8" fill="#ff6633" fill-rule="evenodd" stroke="none"/>
    <path d="M12.25 2.4 L12.3 2.4 12.35 2.4 12.4 2.45 12.4 2.4 12.5 2.4 12.55 2.45 12.6 2.45 12.65 2.45 12.7 2.45 12.7 2.5 12.8 2.45 12.85 2.45 12.85 2.5 12.9 2.5 12.9 2.45 12.95 2.5 13.0 2.5 13.05 2.5 13.05 2.45 13.05 2.5 13.1 2.55 13.1 2.65 13.05 2.7 13.05 2.65 13.05 2.7 13.0 2.7 12.95 2.7 12.9 2.75 12.9 2.7 12.85 2.7 12.8 2.7 12.7 2.7 12.7 2.65 12.65 2.7 12.6 2.65 12.55 2.65 12.45 2.65 12.4 2.65 12.35 2.65 12.3 2.65 12.25 2.6 12.2 2.65 12.15 2.65 12.1 2.65 12.05 2.65 12.0 2.7 12.0 2.65 12.0 2.7 11.95 2.7 11.9 2.7 11.9 2.75 11.9 2.7 11.85 2.7 11.85 2.75 11.8 2.75 11.75 2.75 11.75 2.8 11.75 2.75 11.7 2.75 11.65 2.7 11.6 2.65 11.65 2.65 11.65 2.55 11.7 2.55 11.7 2.5 11.75 2.5 11.75 2.55 11.8 2.5 11.85 2.5 11.85 2.45 11.9 2.45 11.9 2.5 12.0 2.45 12.0 2.4 12.05 2.45 12.15 2.4 12.15 2.45 12.2 2.4 12.25 2.4" fill="#ff6633" fill-rule="evenodd" stroke="none"/>
    <path d="M13.3 2.6 L13.3 2.55 13.3 2.6 13.4 2.6 13.45 2.6 13.45 2.65 13.45 2.7 13.5 2.7 13.45 2.75 13.4 2.75 13.4 2.8 13.35 2.8 13.3 2.85 13.3 2.8 13.25 2.8 13.25 2.85 13.2 2.85 13.2 2.8 13.1 2.8 13.05 2.8 13.0 2.85 13.0 2.8 12.9 2.8 12.85 2.85 12.85 2.8 12.8 2.8 12.75 2.85 12.7 2.8 12.7 2.85 12.65 2.85 12.65 2.8 12.55 2.85 12.5 2.9 12.5 2.85 12.4 2.85 12.4 2.9 12.35 2.85 12.35 2.9 12.25 2.9 12.25 2.95 12.2 2.95 12.15 2.95 12.15 3.0 12.1 3.0 12.05 3.0 12.05 3.05 12.05 3.0 12.0 3.0 11.95 2.95 11.9 2.95 11.9 2.9 11.95 2.9 12.0 2.85 12.0 2.8 12.0 2.75 12.05 2.75 12.1 2.8 12.1 2.75 12.15 2.75 12.15 2.7 12.2 2.7 12.25 2.7 12.35 2.65 12.4 2.7 12.4 2.65 12.5 2.6 12.55 2.65 12.55 2.6 12.65 2.6 12.7 2.6 12.75 2.6 12.8 2.6 12.85 2.6 12.85 2.55 12.9 2.6 12.95 2.6 13.0 2.55 13.05 2.6 13.05 2.55 13.1 2.6 13.15 2.6 13.2 2.6 13.25 2.55 13.25 2.6 13.3 2.6" fill="#ff6633" fill-rule="evenodd" stroke="none"/>
    <path d="M12.85 2.35 L12.9 2.35 13.0 2.35 13.0 2.3 13.05 2.35 13.1 2.35 13.1 2.4 13.15 2.35 13.25 2.35 13.25 2.4 13.3 2.4 13.3 2.35 13.35 2.4 13.4 2.4 13.4 2.45 13.4 2.5 13.4 2.55 13.4 2.6 13.35 2.6 13.3 2.6 13.25 2.6 13.2 2.6 13.1 2.6 13.05 2.55 13.05 2.6 13.0 2.55 12.95 2.55 12.9 2.6 12.85 2.55 12.8 2.6 12.75 2.55 12.7 2.55 12.65 2.55 12.6 2.55 12.55 2.55 12.45 2.55 12.4 2.55 12.35 2.6 12.3 2.6 12.3 2.65 12.2 2.65 12.2 2.7 12.15 2.7 12.1 2.7 12.05 2.7 12.0 2.65 12.0 2.6 12.0 2.55 12.05 2.5 12.1 2.45 12.15 2.4 12.15 2.45 12.2 2.45 12.2 2.4 12.25 2.4 12.25 2.35 12.3 2.35 12.35 2.35 12.4 2.35 12.45 2.3 12.45 2.35 12.55 2.3 12.6 2.35 12.65 2.35 12.65 2.3 12.7 2.35 12.8 2.35 12.8 2.3 12.85 2.35" fill="#ff6633" fill-rule="evenodd" stroke="none"/>
    <path d="M13.3 2.1 L13.35 2.1 13.35 2.2 13.4 2.2 13.45 2.2 13.45 2.25 13.5 2.25 13.55 2.3 13.6 2.35 13.55 2.4 13.6 2.4 13.6 2.45 13.65 2.5 13.7 2.5 13.65 2.55 13.7 2.55 13.7 2.6 13.65 2.6 13.6 2.6 13.6 2.65 13.55 2.65 13.5 2.65 13.5 2.6 13.45 2.6 13.45 2.55 13.4 2.55 13.35 2.45 13.35 2.4 13.3 2.4 13.3 2.35 13.25 2.35 13.25 2.3 13.2 2.3 13.15 2.25 13.1 2.25 13.1 2.2 13.05 2.15 13.0 2.1 12.95 2.1 12.95 2.05 12.9 2.05 12.85 2.0 12.8 2.0 12.8 1.95 12.75 1.9 12.8 1.9 12.85 1.8 12.9 1.8 12.95 1.8 13.0 1.85 13.05 1.85 13.05 1.9 13.1 1.95 13.15 2.0 13.2 2.0 13.25 2.05 13.3 2.05 13.3 2.1" fill="#ff6633" fill-rule="evenodd" stroke="none"/>
    <path d="M14.25 2.1 L14.3 2.05 14.35 2.05 14.35 2.1 14.35 2.05 14.4 2.05 14.45 2.1 14.45 2.15 14.5 2.15 14.45 2.2 14.45 2.25 14.4 2.25 14.35 2.3 14.3 2.3 14.25 2.3 14.2 2.35 14.15 2.35 14.1 2.35 14.1 2.4 14.0 2.4 14.0 2.45 13.95 2.45 13.95 2.5 13.9 2.5 13.9 2.55 13.85 2.55 13.85 2.6 13.8 2.55 13.8 2.6 13.75 2.6 13.75 2.65 13.7 2.65 13.65 2.65 13.65 2.7 13.65 2.65 13.6 2.7 13.55 2.7 13.55 2.75 13.55 2.8 13.45 2.8 13.4 2.75 13.35 2.75 13.35 2.7 13.4 2.7 13.35 2.65 13.4 2.6 13.4 2.55 13.45 2.5 13.5 2.5 13.5 2.55 13.5 2.5 13.55 2.5 13.6 2.45 13.6 2.4 13.7 2.4 13.8 2.35 13.8 2.3 13.85 2.25 13.9 2.25 13.9 2.2 13.9 2.25 13.95 2.2 14.0 2.2 14.0 2.15 14.05 2.15 14.1 2.15 14.1 2.1 14.2 2.1 14.25 2.1" fill="#ff6633" fill-rule="evenodd" stroke="none"/>
    <path d="M13.9 2.65 L13.95 2.65 14.0 2.7 14.0 2.65 14.1 2.65 14.15 2.7 14.15 2.65 14.2 2.65 14.25 2.7 14.25 2.75 14.25 2.8 14.25 2.85 14.2 2.85 14.15 2.9 14.05 2.85 14.0 2.9 13.95 2.85 13.9 2.85 13.9 2.9 13.9 2.85 13.8 2.85 13.75 2.85 13.75 2.8 13.7 2.8 13.7 2.75 13.7 2.7 13.75 2.65 13.75 2.6 13.85 2.65 13.9 2.6 13.9 2.65" fill="#ff6633" fill-rule="evenodd" stroke="none"/>
    <path d="M14.2 2.35 L14.25 2.35 14.3 2.4 14.25 2.45 14.25 2.5 14.2 2.5 14.2 2.55 14.2 2.6 14.15 2.55 14.1 2.55 14.05 2.6 14.0 2.6 13.95 2.6 13.95 2.65 13.9 2.7 13.85 2.7 13.85 2.65 13.85 2.7 13.8 2.7 13.75 2.65 13.7 2.65 13.7 2.6 13.75 2.5 13.8 2.5 13.8 2.45 13.85 2.45 13.85 2.4 13.9 2.4 13.9 2.35 13.95 2.4 13.95 2.35 14.05 2.35 14.05 2.3 14.05 2.35 14.15 2.3 14.2 2.35" fill="#ff6633" fill-rule="evenodd" stroke="none"/>
    <path d="M13.6 2.7 L13.65 2.7 13.75 2.8 13.75 2.75 13.8 2.75 13.8 2.8 13.85 2.8 14.1 2.95 14.15 2.95 14.2 3.0 14.2 2.95 14.25 3.05 14.3 3.05 14.3 3.1 14.25 3.1 14.25 3.15 14.25 3.2 14.15 3.2 14.1 3.15 14.05 3.15 14.0 3.15 13.7 3.0 13.7 2.95 13.65 2.95 13.6 3.0 13.5 2.9 13.5 2.85 13.45 2.85 13.45 2.75 13.4 2.75 13.45 2.7 13.5 2.7 13.6 2.7" fill="#ff6633" fill-rule="evenodd" stroke="none"/>
    <path d="M13.55 2.5 L13.6 2.45 13.65 2.5 13.7 2.5 14.15 2.8 14.2 2.8 14.25 2.8 14.2 2.9 14.2 2.95 14.15 2.95 14.1 2.95 14.05 3.0 13.6 2.7 13.55 2.65 13.5 2.6 13.5 2.55 13.55 2.55 13.55 2.5" fill="#ff6633" fill-rule="evenodd" stroke="none"/>
    <path d="M13.45 2.55 L13.45 2.6 13.5 2.6 13.5 2.55 13.55 2.6 13.6 2.65 13.65 2.7 13.65 2.75 13.7 2.75 13.7 2.8 13.75 2.8 13.75 2.9 13.8 2.9 13.85 3.0 13.8 3.0 13.85 3.0 13.9 3.1 13.95 3.1 13.9 3.15 13.9 3.2 13.85 3.2 13.85 3.25 13.8 3.25 13.75 3.25 13.7 3.2 13.7 3.15 13.65 3.15 13.65 3.1 13.65 3.05 13.6 3.05 13.6 3.0 13.55 2.95 13.5 2.95 13.5 2.85 13.45 2.85 13.45 2.75 13.4 2.75 13.35 2.75 13.35 2.7 13.4 2.7 13.35 2.65 13.4 2.6 13.45 2.55" fill="#ff6633" fill-rule="evenodd" stroke="none"/>
    <path d="M13.1 2.05 L13.15 2.05 13.2 2.1 13.25 2.1 13.25 2.15 13.3 2.2 13.35 2.2 13.35 2.25 13.4 2.25 13.35 2.25 13.4 2.3 13.45 2.35 13.45 2.4 13.5 2.4 13.55 2.45 13.55 2.5 13.6 2.6 13.65 2.6 13.6 2.6 13.6 2.65 13.6 2.7 13.55 2.7 13.5 2.75 13.45 2.7 13.4 2.7 13.4 2.65 13.35 2.6 13.3 2.55 13.3 2.5 13.25 2.45 13.2 2.4 13.15 2.35 13.1 2.35 13.15 2.3 13.1 2.3 13.05 2.25 13.0 2.25 12.6 2.0 12.55 2.0 12.55 1.95 12.5 1.95 12.45 1.85 12.5 1.8 12.5 1.75 12.5 1.8 12.6 1.8 12.6 1.75 12.65 1.75 12.7 1.8 13.05 2.0 13.1 2.05" fill="#ff0000" fill-rule="evenodd" stroke="none"/>
    <path d="M13.6 2.45 L13.65 2.45 13.65 2.5 13.7 2.55 13.65 2.55 13.7 2.6 13.7 2.65 13.65 2.65 13.7 2.7 13.7 2.75 13.65 2.75 13.7 2.8 13.7 2.85 13.65 2.8 13.65 2.85 13.6 2.85 13.55 2.9 13.55 2.85 13.5 2.85 13.45 2.8 13.5 2.75 13.5 2.7 13.45 2.7 13.45 2.65 13.4 2.65 13.45 2.65 13.45 2.55 13.4 2.55 13.4 2.5 13.45 2.5 13.5 2.45 13.5 2.4 13.55 2.4 13.55 2.45 13.6 2.45" fill="#ff0000" fill-rule="evenodd" stroke="none"/>
    <path d="M13.4 2.6 L13.4 2.5 13.45 2.5 13.5 2.45 13.5 2.5 13.55 2.5 13.6 2.55 13.6 2.6 13.55 2.6 13.55 2.65 13.6 2.65 13.6 2.7 13.55 2.7 13.55 2.75 13.5 2.8 13.45 2.8 13.4 2.8 13.35 2.8 13.35 2.75 13.3 2.75 13.25 2.65 13.3 2.65 13.3 2.6 13.3 2.55 13.3 2.6 13.4 2.6" fill="#ff0000" fill-rule="evenodd" stroke="none"/>
    <path d="M13.1 2.5 L13.1 2.45 13.2 2.45 13.2 2.4 13.2 2.45 13.25 2.45 13.25 2.4 13.3 2.4 13.35 2.4 13.45 2.4 13.45 2.35 13.45 2.4 13.5 2.4 13.5 2.35 13.6 2.35 13.6 2.4 13.65 2.4 13.65 2.45 13.65 2.5 13.7 2.5 13.65 2.55 13.6 2.6 13.55 2.55 13.5 2.6 13.45 2.6 13.45 2.65 13.45 2.6 13.4 2.6 13.35 2.6 13.35 2.65 13.3 2.65 13.25 2.65 13.2 2.7 13.15 2.7 13.1 2.7 13.1 2.75 13.05 2.75 13.05 2.7 13.0 2.7 12.95 2.65 12.95 2.6 13.0 2.55 13.0 2.5 13.05 2.5 13.05 2.45 13.05 2.5 13.1 2.5" fill="#ff0000" fill-rule="evenodd" stroke="none"/>
  </g>
  <defs>
    <radialGradient cx="0" cy="0" gradientTransform="matrix(0.0142, 0.0, 0.0, 0.0142, 4.15, 7.9)" gradientUnits="userSpaceOnUse" id="gradient0" r="819.2" spreadMethod="pad">
      <stop offset="0.00784313725490196" stop-color="#cccccc"/>
      <stop offset="0.5058823529411764" stop-color="#333333"/>
      <stop offset="1.0" stop-color="#000000"/>
      <stop offset="1.0" stop-color="#ff66cc"/>
    </radialGradient>
  </defs>
</svg>
