<?xml version="1.0" encoding="UTF-8" standalone="no"?>
<svg xmlns:xlink="http://www.w3.org/1999/xlink" height="469.7px" width="110.0px" xmlns="http://www.w3.org/2000/svg">
  <g transform="matrix(1.0, 0.0, 0.0, 1.0, 0.0, 0.0)">
    <path d="M39.3 325.65 L38.65 325.65 38.8 325.15 39.55 322.95 39.85 321.85 38.6 321.85 38.65 321.8 39.85 321.8 40.95 318.35 41.1 317.85 42.15 314.95 Q41.75 313.95 41.7 312.8 41.35 303.35 43.25 293.1 43.85 283.0 38.3 263.05 34.9 250.75 31.25 251.2 29.05 244.7 29.1 183.0 29.05 142.7 34.3 128.2 L35.25 125.75 Q37.05 121.8 39.7 119.6 41.35 122.5 55.55 122.5 L58.65 122.35 63.85 121.9 Q67.45 121.45 69.4 120.5 L70.95 119.6 71.4 120.2 Q73.65 122.3 75.25 125.75 L76.2 128.2 Q81.4 142.7 81.4 183.0 81.4 244.7 79.25 251.2 75.55 250.75 72.2 263.05 66.65 283.0 67.25 293.1 69.1 303.35 68.8 312.8 L68.35 314.95 69.4 317.85 69.55 318.35 70.6 321.8 71.85 321.8 71.85 321.85 70.65 321.85 70.95 322.95 71.65 325.15 71.85 325.65 70.55 325.65 Q69.7 322.75 68.3 322.75 67.4 322.75 66.75 323.35 L65.6 323.35 55.3 323.35 55.3 322.75 55.3 323.35 54.95 323.35 44.5 323.35 Q43.7 322.3 42.4 322.3 39.95 322.3 39.3 325.65 M56.25 262.15 L56.3 261.85 Q57.45 256.9 58.95 253.5 L56.3 257.85 Q54.95 260.05 54.0 261.05 L55.25 267.55 56.25 262.15 55.3 321.85 56.25 262.15 M55.3 322.75 L55.3 321.85 55.3 322.75 M65.6 322.75 L65.6 323.35 65.6 322.75" fill="#000000" fill-rule="evenodd" stroke="none"/>
    <path d="M70.55 325.65 Q71.25 328.0 71.6 332.25 L71.8 335.1 72.55 335.9 Q74.35 337.9 75.6 341.0 76.35 342.9 76.9 345.15 82.35 366.8 87.25 374.25 98.85 389.6 103.0 397.5 109.95 410.2 110.0 429.05 109.95 434.15 108.95 438.45 107.25 445.3 102.9 450.0 98.4 454.75 91.15 457.2 84.15 459.65 68.15 459.65 59.55 459.65 55.0 457.65 L53.05 458.3 50.95 458.9 41.8 459.65 Q25.8 459.65 18.85 457.2 11.55 454.75 7.05 450.0 2.7 445.3 1.05 438.45 0.0 434.15 0.0 429.05 0.0 410.2 7.0 397.5 11.1 389.6 22.7 374.25 27.6 366.8 33.05 345.15 34.8 337.7 38.9 334.5 38.8 332.85 39.1 330.65 L39.2 326.0 39.3 325.65 Q39.95 322.3 42.4 322.3 43.7 322.3 44.5 323.35 L54.95 323.35 55.3 323.35 65.6 323.35 66.75 323.35 Q67.4 322.75 68.3 322.75 69.7 322.75 70.55 325.65 M55.25 325.65 L55.3 323.35 55.25 325.65 M53.3 441.15 L54.95 323.35 53.3 441.15 M53.25 445.05 L53.05 458.3 53.25 445.05" fill="#c4b999" fill-rule="evenodd" stroke="none"/>
    <path d="M53.05 458.3 L52.9 469.2 M55.3 321.85 L55.3 322.75 M65.6 323.35 L65.6 322.75 M53.05 458.3 L53.25 445.05 M54.95 323.35 L53.3 441.15" fill="none" stroke="#9f895a" stroke-linecap="round" stroke-linejoin="round" stroke-width="1.0"/>
    <path d="M56.25 262.15 L55.3 321.85 M55.3 322.75 L55.3 323.35 55.25 325.65 M56.3 257.85 L56.25 262.15" fill="none" stroke="#884c2a" stroke-linecap="round" stroke-linejoin="round" stroke-width="1.0"/>
    <path d="M58.8 240.75 L59.2 240.35 59.55 240.1 59.95 239.95 60.7 239.95 60.7 239.85 61.75 240.1 62.4 240.5 62.75 240.85 62.9 241.25 63.15 241.65 63.3 242.0 63.3 242.4 63.3 242.8 63.3 243.15 63.15 243.55 63.05 243.95 62.75 244.35 62.75 244.7 62.75 245.1 62.75 245.5 62.75 245.85 62.65 246.25 62.4 246.65 62.25 247.0 62.25 247.4 62.25 247.8 62.25 248.2 62.15 248.55 62.0 248.95 61.85 249.35 61.75 249.7 61.75 250.1 61.75 250.5 61.75 250.85 61.75 251.25 61.75 251.65 61.75 252.0 61.75 252.4 61.75 252.8 61.75 253.2 61.6 253.55 61.35 253.95 61.25 254.35 61.25 254.7 61.25 255.1 61.25 255.5 61.25 255.85 61.25 256.25 61.25 256.65 61.25 257.05 61.25 257.4 61.25 257.8 61.25 258.2 61.25 258.55 61.25 258.95 61.25 259.35 61.25 259.7 61.1 260.1 60.85 260.5 60.7 260.85 60.35 261.25 59.7 261.65 58.65 261.9 58.15 262.05 58.15 262.4 58.15 262.8 58.15 263.2 58.15 263.55 58.15 263.95 58.15 264.35 58.15 264.7 58.15 265.1 58.15 265.5 58.15 265.9 58.0 266.25 57.75 266.65 57.65 267.05 57.25 267.4 56.6 267.8 55.6 268.05 54.45 267.8 53.9 267.4 53.65 267.3 53.3 267.4 52.5 267.55 51.35 267.3 50.85 266.9 50.45 266.5 50.2 266.15 50.05 265.75 49.95 265.35 49.95 265.0 49.95 264.6 49.95 263.8 49.95 263.05 49.95 261.9 49.95 261.15 49.95 260.0 49.95 258.8 49.95 258.05 49.95 256.9 49.95 255.75 49.95 254.6 49.95 253.45 49.95 252.65 50.05 252.3 50.2 251.9 50.6 251.5 50.95 251.15 51.35 250.85 51.75 250.75 52.5 250.6 53.55 250.85 54.15 251.25 54.45 251.25 54.8 250.85 55.2 250.5 55.85 250.25 56.6 249.95 56.6 249.6 56.6 249.2 56.6 248.8 56.6 248.45 56.6 248.05 56.75 247.65 56.85 247.3 57.1 246.9 57.1 246.5 57.1 246.1 57.1 245.75 57.1 245.35 57.25 244.95 57.5 244.6 57.65 244.2 57.65 243.8 57.65 243.45 57.65 243.05 57.65 242.65 57.65 242.3 57.75 241.9 58.0 241.5 58.4 241.1 58.8 240.75" fill="#000000" fill-rule="evenodd" stroke="none"/>
    <path d="M70.95 119.6 Q72.35 122.55 55.9 122.55 37.8 122.55 39.7 119.6 L45.2 112.95 Q49.0 108.4 49.0 106.6 53.2 -0.45 53.3 0.0 54.5 4.35 59.5 106.3 59.5 107.95 64.5 112.6 70.1 117.8 70.95 119.6" fill="#666666" fill-rule="evenodd" stroke="none"/>
  </g>
</svg>
