<?xml version="1.0" encoding="UTF-8" standalone="no"?>
<svg xmlns:xlink="http://www.w3.org/1999/xlink" height="92.0px" width="92.0px" xmlns="http://www.w3.org/2000/svg">
  <g transform="matrix(1.0, 0.0, 0.0, 1.0, 46.0, 46.0)">
    <path d="M32.55 -32.5 Q46.0 -19.05 46.0 0.0 46.0 19.05 32.55 32.55 19.05 46.0 0.0 46.0 -19.05 46.0 -32.5 32.55 -46.0 19.05 -46.0 0.0 -46.0 -19.05 -32.5 -32.5 -19.05 -46.0 0.0 -46.0 19.05 -46.0 32.55 -32.5 M21.2 -21.2 Q12.4 -30.0 0.0 -30.0 -12.45 -30.0 -21.2 -21.2 -30.0 -12.4 -30.0 0.0 -30.0 12.45 -21.2 21.25 -12.45 30.0 0.0 30.0 12.4 30.0 21.2 21.25 30.0 12.45 30.0 0.0 30.0 -12.4 21.2 -21.2" fill="url(#gradient0)" fill-rule="evenodd" stroke="none"/>
  </g>
  <defs>
    <radialGradient cx="0" cy="0" gradientTransform="matrix(0.0579, 0.0, 0.0, 0.0579, 0.0, 0.0)" gradientUnits="userSpaceOnUse" id="gradient0" r="819.2" spreadMethod="pad">
      <stop offset="0.0" stop-color="#dfffff"/>
      <stop offset="1.0" stop-color="#f0fcff"/>
    </radialGradient>
  </defs>
</svg>
