<?xml version="1.0" encoding="UTF-8" standalone="no"?>
<svg xmlns:xlink="http://www.w3.org/1999/xlink" height="60.0px" width="60.0px" xmlns="http://www.w3.org/2000/svg">
  <g transform="matrix(1.0, 0.0, 0.0, 1.0, 30.0, 30.05)">
    <path d="M24.55 -14.2 Q18.7 -24.3 7.45 -27.3 -3.85 -30.3 -13.9 -24.5 -24.0 -18.65 -27.0 -7.4 -30.05 3.85 -24.2 13.95 -18.4 24.05 -7.15 27.05 4.1 30.05 14.25 24.25 24.3 18.4 27.35 7.15 30.35 -4.1 24.55 -14.2 M21.25 -21.25 Q30.0 -12.5 30.0 -0.05 30.0 12.35 21.25 21.15 12.45 29.95 0.0 29.95 -12.4 29.95 -21.2 21.15 -30.0 12.35 -30.0 -0.05 -30.0 -12.5 -21.2 -21.25 -12.4 -30.05 0.0 -30.05 12.45 -30.05 21.25 -21.25" fill="url(#gradient0)" fill-rule="evenodd" stroke="none"/>
    <path d="M24.55 -14.2 Q30.35 -4.1 27.35 7.15 24.3 18.4 14.25 24.25 4.1 30.05 -7.15 27.05 -18.4 24.05 -24.2 13.95 -30.05 3.85 -27.0 -7.4 -24.0 -18.65 -13.9 -24.5 -3.85 -30.3 7.45 -27.3 18.7 -24.3 24.55 -14.2" fill="url(#gradient1)" fill-rule="evenodd" stroke="none"/>
    <path d="M13.9 -20.55 L14.0 -20.45 14.05 -20.35 14.15 -20.25 14.2 -20.15 14.25 -20.05 14.3 -19.95 14.35 -19.85 14.45 -19.7 14.5 -19.6 14.55 -19.5 14.55 -19.4 14.6 -19.35 14.7 -19.2 14.7 -19.15 14.75 -19.05 14.75 -18.95 14.8 -18.9 14.85 -18.8 14.85 -18.7 14.95 -18.6 14.95 -18.55 14.95 -18.45 15.05 -18.35 15.05 -18.25 15.05 -18.15 15.1 -18.1 15.1 -18.05 15.1 -17.9 15.1 -17.85 15.15 -17.75 15.1 -17.75 15.1 -17.65 15.15 -17.55 15.1 -17.5 15.1 -17.45 15.1 -17.35 15.1 -17.3 15.15 -17.25 15.1 -17.15 15.1 -17.1 15.15 -17.0 15.15 -16.95 15.15 -16.85 15.15 -16.8 15.15 -16.75 15.15 -16.7 15.15 -16.6 15.15 -16.5 15.15 -16.45 15.1 -16.35 15.1 -16.25 15.15 -16.15 15.15 -16.1 15.1 -16.1 15.05 -16.05 15.0 -16.1 15.0 -16.05 14.95 -16.05 14.9 -16.05 14.85 -16.05 14.75 -16.05 14.7 -16.05 14.7 -16.0 14.65 -15.95 14.6 -15.95 14.6 -16.0 14.6 -15.95 14.55 -15.95 14.45 -15.95 14.4 -15.95 14.3 -15.95 14.3 -15.9 14.25 -15.9 14.25 -15.95 14.2 -15.9 14.1 -15.9 14.1 -15.95 14.1 -15.9 14.05 -15.9 14.05 -15.85 14.0 -15.85 13.95 -15.9 13.95 -15.85 13.9 -15.85 13.85 -15.85 13.8 -15.85 13.75 -15.9 13.75 -15.85 13.7 -15.85 13.65 -15.85 13.6 -15.85 13.55 -15.85 13.5 -15.85 13.45 -15.9 13.5 -16.0 13.45 -16.05 13.45 -16.15 13.5 -16.2 13.45 -16.25 13.45 -16.35 13.45 -16.45 13.5 -16.5 13.5 -16.55 13.55 -16.7 13.5 -16.75 13.5 -16.8 13.55 -16.85 13.5 -16.95 13.5 -17.0 13.5 -17.1 13.5 -17.15 13.5 -17.25 13.45 -17.3 13.5 -17.4 13.45 -17.45 13.5 -17.5 13.5 -17.55 13.5 -17.65 13.5 -17.7 13.45 -17.85 13.45 -17.95 13.4 -18.0 13.35 -18.05 13.35 -18.2 13.25 -18.3 13.25 -18.35 13.25 -18.45 13.2 -18.55 13.15 -18.65 13.1 -18.75 13.05 -18.8 13.0 -18.9 12.9 -19.0 12.85 -19.15 12.8 -19.25 12.8 -19.3 12.75 -19.4 12.35 -19.6 12.15 -19.6 12.0 -19.7 11.9 -19.7 11.75 -19.7 11.7 -19.7 11.6 -19.65 11.45 -19.7 11.3 -19.7 11.2 -19.7 11.15 -19.65 11.0 -19.65 10.9 -19.65 10.8 -19.65 10.7 -19.6 10.6 -19.65 10.55 -19.6 10.45 -19.55 10.4 -19.5 10.35 -19.45 10.3 -19.45 10.2 -19.4 10.15 -19.35 10.1 -19.35 10.0 -19.3 9.95 -19.3 9.85 -19.25 9.75 -19.25 9.7 -19.2 9.65 -19.2 9.6 -19.15 9.55 -19.1 9.45 -19.1 9.4 -19.05 9.35 -18.95 9.3 -19.0 9.25 -18.95 9.15 -18.9 9.15 -18.85 9.05 -18.8 9.05 -18.75 8.95 -18.75 8.9 -18.7 8.85 -18.65 8.8 -18.6 8.7 -18.6 8.7 -18.55 8.65 -18.5 8.6 -18.45 8.55 -18.4 8.5 -18.35 8.45 -18.35 8.4 -18.3 8.4 -18.25 8.35 -18.2 8.3 -18.15 8.3 -18.1 8.25 -18.05 8.25 -17.95 8.2 -17.9 8.15 -17.85 8.15 -17.8 8.1 -17.75 8.1 -17.7 8.05 -17.65 8.0 -17.6 8.0 -17.55 7.95 -17.5 7.9 -17.45 7.9 -17.4 7.85 -17.35 7.85 -17.3 7.8 -17.25 7.8 -17.2 7.75 -17.15 7.7 -17.1 7.7 -17.05 7.65 -17.0 7.6 -16.9 7.6 -16.85 7.55 -16.8 7.55 -16.75 7.5 -16.7 7.4 -16.75 7.35 -16.75 7.35 -16.8 7.3 -16.75 7.2 -16.8 7.15 -16.85 7.1 -16.85 7.0 -16.9 6.55 -17.15 6.5 -17.2 6.45 -17.2 6.1 -17.45 6.1 -17.5 6.15 -17.55 6.15 -17.6 6.2 -17.65 6.2 -17.7 6.25 -17.8 6.3 -17.85 6.3 -17.9 6.35 -17.95 6.4 -18.0 6.4 -18.05 6.45 -18.1 6.45 -18.15 6.5 -18.25 6.55 -18.3 6.6 -18.35 6.65 -18.45 6.7 -18.55 6.75 -18.6 6.8 -18.7 6.85 -18.85 6.9 -18.9 6.9 -18.95 7.0 -19.05 7.05 -19.15 7.1 -19.25 7.2 -19.3 7.2 -19.35 7.25 -19.4 7.3 -19.45 7.4 -19.5 7.4 -19.55 7.45 -19.6 7.5 -19.65 7.55 -19.7 7.6 -19.7 7.6 -19.8 7.7 -19.85 7.7 -19.9 7.75 -19.9 7.85 -19.95 7.85 -20.0 7.95 -20.05 8.0 -20.05 8.05 -20.1 8.1 -20.15 8.15 -20.15 8.25 -20.2 8.3 -20.25 8.35 -20.3 8.4 -20.3 8.45 -20.35 8.5 -20.4 8.6 -20.4 8.6 -20.45 8.7 -20.5 8.7 -20.6 8.8 -20.6 8.85 -20.65 8.9 -20.65 9.0 -20.7 9.05 -20.7 9.15 -20.75 9.25 -20.75 9.25 -20.8 9.35 -20.8 9.45 -20.85 9.5 -20.85 9.6 -20.9 9.6 -20.95 9.7 -20.95 9.75 -21.0 9.8 -21.0 9.9 -21.05 9.95 -21.1 10.0 -21.1 10.1 -21.2 10.15 -21.2 10.3 -21.2 10.35 -21.2 10.45 -21.25 10.6 -21.25 10.65 -21.25 10.8 -21.25 10.85 -21.3 10.95 -21.3 11.05 -21.3 11.15 -21.3 11.25 -21.35 11.35 -21.35 11.5 -21.3 11.65 -21.3 11.75 -21.3 11.85 -21.3 11.95 -21.3 12.1 -21.3 12.15 -21.3 12.2 -21.3 12.4 -21.25 12.55 -21.2 12.75 -21.2 12.85 -21.1 12.95 -21.1 13.1 -21.1 13.2 -21.0 13.75 -20.7 13.85 -20.65 13.9 -20.55" fill="#666666" fill-rule="evenodd" stroke="none"/>
    <path d="M13.9 -20.55 L14.0 -20.45 14.05 -20.35 14.15 -20.25 14.2 -20.15 14.25 -20.05 14.3 -19.95 14.35 -19.85 14.45 -19.7 14.5 -19.6 14.55 -19.5 14.55 -19.4 14.6 -19.35 14.7 -19.2 14.7 -19.15 14.75 -19.05 14.75 -18.95 14.8 -18.9 14.85 -18.8 14.85 -18.7 14.95 -18.6 14.95 -18.55 14.95 -18.45 15.05 -18.35 15.05 -18.25 15.05 -18.15 15.1 -18.1 15.1 -18.05 15.1 -17.9 15.1 -17.85 15.15 -17.75 15.1 -17.75 15.1 -17.65 15.15 -17.55 15.1 -17.5 15.1 -17.45 15.1 -17.35 15.1 -17.3 15.15 -17.25 15.1 -17.15 15.1 -17.1 15.15 -17.0 15.15 -16.95 15.15 -16.85 15.15 -16.8 15.15 -16.75 15.15 -16.7 15.15 -16.6 15.15 -16.5 15.15 -16.45 15.1 -16.35 15.1 -16.25 15.15 -16.15 15.15 -16.1 15.1 -16.1 15.05 -16.05 15.0 -16.1 15.0 -16.05 14.95 -16.05 14.9 -16.05 14.85 -16.05 14.75 -16.05 14.7 -16.05 14.7 -16.0 14.65 -15.95 14.6 -15.95 14.6 -16.0 14.6 -15.95 14.55 -15.95 14.45 -15.95 14.4 -15.95 14.3 -15.95 14.3 -15.9 14.25 -15.9 14.25 -15.95 14.2 -15.9 14.1 -15.9 14.1 -15.95 14.1 -15.9 14.05 -15.9 14.05 -15.85 14.0 -15.85 13.95 -15.9 13.95 -15.85 13.9 -15.85 13.85 -15.85 13.8 -15.85 13.75 -15.9 13.75 -15.85 13.7 -15.85 13.65 -15.85 13.6 -15.85 13.55 -15.85 13.5 -15.85 13.45 -15.9 13.5 -16.0 13.45 -16.05 13.45 -16.15 13.5 -16.2 13.45 -16.25 13.45 -16.35 13.45 -16.45 13.5 -16.5 13.5 -16.55 13.55 -16.7 13.5 -16.75 13.5 -16.8 13.55 -16.85 13.5 -16.95 13.5 -17.0 13.5 -17.1 13.5 -17.15 13.5 -17.25 13.45 -17.3 13.5 -17.4 13.45 -17.45 13.5 -17.5 13.5 -17.55 13.5 -17.65 13.5 -17.7 13.45 -17.85 13.45 -17.95 13.4 -18.0 13.35 -18.05 13.35 -18.2 13.25 -18.3 13.25 -18.35 13.25 -18.45 13.2 -18.55 13.15 -18.65 13.1 -18.75 13.05 -18.8 13.0 -18.9 12.9 -19.0 12.85 -19.15 12.8 -19.25 12.8 -19.3 12.75 -19.4 12.35 -19.6 12.15 -19.6 12.0 -19.7 11.9 -19.7 11.75 -19.7 11.7 -19.7 11.6 -19.65 11.45 -19.7 11.3 -19.7 11.2 -19.7 11.15 -19.65 11.0 -19.65 10.9 -19.65 10.8 -19.65 10.7 -19.6 10.6 -19.65 10.55 -19.6 10.45 -19.55 10.4 -19.5 10.35 -19.45 10.3 -19.45 10.2 -19.4 10.15 -19.35 10.1 -19.35 10.0 -19.3 9.95 -19.3 9.85 -19.25 9.75 -19.25 9.7 -19.2 9.65 -19.2 9.6 -19.15 9.55 -19.1 9.45 -19.1 9.4 -19.05 9.35 -18.95 9.3 -19.0 9.25 -18.95 9.15 -18.9 9.15 -18.85 9.05 -18.8 9.05 -18.75 8.95 -18.75 8.9 -18.7 8.85 -18.65 8.8 -18.6 8.7 -18.6 8.7 -18.55 8.65 -18.5 8.6 -18.45 8.55 -18.4 8.5 -18.35 8.45 -18.35 8.4 -18.3 8.4 -18.25 8.35 -18.2 8.3 -18.15 8.3 -18.1 8.25 -18.05 8.25 -17.95 8.2 -17.9 8.15 -17.85 8.15 -17.8 8.1 -17.75 8.1 -17.7 8.05 -17.65 8.0 -17.6 8.0 -17.55 7.95 -17.5 7.9 -17.45 7.9 -17.4 7.85 -17.35 7.85 -17.3 7.8 -17.25 7.8 -17.2 7.75 -17.15 7.7 -17.1 7.7 -17.05 7.65 -17.0 7.6 -16.9 7.6 -16.85 7.55 -16.8 7.55 -16.75 7.5 -16.7 7.4 -16.75 7.35 -16.75 7.35 -16.8 7.3 -16.75 7.2 -16.8 7.15 -16.85 7.1 -16.85 7.0 -16.9 6.55 -17.15 6.5 -17.2 6.45 -17.2 6.1 -17.45 6.1 -17.5 6.15 -17.55 6.15 -17.6 6.2 -17.65 6.2 -17.7 6.25 -17.8 6.3 -17.85 6.3 -17.9 6.35 -17.95 6.4 -18.0 6.4 -18.05 6.45 -18.1 6.45 -18.15 6.5 -18.25 6.55 -18.3 6.6 -18.35 6.65 -18.45 6.7 -18.55 6.75 -18.6 6.8 -18.7 6.85 -18.85 6.9 -18.9 6.9 -18.95 7.0 -19.05 7.05 -19.15 7.1 -19.25 7.2 -19.3 7.2 -19.35 7.25 -19.4 7.3 -19.45 7.4 -19.5 7.4 -19.55 7.45 -19.6 7.5 -19.65 7.55 -19.7 7.6 -19.7 7.6 -19.8 7.7 -19.85 7.7 -19.9 7.75 -19.9 7.85 -19.95 7.85 -20.0 7.95 -20.05 8.0 -20.05 8.05 -20.1 8.1 -20.15 8.15 -20.15 8.25 -20.2 8.3 -20.25 8.35 -20.3 8.4 -20.3 8.45 -20.35 8.5 -20.4 8.6 -20.4 8.6 -20.45 8.7 -20.5 8.7 -20.6 8.8 -20.6 8.85 -20.65 8.9 -20.65 9.0 -20.7 9.05 -20.7 9.15 -20.75 9.25 -20.75 9.25 -20.8 9.35 -20.8 9.45 -20.85 9.5 -20.85 9.6 -20.9 9.6 -20.95 9.7 -20.95 9.75 -21.0 9.8 -21.0 9.9 -21.05 9.95 -21.1 10.0 -21.1 10.1 -21.2 10.15 -21.2 10.3 -21.2 10.35 -21.2 10.45 -21.25 10.6 -21.25 10.65 -21.25 10.8 -21.25 10.85 -21.3 10.95 -21.3 11.05 -21.3 11.15 -21.3 11.25 -21.35 11.35 -21.35 11.5 -21.3 11.65 -21.3 11.75 -21.3 11.85 -21.3 11.95 -21.3 12.1 -21.3 12.15 -21.3 12.2 -21.3 12.4 -21.25 12.55 -21.2 12.75 -21.2 12.85 -21.1 12.95 -21.1 13.1 -21.1 13.2 -21.0 13.75 -20.7 13.85 -20.65 13.9 -20.55 Z" fill="none" stroke="#000000" stroke-linecap="round" stroke-linejoin="round" stroke-width="1.0"/>
    <path d="M9.0 -18.75 L8.95 -18.8 8.95 -18.75 8.9 -18.75 8.85 -18.65 8.8 -18.55 8.7 -18.6 8.7 -18.55 8.65 -18.55 8.6 -18.5 8.55 -18.4 8.55 -18.45 8.5 -18.35 8.45 -18.35 8.4 -18.25 8.35 -18.2 8.3 -18.2 8.3 -18.15 8.25 -18.1 8.15 -18.0 8.1 -18.0 8.1 -17.95 8.05 -17.95 8.0 -17.9 8.0 -17.95 8.0 -17.9 7.95 -17.9 7.9 -17.9 7.9 -17.85 7.85 -17.85 7.8 -17.85 7.8 -17.8 7.75 -17.8 7.75 -17.85 7.7 -17.85 7.65 -17.8 7.6 -17.8 7.6 -17.85 7.55 -17.8 7.5 -17.8 7.45 -17.8 7.4 -17.8 7.35 -17.85 7.35 -17.8 7.3 -17.8 7.25 -17.8 7.25 -17.85 7.2 -17.8 7.15 -17.8 7.15 -17.85 7.1 -17.85 7.1 -17.8 7.05 -17.8 7.0 -17.85 6.95 -17.85 6.95 -17.8 6.95 -17.85 6.9 -17.85 6.8 -17.8 6.75 -17.85 6.75 -17.8 6.7 -17.8 6.65 -17.8 6.6 -17.8 6.55 -17.8 6.5 -17.8 6.5 -17.75 6.45 -17.75 6.45 -17.8 6.4 -17.75 6.35 -17.75 6.35 -17.7 6.3 -17.65 6.25 -17.6 6.25 -17.55 6.25 -17.5 6.2 -17.5 6.2 -17.45 6.15 -17.45 6.15 -17.5 6.1 -17.5 6.1 -17.55 6.15 -17.55 6.15 -17.6 6.2 -17.65 6.2 -17.7 6.25 -17.75 6.25 -17.8 6.3 -17.85 6.35 -17.85 6.35 -17.8 6.35 -17.85 6.45 -17.85 6.45 -17.9 6.5 -17.9 6.5 -17.85 6.6 -17.9 6.65 -17.9 6.7 -17.9 6.75 -17.9 6.8 -17.9 6.8 -17.95 6.85 -17.95 6.85 -17.9 6.95 -17.9 6.95 -17.95 7.0 -17.95 7.0 -17.9 7.05 -17.9 7.05 -17.95 7.1 -17.95 7.15 -17.9 7.2 -17.95 7.2 -17.9 7.25 -17.9 7.3 -17.9 7.35 -17.9 7.4 -17.9 7.4 -17.95 7.45 -17.9 7.5 -17.9 7.55 -17.95 7.55 -17.9 7.6 -17.9 7.65 -17.95 7.65 -17.9 7.75 -17.9 7.75 -17.95 7.8 -17.95 7.8 -17.9 7.9 -17.95 7.9 -18.0 8.0 -18.0 8.0 -18.05 8.1 -18.05 8.1 -18.1 8.1 -18.05 8.15 -18.15 8.2 -18.2 8.25 -18.25 8.3 -18.3 8.35 -18.35 8.4 -18.45 8.45 -18.45 8.45 -18.4 8.5 -18.5 8.55 -18.6 8.6 -18.6 8.6 -18.65 8.7 -18.7 8.7 -18.65 8.75 -18.75 8.8 -18.75 8.85 -18.85 8.9 -18.8 8.95 -18.8 8.95 -18.85 9.0 -18.85 9.0 -18.8 9.05 -18.8 9.0 -18.75" fill="#000000" fill-rule="evenodd" stroke="none"/>
    <path d="M9.2 -18.8 L9.15 -18.75 9.1 -18.75 9.1 -18.8 9.1 -18.75 9.05 -18.75 9.0 -18.7 8.9 -18.65 8.9 -18.7 8.85 -18.7 8.8 -18.7 8.75 -18.7 8.7 -18.7 8.7 -18.65 8.65 -18.7 8.6 -18.65 8.55 -18.65 8.55 -18.7 8.5 -18.7 8.5 -18.65 8.45 -18.65 8.4 -18.65 8.35 -18.65 8.35 -18.6 8.3 -18.65 8.25 -18.65 8.25 -18.6 8.2 -18.6 8.15 -18.6 8.1 -18.6 8.05 -18.6 8.0 -18.6 7.95 -18.65 7.9 -18.65 7.9 -18.6 7.85 -18.6 7.8 -18.65 7.75 -18.6 7.75 -18.65 7.7 -18.65 7.65 -18.6 7.6 -18.6 7.6 -18.65 7.55 -18.65 7.55 -18.6 7.5 -18.65 7.45 -18.65 7.4 -18.65 7.35 -18.65 7.35 -18.6 7.3 -18.6 7.25 -18.6 7.25 -18.55 7.2 -18.6 7.15 -18.55 7.1 -18.6 7.05 -18.6 7.05 -18.55 7.0 -18.6 6.95 -18.55 6.9 -18.5 6.9 -18.55 6.85 -18.5 6.8 -18.5 6.8 -18.45 6.75 -18.45 6.7 -18.45 6.7 -18.4 6.65 -18.35 6.65 -18.3 6.6 -18.3 6.6 -18.25 6.55 -18.2 6.55 -18.15 6.5 -18.1 6.5 -18.05 6.45 -18.0 6.45 -17.95 6.4 -17.9 6.4 -17.85 6.35 -17.8 6.35 -17.85 6.3 -17.85 6.35 -17.9 6.35 -17.95 6.4 -18.0 6.4 -18.05 6.45 -18.1 6.45 -18.15 6.5 -18.2 6.5 -18.25 6.55 -18.3 6.6 -18.35 6.6 -18.4 6.65 -18.45 6.65 -18.5 6.7 -18.5 6.7 -18.55 6.75 -18.6 6.8 -18.6 6.8 -18.55 6.8 -18.6 6.85 -18.6 6.9 -18.65 6.95 -18.65 7.0 -18.65 7.05 -18.65 7.05 -18.7 7.1 -18.65 7.1 -18.7 7.15 -18.7 7.2 -18.7 7.2 -18.65 7.25 -18.7 7.3 -18.75 7.3 -18.7 7.35 -18.7 7.4 -18.75 7.45 -18.7 7.55 -18.75 7.6 -18.7 7.6 -18.75 7.65 -18.75 7.65 -18.7 7.75 -18.7 7.75 -18.75 7.8 -18.75 7.8 -18.7 7.85 -18.75 7.9 -18.75 7.95 -18.7 8.0 -18.75 8.0 -18.7 8.05 -18.7 8.1 -18.7 8.15 -18.7 8.2 -18.7 8.25 -18.75 8.25 -18.7 8.3 -18.7 8.35 -18.75 8.4 -18.7 8.4 -18.75 8.5 -18.75 8.55 -18.75 8.6 -18.8 8.65 -18.8 8.65 -18.75 8.7 -18.8 8.75 -18.8 8.75 -18.75 8.8 -18.8 8.85 -18.8 8.9 -18.75 8.9 -18.8 8.95 -18.8 9.0 -18.8 9.0 -18.85 9.05 -18.85 9.1 -18.9 9.15 -18.9 9.15 -18.95 9.15 -18.9 9.2 -18.85 9.2 -18.8" fill="#000000" fill-rule="evenodd" stroke="none"/>
    <path d="M13.5 -16.65 L13.5 -16.6 13.55 -16.6 13.55 -16.55 13.6 -16.5 13.55 -16.5 13.55 -16.4 13.5 -16.4 13.5 -16.35 13.5 -16.3 13.5 -16.25 13.5 -16.2 13.55 -16.2 13.55 -16.15 13.55 -16.05 13.55 -16.0 13.6 -16.0 13.6 -15.95 13.6 -15.9 13.55 -15.85 13.5 -15.9 13.45 -15.9 13.5 -15.95 13.5 -16.0 13.45 -16.05 13.45 -16.15 13.45 -16.2 13.4 -16.2 13.45 -16.2 13.45 -16.25 13.4 -16.3 13.4 -16.35 13.45 -16.35 13.45 -16.4 13.45 -16.45 13.4 -16.45 13.45 -16.45 13.45 -16.5 13.45 -16.55 13.5 -16.65" fill="#000000" fill-rule="evenodd" stroke="none"/>
    <path d="M13.8 -15.95 L13.75 -15.9 13.7 -15.9 13.7 -16.0 13.7 -16.05 13.7 -16.1 13.7 -16.15 13.75 -16.2 13.7 -16.2 13.7 -16.25 13.65 -16.25 13.65 -16.3 13.7 -16.35 13.7 -16.4 13.65 -16.4 13.65 -16.45 13.7 -16.45 13.65 -16.45 13.65 -16.5 13.65 -16.55 13.65 -16.6 13.75 -16.75 13.8 -16.75 13.85 -16.7 13.8 -16.65 13.75 -16.7 13.75 -16.65 13.7 -16.6 13.75 -16.6 13.75 -16.55 13.75 -16.5 13.75 -16.45 13.75 -16.4 13.8 -16.4 13.75 -16.4 13.75 -16.35 13.8 -16.35 13.8 -16.3 13.8 -16.25 13.75 -16.25 13.8 -16.2 13.75 -16.15 13.75 -16.1 13.8 -16.05 13.75 -16.0 13.8 -16.0 13.8 -15.95" fill="#000000" fill-rule="evenodd" stroke="none"/>
    <path d="M14.2 -16.55 L14.2 -16.5 14.2 -16.45 14.2 -16.4 14.2 -16.35 14.15 -16.35 14.15 -16.3 14.2 -16.3 14.2 -16.25 14.15 -16.25 14.2 -16.2 14.2 -16.15 14.2 -16.1 14.25 -16.0 14.2 -16.0 14.2 -15.95 14.2 -15.9 14.15 -15.95 14.15 -16.0 14.1 -16.0 14.1 -16.05 14.15 -16.05 14.1 -16.1 14.1 -16.15 14.1 -16.2 14.15 -16.2 14.1 -16.2 14.1 -16.3 14.1 -16.35 14.1 -16.4 14.15 -16.4 14.1 -16.4 14.1 -16.45 14.1 -16.5 14.1 -16.55 14.15 -16.55 14.1 -16.55 14.1 -16.6 14.05 -16.65 14.1 -16.7 14.05 -16.7 14.05 -16.75 14.1 -16.85 14.05 -16.9 14.1 -16.95 14.2 -16.95 14.2 -16.9 14.2 -16.85 14.15 -16.85 14.15 -16.8 14.2 -16.75 14.15 -16.7 14.15 -16.65 14.2 -16.65 14.15 -16.55 14.2 -16.55" fill="#000000" fill-rule="evenodd" stroke="none"/>
    <path d="M14.65 -16.75 L14.65 -16.7 14.7 -16.7 14.7 -16.65 14.65 -16.6 14.65 -16.55 14.7 -16.55 14.65 -16.55 14.65 -16.5 14.65 -16.45 14.65 -16.4 14.65 -16.35 14.7 -16.35 14.65 -16.3 14.65 -16.25 14.6 -16.25 14.6 -16.2 14.55 -16.2 14.55 -16.25 14.55 -16.3 14.55 -16.35 14.5 -16.35 14.55 -16.4 14.55 -16.5 14.55 -16.55 14.55 -16.6 14.6 -16.6 14.6 -16.65 14.55 -16.65 14.6 -16.75 14.6 -16.8 14.55 -16.8 14.6 -16.85 14.65 -16.85 14.7 -16.8 14.65 -16.75" fill="#000000" fill-rule="evenodd" stroke="none"/>
    <path d="M14.9 -16.45 L14.9 -16.4 14.9 -16.35 14.95 -16.35 14.95 -16.25 14.9 -16.25 14.9 -16.2 14.9 -16.25 14.85 -16.25 14.8 -16.3 14.8 -16.35 14.85 -16.35 14.85 -16.4 14.8 -16.4 14.8 -16.45 14.85 -16.5 14.8 -16.5 14.8 -16.55 14.8 -16.6 14.8 -16.65 14.8 -16.7 14.75 -16.7 14.8 -16.75 14.8 -16.8 14.8 -16.85 14.8 -16.9 14.85 -16.95 14.9 -16.95 14.9 -16.9 14.9 -16.85 14.9 -16.8 14.9 -16.75 14.85 -16.75 14.9 -16.75 14.9 -16.7 14.9 -16.65 14.85 -16.65 14.9 -16.65 14.9 -16.6 14.9 -16.55 14.95 -16.55 14.9 -16.5 14.9 -16.45" fill="#000000" fill-rule="evenodd" stroke="none"/>
    <path d="M15.1 -17.05 L15.1 -16.95 15.15 -16.9 15.1 -16.9 15.1 -16.85 15.05 -16.8 15.05 -16.7 15.1 -16.7 15.1 -16.65 15.05 -16.65 15.05 -16.6 15.1 -16.6 15.1 -16.5 15.05 -16.5 15.05 -16.45 15.1 -16.45 15.05 -16.4 15.1 -16.4 15.1 -16.35 15.15 -16.3 15.1 -16.3 15.1 -16.25 15.15 -16.2 15.15 -16.15 15.15 -16.1 15.2 -16.05 15.15 -16.0 15.1 -16.0 15.1 -16.05 15.05 -16.05 15.1 -16.1 15.05 -16.15 15.05 -16.2 15.0 -16.2 15.05 -16.2 15.05 -16.3 15.0 -16.3 15.0 -16.35 15.0 -16.4 15.0 -16.45 14.95 -16.45 15.0 -16.5 14.95 -16.55 14.95 -16.6 15.0 -16.65 15.0 -16.7 15.05 -16.7 15.0 -16.7 15.0 -16.75 15.0 -16.85 14.95 -16.85 15.0 -16.9 15.0 -16.95 15.0 -17.0 15.1 -17.05" fill="#000000" fill-rule="evenodd" stroke="none"/>
    <path d="M15.1 -16.85 L15.1 -16.8 15.15 -16.8 15.1 -16.75 15.1 -16.7 15.1 -16.65 15.15 -16.65 15.15 -16.55 15.15 -16.5 15.1 -16.5 15.15 -16.5 15.15 -16.45 15.15 -16.4 15.1 -16.35 15.15 -16.35 15.1 -16.3 15.05 -16.25 15.05 -16.3 15.0 -16.35 15.05 -16.35 15.05 -16.4 15.0 -16.4 15.05 -16.45 15.05 -16.55 15.0 -16.55 15.05 -16.55 15.05 -16.6 15.0 -16.6 15.0 -16.65 15.0 -16.7 15.05 -16.7 15.05 -16.75 15.05 -16.8 15.0 -16.8 15.05 -16.8 15.05 -16.85 15.05 -16.9 15.0 -16.9 15.05 -16.95 15.1 -17.0 15.1 -16.95 15.15 -16.95 15.15 -16.9 15.1 -16.85" fill="#000000" fill-rule="evenodd" stroke="none"/>
    <path d="M14.95 -16.55 L15.0 -16.55 15.0 -16.5 15.05 -16.5 15.05 -16.45 15.05 -16.4 15.05 -16.35 15.1 -16.35 15.05 -16.3 15.05 -16.25 15.1 -16.2 15.05 -16.15 15.1 -16.1 15.05 -16.05 15.0 -16.05 14.95 -16.0 14.9 -16.0 14.9 -15.95 14.9 -16.0 14.8 -16.0 14.8 -15.95 14.75 -15.95 14.75 -15.9 14.7 -15.95 14.65 -15.9 14.6 -15.9 14.55 -15.9 14.5 -15.85 14.45 -15.85 14.45 -15.9 14.4 -15.9 14.4 -15.85 14.35 -15.85 14.35 -15.8 14.35 -15.85 14.25 -15.85 14.25 -15.8 14.2 -15.8 14.2 -15.85 14.2 -15.8 14.15 -15.8 14.1 -15.8 14.05 -15.8 14.0 -15.8 13.95 -15.75 13.9 -15.8 13.85 -15.75 13.75 -15.75 13.7 -15.7 13.7 -15.75 13.55 -15.8 13.5 -15.85 13.5 -15.9 13.5 -15.95 13.55 -15.95 13.6 -15.95 13.6 -15.9 13.6 -15.95 13.6 -16.0 13.6 -16.05 13.55 -16.05 13.55 -16.15 13.5 -16.15 13.55 -16.15 13.5 -16.2 13.5 -16.25 13.5 -16.3 13.45 -16.4 13.45 -16.45 13.5 -16.45 13.45 -16.45 13.45 -16.5 13.45 -16.55 13.5 -16.55 13.5 -16.6 13.45 -16.6 13.45 -16.65 13.5 -16.65 13.45 -16.7 13.45 -16.75 13.5 -16.8 13.5 -16.85 13.5 -16.8 13.55 -16.8 13.6 -16.75 13.6 -16.8 13.65 -16.8 13.65 -16.85 13.65 -16.9 13.6 -16.9 13.65 -16.95 13.7 -16.95 13.7 -16.9 13.75 -16.9 13.75 -16.8 13.8 -16.75 13.75 -16.7 13.7 -16.7 13.7 -16.65 13.65 -16.65 13.7 -16.65 13.7 -16.6 13.7 -16.55 13.75 -16.5 13.7 -16.5 13.75 -16.5 13.75 -16.45 13.75 -16.4 13.8 -16.4 13.85 -16.4 13.8 -16.35 13.8 -16.3 13.85 -16.3 13.85 -16.25 13.75 -16.15 13.7 -16.0 13.75 -15.95 13.75 -16.0 13.8 -16.0 13.95 -15.9 13.9 -16.0 13.85 -16.0 13.85 -16.05 13.85 -16.1 13.9 -16.1 13.85 -16.1 13.85 -16.15 13.85 -16.2 13.9 -16.2 13.85 -16.25 13.85 -16.3 13.9 -16.35 13.85 -16.35 13.9 -16.4 13.9 -16.45 13.95 -16.45 13.95 -16.4 13.95 -16.35 14.0 -16.35 14.0 -16.3 14.0 -16.25 14.05 -16.25 14.0 -16.25 14.0 -16.2 14.05 -16.2 14.05 -16.25 14.05 -16.3 14.1 -16.35 14.05 -16.35 14.05 -16.4 14.05 -16.45 14.1 -16.45 14.1 -16.5 14.05 -16.5 14.05 -16.55 14.1 -16.55 14.05 -16.65 14.1 -16.7 14.15 -16.65 14.2 -16.65 14.15 -16.55 14.2 -16.55 14.25 -16.55 14.25 -16.45 14.3 -16.45 14.3 -16.35 14.3 -16.3 14.35 -16.3 14.3 -16.3 14.3 -16.25 14.35 -16.25 14.4 -16.3 14.35 -16.3 14.4 -16.35 14.45 -16.4 14.5 -16.4 14.5 -16.35 14.5 -16.3 14.5 -16.25 14.55 -16.35 14.6 -16.4 14.65 -16.4 14.65 -16.35 14.7 -16.35 14.7 -16.4 14.75 -16.4 14.75 -16.45 14.7 -16.5 14.75 -16.5 14.8 -16.55 14.85 -16.55 14.85 -16.45 14.85 -16.5 14.85 -16.55 14.85 -16.6 14.85 -16.65 14.8 -16.65 14.85 -16.65 14.85 -16.75 14.8 -16.75 14.8 -16.8 14.85 -16.8 14.8 -16.85 14.8 -16.9 14.85 -16.9 14.9 -16.9 14.9 -16.8 14.95 -16.8 15.0 -16.75 14.95 -16.7 14.95 -16.65 15.0 -16.65 15.0 -16.6 14.95 -16.6 14.95 -16.55 M14.55 -16.2 L14.6 -16.2 14.5 -16.05 14.45 -16.05 14.4 -16.1 14.45 -16.1 14.45 -16.15 14.4 -16.15 14.4 -16.2 14.4 -16.15 14.4 -16.1 14.35 -16.05 14.35 -16.1 14.3 -16.1 14.3 -16.15 14.25 -16.2 14.25 -16.25 14.2 -16.3 14.2 -16.35 14.2 -16.45 14.2 -16.4 14.15 -16.4 14.15 -16.35 14.15 -16.3 14.1 -16.25 14.15 -16.25 14.15 -16.2 14.1 -16.2 14.05 -16.1 14.05 -16.05 14.0 -16.1 13.95 -16.1 13.95 -16.15 13.95 -16.1 14.0 -16.05 14.1 -15.95 14.15 -15.95 14.2 -15.9 14.2 -15.95 14.25 -15.95 14.3 -15.95 14.35 -15.95 14.4 -16.0 14.4 -15.95 14.4 -16.0 14.5 -16.0 14.55 -16.05 14.55 -16.0 14.65 -16.05 14.6 -16.05 14.6 -16.1 14.6 -16.15 14.6 -16.2 14.55 -16.2 M14.75 -16.1 L14.75 -16.15 14.8 -16.15 14.75 -16.2 14.75 -16.25 14.75 -16.2 14.75 -16.15 14.75 -16.1 M13.6 -16.65 L13.55 -16.65 13.55 -16.6 13.55 -16.55 13.55 -16.5 13.55 -16.45 13.55 -16.4 13.6 -16.4 13.6 -16.45 13.55 -16.45 13.55 -16.5 13.6 -16.5 13.6 -16.55 13.6 -16.6 13.6 -16.65" fill="#000000" fill-rule="evenodd" stroke="none"/>
    <path d="M13.9 -16.15 L13.9 -16.1 13.9 -16.05 13.95 -16.05 13.9 -16.05 13.95 -16.05 13.95 -16.0 13.95 -15.95 13.95 -15.9 13.9 -15.9 13.9 -15.95 13.85 -15.95 13.8 -15.95 13.85 -16.0 13.85 -16.05 13.8 -16.05 13.8 -16.1 13.8 -16.15 13.75 -16.15 13.75 -16.2 13.7 -16.25 13.7 -16.3 13.7 -16.35 13.7 -16.4 13.65 -16.45 13.7 -16.45 13.65 -16.45 13.65 -16.5 13.65 -16.55 13.65 -16.6 13.7 -16.7 13.7 -16.75 13.75 -16.75 13.75 -16.7 13.8 -16.65 13.8 -16.6 13.8 -16.5 13.85 -16.5 13.85 -16.45 13.8 -16.45 13.85 -16.45 13.85 -16.4 13.85 -16.35 13.9 -16.35 13.9 -16.4 13.85 -16.4 13.95 -16.55 14.0 -16.55 14.05 -16.5 14.0 -16.4 13.95 -16.35 13.95 -16.3 13.9 -16.25 13.9 -16.2 13.85 -16.25 13.8 -16.25 13.85 -16.15 13.9 -16.15" fill="#000000" fill-rule="evenodd" stroke="none"/>
    <path d="M14.2 -16.55 L14.2 -16.5 14.25 -16.5 14.25 -16.45 14.2 -16.4 14.2 -16.45 14.15 -16.45 14.1 -16.45 14.15 -16.4 14.1 -16.4 14.1 -16.35 14.15 -16.35 14.15 -16.3 14.1 -16.25 14.1 -16.2 14.15 -16.2 14.1 -16.2 14.1 -16.15 14.15 -16.1 14.15 -16.05 14.1 -16.05 14.1 -16.0 14.1 -15.95 14.05 -16.0 14.0 -16.0 14.0 -16.05 14.05 -16.1 14.05 -16.2 14.0 -16.2 14.0 -16.25 14.05 -16.25 14.05 -16.3 14.0 -16.3 14.0 -16.35 14.05 -16.35 14.05 -16.4 14.0 -16.4 14.0 -16.45 14.05 -16.45 14.05 -16.5 14.0 -16.55 14.0 -16.6 14.05 -16.6 14.0 -16.65 14.05 -16.7 14.1 -16.7 14.15 -16.65 14.1 -16.6 14.15 -16.6 14.2 -16.55" fill="#000000" fill-rule="evenodd" stroke="none"/>
    <path d="M14.3 -16.5 L14.3 -16.45 14.3 -16.4 14.3 -16.35 14.3 -16.3 14.25 -16.3 14.25 -16.25 14.3 -16.25 14.3 -16.15 14.25 -16.15 14.3 -16.15 14.3 -16.1 14.25 -16.05 14.2 -16.1 14.25 -16.15 14.2 -16.15 14.2 -16.2 14.2 -16.25 14.2 -16.3 14.15 -16.35 14.2 -16.4 14.2 -16.45 14.2 -16.5 14.25 -16.55 14.3 -16.55 14.3 -16.5" fill="#000000" fill-rule="evenodd" stroke="none"/>
    <path d="M14.45 -16.4 L14.45 -16.35 14.35 -16.35 14.35 -16.3 14.4 -16.25 14.35 -16.25 14.35 -16.2 14.35 -16.15 14.35 -16.05 14.35 -16.0 14.4 -16.0 14.35 -15.95 14.3 -15.95 14.25 -15.95 14.25 -16.0 14.3 -16.0 14.25 -16.05 14.25 -16.1 14.3 -16.1 14.25 -16.1 14.25 -16.2 14.3 -16.25 14.25 -16.25 14.25 -16.3 14.3 -16.3 14.3 -16.35 14.35 -16.45 14.4 -16.5 14.45 -16.5 14.4 -16.45 14.4 -16.4 14.45 -16.4" fill="#000000" fill-rule="evenodd" stroke="none"/>
    <path d="M14.5 -16.5 L14.55 -16.45 14.55 -16.4 14.5 -16.35 14.55 -16.35 14.55 -16.3 14.5 -16.25 14.55 -16.25 14.55 -16.2 14.55 -16.15 14.5 -16.15 14.55 -16.15 14.55 -16.1 14.55 -16.05 14.5 -16.05 14.55 -16.05 14.55 -16.0 14.5 -16.0 14.45 -16.0 14.45 -16.1 14.45 -16.15 14.45 -16.2 14.45 -16.3 14.4 -16.35 14.45 -16.35 14.45 -16.4 14.4 -16.4 14.45 -16.5 14.45 -16.55 14.5 -16.5" fill="#000000" fill-rule="evenodd" stroke="none"/>
    <path d="M14.7 -16.9 L14.65 -16.85 14.65 -16.8 14.7 -16.8 14.65 -16.7 14.6 -16.65 14.6 -16.6 14.6 -16.55 14.6 -16.5 14.6 -16.45 14.65 -16.4 14.65 -16.3 14.65 -16.25 14.7 -16.2 14.65 -16.2 14.7 -16.15 14.65 -16.1 14.6 -16.1 14.6 -16.15 14.55 -16.15 14.6 -16.15 14.6 -16.2 14.55 -16.2 14.55 -16.25 14.6 -16.3 14.55 -16.3 14.55 -16.35 14.5 -16.35 14.55 -16.45 14.5 -16.45 14.5 -16.5 14.5 -16.55 14.5 -16.6 14.55 -16.65 14.55 -16.7 14.5 -16.7 14.55 -16.8 14.6 -16.8 14.6 -16.85 14.55 -16.95 14.6 -16.95 14.65 -16.9 14.65 -16.95 14.7 -16.9" fill="#000000" fill-rule="evenodd" stroke="none"/>
    <path d="M14.8 -17.3 L14.8 -17.35 14.85 -17.25 14.85 -17.2 14.8 -17.15 14.8 -17.1 14.85 -17.1 14.85 -17.05 14.8 -17.05 14.8 -17.0 14.85 -17.0 14.85 -16.95 14.85 -16.9 14.8 -16.9 14.8 -16.85 14.85 -16.85 14.85 -16.8 14.8 -16.8 14.8 -16.75 14.85 -16.7 14.8 -16.7 14.8 -16.65 14.8 -16.6 14.85 -16.6 14.8 -16.55 14.85 -16.5 14.85 -16.45 14.8 -16.4 14.75 -16.4 14.7 -16.45 14.7 -16.55 14.75 -16.55 14.7 -16.6 14.75 -16.65 14.7 -16.65 14.7 -16.7 14.7 -16.75 14.75 -16.8 14.75 -16.85 14.7 -16.85 14.75 -16.85 14.75 -16.9 14.7 -16.95 14.75 -17.0 14.75 -17.05 14.75 -17.1 14.75 -17.15 14.7 -17.2 14.75 -17.25 14.8 -17.3" fill="#000000" fill-rule="evenodd" stroke="none"/>
    <path d="M9.55 -19.1 L9.45 -18.9 9.4 -18.9 9.35 -18.85 9.35 -18.9 9.35 -18.85 9.3 -18.85 9.25 -18.85 9.25 -18.8 9.25 -18.75 9.2 -18.75 9.2 -18.8 9.2 -18.75 9.15 -18.75 9.1 -18.75 9.1 -18.8 9.05 -18.75 9.0 -18.75 8.95 -18.75 8.95 -18.8 8.9 -18.8 8.8 -18.8 8.25 -19.15 8.2 -19.15 8.15 -19.2 8.0 -19.2 7.95 -19.2 7.95 -19.25 7.9 -19.25 7.85 -19.3 7.85 -19.25 7.8 -19.25 7.8 -19.3 7.75 -19.3 7.65 -19.3 7.65 -19.25 7.6 -19.3 7.55 -19.3 7.55 -19.25 7.45 -19.3 7.4 -19.3 7.35 -19.3 7.3 -19.25 7.3 -19.3 7.25 -19.3 7.25 -19.25 7.2 -19.25 7.15 -19.2 7.15 -19.15 7.15 -19.2 7.1 -19.2 7.1 -19.15 7.1 -19.1 7.05 -19.1 7.05 -19.05 7.0 -19.0 7.0 -18.95 6.95 -18.9 6.95 -18.85 6.9 -18.8 6.9 -18.75 6.85 -18.75 6.85 -18.7 6.8 -18.6 6.8 -18.55 6.75 -18.5 6.7 -18.55 6.75 -18.6 6.7 -18.6 6.7 -18.65 6.7 -18.7 6.75 -18.8 6.8 -18.85 6.8 -18.9 6.85 -18.95 6.85 -19.0 6.9 -19.05 6.95 -19.1 6.95 -19.15 7.0 -19.2 7.05 -19.25 7.05 -19.3 7.05 -19.25 7.1 -19.3 7.15 -19.3 7.15 -19.35 7.25 -19.35 7.3 -19.4 7.35 -19.4 7.4 -19.35 7.4 -19.4 7.45 -19.4 7.5 -19.35 7.5 -19.4 7.6 -19.4 7.6 -19.35 7.65 -19.4 7.7 -19.4 7.7 -19.35 7.8 -19.4 7.85 -19.4 7.85 -19.35 7.9 -19.35 7.9 -19.4 7.95 -19.35 8.0 -19.35 8.0 -19.3 8.1 -19.25 8.2 -19.25 8.25 -19.25 8.85 -18.95 8.85 -18.9 8.95 -18.85 9.0 -18.85 9.0 -18.9 9.0 -18.85 9.1 -18.85 9.15 -18.85 9.2 -18.85 9.25 -18.95 9.3 -19.0 9.35 -18.95 9.35 -19.0 9.45 -19.15 9.5 -19.2 9.55 -19.1" fill="#000000" fill-rule="evenodd" stroke="none"/>
    <path d="M10.5 -19.45 L10.45 -19.45 10.4 -19.45 10.35 -19.45 10.3 -19.45 10.3 -19.5 10.3 -19.45 10.25 -19.45 10.2 -19.45 10.2 -19.4 10.15 -19.4 10.1 -19.4 10.05 -19.35 10.0 -19.3 9.95 -19.35 9.95 -19.3 9.9 -19.3 9.8 -19.2 9.8 -19.15 9.8 -19.2 9.7 -19.15 9.65 -19.1 9.65 -19.15 9.6 -19.15 9.55 -19.1 9.45 -19.15 9.45 -19.2 9.4 -19.2 9.35 -19.15 9.35 -19.2 8.45 -19.7 8.4 -19.7 8.35 -19.75 8.3 -19.75 8.25 -19.8 8.25 -19.75 8.2 -19.75 8.2 -19.7 8.1 -19.75 8.05 -19.75 8.05 -19.7 8.05 -19.75 8.0 -19.75 7.95 -19.75 7.9 -19.7 7.85 -19.7 7.8 -19.7 7.8 -19.65 7.8 -19.6 7.7 -19.65 7.7 -19.6 7.6 -19.55 7.6 -19.5 7.5 -19.5 7.5 -19.45 7.45 -19.45 7.4 -19.45 7.4 -19.4 7.4 -19.45 7.35 -19.4 7.3 -19.4 7.3 -19.35 7.25 -19.35 7.2 -19.3 7.2 -19.25 7.2 -19.3 7.15 -19.3 7.15 -19.35 7.2 -19.45 7.25 -19.5 7.3 -19.5 7.3 -19.45 7.3 -19.5 7.35 -19.5 7.4 -19.5 7.4 -19.55 7.45 -19.6 7.5 -19.6 7.55 -19.6 7.6 -19.6 7.6 -19.65 7.65 -19.65 7.7 -19.65 7.7 -19.7 7.75 -19.75 7.8 -19.8 7.8 -19.75 7.9 -19.8 7.95 -19.85 7.95 -19.8 8.0 -19.8 8.05 -19.85 8.1 -19.85 8.1 -19.8 8.1 -19.85 8.15 -19.85 8.2 -19.85 8.2 -19.9 8.25 -19.85 8.3 -19.85 8.3 -19.8 8.35 -19.8 8.35 -19.85 8.4 -19.85 8.45 -19.8 8.5 -19.8 9.4 -19.3 9.4 -19.25 9.45 -19.25 9.45 -19.3 9.5 -19.3 9.5 -19.25 9.55 -19.25 9.55 -19.2 9.6 -19.2 9.65 -19.25 9.7 -19.25 9.75 -19.3 9.8 -19.3 9.85 -19.4 9.95 -19.45 9.95 -19.4 9.95 -19.45 10.0 -19.45 10.05 -19.45 10.05 -19.5 10.1 -19.45 10.1 -19.5 10.15 -19.5 10.2 -19.5 10.2 -19.55 10.2 -19.5 10.2 -19.55 10.25 -19.55 10.3 -19.55 10.35 -19.6 10.35 -19.55 10.4 -19.55 10.45 -19.6 10.45 -19.55 10.45 -19.5 10.5 -19.5 10.5 -19.45" fill="#000000" fill-rule="evenodd" stroke="none"/>
    <path d="M8.6 -18.6 L8.65 -18.6 8.65 -18.55 8.65 -18.5 8.6 -18.4 8.55 -18.4 8.45 -18.25 8.35 -18.1 8.3 -17.95 8.2 -17.8 8.1 -17.65 8.05 -17.5 7.95 -17.35 7.85 -17.2 7.75 -17.05 7.7 -16.9 7.6 -16.75 7.6 -16.7 7.55 -16.7 7.55 -16.75 7.5 -16.75 7.55 -16.75 7.6 -16.9 7.7 -17.05 7.8 -17.2 7.9 -17.4 8.0 -17.55 8.1 -17.7 8.15 -17.85 8.25 -18.05 8.35 -18.2 8.45 -18.35 8.5 -18.45 8.55 -18.55 8.6 -18.6" fill="#000000" fill-rule="evenodd" stroke="none"/>
    <path d="M10.55 -19.7 L10.55 -19.65 10.6 -19.7 10.65 -19.65 10.7 -19.7 10.75 -19.7 10.8 -19.65 10.8 -19.6 10.7 -19.6 10.7 -19.65 10.7 -19.6 10.65 -19.6 10.6 -19.55 10.55 -19.6 10.5 -19.6 10.5 -19.55 10.5 -19.6 10.45 -19.6 10.4 -19.6 10.4 -19.55 10.35 -19.55 10.35 -19.5 10.35 -19.55 10.3 -19.55 10.25 -19.55 10.25 -19.5 10.2 -19.5 10.2 -19.55 10.15 -19.5 10.05 -19.55 10.0 -19.55 10.0 -19.5 9.95 -19.55 9.95 -19.5 9.85 -19.5 9.85 -19.55 9.85 -19.5 9.8 -19.5 9.75 -19.5 9.75 -19.55 9.7 -19.55 9.65 -19.5 9.65 -19.55 9.6 -19.55 9.55 -19.55 9.55 -19.6 9.4 -19.65 9.35 -19.7 9.3 -19.75 9.25 -19.75 8.9 -19.95 8.85 -19.95 8.8 -19.95 8.7 -20.0 8.7 -19.95 8.65 -19.95 8.6 -20.0 8.55 -20.0 8.55 -19.95 8.5 -20.0 8.45 -20.0 8.45 -19.95 8.4 -19.95 8.4 -20.0 8.35 -19.95 8.3 -19.95 8.25 -19.95 8.15 -19.95 8.15 -19.9 8.15 -19.95 8.1 -19.95 8.1 -19.9 8.05 -19.9 8.0 -19.85 8.0 -19.8 7.95 -19.8 7.95 -19.85 7.9 -19.85 7.9 -19.8 7.85 -19.8 7.8 -19.75 7.8 -19.8 7.8 -19.75 7.75 -19.75 7.7 -19.7 7.65 -19.8 7.7 -19.85 7.75 -19.8 7.75 -19.85 7.8 -19.85 7.85 -19.9 7.9 -19.9 7.9 -19.95 7.9 -19.9 7.95 -19.9 7.95 -19.95 8.0 -19.95 8.0 -20.0 8.15 -20.0 8.15 -20.05 8.2 -20.05 8.2 -20.0 8.25 -20.05 8.3 -20.05 8.3 -20.1 8.35 -20.05 8.4 -20.05 8.45 -20.1 8.5 -20.05 8.5 -20.1 8.55 -20.1 8.55 -20.05 8.6 -20.05 8.65 -20.1 8.7 -20.05 8.75 -20.05 8.75 -20.0 8.85 -20.05 8.9 -20.05 8.9 -20.0 8.95 -20.0 8.95 -20.05 9.0 -20.05 9.25 -19.85 9.3 -19.85 9.4 -19.8 9.4 -19.75 9.45 -19.7 9.5 -19.7 9.55 -19.65 9.6 -19.65 9.6 -19.6 9.65 -19.65 9.7 -19.65 9.75 -19.6 9.75 -19.65 9.8 -19.65 9.8 -19.6 9.85 -19.6 9.85 -19.65 9.9 -19.65 9.95 -19.6 10.0 -19.6 10.0 -19.65 10.05 -19.65 10.05 -19.6 10.1 -19.6 10.1 -19.65 10.15 -19.6 10.2 -19.6 10.25 -19.65 10.25 -19.6 10.3 -19.65 10.35 -19.65 10.4 -19.65 10.4 -19.7 10.45 -19.65 10.5 -19.7 10.55 -19.7" fill="#000000" fill-rule="evenodd" stroke="none"/>
    <path d="M11.45 -19.75 L11.5 -19.7 11.45 -19.65 11.4 -19.65 11.35 -19.6 11.3 -19.6 11.3 -19.65 11.25 -19.65 11.2 -19.6 11.2 -19.65 11.15 -19.65 11.1 -19.6 11.05 -19.6 10.9 -19.65 10.85 -19.65 10.8 -19.65 10.25 -19.95 10.25 -20.0 10.2 -20.05 10.2 -20.15 10.15 -20.15 10.1 -20.15 10.1 -20.2 10.1 -20.25 10.05 -20.3 10.0 -20.3 10.0 -20.35 9.95 -20.35 9.75 -20.45 9.75 -20.5 9.7 -20.5 9.65 -20.5 9.65 -20.55 9.6 -20.5 9.55 -20.5 9.5 -20.55 9.45 -20.5 9.4 -20.55 9.35 -20.55 9.3 -20.5 9.25 -20.55 9.25 -20.5 9.2 -20.5 9.15 -20.55 9.1 -20.55 9.1 -20.5 9.05 -20.5 9.05 -20.55 9.0 -20.5 8.95 -20.5 8.9 -20.55 8.9 -20.5 8.8 -20.5 8.8 -20.45 8.8 -20.5 8.8 -20.45 8.75 -20.45 8.7 -20.45 8.7 -20.4 8.65 -20.4 8.6 -20.3 8.6 -20.35 8.55 -20.35 8.6 -20.5 8.65 -20.5 8.7 -20.5 8.7 -20.55 8.8 -20.55 8.8 -20.6 8.85 -20.6 8.85 -20.55 8.95 -20.6 9.0 -20.6 9.05 -20.6 9.1 -20.6 9.1 -20.65 9.15 -20.6 9.2 -20.65 9.25 -20.6 9.3 -20.6 9.3 -20.65 9.35 -20.65 9.35 -20.6 9.4 -20.6 9.45 -20.65 9.5 -20.6 9.55 -20.6 9.55 -20.65 9.55 -20.6 9.6 -20.6 9.65 -20.6 9.7 -20.6 9.75 -20.6 9.8 -20.6 9.8 -20.55 10.0 -20.45 10.05 -20.4 10.1 -20.4 10.1 -20.35 10.15 -20.3 10.15 -20.25 10.2 -20.25 10.25 -20.25 10.25 -20.15 10.3 -20.15 10.3 -20.1 10.3 -20.05 10.85 -19.75 10.95 -19.8 11.05 -19.7 11.1 -19.75 11.15 -19.7 11.2 -19.7 11.25 -19.7 11.3 -19.7 11.3 -19.75 11.35 -19.75 11.4 -19.7 11.4 -19.75 11.45 -19.75" fill="#000000" fill-rule="evenodd" stroke="none"/>
    <path d="M11.9 -19.85 L12.0 -19.75 12.05 -19.75 12.1 -19.7 12.1 -19.75 12.15 -19.75 12.15 -19.7 12.15 -19.65 12.1 -19.6 12.1 -19.65 12.05 -19.65 12.0 -19.65 11.95 -19.65 11.85 -19.7 11.85 -19.75 11.75 -19.8 11.25 -20.05 11.2 -20.1 11.15 -20.1 11.15 -20.2 11.1 -20.2 11.1 -20.25 11.1 -20.3 11.1 -20.35 11.1 -20.4 11.05 -20.45 11.05 -20.5 11.1 -20.5 11.05 -20.5 11.05 -20.55 11.05 -20.6 11.05 -20.65 11.0 -20.7 10.95 -20.7 10.85 -20.8 10.8 -20.85 10.65 -20.9 10.65 -20.95 10.55 -20.95 10.5 -20.95 10.5 -21.0 10.4 -20.95 10.35 -20.95 10.35 -21.0 10.3 -20.95 10.2 -20.95 10.15 -20.95 10.1 -21.0 10.05 -20.95 10.0 -20.95 9.95 -20.95 9.9 -20.95 9.9 -21.0 9.9 -20.95 9.8 -20.95 9.75 -20.9 9.75 -20.95 9.75 -20.9 9.7 -20.9 9.65 -20.9 9.6 -20.95 9.65 -21.0 9.7 -20.95 9.7 -21.0 9.75 -21.0 9.8 -21.05 9.85 -21.0 9.85 -21.05 9.9 -21.05 9.95 -21.1 9.95 -21.05 10.0 -21.05 10.0 -21.1 10.1 -21.1 10.1 -21.05 10.15 -21.05 10.15 -21.1 10.2 -21.05 10.25 -21.05 10.3 -21.05 10.35 -21.05 10.4 -21.05 10.45 -21.05 10.55 -21.05 10.6 -21.05 10.65 -21.0 10.7 -21.0 10.85 -20.9 10.9 -20.85 11.05 -20.8 11.05 -20.75 11.1 -20.75 11.1 -20.7 11.1 -20.65 11.15 -20.65 11.15 -20.6 11.2 -20.55 11.15 -20.5 11.2 -20.5 11.2 -20.45 11.15 -20.45 11.15 -20.35 11.2 -20.35 11.2 -20.3 11.2 -20.2 11.25 -20.2 11.25 -20.15 11.3 -20.15 11.25 -20.15 11.75 -19.85 11.8 -19.85 11.85 -19.85 11.9 -19.85" fill="#000000" fill-rule="evenodd" stroke="none"/>
    <path d="M11.45 -21.2 L11.5 -21.2 11.55 -21.15 11.6 -21.15 11.6 -21.2 11.65 -21.15 11.7 -21.15 11.75 -21.1 11.75 -21.15 11.8 -21.15 11.85 -21.1 11.9 -21.1 11.95 -21.05 12.35 -20.85 12.35 -20.8 12.4 -20.8 12.45 -20.8 12.4 -20.75 12.4 -20.7 12.45 -20.65 12.4 -20.6 12.4 -20.55 12.45 -20.5 12.3 -20.25 12.25 -20.15 12.2 -20.15 12.2 -20.1 12.25 -20.1 12.3 -20.05 12.25 -20.0 12.3 -20.0 12.3 -19.9 12.35 -19.9 12.3 -19.85 12.35 -19.8 12.4 -19.75 12.8 -19.5 12.85 -19.5 12.8 -19.5 12.8 -19.45 12.75 -19.45 12.3 -19.7 12.3 -19.75 12.25 -19.75 12.25 -19.8 12.3 -19.8 12.25 -19.8 12.25 -19.85 12.2 -19.9 12.15 -19.9 12.15 -19.95 12.2 -20.0 12.15 -20.0 12.15 -20.05 12.15 -20.1 12.15 -20.15 12.2 -20.25 12.15 -20.25 12.3 -20.5 12.3 -20.55 12.35 -20.55 12.35 -20.6 12.35 -20.65 12.3 -20.65 12.35 -20.7 12.3 -20.7 12.3 -20.75 12.3 -20.8 11.9 -21.0 11.85 -21.05 11.85 -21.0 11.8 -21.0 11.75 -21.05 11.7 -21.05 11.65 -21.1 11.6 -21.05 11.55 -21.05 11.55 -21.1 11.5 -21.1 11.5 -21.05 11.45 -21.1 11.4 -21.1 11.35 -21.1 11.35 -21.15 11.3 -21.1 11.25 -21.15 11.2 -21.15 11.2 -21.1 11.15 -21.15 11.1 -21.15 11.05 -21.15 11.0 -21.2 11.0 -21.15 10.95 -21.15 10.9 -21.2 10.9 -21.15 10.85 -21.15 10.8 -21.15 10.8 -21.2 10.75 -21.2 10.75 -21.15 10.7 -21.15 10.65 -21.15 10.6 -21.15 10.6 -21.1 10.6 -21.15 10.5 -21.15 10.5 -21.1 10.45 -21.1 10.45 -21.15 10.4 -21.1 10.35 -21.1 10.3 -21.1 10.3 -21.05 10.3 -21.1 10.25 -21.05 10.2 -21.05 10.2 -21.0 10.15 -21.05 10.15 -21.1 10.2 -21.15 10.2 -21.2 10.25 -21.15 10.3 -21.15 10.3 -21.2 10.35 -21.2 10.35 -21.15 10.4 -21.15 10.4 -21.2 10.45 -21.2 10.5 -21.2 10.55 -21.2 10.6 -21.25 10.65 -21.25 10.65 -21.2 10.65 -21.25 10.75 -21.25 10.75 -21.3 10.8 -21.25 10.85 -21.3 10.9 -21.25 10.95 -21.25 10.95 -21.3 11.0 -21.25 11.05 -21.25 11.05 -21.3 11.1 -21.25 11.15 -21.25 11.2 -21.25 11.2 -21.2 11.25 -21.2 11.25 -21.25 11.3 -21.25 11.3 -21.2 11.35 -21.2 11.45 -21.25 11.45 -21.2" fill="#000000" fill-rule="evenodd" stroke="none"/>
    <path d="M13.1 -20.45 L13.1 -20.4 13.15 -20.35 13.15 -20.3 13.1 -20.3 13.1 -20.25 13.15 -20.25 13.1 -20.2 13.1 -20.15 13.15 -20.1 13.05 -19.95 13.0 -20.0 13.0 -19.95 12.95 -19.95 12.95 -19.9 12.9 -19.9 12.8 -19.9 12.8 -19.85 12.75 -19.85 12.65 -19.75 12.65 -19.7 12.7 -19.7 12.65 -19.65 12.7 -19.6 12.75 -19.55 12.7 -19.55 12.7 -19.5 12.65 -19.5 12.6 -19.55 12.55 -19.6 12.6 -19.6 12.55 -19.7 12.6 -19.75 12.6 -19.8 12.7 -19.95 12.8 -19.95 12.8 -20.0 12.85 -20.0 12.9 -20.0 12.9 -20.05 12.95 -20.0 12.95 -20.05 13.0 -20.05 13.0 -20.15 13.05 -20.15 13.0 -20.2 13.0 -20.25 13.05 -20.3 13.0 -20.3 13.0 -20.35 13.05 -20.35 13.05 -20.4 13.05 -20.45 13.0 -20.45 13.0 -20.5 13.0 -20.6 13.0 -20.65 12.95 -20.75 13.0 -20.8 12.95 -20.8 12.95 -20.85 12.9 -20.85 12.9 -20.9 12.85 -20.9 12.9 -20.95 12.85 -20.95 12.85 -21.0 12.8 -21.05 12.75 -21.05 12.7 -21.15 12.65 -21.15 12.7 -21.2 12.75 -21.2 12.8 -21.15 12.85 -21.15 12.9 -21.1 12.9 -21.05 12.95 -21.05 12.9 -21.0 12.95 -21.0 12.95 -20.95 13.0 -20.95 13.0 -20.9 13.05 -20.85 13.0 -20.85 13.05 -20.8 13.05 -20.75 13.1 -20.75 13.05 -20.7 13.05 -20.65 13.1 -20.65 13.1 -20.6 13.05 -20.6 13.05 -20.55 13.1 -20.55 13.1 -20.5 13.1 -20.45" fill="#000000" fill-rule="evenodd" stroke="none"/>
    <path d="M13.7 -20.7 L13.7 -20.65 13.75 -20.65 13.75 -20.6 13.8 -20.55 13.75 -20.5 13.8 -20.5 13.8 -20.45 13.8 -20.4 13.8 -20.35 13.85 -20.3 13.85 -20.25 13.85 -20.2 13.9 -20.2 13.9 -20.15 13.9 -20.1 13.9 -20.05 13.95 -20.05 13.95 -20.0 13.9 -20.0 13.9 -19.9 13.95 -19.9 13.85 -19.7 13.8 -19.7 13.8 -19.65 13.75 -19.65 13.75 -19.6 13.75 -19.65 13.7 -19.65 13.7 -19.6 13.65 -19.6 13.6 -19.55 13.6 -19.5 13.55 -19.55 13.45 -19.5 13.4 -19.55 13.4 -19.5 13.35 -19.5 13.35 -19.55 13.3 -19.5 13.25 -19.5 13.15 -19.35 13.15 -19.3 13.1 -19.2 13.05 -19.2 13.05 -19.15 13.1 -19.15 13.1 -19.1 13.15 -19.05 13.1 -19.05 13.1 -19.0 13.15 -18.95 13.1 -18.9 13.1 -18.95 13.05 -18.95 13.0 -18.95 13.0 -19.0 13.0 -19.05 13.0 -19.1 12.95 -19.1 12.95 -19.15 13.0 -19.2 13.0 -19.25 13.05 -19.25 13.05 -19.3 13.1 -19.35 13.1 -19.4 13.15 -19.45 13.15 -19.5 13.2 -19.5 13.2 -19.55 13.2 -19.6 13.25 -19.6 13.3 -19.6 13.35 -19.65 13.4 -19.6 13.45 -19.6 13.5 -19.65 13.5 -19.6 13.6 -19.6 13.6 -19.65 13.6 -19.7 13.7 -19.65 13.7 -19.7 13.7 -19.75 13.75 -19.75 13.8 -19.8 13.85 -19.9 13.8 -19.9 13.85 -19.9 13.85 -19.95 13.8 -20.05 13.85 -20.05 13.8 -20.1 13.8 -20.15 13.75 -20.15 13.75 -20.2 13.8 -20.2 13.75 -20.2 13.75 -20.25 13.75 -20.3 13.7 -20.3 13.75 -20.35 13.7 -20.4 13.7 -20.45 13.75 -20.45 13.75 -20.5 13.7 -20.5 13.7 -20.55 13.65 -20.55 13.65 -20.6 13.6 -20.6 13.65 -20.6 13.65 -20.65 13.6 -20.65 13.6 -20.7 13.65 -20.75 13.7 -20.75 13.7 -20.7" fill="#000000" fill-rule="evenodd" stroke="none"/>
    <path d="M14.3 -20.05 L14.35 -20.0 14.4 -20.0 14.35 -19.9 14.4 -19.9 14.45 -19.9 14.45 -19.8 14.5 -19.8 14.45 -19.8 14.45 -19.75 14.5 -19.75 14.5 -19.65 14.45 -19.65 14.45 -19.6 14.5 -19.6 14.5 -19.55 14.45 -19.55 14.5 -19.5 14.5 -19.45 14.45 -19.4 14.5 -19.4 14.5 -19.35 14.5 -19.3 14.45 -19.3 14.45 -19.25 14.5 -19.25 14.5 -19.2 14.45 -19.2 14.45 -19.15 14.5 -19.15 14.5 -19.1 14.5 -19.05 14.45 -19.05 14.5 -19.05 14.45 -18.95 14.35 -18.8 14.35 -18.75 14.3 -18.75 14.25 -18.7 14.2 -18.75 14.15 -18.7 14.1 -18.75 14.05 -18.7 14.0 -18.75 13.95 -18.7 13.95 -18.75 13.9 -18.75 13.85 -18.75 13.8 -18.75 13.8 -18.8 13.65 -18.85 13.6 -18.85 13.55 -18.85 13.5 -18.9 13.4 -18.75 13.35 -18.65 13.35 -18.6 13.35 -18.55 13.35 -18.5 13.35 -18.45 13.3 -18.45 13.35 -18.45 13.35 -18.4 13.3 -18.4 13.25 -18.45 13.25 -18.5 13.3 -18.55 13.25 -18.55 13.25 -18.6 13.3 -18.65 13.4 -18.85 13.4 -18.8 13.45 -18.95 13.55 -19.0 13.6 -18.95 13.65 -18.95 13.85 -18.8 13.9 -18.85 14.0 -18.85 14.0 -18.8 14.05 -18.8 14.05 -18.85 14.1 -18.8 14.2 -18.85 14.2 -18.8 14.25 -18.8 14.25 -18.85 14.3 -18.85 14.35 -19.0 14.4 -19.05 14.4 -19.1 14.35 -19.1 14.4 -19.1 14.4 -19.15 14.4 -19.2 14.4 -19.25 14.4 -19.3 14.4 -19.35 14.45 -19.35 14.4 -19.4 14.4 -19.45 14.45 -19.5 14.4 -19.5 14.4 -19.55 14.35 -19.6 14.4 -19.6 14.4 -19.65 14.4 -19.7 14.35 -19.7 14.4 -19.7 14.4 -19.75 14.35 -19.8 14.3 -19.8 14.3 -19.9 14.35 -19.9 14.3 -19.9 14.25 -20.0 14.3 -20.05" fill="#000000" fill-rule="evenodd" stroke="none"/>
    <path d="M14.95 -18.75 L14.9 -18.7 14.9 -18.65 14.95 -18.6 14.9 -18.55 14.95 -18.55 14.95 -18.5 14.9 -18.5 14.9 -18.45 14.9 -18.4 14.95 -18.4 14.9 -18.35 14.9 -18.3 14.95 -18.3 14.8 -18.1 14.75 -18.05 14.75 -18.0 14.7 -18.0 14.65 -17.95 14.65 -18.0 14.6 -18.0 14.55 -18.0 14.5 -18.0 14.45 -18.0 14.45 -17.95 14.4 -18.0 14.3 -18.0 14.25 -18.0 14.2 -18.0 14.2 -18.05 14.15 -18.0 14.1 -18.0 14.05 -18.05 14.0 -18.0 13.95 -18.05 13.85 -18.1 13.8 -18.05 13.75 -18.05 13.7 -18.05 13.7 -18.0 13.65 -17.9 13.6 -17.8 13.6 -17.75 13.65 -17.75 13.6 -17.7 13.55 -17.65 13.55 -17.6 13.5 -17.6 13.5 -17.65 13.5 -17.7 13.55 -17.7 13.5 -17.7 13.5 -17.75 13.5 -17.8 13.55 -17.8 13.55 -17.85 13.5 -17.9 13.65 -18.1 13.7 -18.1 13.75 -18.15 13.8 -18.15 13.8 -18.2 13.9 -18.15 13.95 -18.15 14.0 -18.15 14.05 -18.1 14.1 -18.1 14.1 -18.15 14.15 -18.1 14.2 -18.1 14.25 -18.1 14.3 -18.1 14.35 -18.05 14.4 -18.1 14.45 -18.1 14.5 -18.05 14.5 -18.1 14.55 -18.1 14.55 -18.05 14.6 -18.05 14.65 -18.1 14.7 -18.1 14.7 -18.15 14.75 -18.1 14.8 -18.25 14.8 -18.3 14.85 -18.35 14.8 -18.4 14.85 -18.45 14.8 -18.5 14.8 -18.55 14.85 -18.55 14.85 -18.6 14.8 -18.6 14.8 -18.65 14.85 -18.65 14.85 -18.7 14.8 -18.75 14.85 -18.8 14.85 -18.85 14.9 -18.85 14.9 -18.8 14.95 -18.75" fill="#000000" fill-rule="evenodd" stroke="none"/>
    <path d="M15.15 -17.8 L15.2 -17.8 15.15 -17.7 15.1 -17.7 15.1 -17.65 15.1 -17.6 15.05 -17.55 15.05 -17.5 15.0 -17.45 15.05 -17.45 14.95 -17.3 14.95 -17.25 14.9 -17.3 14.9 -17.25 14.85 -17.25 14.8 -17.25 14.75 -17.3 14.7 -17.25 14.7 -17.3 14.65 -17.3 14.6 -17.35 14.55 -17.35 14.5 -17.4 14.4 -17.35 14.35 -17.4 14.35 -17.35 14.3 -17.35 14.3 -17.4 14.2 -17.4 14.2 -17.35 14.2 -17.3 14.1 -17.35 14.1 -17.3 14.05 -17.25 14.0 -17.25 13.95 -17.25 13.9 -17.2 13.9 -17.15 13.8 -17.1 13.8 -17.05 13.85 -17.05 13.7 -16.85 13.7 -16.8 13.65 -16.75 13.6 -16.7 13.6 -16.65 13.65 -16.6 13.6 -16.5 13.55 -16.55 13.5 -16.6 13.55 -16.6 13.55 -16.65 13.55 -16.7 13.6 -16.75 13.55 -16.75 13.55 -16.8 13.55 -16.85 13.7 -17.05 13.7 -17.1 13.8 -17.2 13.8 -17.25 13.85 -17.25 13.85 -17.3 13.9 -17.3 13.9 -17.35 13.95 -17.3 14.0 -17.35 14.0 -17.4 14.1 -17.35 14.1 -17.4 14.15 -17.45 14.2 -17.45 14.2 -17.5 14.25 -17.45 14.35 -17.5 14.35 -17.45 14.4 -17.45 14.4 -17.5 14.45 -17.45 14.5 -17.45 14.55 -17.45 14.6 -17.4 14.65 -17.4 14.65 -17.35 14.7 -17.4 14.75 -17.4 14.75 -17.35 14.8 -17.35 14.85 -17.35 14.9 -17.35 14.95 -17.45 14.95 -17.5 15.0 -17.5 15.0 -17.6 14.95 -17.65 15.0 -17.7 15.1 -17.85 15.15 -17.8" fill="#000000" fill-rule="evenodd" stroke="none"/>
    <path d="M12.85 -16.25 L13.75 -15.75 13.8 -15.75 13.8 -15.7 13.8 -15.65 13.75 -15.65 13.8 -15.65 13.8 -15.6 13.75 -15.6 13.7 -15.55 13.7 -15.6 13.65 -15.55 12.75 -16.05 12.7 -16.1 12.65 -16.1 12.65 -16.15 12.55 -16.15 12.5 -16.15 12.45 -16.15 12.4 -16.2 12.35 -16.2 12.2 -16.2 12.15 -16.2 12.1 -16.25 12.0 -16.2 11.95 -16.25 11.95 -16.2 11.9 -16.25 11.8 -16.2 11.75 -16.25 11.7 -16.2 11.65 -16.2 11.6 -16.2 11.55 -16.15 11.5 -16.15 11.45 -16.15 11.4 -16.1 11.4 -16.05 11.3 -16.0 11.3 -16.05 11.25 -16.05 11.2 -16.05 11.2 -16.1 11.25 -16.15 11.2 -16.2 11.25 -16.25 11.3 -16.3 11.35 -16.3 11.35 -16.35 11.4 -16.35 11.45 -16.35 11.45 -16.4 11.5 -16.4 11.5 -16.35 11.55 -16.4 11.6 -16.4 11.65 -16.45 11.65 -16.4 11.7 -16.4 11.75 -16.45 11.8 -16.4 11.8 -16.45 11.9 -16.45 11.9 -16.4 11.95 -16.45 12.0 -16.4 12.05 -16.4 12.1 -16.45 12.15 -16.4 12.2 -16.45 12.25 -16.4 12.3 -16.4 12.35 -16.4 12.4 -16.4 12.45 -16.4 12.5 -16.4 12.55 -16.4 12.55 -16.35 12.65 -16.35 12.7 -16.3 12.7 -16.35 12.75 -16.35 12.75 -16.3 12.8 -16.3 12.85 -16.3 12.85 -16.25" fill="#ffff00" fill-rule="evenodd" stroke="none"/>
    <path d="M14.0 -15.95 L14.05 -15.85 14.05 -15.8 14.1 -15.8 14.1 -15.75 14.15 -15.75 14.1 -15.65 14.15 -15.65 14.15 -15.6 14.1 -15.6 14.1 -15.55 14.05 -15.5 14.05 -15.55 13.95 -15.55 14.0 -15.55 13.95 -15.65 13.9 -15.65 13.85 -15.75 13.9 -15.75 13.85 -15.75 12.9 -16.35 12.85 -16.35 12.8 -16.35 12.75 -16.35 12.7 -16.35 12.65 -16.4 12.6 -16.4 12.6 -16.45 12.55 -16.45 12.55 -16.4 12.5 -16.4 12.45 -16.45 12.4 -16.45 12.35 -16.45 12.3 -16.45 12.25 -16.4 12.2 -16.45 12.2 -16.4 12.15 -16.4 Q12.05 -16.45 12.05 -16.45 L12.1 -16.45 12.05 -16.45 12.05 -16.5 12.05 -16.55 12.0 -16.55 12.05 -16.6 12.1 -16.6 12.1 -16.65 12.1 -16.6 12.15 -16.6 12.2 -16.65 12.25 -16.6 12.3 -16.65 12.35 -16.65 12.35 -16.7 12.4 -16.65 12.45 -16.65 12.45 -16.6 12.55 -16.65 12.6 -16.65 12.6 -16.6 12.65 -16.6 12.7 -16.6 12.75 -16.6 12.8 -16.55 12.9 -16.55 12.9 -16.5 12.95 -16.55 13.0 -16.5 13.95 -15.95 14.0 -15.95" fill="#ffff00" fill-rule="evenodd" stroke="none"/>
    <path d="M14.4 -16.2 L14.35 -16.1 14.4 -16.1 14.4 -16.05 14.45 -16.05 14.45 -16.0 14.4 -15.95 14.45 -15.95 14.5 -15.95 14.5 -15.85 14.5 -15.8 14.5 -15.75 14.55 -15.75 14.55 -15.7 14.5 -15.7 14.55 -15.65 14.55 -15.6 14.55 -15.55 14.5 -15.55 14.5 -15.5 14.5 -15.55 14.4 -15.5 14.35 -15.5 14.35 -15.55 14.3 -15.55 14.35 -15.6 14.35 -15.65 14.35 -15.7 14.3 -15.7 14.35 -15.7 14.3 -15.75 14.25 -15.85 14.3 -15.85 14.25 -15.85 14.25 -15.95 14.2 -15.95 14.2 -16.0 14.2 -16.05 14.15 -16.1 14.1 -16.2 14.1 -16.25 14.05 -16.25 14.0 -16.35 13.95 -16.45 13.9 -16.45 13.85 -16.5 13.85 -16.55 13.8 -16.55 13.8 -16.6 13.75 -16.6 13.7 -16.65 13.65 -16.7 13.6 -16.7 13.6 -16.75 13.55 -16.75 13.55 -16.8 13.5 -16.8 13.5 -16.85 13.45 -16.85 12.7 -17.3 12.65 -17.3 12.65 -17.4 12.65 -17.45 12.7 -17.5 12.75 -17.45 12.75 -17.5 12.8 -17.5 13.55 -17.05 13.6 -17.05 13.6 -16.95 13.65 -16.95 13.7 -16.95 13.7 -16.9 13.75 -16.9 13.8 -16.85 13.9 -16.8 13.95 -16.8 13.9 -16.7 13.95 -16.7 14.0 -16.65 14.05 -16.65 14.1 -16.6 14.15 -16.55 14.15 -16.5 14.15 -16.45 14.2 -16.45 14.2 -16.4 14.25 -16.4 14.3 -16.3 14.25 -16.3 14.3 -16.3 14.3 -16.2 14.35 -16.2 14.4 -16.2" fill="#ffff00" fill-rule="evenodd" stroke="none"/>
    <path d="M14.0 -16.25 L14.05 -16.2 14.05 -16.15 14.1 -16.15 14.15 -16.05 14.1 -16.05 14.15 -16.05 14.15 -16.0 14.15 -15.95 14.2 -15.95 14.2 -15.9 14.15 -15.9 14.2 -15.9 14.2 -15.85 14.2 -15.8 14.2 -15.75 14.15 -15.8 14.15 -15.75 14.1 -15.75 14.05 -15.8 14.0 -15.8 13.95 -15.9 14.0 -15.9 13.95 -15.95 13.95 -16.0 13.9 -16.0 13.9 -16.05 13.9 -16.1 13.85 -16.1 13.8 -16.2 13.75 -16.2 13.75 -16.3 13.7 -16.35 13.7 -16.4 13.65 -16.4 13.6 -16.4 13.6 -16.45 13.55 -16.5 13.55 -16.55 13.5 -16.55 13.5 -16.6 13.45 -16.65 13.45 -16.75 13.4 -16.75 13.35 -16.8 13.3 -16.8 13.25 -16.85 13.25 -16.9 13.2 -16.9 13.2 -16.95 13.15 -16.95 13.2 -16.95 13.15 -16.95 12.7 -17.25 12.6 -17.25 12.6 -17.2 12.55 -17.25 12.5 -17.25 12.5 -17.3 12.45 -17.3 12.45 -17.35 12.5 -17.4 12.55 -17.45 12.6 -17.5 12.6 -17.45 12.65 -17.45 12.7 -17.5 12.75 -17.45 13.25 -17.2 13.25 -17.15 13.3 -17.15 13.35 -17.1 13.35 -17.05 13.4 -17.0 13.45 -17.0 13.5 -16.95 13.55 -16.9 13.55 -16.85 13.6 -16.85 13.6 -16.8 13.65 -16.75 13.7 -16.7 13.75 -16.65 13.75 -16.6 13.8 -16.6 13.8 -16.5 13.85 -16.5 13.9 -16.5 13.9 -16.45 13.95 -16.4 13.9 -16.4 13.95 -16.35 13.95 -16.3 14.0 -16.3 14.0 -16.25" fill="#ffff00" fill-rule="evenodd" stroke="none"/>
    <path d="M15.65 -17.75 L15.65 -17.7 15.6 -17.7 15.6 -17.65 15.6 -17.6 15.55 -17.55 15.5 -17.5 15.5 -17.45 15.45 -17.4 15.45 -17.35 15.4 -17.35 15.4 -17.3 15.35 -17.2 15.3 -17.15 15.35 -17.15 15.35 -17.1 15.3 -17.05 15.3 -17.0 15.25 -16.95 15.2 -16.9 15.2 -16.85 15.25 -16.85 15.2 -16.8 15.2 -16.75 15.15 -16.7 15.15 -16.65 15.15 -16.6 15.15 -16.55 15.15 -16.5 15.1 -16.5 15.1 -16.45 15.05 -16.4 15.05 -16.35 15.0 -16.35 15.0 -16.3 14.95 -16.25 14.95 -16.2 14.9 -16.15 14.9 -16.1 14.85 -16.05 14.8 -16.0 14.8 -15.95 14.75 -15.9 14.8 -15.85 14.8 -15.8 14.75 -15.75 14.75 -15.8 14.7 -15.8 14.7 -15.75 14.6 -15.75 14.6 -15.8 14.55 -15.8 14.6 -15.8 14.55 -15.85 14.55 -15.9 14.6 -15.95 14.6 -16.0 14.65 -16.0 14.65 -16.05 14.7 -16.1 14.7 -16.15 14.75 -16.2 14.75 -16.25 14.8 -16.3 14.85 -16.35 14.85 -16.4 14.9 -16.45 14.9 -16.5 14.95 -16.55 14.9 -16.55 14.9 -16.6 14.95 -16.65 14.95 -16.7 15.0 -16.75 15.0 -16.8 14.95 -16.8 14.95 -16.85 15.0 -16.85 15.0 -16.9 15.0 -16.95 15.05 -16.95 15.0 -17.0 15.05 -17.05 15.05 -17.1 15.1 -17.15 15.15 -17.25 15.2 -17.35 15.2 -17.4 15.25 -17.4 15.25 -17.45 15.25 -17.5 15.3 -17.55 15.35 -17.6 15.35 -17.65 15.4 -17.7 15.4 -17.75 15.45 -17.8 15.5 -17.85 15.5 -17.9 15.5 -17.85 15.5 -17.9 15.55 -17.9 15.6 -17.9 15.65 -17.9 15.65 -17.95 15.65 -17.85 15.7 -17.85 15.65 -17.8 15.65 -17.75" fill="#ffff00" fill-rule="evenodd" stroke="none"/>
    <path d="M14.8 -16.3 L14.85 -16.25 14.9 -16.25 14.85 -16.2 14.85 -16.15 14.9 -16.15 14.9 -16.1 14.9 -16.05 14.9 -16.0 14.9 -15.95 14.95 -15.95 14.9 -15.95 14.85 -15.9 14.8 -15.9 14.75 -15.9 14.7 -15.9 14.65 -15.95 14.7 -15.95 14.7 -16.0 14.65 -16.0 14.65 -16.05 14.65 -16.1 14.7 -16.1 14.65 -16.15 14.65 -16.2 14.6 -16.25 14.65 -16.25 14.6 -16.25 14.6 -16.3 14.6 -16.35 14.6 -16.4 14.55 -16.45 14.55 -16.55 14.55 -16.6 14.55 -16.7 14.5 -16.7 14.5 -16.8 14.45 -16.85 14.5 -16.95 14.45 -16.95 14.4 -17.0 14.4 -17.05 14.45 -17.05 14.45 -17.1 14.4 -17.1 14.35 -17.2 14.4 -17.2 14.35 -17.25 14.35 -17.3 14.3 -17.3 14.3 -17.35 14.35 -17.35 14.3 -17.35 14.3 -17.4 14.3 -17.45 14.25 -17.45 14.3 -17.5 14.25 -17.5 14.25 -17.55 14.25 -17.6 14.25 -17.65 14.2 -17.7 14.25 -17.75 14.2 -17.75 14.2 -17.8 14.2 -17.85 14.2 -17.9 14.15 -17.95 14.15 -18.05 14.15 -18.1 14.15 -18.2 14.1 -18.2 14.15 -18.25 14.1 -18.3 14.1 -18.35 14.05 -18.35 14.1 -18.45 14.05 -18.45 14.0 -18.5 14.0 -18.55 14.05 -18.6 14.0 -18.6 14.05 -18.65 14.1 -18.7 14.15 -18.7 14.2 -18.7 14.2 -18.65 14.2 -18.6 14.25 -18.6 14.25 -18.55 14.25 -18.5 14.25 -18.45 14.3 -18.45 14.3 -18.35 14.3 -18.3 14.35 -18.3 14.35 -18.2 14.4 -18.15 14.4 -18.1 14.35 -18.1 14.35 -18.05 14.4 -18.05 14.4 -18.0 14.4 -17.9 14.4 -17.85 14.4 -17.8 14.45 -17.75 14.4 -17.7 14.45 -17.7 14.45 -17.65 14.5 -17.6 14.45 -17.55 14.5 -17.5 14.5 -17.45 14.5 -17.4 14.55 -17.35 14.6 -17.35 14.55 -17.3 14.6 -17.25 14.6 -17.2 14.6 -17.1 14.65 -17.05 14.65 -17.0 14.65 -16.95 14.7 -16.95 14.7 -16.9 14.7 -16.85 14.7 -16.8 14.75 -16.8 14.75 -16.7 14.7 -16.7 14.75 -16.7 14.75 -16.65 14.8 -16.65 14.8 -16.6 14.75 -16.55 14.8 -16.55 14.8 -16.5 14.8 -16.45 14.8 -16.4 14.85 -16.35 14.8 -16.35 14.8 -16.3" fill="#ffff00" fill-rule="evenodd" stroke="none"/>
    <path d="M14.5 -17.2 L14.5 -17.1 14.5 -17.05 14.55 -17.05 14.55 -17.0 14.55 -16.95 14.55 -16.9 14.55 -16.8 14.55 -16.75 14.6 -16.75 14.55 -16.7 14.55 -16.65 14.6 -16.65 14.6 -16.6 14.55 -16.6 14.55 -16.55 14.6 -16.55 14.6 -16.5 14.6 -16.45 14.55 -16.45 14.6 -16.45 14.6 -16.4 14.65 -16.4 14.6 -16.35 14.6 -16.3 14.65 -16.25 14.6 -16.25 14.6 -16.2 14.6 -16.15 14.65 -16.15 14.6 -16.15 14.6 -16.1 14.6 -16.05 14.6 -16.0 14.6 -15.95 14.55 -15.9 14.55 -15.85 14.6 -15.85 14.6 -15.8 14.55 -15.8 14.55 -15.75 14.55 -15.7 14.5 -15.7 14.5 -15.65 14.45 -15.65 14.45 -15.7 14.4 -15.7 14.35 -15.75 14.35 -15.8 14.4 -15.8 14.4 -15.85 14.35 -15.85 14.35 -15.9 14.4 -15.9 14.4 -15.95 14.4 -16.0 14.35 -16.0 14.4 -16.05 14.35 -16.1 14.4 -16.15 14.4 -16.2 14.35 -16.25 14.4 -16.25 14.4 -16.3 14.35 -16.3 14.4 -16.4 14.35 -16.45 14.4 -16.5 14.35 -16.55 14.35 -16.6 14.35 -16.65 14.35 -16.75 14.4 -16.75 14.35 -16.8 14.35 -16.85 14.35 -16.9 14.3 -16.95 14.35 -16.95 14.35 -17.0 14.3 -17.05 14.3 -17.1 14.3 -17.2 14.25 -17.2 14.25 -17.25 14.25 -17.35 14.2 -17.35 14.25 -17.4 14.2 -17.4 14.2 -17.5 14.15 -17.5 14.2 -17.55 14.15 -17.6 14.2 -17.65 14.25 -17.65 14.25 -17.7 14.3 -17.7 14.3 -17.65 14.35 -17.65 14.4 -17.6 14.4 -17.55 14.4 -17.5 14.45 -17.5 14.4 -17.5 14.4 -17.45 14.45 -17.45 14.45 -17.4 14.4 -17.35 14.45 -17.35 14.5 -17.25 14.45 -17.2 14.5 -17.2" fill="#ffff00" fill-rule="evenodd" stroke="none"/>
    <path d="M16.5 -16.75 L16.55 -16.7 16.6 -16.7 16.65 -16.6 16.65 -16.55 16.6 -16.55 16.6 -16.5 16.55 -16.45 16.5 -16.5 16.45 -16.5 16.4 -16.5 16.35 -16.5 16.35 -16.45 16.3 -16.45 16.25 -16.4 16.25 -16.35 16.25 -16.4 16.2 -16.35 16.15 -16.35 16.15 -16.3 16.05 -16.35 16.05 -16.3 16.05 -16.25 15.95 -16.25 15.95 -16.2 15.95 -16.25 15.95 -16.2 15.85 -16.2 15.85 -16.15 15.8 -16.1 15.75 -16.1 15.75 -16.05 15.75 -16.1 15.7 -16.05 15.65 -16.05 15.65 -16.0 15.6 -16.0 15.55 -15.95 15.55 -16.0 15.55 -15.95 15.5 -15.95 15.45 -15.9 15.4 -15.85 15.35 -15.85 15.25 -15.85 15.25 -15.8 15.2 -15.8 15.15 -15.8 15.1 -15.75 15.1 -15.8 15.0 -15.75 14.95 -15.7 14.95 -15.75 14.85 -15.75 14.85 -15.7 14.8 -15.75 14.75 -15.75 14.7 -15.8 14.75 -15.85 14.7 -15.85 14.7 -15.9 14.75 -15.95 14.8 -15.95 14.85 -15.95 14.95 -15.95 14.95 -16.0 15.0 -15.95 15.0 -16.0 15.1 -16.0 15.1 -16.05 15.15 -16.0 15.2 -16.05 15.25 -16.05 15.35 -16.05 15.35 -16.1 15.35 -16.15 15.4 -16.15 15.45 -16.1 15.45 -16.15 15.5 -16.2 15.55 -16.2 15.55 -16.25 15.6 -16.2 15.6 -16.25 15.65 -16.25 15.65 -16.3 15.7 -16.3 15.7 -16.35 15.75 -16.35 15.75 -16.4 15.8 -16.35 15.8 -16.4 15.85 -16.4 15.9 -16.45 15.95 -16.5 16.0 -16.5 16.05 -16.5 16.05 -16.55 16.1 -16.55 16.15 -16.6 16.15 -16.55 16.2 -16.6 16.2 -16.65 16.3 -16.7 16.35 -16.7 16.4 -16.7 16.45 -16.75 16.45 -16.7 16.5 -16.75" fill="#ffff00" fill-rule="evenodd" stroke="none"/>
    <path d="M16.1 -17.05 L16.1 -17.0 16.05 -17.0 16.05 -16.95 16.0 -16.9 15.95 -16.9 15.95 -16.95 15.95 -16.9 15.9 -16.9 15.85 -16.85 15.85 -16.8 15.8 -16.85 15.75 -16.8 15.75 -16.75 15.7 -16.75 15.7 -16.7 15.65 -16.7 15.6 -16.65 15.6 -16.6 15.55 -16.65 15.55 -16.6 15.55 -16.55 15.5 -16.55 15.5 -16.5 15.45 -16.45 15.45 -16.4 15.4 -16.35 15.4 -16.3 15.35 -16.25 15.3 -16.15 15.25 -16.1 15.25 -16.05 15.2 -16.0 15.2 -15.95 15.15 -15.9 15.1 -15.9 15.1 -15.85 15.05 -15.85 15.05 -15.9 15.0 -15.9 15.0 -15.95 14.95 -16.0 14.95 -16.05 15.0 -16.05 15.0 -16.1 15.05 -16.15 15.05 -16.2 15.1 -16.25 15.15 -16.3 15.15 -16.35 15.2 -16.4 15.2 -16.45 15.25 -16.5 15.3 -16.6 15.3 -16.65 15.35 -16.7 15.35 -16.75 15.4 -16.75 15.4 -16.8 15.45 -16.85 15.5 -16.8 15.5 -16.85 15.55 -16.85 15.55 -16.9 15.6 -16.95 15.65 -16.95 15.65 -17.0 15.7 -17.0 15.75 -17.0 15.75 -17.05 15.8 -17.05 15.8 -17.1 15.85 -17.1 15.9 -17.1 15.95 -17.1 15.95 -17.15 16.0 -17.1 16.05 -17.1 16.05 -17.05 16.1 -17.05" fill="#ffff00" fill-rule="evenodd" stroke="none"/>
    <path d="M15.35 -15.9 L15.45 -15.9 15.5 -15.9 15.5 -15.95 15.5 -15.9 15.6 -15.9 15.65 -15.95 15.65 -15.9 15.7 -15.9 15.75 -15.9 15.8 -15.9 15.85 -15.9 15.9 -15.85 15.9 -15.9 15.95 -15.9 15.95 -15.85 16.0 -15.85 16.05 -15.9 16.1 -15.85 16.15 -15.85 16.2 -15.8 16.2 -15.85 16.3 -15.8 16.35 -15.75 16.35 -15.7 16.35 -15.65 16.35 -15.6 16.25 -15.6 16.25 -15.55 16.25 -15.6 16.2 -15.6 16.1 -15.65 16.05 -15.7 16.05 -15.65 15.95 -15.65 15.9 -15.65 15.85 -15.65 15.85 -15.7 15.75 -15.65 15.7 -15.7 15.65 -15.65 15.65 -15.7 15.6 -15.7 15.5 -15.7 15.45 -15.7 15.45 -15.65 15.35 -15.65 15.35 -15.7 15.35 -15.65 15.3 -15.65 15.3 -15.6 15.2 -15.65 15.2 -15.7 15.15 -15.75 15.15 -15.8 15.2 -15.8 15.2 -15.85 15.25 -15.85 15.3 -15.85 15.35 -15.9" fill="#ffff00" fill-rule="evenodd" stroke="none"/>
    <path d="M15.15 -15.75 L15.2 -15.75 15.3 -15.75 15.35 -15.75 15.4 -15.75 15.5 -15.75 15.55 -15.75 15.55 -15.7 15.6 -15.75 15.65 -15.7 15.7 -15.7 15.75 -15.65 15.85 -15.7 15.9 -15.65 15.95 -15.65 15.95 -15.6 16.0 -15.6 16.05 -15.55 16.1 -15.6 16.15 -15.55 16.25 -15.5 16.3 -15.45 16.35 -15.45 16.4 -15.45 16.6 -15.35 16.55 -15.3 16.6 -15.3 16.6 -15.25 16.65 -15.25 16.6 -15.2 16.55 -15.15 16.5 -15.15 16.5 -15.1 16.45 -15.1 16.45 -15.15 16.4 -15.15 16.35 -15.15 16.2 -15.25 16.2 -15.3 16.15 -15.3 16.05 -15.35 16.0 -15.4 15.95 -15.4 15.9 -15.4 15.85 -15.4 15.85 -15.45 15.75 -15.45 15.7 -15.5 15.7 -15.45 15.65 -15.45 15.6 -15.5 15.55 -15.5 15.5 -15.55 15.5 -15.5 15.4 -15.5 15.35 -15.55 15.3 -15.5 15.3 -15.55 15.25 -15.55 15.2 -15.55 15.15 -15.5 15.15 -15.55 15.1 -15.55 15.05 -15.55 15.0 -15.55 14.95 -15.6 14.9 -15.6 14.9 -15.7 14.95 -15.75 14.95 -15.8 14.95 -15.75 15.0 -15.75 15.05 -15.75 15.1 -15.75 15.15 -15.75" fill="#ffff00" fill-rule="evenodd" stroke="none"/>
    <path d="M16.3 -14.5 L16.3 -14.4 16.35 -14.35 16.3 -14.3 16.3 -14.25 16.35 -14.25 16.35 -14.2 16.3 -14.2 16.25 -14.15 16.25 -14.2 16.2 -14.2 16.15 -14.25 16.1 -14.3 16.1 -14.35 16.1 -14.4 16.05 -14.4 16.05 -14.45 16.05 -14.5 16.0 -14.5 16.0 -14.55 16.0 -14.6 15.95 -14.6 16.0 -14.65 15.95 -14.65 15.95 -14.7 15.9 -14.7 15.9 -14.75 15.85 -14.75 15.85 -14.8 15.8 -14.8 15.8 -14.85 15.75 -14.85 15.75 -14.9 15.7 -14.95 15.65 -15.0 15.6 -15.0 15.6 -15.05 15.55 -15.05 15.5 -15.1 15.5 -15.15 15.45 -15.15 15.5 -15.15 15.45 -15.2 15.4 -15.2 15.35 -15.25 15.35 -15.3 15.3 -15.3 15.3 -15.35 15.25 -15.35 15.1 -15.4 15.1 -15.45 15.05 -15.45 15.0 -15.5 14.95 -15.55 14.95 -15.6 14.95 -15.65 15.0 -15.7 15.05 -15.75 15.05 -15.7 15.1 -15.7 15.15 -15.65 15.2 -15.65 15.2 -15.6 15.3 -15.6 15.35 -15.5 15.4 -15.5 15.4 -15.45 15.45 -15.45 15.5 -15.4 15.55 -15.4 15.6 -15.35 15.6 -15.25 15.65 -15.25 15.7 -15.25 15.7 -15.2 15.75 -15.2 15.8 -15.15 15.85 -15.15 15.9 -15.05 15.95 -15.0 15.95 -14.95 16.0 -14.95 16.0 -14.9 16.05 -14.9 16.05 -14.85 16.1 -14.85 16.15 -14.8 16.15 -14.75 16.2 -14.75 16.15 -14.75 16.2 -14.7 16.2 -14.65 16.25 -14.6 16.2 -14.6 16.25 -14.6 16.25 -14.55 16.25 -14.5 16.3 -14.5" fill="#ffff00" fill-rule="evenodd" stroke="none"/>
    <path d="M16.0 -14.1 L16.05 -14.1 16.05 -14.05 16.0 -14.05 16.0 -14.0 15.95 -14.0 15.9 -14.0 15.85 -14.0 15.85 -14.05 15.85 -14.1 15.8 -14.1 15.8 -14.15 15.8 -14.25 15.8 -14.3 15.8 -14.35 15.75 -14.4 15.8 -14.45 15.75 -14.45 15.75 -14.55 15.7 -14.55 15.75 -14.55 15.75 -14.6 15.7 -14.6 15.7 -14.65 15.65 -14.65 15.65 -14.75 15.6 -14.75 15.6 -14.8 15.55 -14.85 15.5 -14.85 15.5 -14.95 15.45 -14.95 15.45 -15.0 15.4 -15.05 15.35 -15.1 15.35 -15.2 15.3 -15.2 15.25 -15.2 15.2 -15.3 15.1 -15.35 15.1 -15.4 15.05 -15.45 15.05 -15.5 15.1 -15.5 15.1 -15.55 15.15 -15.55 15.2 -15.55 15.25 -15.55 15.35 -15.5 15.35 -15.4 15.4 -15.4 15.45 -15.35 15.5 -15.3 15.55 -15.25 15.5 -15.25 15.55 -15.25 15.6 -15.15 15.65 -15.15 15.65 -15.05 15.7 -15.05 15.7 -15.0 15.75 -15.0 15.75 -14.9 15.8 -14.9 15.85 -14.85 15.8 -14.85 15.8 -14.8 15.85 -14.8 15.9 -14.75 15.9 -14.7 15.95 -14.7 15.9 -14.65 15.9 -14.6 15.95 -14.6 15.95 -14.55 15.95 -14.5 15.95 -14.45 16.0 -14.45 16.0 -14.4 16.0 -14.3 16.05 -14.3 16.0 -14.25 16.05 -14.2 16.05 -14.15 16.0 -14.1" fill="#ffff00" fill-rule="evenodd" stroke="none"/>
    <path d="M14.9 -15.65 L14.85 -15.65 14.9 -15.6 14.9 -15.55 14.95 -15.55 14.95 -15.45 14.95 -15.4 15.0 -15.35 15.0 -15.3 15.0 -15.2 15.05 -15.2 15.05 -15.15 15.05 -15.1 15.1 -15.05 15.05 -15.05 15.1 -15.0 15.1 -14.95 15.1 -14.9 15.15 -14.85 15.15 -14.8 15.1 -14.75 15.15 -14.75 15.15 -14.7 15.1 -14.65 15.15 -14.6 15.15 -14.55 15.1 -14.55 15.1 -14.5 15.15 -14.5 15.1 -14.45 15.1 -14.4 15.05 -14.35 15.0 -14.35 15.0 -14.3 14.95 -14.35 14.9 -14.35 14.9 -14.45 14.85 -14.45 14.9 -14.5 14.9 -14.55 14.95 -14.55 14.9 -14.6 14.9 -14.65 14.9 -14.7 14.95 -14.7 14.9 -14.7 14.9 -14.75 14.9 -14.8 14.9 -14.9 14.85 -14.9 14.9 -14.95 14.85 -15.05 14.8 -15.05 14.85 -15.05 14.85 -15.1 14.8 -15.15 14.8 -15.2 14.85 -15.2 14.8 -15.2 14.8 -15.25 14.8 -15.3 14.75 -15.3 14.8 -15.35 14.75 -15.35 14.75 -15.4 14.75 -15.45 14.7 -15.45 14.7 -15.5 14.7 -15.55 14.65 -15.55 14.65 -15.65 14.6 -15.65 14.65 -15.65 14.65 -15.7 14.65 -15.75 14.7 -15.75 14.75 -15.75 14.8 -15.75 14.85 -15.7 14.85 -15.65 14.9 -15.65" fill="#ffff00" fill-rule="evenodd" stroke="none"/>
    <path d="M14.95 -15.15 L14.95 -15.1 15.0 -15.15 15.05 -15.15 15.1 -15.1 15.1 -15.05 15.15 -15.05 15.1 -15.05 15.1 -14.95 15.15 -14.95 15.15 -14.9 15.15 -14.85 15.15 -14.8 15.2 -14.8 15.15 -14.75 15.2 -14.7 15.25 -14.65 15.2 -14.6 15.2 -14.55 15.25 -14.55 15.25 -14.5 15.2 -14.5 15.2 -14.45 15.25 -14.45 15.25 -14.4 15.25 -14.35 15.2 -14.35 15.2 -14.3 15.25 -14.3 15.2 -14.25 15.2 -14.2 15.2 -14.15 15.2 -14.1 15.2 -14.05 15.15 -14.05 15.2 -14.05 15.2 -14.0 15.2 -13.95 15.15 -13.9 15.2 -13.9 15.2 -13.85 15.15 -13.8 15.2 -13.8 15.2 -13.75 15.2 -13.7 15.15 -13.7 15.15 -13.65 15.2 -13.65 15.2 -13.6 15.15 -13.6 15.2 -13.55 15.2 -13.5 15.15 -13.45 15.2 -13.4 15.15 -13.4 15.15 -13.35 15.15 -13.25 15.15 -13.2 15.15 -13.15 15.1 -13.15 15.15 -13.1 15.1 -13.05 15.05 -12.95 15.05 -12.9 15.0 -12.9 14.95 -12.9 14.9 -12.9 14.85 -12.95 14.9 -13.0 14.85 -13.0 14.85 -13.05 14.9 -13.1 14.9 -13.15 14.95 -13.2 14.95 -13.25 14.9 -13.25 14.95 -13.25 14.95 -13.3 14.95 -13.35 14.95 -13.4 14.95 -13.45 14.95 -13.5 15.0 -13.5 14.95 -13.5 14.95 -13.6 15.0 -13.65 14.95 -13.65 14.95 -13.7 15.0 -13.7 14.95 -13.8 15.0 -13.85 14.95 -13.85 14.95 -13.9 15.0 -14.0 14.95 -14.0 14.95 -14.05 15.0 -14.05 15.0 -14.1 14.95 -14.1 14.95 -14.15 15.0 -14.15 15.0 -14.2 15.0 -14.25 15.0 -14.3 15.0 -14.35 15.05 -14.4 15.0 -14.5 15.05 -14.5 15.0 -14.55 15.0 -14.6 15.0 -14.65 15.0 -14.7 14.95 -14.7 14.95 -14.8 15.0 -14.8 14.95 -14.8 14.9 -14.85 14.9 -14.9 14.95 -14.95 14.9 -14.95 14.9 -15.0 14.85 -15.0 14.9 -15.0 14.9 -15.1 14.95 -15.15" fill="#ffff00" fill-rule="evenodd" stroke="none"/>
    <path d="M15.75 -13.6 L15.8 -13.5 15.75 -13.45 15.8 -13.4 15.75 -13.3 15.8 -13.3 15.8 -13.25 15.85 -13.25 15.8 -13.25 15.8 -13.2 15.8 -13.15 15.8 -13.1 15.8 -13.05 15.85 -13.0 15.8 -12.95 15.85 -12.95 15.85 -12.85 15.85 -12.8 15.9 -12.75 15.85 -12.75 15.85 -12.65 15.85 -12.6 15.85 -12.55 15.9 -12.55 15.85 -12.5 15.85 -12.45 15.85 -12.4 15.9 -12.4 15.85 -12.4 15.85 -12.35 15.9 -12.3 15.9 -12.25 15.85 -12.25 15.85 -12.2 15.9 -12.2 15.85 -12.15 15.85 -12.1 15.85 -12.05 15.9 -12.05 15.85 -12.0 15.85 -11.95 15.9 -11.95 15.85 -11.95 15.85 -11.9 15.85 -11.85 15.85 -11.8 15.8 -11.8 15.85 -11.8 15.85 -11.75 15.8 -11.7 15.8 -11.65 15.75 -11.65 15.7 -11.6 15.65 -11.65 15.6 -11.65 15.6 -11.75 15.65 -11.75 15.65 -11.8 15.6 -11.8 15.6 -11.85 15.65 -11.85 15.65 -11.9 15.6 -11.95 15.65 -11.95 15.65 -12.0 15.6 -12.05 15.65 -12.05 15.65 -12.1 15.65 -12.15 15.6 -12.2 15.65 -12.2 15.65 -12.25 15.6 -12.25 15.65 -12.3 15.65 -12.35 15.65 -12.4 15.65 -12.45 15.6 -12.5 15.65 -12.55 15.65 -12.6 15.6 -12.6 15.65 -12.65 15.65 -12.7 15.6 -12.75 15.65 -12.8 15.6 -12.8 15.6 -12.85 15.65 -12.85 15.65 -12.95 15.6 -12.95 15.6 -13.0 15.65 -13.0 15.6 -13.1 15.55 -13.1 15.55 -13.15 15.6 -13.15 15.6 -13.2 15.55 -13.25 15.6 -13.3 15.55 -13.3 15.55 -13.35 15.55 -13.4 15.55 -13.45 15.5 -13.5 15.55 -13.5 15.55 -13.55 15.55 -13.6 15.5 -13.6 15.55 -13.65 15.5 -13.65 15.5 -13.7 15.5 -13.75 15.55 -13.75 15.5 -13.8 15.5 -13.85 15.5 -13.95 15.5 -14.0 15.5 -14.05 15.5 -14.1 15.45 -14.1 15.5 -14.15 15.45 -14.15 15.45 -14.2 15.5 -14.25 15.5 -14.3 15.45 -14.3 15.4 -14.35 15.45 -14.4 15.4 -14.45 15.4 -14.55 15.35 -14.6 15.35 -14.65 15.3 -14.65 15.35 -14.7 15.3 -14.7 15.3 -14.8 15.35 -14.8 15.35 -14.85 15.45 -14.85 15.5 -14.85 15.5 -14.8 15.55 -14.8 15.5 -14.75 15.55 -14.7 15.6 -14.7 15.6 -14.65 15.55 -14.6 15.6 -14.6 15.6 -14.55 15.65 -14.55 15.6 -14.45 15.65 -14.45 15.65 -14.4 15.7 -14.4 15.65 -14.35 15.65 -14.3 15.7 -14.3 15.7 -14.25 15.65 -14.2 15.7 -14.15 15.7 -14.1 15.7 -14.0 15.7 -13.95 15.75 -13.95 15.75 -13.9 15.7 -13.9 15.7 -13.8 15.75 -13.8 15.75 -13.75 15.7 -13.75 15.75 -13.65 15.75 -13.6" fill="#ffff00" fill-rule="evenodd" stroke="none"/>
    <path d="M15.0 -15.5 L15.05 -15.45 15.05 -15.4 15.1 -15.4 15.05 -15.4 15.1 -15.35 15.1 -15.3 15.15 -15.3 15.15 -15.15 15.2 -15.15 15.15 -15.05 15.2 -15.05 15.2 -15.0 15.15 -15.0 15.2 -14.95 15.2 -14.9 15.25 -14.9 15.3 -14.8 15.25 -14.8 15.3 -14.8 15.3 -14.75 15.35 -14.7 15.4 -14.7 15.35 -14.6 15.4 -14.6 15.45 -14.55 15.45 -14.5 15.5 -14.5 15.45 -14.4 15.5 -14.4 15.55 -14.4 15.55 -14.35 15.55 -14.3 15.5 -14.3 15.55 -14.25 15.6 -14.2 15.6 -14.15 15.55 -14.15 15.6 -14.15 15.6 -14.1 15.55 -14.0 15.6 -14.0 15.65 -13.95 15.6 -13.9 15.65 -13.85 15.7 -13.8 15.65 -13.75 15.65 -13.7 15.7 -13.7 15.7 -13.65 15.6 -13.65 15.55 -13.65 15.5 -13.7 15.45 -13.7 15.45 -13.75 15.45 -13.85 15.4 -13.85 15.4 -13.9 15.45 -13.9 15.45 -13.95 15.4 -14.0 15.35 -14.0 15.35 -14.05 15.4 -14.1 15.4 -14.15 15.35 -14.15 15.3 -14.15 15.35 -14.25 15.3 -14.3 15.25 -14.35 15.3 -14.4 15.25 -14.4 15.25 -14.45 15.2 -14.5 15.2 -14.6 15.15 -14.6 15.1 -14.65 15.1 -14.7 15.1 -14.75 15.05 -14.8 15.0 -14.85 15.0 -14.9 14.95 -14.95 14.95 -15.0 15.0 -15.0 14.95 -15.05 14.95 -15.1 14.95 -15.15 14.9 -15.2 14.9 -15.3 14.85 -15.3 14.85 -15.35 14.8 -15.4 14.85 -15.4 14.85 -15.45 14.8 -15.45 14.8 -15.5 14.8 -15.55 14.85 -15.55 14.85 -15.6 14.85 -15.55 14.9 -15.6 14.95 -15.6 15.0 -15.6 14.95 -15.55 15.0 -15.55 15.0 -15.5" fill="#ffff00" fill-rule="evenodd" stroke="none"/>
    <path d="M15.0 -15.75 L15.05 -15.7 15.0 -15.65 15.0 -15.6 15.0 -15.55 14.95 -15.55 15.0 -15.55 15.0 -15.5 14.95 -15.45 14.95 -15.4 14.9 -15.35 14.9 -15.3 14.85 -15.25 14.8 -15.15 14.75 -15.05 14.7 -15.0 14.7 -14.95 14.6 -14.95 14.6 -14.9 14.6 -14.95 14.6 -14.9 14.5 -14.9 14.45 -14.9 14.4 -14.95 14.45 -14.95 14.4 -15.05 14.45 -15.1 14.45 -15.15 14.5 -15.1 14.55 -15.15 14.55 -15.2 14.6 -15.25 14.65 -15.3 14.65 -15.35 14.7 -15.4 14.75 -15.45 14.75 -15.5 14.8 -15.55 14.8 -15.6 14.75 -15.65 14.75 -15.7 14.8 -15.7 14.8 -15.75 14.85 -15.8 14.9 -15.75 14.9 -15.8 14.95 -15.8 15.0 -15.75" fill="#ffff00" fill-rule="evenodd" stroke="none"/>
    <path d="M14.4 -15.6 L14.4 -15.65 14.4 -15.6 14.45 -15.6 14.5 -15.6 14.5 -15.65 14.55 -15.65 14.6 -15.6 14.6 -15.55 14.55 -15.55 14.6 -15.55 14.6 -15.5 14.6 -15.45 14.55 -15.4 14.6 -15.35 14.55 -15.35 14.6 -15.25 14.6 -15.2 14.55 -15.2 14.6 -15.2 14.6 -15.15 14.55 -15.1 14.55 -15.05 14.6 -15.05 14.6 -15.0 14.55 -15.0 14.55 -14.95 14.55 -14.9 14.5 -14.9 14.55 -14.85 14.5 -14.8 14.5 -14.75 14.5 -14.7 14.45 -14.65 14.5 -14.65 14.5 -14.6 14.45 -14.6 14.45 -14.5 14.4 -14.5 14.4 -14.45 14.35 -14.4 14.3 -14.3 14.25 -14.2 14.2 -14.15 14.15 -14.05 14.1 -13.95 14.05 -13.85 14.0 -13.75 13.95 -13.65 13.9 -13.55 13.8 -13.45 13.75 -13.35 13.75 -13.3 13.65 -13.3 13.65 -13.25 13.65 -13.3 13.6 -13.3 13.55 -13.35 13.5 -13.35 13.55 -13.4 13.55 -13.45 13.65 -13.55 13.7 -13.65 13.75 -13.75 13.8 -13.85 13.85 -13.95 13.9 -14.05 13.95 -14.15 14.0 -14.2 14.05 -14.3 14.1 -14.4 14.2 -14.5 14.2 -14.55 14.25 -14.6 14.25 -14.65 14.25 -14.7 14.3 -14.7 14.3 -14.75 14.25 -14.8 14.3 -14.85 14.3 -14.9 14.35 -14.95 14.3 -15.0 14.35 -15.0 14.35 -15.05 14.35 -15.15 14.4 -15.15 14.35 -15.15 14.35 -15.2 14.4 -15.25 14.35 -15.25 14.35 -15.35 14.4 -15.35 14.35 -15.4 14.4 -15.45 14.35 -15.45 14.35 -15.5 14.35 -15.55 14.4 -15.6" fill="#ffff00" fill-rule="evenodd" stroke="none"/>
    <path d="M14.2 -15.55 L14.25 -15.55 14.2 -15.5 14.25 -15.5 14.15 -15.45 14.1 -15.35 14.1 -15.2 14.0 -15.1 13.95 -15.0 13.9 -14.9 13.85 -14.75 13.75 -14.65 13.7 -14.55 13.65 -14.45 13.55 -14.35 13.55 -14.3 13.5 -14.3 13.45 -14.25 13.45 -14.2 13.4 -14.15 13.35 -14.1 13.3 -14.05 13.25 -14.05 13.15 -14.0 13.1 -14.05 13.1 -14.15 13.1 -14.2 13.05 -14.2 13.15 -14.25 13.15 -14.3 13.15 -14.25 13.25 -14.25 13.25 -14.3 13.3 -14.35 13.3 -14.4 13.35 -14.4 13.4 -14.45 13.4 -14.5 13.5 -14.6 13.55 -14.7 13.6 -14.8 13.65 -14.9 13.7 -15.0 13.75 -15.1 13.8 -15.2 13.85 -15.3 13.95 -15.4 14.0 -15.5 14.05 -15.6 14.05 -15.55 14.1 -15.6 14.15 -15.6 14.2 -15.6 14.2 -15.55" fill="#ffff00" fill-rule="evenodd" stroke="none"/>
    <path d="M13.2 -15.05 L13.25 -15.05 13.3 -15.1 13.3 -15.05 13.3 -15.1 13.4 -15.1 13.4 -15.15 13.4 -15.2 13.45 -15.2 13.45 -15.25 13.5 -15.25 13.55 -15.3 13.55 -15.25 13.55 -15.3 13.6 -15.35 13.65 -15.35 13.65 -15.4 13.7 -15.35 13.75 -15.35 13.8 -15.25 13.8 -15.2 13.75 -15.2 13.75 -15.15 13.7 -15.1 13.65 -15.1 13.65 -15.05 13.6 -15.1 13.6 -15.05 13.6 -15.0 13.55 -15.0 13.5 -15.0 13.5 -14.95 13.5 -14.9 13.45 -14.9 13.4 -14.9 13.35 -14.85 13.3 -14.85 13.3 -14.8 13.3 -14.85 13.25 -14.8 13.2 -14.8 13.2 -14.75 13.15 -14.75 13.15 -14.7 13.1 -14.7 13.1 -14.75 13.05 -14.7 13.0 -14.65 12.95 -14.6 12.95 -14.55 12.9 -14.55 12.85 -14.55 12.85 -14.5 12.8 -14.5 12.8 -14.45 12.75 -14.4 12.7 -14.4 12.7 -14.35 12.65 -14.3 12.65 -14.25 12.6 -14.2 12.6 -14.25 12.6 -14.2 12.55 -14.2 12.5 -14.2 12.5 -14.15 12.45 -14.1 12.45 -14.05 12.4 -14.0 12.4 -13.95 12.35 -13.95 12.35 -13.9 12.3 -13.85 12.25 -13.9 12.2 -13.9 12.15 -13.9 12.2 -13.95 12.15 -14.0 12.15 -14.05 12.2 -14.1 12.25 -14.2 12.3 -14.3 12.35 -14.3 12.4 -14.35 12.4 -14.4 12.45 -14.4 12.45 -14.45 12.5 -14.5 12.6 -14.55 12.6 -14.6 12.65 -14.6 12.65 -14.65 12.7 -14.7 12.75 -14.7 12.75 -14.75 12.8 -14.75 12.8 -14.8 12.85 -14.8 12.9 -14.85 12.95 -14.9 13.0 -14.9 13.0 -14.85 13.0 -14.9 13.0 -14.95 13.1 -14.95 13.1 -15.0 13.15 -15.05 13.2 -15.0 13.2 -15.05" fill="#ffff00" fill-rule="evenodd" stroke="none"/>
    <path d="M13.45 -15.5 L13.5 -15.5 13.55 -15.4 13.55 -15.35 13.5 -15.35 13.5 -15.3 13.45 -15.25 13.4 -15.3 13.35 -15.3 13.3 -15.35 13.3 -15.3 13.2 -15.3 13.15 -15.35 13.1 -15.3 13.1 -15.35 13.05 -15.35 13.05 -15.3 13.0 -15.3 12.95 -15.35 12.9 -15.35 12.9 -15.3 12.85 -15.35 12.8 -15.3 12.75 -15.3 12.7 -15.35 12.7 -15.3 12.65 -15.3 12.65 -15.35 12.55 -15.3 12.5 -15.35 12.5 -15.3 12.45 -15.3 12.4 -15.25 12.35 -15.3 12.35 -15.25 12.3 -15.25 12.3 -15.2 12.25 -15.2 12.2 -15.2 12.15 -15.2 12.15 -15.15 12.1 -15.1 12.1 -15.05 12.05 -15.0 12.0 -14.9 11.95 -14.85 11.95 -14.8 11.9 -14.75 11.9 -14.7 11.85 -14.7 11.85 -14.65 11.9 -14.65 11.9 -14.6 11.8 -14.6 11.8 -14.55 11.75 -14.55 11.75 -14.6 11.7 -14.6 11.65 -14.7 11.7 -14.7 11.65 -14.75 11.65 -14.8 11.7 -14.8 11.7 -14.85 11.75 -14.9 11.75 -14.95 11.8 -15.0 11.85 -15.05 11.85 -15.1 11.85 -15.15 11.9 -15.15 11.9 -15.2 11.95 -15.25 12.0 -15.25 12.0 -15.3 12.05 -15.35 12.1 -15.35 12.15 -15.35 12.15 -15.4 12.2 -15.45 12.25 -15.45 12.35 -15.5 12.4 -15.5 12.45 -15.5 12.5 -15.55 12.55 -15.5 12.55 -15.55 12.65 -15.55 12.7 -15.55 12.75 -15.55 12.85 -15.55 12.9 -15.55 12.95 -15.55 13.0 -15.5 13.05 -15.55 13.1 -15.55 13.1 -15.5 13.15 -15.55 13.2 -15.55 13.2 -15.5 13.3 -15.55 13.35 -15.55 13.35 -15.5 13.4 -15.5 13.45 -15.5" fill="#ffff00" fill-rule="evenodd" stroke="none"/>
    <path d="M14.55 -15.85 L14.6 -15.85 14.7 -15.9 14.7 -15.85 14.75 -15.85 14.75 -15.9 14.8 -15.9 14.8 -15.85 14.85 -15.9 14.9 -15.9 14.95 -15.85 15.0 -15.85 14.95 -15.8 14.95 -15.75 15.0 -15.7 14.95 -15.7 14.9 -15.65 14.9 -15.7 14.85 -15.65 14.8 -15.65 14.8 -15.6 14.75 -15.65 14.8 -15.6 14.85 -15.55 14.8 -15.55 14.85 -15.5 14.85 -15.45 14.85 -15.4 14.85 -15.45 14.9 -15.45 14.95 -15.45 15.0 -15.45 15.0 -15.5 15.05 -15.45 15.1 -15.5 15.15 -15.45 15.2 -15.45 15.2 -15.5 15.25 -15.5 15.25 -15.45 15.35 -15.5 15.4 -15.5 15.5 -15.4 15.55 -15.4 15.5 -15.4 15.55 -15.3 15.6 -15.3 15.6 -15.25 15.55 -15.25 15.55 -15.2 15.55 -15.15 15.6 -15.1 15.55 -15.05 15.55 -15.0 15.45 -15.0 15.4 -14.95 15.4 -14.9 15.35 -14.85 15.3 -14.8 15.25 -14.8 15.25 -14.75 15.2 -14.8 15.15 -14.75 15.1 -14.75 15.05 -14.8 15.05 -14.75 15.0 -14.75 14.95 -14.85 14.95 -14.8 14.9 -14.8 14.85 -14.85 14.85 -14.8 14.8 -14.8 14.75 -14.8 14.7 -14.85 14.65 -14.9 14.6 -14.95 14.55 -15.0 14.5 -15.0 14.35 -15.05 14.35 -15.1 14.3 -15.15 14.35 -15.15 14.3 -15.15 14.3 -15.2 14.3 -15.25 14.25 -15.25 14.2 -15.2 14.2 -15.25 14.15 -15.25 14.1 -15.2 14.1 -15.25 14.05 -15.25 14.0 -15.2 13.95 -15.25 13.9 -15.25 13.9 -15.2 13.85 -15.2 13.85 -15.25 13.8 -15.25 13.75 -15.3 13.7 -15.3 13.65 -15.35 13.6 -15.35 13.6 -15.4 13.6 -15.45 13.6 -15.5 13.65 -15.55 13.65 -15.6 13.6 -15.6 13.6 -15.65 13.65 -15.7 13.7 -15.75 13.7 -15.8 13.7 -15.85 13.75 -15.8 13.8 -15.85 13.85 -15.9 13.9 -15.9 13.9 -15.85 13.9 -15.9 13.95 -15.9 14.0 -15.9 14.05 -15.9 14.1 -15.95 14.15 -15.9 14.2 -15.9 14.25 -15.85 14.3 -15.9 14.35 -15.85 14.35 -15.9 14.4 -15.9 14.45 -15.9 14.45 -15.8 14.5 -15.85 14.55 -15.85 M14.6 -15.3 L14.6 -15.25 14.55 -15.25 14.65 -15.2 14.65 -15.25 14.7 -15.3 14.6 -15.3 M14.9 -15.15 L14.9 -15.2 14.95 -15.25 14.9 -15.2 14.9 -15.15" fill="#ffff00" fill-rule="evenodd" stroke="none"/>
    <path d="M14.2 -16.6 L14.25 -16.6 14.3 -16.6 14.3 -16.55 14.25 -16.5 14.3 -16.5 14.35 -16.4 14.35 -16.35 14.35 -16.3 14.4 -16.25 14.4 -16.2 14.45 -16.15 14.5 -16.1 14.5 -16.05 14.55 -16.0 14.55 -15.95 14.55 -15.9 14.55 -15.85 14.6 -15.85 14.6 -15.8 14.6 -15.7 14.65 -15.65 14.6 -15.65 14.55 -15.65 14.55 -15.6 14.55 -15.65 14.55 -15.6 14.5 -15.6 14.45 -15.6 14.45 -15.65 14.45 -15.7 14.4 -15.7 14.4 -15.8 14.35 -15.8 14.4 -15.8 14.35 -15.85 14.35 -15.9 14.3 -15.95 14.35 -15.95 14.3 -15.95 14.3 -16.05 14.25 -16.05 14.2 -16.15 14.25 -16.15 14.2 -16.15 14.15 -16.25 14.15 -16.3 14.15 -16.35 14.1 -16.35 14.1 -16.4 14.15 -16.4 14.1 -16.45 14.05 -16.5 14.0 -16.55 14.0 -16.6 14.0 -16.65 13.95 -16.7 14.0 -16.75 14.0 -16.8 14.05 -16.8 14.1 -16.75 14.15 -16.75 14.2 -16.7 14.2 -16.6" fill="#ff6633" fill-rule="evenodd" stroke="none"/>
    <path d="M14.3 -15.95 L14.35 -15.9 14.35 -15.85 14.4 -15.85 14.45 -15.8 14.45 -15.75 14.5 -15.65 14.55 -15.6 14.5 -15.6 14.5 -15.55 14.5 -15.5 14.55 -15.5 14.45 -15.45 14.4 -15.45 14.35 -15.5 14.3 -15.55 14.3 -15.6 14.3 -15.65 14.25 -15.65 14.25 -15.7 14.2 -15.7 14.15 -15.75 14.15 -15.8 14.1 -15.8 14.15 -15.8 14.15 -15.85 14.1 -15.9 14.05 -15.95 14.1 -15.95 14.05 -16.0 14.0 -16.0 14.0 -16.05 13.95 -16.05 13.9 -16.1 13.75 -16.2 13.75 -16.25 13.7 -16.25 13.7 -16.3 13.75 -16.3 13.7 -16.3 13.7 -16.35 13.75 -16.35 13.8 -16.4 13.85 -16.4 13.85 -16.35 14.0 -16.3 14.05 -16.25 14.1 -16.25 14.1 -16.2 14.15 -16.2 14.2 -16.15 14.25 -16.05 14.3 -16.0 14.3 -15.95" fill="#ff6633" fill-rule="evenodd" stroke="none"/>
    <path d="M13.85 -15.8 L13.9 -15.8 13.95 -15.75 14.0 -15.8 14.05 -15.8 14.2 -15.7 14.25 -15.7 14.2 -15.6 14.25 -15.6 14.25 -15.55 14.2 -15.55 14.2 -15.5 14.15 -15.5 14.05 -15.5 13.9 -15.6 13.85 -15.6 13.8 -15.65 13.75 -15.65 13.7 -15.65 13.65 -15.7 13.55 -15.65 13.5 -15.7 13.5 -15.65 13.45 -15.65 13.4 -15.6 13.4 -15.65 13.35 -15.65 13.35 -15.6 13.3 -15.6 13.25 -15.65 13.2 -15.7 13.2 -15.75 13.2 -15.8 13.25 -15.8 13.25 -15.85 13.25 -15.8 13.3 -15.8 13.35 -15.85 13.4 -15.85 13.4 -15.9 13.4 -15.85 13.45 -15.85 13.5 -15.9 13.55 -15.9 13.55 -15.85 13.65 -15.9 13.7 -15.85 13.75 -15.9 13.8 -15.85 13.85 -15.85 13.85 -15.8" fill="#ff6633" fill-rule="evenodd" stroke="none"/>
    <path d="M14.9 -17.15 L14.95 -17.15 14.95 -17.2 15.0 -17.1 15.05 -17.1 15.0 -17.05 15.0 -17.0 15.05 -16.95 15.0 -16.9 15.05 -16.9 15.05 -16.85 15.05 -16.8 15.0 -16.8 15.05 -16.75 15.05 -16.7 15.0 -16.65 15.0 -16.6 15.05 -16.6 15.05 -16.55 15.0 -16.55 15.0 -16.5 15.05 -16.5 15.0 -16.45 15.0 -16.4 15.0 -16.35 15.0 -16.3 15.0 -16.25 14.95 -16.25 15.0 -16.25 15.0 -16.2 15.0 -16.15 14.95 -16.1 14.95 -16.05 14.9 -16.0 14.95 -16.0 14.95 -15.95 14.9 -15.95 14.9 -15.9 14.85 -15.85 14.9 -15.8 14.9 -15.75 14.85 -15.7 14.9 -15.7 14.9 -15.65 14.85 -15.65 14.85 -15.55 14.8 -15.55 14.8 -15.5 14.8 -15.45 14.75 -15.45 14.75 -15.4 14.7 -15.4 14.65 -15.45 14.6 -15.45 14.6 -15.5 14.55 -15.55 14.6 -15.55 14.6 -15.6 14.6 -15.65 14.65 -15.65 14.65 -15.75 14.7 -15.75 14.7 -15.8 14.65 -15.8 14.7 -15.9 14.7 -15.95 14.65 -15.95 14.7 -16.0 14.7 -16.05 14.75 -16.05 14.75 -16.1 14.7 -16.1 14.75 -16.15 14.75 -16.2 14.75 -16.25 14.8 -16.3 14.8 -16.35 14.75 -16.35 14.8 -16.35 14.8 -16.4 14.8 -16.5 14.85 -16.5 14.8 -16.5 14.8 -16.55 14.85 -16.6 14.8 -16.6 14.8 -16.65 14.85 -16.65 14.85 -16.7 14.85 -16.75 14.8 -16.8 14.85 -16.8 14.85 -16.85 14.8 -16.85 14.8 -16.9 14.8 -16.95 14.8 -17.0 14.75 -17.0 14.8 -17.05 14.8 -17.1 14.8 -17.15 14.85 -17.2 14.85 -17.15 14.9 -17.15" fill="#ff6633" fill-rule="evenodd" stroke="none"/>
    <path d="M13.35 -15.65 L13.4 -15.65 13.4 -15.6 13.45 -15.6 13.55 -15.6 13.6 -15.6 13.65 -15.6 13.7 -15.55 13.75 -15.55 13.85 -15.55 13.9 -15.55 13.95 -15.55 14.0 -15.55 14.05 -15.5 14.05 -15.55 14.1 -15.55 14.15 -15.55 14.15 -15.5 14.2 -15.5 14.2 -15.45 14.15 -15.45 14.2 -15.4 14.15 -15.4 14.1 -15.35 14.05 -15.3 14.05 -15.35 13.95 -15.35 13.9 -15.3 13.9 -15.35 13.85 -15.35 13.85 -15.3 13.8 -15.35 13.7 -15.35 13.65 -15.4 13.6 -15.35 13.6 -15.4 13.55 -15.4 13.5 -15.35 13.45 -15.4 13.4 -15.4 13.35 -15.4 13.3 -15.4 13.25 -15.35 13.25 -15.4 13.2 -15.4 13.15 -15.4 13.15 -15.35 13.1 -15.4 13.05 -15.35 13.05 -15.3 13.0 -15.3 12.95 -15.35 12.9 -15.3 12.9 -15.25 12.85 -15.25 12.8 -15.3 12.75 -15.3 12.8 -15.35 12.75 -15.4 12.8 -15.5 12.8 -15.55 12.85 -15.55 12.9 -15.5 12.95 -15.55 13.0 -15.6 13.05 -15.55 13.1 -15.6 13.15 -15.6 13.2 -15.6 13.25 -15.6 13.35 -15.6 13.35 -15.65" fill="#ff6633" fill-rule="evenodd" stroke="none"/>
    <path d="M14.35 -15.45 L14.4 -15.45 14.45 -15.45 14.45 -15.4 14.5 -15.4 14.5 -15.45 14.5 -15.4 14.55 -15.35 14.5 -15.3 14.55 -15.3 14.5 -15.25 14.45 -15.25 14.45 -15.2 14.4 -15.25 14.3 -15.2 14.3 -15.25 14.25 -15.25 14.25 -15.2 14.2 -15.25 14.1 -15.25 14.1 -15.2 14.05 -15.25 14.0 -15.2 13.95 -15.25 13.9 -15.25 13.9 -15.2 13.85 -15.2 13.85 -15.25 13.85 -15.2 13.75 -15.2 13.7 -15.2 13.65 -15.2 13.6 -15.15 13.55 -15.2 13.5 -15.15 13.45 -15.15 13.45 -15.2 13.45 -15.15 13.4 -15.15 13.4 -15.1 13.35 -15.1 13.3 -15.1 13.25 -15.05 13.2 -15.05 13.2 -15.0 13.15 -15.05 13.1 -15.05 13.1 -15.1 13.05 -15.1 13.05 -15.15 13.05 -15.2 13.1 -15.25 13.15 -15.25 13.15 -15.3 13.2 -15.25 13.2 -15.3 13.25 -15.3 13.3 -15.35 13.35 -15.3 13.4 -15.35 13.45 -15.4 13.5 -15.35 13.55 -15.4 13.6 -15.4 13.7 -15.4 13.7 -15.45 13.75 -15.4 13.8 -15.45 13.85 -15.45 13.85 -15.4 13.9 -15.45 13.95 -15.45 14.0 -15.45 14.05 -15.45 14.1 -15.45 14.15 -15.45 14.2 -15.45 14.25 -15.45 14.3 -15.45 14.35 -15.45" fill="#ff6633" fill-rule="evenodd" stroke="none"/>
    <path d="M13.95 -15.7 L14.0 -15.7 14.0 -15.65 14.05 -15.7 14.1 -15.65 14.15 -15.65 14.25 -15.7 14.25 -15.65 14.3 -15.65 14.35 -15.65 14.4 -15.65 14.45 -15.6 14.45 -15.55 14.5 -15.55 14.45 -15.5 14.45 -15.45 14.4 -15.45 14.35 -15.45 14.35 -15.4 14.3 -15.4 14.3 -15.45 14.25 -15.45 14.2 -15.45 14.15 -15.45 14.1 -15.45 14.05 -15.5 14.05 -15.45 14.0 -15.45 14.0 -15.5 13.9 -15.45 13.85 -15.5 13.85 -15.45 13.8 -15.45 13.75 -15.5 13.7 -15.45 13.65 -15.45 13.65 -15.5 13.6 -15.5 13.6 -15.45 13.5 -15.5 13.5 -15.45 13.45 -15.45 13.45 -15.4 13.4 -15.4 13.35 -15.4 13.3 -15.35 13.25 -15.35 13.2 -15.35 13.15 -15.4 13.1 -15.45 13.15 -15.5 13.15 -15.55 13.25 -15.6 13.25 -15.55 13.25 -15.6 13.3 -15.6 13.35 -15.6 13.35 -15.65 13.45 -15.7 13.45 -15.65 13.5 -15.7 13.55 -15.65 13.6 -15.7 13.65 -15.7 13.7 -15.7 13.75 -15.7 13.8 -15.65 13.85 -15.7 13.9 -15.65 13.95 -15.7" fill="#ff6633" fill-rule="evenodd" stroke="none"/>
    <path d="M14.4 -15.95 L14.35 -15.9 14.4 -15.9 14.45 -15.9 14.45 -15.85 14.5 -15.85 14.5 -15.8 14.55 -15.75 14.6 -15.75 14.65 -15.7 14.65 -15.65 14.65 -15.6 14.7 -15.55 14.75 -15.5 14.75 -15.45 14.7 -15.45 14.7 -15.4 14.65 -15.35 14.6 -15.4 14.55 -15.4 14.55 -15.45 14.5 -15.45 14.45 -15.45 14.5 -15.55 14.45 -15.55 14.4 -15.55 14.4 -15.65 14.35 -15.65 14.3 -15.7 14.25 -15.7 14.2 -15.75 14.25 -15.75 14.2 -15.75 14.2 -15.8 14.15 -15.85 14.1 -15.85 14.05 -15.9 14.0 -15.95 13.95 -15.95 13.95 -16.0 13.9 -16.05 13.85 -16.05 13.9 -16.1 13.9 -16.15 13.95 -16.2 13.95 -16.25 13.95 -16.2 14.0 -16.2 14.05 -16.2 14.05 -16.15 14.1 -16.15 14.15 -16.1 14.2 -16.05 14.25 -16.05 14.3 -16.0 14.3 -15.95 14.35 -15.95 14.4 -15.95" fill="#ff6633" fill-rule="evenodd" stroke="none"/>
    <path d="M15.25 -15.95 L15.3 -15.9 15.35 -15.95 15.4 -15.95 15.45 -15.9 15.45 -15.95 15.45 -15.9 15.5 -15.9 15.5 -15.85 15.45 -15.8 15.5 -15.8 15.5 -15.75 15.45 -15.75 15.4 -15.7 15.4 -15.75 15.35 -15.75 15.35 -15.7 15.25 -15.7 15.2 -15.7 15.2 -15.65 15.15 -15.65 15.15 -15.6 15.1 -15.65 15.05 -15.65 15.05 -15.6 15.05 -15.55 15.0 -15.55 14.95 -15.55 14.95 -15.5 14.9 -15.5 14.85 -15.5 14.85 -15.45 14.85 -15.4 14.8 -15.4 14.75 -15.4 14.7 -15.35 14.65 -15.35 14.65 -15.3 14.6 -15.25 14.55 -15.25 14.45 -15.25 14.45 -15.3 14.45 -15.35 14.4 -15.35 14.45 -15.45 14.5 -15.5 14.55 -15.5 14.55 -15.55 14.6 -15.55 14.6 -15.6 14.65 -15.6 14.65 -15.55 14.65 -15.6 14.7 -15.6 14.75 -15.6 14.75 -15.65 14.75 -15.7 14.8 -15.7 14.85 -15.65 14.85 -15.7 14.9 -15.75 14.95 -15.8 15.0 -15.85 15.0 -15.8 15.05 -15.8 15.05 -15.85 15.1 -15.85 15.1 -15.9 15.15 -15.9 15.25 -15.9 15.25 -15.95" fill="#ff6633" fill-rule="evenodd" stroke="none"/>
    <path d="M14.95 -15.4 L15.0 -15.4 15.1 -15.4 15.15 -15.35 15.15 -15.4 15.2 -15.4 15.2 -15.35 15.25 -15.35 15.3 -15.35 15.3 -15.25 15.25 -15.25 15.3 -15.2 15.25 -15.15 15.2 -15.15 15.2 -15.2 15.15 -15.15 15.1 -15.15 15.1 -15.2 15.0 -15.15 14.95 -15.15 14.95 -15.2 14.9 -15.2 14.9 -15.15 14.85 -15.2 14.8 -15.2 14.75 -15.25 14.75 -15.3 14.75 -15.35 14.8 -15.35 14.8 -15.4 14.85 -15.4 14.85 -15.45 14.9 -15.4 14.95 -15.4" fill="#ff6633" fill-rule="evenodd" stroke="none"/>
    <path d="M15.25 -15.7 L15.3 -15.65 15.3 -15.6 15.25 -15.6 15.3 -15.6 15.3 -15.55 15.25 -15.55 15.25 -15.5 15.2 -15.5 15.2 -15.45 15.1 -15.45 15.1 -15.5 15.1 -15.45 15.05 -15.45 15.05 -15.4 14.95 -15.45 14.95 -15.4 14.9 -15.35 14.85 -15.35 14.85 -15.3 14.85 -15.35 14.8 -15.35 14.75 -15.45 14.8 -15.45 14.75 -15.5 14.75 -15.55 14.8 -15.55 14.85 -15.55 14.85 -15.6 14.95 -15.6 14.95 -15.65 15.0 -15.65 15.0 -15.7 15.05 -15.65 15.1 -15.65 15.1 -15.7 15.15 -15.7 15.2 -15.7 15.25 -15.7" fill="#ff6633" fill-rule="evenodd" stroke="none"/>
    <path d="M14.65 -15.3 L14.65 -15.35 14.75 -15.3 14.8 -15.3 14.8 -15.25 14.85 -15.25 15.15 -15.1 15.2 -15.1 15.25 -15.1 15.3 -15.1 15.3 -15.05 15.3 -15.0 15.3 -14.95 15.35 -14.9 15.3 -14.9 15.25 -14.9 15.2 -14.85 15.15 -14.9 15.1 -14.9 15.05 -14.9 15.05 -14.95 14.75 -15.1 14.7 -15.05 14.7 -15.1 14.65 -15.1 14.55 -15.15 14.5 -15.2 14.5 -15.25 14.55 -15.25 14.5 -15.3 14.55 -15.3 14.6 -15.35 14.65 -15.3" fill="#ff6633" fill-rule="evenodd" stroke="none"/>
    <path d="M14.65 -15.5 L14.65 -15.55 14.7 -15.55 14.75 -15.5 14.75 -15.55 15.2 -15.3 15.25 -15.25 15.25 -15.2 15.3 -15.15 15.25 -15.15 15.25 -15.1 15.15 -15.05 15.15 -15.1 15.1 -15.1 14.65 -15.35 14.6 -15.4 14.55 -15.4 14.6 -15.45 14.6 -15.5 14.6 -15.55 14.6 -15.5 14.65 -15.5" fill="#ff6633" fill-rule="evenodd" stroke="none"/>
    <path d="M14.5 -15.45 L14.55 -15.5 14.6 -15.45 14.65 -15.45 14.7 -15.4 14.65 -15.35 14.7 -15.35 14.7 -15.3 14.75 -15.25 14.8 -15.2 14.85 -15.2 14.8 -15.15 14.85 -15.1 14.9 -15.1 14.9 -15.0 14.95 -14.95 14.95 -14.9 14.9 -14.85 14.95 -14.85 14.9 -14.8 14.85 -14.85 14.85 -14.8 14.8 -14.8 14.75 -14.85 14.7 -14.85 14.75 -14.9 14.7 -14.95 14.65 -15.0 14.65 -15.05 14.6 -15.05 14.65 -15.1 14.6 -15.1 14.6 -15.15 14.55 -15.15 14.5 -15.25 14.45 -15.25 14.45 -15.3 14.45 -15.35 14.4 -15.35 14.45 -15.45 14.5 -15.45" fill="#ff6633" fill-rule="evenodd" stroke="none"/>
    <path d="M14.15 -15.95 L14.25 -15.95 14.3 -15.9 14.35 -15.9 14.35 -15.85 14.4 -15.85 14.45 -15.8 14.45 -15.75 14.5 -15.75 14.45 -15.75 14.5 -15.7 14.5 -15.65 14.55 -15.65 14.55 -15.6 14.6 -15.6 14.65 -15.55 14.6 -15.5 14.65 -15.5 14.7 -15.4 14.65 -15.35 14.65 -15.3 Q14.55 -15.35 14.55 -15.35 L14.55 -15.3 14.5 -15.3 14.45 -15.35 14.45 -15.4 14.45 -15.45 14.4 -15.45 14.35 -15.5 14.35 -15.55 14.3 -15.55 14.3 -15.65 14.25 -15.65 14.25 -15.7 14.2 -15.7 14.15 -15.75 14.05 -15.75 13.65 -16.0 13.65 -16.05 13.6 -16.05 13.55 -16.15 13.6 -16.15 13.6 -16.2 13.6 -16.25 13.65 -16.2 13.65 -16.25 13.7 -16.25 13.75 -16.25 13.75 -16.2 14.1 -16.0 14.15 -15.95" fill="#ff0000" fill-rule="evenodd" stroke="none"/>
    <path d="M14.65 -15.6 L14.7 -15.55 14.7 -15.45 14.75 -15.4 14.75 -15.35 14.75 -15.3 14.75 -15.25 14.7 -15.2 14.7 -15.15 14.65 -15.15 14.6 -15.2 14.55 -15.2 14.5 -15.25 14.55 -15.25 14.55 -15.3 14.5 -15.3 14.5 -15.35 14.55 -15.4 14.5 -15.4 14.5 -15.45 14.45 -15.45 14.5 -15.55 14.55 -15.65 14.55 -15.6 14.6 -15.65 14.65 -15.6" fill="#ff0000" fill-rule="evenodd" stroke="none"/>
    <path d="M14.45 -15.5 L14.5 -15.55 14.55 -15.55 14.6 -15.5 14.65 -15.5 14.65 -15.45 14.6 -15.4 14.6 -15.35 14.55 -15.3 14.55 -15.25 14.5 -15.25 14.45 -15.25 14.4 -15.25 14.35 -15.35 14.35 -15.4 14.35 -15.45 14.4 -15.45 14.45 -15.5" fill="#ff0000" fill-rule="evenodd" stroke="none"/>
    <path d="M14.15 -15.55 L14.2 -15.55 14.25 -15.55 14.25 -15.6 14.3 -15.6 14.35 -15.6 14.4 -15.6 14.4 -15.65 14.5 -15.65 14.55 -15.7 14.55 -15.65 14.6 -15.65 14.65 -15.65 14.7 -15.65 14.7 -15.7 14.7 -15.6 14.75 -15.6 14.7 -15.6 14.7 -15.55 14.75 -15.5 14.75 -15.45 14.65 -15.5 14.65 -15.45 14.6 -15.45 14.55 -15.4 14.5 -15.45 14.5 -15.4 14.45 -15.4 14.4 -15.45 14.4 -15.4 14.35 -15.4 14.35 -15.35 14.3 -15.35 14.25 -15.35 14.25 -15.4 14.25 -15.35 14.2 -15.3 14.15 -15.3 14.15 -15.35 14.1 -15.3 14.05 -15.35 14.05 -15.4 14.0 -15.4 14.05 -15.45 14.1 -15.5 14.1 -15.55 14.15 -15.55" fill="#ff0000" fill-rule="evenodd" stroke="none"/>
    <path d="M10.25 -13.0 Q9.45 -10.55 9.65 -10.45 L11.85 -8.55 Q17.35 -3.0 17.35 4.85 17.35 12.65 11.85 18.15 6.3 23.7 -1.5 23.7 -9.35 23.7 -14.9 18.15 -20.4 12.65 -20.4 4.85 -20.4 -3.0 -14.9 -8.55 -9.35 -14.05 -1.5 -14.05 L1.75 -13.8 Q2.1 -13.75 3.1 -16.0 4.1 -18.3 4.4 -18.2 8.55 -17.0 10.8 -15.55 11.0 -15.45 10.25 -13.0" fill="url(#gradient2)" fill-rule="evenodd" stroke="none"/>
  </g>
  <defs>
    <radialGradient cx="0" cy="0" gradientTransform="matrix(0.0574, 0.0, 0.0, 0.0574, -8.1, -14.75)" gradientUnits="userSpaceOnUse" id="gradient0" r="819.2" spreadMethod="pad">
      <stop offset="0.0" stop-color="#ff0000"/>
      <stop offset="1.0" stop-color="#cc0000"/>
      <stop offset="1.0" stop-color="#ff66cc"/>
    </radialGradient>
    <radialGradient cx="0" cy="0" gradientTransform="matrix(0.0538, 0.0, 0.0, 0.0538, 13.65, -6.3)" gradientUnits="userSpaceOnUse" id="gradient1" r="819.2" spreadMethod="pad">
      <stop offset="0.0" stop-color="#ff0000"/>
      <stop offset="1.0" stop-color="#cc0000"/>
      <stop offset="1.0" stop-color="#ff66cc"/>
    </radialGradient>
    <radialGradient cx="0" cy="0" gradientTransform="matrix(0.0365, 0.0, 0.0, 0.0365, -9.7, -2.2)" gradientUnits="userSpaceOnUse" id="gradient2" r="819.2" spreadMethod="pad">
      <stop offset="0.00784313725490196" stop-color="#cccccc"/>
      <stop offset="0.5058823529411764" stop-color="#333333"/>
      <stop offset="1.0" stop-color="#000000"/>
      <stop offset="1.0" stop-color="#ff66cc"/>
    </radialGradient>
  </defs>
</svg>
