<?xml version="1.0" encoding="UTF-8" standalone="no"?>
<svg xmlns:xlink="http://www.w3.org/1999/xlink" height="60.0px" width="60.0px" xmlns="http://www.w3.org/2000/svg">
  <g transform="matrix(1.0, 0.0, 0.0, 1.0, 45.0, 74.1)">
    <path d="M6.25 -22.9 Q-2.55 -14.1 -15.0 -14.1 -27.4 -14.1 -36.2 -22.9 -45.0 -31.7 -45.0 -44.1 -45.0 -56.55 -36.2 -65.3 -27.4 -74.1 -15.0 -74.1 -2.55 -74.1 6.25 -65.3 15.0 -56.55 15.0 -44.1 15.0 -31.7 6.25 -22.9 M12.35 -36.9 Q15.35 -48.15 9.55 -58.25 3.7 -68.35 -7.55 -71.35 -18.85 -74.35 -28.9 -68.55 -39.0 -62.7 -42.0 -51.45 -45.05 -40.2 -39.2 -30.1 -33.4 -20.0 -22.15 -17.0 -10.9 -14.0 -0.75 -19.8 9.3 -25.65 12.35 -36.9" fill="url(#gradient0)" fill-rule="evenodd" stroke="none"/>
    <path d="M12.35 -36.9 Q9.3 -25.65 -0.75 -19.8 -10.9 -14.0 -22.15 -17.0 -33.4 -20.0 -39.2 -30.1 -45.05 -40.2 -42.0 -51.45 -39.0 -62.7 -28.9 -68.55 -18.85 -74.35 -7.55 -71.35 3.7 -68.35 9.55 -58.25 15.35 -48.15 12.35 -36.9" fill="url(#gradient1)" fill-rule="evenodd" stroke="none"/>
  </g>
  <defs>
    <radialGradient cx="0" cy="0" gradientTransform="matrix(0.0574, 0.0, 0.0, 0.0574, -23.1, -58.8)" gradientUnits="userSpaceOnUse" id="gradient0" r="819.2" spreadMethod="pad">
      <stop offset="0.0" stop-color="#ffffff"/>
      <stop offset="0.5058823529411764" stop-color="#6a3838"/>
      <stop offset="1.0" stop-color="#663333"/>
      <stop offset="1.0" stop-color="#ff66cc"/>
    </radialGradient>
    <radialGradient cx="0" cy="0" gradientTransform="matrix(0.0529, 0.0, 0.0, 0.0529, -1.8, -49.6)" gradientUnits="userSpaceOnUse" id="gradient1" r="819.2" spreadMethod="pad">
      <stop offset="0.0" stop-color="#ffffff"/>
      <stop offset="0.3686274509803922" stop-color="#8e6868"/>
      <stop offset="0.6705882352941176" stop-color="#6a3838"/>
      <stop offset="1.0" stop-color="#663333"/>
      <stop offset="1.0" stop-color="#ff66cc"/>
    </radialGradient>
  </defs>
</svg>
