<?xml version="1.0" encoding="UTF-8" standalone="no"?>
<svg xmlns:xlink="http://www.w3.org/1999/xlink" height="60.0px" width="60.0px" xmlns="http://www.w3.org/2000/svg">
  <g transform="matrix(1.0, 0.0, 0.0, 1.0, 30.0, 30.05)">
    <path d="M21.25 -21.25 Q30.0 -12.5 30.0 -0.05 30.0 12.35 21.25 21.15 12.45 29.95 0.0 29.95 -12.4 29.95 -21.2 21.15 -30.0 12.35 -30.0 -0.05 -30.0 -12.5 -21.2 -21.25 -12.4 -30.05 0.0 -30.05 12.45 -30.05 21.25 -21.25 M24.55 -14.2 Q18.7 -24.3 7.45 -27.3 -3.85 -30.3 -13.9 -24.5 -24.0 -18.65 -27.0 -7.4 -30.05 3.85 -24.2 13.95 -18.4 24.05 -7.15 27.05 4.1 30.05 14.25 24.25 24.3 18.4 27.35 7.15 30.35 -4.1 24.55 -14.2" fill="url(#gradient0)" fill-rule="evenodd" stroke="none"/>
    <path d="M24.55 -14.2 Q30.35 -4.1 27.35 7.15 24.3 18.4 14.25 24.25 4.1 30.05 -7.15 27.05 -18.4 24.05 -24.2 13.95 -30.05 3.85 -27.0 -7.4 -24.0 -18.65 -13.9 -24.5 -3.85 -30.3 7.45 -27.3 18.7 -24.3 24.55 -14.2" fill="url(#gradient1)" fill-rule="evenodd" stroke="none"/>
    <path d="M-16.5 -4.85 L-16.55 -5.6 Q-16.6 -8.25 -15.85 -10.6 -14.7 -14.3 -11.7 -17.25 -7.55 -21.4 -1.9 -21.95 L0.05 -22.05 2.05 -22.0 Q8.45 -21.45 11.75 -17.25 L13.6 -14.95 14.9 -13.2 Q15.95 -11.5 16.75 -8.3 16.9 -7.5 16.45 -6.5 L16.4 -6.4 16.35 -6.75 16.35 -6.85 16.15 -6.5 15.45 -5.65 14.4 -4.85 Q13.3 -4.15 12.25 -4.2 L12.1 -4.2 12.0 -4.2 11.6 -4.25 Q10.6 -4.45 10.0 -5.4 L9.2 -6.9 8.15 -8.9 Q7.2 -10.65 6.55 -10.7 L6.15 -10.5 6.05 -10.45 5.9 -10.2 Q5.65 -9.85 5.55 -9.25 L5.5 -8.65 5.5 -8.55 5.5 -8.25 5.5 -8.15 5.5 -7.9 5.55 -5.5 5.55 -5.45 5.6 -4.1 5.6 -3.9 5.55 -3.3 5.55 -3.2 5.1 -1.95 4.85 -1.8 4.65 -1.75 4.45 -1.8 Q4.2 -1.9 4.1 -2.4 L4.0 -2.85 4.0 -2.9 3.9 -7.15 3.9 -7.25 3.75 -11.7 3.75 -11.75 3.5 -13.0 Q3.15 -14.1 2.6 -14.15 L2.4 -14.0 1.95 -13.2 1.55 -12.0 0.45 -7.55 Q-0.3 -4.45 -0.75 -3.1 -1.2 -1.9 -1.55 -1.45 L-1.9 -1.3 -2.0 -1.3 -2.45 -1.45 Q-3.15 -1.85 -3.5 -3.05 L-3.5 -3.1 -3.55 -3.5 -3.75 -6.25 -3.75 -6.35 -3.7 -10.4 -3.7 -10.5 -3.7 -10.6 -3.8 -12.8 -3.95 -13.65 -4.0 -13.75 -4.05 -13.95 -4.15 -14.1 -4.2 -14.05 -4.45 -13.6 -4.5 -13.5 -4.5 -13.4 -4.55 -13.3 -5.3 -10.4 Q-6.3 -6.55 -6.9 -5.85 L-7.05 -5.8 -7.15 -5.8 Q-8.5 -5.8 -8.85 -7.5 L-8.85 -7.65 -9.05 -9.3 -9.05 -9.35 -9.1 -9.8 Q-9.2 -10.65 -9.45 -10.9 -10.0 -11.4 -10.55 -11.4 -11.2 -11.4 -11.9 -10.8 L-12.2 -10.5 -12.3 -10.45 -13.2 -9.4 -14.25 -7.85 -14.95 -6.75 -15.95 -5.25 Q-16.2 -5.0 -16.3 -5.05 L-16.35 -5.05 -16.45 -5.1 -16.5 -4.85" fill="#ffffff" fill-opacity="0.9490196" fill-rule="evenodd" stroke="none"/>
    <path d="M16.4 -6.4 L16.65 -3.1 16.65 -3.0 Q16.65 1.4 14.25 7.25 12.15 12.25 9.4 16.15 L6.9 19.4 Q5.65 20.75 4.55 21.45 2.75 22.55 0.65 23.1 0.4 23.15 0.55 23.35 L0.95 23.7 Q1.4 24.15 0.05 24.15 -1.55 24.15 -1.1 23.65 L-0.75 23.25 Q-0.6 23.05 -0.8 23.05 -2.95 22.65 -4.35 21.85 L-6.55 20.25 -8.9 17.35 Q-11.65 13.5 -13.95 7.9 -16.05 2.75 -16.45 -1.05 L-16.55 -3.0 -16.55 -3.1 -16.5 -4.85 -16.45 -5.1 -16.35 -5.05 -16.3 -5.05 Q-16.2 -5.0 -15.95 -5.25 L-14.95 -6.75 -14.25 -7.85 -13.2 -9.4 -12.3 -10.45 -12.2 -10.5 -11.9 -10.8 Q-11.2 -11.4 -10.55 -11.4 -10.0 -11.4 -9.45 -10.9 -9.2 -10.65 -9.1 -9.8 L-9.1 -9.75 -9.05 -9.3 -8.95 -8.1 -8.95 -8.05 -8.85 -7.65 -8.85 -7.5 Q-8.5 -5.8 -7.15 -5.8 L-7.05 -5.8 -6.9 -5.85 Q-6.3 -6.55 -5.3 -10.4 L-4.55 -13.3 -4.5 -13.4 -4.5 -13.5 -4.45 -13.6 -4.2 -14.05 -4.15 -14.1 -4.05 -13.95 -4.0 -13.75 -3.9 -13.15 -3.8 -11.0 -3.8 -10.9 -3.8 -10.8 -3.85 -6.8 -3.85 -6.75 -3.65 -4.0 -3.5 -3.1 -3.5 -3.05 Q-3.15 -1.85 -2.45 -1.45 L-2.0 -1.3 -1.9 -1.3 -1.55 -1.45 Q-1.2 -1.9 -0.75 -3.1 -0.3 -4.45 0.45 -7.55 L1.55 -12.0 1.95 -13.2 2.4 -14.0 2.6 -14.15 Q3.15 -14.1 3.5 -13.0 L3.65 -12.1 3.8 -7.7 3.8 -7.65 3.9 -3.4 3.9 -3.35 4.0 -2.85 4.1 -2.4 Q4.2 -1.9 4.45 -1.8 L4.65 -1.75 4.85 -1.8 5.1 -1.95 5.55 -3.2 5.55 -3.3 5.6 -3.9 5.6 -4.1 5.55 -5.85 5.55 -5.9 5.5 -7.9 5.5 -8.15 5.5 -8.25 5.5 -8.55 5.5 -8.65 5.55 -9.25 Q5.65 -9.85 5.9 -10.2 L6.05 -10.45 6.15 -10.5 6.55 -10.7 Q7.2 -10.65 8.15 -8.9 L9.2 -6.9 10.0 -5.4 Q10.6 -4.45 11.6 -4.25 L12.0 -4.2 12.1 -4.2 12.25 -4.2 Q13.3 -4.15 14.4 -4.85 L15.45 -5.65 16.15 -6.5 16.35 -6.85 16.35 -6.75 16.4 -6.4" fill="#f3fbfc" fill-opacity="0.6" fill-rule="evenodd" stroke="none"/>
  </g>
  <defs>
    <radialGradient cx="0" cy="0" gradientTransform="matrix(0.0574, 0.0, 0.0, 0.0574, -8.1, -14.75)" gradientUnits="userSpaceOnUse" id="gradient0" r="819.2" spreadMethod="pad">
      <stop offset="0.0" stop-color="#0099ff"/>
      <stop offset="1.0" stop-color="#00ffff"/>
      <stop offset="1.0" stop-color="#ff66cc"/>
    </radialGradient>
    <radialGradient cx="0" cy="0" gradientTransform="matrix(0.0538, 0.0, 0.0, 0.0538, 13.65, -6.3)" gradientUnits="userSpaceOnUse" id="gradient1" r="819.2" spreadMethod="pad">
      <stop offset="0.0" stop-color="#0099ff"/>
      <stop offset="1.0" stop-color="#00ffff"/>
      <stop offset="1.0" stop-color="#ff66cc"/>
    </radialGradient>
  </defs>
</svg>
