<?xml version="1.0" encoding="UTF-8" standalone="no"?>
<svg xmlns:xlink="http://www.w3.org/1999/xlink" height="60.0px" width="60.0px" xmlns="http://www.w3.org/2000/svg">
  <g transform="matrix(1.0, 0.0, 0.0, 1.0, 30.0, 30.05)">
    <path d="M21.25 -21.25 Q30.0 -12.5 30.0 -0.05 30.0 12.35 21.25 21.15 12.45 29.95 0.0 29.95 -12.4 29.95 -21.2 21.15 -30.0 12.35 -30.0 -0.05 -30.0 -12.5 -21.2 -21.25 -12.4 -30.05 0.0 -30.05 12.45 -30.05 21.25 -21.25 M24.55 -14.2 Q18.7 -24.3 7.45 -27.3 -3.85 -30.3 -13.9 -24.5 -24.0 -18.65 -27.0 -7.4 -30.05 3.85 -24.2 13.95 -18.4 24.05 -7.15 27.05 4.1 30.05 14.25 24.25 24.3 18.4 27.35 7.15 30.35 -4.1 24.55 -14.2" fill="url(#gradient0)" fill-rule="evenodd" stroke="none"/>
    <path d="M24.55 -14.2 Q30.35 -4.1 27.35 7.15 24.3 18.4 14.25 24.25 4.1 30.05 -7.15 27.05 -18.4 24.05 -24.2 13.95 -30.05 3.85 -27.0 -7.4 -24.0 -18.65 -13.9 -24.5 -3.85 -30.3 7.45 -27.3 18.7 -24.3 24.55 -14.2" fill="url(#gradient1)" fill-rule="evenodd" stroke="none"/>
    <path d="M1.7 -5.9 Q4.15 -5.95 5.55 -3.9 6.6 -2.3 6.05 0.75 5.45 3.4 3.75 4.5 2.35 5.2 0.15 5.2 L-0.55 5.2 -1.65 -6.05 1.7 -5.9 M4.75 9.85 Q4.2 11.55 1.2 11.55 L0.05 11.55 -0.35 6.8 0.65 6.8 Q5.5 6.75 4.75 9.85" fill="#ffcc00" fill-rule="evenodd" stroke="none"/>
    <path d="M10.1 -17.4 L22.45 -5.65 0.65 21.5 -21.65 -5.9 -9.05 -17.4 10.1 -17.4 M11.25 -2.15 L11.45 -5.0 Q11.4 -7.7 10.05 -9.6 7.65 -12.75 0.3 -12.65 L-13.1 -12.5 Q-13.75 -12.5 -13.45 -11.75 -13.5 -11.45 -13.15 -10.85 L-12.0 -8.2 Q-11.5 -6.85 -10.8 -6.8 L-6.75 -6.3 -1.85 11.55 -3.3 11.65 Q-3.55 11.55 -3.4 11.85 L-3.25 12.1 -3.05 12.25 1.35 12.35 Q4.45 12.3 6.0 11.3 L7.4 9.8 Q8.0 8.35 6.95 7.15 6.3 5.85 4.65 5.8 8.5 4.65 10.4 0.2 L11.25 -2.15" fill="#ffcc00" fill-rule="evenodd" stroke="none"/>
    <path d="M1.7 -5.9 L-1.65 -6.05 -0.55 5.2 0.15 5.2 Q2.35 5.2 3.75 4.5 5.45 3.4 6.05 0.75 6.6 -2.3 5.55 -3.9 4.15 -5.95 1.7 -5.9 M11.25 -2.15 L10.4 0.2 Q8.5 4.65 4.65 5.8 6.3 5.85 6.95 7.15 8.0 8.35 7.4 9.8 L6.0 11.3 Q4.45 12.3 1.35 12.35 L-3.05 12.25 -3.25 12.1 -3.4 11.85 Q-3.55 11.55 -3.3 11.65 L-1.85 11.55 -6.75 -6.3 -10.8 -6.8 Q-11.5 -6.85 -12.0 -8.2 L-13.15 -10.85 Q-13.5 -11.45 -13.45 -11.75 -13.75 -12.5 -13.1 -12.5 L0.3 -12.65 Q7.65 -12.75 10.05 -9.6 11.4 -7.7 11.45 -5.0 L11.25 -2.15 M-0.55 5.2 L-0.6 5.2 -0.55 5.35 -0.55 5.2 M-1.65 -6.05 L-1.75 -6.5 Q-1.75 -6.25 -1.9 -6.05 L-1.65 -6.05 M0.05 11.55 L0.0 11.55 0.1 11.65 0.05 11.55 1.2 11.55 Q4.2 11.55 4.75 9.85 5.5 6.75 0.65 6.8 L-0.35 6.8 -0.4 6.65 -0.55 6.8 -0.35 6.8 0.05 11.55" fill="#ff0000" fill-rule="evenodd" stroke="none"/>
    <path d="M10.1 -17.4 L-9.05 -17.4 -21.65 -5.9 0.65 21.5 22.45 -5.65 10.1 -17.4 Z" fill="none" stroke="#ff0000" stroke-linecap="round" stroke-linejoin="round" stroke-width="1.0"/>
  </g>
  <defs>
    <radialGradient cx="0" cy="0" gradientTransform="matrix(0.0574, 0.0, 0.0, 0.0574, -8.1, -14.75)" gradientUnits="userSpaceOnUse" id="gradient0" r="819.2" spreadMethod="pad">
      <stop offset="0.0" stop-color="#0066ff"/>
      <stop offset="1.0" stop-color="#000099"/>
      <stop offset="1.0" stop-color="#ff66cc"/>
    </radialGradient>
    <radialGradient cx="0" cy="0" gradientTransform="matrix(0.0538, 0.0, 0.0, 0.0538, 13.65, -6.3)" gradientUnits="userSpaceOnUse" id="gradient1" r="819.2" spreadMethod="pad">
      <stop offset="0.0" stop-color="#0066ff"/>
      <stop offset="1.0" stop-color="#000099"/>
      <stop offset="1.0" stop-color="#ff66cc"/>
    </radialGradient>
  </defs>
</svg>
