<?xml version="1.0" encoding="UTF-8" standalone="no"?>
<svg xmlns:xlink="http://www.w3.org/1999/xlink" height="60.0px" width="60.0px" xmlns="http://www.w3.org/2000/svg">
  <g transform="matrix(1.0, 0.0, 0.0, 1.0, 30.0, 30.05)">
    <path d="M21.25 -21.25 Q30.0 -12.5 30.0 -0.05 30.0 12.35 21.25 21.15 12.45 29.95 0.0 29.95 -12.4 29.95 -21.2 21.15 -30.0 12.35 -30.0 -0.05 -30.0 -12.5 -21.2 -21.25 -12.4 -30.05 0.0 -30.05 12.45 -30.05 21.25 -21.25 M24.55 -14.2 Q18.7 -24.3 7.45 -27.3 -3.85 -30.3 -13.9 -24.5 -24.0 -18.65 -27.0 -7.4 -30.05 3.85 -24.2 13.95 -18.4 24.05 -7.15 27.05 4.1 30.05 14.25 24.25 24.3 18.4 27.35 7.15 30.35 -4.1 24.55 -14.2" fill="url(#gradient0)" fill-rule="evenodd" stroke="none"/>
    <path d="M24.55 -14.2 Q30.35 -4.1 27.35 7.15 24.3 18.4 14.25 24.25 4.1 30.05 -7.15 27.05 -18.4 24.05 -24.2 13.95 -30.05 3.85 -27.0 -7.4 -24.0 -18.65 -13.9 -24.5 -3.85 -30.3 7.45 -27.3 18.7 -24.3 24.55 -14.2" fill="url(#gradient1)" fill-rule="evenodd" stroke="none"/>
  </g>
  <defs>
    <radialGradient cx="0" cy="0" gradientTransform="matrix(0.0574, 0.0, 0.0, 0.0574, -8.1, -14.75)" gradientUnits="userSpaceOnUse" id="gradient0" r="819.2" spreadMethod="pad">
      <stop offset="0.0" stop-color="#ffffff"/>
      <stop offset="1.0" stop-color="#ff66cc"/>
      <stop offset="1.0" stop-color="#ff66cc"/>
    </radialGradient>
    <radialGradient cx="0" cy="0" gradientTransform="matrix(0.0538, 0.0, 0.0, 0.0538, 13.65, -6.3)" gradientUnits="userSpaceOnUse" id="gradient1" r="819.2" spreadMethod="pad">
      <stop offset="0.0" stop-color="#ffffff"/>
      <stop offset="1.0" stop-color="#ff66cc"/>
      <stop offset="1.0" stop-color="#ff66cc"/>
    </radialGradient>
  </defs>
</svg>
